<svg width="243" height="200" viewBox="0 0 243 200" fill="none" xmlns="http://www.w3.org/2000/svg">
<path d="M249.921 175.948H-11.3525V176.082H249.921V175.948Z" fill="#EBEBEB"/>
<path d="M223.741 184.563H206.434V184.697H223.741V184.563Z" fill="#EBEBEB"/>
<path d="M161.726 186.021H157.185V186.154H161.726V186.021Z" fill="#EBEBEB"/>
<path d="M205.912 179.595H195.884V179.729H205.912V179.595Z" fill="#EBEBEB"/>
<path d="M38.6288 180.494H16.0601V180.628H38.6288V180.494Z" fill="#EBEBEB"/>
<path d="M46.5924 180.494H43.2847V180.628H46.5924V180.494Z" fill="#EBEBEB"/>
<path d="M106.298 182.754H57.3462V182.888H106.298V182.754Z" fill="#EBEBEB"/>
<path d="M112.491 152.067H11.5923C10.8019 152.065 10.0443 151.743 9.48584 151.169C8.92741 150.596 8.61377 149.819 8.61377 149.009V3.67033C8.62065 2.86502 8.93733 2.09501 9.49501 1.52755C10.0527 0.960097 10.8064 0.641028 11.5923 0.639648H112.491C113.282 0.639648 114.041 0.961773 114.601 1.53516C115.16 2.10854 115.475 2.88622 115.475 3.6971V149.009C115.475 149.82 115.16 150.598 114.601 151.171C114.041 151.745 113.282 152.067 112.491 152.067V152.067ZM11.5923 0.74674C10.8365 0.748159 10.1121 1.0568 9.57821 1.60493C9.04428 2.15306 8.7444 2.89587 8.74441 3.67033V149.009C8.7444 149.784 9.04428 150.527 9.57821 151.075C10.1121 151.623 10.8365 151.931 11.5923 151.933H112.491C113.247 151.931 113.972 151.623 114.507 151.075C115.041 150.527 115.343 149.784 115.344 149.009V3.67033C115.343 2.89538 115.041 2.15258 114.507 1.6046C113.972 1.05663 113.247 0.748156 112.491 0.74674H11.5923Z" fill="#EBEBEB"/>
<path d="M225.523 152.067H124.619C123.829 152.065 123.07 151.743 122.511 151.17C121.952 150.597 121.637 149.82 121.636 149.009V3.67033C121.644 2.86453 121.962 2.09452 122.52 1.52722C123.079 0.95991 123.833 0.641013 124.619 0.639648H225.523C226.308 0.642435 227.061 0.962127 227.617 1.52943C228.174 2.09674 228.49 2.86594 228.497 3.67033V149.009C228.497 149.818 228.184 150.594 227.626 151.167C227.069 151.741 226.313 152.064 225.523 152.067V152.067ZM124.619 0.74674C123.863 0.748156 123.138 1.05663 122.604 1.6046C122.069 2.15258 121.768 2.89538 121.766 3.67033V149.009C121.768 149.784 122.069 150.527 122.604 151.075C123.138 151.623 123.863 151.931 124.619 151.933H225.523C226.279 151.931 227.004 151.623 227.539 151.075C228.074 150.527 228.375 149.784 228.376 149.009V3.67033C228.375 2.89538 228.074 2.15258 227.539 1.6046C227.004 1.05663 226.279 0.748156 225.523 0.74674H124.619Z" fill="#EBEBEB"/>
<path d="M215.088 170.048V144.978H212.998V133.032H209.941V91.5018H205.515V86.1418L196.078 81.6279V76.2252H194.771V91.5018H192.942V133.032H191.108V111.196H186.144V99.9406H184.754V133.032H180.981V120.438H178.499V117.225H172.746V106.238H169.595V98.4681H165.723V87.1431H164.338V98.4681H160.466V106.238H157.315V117.225H151.562V120.438H149.08V133.032H146.133V117.225H140.38V83.1915H138.551V79.4433H126.26V83.1915H123.642V107.844H113.186V110.259H109.262V112.133H113.186V121.782H102.202V89.6223H99.8508V82.7899H94.7507V58.5391H93.3085V82.7899H89.6507V89.6223H68.1897V87.3734H66.8781V102.65H65.0492V102.918H63.9519V118.189H62.1177V122.344H58.2509V111.089H56.8661V137.883H55.3194V126.633H53.9346V144.18H53.0933V131.586H50.606V128.373H44.8528V117.386H41.7018V109.616H37.8298V98.2967H36.4502V109.616H32.5729V117.386H29.4272V128.373H23.674V131.586H21.1867V143.912H20.7425V144.18H19.5093V170.048H215.088Z" fill="#E6E6E6"/>
<path d="M81.6452 91.127H80.1611V92.6476H81.6452V91.127Z" fill="#F0F0F0"/>
<path d="M81.6452 93.6699H80.1611V95.1906H81.6452V93.6699Z" fill="#F0F0F0"/>
<path d="M81.6452 103.854H80.1611V105.375H81.6452V103.854Z" fill="#F0F0F0"/>
<path d="M81.6452 106.397H80.1611V107.918H81.6452V106.397Z" fill="#F0F0F0"/>
<path d="M81.6452 108.946H80.1611V110.467H81.6452V108.946Z" fill="#F0F0F0"/>
<path d="M81.6452 116.582H80.1611V118.103H81.6452V116.582Z" fill="#F0F0F0"/>
<path d="M81.6452 119.125H80.1611V120.646H81.6452V119.125Z" fill="#F0F0F0"/>
<path d="M84.0016 101.311H82.5176V102.831H84.0016V101.311Z" fill="#F0F0F0"/>
<path d="M84.0016 103.854H82.5176V105.375H84.0016V103.854Z" fill="#F0F0F0"/>
<path d="M84.0016 106.397H82.5176V107.918H84.0016V106.397Z" fill="#F0F0F0"/>
<path d="M84.0016 108.946H82.5176V110.467H84.0016V108.946Z" fill="#F0F0F0"/>
<path d="M84.0016 111.49H82.5176V113.011H84.0016V111.49Z" fill="#F0F0F0"/>
<path d="M84.0016 116.582H82.5176V118.103H84.0016V116.582Z" fill="#F0F0F0"/>
<path d="M84.0016 119.125H82.5176V120.646H84.0016V119.125Z" fill="#F0F0F0"/>
<path d="M86.3532 91.127H84.8691V92.6476H86.3532V91.127Z" fill="#F0F0F0"/>
<path d="M86.3532 93.6699H84.8691V95.1906H86.3532V93.6699Z" fill="#F0F0F0"/>
<path d="M86.3532 96.2188H84.8691V97.7394H86.3532V96.2188Z" fill="#F0F0F0"/>
<path d="M86.3532 98.7617H84.8691V100.282H86.3532V98.7617Z" fill="#F0F0F0"/>
<path d="M86.3532 101.311H84.8691V102.831H86.3532V101.311Z" fill="#F0F0F0"/>
<path d="M86.3532 103.854H84.8691V105.375H86.3532V103.854Z" fill="#F0F0F0"/>
<path d="M86.3532 106.397H84.8691V107.918H86.3532V106.397Z" fill="#F0F0F0"/>
<path d="M86.3532 108.946H84.8691V110.467H86.3532V108.946Z" fill="#F0F0F0"/>
<path d="M86.3532 111.49H84.8691V113.011H86.3532V111.49Z" fill="#F0F0F0"/>
<path d="M86.3532 114.038H84.8691V115.559H86.3532V114.038Z" fill="#F0F0F0"/>
<path d="M86.3532 119.125H84.8691V120.646H86.3532V119.125Z" fill="#F0F0F0"/>
<path d="M88.7047 91.127H87.2207V92.6476H88.7047V91.127Z" fill="#F0F0F0"/>
<path d="M88.7047 93.6699H87.2207V95.1906H88.7047V93.6699Z" fill="#F0F0F0"/>
<path d="M88.7047 96.2188H87.2207V97.7394H88.7047V96.2188Z" fill="#F0F0F0"/>
<path d="M88.7047 98.7617H87.2207V100.282H88.7047V98.7617Z" fill="#F0F0F0"/>
<path d="M88.7047 101.311H87.2207V102.831H88.7047V101.311Z" fill="#F0F0F0"/>
<path d="M88.7047 103.854H87.2207V105.375H88.7047V103.854Z" fill="#F0F0F0"/>
<path d="M88.7047 106.397H87.2207V107.918H88.7047V106.397Z" fill="#F0F0F0"/>
<path d="M88.7047 129.311H87.2207V130.831H88.7047V129.311Z" fill="#F0F0F0"/>
<path d="M91.0612 91.127H89.5771V92.6476H91.0612V91.127Z" fill="#F0F0F0"/>
<path d="M91.0612 93.6699H89.5771V95.1906H91.0612V93.6699Z" fill="#F0F0F0"/>
<path d="M91.0612 96.2188H89.5771V97.7394H91.0612V96.2188Z" fill="#F0F0F0"/>
<path d="M91.0612 98.7617H89.5771V100.282H91.0612V98.7617Z" fill="#F0F0F0"/>
<path d="M91.0612 101.311H89.5771V102.831H91.0612V101.311Z" fill="#F0F0F0"/>
<path d="M91.0612 103.854H89.5771V105.375H91.0612V103.854Z" fill="#F0F0F0"/>
<path d="M91.0612 106.397H89.5771V107.918H91.0612V106.397Z" fill="#F0F0F0"/>
<path d="M91.0612 108.946H89.5771V110.467H91.0612V108.946Z" fill="#F0F0F0"/>
<path d="M91.0612 124.218H89.5771V125.738H91.0612V124.218Z" fill="#F0F0F0"/>
<path d="M91.0612 126.767H89.5771V128.287H91.0612V126.767Z" fill="#F0F0F0"/>
<path d="M91.0612 129.311H89.5771V130.831H91.0612V129.311Z" fill="#F0F0F0"/>
<path d="M91.0612 131.854H89.5771V133.374H91.0612V131.854Z" fill="#F0F0F0"/>
<path d="M91.0612 142.038H89.5771V143.559H91.0612V142.038Z" fill="#F0F0F0"/>
<path d="M93.4128 91.127H91.9287V92.6476H93.4128V91.127Z" fill="#F0F0F0"/>
<path d="M93.4128 93.6699H91.9287V95.1906H93.4128V93.6699Z" fill="#F0F0F0"/>
<path d="M93.4128 96.2188H91.9287V97.7394H93.4128V96.2188Z" fill="#F0F0F0"/>
<path d="M93.4128 98.7617H91.9287V100.282H93.4128V98.7617Z" fill="#F0F0F0"/>
<path d="M93.4128 101.311H91.9287V102.831H93.4128V101.311Z" fill="#F0F0F0"/>
<path d="M93.4128 103.854H91.9287V105.375H93.4128V103.854Z" fill="#F0F0F0"/>
<path d="M93.4128 106.397H91.9287V107.918H93.4128V106.397Z" fill="#F0F0F0"/>
<path d="M93.4128 108.946H91.9287V110.467H93.4128V108.946Z" fill="#F0F0F0"/>
<path d="M93.4128 111.49H91.9287V113.011H93.4128V111.49Z" fill="#F0F0F0"/>
<path d="M93.4128 114.038H91.9287V115.559H93.4128V114.038Z" fill="#F0F0F0"/>
<path d="M93.4128 121.675H91.9287V123.196H93.4128V121.675Z" fill="#F0F0F0"/>
<path d="M93.4128 124.218H91.9287V125.738H93.4128V124.218Z" fill="#F0F0F0"/>
<path d="M93.4128 126.767H91.9287V128.287H93.4128V126.767Z" fill="#F0F0F0"/>
<path d="M93.4128 129.311H91.9287V130.831H93.4128V129.311Z" fill="#F0F0F0"/>
<path d="M93.4128 131.854H91.9287V133.374H93.4128V131.854Z" fill="#F0F0F0"/>
<path d="M93.4128 142.038H91.9287V143.559H93.4128V142.038Z" fill="#F0F0F0"/>
<path d="M95.7692 91.127H94.2852V92.6476H95.7692V91.127Z" fill="#F0F0F0"/>
<path d="M95.7692 93.6699H94.2852V95.1906H95.7692V93.6699Z" fill="#F0F0F0"/>
<path d="M95.7692 96.2188H94.2852V97.7394H95.7692V96.2188Z" fill="#F0F0F0"/>
<path d="M95.7692 98.7617H94.2852V100.282H95.7692V98.7617Z" fill="#F0F0F0"/>
<path d="M95.7692 101.311H94.2852V102.831H95.7692V101.311Z" fill="#F0F0F0"/>
<path d="M95.7692 103.854H94.2852V105.375H95.7692V103.854Z" fill="#F0F0F0"/>
<path d="M95.7692 106.397H94.2852V107.918H95.7692V106.397Z" fill="#F0F0F0"/>
<path d="M95.7692 108.946H94.2852V110.467H95.7692V108.946Z" fill="#F0F0F0"/>
<path d="M95.7692 111.49H94.2852V113.011H95.7692V111.49Z" fill="#F0F0F0"/>
<path d="M95.7692 114.038H94.2852V115.559H95.7692V114.038Z" fill="#F0F0F0"/>
<path d="M95.7692 116.582H94.2852V118.103H95.7692V116.582Z" fill="#F0F0F0"/>
<path d="M95.7692 119.125H94.2852V120.646H95.7692V119.125Z" fill="#F0F0F0"/>
<path d="M95.7692 121.675H94.2852V123.196H95.7692V121.675Z" fill="#F0F0F0"/>
<path d="M95.7692 124.218H94.2852V125.738H95.7692V124.218Z" fill="#F0F0F0"/>
<path d="M95.7692 126.767H94.2852V128.287H95.7692V126.767Z" fill="#F0F0F0"/>
<path d="M95.7692 129.311H94.2852V130.831H95.7692V129.311Z" fill="#F0F0F0"/>
<path d="M95.7692 131.854H94.2852V133.374H95.7692V131.854Z" fill="#F0F0F0"/>
<path d="M95.7692 134.402H94.2852V135.923H95.7692V134.402Z" fill="#F0F0F0"/>
<path d="M98.1212 91.127H96.6372V92.6476H98.1212V91.127Z" fill="#F0F0F0"/>
<path d="M98.1212 93.6699H96.6372V95.1906H98.1212V93.6699Z" fill="#F0F0F0"/>
<path d="M98.1212 96.2188H96.6372V97.7394H98.1212V96.2188Z" fill="#F0F0F0"/>
<path d="M98.1212 98.7617H96.6372V100.282H98.1212V98.7617Z" fill="#F0F0F0"/>
<path d="M98.1212 101.311H96.6372V102.831H98.1212V101.311Z" fill="#F0F0F0"/>
<path d="M98.1212 103.854H96.6372V105.375H98.1212V103.854Z" fill="#F0F0F0"/>
<path d="M98.1212 106.397H96.6372V107.918H98.1212V106.397Z" fill="#F0F0F0"/>
<path d="M98.1212 108.946H96.6372V110.467H98.1212V108.946Z" fill="#F0F0F0"/>
<path d="M98.1212 111.49H96.6372V113.011H98.1212V111.49Z" fill="#F0F0F0"/>
<path d="M98.1212 114.038H96.6372V115.559H98.1212V114.038Z" fill="#F0F0F0"/>
<path d="M98.1212 121.675H96.6372V123.196H98.1212V121.675Z" fill="#F0F0F0"/>
<path d="M98.1212 124.218H96.6372V125.738H98.1212V124.218Z" fill="#F0F0F0"/>
<path d="M98.1212 126.767H96.6372V128.287H98.1212V126.767Z" fill="#F0F0F0"/>
<path d="M98.1212 129.311H96.6372V130.831H98.1212V129.311Z" fill="#F0F0F0"/>
<path d="M100.472 91.127H98.9883V92.6476H100.472V91.127Z" fill="#F0F0F0"/>
<path d="M100.472 93.6699H98.9883V95.1906H100.472V93.6699Z" fill="#F0F0F0"/>
<path d="M100.472 96.2188H98.9883V97.7394H100.472V96.2188Z" fill="#F0F0F0"/>
<path d="M100.472 98.7617H98.9883V100.282H100.472V98.7617Z" fill="#F0F0F0"/>
<path d="M100.472 101.311H98.9883V102.831H100.472V101.311Z" fill="#F0F0F0"/>
<path d="M100.472 103.854H98.9883V105.375H100.472V103.854Z" fill="#F0F0F0"/>
<path d="M100.472 106.397H98.9883V107.918H100.472V106.397Z" fill="#F0F0F0"/>
<path d="M100.472 108.946H98.9883V110.467H100.472V108.946Z" fill="#F0F0F0"/>
<path d="M100.472 111.49H98.9883V113.011H100.472V111.49Z" fill="#F0F0F0"/>
<path d="M100.472 114.038H98.9883V115.559H100.472V114.038Z" fill="#F0F0F0"/>
<path d="M100.472 121.675H98.9883V123.196H100.472V121.675Z" fill="#F0F0F0"/>
<path d="M100.472 124.218H98.9883V125.738H100.472V124.218Z" fill="#F0F0F0"/>
<path d="M100.472 126.767H98.9883V128.287H100.472V126.767Z" fill="#F0F0F0"/>
<path d="M126.97 84.5195H125.486V86.0402H126.97V84.5195Z" fill="#F0F0F0"/>
<path d="M126.97 87.0625H125.486V88.5832H126.97V87.0625Z" fill="#F0F0F0"/>
<path d="M126.97 89.6055H125.486V91.1262H126.97V89.6055Z" fill="#F0F0F0"/>
<path d="M126.97 92.1543H125.486V93.675H126.97V92.1543Z" fill="#F0F0F0"/>
<path d="M126.97 94.6982H125.486V96.2189H126.97V94.6982Z" fill="#F0F0F0"/>
<path d="M126.97 97.2471H125.486V98.7678H126.97V97.2471Z" fill="#F0F0F0"/>
<path d="M126.97 99.79H125.486V101.311H126.97V99.79Z" fill="#F0F0F0"/>
<path d="M126.97 102.333H125.486V103.854H126.97V102.333Z" fill="#F0F0F0"/>
<path d="M126.97 109.975H125.486V111.495H126.97V109.975Z" fill="#F0F0F0"/>
<path d="M126.97 112.519H125.486V114.039H126.97V112.519Z" fill="#F0F0F0"/>
<path d="M129.327 84.5195H127.843V86.0402H129.327V84.5195Z" fill="#F0F0F0"/>
<path d="M129.327 87.0625H127.843V88.5832H129.327V87.0625Z" fill="#F0F0F0"/>
<path d="M129.327 89.6055H127.843V91.1262H129.327V89.6055Z" fill="#F0F0F0"/>
<path d="M129.327 92.1543H127.843V93.675H129.327V92.1543Z" fill="#F0F0F0"/>
<path d="M129.327 94.6982H127.843V96.2189H129.327V94.6982Z" fill="#F0F0F0"/>
<path d="M129.327 97.2471H127.843V98.7678H129.327V97.2471Z" fill="#F0F0F0"/>
<path d="M129.327 99.79H127.843V101.311H129.327V99.79Z" fill="#F0F0F0"/>
<path d="M129.327 102.333H127.843V103.854H129.327V102.333Z" fill="#F0F0F0"/>
<path d="M129.327 112.519H127.843V114.039H129.327V112.519Z" fill="#F0F0F0"/>
<path d="M131.679 84.5195H130.195V86.0402H131.679V84.5195Z" fill="#F0F0F0"/>
<path d="M131.679 87.0625H130.195V88.5832H131.679V87.0625Z" fill="#F0F0F0"/>
<path d="M131.679 89.6055H130.195V91.1262H131.679V89.6055Z" fill="#F0F0F0"/>
<path d="M131.679 92.1543H130.195V93.675H131.679V92.1543Z" fill="#F0F0F0"/>
<path d="M131.679 94.6982H130.195V96.2189H131.679V94.6982Z" fill="#F0F0F0"/>
<path d="M131.679 97.2471H130.195V98.7678H131.679V97.2471Z" fill="#F0F0F0"/>
<path d="M131.679 99.79H130.195V101.311H131.679V99.79Z" fill="#F0F0F0"/>
<path d="M131.679 102.333H130.195V103.854H131.679V102.333Z" fill="#F0F0F0"/>
<path d="M134.03 84.5195H132.546V86.0402H134.03V84.5195Z" fill="#F0F0F0"/>
<path d="M134.03 87.0625H132.546V88.5832H134.03V87.0625Z" fill="#F0F0F0"/>
<path d="M134.03 89.6055H132.546V91.1262H134.03V89.6055Z" fill="#F0F0F0"/>
<path d="M134.03 92.1543H132.546V93.675H134.03V92.1543Z" fill="#F0F0F0"/>
<path d="M134.03 94.6982H132.546V96.2189H134.03V94.6982Z" fill="#F0F0F0"/>
<path d="M134.03 97.2471H132.546V98.7678H134.03V97.2471Z" fill="#F0F0F0"/>
<path d="M134.03 102.333H132.546V103.854H134.03V102.333Z" fill="#F0F0F0"/>
<path d="M134.03 104.882H132.546V106.403H134.03V104.882Z" fill="#F0F0F0"/>
<path d="M134.03 112.519H132.546V114.039H134.03V112.519Z" fill="#F0F0F0"/>
<path d="M134.03 115.062H132.546V116.582H134.03V115.062Z" fill="#F0F0F0"/>
<path d="M134.03 117.61H132.546V119.131H134.03V117.61Z" fill="#F0F0F0"/>
<path d="M134.03 120.153H132.546V121.674H134.03V120.153Z" fill="#F0F0F0"/>
<path d="M134.03 122.702H132.546V124.223H134.03V122.702Z" fill="#F0F0F0"/>
<path d="M134.03 125.246H132.546V126.767H134.03V125.246Z" fill="#F0F0F0"/>
<path d="M134.03 127.789H132.546V129.31H134.03V127.789Z" fill="#F0F0F0"/>
<path d="M136.387 84.5195H134.903V86.0402H136.387V84.5195Z" fill="#F0F0F0"/>
<path d="M136.387 87.0625H134.903V88.5832H136.387V87.0625Z" fill="#F0F0F0"/>
<path d="M136.387 89.6055H134.903V91.1262H136.387V89.6055Z" fill="#F0F0F0"/>
<path d="M136.387 92.1543H134.903V93.675H136.387V92.1543Z" fill="#F0F0F0"/>
<path d="M136.387 94.6982H134.903V96.2189H136.387V94.6982Z" fill="#F0F0F0"/>
<path d="M136.387 97.2471H134.903V98.7678H136.387V97.2471Z" fill="#F0F0F0"/>
<path d="M136.387 104.882H134.903V106.403H136.387V104.882Z" fill="#F0F0F0"/>
<path d="M136.387 107.426H134.903V108.946H136.387V107.426Z" fill="#F0F0F0"/>
<path d="M136.387 109.975H134.903V111.495H136.387V109.975Z" fill="#F0F0F0"/>
<path d="M136.387 112.519H134.903V114.039H136.387V112.519Z" fill="#F0F0F0"/>
<path d="M136.387 115.062H134.903V116.582H136.387V115.062Z" fill="#F0F0F0"/>
<path d="M136.387 117.61H134.903V119.131H136.387V117.61Z" fill="#F0F0F0"/>
<path d="M136.387 120.153H134.903V121.674H136.387V120.153Z" fill="#F0F0F0"/>
<path d="M136.387 122.702H134.903V124.223H136.387V122.702Z" fill="#F0F0F0"/>
<path d="M136.387 125.246H134.903V126.767H136.387V125.246Z" fill="#F0F0F0"/>
<path d="M136.387 127.789H134.903V129.31H136.387V127.789Z" fill="#F0F0F0"/>
<path d="M136.387 130.338H134.903V131.859H136.387V130.338Z" fill="#F0F0F0"/>
<path d="M136.387 135.43H134.903V136.95H136.387V135.43Z" fill="#F0F0F0"/>
<path d="M138.738 84.5195H137.254V86.0402H138.738V84.5195Z" fill="#F0F0F0"/>
<path d="M138.738 87.0625H137.254V88.5832H138.738V87.0625Z" fill="#F0F0F0"/>
<path d="M138.738 89.6055H137.254V91.1262H138.738V89.6055Z" fill="#F0F0F0"/>
<path d="M138.738 92.1543H137.254V93.675H138.738V92.1543Z" fill="#F0F0F0"/>
<path d="M138.738 94.6982H137.254V96.2189H138.738V94.6982Z" fill="#F0F0F0"/>
<path d="M138.738 97.2471H137.254V98.7678H138.738V97.2471Z" fill="#F0F0F0"/>
<path d="M138.738 104.882H137.254V106.403H138.738V104.882Z" fill="#F0F0F0"/>
<path d="M138.738 107.426H137.254V108.946H138.738V107.426Z" fill="#F0F0F0"/>
<path d="M138.738 109.975H137.254V111.495H138.738V109.975Z" fill="#F0F0F0"/>
<path d="M138.738 112.519H137.254V114.039H138.738V112.519Z" fill="#F0F0F0"/>
<path d="M138.738 120.153H137.254V121.674H138.738V120.153Z" fill="#F0F0F0"/>
<path d="M138.738 122.702H137.254V124.223H138.738V122.702Z" fill="#F0F0F0"/>
<path d="M138.738 125.246H137.254V126.767H138.738V125.246Z" fill="#F0F0F0"/>
<path d="M138.738 127.789H137.254V129.31H138.738V127.789Z" fill="#F0F0F0"/>
<path d="M138.738 130.338H137.254V131.859H138.738V130.338Z" fill="#F0F0F0"/>
<path d="M138.738 135.43H137.254V136.95H138.738V135.43Z" fill="#F0F0F0"/>
<path d="M138.738 137.974H137.254V139.494H138.738V137.974Z" fill="#F0F0F0"/>
<path d="M160.095 108.186H158.611V109.706H160.095V108.186Z" fill="#F0F0F0"/>
<path d="M160.095 110.729H158.611V112.25H160.095V110.729Z" fill="#F0F0F0"/>
<path d="M160.095 113.278H158.611V114.799H160.095V113.278Z" fill="#F0F0F0"/>
<path d="M160.095 115.822H158.611V117.343H160.095V115.822Z" fill="#F0F0F0"/>
<path d="M160.095 118.371H158.611V119.892H160.095V118.371Z" fill="#F0F0F0"/>
<path d="M160.095 120.914H158.611V122.435H160.095V120.914Z" fill="#F0F0F0"/>
<path d="M160.095 123.458H158.611V124.979H160.095V123.458Z" fill="#F0F0F0"/>
<path d="M160.095 131.099H158.611V132.619H160.095V131.099Z" fill="#F0F0F0"/>
<path d="M160.095 133.642H158.611V135.162H160.095V133.642Z" fill="#F0F0F0"/>
<path d="M160.095 136.186H158.611V137.706H160.095V136.186Z" fill="#F0F0F0"/>
<path d="M162.446 108.186H160.962V109.706H162.446V108.186Z" fill="#F0F0F0"/>
<path d="M162.446 110.729H160.962V112.25H162.446V110.729Z" fill="#F0F0F0"/>
<path d="M162.446 113.278H160.962V114.799H162.446V113.278Z" fill="#F0F0F0"/>
<path d="M162.446 115.822H160.962V117.343H162.446V115.822Z" fill="#F0F0F0"/>
<path d="M162.446 118.371H160.962V119.892H162.446V118.371Z" fill="#F0F0F0"/>
<path d="M162.446 120.914H160.962V122.435H162.446V120.914Z" fill="#F0F0F0"/>
<path d="M162.446 123.458H160.962V124.979H162.446V123.458Z" fill="#F0F0F0"/>
<path d="M164.803 108.186H163.319V109.706H164.803V108.186Z" fill="#F0F0F0"/>
<path d="M164.803 110.729H163.319V112.25H164.803V110.729Z" fill="#F0F0F0"/>
<path d="M164.803 113.278H163.319V114.799H164.803V113.278Z" fill="#F0F0F0"/>
<path d="M164.803 115.822H163.319V117.343H164.803V115.822Z" fill="#F0F0F0"/>
<path d="M164.803 118.371H163.319V119.892H164.803V118.371Z" fill="#F0F0F0"/>
<path d="M164.803 120.914H163.319V122.435H164.803V120.914Z" fill="#F0F0F0"/>
<path d="M164.803 123.458H163.319V124.979H164.803V123.458Z" fill="#F0F0F0"/>
<path d="M167.155 108.186H165.671V109.706H167.155V108.186Z" fill="#F0F0F0"/>
<path d="M167.155 110.729H165.671V112.25H167.155V110.729Z" fill="#F0F0F0"/>
<path d="M167.155 113.278H165.671V114.799H167.155V113.278Z" fill="#F0F0F0"/>
<path d="M167.155 115.822H165.671V117.343H167.155V115.822Z" fill="#F0F0F0"/>
<path d="M167.155 118.371H165.671V119.892H167.155V118.371Z" fill="#F0F0F0"/>
<path d="M167.155 120.914H165.671V122.435H167.155V120.914Z" fill="#F0F0F0"/>
<path d="M167.155 123.458H165.671V124.979H167.155V123.458Z" fill="#F0F0F0"/>
<path d="M167.155 126.006H165.671V127.527H167.155V126.006Z" fill="#F0F0F0"/>
<path d="M167.155 128.55H165.671V130.071H167.155V128.55Z" fill="#F0F0F0"/>
<path d="M167.155 131.099H165.671V132.619H167.155V131.099Z" fill="#F0F0F0"/>
<path d="M167.155 133.642H165.671V135.162H167.155V133.642Z" fill="#F0F0F0"/>
<path d="M169.511 108.186H168.027V109.706H169.511V108.186Z" fill="#F0F0F0"/>
<path d="M169.511 110.729H168.027V112.25H169.511V110.729Z" fill="#F0F0F0"/>
<path d="M169.511 113.278H168.027V114.799H169.511V113.278Z" fill="#F0F0F0"/>
<path d="M169.511 115.822H168.027V117.343H169.511V115.822Z" fill="#F0F0F0"/>
<path d="M169.511 118.371H168.027V119.892H169.511V118.371Z" fill="#F0F0F0"/>
<path d="M169.511 120.914H168.027V122.435H169.511V120.914Z" fill="#F0F0F0"/>
<path d="M169.511 123.458H168.027V124.979H169.511V123.458Z" fill="#F0F0F0"/>
<path d="M169.511 126.006H168.027V127.527H169.511V126.006Z" fill="#F0F0F0"/>
<path d="M169.511 128.55H168.027V130.071H169.511V128.55Z" fill="#F0F0F0"/>
<path d="M169.511 131.099H168.027V132.619H169.511V131.099Z" fill="#F0F0F0"/>
<path d="M169.511 133.642H168.027V135.162H169.511V133.642Z" fill="#F0F0F0"/>
<path d="M169.511 136.186H168.027V137.706H169.511V136.186Z" fill="#F0F0F0"/>
<path d="M169.511 143.826H168.027V145.347H169.511V143.826Z" fill="#F0F0F0"/>
<path d="M169.511 146.369H168.027V147.89H169.511V146.369Z" fill="#F0F0F0"/>
<path d="M171.862 108.186H170.378V109.706H171.862V108.186Z" fill="#F0F0F0"/>
<path d="M171.862 110.729H170.378V112.25H171.862V110.729Z" fill="#F0F0F0"/>
<path d="M171.862 113.278H170.378V114.799H171.862V113.278Z" fill="#F0F0F0"/>
<path d="M171.862 120.914H170.378V122.435H171.862V120.914Z" fill="#F0F0F0"/>
<path d="M171.862 123.458H170.378V124.979H171.862V123.458Z" fill="#F0F0F0"/>
<path d="M171.862 126.006H170.378V127.527H171.862V126.006Z" fill="#F0F0F0"/>
<path d="M171.862 128.55H170.378V130.071H171.862V128.55Z" fill="#F0F0F0"/>
<path d="M171.862 131.099H170.378V132.619H171.862V131.099Z" fill="#F0F0F0"/>
<path d="M171.862 133.642H170.378V135.162H171.862V133.642Z" fill="#F0F0F0"/>
<path d="M171.862 136.186H170.378V137.706H171.862V136.186Z" fill="#F0F0F0"/>
<path d="M171.862 143.826H170.378V145.347H171.862V143.826Z" fill="#F0F0F0"/>
<path d="M171.862 146.369H170.378V147.89H171.862V146.369Z" fill="#F0F0F0"/>
<path d="M171.862 148.913H170.378V150.434H171.862V148.913Z" fill="#F0F0F0"/>
<path d="M196.532 92.915H195.048V94.4357H196.532V92.915Z" fill="#F0F0F0"/>
<path d="M196.532 95.458H195.048V96.9787H196.532V95.458Z" fill="#F0F0F0"/>
<path d="M196.532 98.002H195.048V99.5226H196.532V98.002Z" fill="#F0F0F0"/>
<path d="M196.532 100.551H195.048V102.071H196.532V100.551Z" fill="#F0F0F0"/>
<path d="M196.532 103.094H195.048V104.614H196.532V103.094Z" fill="#F0F0F0"/>
<path d="M196.532 105.643H195.048V107.163H196.532V105.643Z" fill="#F0F0F0"/>
<path d="M196.532 108.186H195.048V109.706H196.532V108.186Z" fill="#F0F0F0"/>
<path d="M196.532 110.729H195.048V112.25H196.532V110.729Z" fill="#F0F0F0"/>
<path d="M196.532 113.278H195.048V114.799H196.532V113.278Z" fill="#F0F0F0"/>
<path d="M196.532 115.822H195.048V117.343H196.532V115.822Z" fill="#F0F0F0"/>
<path d="M196.532 118.371H195.048V119.892H196.532V118.371Z" fill="#F0F0F0"/>
<path d="M196.532 120.914H195.048V122.435H196.532V120.914Z" fill="#F0F0F0"/>
<path d="M196.532 123.458H195.048V124.979H196.532V123.458Z" fill="#F0F0F0"/>
<path d="M196.532 126.006H195.048V127.527H196.532V126.006Z" fill="#F0F0F0"/>
<path d="M196.532 128.55H195.048V130.071H196.532V128.55Z" fill="#F0F0F0"/>
<path d="M196.532 131.099H195.048V132.619H196.532V131.099Z" fill="#F0F0F0"/>
<path d="M196.532 133.642H195.048V135.162H196.532V133.642Z" fill="#F0F0F0"/>
<path d="M196.532 136.186H195.048V137.706H196.532V136.186Z" fill="#F0F0F0"/>
<path d="M196.532 138.734H195.048V140.255H196.532V138.734Z" fill="#F0F0F0"/>
<path d="M196.532 141.277H195.048V142.798H196.532V141.277Z" fill="#F0F0F0"/>
<path d="M196.532 143.826H195.048V145.347H196.532V143.826Z" fill="#F0F0F0"/>
<path d="M196.532 146.369H195.048V147.89H196.532V146.369Z" fill="#F0F0F0"/>
<path d="M196.532 148.913H195.048V150.434H196.532V148.913Z" fill="#F0F0F0"/>
<path d="M198.883 92.915H197.399V94.4357H198.883V92.915Z" fill="#F0F0F0"/>
<path d="M198.883 95.458H197.399V96.9787H198.883V95.458Z" fill="#F0F0F0"/>
<path d="M198.883 98.002H197.399V99.5226H198.883V98.002Z" fill="#F0F0F0"/>
<path d="M198.883 100.551H197.399V102.071H198.883V100.551Z" fill="#F0F0F0"/>
<path d="M198.883 103.094H197.399V104.614H198.883V103.094Z" fill="#F0F0F0"/>
<path d="M198.883 105.643H197.399V107.163H198.883V105.643Z" fill="#F0F0F0"/>
<path d="M198.883 108.186H197.399V109.706H198.883V108.186Z" fill="#F0F0F0"/>
<path d="M198.883 110.729H197.399V112.25H198.883V110.729Z" fill="#F0F0F0"/>
<path d="M198.883 113.278H197.399V114.799H198.883V113.278Z" fill="#F0F0F0"/>
<path d="M198.883 115.822H197.399V117.343H198.883V115.822Z" fill="#F0F0F0"/>
<path d="M198.883 118.371H197.399V119.892H198.883V118.371Z" fill="#F0F0F0"/>
<path d="M198.883 120.914H197.399V122.435H198.883V120.914Z" fill="#F0F0F0"/>
<path d="M198.883 123.458H197.399V124.979H198.883V123.458Z" fill="#F0F0F0"/>
<path d="M198.883 126.006H197.399V127.527H198.883V126.006Z" fill="#F0F0F0"/>
<path d="M198.883 128.55H197.399V130.071H198.883V128.55Z" fill="#F0F0F0"/>
<path d="M198.883 131.099H197.399V132.619H198.883V131.099Z" fill="#F0F0F0"/>
<path d="M198.883 133.642H197.399V135.162H198.883V133.642Z" fill="#F0F0F0"/>
<path d="M198.883 136.186H197.399V137.706H198.883V136.186Z" fill="#F0F0F0"/>
<path d="M198.883 138.734H197.399V140.255H198.883V138.734Z" fill="#F0F0F0"/>
<path d="M201.235 92.915H199.751V94.4357H201.235V92.915Z" fill="#F0F0F0"/>
<path d="M201.235 95.458H199.751V96.9787H201.235V95.458Z" fill="#F0F0F0"/>
<path d="M201.235 98.002H199.751V99.5226H201.235V98.002Z" fill="#F0F0F0"/>
<path d="M201.235 100.551H199.751V102.071H201.235V100.551Z" fill="#F0F0F0"/>
<path d="M201.235 103.094H199.751V104.614H201.235V103.094Z" fill="#F0F0F0"/>
<path d="M201.235 105.643H199.751V107.163H201.235V105.643Z" fill="#F0F0F0"/>
<path d="M201.235 108.186H199.751V109.706H201.235V108.186Z" fill="#F0F0F0"/>
<path d="M201.235 110.729H199.751V112.25H201.235V110.729Z" fill="#F0F0F0"/>
<path d="M201.235 113.278H199.751V114.799H201.235V113.278Z" fill="#F0F0F0"/>
<path d="M201.235 115.822H199.751V117.343H201.235V115.822Z" fill="#F0F0F0"/>
<path d="M201.235 118.371H199.751V119.892H201.235V118.371Z" fill="#F0F0F0"/>
<path d="M201.235 120.914H199.751V122.435H201.235V120.914Z" fill="#F0F0F0"/>
<path d="M201.235 123.458H199.751V124.979H201.235V123.458Z" fill="#F0F0F0"/>
<path d="M201.235 126.006H199.751V127.527H201.235V126.006Z" fill="#F0F0F0"/>
<path d="M201.235 128.55H199.751V130.071H201.235V128.55Z" fill="#F0F0F0"/>
<path d="M201.235 131.099H199.751V132.619H201.235V131.099Z" fill="#F0F0F0"/>
<path d="M201.235 133.642H199.751V135.162H201.235V133.642Z" fill="#F0F0F0"/>
<path d="M201.235 136.186H199.751V137.706H201.235V136.186Z" fill="#F0F0F0"/>
<path d="M201.235 138.734H199.751V140.255H201.235V138.734Z" fill="#F0F0F0"/>
<path d="M203.591 92.915H202.107V94.4357H203.591V92.915Z" fill="#F0F0F0"/>
<path d="M203.591 95.458H202.107V96.9787H203.591V95.458Z" fill="#F0F0F0"/>
<path d="M203.591 98.002H202.107V99.5226H203.591V98.002Z" fill="#F0F0F0"/>
<path d="M203.591 100.551H202.107V102.071H203.591V100.551Z" fill="#F0F0F0"/>
<path d="M203.591 103.094H202.107V104.614H203.591V103.094Z" fill="#F0F0F0"/>
<path d="M203.591 105.643H202.107V107.163H203.591V105.643Z" fill="#F0F0F0"/>
<path d="M203.591 108.186H202.107V109.706H203.591V108.186Z" fill="#F0F0F0"/>
<path d="M203.591 110.729H202.107V112.25H203.591V110.729Z" fill="#F0F0F0"/>
<path d="M203.591 113.278H202.107V114.799H203.591V113.278Z" fill="#F0F0F0"/>
<path d="M203.591 115.822H202.107V117.343H203.591V115.822Z" fill="#F0F0F0"/>
<path d="M203.591 118.371H202.107V119.892H203.591V118.371Z" fill="#F0F0F0"/>
<path d="M203.591 120.914H202.107V122.435H203.591V120.914Z" fill="#F0F0F0"/>
<path d="M203.591 123.458H202.107V124.979H203.591V123.458Z" fill="#F0F0F0"/>
<path d="M203.591 126.006H202.107V127.527H203.591V126.006Z" fill="#F0F0F0"/>
<path d="M203.591 128.55H202.107V130.071H203.591V128.55Z" fill="#F0F0F0"/>
<path d="M205.943 92.915H204.459V94.4357H205.943V92.915Z" fill="#F0F0F0"/>
<path d="M205.943 95.458H204.459V96.9787H205.943V95.458Z" fill="#F0F0F0"/>
<path d="M205.943 98.002H204.459V99.5226H205.943V98.002Z" fill="#F0F0F0"/>
<path d="M205.943 100.551H204.459V102.071H205.943V100.551Z" fill="#F0F0F0"/>
<path d="M205.943 103.094H204.459V104.614H205.943V103.094Z" fill="#F0F0F0"/>
<path d="M205.943 105.643H204.459V107.163H205.943V105.643Z" fill="#F0F0F0"/>
<path d="M205.943 108.186H204.459V109.706H205.943V108.186Z" fill="#F0F0F0"/>
<path d="M205.943 110.729H204.459V112.25H205.943V110.729Z" fill="#F0F0F0"/>
<path d="M205.943 113.278H204.459V114.799H205.943V113.278Z" fill="#F0F0F0"/>
<path d="M205.943 115.822H204.459V117.343H205.943V115.822Z" fill="#F0F0F0"/>
<path d="M205.943 118.371H204.459V119.892H205.943V118.371Z" fill="#F0F0F0"/>
<path d="M205.943 120.914H204.459V122.435H205.943V120.914Z" fill="#F0F0F0"/>
<path d="M205.943 123.458H204.459V124.979H205.943V123.458Z" fill="#F0F0F0"/>
<path d="M208.3 92.915H206.816V94.4357H208.3V92.915Z" fill="#F0F0F0"/>
<path d="M208.3 95.458H206.816V96.9787H208.3V95.458Z" fill="#F0F0F0"/>
<path d="M208.3 98.002H206.816V99.5226H208.3V98.002Z" fill="#F0F0F0"/>
<path d="M208.3 100.551H206.816V102.071H208.3V100.551Z" fill="#F0F0F0"/>
<path d="M208.3 103.094H206.816V104.614H208.3V103.094Z" fill="#F0F0F0"/>
<path d="M208.3 105.643H206.816V107.163H208.3V105.643Z" fill="#F0F0F0"/>
<path d="M208.3 108.186H206.816V109.706H208.3V108.186Z" fill="#F0F0F0"/>
<path d="M208.3 110.729H206.816V112.25H208.3V110.729Z" fill="#F0F0F0"/>
<path d="M208.3 113.278H206.816V114.799H208.3V113.278Z" fill="#F0F0F0"/>
<path d="M208.3 115.822H206.816V117.343H208.3V115.822Z" fill="#F0F0F0"/>
<path d="M208.3 118.371H206.816V119.892H208.3V118.371Z" fill="#F0F0F0"/>
<path d="M208.3 120.914H206.816V122.435H208.3V120.914Z" fill="#F0F0F0"/>
<path d="M35.3634 111.49H33.8794V113.011H35.3634V111.49Z" fill="#F0F0F0"/>
<path d="M35.3634 114.038H33.8794V115.559H35.3634V114.038Z" fill="#F0F0F0"/>
<path d="M35.3634 116.582H33.8794V118.103H35.3634V116.582Z" fill="#F0F0F0"/>
<path d="M35.3634 119.125H33.8794V120.646H35.3634V119.125Z" fill="#F0F0F0"/>
<path d="M35.3634 121.675H33.8794V123.196H35.3634V121.675Z" fill="#F0F0F0"/>
<path d="M35.3634 124.218H33.8794V125.738H35.3634V124.218Z" fill="#F0F0F0"/>
<path d="M35.3634 126.767H33.8794V128.287H35.3634V126.767Z" fill="#F0F0F0"/>
<path d="M35.3634 129.311H33.8794V130.831H35.3634V129.311Z" fill="#F0F0F0"/>
<path d="M35.3634 131.854H33.8794V133.374H35.3634V131.854Z" fill="#F0F0F0"/>
<path d="M35.3634 134.402H33.8794V135.923H35.3634V134.402Z" fill="#F0F0F0"/>
<path d="M35.3634 136.945H33.8794V138.466H35.3634V136.945Z" fill="#F0F0F0"/>
<path d="M35.3634 139.494H33.8794V141.015H35.3634V139.494Z" fill="#F0F0F0"/>
<path d="M35.3634 142.038H33.8794V143.559H35.3634V142.038Z" fill="#F0F0F0"/>
<path d="M35.3634 144.581H33.8794V146.102H35.3634V144.581Z" fill="#F0F0F0"/>
<path d="M35.3634 147.13H33.8794V148.651H35.3634V147.13Z" fill="#F0F0F0"/>
<path d="M35.3634 149.673H33.8794V151.194H35.3634V149.673Z" fill="#F0F0F0"/>
<path d="M35.3634 152.222H33.8794V153.742H35.3634V152.222Z" fill="#F0F0F0"/>
<path d="M35.3634 154.766H33.8794V156.286H35.3634V154.766Z" fill="#F0F0F0"/>
<path d="M35.3634 157.309H33.8794V158.829H35.3634V157.309Z" fill="#F0F0F0"/>
<path d="M35.3634 159.857H33.8794V161.378H35.3634V159.857Z" fill="#F0F0F0"/>
<path d="M37.7145 111.49H36.2305V113.011H37.7145V111.49Z" fill="#F0F0F0"/>
<path d="M37.7145 114.038H36.2305V115.559H37.7145V114.038Z" fill="#F0F0F0"/>
<path d="M37.7145 116.582H36.2305V118.103H37.7145V116.582Z" fill="#F0F0F0"/>
<path d="M37.7145 119.125H36.2305V120.646H37.7145V119.125Z" fill="#F0F0F0"/>
<path d="M37.7145 121.675H36.2305V123.196H37.7145V121.675Z" fill="#F0F0F0"/>
<path d="M37.7145 124.218H36.2305V125.738H37.7145V124.218Z" fill="#F0F0F0"/>
<path d="M37.7145 126.767H36.2305V128.287H37.7145V126.767Z" fill="#F0F0F0"/>
<path d="M37.7145 129.311H36.2305V130.831H37.7145V129.311Z" fill="#F0F0F0"/>
<path d="M37.7145 131.854H36.2305V133.374H37.7145V131.854Z" fill="#F0F0F0"/>
<path d="M37.7145 134.402H36.2305V135.923H37.7145V134.402Z" fill="#F0F0F0"/>
<path d="M37.7145 136.945H36.2305V138.466H37.7145V136.945Z" fill="#F0F0F0"/>
<path d="M37.7145 139.494H36.2305V141.015H37.7145V139.494Z" fill="#F0F0F0"/>
<path d="M37.7145 142.038H36.2305V143.559H37.7145V142.038Z" fill="#F0F0F0"/>
<path d="M37.7145 144.581H36.2305V146.102H37.7145V144.581Z" fill="#F0F0F0"/>
<path d="M37.7145 147.13H36.2305V148.651H37.7145V147.13Z" fill="#F0F0F0"/>
<path d="M37.7145 149.673H36.2305V151.194H37.7145V149.673Z" fill="#F0F0F0"/>
<path d="M37.7145 152.222H36.2305V153.742H37.7145V152.222Z" fill="#F0F0F0"/>
<path d="M37.7145 154.766H36.2305V156.286H37.7145V154.766Z" fill="#F0F0F0"/>
<path d="M40.0661 111.49H38.582V113.011H40.0661V111.49Z" fill="#F0F0F0"/>
<path d="M40.0661 114.038H38.582V115.559H40.0661V114.038Z" fill="#F0F0F0"/>
<path d="M40.0661 116.582H38.582V118.103H40.0661V116.582Z" fill="#F0F0F0"/>
<path d="M40.0661 119.125H38.582V120.646H40.0661V119.125Z" fill="#F0F0F0"/>
<path d="M40.0661 121.675H38.582V123.196H40.0661V121.675Z" fill="#F0F0F0"/>
<path d="M40.0661 124.218H38.582V125.738H40.0661V124.218Z" fill="#F0F0F0"/>
<path d="M40.0661 126.767H38.582V128.287H40.0661V126.767Z" fill="#F0F0F0"/>
<path d="M40.0661 129.311H38.582V130.831H40.0661V129.311Z" fill="#F0F0F0"/>
<path d="M40.0661 131.854H38.582V133.374H40.0661V131.854Z" fill="#F0F0F0"/>
<path d="M40.0661 134.402H38.582V135.923H40.0661V134.402Z" fill="#F0F0F0"/>
<path d="M40.0661 136.945H38.582V138.466H40.0661V136.945Z" fill="#F0F0F0"/>
<path d="M40.0661 139.494H38.582V141.015H40.0661V139.494Z" fill="#F0F0F0"/>
<path d="M40.0661 142.038H38.582V143.559H40.0661V142.038Z" fill="#F0F0F0"/>
<path d="M40.0661 144.581H38.582V146.102H40.0661V144.581Z" fill="#F0F0F0"/>
<path d="M40.0661 147.13H38.582V148.651H40.0661V147.13Z" fill="#F0F0F0"/>
<path d="M40.0661 149.673H38.582V151.194H40.0661V149.673Z" fill="#F0F0F0"/>
<path d="M40.0661 152.222H38.582V153.742H40.0661V152.222Z" fill="#F0F0F0"/>
<path d="M40.0661 154.766H38.582V156.286H40.0661V154.766Z" fill="#F0F0F0"/>
<path d="M26.5583 130.07H25.0742V131.591H26.5583V130.07Z" fill="#F0F0F0"/>
<path d="M26.5583 132.613H25.0742V134.134H26.5583V132.613Z" fill="#F0F0F0"/>
<path d="M26.5583 135.163H25.0742V136.684H26.5583V135.163Z" fill="#F0F0F0"/>
<path d="M26.5583 137.706H25.0742V139.227H26.5583V137.706Z" fill="#F0F0F0"/>
<path d="M26.5583 140.249H25.0742V141.77H26.5583V140.249Z" fill="#F0F0F0"/>
<path d="M26.5583 142.798H25.0742V144.319H26.5583V142.798Z" fill="#F0F0F0"/>
<path d="M26.5583 145.342H25.0742V146.862H26.5583V145.342Z" fill="#F0F0F0"/>
<path d="M26.5583 147.891H25.0742V149.411H26.5583V147.891Z" fill="#F0F0F0"/>
<path d="M26.5583 150.434H25.0742V151.954H26.5583V150.434Z" fill="#F0F0F0"/>
<path d="M26.5583 152.977H25.0742V154.497H26.5583V152.977Z" fill="#F0F0F0"/>
<path d="M26.5583 155.525H25.0742V157.046H26.5583V155.525Z" fill="#F0F0F0"/>
<path d="M26.5583 158.069H25.0742V159.59H26.5583V158.069Z" fill="#F0F0F0"/>
<path d="M26.5583 160.618H25.0742V162.139H26.5583V160.618Z" fill="#F0F0F0"/>
<path d="M28.9093 130.07H27.4253V131.591H28.9093V130.07Z" fill="#F0F0F0"/>
<path d="M28.9093 132.613H27.4253V134.134H28.9093V132.613Z" fill="#F0F0F0"/>
<path d="M28.9093 135.163H27.4253V136.684H28.9093V135.163Z" fill="#F0F0F0"/>
<path d="M28.9093 137.706H27.4253V139.227H28.9093V137.706Z" fill="#F0F0F0"/>
<path d="M28.9093 140.249H27.4253V141.77H28.9093V140.249Z" fill="#F0F0F0"/>
<path d="M28.9093 142.798H27.4253V144.319H28.9093V142.798Z" fill="#F0F0F0"/>
<path d="M28.9093 145.342H27.4253V146.862H28.9093V145.342Z" fill="#F0F0F0"/>
<path d="M28.9093 147.891H27.4253V149.411H28.9093V147.891Z" fill="#F0F0F0"/>
<path d="M28.9093 150.434H27.4253V151.954H28.9093V150.434Z" fill="#F0F0F0"/>
<path d="M28.9093 152.977H27.4253V154.497H28.9093V152.977Z" fill="#F0F0F0"/>
<path d="M28.9093 155.525H27.4253V157.046H28.9093V155.525Z" fill="#F0F0F0"/>
<path d="M28.9093 158.069H27.4253V159.59H28.9093V158.069Z" fill="#F0F0F0"/>
<path d="M28.9093 160.618H27.4253V162.139H28.9093V160.618Z" fill="#F0F0F0"/>
<path d="M31.2663 130.07H29.7822V131.591H31.2663V130.07Z" fill="#F0F0F0"/>
<path d="M31.2663 132.613H29.7822V134.134H31.2663V132.613Z" fill="#F0F0F0"/>
<path d="M31.2663 135.163H29.7822V136.684H31.2663V135.163Z" fill="#F0F0F0"/>
<path d="M31.2663 137.706H29.7822V139.227H31.2663V137.706Z" fill="#F0F0F0"/>
<path d="M31.2663 140.249H29.7822V141.77H31.2663V140.249Z" fill="#F0F0F0"/>
<path d="M31.2663 142.798H29.7822V144.319H31.2663V142.798Z" fill="#F0F0F0"/>
<path d="M31.2663 145.342H29.7822V146.862H31.2663V145.342Z" fill="#F0F0F0"/>
<path d="M31.2663 147.891H29.7822V149.411H31.2663V147.891Z" fill="#F0F0F0"/>
<path d="M31.2663 150.434H29.7822V151.954H31.2663V150.434Z" fill="#F0F0F0"/>
<path d="M31.2663 152.977H29.7822V154.497H31.2663V152.977Z" fill="#F0F0F0"/>
<path d="M31.2663 155.525H29.7822V157.046H31.2663V155.525Z" fill="#F0F0F0"/>
<path d="M31.2663 158.069H29.7822V159.59H31.2663V158.069Z" fill="#F0F0F0"/>
<path d="M31.2663 160.618H29.7822V162.139H31.2663V160.618Z" fill="#F0F0F0"/>
<path d="M31.2663 163.161H29.7822V164.682H31.2663V163.161Z" fill="#F0F0F0"/>
<path d="M44.3405 130.831H42.8564V132.352H44.3405V130.831Z" fill="#F0F0F0"/>
<path d="M44.3405 133.374H42.8564V134.895H44.3405V133.374Z" fill="#F0F0F0"/>
<path d="M44.3405 135.918H42.8564V137.439H44.3405V135.918Z" fill="#F0F0F0"/>
<path d="M44.3405 138.466H42.8564V139.987H44.3405V138.466Z" fill="#F0F0F0"/>
<path d="M44.3405 141.01H42.8564V142.53H44.3405V141.01Z" fill="#F0F0F0"/>
<path d="M44.3405 143.559H42.8564V145.079H44.3405V143.559Z" fill="#F0F0F0"/>
<path d="M44.3405 146.102H42.8564V147.622H44.3405V146.102Z" fill="#F0F0F0"/>
<path d="M44.3405 148.646H42.8564V150.166H44.3405V148.646Z" fill="#F0F0F0"/>
<path d="M44.3405 151.194H42.8564V152.715H44.3405V151.194Z" fill="#F0F0F0"/>
<path d="M44.3405 153.737H42.8564V155.258H44.3405V153.737Z" fill="#F0F0F0"/>
<path d="M44.3405 161.373H42.8564V162.894H44.3405V161.373Z" fill="#F0F0F0"/>
<path d="M46.692 130.831H45.208V132.352H46.692V130.831Z" fill="#F0F0F0"/>
<path d="M46.692 133.374H45.208V134.895H46.692V133.374Z" fill="#F0F0F0"/>
<path d="M46.692 135.918H45.208V137.439H46.692V135.918Z" fill="#F0F0F0"/>
<path d="M46.692 138.466H45.208V139.987H46.692V138.466Z" fill="#F0F0F0"/>
<path d="M46.692 141.01H45.208V142.53H46.692V141.01Z" fill="#F0F0F0"/>
<path d="M46.692 143.559H45.208V145.079H46.692V143.559Z" fill="#F0F0F0"/>
<path d="M46.692 146.102H45.208V147.622H46.692V146.102Z" fill="#F0F0F0"/>
<path d="M46.692 148.646H45.208V150.166H46.692V148.646Z" fill="#F0F0F0"/>
<path d="M46.692 151.194H45.208V152.715H46.692V151.194Z" fill="#F0F0F0"/>
<path d="M46.692 158.829H45.208V160.35H46.692V158.829Z" fill="#F0F0F0"/>
<path d="M46.692 161.373H45.208V162.894H46.692V161.373Z" fill="#F0F0F0"/>
<path d="M49.0485 130.831H47.5645V132.352H49.0485V130.831Z" fill="#F0F0F0"/>
<path d="M49.0485 133.374H47.5645V134.895H49.0485V133.374Z" fill="#F0F0F0"/>
<path d="M49.0485 135.918H47.5645V137.439H49.0485V135.918Z" fill="#F0F0F0"/>
<path d="M49.0485 138.466H47.5645V139.987H49.0485V138.466Z" fill="#F0F0F0"/>
<path d="M49.0485 141.01H47.5645V142.53H49.0485V141.01Z" fill="#F0F0F0"/>
<path d="M49.0485 143.559H47.5645V145.079H49.0485V143.559Z" fill="#F0F0F0"/>
<path d="M49.0485 146.102H47.5645V147.622H49.0485V146.102Z" fill="#F0F0F0"/>
<path d="M49.0485 148.646H47.5645V150.166H49.0485V148.646Z" fill="#F0F0F0"/>
<path d="M49.0485 156.286H47.5645V157.807H49.0485V156.286Z" fill="#F0F0F0"/>
<path d="M49.0485 158.829H47.5645V160.35H49.0485V158.829Z" fill="#F0F0F0"/>
<path d="M49.0485 161.373H47.5645V162.894H49.0485V161.373Z" fill="#F0F0F0"/>
<path d="M70.9225 92.1543H69.4385V93.675H70.9225V92.1543Z" fill="#F0F0F0"/>
<path d="M70.9225 94.6982H69.4385V96.2189H70.9225V94.6982Z" fill="#F0F0F0"/>
<path d="M70.9225 97.2471H69.4385V98.7678H70.9225V97.2471Z" fill="#F0F0F0"/>
<path d="M70.9225 99.79H69.4385V101.311H70.9225V99.79Z" fill="#F0F0F0"/>
<path d="M70.9225 102.333H69.4385V103.854H70.9225V102.333Z" fill="#F0F0F0"/>
<path d="M70.9225 104.882H69.4385V106.403H70.9225V104.882Z" fill="#F0F0F0"/>
<path d="M70.9225 107.426H69.4385V108.946H70.9225V107.426Z" fill="#F0F0F0"/>
<path d="M70.9225 109.975H69.4385V111.495H70.9225V109.975Z" fill="#F0F0F0"/>
<path d="M70.9225 112.519H69.4385V114.039H70.9225V112.519Z" fill="#F0F0F0"/>
<path d="M70.9225 115.062H69.4385V116.582H70.9225V115.062Z" fill="#F0F0F0"/>
<path d="M70.9225 117.61H69.4385V119.131H70.9225V117.61Z" fill="#F0F0F0"/>
<path d="M70.9225 120.153H69.4385V121.674H70.9225V120.153Z" fill="#F0F0F0"/>
<path d="M70.9225 122.702H69.4385V124.223H70.9225V122.702Z" fill="#F0F0F0"/>
<path d="M70.9225 125.246H69.4385V126.767H70.9225V125.246Z" fill="#F0F0F0"/>
<path d="M70.9225 127.789H69.4385V129.31H70.9225V127.789Z" fill="#F0F0F0"/>
<path d="M70.9225 130.338H69.4385V131.859H70.9225V130.338Z" fill="#F0F0F0"/>
<path d="M70.9225 132.882H69.4385V134.403H70.9225V132.882Z" fill="#F0F0F0"/>
<path d="M70.9225 137.974H69.4385V139.494H70.9225V137.974Z" fill="#F0F0F0"/>
<path d="M70.9225 140.517H69.4385V142.037H70.9225V140.517Z" fill="#F0F0F0"/>
<path d="M70.9225 143.065H69.4385V144.586H70.9225V143.065Z" fill="#F0F0F0"/>
<path d="M70.9225 145.609H69.4385V147.13H70.9225V145.609Z" fill="#F0F0F0"/>
<path d="M70.9225 148.158H69.4385V149.679H70.9225V148.158Z" fill="#F0F0F0"/>
<path d="M73.2794 92.1543H71.7954V93.675H73.2794V92.1543Z" fill="#F0F0F0"/>
<path d="M73.2794 94.6982H71.7954V96.2189H73.2794V94.6982Z" fill="#F0F0F0"/>
<path d="M73.2794 97.2471H71.7954V98.7678H73.2794V97.2471Z" fill="#F0F0F0"/>
<path d="M73.2794 99.79H71.7954V101.311H73.2794V99.79Z" fill="#F0F0F0"/>
<path d="M73.2794 102.333H71.7954V103.854H73.2794V102.333Z" fill="#F0F0F0"/>
<path d="M73.2794 104.882H71.7954V106.403H73.2794V104.882Z" fill="#F0F0F0"/>
<path d="M73.2794 107.426H71.7954V108.946H73.2794V107.426Z" fill="#F0F0F0"/>
<path d="M73.2794 109.975H71.7954V111.495H73.2794V109.975Z" fill="#F0F0F0"/>
<path d="M73.2794 112.519H71.7954V114.039H73.2794V112.519Z" fill="#F0F0F0"/>
<path d="M73.2794 115.062H71.7954V116.582H73.2794V115.062Z" fill="#F0F0F0"/>
<path d="M73.2794 117.61H71.7954V119.131H73.2794V117.61Z" fill="#F0F0F0"/>
<path d="M73.2794 120.153H71.7954V121.674H73.2794V120.153Z" fill="#F0F0F0"/>
<path d="M73.2794 122.702H71.7954V124.223H73.2794V122.702Z" fill="#F0F0F0"/>
<path d="M73.2794 125.246H71.7954V126.767H73.2794V125.246Z" fill="#F0F0F0"/>
<path d="M73.2794 127.789H71.7954V129.31H73.2794V127.789Z" fill="#F0F0F0"/>
<path d="M73.2794 130.338H71.7954V131.859H73.2794V130.338Z" fill="#F0F0F0"/>
<path d="M73.2794 145.609H71.7954V147.13H73.2794V145.609Z" fill="#F0F0F0"/>
<path d="M73.2794 148.158H71.7954V149.679H73.2794V148.158Z" fill="#F0F0F0"/>
<path d="M75.6305 92.1543H74.1465V93.675H75.6305V92.1543Z" fill="#F0F0F0"/>
<path d="M75.6305 94.6982H74.1465V96.2189H75.6305V94.6982Z" fill="#F0F0F0"/>
<path d="M75.6305 97.2471H74.1465V98.7678H75.6305V97.2471Z" fill="#F0F0F0"/>
<path d="M75.6305 99.79H74.1465V101.311H75.6305V99.79Z" fill="#F0F0F0"/>
<path d="M75.6305 102.333H74.1465V103.854H75.6305V102.333Z" fill="#F0F0F0"/>
<path d="M75.6305 104.882H74.1465V106.403H75.6305V104.882Z" fill="#F0F0F0"/>
<path d="M75.6305 107.426H74.1465V108.946H75.6305V107.426Z" fill="#F0F0F0"/>
<path d="M75.6305 109.975H74.1465V111.495H75.6305V109.975Z" fill="#F0F0F0"/>
<path d="M75.6305 112.519H74.1465V114.039H75.6305V112.519Z" fill="#F0F0F0"/>
<path d="M75.6305 115.062H74.1465V116.582H75.6305V115.062Z" fill="#F0F0F0"/>
<path d="M75.6305 117.61H74.1465V119.131H75.6305V117.61Z" fill="#F0F0F0"/>
<path d="M75.6305 120.153H74.1465V121.674H75.6305V120.153Z" fill="#F0F0F0"/>
<path d="M75.6305 122.702H74.1465V124.223H75.6305V122.702Z" fill="#F0F0F0"/>
<path d="M75.6305 125.246H74.1465V126.767H75.6305V125.246Z" fill="#F0F0F0"/>
<path d="M75.6305 127.789H74.1465V129.31H75.6305V127.789Z" fill="#F0F0F0"/>
<path d="M75.6305 130.338H74.1465V131.859H75.6305V130.338Z" fill="#F0F0F0"/>
<path d="M75.6305 135.43H74.1465V136.95H75.6305V135.43Z" fill="#F0F0F0"/>
<path d="M75.6305 137.974H74.1465V139.494H75.6305V137.974Z" fill="#F0F0F0"/>
<path d="M75.6305 140.517H74.1465V142.037H75.6305V140.517Z" fill="#F0F0F0"/>
<path d="M75.6305 143.065H74.1465V144.586H75.6305V143.065Z" fill="#F0F0F0"/>
<path d="M75.6305 148.158H74.1465V149.679H75.6305V148.158Z" fill="#F0F0F0"/>
<path d="M62.3839 124.218H60.8999V125.738H62.3839V124.218Z" fill="#F0F0F0"/>
<path d="M62.3839 126.767H60.8999V128.287H62.3839V126.767Z" fill="#F0F0F0"/>
<path d="M62.3839 129.311H60.8999V130.831H62.3839V129.311Z" fill="#F0F0F0"/>
<path d="M62.3839 131.854H60.8999V133.374H62.3839V131.854Z" fill="#F0F0F0"/>
<path d="M62.3839 134.402H60.8999V135.923H62.3839V134.402Z" fill="#F0F0F0"/>
<path d="M62.3839 136.945H60.8999V138.466H62.3839V136.945Z" fill="#F0F0F0"/>
<path d="M62.3839 139.494H60.8999V141.015H62.3839V139.494Z" fill="#F0F0F0"/>
<path d="M62.3839 144.581H60.8999V146.102H62.3839V144.581Z" fill="#F0F0F0"/>
<path d="M62.3839 147.13H60.8999V148.651H62.3839V147.13Z" fill="#F0F0F0"/>
<path d="M62.3839 149.673H60.8999V151.194H62.3839V149.673Z" fill="#F0F0F0"/>
<path d="M62.3839 152.222H60.8999V153.742H62.3839V152.222Z" fill="#F0F0F0"/>
<path d="M62.3839 154.766H60.8999V156.286H62.3839V154.766Z" fill="#F0F0F0"/>
<path d="M62.3839 157.309H60.8999V158.829H62.3839V157.309Z" fill="#F0F0F0"/>
<path d="M62.3839 159.857H60.8999V161.378H62.3839V159.857Z" fill="#F0F0F0"/>
<path d="M62.3839 162.401H60.8999V163.922H62.3839V162.401Z" fill="#F0F0F0"/>
<path d="M64.7355 124.218H63.2515V125.738H64.7355V124.218Z" fill="#F0F0F0"/>
<path d="M64.7355 126.767H63.2515V128.287H64.7355V126.767Z" fill="#F0F0F0"/>
<path d="M64.7355 129.311H63.2515V130.831H64.7355V129.311Z" fill="#F0F0F0"/>
<path d="M64.7355 131.854H63.2515V133.374H64.7355V131.854Z" fill="#F0F0F0"/>
<path d="M64.7355 134.402H63.2515V135.923H64.7355V134.402Z" fill="#F0F0F0"/>
<path d="M64.7355 136.945H63.2515V138.466H64.7355V136.945Z" fill="#F0F0F0"/>
<path d="M64.7355 144.581H63.2515V146.102H64.7355V144.581Z" fill="#F0F0F0"/>
<path d="M64.7355 147.13H63.2515V148.651H64.7355V147.13Z" fill="#F0F0F0"/>
<path d="M64.7355 149.673H63.2515V151.194H64.7355V149.673Z" fill="#F0F0F0"/>
<path d="M64.7355 152.222H63.2515V153.742H64.7355V152.222Z" fill="#F0F0F0"/>
<path d="M64.7355 154.766H63.2515V156.286H64.7355V154.766Z" fill="#F0F0F0"/>
<path d="M64.7355 157.309H63.2515V158.829H64.7355V157.309Z" fill="#F0F0F0"/>
<path d="M64.7355 159.857H63.2515V161.378H64.7355V159.857Z" fill="#F0F0F0"/>
<path d="M64.7355 162.401H63.2515V163.922H64.7355V162.401Z" fill="#F0F0F0"/>
<path d="M67.0919 124.218H65.6079V125.738H67.0919V124.218Z" fill="#F0F0F0"/>
<path d="M67.0919 126.767H65.6079V128.287H67.0919V126.767Z" fill="#F0F0F0"/>
<path d="M67.0919 129.311H65.6079V130.831H67.0919V129.311Z" fill="#F0F0F0"/>
<path d="M67.0919 131.854H65.6079V133.374H67.0919V131.854Z" fill="#F0F0F0"/>
<path d="M67.0919 134.402H65.6079V135.923H67.0919V134.402Z" fill="#F0F0F0"/>
<path d="M67.0919 136.945H65.6079V138.466H67.0919V136.945Z" fill="#F0F0F0"/>
<path d="M67.0919 142.038H65.6079V143.559H67.0919V142.038Z" fill="#F0F0F0"/>
<path d="M67.0919 144.581H65.6079V146.102H67.0919V144.581Z" fill="#F0F0F0"/>
<path d="M67.0919 147.13H65.6079V148.651H67.0919V147.13Z" fill="#F0F0F0"/>
<path d="M67.0919 149.673H65.6079V151.194H67.0919V149.673Z" fill="#F0F0F0"/>
<path d="M67.0919 152.222H65.6079V153.742H67.0919V152.222Z" fill="#F0F0F0"/>
<path d="M67.0919 154.766H65.6079V156.286H67.0919V154.766Z" fill="#F0F0F0"/>
<path d="M67.0919 157.309H65.6079V158.829H67.0919V157.309Z" fill="#F0F0F0"/>
<path d="M67.0919 159.857H65.6079V161.378H67.0919V159.857Z" fill="#F0F0F0"/>
<path d="M67.0919 162.401H65.6079V163.922H67.0919V162.401Z" fill="#F0F0F0"/>
<path d="M116.687 109.975H115.203V111.495H116.687V109.975Z" fill="#F0F0F0"/>
<path d="M116.687 112.519H115.203V114.039H116.687V112.519Z" fill="#F0F0F0"/>
<path d="M116.687 115.062H115.203V116.582H116.687V115.062Z" fill="#F0F0F0"/>
<path d="M116.687 117.61H115.203V119.131H116.687V117.61Z" fill="#F0F0F0"/>
<path d="M116.687 120.153H115.203V121.674H116.687V120.153Z" fill="#F0F0F0"/>
<path d="M116.687 122.702H115.203V124.223H116.687V122.702Z" fill="#F0F0F0"/>
<path d="M116.687 125.246H115.203V126.767H116.687V125.246Z" fill="#F0F0F0"/>
<path d="M116.687 127.789H115.203V129.31H116.687V127.789Z" fill="#F0F0F0"/>
<path d="M116.687 130.338H115.203V131.859H116.687V130.338Z" fill="#F0F0F0"/>
<path d="M116.687 132.882H115.203V134.403H116.687V132.882Z" fill="#F0F0F0"/>
<path d="M116.687 135.43H115.203V136.95H116.687V135.43Z" fill="#F0F0F0"/>
<path d="M116.687 137.974H115.203V139.494H116.687V137.974Z" fill="#F0F0F0"/>
<path d="M116.687 140.517H115.203V142.037H116.687V140.517Z" fill="#F0F0F0"/>
<path d="M116.687 145.609H115.203V147.13H116.687V145.609Z" fill="#F0F0F0"/>
<path d="M116.687 148.158H115.203V149.679H116.687V148.158Z" fill="#F0F0F0"/>
<path d="M116.687 150.701H115.203V152.222H116.687V150.701Z" fill="#F0F0F0"/>
<path d="M116.687 153.245H115.203V154.766H116.687V153.245Z" fill="#F0F0F0"/>
<path d="M116.687 158.337H115.203V159.858H116.687V158.337Z" fill="#F0F0F0"/>
<path d="M116.687 160.886H115.203V162.406H116.687V160.886Z" fill="#F0F0F0"/>
<path d="M116.687 163.43H115.203V164.95H116.687V163.43Z" fill="#F0F0F0"/>
<path d="M119.039 109.975H117.555V111.495H119.039V109.975Z" fill="#F0F0F0"/>
<path d="M119.039 112.519H117.555V114.039H119.039V112.519Z" fill="#F0F0F0"/>
<path d="M119.039 115.062H117.555V116.582H119.039V115.062Z" fill="#F0F0F0"/>
<path d="M119.039 117.61H117.555V119.131H119.039V117.61Z" fill="#F0F0F0"/>
<path d="M119.039 120.153H117.555V121.674H119.039V120.153Z" fill="#F0F0F0"/>
<path d="M119.039 122.702H117.555V124.223H119.039V122.702Z" fill="#F0F0F0"/>
<path d="M119.039 125.246H117.555V126.767H119.039V125.246Z" fill="#F0F0F0"/>
<path d="M119.039 127.789H117.555V129.31H119.039V127.789Z" fill="#F0F0F0"/>
<path d="M119.039 130.338H117.555V131.859H119.039V130.338Z" fill="#F0F0F0"/>
<path d="M119.039 132.882H117.555V134.403H119.039V132.882Z" fill="#F0F0F0"/>
<path d="M119.039 135.43H117.555V136.95H119.039V135.43Z" fill="#F0F0F0"/>
<path d="M119.039 137.974H117.555V139.494H119.039V137.974Z" fill="#F0F0F0"/>
<path d="M119.039 140.517H117.555V142.037H119.039V140.517Z" fill="#F0F0F0"/>
<path d="M119.039 148.158H117.555V149.679H119.039V148.158Z" fill="#F0F0F0"/>
<path d="M119.039 150.701H117.555V152.222H119.039V150.701Z" fill="#F0F0F0"/>
<path d="M119.039 155.794H117.555V157.315H119.039V155.794Z" fill="#F0F0F0"/>
<path d="M119.039 158.337H117.555V159.858H119.039V158.337Z" fill="#F0F0F0"/>
<path d="M119.039 160.886H117.555V162.406H119.039V160.886Z" fill="#F0F0F0"/>
<path d="M119.039 163.43H117.555V164.95H119.039V163.43Z" fill="#F0F0F0"/>
<path d="M121.395 109.975H119.911V111.495H121.395V109.975Z" fill="#F0F0F0"/>
<path d="M121.395 112.519H119.911V114.039H121.395V112.519Z" fill="#F0F0F0"/>
<path d="M121.395 115.062H119.911V116.582H121.395V115.062Z" fill="#F0F0F0"/>
<path d="M121.395 117.61H119.911V119.131H121.395V117.61Z" fill="#F0F0F0"/>
<path d="M121.395 120.153H119.911V121.674H121.395V120.153Z" fill="#F0F0F0"/>
<path d="M121.395 122.702H119.911V124.223H121.395V122.702Z" fill="#F0F0F0"/>
<path d="M121.395 125.246H119.911V126.767H121.395V125.246Z" fill="#F0F0F0"/>
<path d="M121.395 127.789H119.911V129.31H121.395V127.789Z" fill="#F0F0F0"/>
<path d="M121.395 130.338H119.911V131.859H121.395V130.338Z" fill="#F0F0F0"/>
<path d="M121.395 132.882H119.911V134.403H121.395V132.882Z" fill="#F0F0F0"/>
<path d="M121.395 135.43H119.911V136.95H121.395V135.43Z" fill="#F0F0F0"/>
<path d="M121.395 137.974H119.911V139.494H121.395V137.974Z" fill="#F0F0F0"/>
<path d="M121.395 140.517H119.911V142.037H121.395V140.517Z" fill="#F0F0F0"/>
<path d="M121.395 143.065H119.911V144.586H121.395V143.065Z" fill="#F0F0F0"/>
<path d="M121.395 148.158H119.911V149.679H121.395V148.158Z" fill="#F0F0F0"/>
<path d="M121.395 153.245H119.911V154.766H121.395V153.245Z" fill="#F0F0F0"/>
<path d="M121.395 155.794H119.911V157.315H121.395V155.794Z" fill="#F0F0F0"/>
<path d="M121.395 158.337H119.911V159.858H121.395V158.337Z" fill="#F0F0F0"/>
<path d="M121.395 160.886H119.911V162.406H121.395V160.886Z" fill="#F0F0F0"/>
<path d="M121.395 163.43H119.911V164.95H121.395V163.43Z" fill="#F0F0F0"/>
<path d="M107.098 124.485H105.614V126.006H107.098V124.485Z" fill="#F0F0F0"/>
<path d="M107.098 127.034H105.614V128.555H107.098V127.034Z" fill="#F0F0F0"/>
<path d="M107.098 129.577H105.614V131.098H107.098V129.577Z" fill="#F0F0F0"/>
<path d="M107.098 132.121H105.614V133.642H107.098V132.121Z" fill="#F0F0F0"/>
<path d="M107.098 134.67H105.614V136.191H107.098V134.67Z" fill="#F0F0F0"/>
<path d="M107.098 137.213H105.614V138.734H107.098V137.213Z" fill="#F0F0F0"/>
<path d="M107.098 144.854H105.614V146.375H107.098V144.854Z" fill="#F0F0F0"/>
<path d="M107.098 147.397H105.614V148.918H107.098V147.397Z" fill="#F0F0F0"/>
<path d="M107.098 149.941H105.614V151.462H107.098V149.941Z" fill="#F0F0F0"/>
<path d="M107.098 152.49H105.614V154.011H107.098V152.49Z" fill="#F0F0F0"/>
<path d="M107.098 155.033H105.614V156.554H107.098V155.033Z" fill="#F0F0F0"/>
<path d="M107.098 157.582H105.614V159.103H107.098V157.582Z" fill="#F0F0F0"/>
<path d="M107.098 160.125H105.614V161.646H107.098V160.125Z" fill="#F0F0F0"/>
<path d="M109.45 124.485H107.966V126.006H109.45V124.485Z" fill="#F0F0F0"/>
<path d="M109.45 127.034H107.966V128.555H109.45V127.034Z" fill="#F0F0F0"/>
<path d="M109.45 129.577H107.966V131.098H109.45V129.577Z" fill="#F0F0F0"/>
<path d="M109.45 132.121H107.966V133.642H109.45V132.121Z" fill="#F0F0F0"/>
<path d="M109.45 134.67H107.966V136.191H109.45V134.67Z" fill="#F0F0F0"/>
<path d="M109.45 137.213H107.966V138.734H109.45V137.213Z" fill="#F0F0F0"/>
<path d="M109.45 144.854H107.966V146.375H109.45V144.854Z" fill="#F0F0F0"/>
<path d="M109.45 147.397H107.966V148.918H109.45V147.397Z" fill="#F0F0F0"/>
<path d="M109.45 149.941H107.966V151.462H109.45V149.941Z" fill="#F0F0F0"/>
<path d="M109.45 152.49H107.966V154.011H109.45V152.49Z" fill="#F0F0F0"/>
<path d="M109.45 155.033H107.966V156.554H109.45V155.033Z" fill="#F0F0F0"/>
<path d="M109.45 157.582H107.966V159.103H109.45V157.582Z" fill="#F0F0F0"/>
<path d="M109.45 162.669H107.966V164.19H109.45V162.669Z" fill="#F0F0F0"/>
<path d="M187.638 113.278H186.154V114.799H187.638V113.278Z" fill="#F0F0F0"/>
<path d="M187.638 115.822H186.154V117.343H187.638V115.822Z" fill="#F0F0F0"/>
<path d="M187.638 118.371H186.154V119.892H187.638V118.371Z" fill="#F0F0F0"/>
<path d="M187.638 120.914H186.154V122.435H187.638V120.914Z" fill="#F0F0F0"/>
<path d="M187.638 123.458H186.154V124.979H187.638V123.458Z" fill="#F0F0F0"/>
<path d="M187.638 126.006H186.154V127.527H187.638V126.006Z" fill="#F0F0F0"/>
<path d="M187.638 128.55H186.154V130.071H187.638V128.55Z" fill="#F0F0F0"/>
<path d="M187.638 131.099H186.154V132.619H187.638V131.099Z" fill="#F0F0F0"/>
<path d="M187.638 133.642H186.154V135.162H187.638V133.642Z" fill="#F0F0F0"/>
<path d="M187.638 136.186H186.154V137.706H187.638V136.186Z" fill="#F0F0F0"/>
<path d="M187.638 138.734H186.154V140.255H187.638V138.734Z" fill="#F0F0F0"/>
<path d="M187.638 143.826H186.154V145.347H187.638V143.826Z" fill="#F0F0F0"/>
<path d="M187.638 146.369H186.154V147.89H187.638V146.369Z" fill="#F0F0F0"/>
<path d="M187.638 148.913H186.154V150.434H187.638V148.913Z" fill="#F0F0F0"/>
<path d="M187.638 151.462H186.154V152.983H187.638V151.462Z" fill="#F0F0F0"/>
<path d="M187.638 154.006H186.154V155.527H187.638V154.006Z" fill="#F0F0F0"/>
<path d="M187.638 156.554H186.154V158.074H187.638V156.554Z" fill="#F0F0F0"/>
<path d="M187.638 159.098H186.154V160.618H187.638V159.098Z" fill="#F0F0F0"/>
<path d="M187.638 161.646H186.154V163.166H187.638V161.646Z" fill="#F0F0F0"/>
<path d="M189.995 113.278H188.511V114.799H189.995V113.278Z" fill="#F0F0F0"/>
<path d="M189.995 115.822H188.511V117.343H189.995V115.822Z" fill="#F0F0F0"/>
<path d="M189.995 118.371H188.511V119.892H189.995V118.371Z" fill="#F0F0F0"/>
<path d="M189.995 120.914H188.511V122.435H189.995V120.914Z" fill="#F0F0F0"/>
<path d="M189.995 123.458H188.511V124.979H189.995V123.458Z" fill="#F0F0F0"/>
<path d="M189.995 126.006H188.511V127.527H189.995V126.006Z" fill="#F0F0F0"/>
<path d="M189.995 128.55H188.511V130.071H189.995V128.55Z" fill="#F0F0F0"/>
<path d="M189.995 131.099H188.511V132.619H189.995V131.099Z" fill="#F0F0F0"/>
<path d="M189.995 133.642H188.511V135.162H189.995V133.642Z" fill="#F0F0F0"/>
<path d="M189.995 136.186H188.511V137.706H189.995V136.186Z" fill="#F0F0F0"/>
<path d="M189.995 138.734H188.511V140.255H189.995V138.734Z" fill="#F0F0F0"/>
<path d="M189.995 141.277H188.511V142.798H189.995V141.277Z" fill="#F0F0F0"/>
<path d="M189.995 143.826H188.511V145.347H189.995V143.826Z" fill="#F0F0F0"/>
<path d="M189.995 146.369H188.511V147.89H189.995V146.369Z" fill="#F0F0F0"/>
<path d="M189.995 148.913H188.511V150.434H189.995V148.913Z" fill="#F0F0F0"/>
<path d="M189.995 151.462H188.511V152.983H189.995V151.462Z" fill="#F0F0F0"/>
<path d="M189.995 154.006H188.511V155.527H189.995V154.006Z" fill="#F0F0F0"/>
<path d="M189.995 156.554H188.511V158.074H189.995V156.554Z" fill="#F0F0F0"/>
<path d="M189.995 159.098H188.511V160.618H189.995V159.098Z" fill="#F0F0F0"/>
<path d="M189.995 161.646H188.511V163.166H189.995V161.646Z" fill="#F0F0F0"/>
<path d="M176.048 123.189H174.564V124.71H176.048V123.189Z" fill="#F0F0F0"/>
<path d="M176.048 125.738H174.564V127.259H176.048V125.738Z" fill="#F0F0F0"/>
<path d="M176.048 128.282H174.564V129.803H176.048V128.282Z" fill="#F0F0F0"/>
<path d="M176.048 130.831H174.564V132.352H176.048V130.831Z" fill="#F0F0F0"/>
<path d="M176.048 133.374H174.564V134.895H176.048V133.374Z" fill="#F0F0F0"/>
<path d="M176.048 135.918H174.564V137.439H176.048V135.918Z" fill="#F0F0F0"/>
<path d="M176.048 138.466H174.564V139.987H176.048V138.466Z" fill="#F0F0F0"/>
<path d="M176.048 141.01H174.564V142.53H176.048V141.01Z" fill="#F0F0F0"/>
<path d="M176.048 143.559H174.564V145.079H176.048V143.559Z" fill="#F0F0F0"/>
<path d="M176.048 146.102H174.564V147.622H176.048V146.102Z" fill="#F0F0F0"/>
<path d="M178.4 123.189H176.916V124.71H178.4V123.189Z" fill="#F0F0F0"/>
<path d="M178.4 125.738H176.916V127.259H178.4V125.738Z" fill="#F0F0F0"/>
<path d="M178.4 128.282H176.916V129.803H178.4V128.282Z" fill="#F0F0F0"/>
<path d="M178.4 130.831H176.916V132.352H178.4V130.831Z" fill="#F0F0F0"/>
<path d="M178.4 133.374H176.916V134.895H178.4V133.374Z" fill="#F0F0F0"/>
<path d="M178.4 135.918H176.916V137.439H178.4V135.918Z" fill="#F0F0F0"/>
<path d="M178.4 138.466H176.916V139.987H178.4V138.466Z" fill="#F0F0F0"/>
<path d="M178.4 141.01H176.916V142.53H178.4V141.01Z" fill="#F0F0F0"/>
<path d="M178.4 143.559H176.916V145.079H178.4V143.559Z" fill="#F0F0F0"/>
<path d="M59.9022 60.204C59.9024 59.4673 59.7346 58.7408 59.4119 58.0825C59.0893 57.4242 58.6208 56.8523 58.044 56.4127C57.4672 55.973 56.798 55.6777 56.0899 55.5504C55.3818 55.4231 54.6545 55.4672 53.966 55.6794C54.0354 55.2008 54.0703 54.7175 54.0705 54.2337C54.0705 52.7648 53.7546 51.314 53.1453 49.9844C52.536 48.6549 51.6482 47.4792 50.5452 46.5411C49.4421 45.6031 48.1509 44.9256 46.7633 44.5569C45.3757 44.1882 43.9259 44.1374 42.517 44.408C41.5541 42.7907 40.1043 41.5379 38.386 40.8383C36.6678 40.1387 34.7742 40.0303 32.9907 40.5293C31.2071 41.0284 29.63 42.1079 28.4972 43.6052C27.3644 45.1025 26.7372 46.9365 26.71 48.8309H26.5637C24.4793 48.8309 22.4803 49.6794 21.0065 51.1897C19.5326 52.6999 18.7046 54.7483 18.7046 56.8842C18.7046 59.02 19.5326 61.0684 21.0065 62.5787C22.4803 64.089 24.4793 64.9374 26.5637 64.9374H55.4239C56.6257 64.9039 57.7671 64.3899 58.6039 63.5054C59.4407 62.6208 59.9067 61.436 59.9022 60.204V60.204Z" fill="#F0F0F0"/>
<path d="M181.467 49.8161C181.467 49.0166 181.777 48.2498 182.329 47.6845C182.881 47.1191 183.629 46.8015 184.409 46.8015C184.694 46.8029 184.978 46.8462 185.251 46.93C185.208 46.6232 185.187 46.3136 185.188 46.0037C185.188 44.3146 185.841 42.6944 187.005 41.4981C188.168 40.3017 189.747 39.6267 191.396 39.6211C191.78 39.6229 192.163 39.6606 192.54 39.7335C193.154 38.6999 194.079 37.8988 195.176 37.4509C196.273 37.0031 197.482 36.9328 198.622 37.2506C199.761 37.5685 200.769 38.2573 201.493 39.2131C202.217 40.169 202.618 41.3401 202.636 42.55H202.73C204.06 42.55 205.336 43.0916 206.277 44.0556C207.218 45.0196 207.746 46.3271 207.746 47.6904C207.746 49.0537 207.218 50.3612 206.277 51.3252C205.336 52.2892 204.06 52.8308 202.73 52.8308H184.326C183.559 52.8112 182.831 52.4846 182.296 51.921C181.762 51.3575 181.464 50.6019 181.467 49.8161V49.8161Z" fill="#F0F0F0"/>
<path d="M122.879 17.2927C122.881 16.8032 123.071 16.3341 123.409 15.988C123.747 15.6419 124.204 15.4468 124.682 15.4454C124.859 15.444 125.036 15.4711 125.205 15.5257C125.178 15.3377 125.164 15.1481 125.163 14.9581C125.163 14.4443 125.262 13.9356 125.454 13.461C125.646 12.9864 125.927 12.5553 126.282 12.1922C126.637 11.8292 127.058 11.5414 127.521 11.3453C127.985 11.1491 128.481 11.0486 128.983 11.0493C129.218 11.0489 129.452 11.0704 129.683 11.1135C130.06 10.4815 130.628 9.992 131.3 9.71873C131.972 9.44547 132.713 9.40316 133.41 9.59817C134.108 9.79318 134.725 10.215 135.168 10.8001C135.612 11.3853 135.858 12.1022 135.87 12.843H135.922C136.337 12.8255 136.75 12.8941 137.138 13.0445C137.526 13.195 137.881 13.4243 138.18 13.7186C138.479 14.013 138.718 14.3663 138.88 14.7573C139.043 15.1484 139.127 15.5691 139.127 15.9942C139.127 16.4193 139.043 16.84 138.88 17.2311C138.718 17.6221 138.479 17.9754 138.18 18.2698C137.881 18.5641 137.526 18.7934 137.138 18.9439C136.75 19.0943 136.337 19.1629 135.922 19.1454H124.635C124.164 19.1341 123.716 18.9337 123.387 18.5871C123.059 18.2406 122.877 17.7757 122.879 17.2927Z" fill="#F0F0F0"/>
<path d="M119.284 200.13C175.24 200.13 220.601 197.416 220.601 194.068C220.601 190.721 175.24 188.007 119.284 188.007C63.3287 188.007 17.9678 190.721 17.9678 194.068C17.9678 197.416 63.3287 200.13 119.284 200.13Z" fill="#F5F5F5"/>
<path d="M209.684 167.573C209.684 167.573 212.135 159.15 207.171 157.469C202.207 155.788 199.233 151.852 199.416 147.397C199.599 142.942 194.353 138.605 190.434 142.782C186.515 146.958 187.037 139.569 181.812 137.775C176.586 135.981 172.16 140.335 173.592 144.313C175.024 148.291 169.866 150.781 163.7 147.397C157.534 144.013 150.731 150.171 152.037 154.99C153.343 159.809 152.277 160.345 148.379 158.738C144.481 157.132 137.484 161.683 139.935 167.573C142.385 173.463 209.684 167.573 209.684 167.573Z" fill="#ED8D34"/>
<path opacity="0.3" d="M209.684 167.573C209.684 167.573 212.135 159.15 207.171 157.469C202.207 155.788 199.233 151.852 199.416 147.397C199.599 142.942 194.353 138.605 190.434 142.782C186.515 146.958 187.037 139.569 181.812 137.775C176.586 135.981 172.16 140.335 173.592 144.313C175.024 148.291 169.866 150.781 163.7 147.397C157.534 144.013 150.731 150.171 152.037 154.99C153.343 159.809 152.277 160.345 148.379 158.738C144.481 157.132 137.484 161.683 139.935 167.573C142.385 173.463 209.684 167.573 209.684 167.573Z" fill="white"/>
<path d="M78.3478 168.376C80.9605 165.699 78.609 161.148 75.9963 160.612C73.3836 160.077 70.7708 155.365 70.635 152.366C70.4991 149.368 65.8067 140.142 58.491 145.839C51.1754 151.536 53.4014 146.68 48.108 145.079C42.8146 143.478 39.4808 148.082 41.8009 151.536C41.8009 151.536 36.4866 150.171 34.2971 155.258C32.1076 160.344 34.2971 163.504 34.2971 163.504C34.2971 163.504 24.2956 163.198 25.1943 169.538C26.0931 175.878 78.3478 168.376 78.3478 168.376Z" fill="#ED8D34"/>
<path opacity="0.3" d="M78.3478 168.376C80.9605 165.699 78.609 161.148 75.9963 160.612C73.3836 160.077 70.7708 155.365 70.635 152.366C70.4991 149.368 65.8067 140.142 58.491 145.839C51.1754 151.536 53.4014 146.68 48.108 145.079C42.8146 143.478 39.4808 148.082 41.8009 151.536C41.8009 151.536 36.4866 150.171 34.2971 155.258C32.1076 160.344 34.2971 163.504 34.2971 163.504C34.2971 163.504 24.2956 163.198 25.1943 169.538C26.0931 175.878 78.3478 168.376 78.3478 168.376Z" fill="white"/>
<path d="M218.651 168.537V175.873H16.9484V168.537C16.9329 168.244 16.9752 167.95 17.0728 167.675C17.1704 167.399 17.3212 167.146 17.5163 166.931C17.7114 166.716 17.9467 166.543 18.2083 166.424C18.4698 166.304 18.7522 166.24 19.0386 166.234H216.54C216.828 166.237 217.113 166.299 217.377 166.418C217.641 166.536 217.879 166.708 218.076 166.923C218.274 167.138 218.426 167.392 218.525 167.67C218.624 167.947 218.667 168.242 218.651 168.537V168.537Z" fill="#263238"/>
<path d="M40.9855 166.234H28.4443V175.873H40.9855V166.234Z" fill="#ED8D34"/>
<path d="M64.5005 166.234H52.4819V175.873H64.5005V166.234Z" fill="#ED8D34"/>
<path d="M88.5372 166.234H75.9961V175.873H88.5372V166.234Z" fill="#ED8D34"/>
<path d="M112.052 166.234H100.033V175.873H112.052V166.234Z" fill="#ED8D34"/>
<path d="M135.566 166.234H123.548V175.873H135.566V166.234Z" fill="#ED8D34"/>
<path d="M159.604 166.234H147.062V175.873H159.604V166.234Z" fill="#ED8D34"/>
<path d="M183.118 166.234H171.1V175.873H183.118V166.234Z" fill="#ED8D34"/>
<path d="M207.155 166.234H194.614V175.873H207.155V166.234Z" fill="#ED8D34"/>
<g opacity="0.6">
<path opacity="0.6" d="M40.9854 166.234H28.4443V175.873H40.9854V166.234Z" fill="white"/>
<path opacity="0.6" d="M64.5 166.234H52.4814V175.873H64.5V166.234Z" fill="white"/>
<path opacity="0.6" d="M88.5372 166.234H75.9961V175.873H88.5372V166.234Z" fill="white"/>
<path opacity="0.6" d="M112.052 166.234H100.033V175.873H112.052V166.234Z" fill="white"/>
<path opacity="0.6" d="M135.566 166.234H123.548V175.873H135.566V166.234Z" fill="white"/>
<path opacity="0.6" d="M159.603 166.234H147.062V175.873H159.603V166.234Z" fill="white"/>
<path opacity="0.6" d="M183.118 166.234H171.1V175.873H183.118V166.234Z" fill="white"/>
<path opacity="0.6" d="M207.155 166.234H194.614V175.873H207.155V166.234Z" fill="white"/>
</g>
<path opacity="0.1" d="M218.651 168.537V175.873H16.9484V168.537C16.9329 168.244 16.9752 167.95 17.0728 167.675C17.1704 167.399 17.3212 167.146 17.5163 166.931C17.7114 166.716 17.9467 166.543 18.2083 166.424C18.4698 166.304 18.7522 166.24 19.0386 166.234H216.54C216.828 166.237 217.113 166.299 217.377 166.418C217.641 166.536 217.879 166.708 218.076 166.923C218.274 167.138 218.426 167.392 218.525 167.67C218.624 167.947 218.667 168.242 218.651 168.537V168.537Z" fill="white"/>
<path d="M92.3149 163.745V52.3433L128.7 47.8508L144.69 50.9725L149.915 51.9899L161.134 54.1799L168.612 52.6699L173.837 51.6151L198.449 46.6514V158.053L173.837 163.022L168.612 164.077L161.134 165.587L128.7 159.258L126.589 159.52L120.292 160.297L92.3149 163.745Z" fill="#ED8D34"/>
<path opacity="0.2" d="M92.3149 163.745V52.3433L128.7 47.8508L144.69 50.9725L149.915 51.9899L161.134 54.1799L168.612 52.6699L173.837 51.6151L198.449 46.6514V158.053L173.837 163.022L168.612 164.077L161.134 165.587L128.7 159.258L126.589 159.52L120.292 160.297L92.3149 163.745Z" fill="black"/>
<path d="M168.612 109.048V100.77C168.612 100.576 168.571 100.383 168.49 100.207C168.409 100.031 168.291 99.8756 168.145 99.7517C167.999 99.6278 167.827 99.5386 167.643 99.4907C167.459 99.4427 167.267 99.4371 167.081 99.4743L92.3149 114.205V108.748L121.98 102.912C122.154 102.877 122.32 102.806 122.466 102.702C122.613 102.599 122.737 102.466 122.83 102.311C122.924 102.156 122.986 101.983 123.011 101.802C123.036 101.622 123.025 101.438 122.978 101.263L117.277 80.0105C117.192 79.6901 116.991 79.4147 116.716 79.2398C116.441 79.0649 116.111 79.0036 115.793 79.0681L92.3149 83.7051V78.2435L119.55 72.8621C119.868 72.8004 120.198 72.8637 120.473 73.0392C120.747 73.2148 120.948 73.4899 121.034 73.8099L128.167 100.443C128.253 100.763 128.453 101.039 128.728 101.214C129.003 101.39 129.333 101.453 129.651 101.391L143.645 98.6283C143.939 98.5709 144.204 98.41 144.395 98.1734C144.586 97.9368 144.69 97.6394 144.69 97.3325V66.0511C144.69 65.7442 144.586 65.4467 144.395 65.2102C144.204 64.9736 143.939 64.8127 143.645 64.7553L126.808 61.5747C126.665 61.5506 126.518 61.5506 126.375 61.5747L92.3149 67.0364V61.6389L126.432 56.1398C126.575 56.113 126.722 56.113 126.866 56.1398L143.169 59.2133C143.355 59.2487 143.546 59.2418 143.728 59.193C143.911 59.1442 144.081 59.0548 144.226 58.9311C144.371 58.8074 144.488 58.6525 144.568 58.4773C144.648 58.3021 144.69 58.111 144.69 57.9175V50.9727L149.915 51.99V95.7957C149.916 95.9907 149.958 96.1831 150.039 96.3593C150.121 96.5356 150.239 96.6914 150.386 96.8156C150.532 96.9397 150.704 97.0293 150.888 97.078C151.072 97.1266 151.265 97.133 151.452 97.0969L167.567 93.9163C167.862 93.8598 168.128 93.6992 168.319 93.4624C168.51 93.2256 168.613 92.9277 168.612 92.6205V52.6701L173.837 51.5991V91.0676C173.838 91.2624 173.88 91.4547 173.961 91.6308C174.043 91.8069 174.161 91.9624 174.308 92.0862C174.455 92.21 174.626 92.299 174.811 92.3469C174.995 92.3949 175.187 92.4005 175.374 92.3634L186.237 90.2216C186.532 90.1642 186.797 90.0033 186.988 89.7668C187.179 89.5302 187.283 89.2327 187.283 88.9258V61.6175C187.282 61.3113 187.387 61.0145 187.578 60.7789C187.768 60.5432 188.034 60.3833 188.328 60.3271L198.465 58.1853V63.6523L193.553 64.691C193.259 64.7494 192.994 64.9106 192.804 65.1469C192.613 65.3833 192.509 65.6802 192.508 65.9869V87.4051C192.508 87.5997 192.549 87.7919 192.63 87.968C192.711 88.1441 192.828 88.2997 192.975 88.4236C193.121 88.5475 193.293 88.6366 193.477 88.6845C193.661 88.7325 193.853 88.7381 194.039 88.7009L198.449 87.8335V93.2737L174.883 97.9161C174.588 97.9756 174.323 98.1378 174.133 98.3751C173.942 98.6123 173.838 98.91 173.837 99.2173V136.571C173.838 136.763 173.879 136.952 173.958 137.126C174.037 137.3 174.153 137.455 174.296 137.578C174.439 137.702 174.607 137.793 174.788 137.843C174.968 137.894 175.158 137.904 175.342 137.872L198.449 133.968V139.377L174.935 143.382C174.632 143.43 174.355 143.586 174.154 143.824C173.954 144.061 173.841 144.363 173.837 144.678V163.012L168.612 164.082V117.16C168.612 116.968 168.572 116.778 168.493 116.604C168.414 116.429 168.299 116.274 168.155 116.15C168.012 116.026 167.844 115.936 167.663 115.886C167.482 115.835 167.292 115.826 167.107 115.859L147.726 119.281C147.53 119.316 147.345 119.396 147.185 119.516C147.025 119.636 146.893 119.792 146.801 119.972L126.599 159.52L120.303 160.297L128.026 145.181C128.135 144.964 128.184 144.721 128.168 144.478C128.151 144.235 128.068 144.001 127.93 143.802C127.792 143.604 127.602 143.449 127.383 143.354C127.164 143.259 126.923 143.228 126.688 143.264L92.3254 148.618V143.21L131.569 137.09C131.769 137.059 131.96 136.979 132.125 136.858C132.29 136.737 132.425 136.578 132.52 136.394L143.383 115.142C143.475 114.963 143.605 114.808 143.765 114.689C143.924 114.57 144.109 114.49 144.303 114.456L167.556 110.349C167.853 110.293 168.121 110.132 168.314 109.894C168.507 109.657 168.612 109.357 168.612 109.048Z" fill="#ED8D34"/>
<path d="M161.124 162.883L129.212 156.628L128.815 156.548L128.407 156.602L126.317 156.864L120.047 157.64L94.9279 160.741V54.7203L128.606 50.5652L144.199 53.6066L149.424 54.6239L160.643 56.814L161.166 56.9103L161.662 56.814L169.14 55.304L174.365 54.2331L195.837 49.9012V155.852L173.331 160.398L168.105 161.469L161.124 162.883ZM161.124 165.608L168.602 164.098L173.827 163.027L198.45 158.063V46.6885L173.838 51.6522L168.612 52.7231L161.135 54.1849L149.915 51.9949L144.69 50.9775L128.69 47.8504L92.3047 52.3429V163.745L120.282 160.296L126.599 159.52L128.69 159.257L161.124 165.587V165.608Z" fill="#263238"/>
<path opacity="0.1" d="M161.124 162.883L129.212 156.628L128.815 156.548L128.407 156.602L126.317 156.864L120.047 157.64L94.9279 160.741V54.7203L128.606 50.5652L144.199 53.6066L149.424 54.6239L160.643 56.814L161.166 56.9103L161.662 56.814L169.14 55.304L174.365 54.2331L195.837 49.9012V155.852L173.331 160.398L168.105 161.469L161.124 162.883ZM161.124 165.608L168.602 164.098L173.827 163.027L198.45 158.063V46.6885L173.838 51.6522L168.612 52.7231L161.135 54.1849L149.915 51.9949L144.69 50.9775L128.69 47.8504L92.3047 52.3429V163.745L120.282 160.296L126.599 159.52L128.69 159.257L161.124 165.587V165.608Z" fill="white"/>
<path opacity="0.1" d="M161.135 165.587V54.1797L128.7 47.8506V159.258L161.135 165.587Z" fill="black"/>
<g opacity="0.5">
<path opacity="0.5" d="M185.344 92.8186C185.483 92.8058 185.62 92.85 185.727 92.9413C185.834 93.0327 185.901 93.1638 185.914 93.3058C185.926 93.4479 185.883 93.5891 185.794 93.6986C185.705 93.808 185.577 93.8767 185.438 93.8895L171.747 96.4061V112.416C171.749 112.544 171.706 112.668 171.627 112.766C171.547 112.864 171.436 112.93 171.314 112.952L145.709 117.476L133.089 142C133.058 142.064 133.015 142.121 132.963 142.168C132.91 142.214 132.849 142.25 132.782 142.272C132.716 142.294 132.646 142.302 132.577 142.296C132.507 142.29 132.44 142.27 132.378 142.236C132.316 142.203 132.262 142.158 132.218 142.103C132.173 142.047 132.14 141.984 132.12 141.915C132.101 141.847 132.094 141.775 132.102 141.704C132.109 141.633 132.131 141.565 132.164 141.502L144.92 116.716C144.957 116.644 145.009 116.581 145.074 116.533C145.138 116.484 145.212 116.452 145.291 116.438L170.702 111.94V95.951C170.7 95.8242 170.742 95.7008 170.821 95.6027C170.899 95.5047 171.009 95.4383 171.131 95.4155L185.239 92.8186H185.344Z" fill="white"/>
<path opacity="0.5" d="M131.642 141.77C131.641 141.57 131.698 141.373 131.806 141.206C131.914 141.039 132.068 140.908 132.249 140.831C132.43 140.754 132.629 140.733 132.821 140.772C133.013 140.811 133.189 140.907 133.328 141.049C133.466 141.191 133.56 141.372 133.598 141.569C133.636 141.766 133.616 141.97 133.541 142.155C133.465 142.34 133.338 142.498 133.175 142.609C133.011 142.719 132.82 142.778 132.624 142.777C132.364 142.776 132.115 142.669 131.931 142.481C131.747 142.292 131.643 142.037 131.642 141.77V141.77Z" fill="white"/>
<path opacity="0.5" d="M184.361 93.3543C184.36 93.1537 184.417 92.9573 184.525 92.79C184.633 92.6228 184.787 92.4922 184.968 92.415C185.149 92.3377 185.348 92.3172 185.54 92.3561C185.732 92.395 185.908 92.4915 186.047 92.6333C186.185 92.7752 186.279 92.956 186.317 93.1528C186.355 93.3496 186.335 93.5535 186.26 93.7387C186.184 93.9238 186.057 94.0818 185.894 94.1926C185.731 94.3034 185.539 94.362 185.343 94.3609C185.083 94.3609 184.833 94.2549 184.649 94.0661C184.464 93.8773 184.361 93.6212 184.361 93.3543V93.3543Z" fill="white"/>
</g>
<path d="M133.137 125.98C132.59 125.418 131.94 124.973 131.225 124.669C130.51 124.365 129.743 124.209 128.969 124.209C128.195 124.209 127.429 124.365 126.714 124.669C125.999 124.973 125.349 125.418 124.802 125.98V125.98C124.255 126.54 123.821 127.205 123.525 127.938C123.229 128.67 123.077 129.455 123.077 130.247C123.077 131.04 123.229 131.825 123.525 132.557C123.821 133.289 124.255 133.954 124.802 134.515L128.982 138.798L133.163 134.515C133.708 133.953 134.14 133.286 134.434 132.553C134.728 131.82 134.877 131.034 134.875 130.242C134.873 129.449 134.718 128.665 134.42 127.933C134.121 127.202 133.685 126.538 133.137 125.98V125.98ZM127.274 131.982C126.938 131.638 126.71 131.2 126.617 130.724C126.524 130.247 126.572 129.753 126.753 129.304C126.935 128.854 127.242 128.471 127.637 128.2C128.031 127.93 128.495 127.786 128.969 127.786C129.444 127.786 129.907 127.93 130.302 128.2C130.696 128.471 131.004 128.854 131.185 129.304C131.367 129.753 131.414 130.247 131.322 130.724C131.229 131.2 131.001 131.638 130.665 131.982C130.443 132.211 130.178 132.392 129.887 132.516C129.596 132.64 129.284 132.704 128.969 132.704C128.654 132.704 128.342 132.64 128.051 132.516C127.76 132.392 127.496 132.211 127.274 131.982V131.982Z" fill="white"/>
<path opacity="0.2" d="M133.137 125.979C132.585 125.413 131.929 124.965 131.207 124.662C130.485 124.358 129.711 124.205 128.93 124.212V127.794C129.254 127.779 129.577 127.831 129.88 127.947C130.183 128.063 130.46 128.241 130.694 128.47C130.928 128.699 131.115 128.974 131.242 129.279C131.37 129.584 131.435 129.912 131.435 130.244C131.435 130.576 131.37 130.904 131.242 131.209C131.115 131.514 130.928 131.789 130.694 132.018C130.46 132.247 130.183 132.425 129.88 132.541C129.577 132.657 129.254 132.709 128.93 132.694V138.744L128.967 138.782L133.147 134.498C134.246 133.366 134.861 131.833 134.859 130.236C134.857 128.64 134.238 127.109 133.137 125.979Z" fill="black"/>
<path d="M189.509 76.557C188.962 75.9965 188.312 75.5519 187.598 75.2486C186.883 74.9452 186.117 74.7891 185.344 74.7891C184.57 74.7891 183.805 74.9452 183.09 75.2486C182.375 75.5519 181.726 75.9965 181.179 76.557C180.075 77.6904 179.456 79.2262 179.456 80.8273C179.456 82.4285 180.075 83.9642 181.179 85.0976L185.36 89.3812L189.54 85.0976C190.086 84.535 190.518 83.8677 190.812 83.1338C191.105 82.3999 191.255 81.6139 191.252 80.8206C191.249 80.0274 191.094 79.2426 190.795 78.511C190.495 77.7794 190.058 77.1154 189.509 76.557V76.557ZM183.651 82.5649C183.315 82.2215 183.085 81.7836 182.992 81.3066C182.899 80.8296 182.946 80.335 183.127 79.8854C183.308 79.4358 183.616 79.0515 184.011 78.781C184.405 78.5106 184.869 78.3662 185.344 78.3662C185.819 78.3662 186.283 78.5106 186.677 78.781C187.072 79.0515 187.379 79.4358 187.561 79.8854C187.742 80.335 187.789 80.8296 187.696 81.3066C187.602 81.7836 187.373 82.2215 187.037 82.5649C186.587 83.0239 185.979 83.2817 185.344 83.2817C184.709 83.2817 184.1 83.0239 183.651 82.5649V82.5649Z" fill="white"/>
<path opacity="0.2" d="M189.508 76.5566C188.96 75.9949 188.308 75.55 187.59 75.2476C186.873 74.9453 186.104 74.7914 185.328 74.795V78.3772C185.651 78.3617 185.975 78.4136 186.278 78.5297C186.581 78.6458 186.858 78.8237 187.092 79.0527C187.326 79.2818 187.513 79.5571 187.64 79.862C187.768 80.1669 187.833 80.4952 187.833 80.8269C187.833 81.1586 187.768 81.4868 187.64 81.7918C187.513 82.0967 187.326 82.372 187.092 82.601C186.858 82.83 186.581 83.008 186.278 83.1241C185.975 83.2402 185.651 83.2921 185.328 83.2766V89.3273L185.365 89.3647L189.545 85.0811C190.642 83.9448 191.254 82.4092 191.247 80.8111C191.24 79.213 190.615 77.683 189.508 76.5566V76.5566Z" fill="black"/>
<path d="M36.7373 182.689L39.6322 185.682L46.6291 179.069L43.7342 176.07L36.7373 182.689Z" fill="#EEC1BB"/>
<path d="M40.3798 185.751L36.8683 182.121C36.8101 182.061 36.7341 182.024 36.6526 182.014C36.5711 182.005 36.4888 182.023 36.4189 182.067L33.2522 184.113C33.117 184.203 33.0218 184.344 32.9876 184.505C32.9533 184.667 32.9827 184.835 33.0693 184.975C33.0943 185.013 33.1223 185.049 33.1529 185.082C34.3078 186.238 35.2066 187.02 36.6331 188.498C37.511 189.408 40.0715 192.246 41.2838 193.499C42.4961 194.752 43.8652 193.692 43.4837 193.065C41.7436 190.26 40.7455 187.834 40.6776 186.442C40.6685 186.181 40.5619 185.934 40.3798 185.751V185.751Z" fill="#263238"/>
<path opacity="0.2" d="M43.7343 176.076L46.624 179.069L43.0132 182.48L40.1235 179.487L43.7343 176.076Z" fill="black"/>
<path d="M40.1656 186.367C40.1541 186.351 40.1479 186.331 40.1479 186.311C40.1479 186.291 40.1541 186.271 40.1656 186.255C40.1762 186.239 40.1917 186.227 40.2098 186.221C40.2278 186.215 40.2472 186.216 40.2649 186.222C40.4373 186.26 41.9475 186.64 42.099 187.138C42.1191 187.192 42.1229 187.251 42.1098 187.308C42.0968 187.364 42.0675 187.415 42.0259 187.454C41.9668 187.537 41.8872 187.602 41.7953 187.642C41.7034 187.683 41.6026 187.697 41.5033 187.684C41.2273 187.632 40.9779 187.482 40.7979 187.261C40.555 186.989 40.3428 186.689 40.1656 186.367V186.367ZM40.4582 186.474C40.6798 186.94 41.0667 187.302 41.5399 187.486C41.6047 187.492 41.6698 187.48 41.7291 187.453C41.7885 187.426 41.8402 187.384 41.8796 187.331C41.9318 187.272 41.937 187.218 41.9161 187.202C41.9039 187.159 41.8804 187.12 41.8482 187.09C41.4277 186.795 40.9558 186.586 40.4582 186.474Z" fill="#ED8D34"/>
<path d="M40.1286 186.362C40.1261 186.345 40.1276 186.327 40.1331 186.31C40.1385 186.293 40.1477 186.278 40.16 186.266C40.2018 186.228 41.111 185.446 41.7276 185.516C41.8021 185.521 41.8746 185.542 41.9404 185.578C42.0062 185.614 42.0637 185.664 42.1091 185.725C42.1599 185.779 42.1911 185.85 42.1978 185.925C42.2044 185.999 42.186 186.074 42.1457 186.137C41.8948 186.512 40.6773 186.566 40.2175 186.426L40.1809 186.389C40.1708 186.388 40.161 186.386 40.152 186.381C40.143 186.376 40.1351 186.37 40.1286 186.362V186.362ZM41.7276 185.693C41.2617 185.746 40.8233 185.946 40.4735 186.266C40.9961 186.341 41.853 186.228 42.0046 185.998C42.0046 185.998 42.0621 185.918 41.9732 185.827L41.9419 185.789C41.8847 185.731 41.8083 185.696 41.7276 185.693V185.693Z" fill="#ED8D34"/>
<path d="M84.0805 75.7154C84.0805 75.7154 90.6071 86.4245 91.8455 87.7685C93.084 89.1125 101.251 75.1049 101.889 73.2362C102.526 71.3675 110.694 71.3139 111.253 71.5549C111.812 71.7958 111.436 75.8385 109.868 76.6685C108.301 77.4984 102.913 77.2842 102.913 77.2842C102.913 77.2842 98.1684 92.9463 92.5876 93.7442C87.0068 94.542 80.9243 80.3845 80.9243 80.3845L84.0805 75.7154Z" fill="#EEC1BB"/>
<path d="M79.294 70.3926C83.3908 71.1422 88.7625 82.4778 88.7625 82.4778L84.0283 88.8283L78.1392 83.099L79.294 70.3926Z" fill="#ED8D34"/>
<path opacity="0.4" d="M88.7626 82.4778L84.0283 88.8283L83.8715 88.6731L78.1235 83.1097L78.1967 82.2958L79.2784 70.3926C83.3908 71.1422 88.7626 82.4778 88.7626 82.4778Z" fill="white"/>
<path opacity="0.2" d="M83.8715 88.6736L78.1235 83.1102L78.1967 82.2963L80.1876 78.168C80.1876 78.168 83.8454 81.7984 83.8715 88.6736Z" fill="black"/>
<path d="M78.1389 107.452C78.1389 107.452 68.4457 144.543 61.8041 159.134C55.1625 173.726 45.809 181.377 45.809 181.377L41.4771 175.905C41.4771 175.905 53.6524 158.16 56.2912 147.21C58.9301 136.26 59.8132 113.621 59.8132 113.621L78.1389 107.452Z" fill="#263238"/>
<path opacity="0.2" d="M78.1389 107.452C78.1389 107.452 68.4457 144.543 61.8041 159.134C55.1625 173.726 45.809 181.377 45.809 181.377L41.4771 175.905C41.4771 175.905 53.6524 158.16 56.2912 147.21C58.9301 136.26 59.8132 113.621 59.8132 113.621L78.1389 107.452Z" fill="black"/>
<path d="M80.9971 190.924L84.8953 189.59L82.2042 180.23L78.3008 181.564L80.9971 190.924Z" fill="#EEC1BB"/>
<path d="M85.2822 188.943L80.5479 190.549C80.471 190.577 80.4055 190.631 80.362 190.702C80.3184 190.773 80.2993 190.857 80.3076 190.94L80.6995 194.758C80.7204 194.919 80.8021 195.065 80.9272 195.165C81.0522 195.265 81.2106 195.311 81.3683 195.293C81.4129 195.287 81.4567 195.277 81.499 195.261C83.0196 194.726 84.1117 194.233 86.0294 193.574C87.2156 193.173 90.8264 192.075 92.462 191.518C94.0975 190.961 93.7736 189.226 93.0577 189.307C89.8336 189.66 87.2679 189.505 86.019 188.948C85.783 188.85 85.5195 188.848 85.2822 188.943V188.943Z" fill="#263238"/>
<path opacity="0.2" d="M78.3062 181.57L82.2043 180.236L83.5891 185.061L79.6909 186.394L78.3062 181.57Z" fill="black"/>
<path d="M85.7315 189.404C85.7117 189.406 85.6916 189.402 85.6745 189.391C85.6574 189.38 85.6444 189.364 85.6375 189.345C85.6256 189.33 85.6191 189.311 85.6191 189.291C85.6191 189.272 85.6256 189.253 85.6375 189.238C85.742 189.098 86.7453 187.878 87.2521 187.958C87.3082 187.965 87.3611 187.989 87.4045 188.026C87.448 188.063 87.4804 188.112 87.4977 188.167C87.5392 188.258 87.558 188.359 87.5526 188.46C87.5471 188.561 87.5175 188.659 87.4664 188.745C87.2983 188.973 87.0582 189.134 86.7871 189.2C86.4433 189.306 86.0895 189.375 85.7315 189.404ZM85.9562 189.179C86.4609 189.185 86.9489 188.994 87.3201 188.643C87.3507 188.585 87.3668 188.52 87.3668 188.453C87.3668 188.387 87.3507 188.322 87.3201 188.263C87.2887 188.188 87.2469 188.161 87.2208 188.172C87.1804 188.156 87.1358 188.156 87.0954 188.172C86.6568 188.431 86.2703 188.772 85.9562 189.179V189.179Z" fill="#ED8D34"/>
<path d="M85.7159 189.43C85.6983 189.427 85.6819 189.419 85.6689 189.407C85.6558 189.394 85.6467 189.378 85.6427 189.361C85.6427 189.302 85.3501 188.124 85.6741 187.594C85.7118 187.527 85.7631 187.47 85.8244 187.425C85.8857 187.381 85.9556 187.351 86.0294 187.337C86.0993 187.312 86.1754 187.314 86.2442 187.341C86.313 187.369 86.3702 187.42 86.4057 187.486C86.6251 187.877 86.1339 189.023 85.8047 189.387H85.7577C85.7493 189.406 85.7344 189.422 85.7159 189.43V189.43ZM85.8308 187.663C85.6756 188.116 85.6574 188.607 85.7786 189.071C86.0764 188.627 86.3586 187.792 86.2228 187.545C86.2228 187.545 86.1757 187.454 86.0608 187.497H86.0137C85.9387 187.53 85.8775 187.588 85.8413 187.663H85.8308Z" fill="#ED8D34"/>
<path d="M56.2967 105.016C54.799 111.982 54.9441 119.215 56.72 126.113C58.9721 134.401 78.2071 184.563 78.2071 184.563L84.8957 182.593L70.7503 122.911C70.7503 122.911 76.0385 115.237 78.1392 107.452L56.2967 105.016Z" fill="#263238"/>
<path d="M85.9876 183.39L77.5798 186.266L75.4844 183.31L85.4128 180.536L85.9876 183.39Z" fill="#ED8D34"/>
<path opacity="0.3" d="M85.9876 183.39L77.5798 186.266L75.4844 183.31L85.4128 180.536L85.9876 183.39Z" fill="white"/>
<path d="M45.5372 183.941L39.3032 177.489L40.9597 174.255L47.7789 182.148L45.5372 183.941Z" fill="#ED8D34"/>
<path opacity="0.3" d="M45.5372 183.941L39.3032 177.489L40.9597 174.255L47.7789 182.148L45.5372 183.941Z" fill="white"/>
<path d="M58.8729 68.4645C59.2761 73.1564 59.3372 77.8726 59.0558 82.5738C58.8782 85.8562 58.5646 88.9564 58.2198 91.7676C57.415 98.343 54.1387 110.541 54.1387 110.541L71.0221 115.092L72.5532 107.451L74.1208 115.092L77.4808 112.977C82.7063 95.987 82.8421 78.847 82.1837 73.9208C82.0789 73.1098 81.7495 72.3464 81.2347 71.7211C80.7198 71.0958 80.0409 70.6346 79.2784 70.3922C78.5102 70.1459 77.6167 69.8567 76.6656 69.6425C76.2946 69.5729 75.9341 69.4712 75.5578 69.3962C72.4832 68.8654 69.381 68.5185 66.267 68.3574C65.6817 68.32 65.0808 68.3039 64.4955 68.2932C62.6197 68.2501 60.743 68.3073 58.8729 68.4645V68.4645Z" fill="#ED8D34"/>
<path opacity="0.4" d="M77.4806 112.977L74.1311 115.092L72.5635 107.451L71.0324 115.092L54.1489 110.541C54.1489 110.541 57.4253 98.3434 58.23 91.768C58.3136 91.0987 58.392 90.4133 58.4704 89.7118C58.716 87.4683 58.9302 85.0748 59.0661 82.5742C59.1497 81.2034 59.2019 79.8273 59.2228 78.4565C59.2822 75.1222 59.1689 71.7869 58.8832 68.4649C60.7602 68.3069 62.6439 68.2497 64.5267 68.2936C65.112 68.2936 65.7129 68.3203 66.2981 68.3578C69.4121 68.5189 72.5144 68.8658 75.589 69.3966C75.9652 69.4716 76.3258 69.5733 76.6968 69.6429C77.6426 69.8785 78.5362 70.1462 79.3095 70.3926C80.0721 70.635 80.751 71.0962 81.2658 71.7215C81.7807 72.3468 82.11 73.1101 82.2149 73.9212C82.8367 78.8474 82.7061 95.9874 77.4806 112.977Z" fill="white"/>
<path d="M68.3464 57.7129C68.6077 60.8453 68.5973 66.5211 66.2876 68.331C67.1039 69.4162 68.1378 70.3094 69.3196 70.9504C70.5013 71.5914 71.8034 71.9654 73.1382 72.0471C75.7143 72.2773 76.0435 70.4407 75.5785 69.3698C72.3282 68.1811 72.6836 65.6591 73.5196 63.3405L68.3464 57.7129Z" fill="#EEC1BB"/>
<path opacity="0.2" d="M70.4577 60.0156L73.5146 63.3355C73.3153 63.8747 73.1598 64.4299 73.0495 64.9954C71.7954 64.6687 70.2069 63.041 70.2121 61.6595C70.1913 61.1005 70.2746 60.5426 70.4577 60.0156V60.0156Z" fill="black"/>
<path d="M68.477 53.0708C68.2785 57.242 67.9545 59.673 69.7886 62.0183C72.5268 65.563 77.7209 64.219 79.137 60.187C80.4016 56.5566 80.5008 50.34 76.7124 48.2517C75.8781 47.7835 74.9407 47.5423 73.9896 47.551C73.0386 47.5597 72.1055 47.818 71.2796 48.3014C70.4536 48.7847 69.7623 49.4769 69.2717 50.3118C68.7811 51.1468 68.5075 52.0967 68.477 53.0708V53.0708Z" fill="#EEC1BB"/>
<path d="M74.4914 54.9126C74.4339 55.2446 74.6011 55.5444 74.8206 55.5659C75.0401 55.5873 75.2386 55.3356 75.2752 54.9983C75.3118 54.6609 75.1655 54.3664 74.9512 54.345C74.737 54.3236 74.5332 54.5753 74.4914 54.9126Z" fill="#263238"/>
<path d="M78.2172 55.3306C78.1598 55.6626 78.3322 55.9571 78.5412 55.9838C78.7502 56.0106 78.9593 55.7482 79.0011 55.4109C79.0429 55.0736 78.8861 54.7844 78.6719 54.7576C78.4576 54.7309 78.2538 55.0093 78.2172 55.3306Z" fill="#263238"/>
<path d="M77.0153 55.3623C77.2985 56.4384 77.7258 57.4692 78.2851 58.4251C78.0413 58.5656 77.7705 58.6499 77.4916 58.672C77.2127 58.6942 76.9325 58.6538 76.6704 58.5536L77.0153 55.3623Z" fill="#D4827D"/>
<path d="M73.4675 53.5533C73.5028 53.5615 73.5395 53.5603 73.5742 53.55C73.6089 53.5397 73.6405 53.5206 73.6661 53.4944C73.8281 53.3071 74.0305 53.1611 74.2573 53.0681C74.4842 52.9751 74.729 52.9378 74.9724 52.959C74.9975 52.9636 75.0232 52.9631 75.0481 52.9575C75.0729 52.952 75.0965 52.9414 75.1174 52.9265C75.1382 52.9116 75.156 52.8926 75.1697 52.8706C75.1834 52.8486 75.1927 52.824 75.1971 52.7983C75.2024 52.7726 75.2025 52.746 75.1973 52.7203C75.1922 52.6945 75.182 52.6701 75.1673 52.6485C75.1526 52.6269 75.1338 52.6087 75.112 52.5949C75.0901 52.581 75.0658 52.5719 75.0404 52.5681C74.7342 52.5313 74.4239 52.5705 74.1356 52.6823C73.8474 52.7941 73.5895 52.9753 73.3839 53.2106C73.3482 53.2477 73.3281 53.2977 73.3281 53.3499C73.3281 53.402 73.3482 53.452 73.3839 53.4891V53.4891L73.4675 53.5533Z" fill="#263238"/>
<path d="M74.9672 59.9189C74.4968 59.8233 74.056 59.6127 73.6821 59.3051C73.3081 58.9975 73.0122 58.6019 72.8195 58.1519C72.8123 58.1256 72.8147 58.0975 72.8262 58.0729C72.8378 58.0483 72.8577 58.0288 72.8822 58.0181C72.8942 58.0128 72.9071 58.01 72.9202 58.0098C72.9333 58.0096 72.9462 58.0121 72.9584 58.017C72.9705 58.022 72.9816 58.0294 72.9909 58.0388C73.0003 58.0481 73.0077 58.0593 73.0129 58.0716C73.2029 58.4794 73.4825 58.8367 73.8297 59.1154C74.1769 59.394 74.5823 59.5866 75.0142 59.678C75.0273 59.6799 75.0399 59.6846 75.0513 59.6916C75.0626 59.6986 75.0725 59.7078 75.0802 59.7188C75.088 59.7298 75.0936 59.7423 75.0966 59.7555C75.0996 59.7687 75.1 59.7824 75.0978 59.7958C75.0959 59.8092 75.0914 59.8221 75.0846 59.8337C75.0777 59.8454 75.0687 59.8555 75.058 59.8635C75.0472 59.8714 75.0351 59.8771 75.0222 59.8802C75.0093 59.8833 74.9959 59.8837 74.9829 59.8815L74.9672 59.9189Z" fill="#263238"/>
<path d="M79.9578 54.1845C79.995 54.198 80.0356 54.198 80.0728 54.1845C80.1205 54.1663 80.1595 54.1301 80.1819 54.0832C80.2043 54.0364 80.2082 53.9826 80.193 53.9328V53.9328C80.095 53.6322 79.9281 53.3601 79.7062 53.1393C79.4844 52.9185 79.2141 52.7554 78.918 52.6638C78.8682 52.654 78.8167 52.6641 78.7739 52.692C78.7312 52.7198 78.7005 52.7634 78.688 52.8137C78.6781 52.8647 78.687 52.9176 78.7131 52.9622C78.7392 53.0067 78.7806 53.0397 78.8291 53.0547V53.0547C79.0614 53.1328 79.2726 53.2655 79.4459 53.4421C79.6192 53.6188 79.7498 53.8345 79.8272 54.072C79.8384 54.1003 79.8562 54.1252 79.8789 54.1448C79.9017 54.1644 79.9288 54.178 79.9578 54.1845V54.1845Z" fill="#263238"/>
<path d="M69.167 56.5994C69.167 56.5994 71.7432 53.1885 71.0848 50.0454C72.4899 49.8576 73.9138 50.1981 75.0927 51.0038C75.1197 50.5183 75.0899 50.0311 75.0039 49.5528C75.0039 49.5528 78.6617 49.8151 80.4436 52.1926C80.4218 50.8061 79.9575 49.4651 79.1216 48.3748C79.6614 48.276 80.2178 48.3431 80.7205 48.5675C80.7205 48.5675 77.7995 45.4137 72.4539 46.2436C67.1082 47.0736 65.0807 50.0507 65.6608 54.9127C66.2408 59.7746 68.5504 61.1454 68.5504 61.1454C68.5504 61.1454 67.9913 57.4293 68.3257 56.6583C68.6602 55.8872 69.167 56.5994 69.167 56.5994Z" fill="#263238"/>
<path d="M66.1675 57.4401C66.6181 58.3831 67.4146 59.1051 68.3831 59.4481C69.6685 59.8925 70.3844 58.7252 70.0918 57.4455C69.8149 56.3049 68.8272 54.6665 67.4791 54.7682C66.1309 54.8699 65.6293 56.2728 66.1675 57.4401Z" fill="#EEC1BB"/>
<path d="M76.7173 46.3295C75.4516 46.542 74.2067 46.8681 72.9968 47.304C72.131 47.616 71.2921 48.001 70.4885 48.4552C66.5538 50.6774 65.5505 53.5474 65.5505 53.5474C65.5505 53.5474 65.4251 53.1833 65.2578 52.6157C65.0906 52.0482 64.8659 51.3092 64.6621 50.5382C64.2702 49.0924 63.9462 47.5824 64.1396 47.1487C65.817 43.2774 71.1365 42.1904 71.8524 42.4046C72.2861 42.5384 73.9426 43.9199 75.2124 45.0069C75.8551 45.5424 76.3933 46.0243 76.618 46.2277L76.7173 46.3295Z" fill="#ED8D34"/>
<path opacity="0.6" d="M76.6029 46.2281C75.3631 46.4338 74.1523 46.7934 72.9974 47.2991C72.2658 47.5989 71.4297 47.9791 70.4891 48.4503C67.5054 49.9389 66.0057 51.4328 65.2637 52.6108C65.0912 52.0486 64.8718 51.3043 64.668 50.5332C66.1363 49.0232 70.0659 45.5106 75.213 45.002C75.84 45.5481 76.3782 46.0247 76.6029 46.2281Z" fill="white"/>
<path d="M65.6447 54.9127C65.6447 54.9127 62.06 57.4882 61.8353 56.1175C61.2553 52.5995 70.7656 44.8729 80.0461 45.0549C87.67 45.1995 79.4713 47.5876 79.4713 47.5876C76.4353 46.5114 65.4043 51.4269 65.6447 54.9127Z" fill="#ED8D34"/>
<path opacity="0.3" d="M65.6447 54.9127C65.6447 54.9127 62.06 57.4882 61.8353 56.1175C61.2553 52.5995 70.7656 44.8729 80.0461 45.0549C87.67 45.1995 79.4713 47.5876 79.4713 47.5876C76.4353 46.5114 65.4043 51.4269 65.6447 54.9127Z" fill="black"/>
<path d="M66.7477 66.2705C66.7477 66.2705 68.5453 68.1874 72.8145 70.2489C72.8145 70.2489 73.8282 69.4511 73.9588 67.0362L76.6865 69.6653L76.0804 74.0721L74.2671 72.0213L73.3266 84.8294C73.3266 84.8294 73.917 76.2621 71.8634 72.4336L70.4891 74.6076C70.4891 74.6076 65.5249 72.8459 64.0723 68.2999L66.7477 66.2705Z" fill="#ED8D34"/>
<path opacity="0.6" d="M76.6865 69.6439L76.0804 74.0507L74.2671 71.9999L73.3266 84.808C73.3266 84.808 73.917 76.2407 71.8634 72.4122L70.4891 74.5861C70.4891 74.5861 65.5249 72.8245 64.0723 68.2785L66.7477 66.2705C66.7477 66.2705 68.5453 68.1874 72.8145 70.2489C72.9294 70.1526 73.8282 69.3119 73.9484 67.0362L76.6865 69.6439Z" fill="white"/>
<path opacity="0.2" d="M73.5147 76.9143C73.3631 73.7016 72.8145 70.2479 72.8145 70.2479C72.9294 70.1515 73.8282 69.3108 73.9484 67.0352C74.1056 67.493 74.1595 67.9814 74.1061 68.4636C74.0527 68.9458 73.8934 69.4094 73.6401 69.8195L73.5147 76.9143Z" fill="black"/>
<path d="M50.8303 113.754C51.2805 114.6 51.5176 115.548 51.5201 116.511C51.588 118.273 51.2379 121.727 50.8303 122.161C50.59 122.412 46.5716 121.256 46.1797 120.233C46.002 119.767 46.7022 115.028 47.5226 113.754C48.343 112.48 50.8303 113.754 50.8303 113.754Z" fill="#EEC1BB"/>
<path opacity="0.2" d="M63.9415 79.6672C63.9415 79.6672 62.0499 87.1636 58.46 89.7123C58.7056 87.4688 58.9198 85.0753 59.0557 82.5747C59.1393 81.2039 59.1915 79.8278 59.2124 78.457L63.9415 79.6672Z" fill="black"/>
<path d="M54.1381 78.168C54.1381 78.168 49.2837 86.9227 48.3901 89.8891C47.4965 92.8555 47.5122 113.754 47.5122 113.754H50.8304C50.8304 113.754 52.9206 92.9948 54.1381 90.3121C55.3557 87.6295 59.813 81.445 59.813 81.445L54.1381 78.168Z" fill="#EEC1BB"/>
<path d="M59.7138 68.4116C57.493 68.0475 51.5308 81.3911 51.5308 81.3911L57.8013 85.4231C57.8013 85.4231 61.8981 81.5142 63.9308 79.6669C65.9635 77.8196 63.3194 69.006 59.7138 68.4116Z" fill="#ED8D34"/>
<path opacity="0.4" d="M59.7138 68.4116C57.493 68.0475 51.5308 81.3911 51.5308 81.3911L57.8013 85.4231C57.8013 85.4231 61.8981 81.5142 63.9308 79.6669C65.9635 77.8196 63.3194 69.006 59.7138 68.4116Z" fill="white"/>
<path d="M51.5203 80.4648L58.8673 85.4232L57.237 86.9224L50.7261 82.5799L51.5203 80.4648Z" fill="#ED8D34"/>
<path opacity="0.6" d="M51.5203 80.4648L58.8673 85.4232L57.237 86.9224L50.7261 82.5799L51.5203 80.4648Z" fill="white"/>
<path d="M82.7949 88.3731L88.4071 81.4336L89.6873 83.2541L84.7649 89.4119L82.7949 88.3731Z" fill="#ED8D34"/>
<path opacity="0.6" d="M82.7949 88.3731L88.4071 81.4336L89.6873 83.2541L84.7649 89.4119L82.7949 88.3731Z" fill="white"/>
<path d="M104.276 71.9346L109.815 64.0634C109.852 64.0127 109.902 63.9733 109.959 63.9497C110.016 63.926 110.079 63.9191 110.139 63.9295L113.755 64.5828C113.811 64.5923 113.864 64.6164 113.908 64.6528C113.952 64.6891 113.986 64.7364 114.007 64.7903C114.028 64.8441 114.035 64.9025 114.028 64.96C114.02 65.0174 113.998 65.0719 113.965 65.1182L108.311 73.0002C108.274 73.0509 108.224 73.0899 108.167 73.1127C108.109 73.1354 108.047 73.141 107.987 73.1287L104.496 72.4594C104.441 72.4504 104.389 72.4274 104.345 72.3924C104.301 72.3573 104.267 72.3115 104.245 72.2591C104.223 72.2066 104.214 72.1494 104.22 72.0927C104.225 72.0359 104.245 71.9815 104.276 71.9346V71.9346Z" fill="#263238"/>
<path d="M103.88 71.71L109.419 63.8388C109.454 63.7871 109.504 63.747 109.561 63.7233C109.619 63.6996 109.682 63.6932 109.743 63.705L113.359 64.3529C113.414 64.3624 113.467 64.3865 113.511 64.4228C113.555 64.4591 113.589 64.5065 113.61 64.5603C113.631 64.6141 113.638 64.6726 113.631 64.73C113.623 64.7875 113.602 64.842 113.568 64.8883L107.903 72.7809C107.866 72.8312 107.816 72.8698 107.759 72.8926C107.702 72.9153 107.639 72.9211 107.579 72.9094L104.089 72.2401C104.034 72.2301 103.982 72.206 103.939 72.17C103.895 72.134 103.862 72.0873 103.841 72.0344C103.82 71.9814 103.813 71.9238 103.819 71.8671C103.826 71.8103 103.847 71.7563 103.88 71.71V71.71Z" fill="#263238"/>
<path d="M109.643 64.1016L113.108 64.7334L107.574 72.3583L104.214 71.7265L109.643 64.1016Z" fill="white"/>
<path d="M124.327 34.2399C124.328 31.4709 123.55 28.7601 122.087 26.4324C120.623 24.1047 118.535 22.2586 116.074 21.1152C113.613 19.9719 110.882 19.5797 108.209 19.9858C105.536 20.3918 103.034 21.5787 101.002 23.4045C98.9706 25.2303 97.4955 27.6175 96.7538 30.2802C96.012 32.9429 96.035 35.7683 96.82 38.4179C97.605 41.0676 99.1187 43.4292 101.18 45.2201C103.241 47.0109 105.762 48.1549 108.441 48.5152L109.121 56.0812L110.417 48.6384C114.118 48.5989 117.655 47.0647 120.26 44.3688C122.864 41.673 124.326 38.0333 124.327 34.2399Z" fill="#ED8D34"/>
<path opacity="0.8" d="M124.327 34.2399C124.328 31.4709 123.55 28.7601 122.087 26.4324C120.623 24.1047 118.535 22.2586 116.074 21.1152C113.613 19.9719 110.882 19.5797 108.209 19.9858C105.536 20.3918 103.034 21.5787 101.002 23.4045C98.9706 25.2303 97.4955 27.6175 96.7538 30.2802C96.012 32.9429 96.035 35.7683 96.82 38.4179C97.605 41.0676 99.1187 43.4292 101.18 45.2201C103.241 47.0109 105.762 48.1549 108.441 48.5152L109.121 56.0812L110.417 48.6384C114.118 48.5989 117.655 47.0647 120.26 44.3688C122.864 41.673 124.326 38.0333 124.327 34.2399Z" fill="white"/>
<path d="M117.126 34.2402L103.415 28.3662L105.661 34.2402L103.415 40.1088L117.126 34.2402Z" fill="#ED8D34"/>
<path opacity="0.3" d="M105.661 34.2402H117.126L103.415 40.1088L105.661 34.2402Z" fill="black"/>
</svg>
