<svg width="16" height="16" viewBox="0 0 16 16" fill="none" xmlns="http://www.w3.org/2000/svg">
<path d="M10.0026 7.99935C11.4754 7.99935 12.6693 6.80544 12.6693 5.33268C12.6693 3.85992 11.4754 2.66602 10.0026 2.66602C8.52984 2.66602 7.33594 3.85992 7.33594 5.33268C7.33594 6.80544 8.52984 7.99935 10.0026 7.99935Z" fill="#8937C7"/>
<path d="M9.9974 13.3327C9.9974 13.3327 15.3307 13.3327 15.3307 11.9993C15.3307 10.3993 12.7307 8.66602 9.9974 8.66602C7.26406 8.66602 4.66406 10.3993 4.66406 11.9993C4.66406 13.3327 9.9974 13.3327 9.9974 13.3327ZM3.9974 6.66602V4.66602H2.66406V6.66602H0.664062V7.99935H2.66406V9.99935H3.9974V7.99935H5.9974V6.66602H3.9974Z" fill="#8937C7"/>
</svg>
