<svg width="16" height="16" viewBox="0 0 16 16" fill="none" xmlns="http://www.w3.org/2000/svg">
<path d="M4.85427 13.168L5.28094 9.752C5.3414 9.26815 5.57655 8.82305 5.94216 8.50041C6.30777 8.17777 6.77865 7.99981 7.26627 8H8.7356C9.22299 8.00014 9.69355 8.17824 10.0589 8.50085C10.4242 8.82346 10.6592 9.26838 10.7196 9.752L11.1469 13.168C11.1704 13.3557 11.1536 13.5462 11.0978 13.7269C11.042 13.9076 10.9484 14.0744 10.8231 14.2161C10.6979 14.3579 10.544 14.4713 10.3715 14.549C10.1991 14.6267 10.0121 14.6668 9.82294 14.6667H6.1776C5.98852 14.6667 5.8016 14.6265 5.62923 14.5488C5.45687 14.4711 5.303 14.3576 5.17785 14.2159C5.0527 14.0741 4.95913 13.9074 4.90334 13.7267C4.84755 13.5461 4.83082 13.3556 4.85427 13.168V13.168Z" stroke="#8937C7" stroke-linecap="round" stroke-linejoin="round"/>
<path d="M8 5.3335C6.89543 5.3335 6 4.43807 6 3.3335C6 2.22893 6.89543 1.3335 8 1.3335C9.10457 1.3335 10 2.22893 10 3.3335C10 4.43807 9.10457 5.3335 8 5.3335Z" stroke="#8937C7"/>
<path d="M13.3337 7.33366C12.5973 7.33366 12.0003 6.73671 12.0003 6.00033C12.0003 5.26395 12.5973 4.66699 13.3337 4.66699C14.07 4.66699 14.667 5.26395 14.667 6.00033C14.667 6.73671 14.07 7.33366 13.3337 7.33366Z" stroke="#8937C7"/>
<path d="M2.66667 7.33366C1.93029 7.33366 1.33333 6.73671 1.33333 6.00033C1.33333 5.26395 1.93029 4.66699 2.66667 4.66699C3.40305 4.66699 4 5.26395 4 6.00033C4 6.73671 3.40305 7.33366 2.66667 7.33366Z" stroke="#8937C7"/>
<path d="M2.66661 9.3335H2.46261C2.14698 9.33346 1.84158 9.44539 1.60073 9.64937C1.35987 9.85336 1.1992 10.1362 1.14727 10.4475L0.925275 11.7808C0.893416 11.9719 0.903556 12.1675 0.954987 12.3543C1.00642 12.541 1.09791 12.7142 1.22309 12.862C1.34828 13.0098 1.50415 13.1285 1.67987 13.2099C1.85559 13.2914 2.04694 13.3335 2.24061 13.3335H4.66661M13.3333 9.3335H13.5373C13.8529 9.33346 14.1583 9.44539 14.3992 9.64937C14.64 9.85336 14.8007 10.1362 14.8526 10.4475L15.0746 11.7808C15.1065 11.9719 15.0963 12.1675 15.0449 12.3543C14.9935 12.541 14.902 12.7142 14.7768 12.862C14.6516 13.0098 14.4957 13.1285 14.32 13.2099C14.1443 13.2914 13.9529 13.3335 13.7593 13.3335H11.3333L13.3333 9.3335Z" stroke="#8937C7" stroke-linecap="round" stroke-linejoin="round"/>
</svg>
