<svg width="16" height="16" viewBox="0 0 16 16" fill="none" xmlns="http://www.w3.org/2000/svg">
<path d="M2.66634 5.16683H3.16634V4.66683V2.66683C3.16634 2.44582 3.25414 2.23385 3.41042 2.07757C3.5667 1.92129 3.77866 1.8335 3.99967 1.8335H13.9997C14.0439 1.8335 14.0863 1.85106 14.1175 1.88231C14.1488 1.91357 14.1663 1.95596 14.1663 2.00016V14.0002C14.1663 14.0444 14.1488 14.0868 14.1175 14.118C14.0863 14.1493 14.0439 14.1668 13.9997 14.1668H3.99967C3.77866 14.1668 3.5667 14.079 3.41042 13.9228C3.25414 13.7665 3.16634 13.5545 3.16634 13.3335V11.3335V10.8335H2.66634H1.83301V10.5002H2.66634H3.16634V10.0002V8.66683V8.16683H2.66634H1.83301V7.8335H2.66634H3.16634V7.3335V6.00016V5.50016H2.66634H1.83301V5.16683H2.66634ZM11.1663 5.33465V5.33283C11.1663 3.95725 10.041 2.83283 8.66634 2.83283C7.29242 2.83283 6.16634 3.95714 6.16634 5.33283C6.16634 6.70753 7.29209 7.8335 8.66634 7.8335L8.66833 7.83349C9.33018 7.83086 9.96415 7.56672 10.4321 7.09864C10.9 6.63056 11.1639 5.9965 11.1663 5.33465ZM12.6663 12.5002H13.1663V12.0002V11.5002C13.1663 10.5574 12.5997 9.676 11.7974 9.05097C10.9857 8.41868 9.87794 8.00016 8.66634 8.00016C7.45475 8.00016 6.34701 8.41868 5.53533 9.05097C4.73295 9.676 4.16634 10.5574 4.16634 11.5002V12.0002V12.5002H4.66634H12.6663Z" fill="#FEF6EF" stroke="#ED8D34"/>
<rect x="3" y="12" width="11" height="2" fill="#ED8D34"/>
</svg>
