<svg width="55" height="54" viewBox="0 0 55 54" fill="none" xmlns="http://www.w3.org/2000/svg">
<g clip-path="url(#clip0_75_1503)">
<path d="M34.9823 39.26C31.4858 37.9863 30.368 36.9111 30.368 34.609C30.368 33.2274 31.5137 32.332 31.9042 31.148C32.2948 29.9639 32.5207 28.562 32.7085 27.5423C32.8963 26.5225 32.9709 26.1281 33.073 25.0416C33.1979 23.6856 32.2901 20.1848 27.4362 20.1848C22.5837 20.1848 21.673 23.6856 21.8007 25.0416C21.9028 26.1281 21.9779 26.5226 22.1652 27.5423C22.3526 28.562 22.5764 29.9638 22.9666 31.148C23.3569 32.3321 24.5042 33.2274 24.5042 34.609C24.5042 36.9111 23.3865 37.9863 19.89 39.26C16.3809 40.5366 14.1028 41.7955 14.1028 42.6848V46.8515H40.7695V42.6848C40.7695 41.7969 38.4901 40.538 34.9823 39.26V39.26Z" fill="#8937C6"/>
</g>
<circle cx="27.4363" cy="27.6848" r="20" fill="#8937C6" fill-opacity="0.4"/>
<path d="M48.1002 43C47.184 45.8817 42.5057 51.7732 31.1223 52.2854" stroke="#8937C6" stroke-linecap="round"/>
<path d="M7.27734 9.72894C8.30543 6.59878 13.233 0.4947 24.7186 1.1196" stroke="#8937C6" stroke-linecap="round"/>
<path d="M9.9353 45.5702C6.83294 44.4611 0.85905 39.3765 1.7824 27.911" stroke="#8937C6" stroke-linecap="round"/>
<path d="M45 8.19207C48.1129 9.27136 54.1353 14.2984 53.3221 25.7722" stroke="#8937C6" stroke-linecap="round"/>
<defs>
<clipPath id="clip0_75_1503">
<rect width="26.6667" height="26.6667" fill="white" transform="translate(14.1028 16.0182)"/>
</clipPath>
</defs>
</svg>
