<svg width="16" height="16" viewBox="0 0 16 16" fill="none" xmlns="http://www.w3.org/2000/svg">
<g clip-path="url(#clip0_853_143)">
<path d="M14.0716 3.5H4.4375C3.375 3.5 2.5 4.35969 2.5 5.41656V13.0834C2.5 14.1403 3.375 15 4.4375 15H14.0625C15.125 15 16 14.1819 16 13.125V5.41656C16 4.35969 15.135 3.5 14.0716 3.5V3.5ZM11.6606 5.41687C11.9446 5.4186 12.2216 5.50438 12.4569 5.66338C12.6921 5.82238 12.875 6.04749 12.9824 6.3103C13.0899 6.57312 13.1171 6.86187 13.0607 7.14014C13.0042 7.41841 12.8666 7.67373 12.6653 7.87389C12.4639 8.07406 12.2077 8.2101 11.9291 8.26486C11.6505 8.31962 11.3619 8.29065 11.0998 8.18159C10.8376 8.07254 10.6136 7.88829 10.456 7.65209C10.2985 7.41589 10.2144 7.13831 10.2144 6.85437C10.2159 6.47204 10.369 6.10591 10.6401 5.83635C10.9113 5.56679 11.2783 5.41581 11.6606 5.41656V5.41687ZM4.42469 14.0419C3.89344 14.0419 3.49156 13.6122 3.49156 13.0837V11.0578L6.31844 8.53312C6.59479 8.29003 6.95304 8.16076 7.32095 8.17137C7.68885 8.18199 8.03905 8.33169 8.30094 8.59031L10.2584 10.5312L6.72719 14.0416L4.42469 14.0419ZM15 13.0834C15 13.2094 14.9751 13.3341 14.9268 13.4504C14.8786 13.5667 14.8079 13.6724 14.7187 13.7614C14.6296 13.8504 14.5238 13.9209 14.4074 13.969C14.291 14.0171 14.1663 14.0417 14.0403 14.0416H8.09375L11.7525 10.4062C12.0121 10.1872 12.3407 10.0667 12.6803 10.0657C13.02 10.0648 13.3492 10.1836 13.61 10.4012L15 11.5809V13.0834Z" fill="#8937C7"/>
<path d="M12 1H2C1.46957 1 0.960859 1.21071 0.585786 1.58579C0.210714 1.96086 0 2.46957 0 3L0 11C0.000365787 11.4434 0.147825 11.8742 0.419271 12.2248C0.690718 12.5754 1.07081 12.8261 1.5 12.9375V4.75C1.5 4.15326 1.73705 3.58097 2.15901 3.15901C2.58097 2.73705 3.15326 2.5 3.75 2.5H13.9375C13.8261 2.07081 13.5754 1.69072 13.2248 1.41927C12.8742 1.14782 12.4434 1.00037 12 1Z" fill="#8937C7"/>
</g>
<defs>
<clipPath id="clip0_853_143">
<rect width="16" height="16" fill="white"/>
</clipPath>
</defs>
</svg>
