<svg width="16" height="16" viewBox="0 0 16 16" fill="none" xmlns="http://www.w3.org/2000/svg">
<path d="M9.83366 10.6667V11.1667H9.33366H6.66699H6.16699V10.6667V10.5H2.50033V12.6667C2.50033 13.1305 2.8698 13.5 3.33366 13.5H12.667C13.1307 13.5 13.5 13.1308 13.5003 12.6672C13.5003 12.667 13.5003 12.6668 13.5003 12.6667L13.4949 10.5H9.83366V10.6667ZM5.84033 4.66667V5.16667H5.34033H2.66699C2.2098 5.16667 1.83366 5.54281 1.83366 6V8C1.83366 8.45719 2.2098 8.83333 2.66699 8.83333H6.16699V8V7.5H6.66699H9.33366H9.83366V8V8.83333H13.3337C13.7975 8.83333 14.167 8.46386 14.167 8V6C14.167 5.54281 13.7908 5.16667 13.3337 5.16667H10.6737H10.1737V4.66667V3.54044L9.83366 3.20044V3.33333V4.66667V5.16667H9.33366H6.66699H6.16699V4.66667V3.33333V3.21377L5.84033 3.54044V4.66667ZM9.33366 2.83333H9.46655L9.13322 2.5H6.88077L6.54743 2.83333H6.66699H9.33366Z" fill="#FEF6EF" stroke="#8937C7"/>
</svg>
