<svg width="14" height="12" viewBox="0 0 14 12" fill="none" xmlns="http://www.w3.org/2000/svg">
<path d="M8.83366 8.66667V9.16667H8.33366H5.66699H5.16699V8.66667V8.5H1.50033V10.6667C1.50033 11.1305 1.8698 11.5 2.33366 11.5H11.667C12.1307 11.5 12.5 11.1308 12.5003 10.6672C12.5003 10.667 12.5003 10.6668 12.5003 10.6667L12.4949 8.5H8.83366V8.66667ZM4.84033 2.66667V3.16667H4.34033H1.66699C1.2098 3.16667 0.833658 3.54281 0.833658 4V6C0.833658 6.45719 1.2098 6.83333 1.66699 6.83333H5.16699V6V5.5H5.66699H8.33366H8.83366V6V6.83333H12.3337C12.7975 6.83333 13.167 6.46386 13.167 6V4C13.167 3.54281 12.7908 3.16667 12.3337 3.16667H9.67366H9.17366V2.66667V1.54044L8.83366 1.20044V1.33333V2.66667V3.16667H8.33366H5.66699H5.16699V2.66667V1.33333V1.21377L4.84033 1.54044V2.66667ZM8.33366 0.833333H8.46655L8.13322 0.5H5.88077L5.54743 0.833333H5.66699H8.33366Z" fill="#FEF6EF" stroke="#ED8D34"/>
</svg>
