<svg width="16" height="16" viewBox="0 0 16 16" fill="none" xmlns="http://www.w3.org/2000/svg">
<path d="M12.6663 8.00016C12.6663 8.74016 13.2597 9.3335 13.9997 9.3335C14.2634 9.3335 14.5212 9.2553 14.7404 9.10879C14.9597 8.96228 15.1306 8.75404 15.2315 8.51041C15.3324 8.26677 15.3588 7.99868 15.3074 7.74004C15.2559 7.4814 15.129 7.24382 14.9425 7.05735C14.756 6.87088 14.5184 6.7439 14.2598 6.69245C14.0012 6.641 13.7331 6.66741 13.4894 6.76832C13.2458 6.86924 13.0376 7.04014 12.891 7.2594C12.7445 7.47867 12.6663 7.73645 12.6663 8.00016ZM13.333 1.3335V5.3335H14.6663V1.3335H13.333ZM14.6663 14.6668V10.6668H13.333V14.6668H14.6663ZM-0.000324249 4.00016V12.0002C-0.000324249 12.7402 0.593009 13.3335 1.33301 13.3335H9.33301C9.68663 13.3335 10.0258 13.193 10.2758 12.943C10.5259 12.6929 10.6663 12.3538 10.6663 12.0002V9.3335L11.9997 8.00016L10.6663 6.66683V4.00016C10.6663 3.64654 10.5259 3.3074 10.2758 3.05735C10.0258 2.80731 9.68663 2.66683 9.33301 2.66683H1.33301C0.593009 2.66683 -0.000324249 3.26016 -0.000324249 4.00016ZM1.33301 4.00016H9.33301V7.22016L10.113 8.00016L9.33301 8.78016V12.0002H1.33301V4.00016ZM4.99967 10.3335V11.3335H5.99967V10.3335H4.99967ZM6.33301 7.00016H7.33301V6.66683C7.33301 5.56016 6.43967 4.66683 5.33301 4.66683C4.22634 4.66683 3.33301 5.56016 3.33301 6.66683C3.33301 7.3135 3.66634 7.92016 4.19301 8.2735L4.39301 8.40016C4.77301 8.66683 4.99967 9.08016 4.99967 9.5335V9.66683H5.99967V9.5335C5.99967 8.74016 5.59967 8.00016 4.93967 7.56683L4.74634 7.44016C4.48634 7.26683 4.33301 6.98016 4.33301 6.66683C4.33301 6.12016 4.77967 5.66683 5.33301 5.66683C5.88634 5.66683 6.33301 6.1135 6.33301 6.66683V7.00016Z" fill="#ED8D34"/>
</svg>
