<svg width="16" height="16" viewBox="0 0 16 16" fill="none" xmlns="http://www.w3.org/2000/svg">
<path fill-rule="evenodd" clip-rule="evenodd" d="M8.10535 2.0649C8.07447 2.05496 8.04124 2.05496 8.01035 2.0649L2.90035 3.7249C2.86907 3.73438 2.84158 3.75351 2.82183 3.77955C2.80207 3.8056 2.79105 3.83722 2.79035 3.8699V6.9999C2.79035 10.3799 4.82535 12.8749 8.01535 14.0799C8.04282 14.0898 8.07289 14.0898 8.10035 14.0799C11.2904 12.8749 13.3254 10.3799 13.3254 6.9999V3.8699C13.3246 3.83722 13.3136 3.8056 13.2939 3.77955C13.2741 3.75351 13.2466 3.73438 13.2154 3.7249L8.10535 2.0649ZM7.72535 1.1799C7.9415 1.10996 8.1742 1.10996 8.39035 1.1799L13.5004 2.8399C13.718 2.91055 13.9078 3.04822 14.0425 3.23322C14.1772 3.41821 14.2499 3.64106 14.2504 3.8699V6.9999C14.2504 10.8349 11.9154 13.6299 8.42535 14.9499C8.18429 15.0349 7.92141 15.0349 7.68035 14.9499C4.20035 13.6149 1.86035 10.8199 1.86035 6.9999V3.8699C1.86077 3.64106 1.93354 3.41821 2.06824 3.23322C2.20294 3.04822 2.39269 2.91055 2.61035 2.8399L7.72535 1.1799ZM8.67535 8.0549C8.86144 7.94806 9.01649 7.79458 9.1252 7.60959C9.23392 7.42459 9.29257 7.21446 9.29535 6.9999C9.30611 6.83077 9.28208 6.66124 9.22476 6.50176C9.16743 6.34228 9.07803 6.19624 8.96206 6.07267C8.84609 5.94909 8.70603 5.8506 8.55051 5.78327C8.39499 5.71594 8.22732 5.6812 8.05785 5.6812C7.88838 5.6812 7.72071 5.71594 7.5652 5.78327C7.40968 5.8506 7.26961 5.94909 7.15364 6.07267C7.03768 6.19624 6.94827 6.34228 6.89095 6.50176C6.83362 6.66124 6.8096 6.83077 6.82035 6.9999C6.82052 7.21701 6.87793 7.43024 6.98678 7.61809C7.09563 7.80594 7.25208 7.96178 7.44035 8.0699V9.7849C7.43263 9.87066 7.44285 9.95709 7.47037 10.0387C7.49789 10.1203 7.54211 10.1952 7.6002 10.2588C7.6583 10.3224 7.72899 10.3731 7.80779 10.4079C7.88658 10.4426 7.97174 10.4605 8.05785 10.4605C8.14396 10.4605 8.22913 10.4426 8.30792 10.4079C8.38671 10.3731 8.45741 10.3224 8.5155 10.2588C8.57359 10.1952 8.61781 10.1203 8.64533 10.0387C8.67285 9.95709 8.68308 9.87066 8.67535 9.7849V8.0549Z" fill="#ED8D34"/>
</svg>
