<svg width="16" height="16" viewBox="0 0 16 16" fill="none" xmlns="http://www.w3.org/2000/svg">
<path d="M10 2C9.50555 2 9.0222 2.14662 8.61107 2.42133C8.19995 2.69603 7.87952 3.08648 7.6903 3.54329C7.50108 4.00011 7.45157 4.50277 7.54804 4.98773C7.6445 5.47268 7.8826 5.91814 8.23223 6.26777C8.58186 6.6174 9.02732 6.8555 9.51227 6.95196C9.99723 7.04843 10.4999 6.99892 10.9567 6.8097C11.4135 6.62048 11.804 6.30005 12.0787 5.88893C12.3534 5.4778 12.5 4.99445 12.5 4.5C12.5 3.83696 12.2366 3.20107 11.7678 2.73223C11.2989 2.26339 10.663 2 10 2ZM10 1C10.6922 1 11.3689 1.20527 11.9445 1.58986C12.5201 1.97444 12.9687 2.52107 13.2336 3.16061C13.4985 3.80015 13.5678 4.50388 13.4327 5.18282C13.2977 5.86175 12.9644 6.48539 12.4749 6.97487C11.9854 7.46436 11.3617 7.7977 10.6828 7.93275C10.0039 8.0678 9.30015 7.99849 8.66061 7.73358C8.02107 7.46867 7.47444 7.02007 7.08986 6.4445C6.70527 5.86892 6.5 5.19223 6.5 4.5C6.5 3.57174 6.86875 2.6815 7.52513 2.02513C8.1815 1.36875 9.07174 1 10 1ZM5 15H6V12.5C6 11.837 6.26339 11.2011 6.73223 10.7322C7.20107 10.2634 7.83696 10 8.5 10H11.5C12.163 10 12.7989 10.2634 13.2678 10.7322C13.7366 11.2011 14 11.837 14 12.5V15H15V12.5C15 11.5717 14.6313 10.6815 13.9749 10.0251C13.3185 9.36875 12.4283 9 11.5 9H8.5C7.57174 9 6.6815 9.36875 6.02513 10.0251C5.36875 10.6815 5 11.5717 5 12.5V15ZM5 2H0V3H5V2ZM5 4.5H0V5.5H5V4.5ZM5 7H1.5V8H5V7Z" fill="#8937C7"/>
</svg>
