<svg width="16" height="16" viewBox="0 0 16 16" fill="none" xmlns="http://www.w3.org/2000/svg">
<path d="M2.5 11V8.5C2.50027 8.23486 2.60571 7.98066 2.79319 7.79319C2.98066 7.60571 3.23487 7.50026 3.5 7.5H7.5V5H6C5.73487 4.99974 5.48066 4.89429 5.29319 4.70681C5.10571 4.51934 5.00027 4.26514 5 4V2C5.00027 1.73486 5.10571 1.48066 5.29319 1.29319C5.48066 1.10571 5.73487 1.00026 6 1H10C10.2651 1.00026 10.5193 1.10571 10.7068 1.29319C10.8943 1.48066 10.9997 1.73486 11 2V4C10.9997 4.26514 10.8943 4.51934 10.7068 4.70681C10.5193 4.89429 10.2651 4.99974 10 5H8.5V7.5H12.5C12.7651 7.50026 13.0193 7.60571 13.2068 7.79319C13.3943 7.98066 13.4997 8.23486 13.5 8.5V11H15V15H11V11H12.5V8.5H8.5V11H10V15H6V11H7.5V8.5H3.5V11H5V15H1V11H2.5ZM10 2H6V4H10V2ZM12 14H14V12H12V14ZM7 14H9V12H7V14ZM2 14H4V12H2V14Z" fill="#8937C7"/>
</svg>
