<svg width="16" height="16" viewBox="0 0 16 16" fill="none" xmlns="http://www.w3.org/2000/svg">
<path d="M7.9553 4.88867C9.68863 4.88867 11.0664 6.26645 11.0664 7.99978C11.0664 9.73312 9.68863 11.1109 7.9553 11.1109C6.22196 11.1109 4.84418 9.73312 4.84418 7.99978C4.84418 6.26645 6.22196 4.88867 7.9553 4.88867ZM7.9553 10.222C9.19974 10.222 10.1775 9.24423 10.1775 7.99978C10.1775 6.75534 9.19974 5.77756 7.9553 5.77756C6.71085 5.77756 5.73307 6.75534 5.73307 7.99978C5.73307 9.24423 6.71085 10.222 7.9553 10.222Z" fill="#ED8D34"/>
<path d="M1.42244 6.53312L2.66689 6.13312L2.93355 5.46645L2.31133 4.31089C2.178 4.04423 2.22244 3.68867 2.44466 3.46645L3.51133 2.39978C3.73355 2.17756 4.08911 2.13312 4.35577 2.26645L5.51133 2.88867L6.178 2.622L6.578 1.37756C6.66688 1.11089 6.93355 0.888672 7.24466 0.888672H8.75577C9.06688 0.888672 9.33355 1.11089 9.378 1.42201L9.778 2.66645C10.0447 2.71089 10.2669 2.79978 10.4891 2.93312L11.6447 2.31089C11.9113 2.17756 12.2669 2.22201 12.4891 2.44423L13.5558 3.51089C13.778 3.73312 13.8224 4.08867 13.6891 4.35534L13.1113 5.46645C13.2002 5.68867 13.2891 5.95534 13.378 6.17756L14.6224 6.57756C14.8891 6.66645 15.1113 6.93312 15.1113 7.24423V8.75534C15.1113 9.06645 14.8891 9.33312 14.578 9.422L13.3336 9.822L13.0669 10.4887L13.6891 11.6442C13.8224 11.9109 13.778 12.2664 13.5558 12.4887L12.4891 13.5553C12.2669 13.7776 11.9113 13.822 11.6447 13.6887L10.4891 13.0664L9.82244 13.3331L9.42244 14.622C9.33355 14.8887 9.06688 15.1109 8.75577 15.1109H7.24466C6.93355 15.1109 6.66688 14.8887 6.578 14.622L6.178 13.3331L5.51133 13.0664L4.35577 13.6887C4.08911 13.822 3.73355 13.7776 3.51133 13.5553L2.44466 12.4887C2.22244 12.2664 2.178 11.9109 2.31133 11.6442L2.93355 10.4887L2.66689 9.822L1.378 9.422C1.11133 9.33312 0.889108 9.06645 0.889108 8.75534V7.24423C0.889108 6.93312 1.11133 6.622 1.42244 6.53312ZM1.778 8.622L3.378 9.11089L3.42244 9.33312L3.82244 10.2664L3.95577 10.4887L3.15577 11.9553L4.04466 12.8442L5.51133 12.0442L5.73355 12.1776C6.04466 12.3553 6.35577 12.4887 6.66688 12.5776L6.88911 12.622L7.378 14.222H8.62244L9.11133 12.622L9.33355 12.5776L10.2669 12.1776L10.4891 12.0442L11.9558 12.8442L12.8447 11.9553L12.0447 10.4887L12.178 10.2664C12.3558 9.95534 12.4891 9.64423 12.578 9.33312L12.6224 9.11089L14.2224 8.622V7.37756L12.7113 6.93312L12.6224 6.71089C12.5336 6.35534 12.4002 6.04423 12.2224 5.73312L12.0891 5.51089L12.8447 4.04423L11.9558 3.15534L10.5336 3.95534L10.3113 3.82201C10.0002 3.64423 9.68911 3.51089 9.33355 3.422L9.11133 3.33312L8.62244 1.77756H7.378L6.88911 3.33312L6.66688 3.422C6.35577 3.51089 6.04466 3.64423 5.73355 3.82201L5.51133 3.95534L4.04466 3.15534L3.15577 4.04423L3.95577 5.51089L3.82244 5.73312C3.64466 6.04423 3.51133 6.35534 3.42244 6.66645L3.378 6.88867L1.778 7.37756V8.622Z" fill="#ED8D34"/>
</svg>
