<svg width="16" height="16" viewBox="0 0 16 16" fill="none" xmlns="http://www.w3.org/2000/svg">
<path d="M10.7998 8.0001C10.9059 8.0001 11.0076 8.04224 11.0826 8.11725C11.1577 8.19227 11.1998 8.29401 11.1998 8.4001C11.1998 8.50618 11.1577 8.60793 11.0826 8.68294C11.0076 8.75795 10.9059 8.8001 10.7998 8.8001C10.6937 8.8001 10.592 8.75795 10.517 8.68294C10.4419 8.60793 10.3998 8.50618 10.3998 8.4001C10.3998 8.29401 10.4419 8.19227 10.517 8.11725C10.592 8.04224 10.6937 8.0001 10.7998 8.0001ZM11.1998 10.0001C11.1998 9.89401 11.1577 9.79227 11.0826 9.71725C11.0076 9.64224 10.9059 9.6001 10.7998 9.6001C10.6937 9.6001 10.592 9.64224 10.517 9.71725C10.4419 9.79227 10.3998 9.89401 10.3998 10.0001C10.3998 10.1062 10.4419 10.2079 10.517 10.2829C10.592 10.358 10.6937 10.4001 10.7998 10.4001C10.9059 10.4001 11.0076 10.358 11.0826 10.2829C11.1577 10.2079 11.1998 10.1062 11.1998 10.0001ZM9.5998 8.4001C9.5998 8.29401 9.55766 8.19227 9.48265 8.11725C9.40763 8.04224 9.30589 8.0001 9.1998 8.0001H5.9998C5.89372 8.0001 5.79198 8.04224 5.71696 8.11725C5.64195 8.19227 5.5998 8.29401 5.5998 8.4001C5.5998 8.50618 5.64195 8.60793 5.71696 8.68294C5.79198 8.75795 5.89372 8.8001 5.9998 8.8001H9.1998C9.30589 8.8001 9.40763 8.75795 9.48265 8.68294C9.55766 8.60793 9.5998 8.50618 9.5998 8.4001ZM9.1998 9.6001C9.30589 9.6001 9.40763 9.64224 9.48265 9.71725C9.55766 9.79227 9.5998 9.89401 9.5998 10.0001C9.5998 10.1062 9.55766 10.2079 9.48265 10.2829C9.40763 10.358 9.30589 10.4001 9.1998 10.4001H5.9998C5.89372 10.4001 5.79198 10.358 5.71696 10.2829C5.64195 10.2079 5.5998 10.1062 5.5998 10.0001C5.5998 9.89401 5.64195 9.79227 5.71696 9.71725C5.79198 9.64224 5.89372 9.6001 5.9998 9.6001H9.1998ZM11.1998 1.6001C11.6242 1.6001 12.0311 1.76867 12.3312 2.06873C12.6312 2.36878 12.7998 2.77575 12.7998 3.2001V11.2001C12.7998 11.6244 12.6312 12.0314 12.3312 12.3315C12.0311 12.6315 11.6242 12.8001 11.1998 12.8001H5.5998C5.17546 12.8001 4.76849 12.6315 4.46843 12.3315C4.16838 12.0314 3.99981 11.6244 3.99981 11.2001V5.9313C4.00008 5.61314 4.1267 5.30813 4.3518 5.0833L7.48301 1.9513C7.70796 1.72648 8.01297 1.60017 8.331 1.6001H11.1998ZM11.9998 3.2001C11.9998 2.98792 11.9155 2.78444 11.7655 2.63441C11.6155 2.48438 11.412 2.4001 11.1998 2.4001H8.7998V5.2001C8.7998 5.51836 8.67338 5.82358 8.44833 6.04863C8.22329 6.27367 7.91806 6.4001 7.5998 6.4001H4.79981V11.2001C4.79981 11.4123 4.88409 11.6158 5.03412 11.7658C5.18415 11.9158 5.38763 12.0001 5.5998 12.0001H11.1998C11.412 12.0001 11.6155 11.9158 11.7655 11.7658C11.9155 11.6158 11.9998 11.4123 11.9998 11.2001V3.2001ZM7.9998 5.2001V2.5657L4.9654 5.6001H7.5998C7.70589 5.6001 7.80763 5.55795 7.88265 5.48294C7.95766 5.40793 7.9998 5.30618 7.9998 5.2001ZM3.19981 6.4001C2.98763 6.4001 2.78415 6.48438 2.63412 6.63441C2.48409 6.78444 2.39981 6.98792 2.39981 7.2001V11.2481C2.39981 11.662 2.48133 12.0719 2.63974 12.4543C2.79814 12.8367 3.03031 13.1842 3.323 13.4769C3.61569 13.7696 3.96317 14.0018 4.34559 14.1602C4.72801 14.3186 5.13788 14.4001 5.55181 14.4001H10.3998C10.612 14.4001 10.8155 14.3158 10.9655 14.1658C11.1155 14.0158 11.1998 13.8123 11.1998 13.6001H5.5998C4.96329 13.6001 4.35284 13.3472 3.90275 12.8972C3.45266 12.4471 3.19981 11.8366 3.19981 11.2001V6.4001Z" fill="#ED8D34"/>
</svg>
