<svg width="265" height="223" viewBox="0 0 265 223" fill="none" xmlns="http://www.w3.org/2000/svg">
<g opacity="0.75">
<path d="M41.2911 202.352C92.3969 229.051 175.259 229.051 226.371 202.352C277.483 175.652 277.477 132.366 226.371 105.667C175.265 78.967 92.3969 78.9609 41.285 105.667C-9.82692 132.373 -9.82082 175.652 41.2911 202.352Z" fill="#FAFAFA"/>
<path d="M176.595 207.256C186.928 207.256 195.304 203.264 195.304 198.338C195.304 193.413 186.928 189.42 176.595 189.42C166.263 189.42 157.887 193.413 157.887 198.338C157.887 203.264 166.263 207.256 176.595 207.256Z" fill="#F0F0F0"/>
<path d="M30.2988 44.1178V74.8008C30.2988 75.8073 31.0064 76.2221 31.8848 75.7158L103.121 34.5835C103.582 34.2823 103.965 33.8769 104.241 33.4001C104.516 32.9232 104.676 32.3884 104.707 31.8385V1.13112C104.707 0.124621 103.993 -0.290179 103.121 0.216121L31.8848 41.3484C31.4196 41.651 31.0331 42.06 30.7573 42.5415C30.4815 43.0231 30.3244 43.5634 30.2988 44.1178Z" fill="#F0F0F0"/>
<path d="M35.2583 43.6359L56.6083 31.3139C57.5904 30.7466 58.3773 31.2041 58.3773 32.3326V53.7863C58.3438 54.3982 58.1661 54.9935 57.8586 55.5235C57.5512 56.0536 57.1227 56.5035 56.6083 56.8363L35.2583 69.1644C34.2823 69.7256 33.4893 69.2681 33.4893 68.1396V46.6981C33.5223 46.0845 33.6997 45.4874 34.0071 44.9553C34.3145 44.4231 34.7432 43.9711 35.2583 43.6359Z" fill="#FAFAFA"/>
<path d="M52.5457 42.0195L46.1956 55.1833L42.9626 53.3167C42.6521 53.1469 42.2879 53.1042 41.9466 53.1975C41.6053 53.2908 41.3135 53.5128 41.1326 53.8169L33.4893 66.999V68.1519C33.4893 69.2804 34.2823 69.7379 35.2583 69.1767L56.6083 56.8486C57.1217 56.5147 57.5494 56.0646 57.8567 55.5347C58.164 55.0049 58.3423 54.4101 58.3773 53.7986V46.2529L54.1073 41.7755C54.0119 41.6422 53.8814 41.538 53.7302 41.4745C53.579 41.411 53.4132 41.3908 53.2512 41.4161C53.0893 41.4414 52.9375 41.5113 52.8129 41.6178C52.6883 41.7244 52.5958 41.8634 52.5457 42.0195Z" fill="#ED8D34"/>
<path d="M36.6979 51.4865C38.017 50.6261 39.1149 49.4669 39.9023 48.1029C40.6898 46.7389 41.1447 45.2085 41.2302 43.6358C41.2302 42.3121 40.8032 41.3544 40.1017 40.842L35.2583 43.6358C34.7448 43.9698 34.3171 44.4199 34.0098 44.9498C33.7025 45.4796 33.5242 46.0743 33.4893 46.6858V51.7915C34.325 52.2795 35.4474 52.2063 36.6979 51.4865Z" fill="#ED8D34"/>
<path d="M66.3442 27.6966L98.4241 9.17088C99.1561 8.74998 99.7478 9.04888 99.7478 9.84188C99.7156 10.2863 99.5789 10.7168 99.3489 11.0984C99.1189 11.48 98.802 11.8019 98.4241 12.0379L66.3442 30.5575C65.6122 30.9784 65.0205 30.6795 65.0205 29.8865C65.0537 29.4432 65.1908 29.0139 65.4207 28.6334C65.6507 28.2529 65.9671 27.932 66.3442 27.6966Z" fill="#FAFAFA"/>
<path d="M66.3442 34.0345L98.4241 15.5088C99.1561 15.0879 99.7478 15.3868 99.7478 16.1798C99.7156 16.6242 99.5789 17.0547 99.3489 17.4363C99.1189 17.8179 98.802 18.1398 98.4241 18.3758L66.3442 36.8954C65.6122 37.3163 65.0205 37.0174 65.0205 36.2305C65.0527 35.7861 65.1894 35.3556 65.4194 34.974C65.6494 34.5924 65.9663 34.2705 66.3442 34.0345Z" fill="#FAFAFA"/>
<path d="M66.3442 40.3723L98.4241 21.8527C99.1561 21.4318 99.7478 21.7307 99.7478 22.5176C99.7156 22.962 99.5789 23.3925 99.3489 23.7741C99.1189 24.1557 98.802 24.4776 98.4241 24.7136L66.3442 43.2332C65.6122 43.6602 65.0205 43.3613 65.0205 42.5683C65.0527 42.1239 65.1894 41.6934 65.4194 41.3118C65.6494 40.9302 65.9663 40.6083 66.3442 40.3723Z" fill="#FAFAFA"/>
<path d="M66.3442 46.7103L98.4241 28.1907C99.1561 27.7698 99.7478 28.0687 99.7478 28.8617C99.7146 29.305 99.5775 29.7343 99.3476 30.1147C99.1176 30.4952 98.8012 30.8161 98.4241 31.0516L66.3442 49.6078C65.6122 50.0287 65.0205 49.7298 65.0205 48.9368C65.048 48.4871 65.1825 48.0505 65.4127 47.6632C65.6429 47.2759 65.9623 46.9492 66.3442 46.7103Z" fill="#FAFAFA"/>
<path d="M15.415 140.656V95.6323C15.4444 95.0821 15.6033 94.5467 15.8789 94.0696C16.1546 93.5926 16.539 93.1874 17.001 92.8873L70.8762 61.7773C71.7485 61.271 72.4622 61.6797 72.4622 62.6923V107.716C72.4315 108.266 72.2719 108.801 71.9964 109.278C71.7209 109.755 71.3372 110.16 70.8762 110.461L17.001 141.571C16.1226 142.078 15.415 141.669 15.415 140.656Z" fill="#F0F0F0"/>
<path d="M15.415 138.406V140.656C15.415 141.669 16.1226 142.078 17.001 141.571L70.8762 110.461C71.3372 110.16 71.7209 109.755 71.9964 109.278C72.2719 108.801 72.4315 108.266 72.4622 107.716V105.459L15.415 138.406Z" fill="#ED8D34"/>
<path d="M41.4805 97.5721L46.9705 97.2854C47.6415 97.2488 47.8245 97.627 47.3792 98.1394L41.0718 105.313C40.6265 105.819 40.2666 105.679 40.2666 105.008V98.8592C40.269 98.531 40.3955 98.2159 40.6206 97.9771C40.8458 97.7384 41.153 97.5937 41.4805 97.5721Z" fill="#ED8D34"/>
<path d="M40.0651 109.247C39.4072 109.256 38.7588 109.09 38.1863 108.766C36.8321 107.979 36.0879 106.326 36.0879 104.166C36.0879 99.762 39.1928 94.4062 43.0114 92.1797C44.8963 91.0878 46.6714 90.9231 48.0378 91.7039C49.4042 92.4847 50.1423 94.1439 50.1423 96.2972C50.1423 100.707 47.0313 106.057 43.2188 108.284C42.2698 108.875 41.1825 109.207 40.0651 109.247ZM46.1651 91.6368C45.1225 91.678 44.1088 91.9913 43.2249 92.5457C39.5222 94.6807 36.5149 99.8962 36.5149 104.166C36.5149 106.191 37.1859 107.698 38.4059 108.4C39.6259 109.101 41.2607 108.936 43.0114 107.924C46.7141 105.783 49.7214 100.604 49.7214 96.2972C49.7214 94.272 49.0504 92.7714 47.8304 92.0638C47.32 91.7782 46.7438 91.631 46.159 91.6368H46.1651Z" fill="#ED8D34"/>
<path d="M18.3854 53.7924L15.0487 51.877C13.4566 50.8095 11.2423 50.8522 8.7962 52.2674C3.9162 55.0734 0 62.192 0 68.17V69.5304C0 75.5084 8.0398 81.9988 8.0398 81.9988L11.3216 83.8592C11.3216 83.8592 9.3513 81.6084 9.577 81.1448C11.7547 76.7283 17.5802 64.2478 17.5802 59.3678V58.0075C17.5926 57.0229 17.4673 56.0415 17.2081 55.0917L17.5802 55.3051L18.3854 53.7924ZM8.7901 67.4991C6.3501 68.9021 4.392 67.7613 4.392 64.9614C5.6974 64.754 8.9853 59.142 8.7901 57.3425C11.2301 55.9395 13.1821 57.0802 13.1882 59.8801C13.1055 61.4064 12.6642 62.8917 11.9001 64.2154C11.1359 65.5392 10.0704 66.6642 8.7901 67.4991Z" fill="#ED8D34"/>
<g opacity="0.2">
<path opacity="0.2" d="M18.3854 53.7924L15.0487 51.877C13.4566 50.8095 11.2423 50.8522 8.7962 52.2674C3.9162 55.0734 0 62.192 0 68.17V69.5304C0 75.5084 8.0398 81.9988 8.0398 81.9988L11.3216 83.8592C11.3216 83.8592 9.3513 81.6084 9.577 81.1448C11.7547 76.7283 17.5802 64.2478 17.5802 59.3678V58.0075C17.5926 57.0229 17.4673 56.0415 17.2081 55.0917L17.5802 55.3051L18.3854 53.7924ZM8.7901 67.4991C6.3501 68.9021 4.392 67.7613 4.392 64.9614C5.6974 64.754 8.9853 59.142 8.7901 57.3425C11.2301 55.9395 13.1821 57.0802 13.1882 59.8801C13.1055 61.4064 12.6642 62.8917 11.9001 64.2154C11.1359 65.5392 10.0704 66.6642 8.7901 67.4991Z" fill="black"/>
</g>
<path d="M18.3852 53.7924C18.3488 53.7665 18.31 53.7441 18.2693 53.7253C16.7016 52.8469 14.6093 52.9689 12.3035 54.2987C8.82652 56.3117 5.81922 60.5268 4.37352 64.9615C3.81446 66.6488 3.51819 68.4119 3.49512 70.1892V71.5678C3.49512 76.1733 8.71062 81.5169 11.1079 83.7312C11.1598 83.7777 11.2148 83.8205 11.2726 83.8593C11.4136 83.9457 11.5711 84.0015 11.7349 84.0233C11.8988 84.0451 12.0654 84.0323 12.224 83.9857C12.3826 83.9392 12.5297 83.8599 12.6558 83.753C12.782 83.6462 12.8843 83.5141 12.9562 83.3652C15.0302 79.0952 21.0631 66.3584 21.0631 61.4052V60.0449C21.0997 56.9705 20.0566 54.7989 18.3852 53.7924ZM7.98472 67.8712C7.93407 67.5812 7.90957 67.2872 7.91152 66.9928C7.99208 65.466 8.43181 63.9796 9.19497 62.6547C9.95813 61.3298 11.0232 60.2036 12.3035 59.3678C12.5593 59.2205 12.8265 59.094 13.1026 58.9896C15.1522 58.2454 16.7016 59.4227 16.7016 61.9054C16.6195 63.431 16.1783 64.9156 15.4141 66.2384C14.6498 67.5613 13.5841 68.685 12.3035 69.5182C10.1502 70.7748 8.35682 70.0184 7.98472 67.8712Z" fill="#ED8D34"/>
<path d="M16.7023 61.9116C16.6201 63.4371 16.1789 64.9217 15.4147 66.2446C14.6505 67.5674 13.5847 68.6912 12.3042 69.5244C10.1509 70.7444 8.35745 70.0185 7.98535 67.8713C8.26487 67.7729 8.53447 67.6483 8.79055 67.4992C10.0701 66.664 11.1346 65.5388 11.8978 64.215C12.6609 62.8912 13.101 61.4061 13.1826 59.8803C13.1853 59.5835 13.1588 59.2873 13.1033 58.9958C15.1529 58.2516 16.7023 59.4289 16.7023 61.9116Z" fill="#ED8D34"/>
<g opacity="0.2">
<path opacity="0.2" d="M16.7023 61.9116C16.6201 63.4371 16.1789 64.9217 15.4147 66.2446C14.6505 67.5674 13.5847 68.6912 12.3042 69.5244C10.1509 70.7444 8.35745 70.0185 7.98535 67.8713C8.26487 67.7729 8.53447 67.6483 8.79055 67.4992C10.0701 66.664 11.1346 65.5388 11.8978 64.215C12.6609 62.8912 13.101 61.4061 13.1826 59.8803C13.1853 59.5835 13.1588 59.2873 13.1033 58.9958C15.1529 58.2516 16.7023 59.4289 16.7023 61.9116Z" fill="black"/>
</g>
<path d="M80.7954 137.649C80.7954 137.649 82.9975 123.619 78.1053 111.553C73.2131 99.4875 66.619 98.7433 63.203 100.457C59.787 102.172 61.983 108.863 65.033 113.359C69.0956 119.258 75.8056 131.958 75.586 143.365L80.7954 137.649Z" fill="#ED8D34"/>
<path opacity="0.2" d="M80.7954 137.649C80.7954 137.649 82.9975 123.619 78.1053 111.553C73.2131 99.4875 66.619 98.7433 63.203 100.457C59.787 102.172 61.983 108.863 65.033 113.359C69.0956 119.258 75.8056 131.958 75.586 143.365L80.7954 137.649Z" fill="black"/>
<path d="M78.599 138.54C78.5442 138.538 78.4903 138.526 78.4405 138.503C78.3907 138.48 78.346 138.448 78.309 138.407C78.272 138.367 78.2435 138.319 78.2252 138.268C78.2069 138.216 78.1992 138.161 78.2025 138.107C79.0077 118.898 69.4124 104.557 65.2705 101.763C65.2252 101.732 65.1864 101.693 65.1562 101.648C65.1261 101.603 65.1051 101.552 65.0947 101.498C65.0842 101.445 65.0843 101.389 65.0951 101.336C65.1059 101.283 65.1272 101.232 65.1576 101.186C65.1881 101.141 65.2271 101.102 65.2726 101.072C65.318 101.042 65.3689 101.021 65.4225 101.011C65.476 101 65.5311 101 65.5845 101.011C65.638 101.022 65.6888 101.043 65.7341 101.074C70.6141 104.331 79.8373 118.995 79.026 138.143C79.0244 138.198 79.0121 138.251 78.9897 138.3C78.9673 138.35 78.9353 138.394 78.8955 138.431C78.8558 138.468 78.8091 138.497 78.7582 138.515C78.7073 138.534 78.6531 138.542 78.599 138.54Z" fill="white"/>
<path d="M79.9287 154.308C79.093 152.21 76.9336 149.867 71.3887 147.366C65.8438 144.865 61.6714 141.529 60.9028 139.113C60.6715 138.446 60.6413 137.725 60.8159 137.041C60.9905 136.357 61.3622 135.739 61.8849 135.264C61.8849 135.264 56.6572 134.654 55.9984 131.451C55.1749 127.413 59.7438 127.151 59.7438 127.151C59.7438 127.151 53.7475 118.709 52.1554 114.951C50.5633 111.193 52.3994 110.968 56.2668 112.401C60.1342 113.835 67.503 121.051 68.6437 123.253C68.6437 123.253 70.6384 120.813 72.7856 122.417C74.9328 124.022 75.0365 128.822 73.7677 130.555C74.6234 130.395 75.5069 130.487 76.3113 130.82C77.1157 131.152 77.8065 131.711 78.3 132.427C80.4838 135.288 81.2036 142.444 81.2036 142.444L79.9287 154.308Z" fill="#ED8D34"/>
<path d="M80.3187 152.356C80.226 152.355 80.1363 152.323 80.0635 152.266C79.9907 152.209 79.9389 152.129 79.9161 152.039C76.9515 139.687 62.8788 119.971 54.1375 113.701C54.093 113.669 54.0552 113.629 54.0263 113.583C53.9973 113.536 53.9777 113.485 53.9687 113.431C53.9596 113.377 53.9612 113.322 53.9734 113.269C53.9857 113.216 54.0082 113.166 54.0399 113.121C54.0715 113.077 54.1116 113.039 54.1579 113.01C54.2041 112.981 54.2556 112.961 54.3094 112.952C54.3632 112.943 54.4183 112.945 54.4715 112.957C54.5247 112.969 54.5749 112.992 54.6194 113.024C63.4705 119.374 77.7201 139.339 80.7274 151.844C80.7513 151.951 80.7321 152.064 80.6739 152.158C80.6158 152.251 80.5233 152.318 80.4163 152.344L80.3187 152.356Z" fill="white"/>
<path d="M190.735 27.971C190.662 27.9701 190.591 27.9512 190.528 27.9161L188.813 26.9218C188.766 26.8945 188.725 26.8583 188.692 26.815C188.658 26.7718 188.634 26.7224 188.62 26.6697C188.606 26.617 188.602 26.5621 188.609 26.508C188.616 26.4539 188.634 26.4017 188.661 26.3545C188.688 26.3072 188.724 26.2658 188.768 26.2325C188.811 26.1993 188.86 26.1749 188.913 26.1607C188.966 26.1466 189.021 26.1429 189.075 26.15C189.129 26.1571 189.181 26.1747 189.228 26.202L190.942 27.1963C190.99 27.2234 191.031 27.2597 191.064 27.3029C191.098 27.3462 191.122 27.3956 191.136 27.4483C191.15 27.501 191.154 27.5559 191.147 27.61C191.14 27.6642 191.122 27.7163 191.095 27.7636C191.058 27.8267 191.006 27.8791 190.943 27.9156C190.88 27.952 190.808 27.9711 190.735 27.971Z" fill="white"/>
<path d="M79.9287 64.1379V154.894C79.9287 155.906 80.6363 156.315 81.5086 155.809L187.368 94.6928C187.829 94.3916 188.213 93.9862 188.488 93.5094C188.764 93.0325 188.923 92.4977 188.954 91.9478V1.19203C188.954 0.179431 188.24 -0.229269 187.368 0.277031L81.5086 61.3929C81.0481 61.6941 80.665 62.0997 80.3905 62.5766C80.1161 63.0535 79.9578 63.5884 79.9287 64.1379Z" fill="#455A64"/>
<path d="M92.3174 80.9006C92.3174 84.0665 94.6781 85.2621 97.6 83.5785L181.518 35.1262V23.6826L97.6 72.1288C94.6781 73.8185 92.3174 77.7408 92.3174 80.9006Z" fill="#F5F5F5"/>
<path d="M188.655 19.5774C191.571 17.8938 193.938 19.0894 193.938 22.2492C193.938 25.409 191.571 29.3374 188.655 31.021L181.549 35.1263V23.6827L188.655 19.5774Z" fill="#ED8D34"/>
<path d="M186.093 29.2215C185.789 29.2258 185.49 29.1478 185.227 28.9958C184.903 28.7788 184.643 28.4784 184.476 28.1263C184.308 27.7741 184.239 27.3832 184.275 26.995C184.319 26.0402 184.591 25.1099 185.069 24.282C185.546 23.4541 186.215 22.7528 187.02 22.237C187.327 21.9864 187.703 21.8353 188.098 21.8038C188.494 21.7723 188.889 21.8618 189.232 22.0604C189.575 22.2591 189.849 22.5575 190.019 22.9159C190.188 23.2744 190.244 23.6758 190.18 24.067C190.134 25.0214 189.862 25.9511 189.384 26.7788C188.907 27.6064 188.238 28.3079 187.435 28.825C187.03 29.0724 186.567 29.2091 186.093 29.2215ZM188.356 22.664C188.029 22.6801 187.711 22.781 187.435 22.9568C186.761 23.4043 186.2 24.0018 185.796 24.7024C185.392 25.403 185.155 26.1877 185.105 26.995C185.042 27.2379 185.06 27.4947 185.157 27.7262C185.254 27.9576 185.425 28.1507 185.642 28.2761C185.859 28.4014 186.112 28.4519 186.361 28.42C186.61 28.388 186.841 28.2753 187.02 28.0991C187.694 27.6522 188.256 27.0548 188.66 26.3541C189.065 25.6534 189.301 24.8684 189.35 24.0609C189.381 23.819 189.348 23.5731 189.254 23.3482C189.16 23.1232 189.008 22.9272 188.813 22.7799C188.674 22.7002 188.516 22.6601 188.356 22.664Z" fill="white"/>
<path d="M189.875 44.624L108.745 91.4354C108.283 91.7348 107.897 92.1398 107.622 92.617C107.346 93.0941 107.188 93.63 107.159 94.1804V119.148C107.159 120.16 107.867 120.569 108.745 120.063L189.875 73.233C190.337 72.9328 190.722 72.5276 190.997 72.0506C191.273 71.5736 191.432 71.0381 191.461 70.4879V45.539C191.431 44.5264 190.723 44.1177 189.875 44.624Z" fill="#ED8D34"/>
<path opacity="0.2" d="M189.875 44.624L108.745 91.4354C108.283 91.7348 107.897 92.1398 107.622 92.617C107.346 93.0941 107.188 93.63 107.159 94.1804V119.148C107.159 120.16 107.867 120.569 108.745 120.063L189.875 73.233C190.337 72.9328 190.722 72.5276 190.997 72.0506C191.273 71.5736 191.432 71.0381 191.461 70.4879V45.539C191.431 44.5264 190.723 44.1177 189.875 44.624Z" fill="white"/>
<path d="M138.239 78.5705L152.94 70.0793C153.672 69.6584 154.263 69.9573 154.263 70.7503C154.23 71.1937 154.093 71.6229 153.863 72.0034C153.633 72.3839 153.317 72.7048 152.94 72.9402L138.239 81.4314C137.507 81.8523 136.915 81.5534 136.915 80.7604C136.948 80.3171 137.085 79.8878 137.315 79.5074C137.545 79.1269 137.862 78.8059 138.239 78.5705Z" fill="white"/>
<path d="M136.915 86.4822C136.915 87.2752 137.525 87.5741 138.239 87.1532L182.677 61.4966C183.054 61.2595 183.369 60.9372 183.598 60.5557C183.827 60.1742 183.963 59.7443 183.995 59.3006C183.995 58.5137 183.385 58.2148 182.677 58.6357L138.239 84.2923C137.862 84.5277 137.545 84.8486 137.315 85.2291C137.085 85.6095 136.948 86.0388 136.915 86.4822Z" fill="white"/>
<path d="M136.915 92.2041C136.915 92.9971 137.525 93.296 138.239 92.8751L182.677 67.2185C183.054 66.9814 183.369 66.6591 183.598 66.2777C183.827 65.8962 183.963 65.4662 183.995 65.0225C183.995 64.2356 183.385 63.9367 182.677 64.3576L138.239 90.0142C137.862 90.2496 137.545 90.5705 137.315 90.951C137.085 91.3315 136.948 91.7608 136.915 92.2041Z" fill="white"/>
<path d="M136.915 97.9258C136.915 98.7188 137.525 99.0177 138.239 98.5968L182.677 72.9402C183.054 72.7031 183.369 72.3808 183.598 71.9993C183.827 71.6178 183.963 71.1879 183.995 70.7442C183.995 69.9573 183.385 69.6584 182.677 70.0793L138.239 95.7359C137.862 95.9713 137.545 96.2922 137.315 96.6727C137.085 97.0532 136.948 97.4824 136.915 97.9258Z" fill="white"/>
<path d="M111.246 92.8628L130.376 81.8157C131.254 81.3155 131.962 81.7242 131.962 82.7307V101.964C131.932 102.514 131.773 103.049 131.497 103.526C131.222 104.003 130.837 104.409 130.376 104.709L111.246 115.75C110.374 116.256 109.66 115.848 109.66 114.841V95.6078C109.689 95.0577 109.848 94.5222 110.124 94.0452C110.4 93.5681 110.784 93.163 111.246 92.8628Z" fill="white"/>
<path d="M126.74 91.417L121.049 103.214L118.151 101.543C117.871 101.382 117.539 101.338 117.227 101.421C116.914 101.505 116.648 101.709 116.486 101.988L109.66 113.804V114.835C109.66 115.848 110.374 116.256 111.246 115.75L130.376 104.709C130.838 104.409 131.222 104.004 131.498 103.527C131.773 103.05 131.932 102.514 131.962 101.964V95.2112L128.113 91.1974C128.025 91.0853 127.91 90.9987 127.778 90.9466C127.645 90.8945 127.502 90.8789 127.361 90.9013C127.221 90.9238 127.09 90.9835 126.98 91.0742C126.871 91.1649 126.788 91.2833 126.74 91.417Z" fill="#ED8D34"/>
<path d="M112.533 99.9022C113.716 99.1306 114.7 98.0912 115.406 96.8681C116.112 95.6451 116.519 94.2729 116.596 92.8628C116.636 92.3947 116.566 91.9236 116.39 91.4879C116.214 91.0523 115.938 90.6643 115.583 90.3557L111.246 92.8628C110.784 93.163 110.4 93.5681 110.124 94.0452C109.848 94.5222 109.689 95.0576 109.66 95.6078V100.183C110.398 100.61 111.411 100.549 112.533 99.9022Z" fill="#ED8D34"/>
<path d="M189.875 81.8158L108.745 128.627C108.283 128.927 107.899 129.332 107.623 129.81C107.347 130.287 107.188 130.822 107.159 131.372V156.358C107.159 157.364 107.867 157.773 108.745 157.273L189.875 110.431C190.337 110.131 190.722 109.726 190.997 109.249C191.273 108.771 191.432 108.236 191.461 107.686V82.7308C191.431 81.7243 190.723 81.3278 189.875 81.8158Z" fill="#ED8D34"/>
<path opacity="0.2" d="M189.875 81.8158L108.745 128.627C108.283 128.927 107.899 129.332 107.623 129.81C107.347 130.287 107.188 130.822 107.159 131.372V156.358C107.159 157.364 107.867 157.773 108.745 157.273L189.875 110.431C190.337 110.131 190.722 109.726 190.997 109.249C191.273 108.771 191.432 108.236 191.461 107.686V82.7308C191.431 81.7243 190.723 81.3278 189.875 81.8158Z" fill="white"/>
<path d="M138.239 115.762L152.94 107.277C153.672 106.856 154.263 107.155 154.263 107.942C154.231 108.386 154.095 108.817 153.865 109.198C153.635 109.58 153.318 109.902 152.94 110.138L138.239 118.623C137.507 119.044 136.915 118.745 136.915 117.958C136.947 117.514 137.084 117.083 137.314 116.702C137.544 116.32 137.861 115.998 138.239 115.762Z" fill="white"/>
<path d="M136.915 123.68C136.915 124.467 137.525 124.766 138.239 124.345L182.677 98.6883C183.053 98.4518 183.368 98.1305 183.597 97.7501C183.826 97.3698 183.962 96.941 183.995 96.4984C183.995 95.7054 183.385 95.4065 182.677 95.8274L138.239 121.484C137.861 121.72 137.544 122.042 137.314 122.423C137.084 122.805 136.947 123.236 136.915 123.68Z" fill="white"/>
<path d="M136.915 129.402C136.915 130.189 137.525 130.488 138.239 130.067L182.677 104.41C183.053 104.174 183.368 103.852 183.597 103.472C183.826 103.092 183.962 102.663 183.995 102.22C183.995 101.427 183.385 101.128 182.677 101.549L138.239 127.206C137.861 127.442 137.544 127.764 137.314 128.145C137.084 128.527 136.947 128.958 136.915 129.402Z" fill="white"/>
<path d="M136.915 135.124C136.915 135.91 137.525 136.209 138.239 135.788L182.677 110.132C183.053 109.895 183.368 109.574 183.597 109.194C183.826 108.813 183.962 108.385 183.995 107.942C183.995 107.149 183.385 106.85 182.677 107.271L138.239 132.928C137.861 133.164 137.544 133.486 137.314 133.867C137.084 134.249 136.947 134.679 136.915 135.124Z" fill="white"/>
<path d="M111.246 130.061L130.376 119.014C131.254 118.507 131.962 118.916 131.962 119.929V139.156C131.933 139.706 131.775 140.242 131.499 140.719C131.223 141.196 130.838 141.601 130.376 141.901L111.246 152.948C110.374 153.454 109.66 153.046 109.66 152.033V132.806C109.689 132.256 109.848 131.72 110.124 131.243C110.4 130.766 110.784 130.361 111.246 130.061Z" fill="white"/>
<path d="M126.74 128.615L121.049 140.412L118.151 138.735C118.012 138.655 117.859 138.604 117.7 138.583C117.541 138.563 117.38 138.574 117.225 138.616C117.071 138.658 116.926 138.73 116.799 138.828C116.672 138.925 116.566 139.047 116.486 139.186L109.66 151.002V152.033C109.66 153.046 110.374 153.454 111.246 152.948L130.376 141.901C130.838 141.602 131.222 141.198 131.498 140.722C131.773 140.246 131.932 139.711 131.962 139.162V132.403L128.113 128.395C128.027 128.281 127.911 128.193 127.779 128.14C127.646 128.086 127.501 128.07 127.36 128.093C127.219 128.115 127.087 128.176 126.978 128.268C126.869 128.36 126.786 128.48 126.74 128.615Z" fill="#ED8D34"/>
<path d="M112.533 137.094C113.716 136.324 114.7 135.285 115.406 134.063C116.112 132.841 116.519 131.47 116.596 130.061C116.636 129.592 116.566 129.121 116.39 128.686C116.214 128.25 115.938 127.862 115.583 127.553L111.246 130.061C110.784 130.361 110.4 130.766 110.124 131.243C109.848 131.72 109.689 132.255 109.66 132.806V137.381C110.398 137.801 111.411 137.74 112.533 137.094Z" fill="#ED8D34"/>
<path d="M188.954 5.07773V1.19203C188.954 0.179431 188.24 -0.229269 187.368 0.277031L81.5147 61.3929C81.0527 61.6931 80.6682 62.0982 80.3926 62.5753C80.117 63.0523 79.958 63.5878 79.9287 64.1379V68.0297L188.954 5.07773Z" fill="#ED8D34"/>
<path d="M175.967 8.34727C175.626 8.57134 175.342 8.87248 175.139 9.22638C174.935 9.58028 174.818 9.97704 174.796 10.3847C174.796 11.135 175.321 11.44 175.967 11.0618C176.31 10.8408 176.596 10.5413 176.801 10.1882C177.006 9.83496 177.123 9.43815 177.144 9.03047C177.144 8.28017 176.62 7.97517 175.967 8.34727Z" fill="#F5F5F5"/>
<path d="M180.633 5.68766C180.291 5.91105 180.006 6.21189 179.802 6.56583C179.597 6.91978 179.479 7.31689 179.456 7.72505C179.456 8.47535 179.987 8.77425 180.633 8.40215C180.977 8.17985 181.262 7.87926 181.467 7.52509C181.672 7.17092 181.79 6.77326 181.811 6.36476C181.811 5.58396 181.286 5.28506 180.633 5.68766Z" fill="#F5F5F5"/>
<path d="M185.3 2.96716C184.957 3.18814 184.671 3.48758 184.467 3.84077C184.262 4.19396 184.144 4.59078 184.123 4.99846C184.123 5.74876 184.648 6.05375 185.3 5.68165C185.642 5.45758 185.925 5.15645 186.129 4.80255C186.332 4.44865 186.45 4.05188 186.472 3.64426C186.472 2.89396 185.947 2.58896 185.3 2.96716Z" fill="#F5F5F5"/>
<path d="M190.643 194.312C190.828 194.781 190.955 195.27 191.021 195.77C191.193 196.287 191.233 196.838 191.137 197.374C190.726 198.059 190.073 198.564 189.307 198.789C188.762 198.915 188.197 198.925 187.648 198.82C187.099 198.715 186.577 198.497 186.117 198.179C185.001 197.514 184.165 196.703 182.579 196.258C181.448 196.014 180.382 195.529 179.456 194.837C178.577 194.135 177.406 192.183 179.084 191.732C180.761 191.28 184.415 192.872 187.74 193.019L190.643 194.312Z" fill="#263238"/>
<path d="M190.484 192.116C190.484 192.116 190.679 194.446 190.679 194.733C190.679 195.52 187.776 196.563 187.239 194.733L186.775 192.256L190.484 192.116Z" fill="#F28F8F"/>
<path d="M186.922 140.992C187.92 142.46 188.835 143.983 189.661 145.555C189.661 145.555 189.948 148.946 189.948 151.203C189.948 155.351 189.307 158.554 188.728 166.728C189.671 168.336 190.211 170.148 190.301 172.01C190.545 175.713 190.552 175.67 190.576 192.75C190.02 193.05 189.41 193.236 188.782 193.297C188.153 193.358 187.519 193.292 186.916 193.104L181.426 169.186L180.816 159.798L179.096 148.129L186.922 140.992Z" fill="#37474F"/>
<path d="M173.93 198.588C174.125 198.789 174.058 199.198 174.149 199.869C174.251 200.385 174.277 200.913 174.228 201.437C173.908 202.162 173.33 202.743 172.606 203.066C172.079 203.255 171.519 203.334 170.961 203.298C170.403 203.261 169.858 203.109 169.361 202.852C168.177 202.327 167.244 201.632 165.615 201.382C164.463 201.283 163.345 200.935 162.34 200.363C161.382 199.753 159.973 197.984 161.583 197.313C163.194 196.642 167.232 197.844 170.544 197.576L173.93 198.588Z" fill="#263238"/>
<path d="M174.692 195.66C174.692 195.66 174.082 198.32 173.917 198.911C173.551 200.333 170.397 200.406 170.397 198.765L170.611 194.983L174.692 195.66Z" fill="#F28F8F"/>
<path d="M179.803 141.718C181.383 144.823 182.908 147.562 182.957 150.868C183.073 157.864 180.169 165.569 179.102 170.626C179.42 172.456 179.51 174.318 179.37 176.171C179.157 178.287 174.332 197.521 174.332 197.521C174.332 197.521 171.648 198.082 170.507 196.868L171.861 159.835L172.227 149.08L179.803 141.718Z" fill="#37474F"/>
<path d="M177.632 122.753L178.626 128.261L183.604 127.895L182.561 121.655L177.632 122.753Z" fill="#FFA8A7"/>
<path d="M188.856 127.493C188.362 125.998 186.465 124.369 184.586 124.723C181.764 125.203 178.983 125.896 176.266 126.797C174.527 127.407 172.941 128.926 172.795 134.648L172.252 149.044C173.004 149.712 173.906 150.189 174.881 150.435C177.522 151.161 179.267 151.594 183.281 150.715C188.508 149.575 189.753 146.409 189.753 146.409C189.753 146.409 189.552 138.79 189.393 134.648C189.265 131.128 189.192 128.524 188.856 127.493Z" fill="#455A64"/>
<path d="M175.509 115.72L150.164 108.845C147.87 108.449 146.912 114.048 149.206 114.439L175.235 117.068L175.509 115.72Z" fill="#263238"/>
<path d="M168.219 127.334L163.041 127.493C163.041 127.493 163.821 119.788 164.303 118.776C164.785 117.763 165.938 117.556 167.085 117.232C168.232 116.909 168.226 116.36 168.226 116.36L167.195 116.256C166.292 116.165 165.932 115.036 166.322 114.274C166.511 113.92 166.816 113.359 167.365 113.511L168.732 113.884C168.753 113.281 168.603 112.684 168.299 112.163C167.841 111.657 167.536 111.816 166.621 111.498C165.944 111.261 164.559 110.84 163.443 111.297C162.327 111.755 161.479 113.853 161.192 115.335C160.902 117.049 160.432 118.728 159.789 120.343C158.795 123.088 157.349 128.725 157.197 130.982C157.13 132.025 157.227 132.647 158.386 132.922C159.545 133.196 168.073 133.214 168.073 133.214L168.219 127.334Z" fill="#FFA8A7"/>
<path d="M173.947 116.232C173.947 116.232 172.727 118.013 172.898 118.208C173.174 118.392 173.479 118.526 173.801 118.605L173.947 116.232Z" fill="#FFA8A7"/>
<path d="M177.625 110.608C176.466 111.218 174.466 112.273 173.911 116.519C173.343 120.874 174.094 122.277 174.679 122.857C175.082 123.247 177.241 123.271 178.339 122.942C179.693 122.539 182.749 121.374 184.146 119.136C185.787 116.5 186.153 112.975 184.305 111.572C183.364 110.858 182.258 110.396 181.09 110.227C179.921 110.058 178.729 110.189 177.625 110.608Z" fill="#FFA8A7"/>
<path d="M181.036 163.172L183.677 155.705C185.725 154.979 187.559 153.755 189.015 152.143C189.015 152.143 188.405 154.272 184.233 156.456L181.335 163.519V167.448L181.036 163.172Z" fill="#263238"/>
<path d="M173.673 112.041C174.051 113.084 174.692 115.646 177.363 116.714C177.363 116.714 177.748 115.085 179.114 115.256C180.48 115.427 180.718 117.178 179.877 118.263C179.035 119.349 178.217 118.959 178.217 118.959C178.217 118.959 178.034 121.295 179.596 122.356C180.177 122.699 180.83 122.902 181.503 122.95C182.177 122.998 182.852 122.888 183.476 122.631C184.372 122.222 185.647 120.069 186.391 118.3C187.965 114.567 188.191 111.59 185.781 110.626C185.482 108.93 184.72 108.29 183.183 107.973C179.877 107.296 177.376 109.467 174.6 109.083C173.179 108.882 173.234 110.846 173.673 112.041Z" fill="#263238"/>
<path d="M185.861 111.218L187.422 110.248C187.286 110.058 187.083 109.926 186.853 109.881C186.624 109.835 186.386 109.878 186.187 110.001C185.988 110.125 185.844 110.319 185.783 110.545C185.723 110.771 185.75 111.012 185.861 111.218Z" fill="#263238"/>
<path d="M167.061 127.23C167.061 127.23 174.35 126.809 176.211 126.797C178.071 126.785 180.047 129.963 178.888 132.129C178.12 133.55 175.723 134.038 172.703 134.184C169.684 134.331 166.64 134.331 166.64 134.331C166.64 134.331 163.925 131.238 167.061 127.23Z" fill="#455A64"/>
<path d="M172.794 134.184C172.794 134.184 177.412 134.123 178.925 132.129C178.925 132.129 178.571 133.349 176.777 134.099C175.492 134.593 174.138 134.885 172.764 134.965L172.794 134.184Z" fill="#37474F"/>
<path d="M150.164 108.845C147.87 108.449 146.912 114.048 149.206 114.439L152.866 114.805C151.377 114.652 152.408 109.449 153.543 109.754L150.164 108.845Z" fill="#455A64"/>
<path d="M242.469 107.351C242.469 108.486 242.127 109.595 241.488 110.534C240.848 111.472 239.941 112.196 238.884 112.611C237.827 113.026 236.67 113.112 235.562 112.86C234.455 112.607 233.45 112.026 232.678 111.194L232.306 110.742C231.438 109.584 231.047 108.137 231.215 106.7C231.382 105.262 232.095 103.944 233.206 103.017C234.317 102.089 235.742 101.624 237.186 101.716C238.631 101.809 239.984 102.452 240.968 103.514L241.352 103.977C242.077 104.953 242.468 106.135 242.469 107.351Z" fill="#455A64"/>
<path d="M242.468 107.35C242.469 108.486 242.127 109.595 241.488 110.534C240.848 111.472 239.941 112.196 238.884 112.611C237.827 113.026 236.669 113.112 235.562 112.86C234.455 112.607 233.45 112.026 232.678 111.193L232.306 110.742L208.784 82.3343L218.697 76.6125L240.968 103.501L241.352 103.965C242.079 104.944 242.471 106.131 242.468 107.35Z" fill="#455A64"/>
<path d="M223.009 99.5119C223.997 100.548 225.342 101.17 226.771 101.253C228.2 101.336 229.607 100.873 230.708 99.9582C231.809 99.0432 232.521 97.7443 232.701 96.3242C232.881 94.904 232.515 93.4685 231.677 92.3078L228.768 88.8003C229.637 89.9587 230.029 91.407 229.861 92.8458C229.693 94.2846 228.979 95.604 227.866 96.5312C226.753 97.4585 225.327 97.9228 223.881 97.8281C222.436 97.7335 221.082 97.0871 220.1 96.0227L223.009 99.5119Z" fill="#ED8D34"/>
<path d="M218.319 31.9544C220.094 32.1521 221.811 32.7104 223.363 33.5953L216.208 29.4351C211.407 26.135 204.496 26.3302 196.816 30.7588C182.316 39.1341 170.556 59.502 170.556 76.2526C170.556 84.4815 173.356 90.3619 177.973 93.1557L178.071 93.2167L185.708 97.6148C184.354 96.7336 183.173 95.6109 182.225 94.3025C184.107 94.5085 186.01 94.3993 187.855 93.9792C188.526 93.8328 189.203 93.6559 189.893 93.4363C189.802 93.4092 189.715 93.3745 189.63 93.3326C189.263 93.1607 188.912 92.9566 188.581 92.7226C187.981 92.3042 187.446 91.7984 186.995 91.222C186.379 90.4328 185.877 89.5599 185.507 88.6295C185.01 88.7014 184.508 88.7381 184.006 88.7393C182.819 88.7631 181.641 88.5279 180.554 88.05C180.299 87.9337 180.053 87.8012 179.815 87.6535C179.602 87.5193 179.388 87.3607 179.205 87.2021C178.764 85.1373 178.549 83.0305 178.565 80.9191C178.565 64.1746 190.326 43.8006 204.838 35.4253C206.69 34.3445 208.654 33.4652 210.694 32.8023C211.243 33.0269 211.76 33.3244 212.231 33.6868C212.729 34.069 213.178 34.5116 213.567 35.0044C214.185 35.7956 214.689 36.6705 215.061 37.603C215.56 37.5331 216.064 37.4985 216.568 37.4993C217.947 37.4623 219.311 37.7928 220.521 38.457C220.827 38.6238 221.119 38.8156 221.393 39.0304C221.283 38.5424 221.167 38.0605 221.027 37.603C220.476 35.5709 219.558 33.6565 218.319 31.9544Z" fill="#263238"/>
<path d="M223.363 33.5952L222.949 33.3695C221.507 32.6143 219.936 32.1344 218.319 31.9543C216.582 31.7607 214.827 31.841 213.115 32.1922C212.291 32.3485 211.476 32.5521 210.675 32.8022C208.635 33.4651 206.672 34.3444 204.819 35.4252C190.307 43.8005 178.547 64.1745 178.547 80.919C178.531 83.0304 178.746 85.1372 179.187 87.202C179.266 87.5741 179.358 87.9279 179.449 88.2817C179.993 90.4408 180.937 92.4789 182.231 94.2902C182.809 95.0874 183.474 95.8178 184.214 96.4679C184.685 96.8826 185.187 97.2618 185.714 97.6025C190.503 100.695 197.304 100.427 204.807 96.0836C219.319 87.7083 231.08 67.3404 231.08 50.5898C231.074 42.2145 228.127 36.328 223.363 33.5952ZM220.496 38.4752C220.802 38.642 221.094 38.8338 221.369 39.0486C221.829 39.4222 222.248 39.8434 222.619 40.3052C224.449 42.5988 225.419 46.1673 225.419 50.6081C225.419 65.2481 214.683 83.8653 201.977 91.2036C198.774 93.0336 195.694 94.034 193.077 94.034C191.985 94.0468 190.902 93.8394 189.893 93.424C189.802 93.3969 189.715 93.3622 189.63 93.3203C189.263 93.1484 188.912 92.9443 188.581 92.7103C188.17 92.4214 187.789 92.0902 187.447 91.7221C187.294 91.5635 187.148 91.3866 187.001 91.2097C186.385 90.4205 185.884 89.5476 185.513 88.6172C184.584 86.1556 184.14 83.5372 184.207 80.9068C184.207 80.7116 184.207 80.5225 184.207 80.2968C184.476 65.7178 195.096 47.5215 207.638 40.2869C207.924 40.1222 208.217 39.9575 208.51 39.805C210.532 38.6753 212.741 37.9171 215.031 37.5663C215.53 37.4964 216.033 37.4618 216.537 37.4626C217.623 37.4533 218.699 37.6607 219.703 38.0726C219.979 38.1819 220.244 38.3146 220.496 38.4691V38.4752Z" fill="#455A64"/>
<path opacity="0.6" d="M222.967 48.9124C222.967 63.5524 212.231 82.1696 199.525 89.5079C196.322 91.3379 193.248 92.3383 190.625 92.3383C189.535 92.3511 188.454 92.1436 187.447 91.7283C187.294 91.5697 187.148 91.3928 187.002 91.2159C186.385 90.4267 185.884 89.5538 185.513 88.6234C184.584 86.1618 184.141 83.5433 184.208 80.913C184.208 80.7178 184.208 80.5287 184.208 80.303C184.476 65.724 195.096 47.5277 207.638 40.2931C207.925 40.1284 208.217 39.9637 208.51 39.8112C210.533 38.6815 212.741 37.9232 215.031 37.5725C215.53 37.5026 216.034 37.4679 216.538 37.4688C217.623 37.4594 218.7 37.6668 219.704 38.0788C219.868 38.2435 220.021 38.4204 220.167 38.5973C221.997 40.9031 222.967 44.4716 222.967 48.9124Z" fill="white"/>
</g>
</svg>
