<svg width="40" height="40" viewBox="0 0 40 40" fill="none" xmlns="http://www.w3.org/2000/svg">
<path d="M31.667 3.3335H15.0003C13.162 3.3335 11.667 4.8285 11.667 6.66683V15.9768L3.82196 23.8218C3.58895 24.0549 3.43027 24.3519 3.36599 24.6751C3.30171 24.9984 3.33472 25.3334 3.46083 25.6379C3.58695 25.9424 3.80052 26.2027 4.07453 26.3858C4.34855 26.569 4.67071 26.6668 5.0003 26.6668V35.0002C5.0003 35.4422 5.17589 35.8661 5.48845 36.1787C5.80101 36.4912 6.22494 36.6668 6.66696 36.6668H33.3336C33.7757 36.6668 34.1996 36.4912 34.5121 36.1787C34.8247 35.8661 35.0003 35.4422 35.0003 35.0002V6.66683C35.0003 4.8285 33.5053 3.3335 31.667 3.3335ZM18.3336 33.3335H8.33363V24.0235L13.3336 19.0235L18.3336 24.0235V33.3335ZM31.667 33.3335H21.667V26.6668C21.9969 26.6676 22.3196 26.5702 22.5942 26.3872C22.8687 26.2042 23.0827 25.9438 23.2089 25.639C23.3352 25.3341 23.368 24.9987 23.3033 24.6751C23.2385 24.3516 23.0791 24.0546 22.8453 23.8218L15.0003 15.9768V6.66683H31.667V33.3335Z" fill="white"/>
<path d="M18.3337 10H21.667V13.3333H18.3337V10ZM25.0003 10H28.3337V13.3333H25.0003V10ZM25.0003 16.7183H28.3337V20H25.0003V16.7183ZM25.0003 23.3333H28.3337V26.6667H25.0003V23.3333ZM11.667 25H15.0003V28.3333H11.667V25Z" fill="white"/>
</svg>
