<svg width="38" height="32" viewBox="0 0 38 32" fill="none" xmlns="http://www.w3.org/2000/svg">
<path d="M5.2363 11.8438H2.99219V13.9771H5.2363V11.8438Z" fill="#ED8D34"/>
<path d="M8.7523 11.8438H6.58301V13.9771H8.7523V11.8438Z" fill="#ED8D34"/>
<path d="M5.16148 15.2275H2.99219V17.4344H5.16148V15.2275Z" fill="#ED8D34"/>
<path d="M8.8271 15.2275H6.58301V17.4344H8.8271V15.2275Z" fill="#ED8D34"/>
<path d="M5.16148 18.7588H2.99219V20.8921H5.16148V18.7588Z" fill="#ED8D34"/>
<path d="M8.8271 18.7588H6.58301V20.8921H8.8271V18.7588Z" fill="#ED8D34"/>
<path d="M5.16148 22.0688H2.99219V24.2757H5.16148V22.0688Z" fill="#ED8D34"/>
<path d="M8.8271 22.0688H6.58301V24.2757H8.8271V22.0688Z" fill="#ED8D34"/>
<path d="M5.16148 25.6001H2.99219V27.7334H5.16148V25.6001Z" fill="#ED8D34"/>
<path d="M8.8271 25.6001H6.58301V27.7334H8.8271V25.6001Z" fill="#ED8D34"/>
<path d="M38 8.45977H27.6024V0H10.3976V8.45977H0V32H38V8.45977ZM10.3976 30.6759H1.27165V9.78391H10.3976V30.6759H10.3976ZM21.6929 30.7494H16.3071V23.0253H21.6929V30.7494ZM15.0354 21.7011V30.7494H11.7441V1.25057H26.2559L26.1811 30.7494H23.0394V21.7012H15.0354V21.7011ZM36.6535 30.6759H27.6024V9.78391H36.6535V30.6759Z" fill="#ED8D34"/>
<path d="M31.4173 11.8438H29.248V13.9771H31.4173V11.8438Z" fill="#ED8D34"/>
<path d="M35.0078 11.8438H32.7637V13.9771H35.0078V11.8438Z" fill="#ED8D34"/>
<path d="M31.417 15.2275H29.1729V17.4344H31.417V15.2275Z" fill="#ED8D34"/>
<path d="M35.0082 15.2275H32.8389V17.4344H35.0082V15.2275Z" fill="#ED8D34"/>
<path d="M31.417 18.7588H29.1729V20.8921H31.417V18.7588Z" fill="#ED8D34"/>
<path d="M35.0082 18.7588H32.8389V20.8921H35.0082V18.7588Z" fill="#ED8D34"/>
<path d="M31.417 22.0688H29.1729V24.2757H31.417V22.0688Z" fill="#ED8D34"/>
<path d="M35.0082 22.0688H32.8389V24.2757H35.0082V22.0688Z" fill="#ED8D34"/>
<path d="M31.417 25.6001H29.1729V27.7334H31.417V25.6001Z" fill="#ED8D34"/>
<path d="M35.0082 25.6001H32.8389V27.7334H35.0082V25.6001Z" fill="#ED8D34"/>
<path d="M15.7089 10.3726H13.4648V12.5059H15.7089V10.3726Z" fill="#ED8D34"/>
<path d="M24.3857 10.3726H22.1416V12.5059H24.3857V10.3726Z" fill="#ED8D34"/>
<path d="M15.7089 13.7563H13.4648V15.9633H15.7089V13.7563Z" fill="#ED8D34"/>
<path d="M24.3861 13.7563H22.2168V15.9633H24.3861V13.7563Z" fill="#ED8D34"/>
<path d="M15.7089 17.2876H13.4648V19.4209H15.7089V17.2876Z" fill="#ED8D34"/>
<path d="M24.3861 17.2876H22.2168V19.4209H24.3861V17.2876Z" fill="#ED8D34"/>
<path d="M20.0469 10.2988H17.8027V12.5057H20.0469V10.2988Z" fill="#ED8D34"/>
<path d="M15.7089 6.91504H13.4648V9.04838H15.7089V6.91504Z" fill="#ED8D34"/>
<path d="M24.3857 6.91504H22.1416V9.04838H24.3857V6.91504Z" fill="#ED8D34"/>
<path d="M20.0469 6.91504H17.8027V9.04838H20.0469V6.91504Z" fill="#ED8D34"/>
<path d="M15.7089 3.45752H13.4648V5.59086H15.7089V3.45752Z" fill="#ED8D34"/>
<path d="M24.3857 3.45752H22.1416V5.59086H24.3857V3.45752Z" fill="#ED8D34"/>
<path d="M20.0469 3.45752H17.8027V5.59086H20.0469V3.45752Z" fill="#ED8D34"/>
<path d="M20.0469 13.7563H17.8027V15.8897H20.0469V13.7563Z" fill="#ED8D34"/>
<path d="M20.0469 17.2139H17.8027V19.4208H20.0469V17.2139Z" fill="#ED8D34"/>
</svg>
