<svg width="194" height="208" viewBox="0 0 194 208" fill="none" xmlns="http://www.w3.org/2000/svg">
<path d="M190.553 40.4752H146.829C146.829 40.4752 151.166 28.6362 157.835 28.6362C164.505 28.6362 166.6 36.8109 166.6 36.8109C166.6 36.8109 171.102 32.3691 174.798 32.3691C178.494 32.3691 181.71 38.2382 181.71 38.2382C181.71 38.2382 186.93 35.0818 190.553 40.4752Z" fill="#EBEBEB"/>
<path d="M152.373 15.4937H131.943C131.943 15.4937 136.518 8.87891 140.104 8.87891C143.691 8.87891 144.766 13.2888 144.766 13.2888C144.766 13.2888 147.305 11.2302 149.656 11.5962C152.007 11.9621 152.373 15.4937 152.373 15.4937Z" fill="#EBEBEB"/>
<path d="M42.8679 39.6884H3.06934C3.06934 39.6884 8.52219 27.511 14.3502 26.7607C20.1781 26.0105 22.9686 35.8 22.9686 35.8C22.9686 35.8 26.7289 32.3371 29.6886 32.3371C32.6483 32.3371 34.9265 36.9117 34.9265 36.9117C34.9265 36.9117 40.8414 33.7735 42.8679 39.6884Z" fill="#EBEBEB"/>
<path d="M84.1486 10.2605H57.2686C57.2686 10.2605 61.8843 1.4453 66.8751 1.31722C71.8659 1.18913 74.5192 7.9869 74.5192 7.9869C74.5192 7.9869 82.3325 1.7335 84.1486 10.2605Z" fill="#EBEBEB"/>
<path d="M38.8739 71.7014H11.9893C11.9893 71.7014 16.605 62.8862 21.5958 62.7581C26.5866 62.63 29.2399 69.4278 29.2399 69.4278C29.2399 69.4278 37.0532 63.1927 38.8739 71.7014Z" fill="#EBEBEB"/>
<path d="M99.1345 32.9089H80.9873C80.9873 32.9089 84.1071 26.962 87.4877 26.8705C90.8683 26.779 92.6478 31.3718 92.6478 31.3718C92.6478 31.3718 97.9085 27.1495 99.1345 32.9089Z" fill="#EBEBEB"/>
<path d="M70.988 58.2746H52.8408C52.8408 58.2746 55.9561 52.3277 59.3367 52.2362C62.7173 52.1447 64.4968 56.7421 64.4968 56.7421C64.4968 56.7421 69.7575 52.5198 70.988 58.2746Z" fill="#EBEBEB"/>
<path d="M92.0754 54.501H87.3682V60.059H92.0754V54.501Z" fill="#DBDBDB"/>
<path d="M95.0588 54.501H92.0762V60.2649H95.0588V54.501Z" fill="#C7C7C7"/>
<path d="M95.2556 56.9575H92.2959V60.2649H95.2556V56.9575Z" fill="#DBDBDB"/>
<path d="M97.104 56.9575H95.2559V60.2649H97.104V56.9575Z" fill="#C7C7C7"/>
<path d="M93.1736 59.7021H85.5615V87.3644H93.1736V59.7021Z" fill="#EBEBEB"/>
<path d="M88.8231 60.8867H86.4307V61.8657H88.8231V60.8867Z" fill="white"/>
<path d="M91.8837 60.8867H89.4912V61.8657H91.8837V60.8867Z" fill="white"/>
<path d="M88.8231 62.5474H86.4307V63.5263H88.8231V62.5474Z" fill="white"/>
<path d="M91.8837 62.5474H89.4912V63.5263H91.8837V62.5474Z" fill="white"/>
<path d="M88.8231 64.208H86.4307V65.187H88.8231V64.208Z" fill="white"/>
<path d="M91.8837 64.208H89.4912V65.187H91.8837V64.208Z" fill="white"/>
<path d="M88.8231 65.8687H86.4307V66.8476H88.8231V65.8687Z" fill="white"/>
<path d="M91.8837 65.8687H89.4912V66.8476H91.8837V65.8687Z" fill="white"/>
<path d="M88.8231 67.5293H86.4307V68.5082H88.8231V67.5293Z" fill="white"/>
<path d="M91.8837 67.5293H89.4912V68.5082H91.8837V67.5293Z" fill="white"/>
<path d="M88.8231 69.1895H86.4307V70.1684H88.8231V69.1895Z" fill="white"/>
<path d="M91.8837 69.1895H89.4912V70.1684H91.8837V69.1895Z" fill="white"/>
<path d="M88.8231 70.8506H86.4307V71.8295H88.8231V70.8506Z" fill="white"/>
<path d="M91.8837 70.8506H89.4912V71.8295H91.8837V70.8506Z" fill="white"/>
<path d="M88.8231 72.5107H86.4307V73.4897H88.8231V72.5107Z" fill="white"/>
<path d="M91.8837 72.5107H89.4912V73.4897H91.8837V72.5107Z" fill="white"/>
<path d="M88.8231 74.1714H86.4307V75.1503H88.8231V74.1714Z" fill="white"/>
<path d="M91.8837 74.1714H89.4912V75.1503H91.8837V74.1714Z" fill="white"/>
<path d="M88.8231 75.832H86.4307V76.811H88.8231V75.832Z" fill="white"/>
<path d="M91.8837 75.832H89.4912V76.811H91.8837V75.832Z" fill="white"/>
<path d="M88.8231 77.4927H86.4307V78.4716H88.8231V77.4927Z" fill="white"/>
<path d="M91.8837 77.4927H89.4912V78.4716H91.8837V77.4927Z" fill="white"/>
<path d="M88.8231 79.1533H86.4307V80.1323H88.8231V79.1533Z" fill="white"/>
<path d="M91.8837 79.1533H89.4912V80.1323H91.8837V79.1533Z" fill="white"/>
<path d="M88.8231 80.8135H86.4307V81.7924H88.8231V80.8135Z" fill="white"/>
<path d="M91.8837 80.8135H89.4912V81.7924H91.8837V80.8135Z" fill="white"/>
<path d="M88.8231 82.4741H86.4307V83.4531H88.8231V82.4741Z" fill="white"/>
<path d="M91.8837 82.4741H89.4912V83.4531H91.8837V82.4741Z" fill="white"/>
<path d="M99.3403 59.7021H93.1738V87.3644H99.3403V59.7021Z" fill="#C7C7C7"/>
<path d="M96.7556 83.4487H98.7227V82.4698H96.7556V83.4487Z" fill="#EBEBEB"/>
<path d="M94.24 83.4487H96.207V82.4698H94.24V83.4487Z" fill="#EBEBEB"/>
<path d="M96.7556 81.7881H98.7227V80.8091H96.7556V81.7881Z" fill="#EBEBEB"/>
<path d="M94.24 81.7881H96.207V80.8091H94.24V81.7881Z" fill="#EBEBEB"/>
<path d="M96.7556 80.1274H98.7227V79.1485H96.7556V80.1274Z" fill="#EBEBEB"/>
<path d="M94.24 80.1274H96.207V79.1485H94.24V80.1274Z" fill="#EBEBEB"/>
<path d="M96.7556 78.4668H98.7227V77.4878H96.7556V78.4668Z" fill="#EBEBEB"/>
<path d="M94.24 78.4668H96.207V77.4878H94.24V78.4668Z" fill="#EBEBEB"/>
<path d="M96.7556 76.811H98.7227V75.8321H96.7556V76.811Z" fill="#EBEBEB"/>
<path d="M94.24 76.811H96.207V75.8321H94.24V76.811Z" fill="#EBEBEB"/>
<path d="M96.7556 75.1504H98.7227V74.1714H96.7556V75.1504Z" fill="#EBEBEB"/>
<path d="M94.24 75.1504H96.207V74.1714H94.24V75.1504Z" fill="#EBEBEB"/>
<path d="M96.7556 73.4897H98.7227V72.5108H96.7556V73.4897Z" fill="#EBEBEB"/>
<path d="M94.24 73.4897H96.207V72.5108H94.24V73.4897Z" fill="#EBEBEB"/>
<path d="M96.7556 71.8291H98.7227V70.8501H96.7556V71.8291Z" fill="#EBEBEB"/>
<path d="M94.24 71.8291H96.207V70.8501H94.24V71.8291Z" fill="#EBEBEB"/>
<path d="M96.7556 70.1685H98.7227V69.1895H96.7556V70.1685Z" fill="#EBEBEB"/>
<path d="M94.24 70.1685H96.207V69.1895H94.24V70.1685Z" fill="#EBEBEB"/>
<path d="M96.7556 68.5083H98.7227V67.5293H96.7556V68.5083Z" fill="#EBEBEB"/>
<path d="M94.24 68.5083H96.207V67.5293H94.24V68.5083Z" fill="#EBEBEB"/>
<path d="M96.7556 66.8477H98.7227V65.8687H96.7556V66.8477Z" fill="#EBEBEB"/>
<path d="M94.24 66.8477H96.207V65.8687H94.24V66.8477Z" fill="#EBEBEB"/>
<path d="M96.7556 65.187H98.7227V64.2081H96.7556V65.187Z" fill="#EBEBEB"/>
<path d="M94.24 65.187H96.207V64.2081H94.24V65.187Z" fill="#EBEBEB"/>
<path d="M96.7556 63.5312H98.7227V62.5523H96.7556V63.5312Z" fill="#EBEBEB"/>
<path d="M94.24 63.5312H96.207V62.5523H94.24V63.5312Z" fill="#EBEBEB"/>
<path d="M96.7556 61.8701H98.7227V60.8912H96.7556V61.8701Z" fill="#EBEBEB"/>
<path d="M94.24 61.8701H96.207V60.8912H94.24V61.8701Z" fill="#EBEBEB"/>
<path d="M148.027 48.1421H140.548V87.3597H148.027V48.1421Z" fill="#DBDBDB"/>
<path d="M143.165 49.4185H141.71V50.9143H143.165V49.4185Z" fill="#EBEBEB"/>
<path d="M145.022 49.4185H143.567V50.9143H145.022V49.4185Z" fill="#EBEBEB"/>
<path d="M143.165 51.9575H141.71V53.4534H143.165V51.9575Z" fill="#EBEBEB"/>
<path d="M145.022 51.9575H143.567V53.4534H145.022V51.9575Z" fill="#EBEBEB"/>
<path d="M143.165 54.501H141.71V55.9969H143.165V54.501Z" fill="#EBEBEB"/>
<path d="M145.022 54.501H143.567V55.9969H145.022V54.501Z" fill="#EBEBEB"/>
<path d="M143.165 57.0444H141.71V58.5403H143.165V57.0444Z" fill="#EBEBEB"/>
<path d="M145.022 57.0444H143.567V58.5403H145.022V57.0444Z" fill="#EBEBEB"/>
<path d="M143.165 59.5874H141.71V61.0833H143.165V59.5874Z" fill="#EBEBEB"/>
<path d="M145.022 59.5874H143.567V61.0833H145.022V59.5874Z" fill="#EBEBEB"/>
<path d="M143.165 62.1265H141.71V63.6223H143.165V62.1265Z" fill="#EBEBEB"/>
<path d="M145.022 62.1265H143.567V63.6223H145.022V62.1265Z" fill="#EBEBEB"/>
<path d="M143.165 64.6699H141.71V66.1658H143.165V64.6699Z" fill="#EBEBEB"/>
<path d="M145.022 64.6699H143.567V66.1658H145.022V64.6699Z" fill="#EBEBEB"/>
<path d="M143.165 67.2134H141.71V68.7093H143.165V67.2134Z" fill="#EBEBEB"/>
<path d="M145.022 67.2134H143.567V68.7093H145.022V67.2134Z" fill="#EBEBEB"/>
<path d="M143.165 69.7568H141.71V71.2527H143.165V69.7568Z" fill="#EBEBEB"/>
<path d="M145.022 69.7568H143.567V71.2527H145.022V69.7568Z" fill="#EBEBEB"/>
<path d="M143.165 72.2959H141.71V73.7918H143.165V72.2959Z" fill="#EBEBEB"/>
<path d="M145.022 72.2959H143.567V73.7918H145.022V72.2959Z" fill="#EBEBEB"/>
<path d="M143.165 74.8394H141.71V76.3352H143.165V74.8394Z" fill="#EBEBEB"/>
<path d="M145.022 74.8394H143.567V76.3352H145.022V74.8394Z" fill="#EBEBEB"/>
<path d="M143.165 77.3828H141.71V78.8787H143.165V77.3828Z" fill="#EBEBEB"/>
<path d="M145.022 77.3828H143.567V78.8787H145.022V77.3828Z" fill="#EBEBEB"/>
<path d="M143.165 79.9263H141.71V81.4221H143.165V79.9263Z" fill="#EBEBEB"/>
<path d="M145.022 79.9263H143.567V81.4221H145.022V79.9263Z" fill="#EBEBEB"/>
<path d="M143.165 82.4653H141.71V83.9612H143.165V82.4653Z" fill="#EBEBEB"/>
<path d="M145.415 83.9658H146.87V82.4699H145.415V83.9658Z" fill="#EBEBEB"/>
<path d="M145.415 81.4224H146.87V79.9265H145.415V81.4224Z" fill="#EBEBEB"/>
<path d="M145.415 78.8789H146.87V77.383H145.415V78.8789Z" fill="#EBEBEB"/>
<path d="M145.415 76.3398H146.87V74.844H145.415V76.3398Z" fill="#EBEBEB"/>
<path d="M145.415 73.7964H146.87V72.3005H145.415V73.7964Z" fill="#EBEBEB"/>
<path d="M145.415 71.2529H146.87V69.7571H145.415V71.2529Z" fill="#EBEBEB"/>
<path d="M145.415 68.7095H146.87V67.2136H145.415V68.7095Z" fill="#EBEBEB"/>
<path d="M145.415 66.1704H146.87V64.6745H145.415V66.1704Z" fill="#EBEBEB"/>
<path d="M145.415 63.627H146.87V62.1311H145.415V63.627Z" fill="#EBEBEB"/>
<path d="M145.415 61.0835H146.87V59.5876H145.415V61.0835Z" fill="#EBEBEB"/>
<path d="M145.415 58.54H146.87V57.0442H145.415V58.54Z" fill="#EBEBEB"/>
<path d="M145.415 56.0015H146.87V54.5056H145.415V56.0015Z" fill="#EBEBEB"/>
<path d="M145.415 53.458H146.87V51.9621H145.415V53.458Z" fill="#EBEBEB"/>
<path d="M145.415 50.9097H146.87V49.4138H145.415V50.9097Z" fill="#EBEBEB"/>
<path d="M145.022 82.4653H143.567V83.9612H145.022V82.4653Z" fill="#EBEBEB"/>
<path d="M153.924 48.1421H148.027V87.3597H153.924V48.1421Z" fill="#A6A6A6"/>
<path d="M152.117 83.9658H153.32V82.4699H152.117V83.9658Z" fill="#C7C7C7"/>
<path d="M150.58 83.9658H151.783V82.4699H150.58V83.9658Z" fill="#C7C7C7"/>
<path d="M152.117 81.4224H153.32V79.9265H152.117V81.4224Z" fill="#C7C7C7"/>
<path d="M150.58 81.4224H151.783V79.9265H150.58V81.4224Z" fill="#C7C7C7"/>
<path d="M152.117 78.8789H153.32V77.383H152.117V78.8789Z" fill="#C7C7C7"/>
<path d="M150.58 78.8789H151.783V77.383H150.58V78.8789Z" fill="#C7C7C7"/>
<path d="M152.117 76.3398H153.32V74.844H152.117V76.3398Z" fill="#C7C7C7"/>
<path d="M150.58 76.3398H151.783V74.844H150.58V76.3398Z" fill="#C7C7C7"/>
<path d="M152.117 73.7964H153.32V72.3005H152.117V73.7964Z" fill="#C7C7C7"/>
<path d="M150.58 73.7964H151.783V72.3005H150.58V73.7964Z" fill="#C7C7C7"/>
<path d="M152.117 71.2529H153.32V69.7571H152.117V71.2529Z" fill="#C7C7C7"/>
<path d="M150.58 71.2529H151.783V69.7571H150.58V71.2529Z" fill="#C7C7C7"/>
<path d="M152.117 68.7095H153.32V67.2136H152.117V68.7095Z" fill="#C7C7C7"/>
<path d="M150.58 68.7095H151.783V67.2136H150.58V68.7095Z" fill="#C7C7C7"/>
<path d="M152.117 66.1704H153.32V64.6745H152.117V66.1704Z" fill="#C7C7C7"/>
<path d="M150.58 66.1704H151.783V64.6745H150.58V66.1704Z" fill="#C7C7C7"/>
<path d="M152.117 63.627H153.32V62.1311H152.117V63.627Z" fill="#C7C7C7"/>
<path d="M150.58 63.627H151.783V62.1311H150.58V63.627Z" fill="#C7C7C7"/>
<path d="M152.117 61.0835H153.32V59.5876H152.117V61.0835Z" fill="#C7C7C7"/>
<path d="M150.58 61.0835H151.783V59.5876H150.58V61.0835Z" fill="#C7C7C7"/>
<path d="M152.117 58.54H153.32V57.0442H152.117V58.54Z" fill="#C7C7C7"/>
<path d="M150.58 58.54H151.783V57.0442H150.58V58.54Z" fill="#C7C7C7"/>
<path d="M152.117 56.0015H153.32V54.5056H152.117V56.0015Z" fill="#C7C7C7"/>
<path d="M150.58 56.0015H151.783V54.5056H150.58V56.0015Z" fill="#C7C7C7"/>
<path d="M152.117 53.458H153.32V51.9621H152.117V53.458Z" fill="#C7C7C7"/>
<path d="M150.58 53.458H151.783V51.9621H150.58V53.458Z" fill="#C7C7C7"/>
<path d="M152.117 50.9097H153.32V49.4138H152.117V50.9097Z" fill="#C7C7C7"/>
<path d="M150.26 49.4185H149.057V50.9143H150.26V49.4185Z" fill="#C7C7C7"/>
<path d="M150.26 51.9575H149.057V53.4534H150.26V51.9575Z" fill="#C7C7C7"/>
<path d="M150.26 54.501H149.057V55.9969H150.26V54.501Z" fill="#C7C7C7"/>
<path d="M150.26 57.0444H149.057V58.5403H150.26V57.0444Z" fill="#C7C7C7"/>
<path d="M150.26 59.5874H149.057V61.0833H150.26V59.5874Z" fill="#C7C7C7"/>
<path d="M150.26 62.1265H149.057V63.6223H150.26V62.1265Z" fill="#C7C7C7"/>
<path d="M150.26 64.6699H149.057V66.1658H150.26V64.6699Z" fill="#C7C7C7"/>
<path d="M150.26 67.2134H149.057V68.7093H150.26V67.2134Z" fill="#C7C7C7"/>
<path d="M150.26 69.7568H149.057V71.2527H150.26V69.7568Z" fill="#C7C7C7"/>
<path d="M150.26 72.2959H149.057V73.7918H150.26V72.2959Z" fill="#C7C7C7"/>
<path d="M150.26 74.8394H149.057V76.3352H150.26V74.8394Z" fill="#C7C7C7"/>
<path d="M150.26 77.3828H149.057V78.8787H150.26V77.3828Z" fill="#C7C7C7"/>
<path d="M150.26 79.9263H149.057V81.4221H150.26V79.9263Z" fill="#C7C7C7"/>
<path d="M150.26 82.4653H149.057V83.9612H150.26V82.4653Z" fill="#C7C7C7"/>
<path d="M150.58 50.9097H151.783V49.4138H150.58V50.9097Z" fill="#C7C7C7"/>
<path d="M105.74 46.0288H96.8887V87.3598H105.74V46.0288Z" fill="#EBEBEB"/>
<path d="M105.736 45.123H96.6738V46.0288H105.736V45.123Z" fill="#C7C7C7"/>
<path d="M98.5861 47.3599H97.6895V87.3597H98.5861V47.3599Z" fill="white"/>
<path d="M100.173 47.3599H99.2764V87.3597H100.173V47.3599Z" fill="white"/>
<path d="M101.76 47.3599H100.863V87.3597H101.76V47.3599Z" fill="white"/>
<path d="M103.348 47.3599H102.451V87.3597H103.348V47.3599Z" fill="white"/>
<path d="M104.935 47.3599H104.038V87.3597H104.935V47.3599Z" fill="white"/>
<path d="M98.5861 48.5039H97.6895V50.288H98.5861V48.5039Z" fill="#EBEBEB"/>
<path d="M100.173 48.5039H99.2764V50.288H100.173V48.5039Z" fill="#EBEBEB"/>
<path d="M101.76 48.5039H100.863V50.288H101.76V48.5039Z" fill="#EBEBEB"/>
<path d="M103.348 48.5039H102.451V50.288H103.348V48.5039Z" fill="#EBEBEB"/>
<path d="M104.935 48.5039H104.038V50.288H104.935V48.5039Z" fill="#EBEBEB"/>
<path d="M98.5861 51.4087H97.6895V53.1973H98.5861V51.4087Z" fill="#EBEBEB"/>
<path d="M100.173 51.4087H99.2764V53.1973H100.173V51.4087Z" fill="#EBEBEB"/>
<path d="M101.76 51.4087H100.863V53.1973H101.76V51.4087Z" fill="#EBEBEB"/>
<path d="M103.348 51.4087H102.451V53.1973H103.348V51.4087Z" fill="#EBEBEB"/>
<path d="M104.935 51.4087H104.038V53.1973H104.935V51.4087Z" fill="#EBEBEB"/>
<path d="M98.5861 54.313H97.6895V56.0971H98.5861V54.313Z" fill="#EBEBEB"/>
<path d="M100.173 54.313H99.2764V56.0971H100.173V54.313Z" fill="#EBEBEB"/>
<path d="M101.76 54.313H100.863V56.0971H101.76V54.313Z" fill="#EBEBEB"/>
<path d="M103.348 54.313H102.451V56.0971H103.348V54.313Z" fill="#EBEBEB"/>
<path d="M104.935 54.313H104.038V56.0971H104.935V54.313Z" fill="#EBEBEB"/>
<path d="M98.5861 57.2134H97.6895V59.002H98.5861V57.2134Z" fill="#EBEBEB"/>
<path d="M100.173 57.2134H99.2764V59.002H100.173V57.2134Z" fill="#EBEBEB"/>
<path d="M101.76 57.2134H100.863V59.002H101.76V57.2134Z" fill="#EBEBEB"/>
<path d="M103.348 57.2134H102.451V59.002H103.348V57.2134Z" fill="#EBEBEB"/>
<path d="M104.935 57.2134H104.038V59.002H104.935V57.2134Z" fill="#EBEBEB"/>
<path d="M98.5861 60.1182H97.6895V61.9022H98.5861V60.1182Z" fill="#EBEBEB"/>
<path d="M100.173 60.1182H99.2764V61.9022H100.173V60.1182Z" fill="#EBEBEB"/>
<path d="M101.76 60.1182H100.863V61.9022H101.76V60.1182Z" fill="#EBEBEB"/>
<path d="M103.348 60.1182H102.451V61.9022H103.348V60.1182Z" fill="#EBEBEB"/>
<path d="M104.935 60.1182H104.038V61.9022H104.935V60.1182Z" fill="#EBEBEB"/>
<path d="M98.5861 63.0234H97.6895V64.8121H98.5861V63.0234Z" fill="#EBEBEB"/>
<path d="M100.173 63.0234H99.2764V64.8121H100.173V63.0234Z" fill="#EBEBEB"/>
<path d="M101.76 63.0234H100.863V64.8121H101.76V63.0234Z" fill="#EBEBEB"/>
<path d="M103.348 63.0234H102.451V64.8121H103.348V63.0234Z" fill="#EBEBEB"/>
<path d="M104.935 63.0234H104.038V64.8121H104.935V63.0234Z" fill="#EBEBEB"/>
<path d="M98.5861 65.9233H97.6895V67.7074H98.5861V65.9233Z" fill="#EBEBEB"/>
<path d="M100.173 65.9233H99.2764V67.7074H100.173V65.9233Z" fill="#EBEBEB"/>
<path d="M101.76 65.9233H100.863V67.7074H101.76V65.9233Z" fill="#EBEBEB"/>
<path d="M103.348 65.9233H102.451V67.7074H103.348V65.9233Z" fill="#EBEBEB"/>
<path d="M104.935 65.9233H104.038V67.7074H104.935V65.9233Z" fill="#EBEBEB"/>
<path d="M98.5861 68.8286H97.6895V70.6127H98.5861V68.8286Z" fill="#EBEBEB"/>
<path d="M100.173 68.8286H99.2764V70.6127H100.173V68.8286Z" fill="#EBEBEB"/>
<path d="M101.76 68.8286H100.863V70.6127H101.76V68.8286Z" fill="#EBEBEB"/>
<path d="M103.348 68.8286H102.451V70.6127H103.348V68.8286Z" fill="#EBEBEB"/>
<path d="M104.935 68.8286H104.038V70.6127H104.935V68.8286Z" fill="#EBEBEB"/>
<path d="M98.5861 71.7329H97.6895V73.5216H98.5861V71.7329Z" fill="#EBEBEB"/>
<path d="M100.173 71.7329H99.2764V73.5216H100.173V71.7329Z" fill="#EBEBEB"/>
<path d="M101.76 71.7329H100.863V73.5216H101.76V71.7329Z" fill="#EBEBEB"/>
<path d="M103.348 71.7329H102.451V73.5216H103.348V71.7329Z" fill="#EBEBEB"/>
<path d="M104.935 71.7329H104.038V73.5216H104.935V71.7329Z" fill="#EBEBEB"/>
<path d="M98.5861 74.6333H97.6895V76.4174H98.5861V74.6333Z" fill="#EBEBEB"/>
<path d="M100.173 74.6333H99.2764V76.4174H100.173V74.6333Z" fill="#EBEBEB"/>
<path d="M101.76 74.6333H100.863V76.4174H101.76V74.6333Z" fill="#EBEBEB"/>
<path d="M103.348 74.6333H102.451V76.4174H103.348V74.6333Z" fill="#EBEBEB"/>
<path d="M104.935 74.6333H104.038V76.4174H104.935V74.6333Z" fill="#EBEBEB"/>
<path d="M98.5861 77.5381H97.6895V79.3222H98.5861V77.5381Z" fill="#EBEBEB"/>
<path d="M100.173 77.5381H99.2764V79.3222H100.173V77.5381Z" fill="#EBEBEB"/>
<path d="M101.76 77.5381H100.863V79.3222H101.76V77.5381Z" fill="#EBEBEB"/>
<path d="M103.348 77.5381H102.451V79.3222H103.348V77.5381Z" fill="#EBEBEB"/>
<path d="M104.935 77.5381H104.038V79.3222H104.935V77.5381Z" fill="#EBEBEB"/>
<path d="M98.5861 80.4385H97.6895V82.2226H98.5861V80.4385Z" fill="#EBEBEB"/>
<path d="M100.173 80.4385H99.2764V82.2226H100.173V80.4385Z" fill="#EBEBEB"/>
<path d="M101.76 80.4385H100.863V82.2226H101.76V80.4385Z" fill="#EBEBEB"/>
<path d="M103.348 80.4385H102.451V82.2226H103.348V80.4385Z" fill="#EBEBEB"/>
<path d="M104.935 80.4385H104.038V82.2226H104.935V80.4385Z" fill="#EBEBEB"/>
<path d="M98.5861 83.3433H97.6895V85.1273H98.5861V83.3433Z" fill="#EBEBEB"/>
<path d="M100.173 83.3433H99.2764V85.1273H100.173V83.3433Z" fill="#EBEBEB"/>
<path d="M101.76 83.3433H100.863V85.1273H101.76V83.3433Z" fill="#EBEBEB"/>
<path d="M103.348 83.3433H102.451V85.1273H103.348V83.3433Z" fill="#EBEBEB"/>
<path d="M104.935 83.3433H104.038V85.1273H104.935V83.3433Z" fill="#EBEBEB"/>
<path d="M98.5861 86.248H97.6895V87.3597H98.5861V86.248Z" fill="#EBEBEB"/>
<path d="M100.173 86.248H99.2764V87.3597H100.173V86.248Z" fill="#EBEBEB"/>
<path d="M101.76 86.248H100.863V87.3597H101.76V86.248Z" fill="#EBEBEB"/>
<path d="M103.348 86.248H102.451V87.3597H103.348V86.248Z" fill="#EBEBEB"/>
<path d="M104.935 86.248H104.038V87.3597H104.935V86.248Z" fill="#EBEBEB"/>
<path d="M111.417 46.0288H105.735V87.3598H111.417V46.0288Z" fill="#DBDBDB"/>
<path d="M111.664 45.123H105.735V46.0288H111.664V45.123Z" fill="#C7C7C7"/>
<path d="M107.433 47.3599H106.536V87.3597H107.433V47.3599Z" fill="#C7C7C7"/>
<path d="M109.025 47.3599H108.128V87.3597H109.025V47.3599Z" fill="#C7C7C7"/>
<path d="M110.612 47.3599H109.716V87.3597H110.612V47.3599Z" fill="#C7C7C7"/>
<path d="M107.433 48.5039H106.536V50.288H107.433V48.5039Z" fill="#DBDBDB"/>
<path d="M109.025 48.5039H108.128V50.288H109.025V48.5039Z" fill="#DBDBDB"/>
<path d="M110.612 48.5039H109.716V50.288H110.612V48.5039Z" fill="#DBDBDB"/>
<path d="M107.433 51.4087H106.536V53.1973H107.433V51.4087Z" fill="#DBDBDB"/>
<path d="M109.025 51.4087H108.128V53.1973H109.025V51.4087Z" fill="#DBDBDB"/>
<path d="M110.612 51.4087H109.716V53.1973H110.612V51.4087Z" fill="#DBDBDB"/>
<path d="M107.433 54.313H106.536V56.0971H107.433V54.313Z" fill="#DBDBDB"/>
<path d="M109.025 54.313H108.128V56.0971H109.025V54.313Z" fill="#DBDBDB"/>
<path d="M110.612 54.313H109.716V56.0971H110.612V54.313Z" fill="#DBDBDB"/>
<path d="M107.433 57.2134H106.536V59.002H107.433V57.2134Z" fill="#DBDBDB"/>
<path d="M109.025 57.2134H108.128V59.002H109.025V57.2134Z" fill="#DBDBDB"/>
<path d="M110.612 57.2134H109.716V59.002H110.612V57.2134Z" fill="#DBDBDB"/>
<path d="M107.433 60.1182H106.536V61.9022H107.433V60.1182Z" fill="#DBDBDB"/>
<path d="M109.025 60.1182H108.128V61.9022H109.025V60.1182Z" fill="#DBDBDB"/>
<path d="M110.612 60.1182H109.716V61.9022H110.612V60.1182Z" fill="#DBDBDB"/>
<path d="M107.433 63.0234H106.536V64.8121H107.433V63.0234Z" fill="#DBDBDB"/>
<path d="M109.025 63.0234H108.128V64.8121H109.025V63.0234Z" fill="#DBDBDB"/>
<path d="M110.612 63.0234H109.716V64.8121H110.612V63.0234Z" fill="#DBDBDB"/>
<path d="M107.433 65.9233H106.536V67.7074H107.433V65.9233Z" fill="#DBDBDB"/>
<path d="M109.025 65.9233H108.128V67.7074H109.025V65.9233Z" fill="#DBDBDB"/>
<path d="M110.612 65.9233H109.716V67.7074H110.612V65.9233Z" fill="#DBDBDB"/>
<path d="M107.433 68.8286H106.536V70.6127H107.433V68.8286Z" fill="#DBDBDB"/>
<path d="M109.025 68.8286H108.128V70.6127H109.025V68.8286Z" fill="#DBDBDB"/>
<path d="M110.612 68.8286H109.716V70.6127H110.612V68.8286Z" fill="#DBDBDB"/>
<path d="M107.433 71.7329H106.536V73.5216H107.433V71.7329Z" fill="#DBDBDB"/>
<path d="M109.025 71.7329H108.128V73.5216H109.025V71.7329Z" fill="#DBDBDB"/>
<path d="M110.612 71.7329H109.716V73.5216H110.612V71.7329Z" fill="#DBDBDB"/>
<path d="M107.433 74.6333H106.536V76.4174H107.433V74.6333Z" fill="#DBDBDB"/>
<path d="M109.025 74.6333H108.128V76.4174H109.025V74.6333Z" fill="#DBDBDB"/>
<path d="M110.612 74.6333H109.716V76.4174H110.612V74.6333Z" fill="#DBDBDB"/>
<path d="M107.433 77.5381H106.536V79.3222H107.433V77.5381Z" fill="#DBDBDB"/>
<path d="M109.025 77.5381H108.128V79.3222H109.025V77.5381Z" fill="#DBDBDB"/>
<path d="M110.612 77.5381H109.716V79.3222H110.612V77.5381Z" fill="#DBDBDB"/>
<path d="M107.433 80.4385H106.536V82.2226H107.433V80.4385Z" fill="#DBDBDB"/>
<path d="M109.025 80.4385H108.128V82.2226H109.025V80.4385Z" fill="#DBDBDB"/>
<path d="M110.612 80.4385H109.716V82.2226H110.612V80.4385Z" fill="#DBDBDB"/>
<path d="M107.433 83.3433H106.536V85.1273H107.433V83.3433Z" fill="#DBDBDB"/>
<path d="M109.025 83.3433H108.128V85.1273H109.025V83.3433Z" fill="#DBDBDB"/>
<path d="M110.612 83.3433H109.716V85.1273H110.612V83.3433Z" fill="#DBDBDB"/>
<path d="M107.433 86.248H106.536V87.3597H107.433V86.248Z" fill="#DBDBDB"/>
<path d="M109.025 86.248H108.128V87.3597H109.025V86.248Z" fill="#DBDBDB"/>
<path d="M110.612 86.248H109.716V87.3597H110.612V86.248Z" fill="#DBDBDB"/>
<path d="M86.2754 61.2163H77.4648V87.3598H86.2754V61.2163Z" fill="#EBEBEB"/>
<path d="M86.2749 59.0024H78.7178V61.2211H86.2749V59.0024Z" fill="#C7C7C7"/>
<path d="M85.3147 62.3735H78.4346V87.3597H85.3147V62.3735Z" fill="#DBDBDB"/>
<path d="M85.3147 64.7617H78.4346V65.3518H85.3147V64.7617Z" fill="white"/>
<path d="M85.3147 67.2041H78.4346V67.7942H85.3147V67.2041Z" fill="white"/>
<path d="M85.3147 69.6519H78.4346V70.242H85.3147V69.6519Z" fill="white"/>
<path d="M85.3147 72.0947H78.4346V72.6848H85.3147V72.0947Z" fill="white"/>
<path d="M85.3147 74.542H78.4346V75.1321H85.3147V74.542Z" fill="white"/>
<path d="M85.3147 76.9893H78.4346V77.5794H85.3147V76.9893Z" fill="white"/>
<path d="M85.3147 79.4321H78.4346V80.0222H85.3147V79.4321Z" fill="white"/>
<path d="M85.3147 81.8794H78.4346V82.4695H85.3147V81.8794Z" fill="white"/>
<path d="M85.3147 84.3223H78.4346V84.9124H85.3147V84.3223Z" fill="white"/>
<path d="M85.3147 86.7695H78.4346V87.3597H85.3147V86.7695Z" fill="white"/>
<path d="M91.8008 61.2163H86.2793V87.3598H91.8008V61.2163Z" fill="#DBDBDB"/>
<path d="M90.9728 59.0024H86.2793V61.2211H90.9728V59.0024Z" fill="#A6A6A6"/>
<path d="M91.2842 62.3735H87.0391V87.3597H91.2842V62.3735Z" fill="#C7C7C7"/>
<path d="M91.2842 64.7617H87.0391V65.3518H91.2842V64.7617Z" fill="white"/>
<path d="M91.2842 67.2041H87.0391V67.7942H91.2842V67.2041Z" fill="white"/>
<path d="M91.2842 69.6519H87.0391V70.242H91.2842V69.6519Z" fill="white"/>
<path d="M91.2842 72.0947H87.0391V72.6848H91.2842V72.0947Z" fill="white"/>
<path d="M91.2842 74.542H87.0391V75.1321H91.2842V74.542Z" fill="white"/>
<path d="M91.2842 76.9893H87.0391V77.5794H91.2842V76.9893Z" fill="white"/>
<path d="M91.2842 79.4321H87.0391V80.0222H91.2842V79.4321Z" fill="white"/>
<path d="M91.2842 81.8794H87.0391V82.4695H91.2842V81.8794Z" fill="white"/>
<path d="M91.2842 84.3223H87.0391V84.9124H91.2842V84.3223Z" fill="white"/>
<path d="M91.2842 86.7695H87.0391V87.3597H91.2842V86.7695Z" fill="white"/>
<path d="M136.234 61.2163H127.424V87.3598H136.234V61.2163Z" fill="#EBEBEB"/>
<path d="M136.234 59.0024H128.677V61.2211H136.234V59.0024Z" fill="#C7C7C7"/>
<path d="M135.274 62.3735H128.394V87.3597H135.274V62.3735Z" fill="#DBDBDB"/>
<path d="M135.274 64.7617H128.394V65.3518H135.274V64.7617Z" fill="white"/>
<path d="M135.274 67.2041H128.394V67.7942H135.274V67.2041Z" fill="white"/>
<path d="M135.274 69.6519H128.394V70.242H135.274V69.6519Z" fill="white"/>
<path d="M135.274 72.0947H128.394V72.6848H135.274V72.0947Z" fill="white"/>
<path d="M135.274 74.542H128.394V75.1321H135.274V74.542Z" fill="white"/>
<path d="M135.274 76.9893H128.394V77.5794H135.274V76.9893Z" fill="white"/>
<path d="M135.274 79.4321H128.394V80.0222H135.274V79.4321Z" fill="white"/>
<path d="M135.274 81.8794H128.394V82.4695H135.274V81.8794Z" fill="white"/>
<path d="M135.274 84.3223H128.394V84.9124H135.274V84.3223Z" fill="white"/>
<path d="M135.274 86.7695H128.394V87.3597H135.274V86.7695Z" fill="white"/>
<path d="M141.76 61.2163H136.238V87.3598H141.76V61.2163Z" fill="#DBDBDB"/>
<path d="M140.932 59.0024H136.238V61.2211H140.932V59.0024Z" fill="#A6A6A6"/>
<path d="M141.243 62.3735H136.998V87.3597H141.243V62.3735Z" fill="#C7C7C7"/>
<path d="M141.243 64.7617H136.998V65.3518H141.243V64.7617Z" fill="white"/>
<path d="M141.243 67.2041H136.998V67.7942H141.243V67.2041Z" fill="white"/>
<path d="M141.243 69.6519H136.998V70.242H141.243V69.6519Z" fill="white"/>
<path d="M141.243 72.0947H136.998V72.6848H141.243V72.0947Z" fill="white"/>
<path d="M141.243 74.542H136.998V75.1321H141.243V74.542Z" fill="white"/>
<path d="M141.243 76.9893H136.998V77.5794H141.243V76.9893Z" fill="white"/>
<path d="M141.243 79.4321H136.998V80.0222H141.243V79.4321Z" fill="white"/>
<path d="M141.243 81.8794H136.998V82.4695H141.243V81.8794Z" fill="white"/>
<path d="M141.243 84.3223H136.998V84.9124H141.243V84.3223Z" fill="white"/>
<path d="M141.243 86.7695H136.998V87.3597H141.243V86.7695Z" fill="white"/>
<path d="M112.163 59.1899H104.23V87.3646H112.163V59.1899Z" fill="#DBDBDB"/>
<path d="M106.884 60.7314H105.479V61.8248H106.884V60.7314Z" fill="#C7C7C7"/>
<path d="M106.884 63.0601H105.479V64.1534H106.884V63.0601Z" fill="#C7C7C7"/>
<path d="M106.884 65.3926H105.479V66.4859H106.884V65.3926Z" fill="#C7C7C7"/>
<path d="M106.884 67.7261H105.479V68.8194H106.884V67.7261Z" fill="#C7C7C7"/>
<path d="M106.884 70.0591H105.479V71.1524H106.884V70.0591Z" fill="#C7C7C7"/>
<path d="M106.884 72.3872H105.479V73.4805H106.884V72.3872Z" fill="#C7C7C7"/>
<path d="M106.884 74.7202H105.479V75.8135H106.884V74.7202Z" fill="#C7C7C7"/>
<path d="M108.905 60.7314H107.501V61.8248H108.905V60.7314Z" fill="#C7C7C7"/>
<path d="M108.905 63.0601H107.501V64.1534H108.905V63.0601Z" fill="#C7C7C7"/>
<path d="M108.905 65.3926H107.501V66.4859H108.905V65.3926Z" fill="#C7C7C7"/>
<path d="M108.905 67.7261H107.501V68.8194H108.905V67.7261Z" fill="#C7C7C7"/>
<path d="M108.905 70.0591H107.501V71.1524H108.905V70.0591Z" fill="#C7C7C7"/>
<path d="M108.905 72.3872H107.501V73.4805H108.905V72.3872Z" fill="#C7C7C7"/>
<path d="M108.905 74.7202H107.501V75.8135H108.905V74.7202Z" fill="#C7C7C7"/>
<path d="M110.918 60.7314H109.514V61.8248H110.918V60.7314Z" fill="#C7C7C7"/>
<path d="M110.918 63.0601H109.514V64.1534H110.918V63.0601Z" fill="#C7C7C7"/>
<path d="M110.918 65.3926H109.514V66.4859H110.918V65.3926Z" fill="#C7C7C7"/>
<path d="M110.918 67.7261H109.514V68.8194H110.918V67.7261Z" fill="#C7C7C7"/>
<path d="M110.918 70.0591H109.514V71.1524H110.918V70.0591Z" fill="#C7C7C7"/>
<path d="M110.918 72.3872H109.514V73.4805H110.918V72.3872Z" fill="#C7C7C7"/>
<path d="M110.918 74.7202H109.514V75.8135H110.918V74.7202Z" fill="#C7C7C7"/>
<path d="M106.884 77.0532H105.479V78.1465H106.884V77.0532Z" fill="#C7C7C7"/>
<path d="M108.905 77.0532H107.501V78.1465H108.905V77.0532Z" fill="#C7C7C7"/>
<path d="M110.918 77.0532H109.514V78.1465H110.918V77.0532Z" fill="#C7C7C7"/>
<path d="M106.884 79.3818H105.479V80.4752H106.884V79.3818Z" fill="#C7C7C7"/>
<path d="M108.905 79.3818H107.501V80.4752H108.905V79.3818Z" fill="#C7C7C7"/>
<path d="M110.918 79.3818H109.514V80.4752H110.918V79.3818Z" fill="#C7C7C7"/>
<path d="M106.884 81.7148H105.479V82.8082H106.884V81.7148Z" fill="#C7C7C7"/>
<path d="M108.905 81.7148H107.501V82.8082H108.905V81.7148Z" fill="#C7C7C7"/>
<path d="M110.918 81.7148H109.514V82.8082H110.918V81.7148Z" fill="#C7C7C7"/>
<path d="M106.884 84.0479H105.479V85.1412H106.884V84.0479Z" fill="#C7C7C7"/>
<path d="M108.905 84.0479H107.501V85.1412H108.905V84.0479Z" fill="#C7C7C7"/>
<path d="M110.918 84.0479H109.514V85.1412H110.918V84.0479Z" fill="#C7C7C7"/>
<path d="M117.73 59.1899H112.163V87.3646H117.73V59.1899Z" fill="#A6A6A6"/>
<path d="M116.015 75.6401H117.158V74.5468H116.015V75.6401Z" fill="#C7C7C7"/>
<path d="M116.015 73.3066H117.158V72.2133H116.015V73.3066Z" fill="#C7C7C7"/>
<path d="M116.015 70.9736H117.158V69.8803H116.015V70.9736Z" fill="#C7C7C7"/>
<path d="M116.015 68.6411H117.158V67.5478H116.015V68.6411Z" fill="#C7C7C7"/>
<path d="M116.015 66.3125H117.158V65.2192H116.015V66.3125Z" fill="#C7C7C7"/>
<path d="M116.015 63.9795H117.158V62.8862H116.015V63.9795Z" fill="#C7C7C7"/>
<path d="M116.015 61.646H117.158V60.5527H116.015V61.646Z" fill="#C7C7C7"/>
<path d="M114.372 75.6401H115.516V74.5468H114.372V75.6401Z" fill="#C7C7C7"/>
<path d="M114.372 73.3066H115.516V72.2133H114.372V73.3066Z" fill="#C7C7C7"/>
<path d="M114.372 70.9736H115.516V69.8803H114.372V70.9736Z" fill="#C7C7C7"/>
<path d="M114.372 68.6411H115.516V67.5478H114.372V68.6411Z" fill="#C7C7C7"/>
<path d="M114.372 66.3125H115.516V65.2192H114.372V66.3125Z" fill="#C7C7C7"/>
<path d="M114.372 63.9795H115.516V62.8862H114.372V63.9795Z" fill="#C7C7C7"/>
<path d="M114.372 61.646H115.516V60.5527H114.372V61.646Z" fill="#C7C7C7"/>
<path d="M112.734 75.6401H113.878V74.5468H112.734V75.6401Z" fill="#C7C7C7"/>
<path d="M112.734 73.3066H113.878V72.2133H112.734V73.3066Z" fill="#C7C7C7"/>
<path d="M116.015 77.9683H117.158V76.8749H116.015V77.9683Z" fill="#C7C7C7"/>
<path d="M114.372 77.9683H115.516V76.8749H114.372V77.9683Z" fill="#C7C7C7"/>
<path d="M112.734 77.9683H113.878V76.8749H112.734V77.9683Z" fill="#C7C7C7"/>
<path d="M116.015 80.3013H117.158V79.208H116.015V80.3013Z" fill="#C7C7C7"/>
<path d="M114.372 80.3013H115.516V79.208H114.372V80.3013Z" fill="#C7C7C7"/>
<path d="M112.734 80.3013H113.878V79.208H112.734V80.3013Z" fill="#C7C7C7"/>
<path d="M116.015 82.6343H117.158V81.541H116.015V82.6343Z" fill="#C7C7C7"/>
<path d="M114.372 82.6343H115.516V81.541H114.372V82.6343Z" fill="#C7C7C7"/>
<path d="M112.734 82.6343H113.878V81.541H112.734V82.6343Z" fill="#C7C7C7"/>
<path d="M116.015 84.9629H117.158V83.8696H116.015V84.9629Z" fill="#C7C7C7"/>
<path d="M114.372 84.9629H115.516V83.8696H114.372V84.9629Z" fill="#C7C7C7"/>
<path d="M112.734 84.9629H113.878V83.8696H112.734V84.9629Z" fill="#C7C7C7"/>
<path d="M112.734 70.9736H113.878V69.8803H112.734V70.9736Z" fill="#C7C7C7"/>
<path d="M112.734 68.6411H113.878V67.5478H112.734V68.6411Z" fill="#C7C7C7"/>
<path d="M112.734 66.3125H113.878V65.2192H112.734V66.3125Z" fill="#C7C7C7"/>
<path d="M112.734 63.9795H113.878V62.8862H112.734V63.9795Z" fill="#C7C7C7"/>
<path d="M112.734 61.646H113.878V60.5527H112.734V61.646Z" fill="#C7C7C7"/>
<path d="M176.138 59.1899H168.206V87.3646H176.138V59.1899Z" fill="#DBDBDB"/>
<path d="M170.858 60.7314H169.454V61.8248H170.858V60.7314Z" fill="#C7C7C7"/>
<path d="M170.858 63.0601H169.454V64.1534H170.858V63.0601Z" fill="#C7C7C7"/>
<path d="M170.858 65.3926H169.454V66.4859H170.858V65.3926Z" fill="#C7C7C7"/>
<path d="M170.858 67.7261H169.454V68.8194H170.858V67.7261Z" fill="#C7C7C7"/>
<path d="M170.858 70.0591H169.454V71.1524H170.858V70.0591Z" fill="#C7C7C7"/>
<path d="M170.858 72.3872H169.454V73.4805H170.858V72.3872Z" fill="#C7C7C7"/>
<path d="M170.858 74.7202H169.454V75.8135H170.858V74.7202Z" fill="#C7C7C7"/>
<path d="M172.876 60.7314H171.472V61.8248H172.876V60.7314Z" fill="#C7C7C7"/>
<path d="M172.876 63.0601H171.472V64.1534H172.876V63.0601Z" fill="#C7C7C7"/>
<path d="M172.876 65.3926H171.472V66.4859H172.876V65.3926Z" fill="#C7C7C7"/>
<path d="M172.876 67.7261H171.472V68.8194H172.876V67.7261Z" fill="#C7C7C7"/>
<path d="M172.876 70.0591H171.472V71.1524H172.876V70.0591Z" fill="#C7C7C7"/>
<path d="M172.876 72.3872H171.472V73.4805H172.876V72.3872Z" fill="#C7C7C7"/>
<path d="M172.876 74.7202H171.472V75.8135H172.876V74.7202Z" fill="#C7C7C7"/>
<path d="M174.894 60.7314H173.489V61.8248H174.894V60.7314Z" fill="#C7C7C7"/>
<path d="M174.894 63.0601H173.489V64.1534H174.894V63.0601Z" fill="#C7C7C7"/>
<path d="M174.894 65.3926H173.489V66.4859H174.894V65.3926Z" fill="#C7C7C7"/>
<path d="M174.894 67.7261H173.489V68.8194H174.894V67.7261Z" fill="#C7C7C7"/>
<path d="M174.894 70.0591H173.489V71.1524H174.894V70.0591Z" fill="#C7C7C7"/>
<path d="M174.894 72.3872H173.489V73.4805H174.894V72.3872Z" fill="#C7C7C7"/>
<path d="M174.894 74.7202H173.489V75.8135H174.894V74.7202Z" fill="#C7C7C7"/>
<path d="M170.858 77.0532H169.454V78.1465H170.858V77.0532Z" fill="#C7C7C7"/>
<path d="M172.876 77.0532H171.472V78.1465H172.876V77.0532Z" fill="#C7C7C7"/>
<path d="M174.894 77.0532H173.489V78.1465H174.894V77.0532Z" fill="#C7C7C7"/>
<path d="M170.858 79.3818H169.454V80.4752H170.858V79.3818Z" fill="#C7C7C7"/>
<path d="M172.876 79.3818H171.472V80.4752H172.876V79.3818Z" fill="#C7C7C7"/>
<path d="M174.894 79.3818H173.489V80.4752H174.894V79.3818Z" fill="#C7C7C7"/>
<path d="M170.858 81.7148H169.454V82.8082H170.858V81.7148Z" fill="#C7C7C7"/>
<path d="M172.876 81.7148H171.472V82.8082H172.876V81.7148Z" fill="#C7C7C7"/>
<path d="M174.894 81.7148H173.489V82.8082H174.894V81.7148Z" fill="#C7C7C7"/>
<path d="M170.858 84.0479H169.454V85.1412H170.858V84.0479Z" fill="#C7C7C7"/>
<path d="M172.876 84.0479H171.472V85.1412H172.876V84.0479Z" fill="#C7C7C7"/>
<path d="M174.894 84.0479H173.489V85.1412H174.894V84.0479Z" fill="#C7C7C7"/>
<path d="M181.705 59.1899H176.138V87.3646H181.705V59.1899Z" fill="#A6A6A6"/>
<path d="M179.994 75.6401H181.138V74.5468H179.994V75.6401Z" fill="#C7C7C7"/>
<path d="M179.994 73.3066H181.138V72.2133H179.994V73.3066Z" fill="#C7C7C7"/>
<path d="M179.994 70.9736H181.138V69.8803H179.994V70.9736Z" fill="#C7C7C7"/>
<path d="M179.994 68.6411H181.138V67.5478H179.994V68.6411Z" fill="#C7C7C7"/>
<path d="M179.994 66.3125H181.138V65.2192H179.994V66.3125Z" fill="#C7C7C7"/>
<path d="M179.994 63.9795H181.138V62.8862H179.994V63.9795Z" fill="#C7C7C7"/>
<path d="M179.994 61.646H181.138V60.5527H179.994V61.646Z" fill="#C7C7C7"/>
<path d="M178.348 75.6401H179.491V74.5468H178.348V75.6401Z" fill="#C7C7C7"/>
<path d="M178.348 73.3066H179.491V72.2133H178.348V73.3066Z" fill="#C7C7C7"/>
<path d="M178.348 70.9736H179.491V69.8803H178.348V70.9736Z" fill="#C7C7C7"/>
<path d="M178.348 68.6411H179.491V67.5478H178.348V68.6411Z" fill="#C7C7C7"/>
<path d="M178.348 66.3125H179.491V65.2192H178.348V66.3125Z" fill="#C7C7C7"/>
<path d="M178.348 63.9795H179.491V62.8862H178.348V63.9795Z" fill="#C7C7C7"/>
<path d="M178.348 61.646H179.491V60.5527H178.348V61.646Z" fill="#C7C7C7"/>
<path d="M176.705 75.6401H177.849V74.5468H176.705V75.6401Z" fill="#C7C7C7"/>
<path d="M176.705 73.3066H177.849V72.2133H176.705V73.3066Z" fill="#C7C7C7"/>
<path d="M179.994 77.9683H181.138V76.8749H179.994V77.9683Z" fill="#C7C7C7"/>
<path d="M178.348 77.9683H179.491V76.8749H178.348V77.9683Z" fill="#C7C7C7"/>
<path d="M176.705 77.9683H177.849V76.8749H176.705V77.9683Z" fill="#C7C7C7"/>
<path d="M179.994 80.3013H181.138V79.208H179.994V80.3013Z" fill="#C7C7C7"/>
<path d="M178.348 80.3013H179.491V79.208H178.348V80.3013Z" fill="#C7C7C7"/>
<path d="M176.705 80.3013H177.849V79.208H176.705V80.3013Z" fill="#C7C7C7"/>
<path d="M179.994 82.6343H181.138V81.541H179.994V82.6343Z" fill="#C7C7C7"/>
<path d="M178.348 82.6343H179.491V81.541H178.348V82.6343Z" fill="#C7C7C7"/>
<path d="M176.705 82.6343H177.849V81.541H176.705V82.6343Z" fill="#C7C7C7"/>
<path d="M179.994 84.9629H181.138V83.8696H179.994V84.9629Z" fill="#C7C7C7"/>
<path d="M178.348 84.9629H179.491V83.8696H178.348V84.9629Z" fill="#C7C7C7"/>
<path d="M176.705 84.9629H177.849V83.8696H176.705V84.9629Z" fill="#C7C7C7"/>
<path d="M176.705 70.9736H177.849V69.8803H176.705V70.9736Z" fill="#C7C7C7"/>
<path d="M176.705 68.6411H177.849V67.5478H176.705V68.6411Z" fill="#C7C7C7"/>
<path d="M176.705 66.3125H177.849V65.2192H176.705V66.3125Z" fill="#C7C7C7"/>
<path d="M176.705 63.9795H177.849V62.8862H176.705V63.9795Z" fill="#C7C7C7"/>
<path d="M176.705 61.646H177.849V60.5527H176.705V61.646Z" fill="#C7C7C7"/>
<path d="M159.473 54.501H154.766V60.059H159.473V54.501Z" fill="#DBDBDB"/>
<path d="M162.455 54.501H159.473V60.2649H162.455V54.501Z" fill="#C7C7C7"/>
<path d="M162.652 56.9575H159.692V60.2649H162.652V56.9575Z" fill="#DBDBDB"/>
<path d="M164.5 56.9575H162.652V60.2649H164.5V56.9575Z" fill="#C7C7C7"/>
<path d="M160.571 59.7021H152.959V87.3644H160.571V59.7021Z" fill="#EBEBEB"/>
<path d="M156.22 60.8867H153.827V61.8657H156.22V60.8867Z" fill="white"/>
<path d="M159.28 60.8867H156.888V61.8657H159.28V60.8867Z" fill="white"/>
<path d="M156.22 62.5474H153.827V63.5263H156.22V62.5474Z" fill="white"/>
<path d="M159.28 62.5474H156.888V63.5263H159.28V62.5474Z" fill="white"/>
<path d="M156.22 64.208H153.827V65.187H156.22V64.208Z" fill="white"/>
<path d="M159.28 64.208H156.888V65.187H159.28V64.208Z" fill="white"/>
<path d="M156.22 65.8687H153.827V66.8476H156.22V65.8687Z" fill="white"/>
<path d="M159.28 65.8687H156.888V66.8476H159.28V65.8687Z" fill="white"/>
<path d="M156.22 67.5293H153.827V68.5082H156.22V67.5293Z" fill="white"/>
<path d="M159.28 67.5293H156.888V68.5082H159.28V67.5293Z" fill="white"/>
<path d="M156.22 69.1895H153.827V70.1684H156.22V69.1895Z" fill="white"/>
<path d="M159.28 69.1895H156.888V70.1684H159.28V69.1895Z" fill="white"/>
<path d="M156.22 70.8506H153.827V71.8295H156.22V70.8506Z" fill="white"/>
<path d="M159.28 70.8506H156.888V71.8295H159.28V70.8506Z" fill="white"/>
<path d="M156.22 72.5107H153.827V73.4897H156.22V72.5107Z" fill="white"/>
<path d="M159.28 72.5107H156.888V73.4897H159.28V72.5107Z" fill="white"/>
<path d="M156.22 74.1714H153.827V75.1503H156.22V74.1714Z" fill="white"/>
<path d="M159.28 74.1714H156.888V75.1503H159.28V74.1714Z" fill="white"/>
<path d="M156.22 75.832H153.827V76.811H156.22V75.832Z" fill="white"/>
<path d="M159.28 75.832H156.888V76.811H159.28V75.832Z" fill="white"/>
<path d="M156.22 77.4927H153.827V78.4716H156.22V77.4927Z" fill="white"/>
<path d="M159.28 77.4927H156.888V78.4716H159.28V77.4927Z" fill="white"/>
<path d="M156.22 79.1533H153.827V80.1323H156.22V79.1533Z" fill="white"/>
<path d="M159.28 79.1533H156.888V80.1323H159.28V79.1533Z" fill="white"/>
<path d="M156.22 80.8135H153.827V81.7924H156.22V80.8135Z" fill="white"/>
<path d="M159.28 80.8135H156.888V81.7924H159.28V80.8135Z" fill="white"/>
<path d="M156.22 82.4741H153.827V83.4531H156.22V82.4741Z" fill="white"/>
<path d="M159.28 82.4741H156.888V83.4531H159.28V82.4741Z" fill="white"/>
<path d="M166.737 59.7021H160.57V87.3644H166.737V59.7021Z" fill="#C7C7C7"/>
<path d="M164.153 83.4487H166.12V82.4698H164.153V83.4487Z" fill="#EBEBEB"/>
<path d="M161.636 83.4487H163.604V82.4698H161.636V83.4487Z" fill="#EBEBEB"/>
<path d="M164.153 81.7881H166.12V80.8091H164.153V81.7881Z" fill="#EBEBEB"/>
<path d="M161.636 81.7881H163.604V80.8091H161.636V81.7881Z" fill="#EBEBEB"/>
<path d="M164.153 80.1274H166.12V79.1485H164.153V80.1274Z" fill="#EBEBEB"/>
<path d="M161.636 80.1274H163.604V79.1485H161.636V80.1274Z" fill="#EBEBEB"/>
<path d="M164.153 78.4668H166.12V77.4878H164.153V78.4668Z" fill="#EBEBEB"/>
<path d="M161.636 78.4668H163.604V77.4878H161.636V78.4668Z" fill="#EBEBEB"/>
<path d="M164.153 76.811H166.12V75.8321H164.153V76.811Z" fill="#EBEBEB"/>
<path d="M161.636 76.811H163.604V75.8321H161.636V76.811Z" fill="#EBEBEB"/>
<path d="M164.153 75.1504H166.12V74.1714H164.153V75.1504Z" fill="#EBEBEB"/>
<path d="M161.636 75.1504H163.604V74.1714H161.636V75.1504Z" fill="#EBEBEB"/>
<path d="M164.153 73.4897H166.12V72.5108H164.153V73.4897Z" fill="#EBEBEB"/>
<path d="M161.636 73.4897H163.604V72.5108H161.636V73.4897Z" fill="#EBEBEB"/>
<path d="M164.153 71.8291H166.12V70.8501H164.153V71.8291Z" fill="#EBEBEB"/>
<path d="M161.636 71.8291H163.604V70.8501H161.636V71.8291Z" fill="#EBEBEB"/>
<path d="M164.153 70.1685H166.12V69.1895H164.153V70.1685Z" fill="#EBEBEB"/>
<path d="M161.636 70.1685H163.604V69.1895H161.636V70.1685Z" fill="#EBEBEB"/>
<path d="M164.153 68.5083H166.12V67.5293H164.153V68.5083Z" fill="#EBEBEB"/>
<path d="M161.636 68.5083H163.604V67.5293H161.636V68.5083Z" fill="#EBEBEB"/>
<path d="M164.153 66.8477H166.12V65.8687H164.153V66.8477Z" fill="#EBEBEB"/>
<path d="M161.636 66.8477H163.604V65.8687H161.636V66.8477Z" fill="#EBEBEB"/>
<path d="M164.153 65.187H166.12V64.2081H164.153V65.187Z" fill="#EBEBEB"/>
<path d="M161.636 65.187H163.604V64.2081H161.636V65.187Z" fill="#EBEBEB"/>
<path d="M164.153 63.5312H166.12V62.5523H164.153V63.5312Z" fill="#EBEBEB"/>
<path d="M161.636 63.5312H163.604V62.5523H161.636V63.5312Z" fill="#EBEBEB"/>
<path d="M164.153 61.8701H166.12V60.8912H164.153V61.8701Z" fill="#EBEBEB"/>
<path d="M161.636 61.8701H163.604V60.8912H161.636V61.8701Z" fill="#EBEBEB"/>
<path d="M128.206 69.3359H119.23V87.3596H128.206V69.3359Z" fill="#C7C7C7"/>
<path d="M122.231 70.896H120.644V71.9985H122.231V70.896Z" fill="#DBDBDB"/>
<path d="M122.231 73.2563H120.644V74.3588H122.231V73.2563Z" fill="#DBDBDB"/>
<path d="M122.231 75.6123H120.644V76.7148H122.231V75.6123Z" fill="#DBDBDB"/>
<path d="M122.231 77.9727H120.644V79.0751H122.231V77.9727Z" fill="#DBDBDB"/>
<path d="M122.231 80.3335H120.644V81.436H122.231V80.3335Z" fill="#DBDBDB"/>
<path d="M122.231 82.6895H120.644V83.7919H122.231V82.6895Z" fill="#DBDBDB"/>
<path d="M122.231 85.0498H120.644V86.1523H122.231V85.0498Z" fill="#DBDBDB"/>
<path d="M124.514 70.896H122.927V71.9985H124.514V70.896Z" fill="#DBDBDB"/>
<path d="M124.514 73.2563H122.927V74.3588H124.514V73.2563Z" fill="#DBDBDB"/>
<path d="M124.514 75.6123H122.927V76.7148H124.514V75.6123Z" fill="#DBDBDB"/>
<path d="M124.514 77.9727H122.927V79.0751H124.514V77.9727Z" fill="#DBDBDB"/>
<path d="M124.514 80.3335H122.927V81.436H124.514V80.3335Z" fill="#DBDBDB"/>
<path d="M124.514 82.6895H122.927V83.7919H124.514V82.6895Z" fill="#DBDBDB"/>
<path d="M124.514 85.0498H122.927V86.1523H124.514V85.0498Z" fill="#DBDBDB"/>
<path d="M126.796 70.896H125.209V71.9985H126.796V70.896Z" fill="#DBDBDB"/>
<path d="M126.796 73.2563H125.209V74.3588H126.796V73.2563Z" fill="#DBDBDB"/>
<path d="M126.796 75.6123H125.209V76.7148H126.796V75.6123Z" fill="#DBDBDB"/>
<path d="M126.796 77.9727H125.209V79.0751H126.796V77.9727Z" fill="#DBDBDB"/>
<path d="M126.796 80.3335H125.209V81.436H126.796V80.3335Z" fill="#DBDBDB"/>
<path d="M126.796 82.6895H125.209V83.7919H126.796V82.6895Z" fill="#DBDBDB"/>
<path d="M126.796 85.0498H125.209V86.1523H126.796V85.0498Z" fill="#DBDBDB"/>
<path d="M128.206 67.4604H122.231V69.3406H128.206V67.4604Z" fill="#DBDBDB"/>
<path d="M128.206 66.2939H124.418V67.4559H128.206V66.2939Z" fill="#EBEBEB"/>
<path d="M134.509 69.3359H128.21V87.3596H134.509V69.3359Z" fill="#A6A6A6"/>
<path d="M132.566 85.9785H133.86V84.876H132.566V85.9785Z" fill="#C7C7C7"/>
<path d="M132.566 83.6177H133.86V82.5152H132.566V83.6177Z" fill="#C7C7C7"/>
<path d="M132.566 81.2573H133.86V80.1549H132.566V81.2573Z" fill="#C7C7C7"/>
<path d="M132.566 78.9014H133.86V77.7989H132.566V78.9014Z" fill="#C7C7C7"/>
<path d="M132.566 76.541H133.86V75.4386H132.566V76.541Z" fill="#C7C7C7"/>
<path d="M132.566 74.1851H133.86V73.0826H132.566V74.1851Z" fill="#C7C7C7"/>
<path d="M132.566 71.8247H133.86V70.7222H132.566V71.8247Z" fill="#C7C7C7"/>
<path d="M130.708 85.9785H132.003V84.876H130.708V85.9785Z" fill="#C7C7C7"/>
<path d="M130.708 83.6177H132.003V82.5152H130.708V83.6177Z" fill="#C7C7C7"/>
<path d="M130.708 81.2573H132.003V80.1549H130.708V81.2573Z" fill="#C7C7C7"/>
<path d="M130.708 78.9014H132.003V77.7989H130.708V78.9014Z" fill="#C7C7C7"/>
<path d="M130.708 76.541H132.003V75.4386H130.708V76.541Z" fill="#C7C7C7"/>
<path d="M130.708 74.1851H132.003V73.0826H130.708V74.1851Z" fill="#C7C7C7"/>
<path d="M130.708 71.8247H132.003V70.7222H130.708V71.8247Z" fill="#C7C7C7"/>
<path d="M128.851 85.9785H130.146V84.876H128.851V85.9785Z" fill="#C7C7C7"/>
<path d="M128.851 83.6177H130.146V82.5152H128.851V83.6177Z" fill="#C7C7C7"/>
<path d="M128.851 81.2573H130.146V80.1549H128.851V81.2573Z" fill="#C7C7C7"/>
<path d="M128.851 78.9014H130.146V77.7989H128.851V78.9014Z" fill="#C7C7C7"/>
<path d="M128.851 76.541H130.146V75.4386H128.851V76.541Z" fill="#C7C7C7"/>
<path d="M128.851 74.1851H130.146V73.0826H128.851V74.1851Z" fill="#C7C7C7"/>
<path d="M128.851 71.8247H130.146V70.7222H128.851V71.8247Z" fill="#C7C7C7"/>
<path d="M133.553 67.4604H128.21V69.3406H133.553V67.4604Z" fill="#C7C7C7"/>
<path d="M131.106 66.2939H128.21V67.4559H131.106V66.2939Z" fill="#DBDBDB"/>
<path d="M187.322 69.3359H178.347V87.3596H187.322V69.3359Z" fill="#C7C7C7"/>
<path d="M181.348 70.896H179.761V71.9985H181.348V70.896Z" fill="#DBDBDB"/>
<path d="M181.348 73.2563H179.761V74.3588H181.348V73.2563Z" fill="#DBDBDB"/>
<path d="M181.348 75.6123H179.761V76.7148H181.348V75.6123Z" fill="#DBDBDB"/>
<path d="M181.348 77.9727H179.761V79.0751H181.348V77.9727Z" fill="#DBDBDB"/>
<path d="M181.348 80.3335H179.761V81.436H181.348V80.3335Z" fill="#DBDBDB"/>
<path d="M181.348 82.6895H179.761V83.7919H181.348V82.6895Z" fill="#DBDBDB"/>
<path d="M181.348 85.0498H179.761V86.1523H181.348V85.0498Z" fill="#DBDBDB"/>
<path d="M183.631 70.896H182.044V71.9985H183.631V70.896Z" fill="#DBDBDB"/>
<path d="M183.631 73.2563H182.044V74.3588H183.631V73.2563Z" fill="#DBDBDB"/>
<path d="M183.631 75.6123H182.044V76.7148H183.631V75.6123Z" fill="#DBDBDB"/>
<path d="M183.631 77.9727H182.044V79.0751H183.631V77.9727Z" fill="#DBDBDB"/>
<path d="M183.631 80.3335H182.044V81.436H183.631V80.3335Z" fill="#DBDBDB"/>
<path d="M183.631 82.6895H182.044V83.7919H183.631V82.6895Z" fill="#DBDBDB"/>
<path d="M183.631 85.0498H182.044V86.1523H183.631V85.0498Z" fill="#DBDBDB"/>
<path d="M185.914 70.896H184.326V71.9985H185.914V70.896Z" fill="#DBDBDB"/>
<path d="M185.914 73.2563H184.326V74.3588H185.914V73.2563Z" fill="#DBDBDB"/>
<path d="M185.914 75.6123H184.326V76.7148H185.914V75.6123Z" fill="#DBDBDB"/>
<path d="M185.914 77.9727H184.326V79.0751H185.914V77.9727Z" fill="#DBDBDB"/>
<path d="M185.914 80.3335H184.326V81.436H185.914V80.3335Z" fill="#DBDBDB"/>
<path d="M185.914 82.6895H184.326V83.7919H185.914V82.6895Z" fill="#DBDBDB"/>
<path d="M185.914 85.0498H184.326V86.1523H185.914V85.0498Z" fill="#DBDBDB"/>
<path d="M187.327 67.4604H181.348V69.3406H187.327V67.4604Z" fill="#DBDBDB"/>
<path d="M187.323 66.2939H183.535V67.4559H187.323V66.2939Z" fill="#EBEBEB"/>
<path d="M193.621 69.3359H187.322V87.3596H193.621V69.3359Z" fill="#A6A6A6"/>
<path d="M191.682 85.9785H192.977V84.876H191.682V85.9785Z" fill="#C7C7C7"/>
<path d="M191.682 83.6177H192.977V82.5152H191.682V83.6177Z" fill="#C7C7C7"/>
<path d="M191.682 81.2573H192.977V80.1549H191.682V81.2573Z" fill="#C7C7C7"/>
<path d="M191.682 78.9014H192.977V77.7989H191.682V78.9014Z" fill="#C7C7C7"/>
<path d="M191.682 76.541H192.977V75.4386H191.682V76.541Z" fill="#C7C7C7"/>
<path d="M191.682 74.1851H192.977V73.0826H191.682V74.1851Z" fill="#C7C7C7"/>
<path d="M191.682 71.8247H192.977V70.7222H191.682V71.8247Z" fill="#C7C7C7"/>
<path d="M189.825 85.9785H191.119V84.876H189.825V85.9785Z" fill="#C7C7C7"/>
<path d="M189.825 83.6177H191.119V82.5152H189.825V83.6177Z" fill="#C7C7C7"/>
<path d="M189.825 81.2573H191.119V80.1549H189.825V81.2573Z" fill="#C7C7C7"/>
<path d="M189.825 78.9014H191.119V77.7989H189.825V78.9014Z" fill="#C7C7C7"/>
<path d="M189.825 76.541H191.119V75.4386H189.825V76.541Z" fill="#C7C7C7"/>
<path d="M189.825 74.1851H191.119V73.0826H189.825V74.1851Z" fill="#C7C7C7"/>
<path d="M189.825 71.8247H191.119V70.7222H189.825V71.8247Z" fill="#C7C7C7"/>
<path d="M187.972 85.9785H189.267V84.876H187.972V85.9785Z" fill="#C7C7C7"/>
<path d="M187.972 83.6177H189.267V82.5152H187.972V83.6177Z" fill="#C7C7C7"/>
<path d="M187.972 81.2573H189.267V80.1549H187.972V81.2573Z" fill="#C7C7C7"/>
<path d="M187.972 78.9014H189.267V77.7989H187.972V78.9014Z" fill="#C7C7C7"/>
<path d="M187.972 76.541H189.267V75.4386H187.972V76.541Z" fill="#C7C7C7"/>
<path d="M187.972 74.1851H189.267V73.0826H187.972V74.1851Z" fill="#C7C7C7"/>
<path d="M187.972 71.8247H189.267V70.7222H187.972V71.8247Z" fill="#C7C7C7"/>
<path d="M192.665 67.4604H187.322V69.3406H192.665V67.4604Z" fill="#C7C7C7"/>
<path d="M190.218 66.2939H187.322V67.4559H190.218V66.2939Z" fill="#DBDBDB"/>
<path d="M0 87.3601L24.2039 87.2503L48.4033 87.2091L96.8111 87.1313L145.219 87.2091L169.423 87.2503L193.622 87.3601L169.423 87.4744L145.219 87.511L96.8111 87.5888L48.4033 87.511L24.2039 87.4699L0 87.3601Z" fill="#263238"/>
<path d="M128.463 96.7651H110.394L4.66211 199.404H94.067L128.463 96.7651Z" fill="#ED8D34"/>
<path d="M139.072 96.765H99.79L127.15 87.561L139.072 96.765Z" fill="#ED8D34"/>
<path d="M52.1505 109.327L40.8926 112.533L65.6317 148.329L84.5566 126.646L52.1505 109.327Z" fill="#ED8D34"/>
<path d="M62.5254 106.372L28.6143 116.033L37.4431 105.155L62.5254 106.372Z" fill="#ED8D34"/>
<path d="M165.618 109.327L171.491 112.533L86.6885 157.204L104.15 126.646L165.618 109.327Z" fill="#ED8D34"/>
<path d="M160.201 106.372L177.9 116.033L187.328 105.155L160.201 106.372Z" fill="#ED8D34"/>
<g opacity="0.6">
<path opacity="0.6" d="M128.463 96.7651H110.394L4.66211 199.404H94.067L128.463 96.7651Z" fill="white"/>
<path opacity="0.6" d="M139.072 96.765H99.79L127.15 87.561L139.072 96.765Z" fill="white"/>
<path opacity="0.6" d="M52.1505 109.327L40.8926 112.533L65.6317 148.329L84.5566 126.646L52.1505 109.327Z" fill="white"/>
<path opacity="0.6" d="M62.5254 106.372L28.6143 116.033L37.4431 105.155L62.5254 106.372Z" fill="white"/>
<path opacity="0.6" d="M165.618 109.327L171.491 112.533L86.6885 157.204L104.15 126.646L165.618 109.327Z" fill="white"/>
<path opacity="0.6" d="M160.201 106.372L177.9 116.033L187.328 105.155L160.201 106.372Z" fill="white"/>
</g>
<path d="M62.6396 208C95.4228 208 121.999 205.811 121.999 203.11C121.999 200.409 95.4228 198.22 62.6396 198.22C29.8563 198.22 3.28027 200.409 3.28027 203.11C3.28027 205.811 29.8563 208 62.6396 208Z" fill="#DBDBDB"/>
<path d="M6.78845 171.609C6.78845 171.609 4.62012 191.911 4.62012 191.924C4.69331 195.671 4.82597 198.96 5.07757 200.653C5.07543 200.662 5.07543 200.671 5.07757 200.68C5.08721 201.083 5.19059 201.477 5.37949 201.833C6.51398 202.565 28.5221 202.844 29.5697 202.501C30.6173 202.158 29.7252 199.143 28.5724 198.201C27.4197 197.258 23.9567 192.057 23.9567 192.057L25.9375 171.774L6.78845 171.609Z" fill="#F7A9A0"/>
<path d="M25.0456 192.977C23.1425 192.3 20.6906 192.222 18.966 193.384C18.9019 193.43 18.966 193.521 19.03 193.512C20.9967 193.208 22.99 193.111 24.9769 193.224C25.0097 193.233 25.0447 193.229 25.0743 193.212C25.1039 193.195 25.1257 193.168 25.1348 193.135C25.1439 193.102 25.1396 193.067 25.1228 193.037C25.1061 193.008 25.0783 192.986 25.0456 192.977Z" fill="#263238"/>
<path d="M26.3308 194.057C24.4232 193.38 21.9712 193.302 20.2512 194.464C20.1826 194.509 20.2512 194.601 20.3152 194.592C22.2819 194.287 24.2752 194.19 26.2621 194.304C26.2949 194.313 26.3299 194.308 26.3595 194.292C26.3891 194.275 26.4109 194.247 26.42 194.214C26.4291 194.182 26.4248 194.147 26.4081 194.117C26.3913 194.087 26.3635 194.066 26.3308 194.057Z" fill="#263238"/>
<path d="M27.612 195.136C25.7044 194.459 23.257 194.381 21.5324 195.543C21.4638 195.589 21.5324 195.681 21.5965 195.671C23.5627 195.362 25.5565 195.265 27.5434 195.383C27.5762 195.392 27.6112 195.388 27.6408 195.371C27.6704 195.355 27.6921 195.327 27.7012 195.294C27.7103 195.261 27.706 195.226 27.6893 195.197C27.6726 195.167 27.6448 195.145 27.612 195.136Z" fill="#263238"/>
<path d="M30.0684 202.661C29.0208 203.008 6.51403 202.606 5.36582 201.869C4.90837 201.595 4.71623 197.226 4.60645 191.938V191.769L23.9659 191.737V192.066C23.9659 192.066 27.9183 197.428 29.0803 198.37C30.2422 199.312 31.1205 202.322 30.0684 202.661Z" fill="#37474F"/>
<path d="M4.61523 191.769V191.938C4.72502 197.226 4.93545 201.6 5.37461 201.87C5.88696 202.204 12.392 202.441 19.4139 202.574C27.8219 202.73 29.4779 202.853 30.068 202.666C31.1156 202.323 30.2144 199.303 29.0662 198.366C27.918 197.428 23.9518 192.062 23.9518 192.062V191.732H17.4972L4.61523 191.769Z" fill="#455A64"/>
<path d="M29.7439 201.499C24.7119 201.326 11.7705 200.992 6.76135 201.207C6.72018 201.207 6.72018 201.234 6.76135 201.239C11.7659 201.518 24.6844 201.696 29.7439 201.582C29.8491 201.577 29.8491 201.499 29.7439 201.499Z" fill="#263238"/>
<path opacity="0.1" d="M17.5156 191.737C18.0417 194.966 18.8422 199.729 19.4186 202.565C27.8266 202.72 29.4826 202.844 30.0728 202.656C31.1203 202.313 30.2191 199.294 29.0709 198.356C27.9227 197.418 23.9566 192.053 23.9566 192.053V191.723L17.5156 191.737Z" fill="#292626"/>
<path d="M3.27539 192.13L24.9908 191.97C24.9908 191.97 27.0585 154.326 28.1929 142.602C29.5928 127.936 31.3951 91.335 31.3951 91.335H12.8865C12.8865 91.335 8.6825 100.301 11.3357 110.269L8.64133 146.257L3.27539 192.13Z" fill="#263238"/>
<path d="M5.11412 188.302C5.68575 188.217 6.26139 188.162 6.83873 188.137C7.47916 188.082 8.1196 188.023 8.76004 187.986C9.99517 187.913 11.2257 187.872 12.4608 187.844C14.954 187.794 17.4425 187.771 19.9357 187.808C21.3492 187.808 22.7673 187.858 24.1854 187.917C24.1946 187.92 24.2025 187.926 24.2082 187.934C24.2138 187.942 24.2169 187.951 24.2169 187.961C24.2169 187.97 24.2138 187.98 24.2082 187.988C24.2025 187.995 24.1946 188.001 24.1854 188.004C21.7197 188.137 19.2495 188.215 16.7792 188.306C14.309 188.398 11.8433 188.485 9.3776 188.48C8.66855 188.48 7.95949 188.48 7.25501 188.453C6.55053 188.425 5.82318 188.475 5.12785 188.388C5.0821 188.379 5.0638 188.315 5.11412 188.302Z" fill="#37474F"/>
<path d="M23.7966 169.011C24.3181 163.375 24.7755 157.734 25.2147 152.085C26.09 140.801 26.7533 129.5 27.2046 118.183C27.4608 111.833 27.6621 105.484 27.7947 99.1345C27.7947 99.0613 27.8954 99.0705 27.8954 99.1345C27.8588 110.511 27.4745 121.897 26.8936 133.265C26.3126 144.633 25.5212 155.868 24.4096 167.117C23.792 173.443 23.1058 179.765 22.2275 186.055C22.2297 186.062 22.2303 186.068 22.2294 186.075C22.2285 186.081 22.226 186.087 22.2222 186.093C22.2184 186.098 22.2134 186.103 22.2075 186.106C22.2017 186.109 22.1952 186.11 22.1886 186.11C22.1821 186.11 22.1756 186.109 22.1698 186.106C22.1639 186.103 22.1589 186.098 22.1551 186.093C22.1513 186.087 22.1488 186.081 22.1479 186.075C22.1469 186.068 22.1476 186.062 22.1497 186.055C22.7033 180.392 23.2751 174.706 23.7966 169.011Z" fill="#37474F"/>
<path d="M33.6045 174.509C33.6045 174.509 34.0985 194.12 34.0985 194.134C34.1717 197.881 34.3044 201.17 34.556 202.862C34.5539 202.871 34.5539 202.881 34.556 202.89C34.5651 203.292 34.6668 203.686 34.8533 204.043V204.065C35.9833 204.802 65.9603 205.076 67.0215 204.733C68.0828 204.39 67.1771 201.376 66.0197 200.433C64.8624 199.491 53.426 194.253 53.426 194.253L52.749 174.66L33.6045 174.509Z" fill="#F7A9A0"/>
<path d="M33.998 190.108C33.998 190.108 34.0987 194.12 34.0987 194.134C34.1719 197.881 34.3045 201.17 34.5561 202.862C34.554 202.871 34.554 202.881 34.5561 202.89C34.61 203.284 34.7098 203.671 34.8535 204.042V204.065C35.9834 204.802 65.9604 205.076 67.0217 204.733C68.083 204.39 67.1772 201.376 66.0199 200.433C64.8625 199.491 53.4261 194.253 53.4261 194.253L53.3804 190.168L33.998 190.108Z" fill="white"/>
<path d="M55.2697 194.235C53.266 193.942 50.8461 194.34 49.3822 195.813C49.3274 195.868 49.4097 195.95 49.4737 195.927C51.348 195.238 53.2912 194.753 55.2697 194.482C55.2967 194.474 55.3206 194.458 55.3376 194.436C55.3546 194.414 55.3638 194.386 55.3638 194.358C55.3638 194.33 55.3546 194.303 55.3376 194.281C55.3206 194.258 55.2967 194.242 55.2697 194.235Z" fill="#263238"/>
<path d="M56.7385 195.044C54.7348 194.752 52.3149 195.149 50.8511 196.622C50.7962 196.677 50.8785 196.76 50.938 196.737C52.8141 196.05 54.7588 195.566 56.7385 195.296C56.7677 195.29 56.7941 195.275 56.8131 195.252C56.8321 195.229 56.8425 195.2 56.8425 195.17C56.8425 195.14 56.8321 195.111 56.8131 195.088C56.7941 195.066 56.7677 195.05 56.7385 195.044Z" fill="#263238"/>
<path d="M58.2063 195.854C56.2027 195.562 53.7828 195.96 52.3189 197.433C52.2594 197.487 52.3189 197.57 52.4058 197.547C54.282 196.86 56.2267 196.377 58.2063 196.106C58.2356 196.1 58.262 196.085 58.281 196.062C58.3 196.039 58.3103 196.01 58.3103 195.98C58.3103 195.95 58.3 195.922 58.281 195.899C58.262 195.876 58.2356 195.86 58.2063 195.854Z" fill="#263238"/>
<path d="M67.0262 204.733C65.9741 205.076 35.9925 204.802 34.858 204.065C34.4234 203.796 34.2084 199.422 34.0986 194.134V193.965L53.4444 193.928V194.258C53.4444 194.258 64.8624 199.514 66.0244 200.429C67.1863 201.344 68.0784 204.395 67.0262 204.733Z" fill="#455A64"/>
<path d="M66.6972 203.567C61.6652 203.398 41.2444 203.187 36.2399 203.402C36.1987 203.402 36.1987 203.43 36.2399 203.434C41.2444 203.713 61.6423 203.759 66.6972 203.649C66.8024 203.631 66.807 203.572 66.6972 203.567Z" fill="#263238"/>
<path d="M22.644 111.938C22.644 111.938 29.0163 139.843 29.2634 144.985C29.4738 149.377 32.6623 194.482 32.6623 194.482L55.1873 194.235C55.1873 194.235 49.524 148.279 49.094 143.704C48.2935 135.15 43.3896 111.769 37.6577 90.9185L13.376 91.3256C13.376 91.3256 13.7694 102.304 18.8929 110.136C18.9066 110.141 21.1802 111.147 22.644 111.938Z" fill="#263238"/>
<path d="M33.7877 190.31C36.3906 190.191 39.085 190.067 41.6925 190.09C44.3 190.113 46.8617 190.09 49.4418 190.214C50.9056 190.278 52.3649 190.301 53.8288 190.424C53.8745 190.424 53.8745 190.497 53.8288 190.502C51.235 190.694 48.623 190.708 46.0155 190.731C43.408 190.753 40.8508 190.763 38.2662 190.689C36.8023 190.648 35.343 190.598 33.8792 190.52C33.7191 190.511 33.6322 190.314 33.7877 190.31Z" fill="#37474F"/>
<path d="M28.2204 112.387C27.0993 112.396 25.9794 112.314 24.8718 112.14C23.7724 111.913 22.6853 111.631 21.6147 111.294C20.558 111.074 19.4885 110.921 18.4125 110.836C17.3313 110.698 16.2758 110.403 15.279 109.962C15.2705 109.961 15.2619 109.962 15.2542 109.966C15.2466 109.97 15.2403 109.976 15.2363 109.984C15.2323 109.991 15.2307 110 15.2318 110.008C15.2329 110.017 15.2366 110.025 15.2424 110.031C16.2079 110.529 17.2132 110.945 18.2479 111.275C19.3229 111.596 20.4391 111.623 21.5278 111.87C22.6341 112.181 23.7585 112.424 24.8947 112.597C26.0077 112.715 27.1317 112.676 28.2341 112.483C28.2798 112.451 28.2615 112.387 28.2204 112.387Z" fill="#37474F"/>
<path d="M27.9733 136.527C27.8132 135.612 27.6622 134.72 27.4884 133.823C27.1407 131.994 26.7839 130.187 26.3814 128.384C25.5854 124.798 24.8443 121.193 23.9889 117.62C23.504 115.598 23.074 113.549 22.4884 111.559C22.4884 111.509 22.4107 111.527 22.4152 111.559C22.6623 113.389 23.0648 115.219 23.4079 117.049C23.751 118.878 24.1307 120.676 24.5058 122.488C25.2606 126.088 25.988 129.693 26.8297 133.27C27.0675 134.272 27.2871 135.269 27.5707 136.266C27.8544 137.263 28.0282 138.329 28.3621 139.322C28.3621 139.333 28.3665 139.343 28.3742 139.351C28.3819 139.359 28.3924 139.363 28.4033 139.363C28.4142 139.363 28.4247 139.359 28.4324 139.351C28.4401 139.343 28.4445 139.333 28.4445 139.322C28.3484 138.366 28.138 137.446 27.9733 136.527Z" fill="#37474F"/>
<path d="M37.0771 103.215L39.3644 113.663L41.6014 124.125C42.347 127.611 43.0607 131.106 43.7789 134.601L44.8264 139.848C44.9957 140.722 45.1741 141.609 45.2839 142.501L45.5675 145.163C46.2628 152.263 46.9277 159.364 47.562 166.467L48.4769 177.126L49.3507 187.789L48.2528 177.149L47.1915 166.499L45.1192 145.209L44.8447 142.551C44.7578 141.668 44.584 140.808 44.4239 139.93L43.3946 134.683L41.2812 124.198L39.1723 113.709L37.0771 103.215Z" fill="#37474F"/>
<path d="M27.9318 64.4046C26.4268 64.551 24.8852 62.2454 24.6885 60.315C24.6885 60.1732 25.0041 58.9014 25.3747 57.3278C25.5942 56.3717 25.8321 55.2967 25.9556 54.3086L31.9712 56.6553C31.4492 57.8482 31.0744 59.1001 30.855 60.3836C30.8414 60.5205 30.8414 60.6584 30.855 60.7953C30.8527 60.8181 30.8527 60.8411 30.855 60.8639C30.8641 61.6553 29.3865 64.2582 27.9318 64.4046Z" fill="#F7A9A0"/>
<path d="M23.7005 45.9416C22.8816 48.5902 23.9429 55.2279 25.8231 56.9205C28.5678 59.409 33.0188 59.6652 35.1323 56.3853C37.1817 53.2105 35.7361 44.8345 33.6364 43.2746C30.544 40.9965 24.9127 42.0303 23.7005 45.9416Z" fill="#F7A9A0"/>
<path d="M24.0761 44.6015C24.0761 44.6015 22.5528 46.2346 22.3652 47.1861C22.1777 48.1376 22.3652 51.7881 23.9206 54.1165C24.4924 54.9582 24.4604 56.7194 25.3982 57.3187C26.336 57.918 30.5994 55.4568 30.8876 54.7295C31.1758 54.0021 30.4302 51.628 30.2701 50.6398C30.11 49.6517 31.2627 49.455 31.5738 49.6197C33.5226 50.6627 33.7513 53.2519 33.9343 52.8219C34.1173 52.3919 34.7257 51.0607 34.7623 50.1092C34.7989 49.1577 33.1109 46.2849 33.184 45.5347C33.2572 44.7844 34.3277 45.3014 35.0139 45.1824C35.4393 45.1092 35.3341 42.5475 34.7531 42.0946C34.1721 41.6417 32.9233 41.8704 32.3881 41.8338C31.8529 41.7973 31.2078 41.1111 29.7806 41.0745C28.3533 41.0379 26.6516 41.8247 25.9608 42.0946C24.863 42.5109 24.0761 44.6015 24.0761 44.6015Z" fill="#263238"/>
<path d="M33.2249 51.5002C33.2249 51.5002 31.6101 49.1214 30.535 49.6932C29.46 50.265 30.6494 53.7005 31.9074 54.1854C32.0633 54.2586 32.2324 54.2995 32.4046 54.3056C32.5767 54.3117 32.7483 54.2829 32.909 54.2209C33.0697 54.159 33.2162 54.0651 33.3397 53.945C33.4631 53.8249 33.561 53.6811 33.6274 53.5221L33.2249 51.5002Z" fill="#F7A9A0"/>
<path d="M30.8872 50.6719C30.8872 50.6719 30.8598 50.6947 30.8872 50.7039C31.7655 51.0744 32.2138 51.8979 32.5295 52.7487C32.4799 52.6595 32.4115 52.5822 32.329 52.5221C32.2466 52.4619 32.1521 52.4204 32.052 52.4004C31.9519 52.3804 31.8487 52.3824 31.7495 52.4062C31.6503 52.43 31.5574 52.4751 31.4773 52.5383C31.4724 52.5404 31.4683 52.5439 31.4653 52.5484C31.4624 52.5529 31.4608 52.5581 31.4608 52.5634C31.4608 52.5688 31.4624 52.574 31.4653 52.5785C31.4683 52.583 31.4724 52.5865 31.4773 52.5886C31.6324 52.5409 31.7985 52.5425 31.9525 52.5933C32.1066 52.6441 32.2411 52.7416 32.3373 52.8722C32.5071 53.0931 32.6514 53.3325 32.7673 53.5859C32.8085 53.6682 32.9503 53.627 32.9229 53.5355V53.5127C32.9412 52.3828 32.0903 50.8 30.8872 50.6719Z" fill="#263238"/>
<path d="M7.67636 102.374C7.69924 102.401 14.3095 104.528 16.6333 104.528C16.9901 104.528 18.1521 100.246 18.3991 100.274C18.6461 100.301 19.2317 104.752 19.5519 104.748C26.7659 104.748 41.8802 102.63 42.0449 102.46C42.2096 102.291 39.7256 93.0324 39.5152 91.8064C37.9324 82.5704 35.5125 65.9145 32.0129 61.3308C30.3981 59.2173 25.8053 58.275 24.3048 59.3042C20.4073 61.9758 18.7239 65.0499 17.2966 68.3847C16.2399 70.855 11.7706 87.8082 11.1576 90.4386C10.3891 93.746 7.5437 102.209 7.67636 102.374Z" fill="#ED8D34"/>
<path d="M29.748 66.0242C28.5906 76.3078 28.4717 83.9061 28.7645 86.0516C29.5101 91.541 32.3097 101.148 33.3847 103.243C34.0801 104.615 47.0718 103.243 46.4314 101.729C44.2539 96.5685 39.016 83.6865 38.9474 83.5036C38.4899 82.2501 37.0947 73.3343 35.2603 67.0352C33.4259 60.736 30.3381 60.8001 29.748 66.0242Z" fill="#F7A9A0"/>
<path d="M46.2026 101.083C46.2026 101.083 49.7158 110.567 49.3361 114.679C49.144 116.742 46.9116 125.2 44.8485 124.716C42.9775 124.258 44.1806 121.545 44.1806 121.545C44.1806 121.545 43.1468 124.652 41.4359 123.641C39.725 122.63 41.6143 119.217 41.6143 119.217C41.6143 119.217 40.7451 122.588 39.016 121.335C37.5109 120.246 39.2904 116.088 39.2904 116.088C39.2904 116.088 38.7644 119.748 37.1175 118.769C35.2877 117.703 37.1724 111.134 37.1724 111.134C33.7415 107.758 33.1971 105.827 33.5128 102.607C33.5448 102.076 46.2026 101.083 46.2026 101.083Z" fill="#F7A9A0"/>
<path d="M41.2301 120.196C41.3719 119.921 41.5046 119.647 41.6418 119.373C41.9189 118.843 42.1648 118.298 42.3783 117.739C42.5796 117.19 42.7534 116.637 42.909 116.079C43.0645 115.521 43.1835 114.871 43.3664 114.286C43.3685 114.28 43.3692 114.274 43.3684 114.268C43.3677 114.262 43.3655 114.257 43.3622 114.252C43.3588 114.247 43.3543 114.243 43.3491 114.24C43.3438 114.238 43.338 114.236 43.3321 114.236C43.3262 114.236 43.3204 114.238 43.3152 114.24C43.3099 114.243 43.3055 114.247 43.3021 114.252C43.2987 114.257 43.2966 114.262 43.2958 114.268C43.2951 114.274 43.2958 114.28 43.2978 114.286C43.1234 114.868 42.9172 115.441 42.6803 116.001C42.4652 116.555 42.2457 117.108 42.0261 117.662C41.8065 118.215 41.6327 118.755 41.4314 119.299C41.3308 119.574 41.2164 119.844 41.1066 120.109C40.9832 120.357 40.8822 120.616 40.8047 120.882C40.8047 120.905 40.8321 120.919 40.8504 120.882C41 120.667 41.1272 120.437 41.2301 120.196Z" fill="#263238"/>
<path d="M43.9523 122.204C44.5008 121.24 44.9823 120.238 45.3933 119.208C45.7903 118.172 46.083 117.099 46.2671 116.006C46.2671 115.997 46.2637 115.989 46.2577 115.983C46.2517 115.977 46.2435 115.974 46.235 115.974C46.2265 115.974 46.2184 115.977 46.2124 115.983C46.2064 115.989 46.203 115.997 46.203 116.006C45.8005 117.04 45.4162 118.087 45.0319 119.13C44.8398 119.642 43.9157 121.934 43.8471 122.186C43.8288 122.204 43.9203 122.232 43.9523 122.204Z" fill="#263238"/>
<path d="M38.6274 118.393C39.1225 117.476 39.5565 116.527 39.9265 115.553C40.2104 114.523 40.4168 113.475 40.5441 112.415C40.5441 112.378 40.4892 112.36 40.4801 112.415C40.1919 113.439 39.922 114.469 39.5651 115.475C39.4005 115.969 38.6502 117.895 38.5176 118.38C38.5359 118.403 38.5999 118.43 38.6274 118.393Z" fill="#263238"/>
<path d="M31.9162 103.046L46.2071 98.7366C46.2071 98.7366 39.8028 84.2811 39.1715 83.0643C38.5402 81.8474 37.0443 70.713 35.0132 65.5712C32.9821 60.4294 30.2237 59.5602 29.3042 66.4404C28.3847 73.3205 28.2978 82.7761 28.4213 85.841C28.5448 88.9059 31.9162 103.046 31.9162 103.046Z" fill="#ED8D34"/>
<path d="M44.2262 95.951C43.6864 96.0242 43.1603 96.2026 42.6251 96.3307C42.0899 96.4588 41.5684 96.6006 41.0423 96.7515C40.0267 97.0351 39.0158 97.3371 38.0094 97.6436L34.9856 98.5585C33.9426 98.8787 32.8676 99.1577 31.852 99.5603C31.8423 99.5603 31.833 99.5642 31.8261 99.571C31.8193 99.5779 31.8154 99.5872 31.8154 99.5969C31.8154 99.6066 31.8193 99.6159 31.8261 99.6228C31.833 99.6296 31.8423 99.6335 31.852 99.6335C32.9179 99.4276 33.9746 99.08 35.0222 98.7872L38.1237 97.9226C39.1576 97.6298 40.1914 97.3325 41.2207 97.0077C41.7239 96.8522 42.2271 96.6966 42.7257 96.5228C43.2362 96.372 43.7386 96.1949 44.2307 95.9921C44.2948 95.9967 44.2628 95.9464 44.2262 95.951Z" fill="#263238"/>
<path d="M33.1283 102.68L31.9252 103.087H31.884V103.046C31.1704 100.251 30.5117 97.4373 29.8804 94.624L28.9655 90.3834C28.6819 88.9652 28.3845 87.5563 28.2015 86.1062C28.0851 84.6576 28.053 83.2035 28.1055 81.7512C28.1329 80.3056 28.2061 78.8647 28.293 77.4237C28.4714 74.5417 28.7047 71.6643 29.0158 68.7915C28.8694 71.6735 28.7322 74.5554 28.6224 77.4374C28.5126 80.3194 28.3708 83.2196 28.6224 86.0513C29.0524 88.8829 29.6425 91.7191 30.2189 94.5416L31.9206 103.027L31.8703 103L33.1283 102.68Z" fill="#263238"/>
<path d="M28.4807 69.624L28.5585 70.2553L28.6499 70.8729C28.7094 71.2892 28.7872 71.7009 28.8192 72.1309C28.6229 71.7477 28.49 71.3352 28.4258 70.9095C28.3524 70.482 28.3711 70.0437 28.4807 69.624Z" fill="#263238"/>
<path d="M64.3686 35.7455C64.1507 37.8352 63.3565 39.8232 62.0744 41.4876C60.7923 43.1521 59.0729 44.4275 57.1081 45.1714C55.1433 45.9154 53.0103 46.0987 50.9474 45.7009C48.8844 45.303 46.9726 44.3397 45.4254 42.9184L39.7529 43.751L42.5937 38.8471C41.8844 37.121 41.6171 35.2452 41.8161 33.3896C41.9707 31.9088 42.4156 30.473 43.1252 29.1641C43.8348 27.8552 44.7952 26.6989 45.9517 25.7611C47.1082 24.8234 48.4381 24.1227 49.8653 23.6989C51.2926 23.2751 52.7894 23.1366 54.2703 23.2913C55.7511 23.446 57.1869 23.8909 58.4958 24.6005C59.8047 25.3101 60.961 26.2705 61.8988 27.427C62.8365 28.5835 63.5372 29.9133 63.961 31.3406C64.3848 32.7679 64.5233 34.2647 64.3686 35.7455Z" fill="white"/>
<path d="M64.3687 35.7454C64.1513 37.8364 63.3597 39.8266 62.0814 41.4956C61.4568 42.3368 60.7071 43.0773 59.8582 43.6914C59.0199 44.3263 58.0958 44.8392 57.1135 45.2147C56.1352 45.5979 55.1082 45.8427 54.0623 45.9421C53.5376 45.9901 53.0101 45.9993 52.4841 45.9695C51.9575 45.9595 51.4327 45.9059 50.915 45.8094C48.8242 45.4246 46.8821 44.4646 45.3066 43.0372L45.4393 43.0784L39.776 43.9522L39.3643 44.0116L39.5701 43.6502L42.3926 38.7372V38.9293C41.7274 37.3039 41.4446 35.5473 41.5659 33.7952C41.6873 32.0431 42.2096 30.3423 43.0925 28.8241C43.9752 27.3127 45.1889 26.0208 46.6424 25.0456C48.0948 24.084 49.7459 23.4635 51.4722 23.2306C53.1984 22.9977 54.955 23.1584 56.6103 23.7006C58.2487 24.2591 59.7425 25.1747 60.9836 26.3813C62.2192 27.5846 63.1657 29.0524 63.7521 30.6744C64.3384 32.2964 64.5493 34.0302 64.3687 35.7454ZM64.3687 35.7454C64.5531 34.0374 64.3426 32.3099 63.7536 30.6961C63.1646 29.0823 62.2128 27.6254 60.9716 26.4377C59.7304 25.25 58.233 24.3632 56.5949 23.8459C54.9567 23.3285 53.2216 23.1943 51.5234 23.4536C49.8428 23.6982 48.2405 24.3241 46.8391 25.2834C45.4547 26.2586 44.2969 27.5209 43.4448 28.9842C42.6083 30.4542 42.1171 32.0951 42.0083 33.7829C41.902 35.4685 42.174 37.1566 42.8043 38.7234L42.8455 38.8241L42.7906 38.9156L39.9361 43.8103L39.7348 43.513L45.4118 42.717H45.4896L45.5445 42.7719C47.0594 44.1903 48.9398 45.1582 50.9745 45.567C51.4821 45.6731 51.9978 45.7358 52.5161 45.7545C53.0324 45.7911 53.5506 45.7911 54.0668 45.7545C55.1025 45.674 56.1218 45.4492 57.0952 45.0866C58.0768 44.7315 59.0014 44.2353 59.8399 43.6136C60.2573 43.3035 60.656 42.969 61.0339 42.6118C61.4024 42.2432 61.7476 41.8521 62.0677 41.4407C63.343 39.7895 64.1391 37.8191 64.3687 35.7454Z" fill="#263238"/>
<path d="M53.9432 36.1755V37.6348C53.947 37.7806 53.921 37.9256 53.867 38.0611C53.8129 38.1966 53.7318 38.3196 53.6287 38.4227C53.5256 38.5259 53.4025 38.6069 53.2671 38.661C53.1316 38.7151 52.9866 38.741 52.8407 38.7372C52.5484 38.7372 52.2679 38.6211 52.0612 38.4143C51.8544 38.2076 51.7383 37.9272 51.7383 37.6348V35.288C51.7383 35.288 51.7612 35.288 51.7612 35.2423C51.7612 35.1965 51.7383 35.2423 51.7383 35.1965C51.7475 34.9075 51.8667 34.6329 52.0717 34.4288C52.2766 34.2248 52.5517 34.1067 52.8407 34.0987C53.1839 34.1194 53.5277 34.0696 53.8509 33.9526C54.1742 33.8355 54.47 33.6535 54.7204 33.4179C54.9707 33.1822 55.1701 32.8978 55.3064 32.5822C55.4428 32.2666 55.5131 31.9264 55.5131 31.5827C55.5131 31.2389 55.4428 30.8987 55.3064 30.5831C55.1701 30.2675 54.9707 29.9831 54.7204 29.7475C54.47 29.5118 54.1742 29.3298 53.8509 29.2127C53.5277 29.0957 53.1839 29.046 52.8407 29.0667C52.4041 29.065 51.9748 29.1783 51.5958 29.3951C51.2168 29.6119 50.9015 29.9246 50.6816 30.3018C50.609 30.4299 50.5117 30.5423 50.3952 30.6324C50.2787 30.7225 50.1454 30.7884 50.0031 30.8263C49.8608 30.8642 49.7124 30.8733 49.5666 30.8532C49.4207 30.833 49.2803 30.784 49.1537 30.7089C49.0295 30.6354 48.9211 30.5381 48.8347 30.4225C48.7483 30.3069 48.6857 30.1754 48.6504 30.0355C48.6151 29.8956 48.6079 29.7501 48.6291 29.6073C48.6503 29.4646 48.6995 29.3275 48.774 29.2039C49.1662 28.5259 49.7208 27.9561 50.3878 27.5456C51.0549 27.1352 51.8135 26.8969 52.5954 26.8524C53.3774 26.8078 54.1582 26.9583 54.8675 27.2903C55.5769 27.6224 56.1926 28.1255 56.6593 28.7545C57.126 29.3835 57.429 30.1186 57.5412 30.8938C57.6533 31.669 57.5709 32.4598 57.3016 33.1953C57.0323 33.9308 56.5843 34.5877 55.9981 35.1071C55.4119 35.6265 54.7057 35.9921 53.9432 36.1709V36.1755ZM53.9432 41.0977V41.5003C53.947 41.6461 53.921 41.7911 53.867 41.9266C53.8129 42.062 53.7318 42.1851 53.6287 42.2882C53.5256 42.3914 53.4025 42.4724 53.2671 42.5265C53.1316 42.5806 52.9866 42.6065 52.8407 42.6027C52.5484 42.6027 52.2679 42.4866 52.0612 42.2798C51.8544 42.0731 51.7383 41.7927 51.7383 41.5003V41.0977C51.7418 40.8064 51.8591 40.5281 52.0651 40.3221C52.2711 40.1161 52.5495 39.9988 52.8407 39.9952C52.986 39.9934 53.1302 40.0207 53.2648 40.0754C53.3994 40.1302 53.5217 40.2113 53.6244 40.314C53.7272 40.4168 53.8083 40.5391 53.863 40.6736C53.9178 40.8082 53.9451 40.9524 53.9432 41.0977Z" fill="#ED8D34"/>
<path d="M110.42 149.039H122.771C122.771 149.039 122.364 147.296 121.541 147.173C121.295 147.15 121.048 147.204 120.833 147.327C120.619 147.449 120.447 147.635 120.342 147.859C120.342 147.859 120.379 145.43 118.846 145.013C117.314 144.597 116.033 146.747 116.033 146.747C116.033 146.747 115.072 145.526 113.746 145.604C112.419 145.681 112.108 147.703 112.108 147.703C112.108 147.703 110.946 146.999 110.42 149.039Z" fill="#455A64"/>
<path d="M101.637 196.866H127.757C127.757 196.866 127.698 192.978 125.127 191.944C124.433 191.647 123.662 191.582 122.928 191.759C122.194 191.936 121.537 192.346 121.056 192.927C121.056 192.927 119.985 185.791 115.2 185.791C110.415 185.791 108.128 191.958 108.128 191.958C108.128 191.958 107.053 190.096 104.4 190.443C101.747 190.791 101.637 196.866 101.637 196.866Z" fill="#455A64"/>
<path d="M114.441 198.288H141.783C141.783 198.288 140.869 194.432 139.071 194.171C137.273 193.911 136.413 195.686 136.413 195.686C136.413 195.686 136.495 190.306 133.11 189.391C129.725 188.476 126.884 193.224 126.884 193.224C126.884 193.224 124.762 190.516 121.852 190.69C118.943 190.864 118.225 195.338 118.225 195.338C118.225 195.338 115.608 193.778 114.441 198.288Z" fill="#37474F"/>
<path d="M192.093 164.469H173.479C173.479 164.469 173.521 161.697 175.35 160.965C175.847 160.749 176.4 160.7 176.927 160.827C177.453 160.953 177.925 161.247 178.269 161.665C178.269 161.665 179.015 156.569 182.427 156.569C185.84 156.569 187.459 160.965 187.459 160.965C187.748 160.545 188.154 160.218 188.626 160.025C189.098 159.832 189.617 159.782 190.117 159.881C192.02 160.128 192.093 164.469 192.093 164.469Z" fill="#455A64"/>
<path d="M181.014 168.408C181.014 168.408 180.003 163.705 177.995 162.982C175.986 162.259 174.756 164.355 174.756 164.355C174.756 164.355 174.298 159.862 171.43 158.517C168.562 157.173 166.435 159.926 166.435 159.926C166.435 159.926 164.248 154.227 160.337 154.227C156.426 154.227 154.449 162.593 154.449 162.593C154.449 162.593 152.139 160.109 149.774 161.514C147.409 162.918 147.409 168.421 147.409 168.421L181.014 168.408Z" fill="#37474F"/>
<path d="M108.081 181.336L69.2891 181.376L69.3137 204.88L108.106 204.84L108.081 181.336Z" fill="#ED8D34"/>
<path opacity="0.1" d="M108.076 181.336L69.2842 181.376L69.2958 192.442L108.088 192.402L108.076 181.336Z" fill="#292626"/>
<path d="M108.988 177.881L68.3613 177.923L68.3728 188.893L108.999 188.851L108.988 177.881Z" fill="#ED8D34"/>
<path d="M97.2185 171.637L97.2276 177.895L94.2816 177.899V174.336L83.0603 174.349V177.908L80.1188 177.913L80.1143 171.655L97.2185 171.637Z" fill="#263238"/>
<path d="M76.6047 186.259L73.9561 186.262L73.9615 191.5L76.6102 191.497L76.6047 186.259Z" fill="#263238"/>
<path d="M103.42 186.236L100.771 186.238L100.777 191.476L103.426 191.473L103.42 186.236Z" fill="#263238"/>
</svg>
