<svg width="316" height="283" viewBox="0 0 316 283" fill="none" xmlns="http://www.w3.org/2000/svg">
<g clip-path="url(#clip0_152_344)">
<path d="M306 51.0093H258.775V73.448H277.976L285.158 80.6304L292.341 73.448H306V51.0093Z" fill="#F5F5F5"/>
<path d="M270.095 61.097C270.088 60.2638 269.771 59.4631 269.206 58.8509C268.641 58.2387 267.868 57.8587 267.038 57.7851C266.208 57.7115 265.38 57.9494 264.716 58.4526C264.052 58.9558 263.599 59.6881 263.445 60.5071C263.309 61.2926 263.455 62.1009 263.855 62.79C263.984 63.0081 264.144 63.162 264.304 63.3929L266.228 65.958C266.288 66.0273 266.363 66.0829 266.446 66.121C266.53 66.1591 266.621 66.1788 266.712 66.1788C266.804 66.1788 266.895 66.1591 266.978 66.121C267.062 66.0829 267.136 66.0273 267.197 65.958L269.12 63.4249C269.295 63.2209 269.458 63.0067 269.608 62.7836C269.917 62.2748 270.086 61.6926 270.095 61.097ZM266.748 62.5592C266.456 62.5605 266.17 62.475 265.926 62.3137C265.683 62.1524 265.493 61.9225 265.38 61.6531C265.268 61.3837 265.238 61.087 265.294 60.8004C265.35 60.5139 265.49 60.2505 265.696 60.0435C265.902 59.8366 266.165 59.6955 266.451 59.6381C266.737 59.5806 267.034 59.6095 267.304 59.7209C267.574 59.8324 267.805 60.0214 267.967 60.2641C268.13 60.5068 268.216 60.7922 268.216 61.0842C268.216 61.4743 268.062 61.8485 267.786 62.1249C267.511 62.4013 267.138 62.5575 266.748 62.5592Z" fill="#E0E0E0"/>
<path d="M301.293 63.4895C301.293 63.5793 295.002 63.6562 287.236 63.6562C279.47 63.6562 273.179 63.5793 273.179 63.4895C273.179 63.3997 279.47 63.3228 287.236 63.3228C295.002 63.3228 301.293 63.3997 301.293 63.4895Z" fill="#E0E0E0"/>
<path d="M292.34 66.5154C292.34 66.6052 288.05 66.6822 282.76 66.6822C277.469 66.6822 273.179 66.6052 273.179 66.5154C273.179 66.4257 277.469 66.3423 282.76 66.3423C288.05 66.3423 292.34 66.4192 292.34 66.5154Z" fill="#E0E0E0"/>
<path d="M274.898 56.5186L275.539 57.8204L276.975 58.032L275.937 59.0452L276.18 60.4753L274.898 59.7955L273.609 60.4753L273.859 59.0452L272.813 58.032L274.25 57.8204L274.898 56.5186Z" fill="#E0E0E0"/>
<path d="M280.977 56.5186L281.618 57.8204L283.055 58.032L282.016 59.0452L282.26 60.4753L280.977 59.7955L279.688 60.4753L279.938 59.0452L278.899 58.032L280.336 57.8204L280.977 56.5186Z" fill="#E0E0E0"/>
<path d="M287.056 56.5186L287.698 57.8204L289.134 58.032L288.095 59.0452L288.339 60.4753L287.056 59.7955L285.767 60.4753L286.017 59.0452L284.979 58.032L286.415 57.8204L287.056 56.5186Z" fill="#E0E0E0"/>
<path d="M293.136 56.5186L293.778 57.8204L295.214 58.032L294.175 59.0452L294.419 60.4753L293.136 59.7955L291.854 60.4753L292.097 59.0452L291.059 58.032L292.495 57.8204L293.136 56.5186Z" fill="#EBEBEB"/>
<path d="M299.215 56.5186L299.857 57.8204L301.293 58.032L300.254 59.0452L300.498 60.4753L299.215 59.7955L297.933 60.4753L298.177 59.0452L297.138 58.032L298.574 57.8204L299.215 56.5186Z" fill="#EBEBEB"/>
<path d="M99.7099 3.7334H26.2822V38.626H56.1343L67.3055 49.7908L78.4704 38.626H99.7099V3.7334Z" fill="#F5F5F5"/>
<path d="M43.8794 19.4255C43.8809 18.6246 43.6976 17.8342 43.3439 17.1157C42.9901 16.3972 42.4754 15.7699 41.8398 15.2828C41.2041 14.7956 40.4647 14.4616 39.6789 14.3068C38.8931 14.1519 38.0823 14.1804 37.3093 14.39C36.5364 14.5996 35.8222 14.9847 35.2223 15.5152C34.6224 16.0458 34.1529 16.7076 33.8505 17.4492C33.548 18.1907 33.4207 18.9921 33.4784 19.7908C33.5361 20.5896 33.7772 21.3643 34.1831 22.0548C34.3819 22.3946 34.632 22.6319 34.8885 22.9846L37.909 26.9927C37.9961 27.1095 38.1093 27.2043 38.2396 27.2696C38.3699 27.3349 38.5136 27.3689 38.6593 27.3689C38.805 27.3689 38.9487 27.3349 39.079 27.2696C39.2092 27.2043 39.3224 27.1095 39.4096 26.9927L42.398 23.0872C42.6671 22.7646 42.9196 22.4286 43.1547 22.0804C43.6336 21.2779 43.8841 20.3599 43.8794 19.4255ZM38.6721 21.6892C38.2193 21.6892 37.7767 21.5549 37.4002 21.3034C37.0237 21.0518 36.7303 20.6943 36.557 20.2759C36.3837 19.8576 36.3384 19.3973 36.4267 18.9532C36.515 18.5091 36.7331 18.1011 37.0533 17.781C37.3734 17.4608 37.7814 17.2427 38.2255 17.1544C38.6696 17.0661 39.1299 17.1114 39.5482 17.2847C39.9666 17.458 40.3241 17.7514 40.5757 18.1279C40.8272 18.5044 40.9615 18.947 40.9615 19.3998C40.9615 20.007 40.7203 20.5893 40.291 21.0187C39.8616 21.448 39.2793 21.6892 38.6721 21.6892Z" fill="#E0E0E0"/>
<path d="M92.3925 23.1452C92.3925 23.235 82.6064 23.312 70.5374 23.312C58.4683 23.312 48.6758 23.235 48.6758 23.1452C48.6758 23.0555 58.4619 22.9785 70.5374 22.9785C82.6128 22.9785 92.3925 23.0875 92.3925 23.1452Z" fill="#E0E0E0"/>
<path d="M78.4765 27.8401C78.4765 27.9363 71.8071 28.0068 63.5794 28.0068C55.3516 28.0068 48.6758 27.9363 48.6758 27.8401C48.6758 27.7439 55.3452 27.6733 63.5794 27.6733C71.8135 27.6733 78.4765 27.7503 78.4765 27.8401Z" fill="#E0E0E0"/>
<path d="M51.3493 12.3013L52.3433 14.3277L54.575 14.6484L52.9589 16.226L53.3437 18.4512L51.3493 17.3995L49.3485 18.4512L49.7332 16.226L48.1172 14.6484L50.3489 14.3277L51.3493 12.3013Z" fill="#E0E0E0"/>
<path d="M60.8024 12.3013L61.7964 14.3277L64.0345 14.6484L62.4185 16.226L62.7968 18.4512L60.8024 17.3995L58.8016 18.4512L59.1864 16.226L57.5703 14.6484L59.802 14.3277L60.8024 12.3013Z" fill="#E0E0E0"/>
<path d="M70.2555 12.3013L71.2559 14.3277L73.4876 14.6484L71.8716 16.226L72.2499 18.4512L70.2555 17.3995L68.2611 18.4512L68.6395 16.226L67.0234 14.6484L69.2551 14.3277L70.2555 12.3013Z" fill="#E0E0E0"/>
<path d="M79.7077 12.3013L80.7081 14.3277L82.9398 14.6484L81.3237 16.226L81.7085 18.4512L79.7077 17.3995L77.7133 18.4512L78.0916 16.226L76.4756 14.6484L78.7137 14.3277L79.7077 12.3013Z" fill="#EBEBEB"/>
<path d="M89.1667 12.3013L90.1607 14.3277L92.3924 14.6484L90.7827 16.226L91.1611 18.4512L89.1667 17.3995L87.1658 18.4512L87.5506 16.226L85.9346 14.6484L88.1663 14.3277L89.1667 12.3013Z" fill="#EBEBEB"/>
<path d="M268.87 89.0952C269.255 86.2864 265.298 83.9649 262.329 83.7405C260.912 83.6314 259.437 83.8431 258.09 83.3749C255.185 82.3617 254.018 78.6037 251.177 77.4045C249.054 76.5067 246.611 77.3083 244.552 78.3408C242.494 79.3733 240.461 80.6815 238.139 80.829C236.139 80.9573 233.971 80.1877 232.22 81.1945C230.938 81.9192 230.232 83.4262 229.014 84.3112C227.795 85.1962 226.308 85.3629 224.846 85.4399C223.383 85.5168 221.876 85.5361 220.549 86.1453C219.221 86.7545 218.118 88.159 218.394 89.589L268.87 89.0952Z" fill="#F5F5F5"/>
<path d="M67.4025 116.838C67.7937 114.036 63.8369 111.708 60.8613 111.49C59.4441 111.374 57.9691 111.592 56.6288 111.124C53.7174 110.111 52.5502 106.347 49.7157 105.154C47.5866 104.256 45.1433 105.051 43.0848 106.09C41.0262 107.129 38.9934 108.431 36.6719 108.578C34.6775 108.707 32.5035 107.937 30.7528 108.937C29.4702 109.668 28.7648 111.169 27.5463 112.054C26.3279 112.939 24.8337 113.106 23.3715 113.189C21.9094 113.273 20.4024 113.279 19.0749 113.888C17.7474 114.497 16.6508 115.902 16.9266 117.338L67.4025 116.838Z" fill="#F5F5F5"/>
<path d="M47.1051 87.2936C47.3872 85.2351 44.4758 83.5356 42.2954 83.3625C41.2501 83.2791 40.1663 83.4395 39.1787 83.0932C37.0432 82.3493 36.1903 79.5853 34.0997 78.7003C32.5414 78.059 30.7458 78.6298 29.2323 79.3929C27.7189 80.156 26.2247 81.1116 24.5317 81.2206C23.0631 81.3168 21.4663 80.7717 20.1773 81.4899C19.2218 82.0222 18.7216 83.1252 17.8366 83.7793C16.9156 84.3441 15.8513 84.6313 14.7712 84.6066C13.6962 84.5801 12.6258 84.7563 11.6161 85.126C10.6349 85.5749 9.82689 86.6074 10.0321 87.6591L47.1051 87.2936Z" fill="#EBEBEB"/>
<path d="M286.691 12.3717C286.98 10.3132 284.068 8.61377 281.882 8.44062C280.843 8.35725 279.759 8.51758 278.771 8.17128C276.636 7.42739 275.777 4.66343 273.692 3.77845C272.128 3.13716 270.332 3.7079 268.819 4.47104C267.305 5.23417 265.811 6.1897 264.124 6.29871C262.656 6.39491 261.059 5.84981 259.77 6.56806C258.814 7.10033 258.308 8.20335 257.429 8.85746C256.512 9.41986 255.452 9.70699 254.377 9.68472C253.3 9.65875 252.227 9.83495 251.215 10.2042C250.24 10.6531 249.432 11.6855 249.638 12.7693L286.691 12.3717Z" fill="#EBEBEB"/>
<path d="M281.491 113.715H228.123V282.855H281.491V113.715Z" fill="#F5F5F5"/>
<path d="M281.497 113.715H254.812V282.393H281.497V113.715Z" fill="#EBEBEB"/>
<path d="M253.069 97.1118H234.222V113.715H253.069V97.1118Z" fill="#F5F5F5"/>
<path d="M253.061 97.1118H248.572V113.715H253.061V97.1118Z" fill="#EBEBEB"/>
<path d="M223.679 113.715V112.747H283.056V113.715" fill="#E0E0E0"/>
<path d="M243.173 120.955H238.658V130.478H243.173V120.955Z" fill="#FAFAFA"/>
<path d="M254.814 134.223C254.814 134.319 248.837 134.403 241.468 134.403C234.1 134.403 228.123 134.319 228.123 134.223C228.123 134.127 234.1 134.037 241.468 134.037C248.837 134.037 254.814 134.12 254.814 134.223Z" fill="#E0E0E0"/>
<path d="M270.087 120.955H265.572V130.478H270.087V120.955Z" fill="#E0E0E0"/>
<path d="M281.727 134.223C281.727 134.319 275.75 134.403 268.382 134.403C261.013 134.403 255.043 134.319 255.043 134.223C255.043 134.127 261.013 134.037 268.382 134.037C275.75 134.037 281.727 134.12 281.727 134.223Z" fill="#E0E0E0"/>
<path d="M270.087 139.866H265.572V149.389H270.087V139.866Z" fill="#E0E0E0"/>
<path d="M281.727 153.135C281.727 153.231 275.75 153.314 268.382 153.314C261.013 153.314 255.043 153.231 255.043 153.135C255.043 153.039 261.013 152.949 268.382 152.949C275.75 152.949 281.727 153.032 281.727 153.135Z" fill="#E0E0E0"/>
<path d="M270.087 159.349H265.572V168.872H270.087V159.349Z" fill="#E0E0E0"/>
<path d="M281.727 172.617C281.727 172.713 275.75 172.797 268.382 172.797C261.013 172.797 255.043 172.713 255.043 172.617C255.043 172.521 261.013 172.431 268.382 172.431C275.75 172.431 281.727 172.508 281.727 172.617Z" fill="#E0E0E0"/>
<path d="M270.087 178.838H265.572V188.361H270.087V178.838Z" fill="#E0E0E0"/>
<path d="M281.727 192.099C281.727 192.202 275.75 192.279 268.382 192.279C261.013 192.279 255.043 192.202 255.043 192.099C255.043 191.997 261.013 191.92 268.382 191.92C275.75 191.92 281.727 191.997 281.727 192.099Z" fill="#E0E0E0"/>
<path d="M270.087 197.762H265.572V207.285H270.087V197.762Z" fill="#E0E0E0"/>
<path d="M281.727 211.024C281.727 211.127 275.75 211.204 268.382 211.204C261.013 211.204 255.043 211.127 255.043 211.024C255.043 210.922 261.013 210.845 268.382 210.845C275.75 210.845 281.727 210.922 281.727 211.024Z" fill="#E0E0E0"/>
<path d="M270.087 216.764H265.572V226.287H270.087V216.764Z" fill="#E0E0E0"/>
<path d="M270.087 236.015H265.572V245.538H270.087V236.015Z" fill="#E0E0E0"/>
<path d="M281.727 230.025C281.727 230.128 275.75 230.211 268.382 230.211C261.013 230.211 255.043 230.128 255.043 230.025C255.043 229.923 261.013 229.846 268.382 229.846C275.75 229.846 281.727 229.923 281.727 230.025Z" fill="#E0E0E0"/>
<path d="M243.173 140.155H238.658V149.678H243.173V140.155Z" fill="#FAFAFA"/>
<path d="M254.814 153.423C254.814 153.519 248.837 153.603 241.468 153.603C234.1 153.603 228.123 153.519 228.123 153.423C228.123 153.327 234.1 153.237 241.468 153.237C248.837 153.237 254.814 153.321 254.814 153.423Z" fill="#E0E0E0"/>
<path d="M243.173 159.355H238.658V168.878H243.173V159.355Z" fill="#FAFAFA"/>
<path d="M254.814 172.623C254.814 172.726 248.837 172.803 241.468 172.803C234.1 172.803 228.123 172.726 228.123 172.623C228.123 172.521 234.1 172.438 241.468 172.438C248.837 172.438 254.814 172.508 254.814 172.623Z" fill="#E0E0E0"/>
<path d="M243.173 178.562H238.658V188.085H243.173V178.562Z" fill="#FAFAFA"/>
<path d="M254.814 191.824C254.814 191.926 248.837 192.003 241.468 192.003C234.1 192.003 228.123 191.926 228.123 191.824C228.123 191.721 234.1 191.644 241.468 191.644C248.837 191.644 254.814 191.747 254.814 191.824Z" fill="#E0E0E0"/>
<path d="M243.173 197.762H238.658V207.285H243.173V197.762Z" fill="#FAFAFA"/>
<path d="M254.814 211.024C254.814 211.127 248.837 211.204 241.468 211.204C234.1 211.204 228.123 211.127 228.123 211.024C228.123 210.922 234.1 210.845 241.468 210.845C248.837 210.845 254.814 210.922 254.814 211.024Z" fill="#E0E0E0"/>
<path d="M243.173 216.962H238.658V226.486H243.173V216.962Z" fill="#FAFAFA"/>
<path d="M254.814 230.224C254.814 230.327 248.837 230.41 241.468 230.41C234.1 230.41 228.123 230.327 228.123 230.224C228.123 230.122 234.1 230.045 241.468 230.045C248.837 230.045 254.814 230.122 254.814 230.224Z" fill="#E0E0E0"/>
<path d="M243.173 236.163H238.658V245.686H243.173V236.163Z" fill="#FAFAFA"/>
<path d="M114.773 282.996H36.2408L35.8945 158.881H114.433L114.773 282.996Z" fill="#EBEBEB"/>
<path d="M114.433 158.874H75.167V282.996H114.433V158.874Z" fill="#E0E0E0"/>
<path d="M72.603 134.441H44.8672V158.875H72.603V134.441Z" fill="#EBEBEB"/>
<path d="M72.6029 134.441H65.9912V158.875H72.6029V134.441Z" fill="#E0E0E0"/>
<path d="M116.729 157.451H29.3535V158.875H116.729V157.451Z" fill="#E0E0E0"/>
<path d="M58.0525 169.532H51.4023V183.551H58.0525V169.532Z" fill="white"/>
<path d="M75.1675 189.054C75.1675 189.201 66.3755 189.323 55.5312 189.323C44.687 189.323 35.9014 189.201 35.9014 189.054C35.9014 188.906 44.687 188.784 55.5312 188.784C66.3755 188.784 75.1675 188.906 75.1675 189.054Z" fill="#E0E0E0"/>
<path d="M97.657 169.532H91.0068V183.551H97.657V169.532Z" fill="#F5F5F5"/>
<path d="M114.774 189.054C114.774 189.201 105.982 189.323 95.1441 189.323C84.3063 189.323 75.5078 189.201 75.5078 189.054C75.5078 188.906 84.2999 188.784 95.1441 188.784C105.988 188.784 114.774 188.906 114.774 189.054Z" fill="#EBEBEB"/>
<path d="M97.657 197.365H91.0068V211.383H97.657V197.365Z" fill="#F5F5F5"/>
<path d="M114.774 216.886C114.774 217.033 105.982 217.148 95.1441 217.148C84.3063 217.148 75.5078 217.033 75.5078 216.886C75.5078 216.738 84.2999 216.616 95.1441 216.616C105.988 216.616 114.774 216.757 114.774 216.886Z" fill="#EBEBEB"/>
<path d="M97.657 226.037H91.0068V240.055H97.657V226.037Z" fill="#F5F5F5"/>
<path d="M114.774 245.551C114.774 245.699 105.982 245.82 95.1441 245.82C84.3063 245.82 75.5078 245.699 75.5078 245.551C75.5078 245.404 84.2999 245.282 95.1441 245.282C105.988 245.282 114.774 245.404 114.774 245.551Z" fill="#EBEBEB"/>
<path d="M97.657 254.703H91.0068V268.721H97.657V254.703Z" fill="#F5F5F5"/>
<path d="M114.774 274.223C114.774 274.37 105.982 274.486 95.1441 274.486C84.3063 274.486 75.5078 274.37 75.5078 274.223C75.5078 274.075 84.2999 273.954 95.1441 273.954C105.988 273.954 114.774 274.075 114.774 274.223Z" fill="#EBEBEB"/>
<path d="M58.0525 197.788H51.4023V211.806H58.0525V197.788Z" fill="white"/>
<path d="M75.1675 217.308C75.1675 217.456 66.3755 217.578 55.5312 217.578C44.687 217.578 35.9014 217.456 35.9014 217.308C35.9014 217.161 44.687 217.039 55.5312 217.039C66.3755 217.039 75.1675 217.161 75.1675 217.308Z" fill="#E0E0E0"/>
<path d="M58.0525 226.043H51.4023V240.062H58.0525V226.043Z" fill="white"/>
<path d="M75.1675 245.564C75.1675 245.712 66.3755 245.827 55.5312 245.827C44.687 245.827 35.9014 245.712 35.9014 245.564C35.9014 245.417 44.687 245.295 55.5312 245.295C66.3755 245.295 75.1675 245.417 75.1675 245.564Z" fill="#E0E0E0"/>
<path d="M58.0525 254.298H51.4023V268.317H58.0525V254.298Z" fill="white"/>
<path d="M75.1675 273.832C75.1675 273.979 66.3755 274.095 55.5312 274.095C44.687 274.095 35.9014 273.979 35.9014 273.832C35.9014 273.684 44.687 273.562 55.5312 273.562C66.3755 273.562 75.1675 273.672 75.1675 273.832Z" fill="#E0E0E0"/>
<path d="M262.271 269.716C262.758 267.792 261.521 265.914 260.123 264.541C258.725 263.169 257.064 261.931 256.339 260.116C255.165 257.166 256.743 253.351 254.742 250.894C253.562 249.445 251.446 248.971 250.401 247.419C249.921 246.565 249.601 245.63 249.458 244.661C248.347 239.763 245.939 235.253 242.487 231.604C242.253 235.968 243.197 240.313 245.219 244.187C246.033 245.732 247.027 247.239 247.297 248.964C247.733 251.767 246.174 254.646 246.861 257.397C247.649 260.546 251.183 262.649 251.35 265.888C251.491 268.626 249.105 271.018 249.278 273.763C249.428 274.939 249.857 276.063 250.529 277.04C252.645 280.561 255.755 282.985 260.469 282.901L266.24 283.106L262.271 269.716Z" fill="#ED8D34"/>
<g opacity="0.3">
<path opacity="0.3" d="M262.271 269.715C262.758 267.791 261.521 265.913 260.123 264.54C258.725 263.168 257.064 261.93 256.339 260.115C255.165 257.165 256.743 253.35 254.742 250.894C253.562 249.444 251.446 248.97 250.401 247.418C249.921 246.564 249.601 245.629 249.458 244.66C248.347 239.762 245.939 235.252 242.487 231.604C242.253 235.967 243.197 240.312 245.219 244.186C246.033 245.731 247.027 247.238 247.297 248.963C247.733 251.766 246.174 254.645 246.861 257.396C247.649 260.545 251.183 262.648 251.35 265.887C251.491 268.625 249.105 271.017 249.278 273.762C249.428 274.938 249.857 276.062 250.529 277.039C252.645 280.56 255.755 282.984 260.469 282.9L266.24 283.105L262.271 269.715Z" fill="black"/>
</g>
<path d="M267.267 283.106C267.795 283.186 268.333 283.173 268.857 283.067C269.495 282.973 270.122 282.816 270.73 282.599C271.567 282.303 272.349 281.869 273.045 281.317C273.465 280.975 273.793 280.534 274 280.034C274.17 279.479 274.257 278.902 274.257 278.322C274.268 277.698 274.313 277.075 274.391 276.456C274.506 275.797 274.745 275.165 275.097 274.596C275.777 273.403 276.912 272.268 277.277 270.646C277.643 269.023 277.386 267.324 277.117 265.586C276.848 263.848 276.591 261.969 277.252 260.167C277.912 258.365 279.137 256.73 279.772 254.697C280.407 252.664 280.105 250.426 280.24 248.245C280.277 247.138 280.532 246.048 280.99 245.039C281.458 244.013 282.106 243.051 282.613 241.974C283.639 239.8 283.818 237.337 284.101 234.919C284.235 233.701 284.37 232.476 284.511 231.232C284.599 229.982 284.814 228.745 285.152 227.538C285.544 226.322 286.007 225.129 286.537 223.966C286.802 223.363 287.016 222.739 287.179 222.1C287.278 221.444 287.34 220.782 287.365 220.118C287.429 218.785 287.377 217.448 287.211 216.123C287.057 214.789 286.813 213.468 286.672 212.134C286.672 212.057 286.672 211.974 286.672 211.904L286.64 211.641L286.403 211.756C285.181 212.382 284.119 213.279 283.299 214.379C282.492 215.454 281.844 216.64 281.375 217.9C280.413 220.375 280.092 222.979 279.579 225.454C279.215 227.906 278.411 230.271 277.207 232.438C276.565 233.464 275.809 234.406 275.135 235.407C274.422 236.385 273.934 237.508 273.705 238.697C273.365 241.14 274.712 243.282 274.43 245.443C274.297 246.505 273.938 247.526 273.378 248.438C272.852 249.361 272.237 250.221 271.653 251.08C271.057 251.919 270.537 252.809 270.101 253.741C269.694 254.655 269.455 255.635 269.396 256.634C269.255 258.557 269.53 260.43 269.396 262.168C269.235 263.828 268.749 265.441 267.966 266.913C267.273 268.337 266.491 269.62 265.843 270.864C265.521 271.462 265.23 272.076 264.971 272.704C264.736 273.293 264.566 273.906 264.464 274.532C264.29 275.621 264.275 276.729 264.419 277.822C264.569 279.348 265.139 280.802 266.067 282.022C266.209 282.204 266.366 282.373 266.536 282.529C266.651 282.65 266.778 282.759 266.914 282.856L267.247 283.087C266.836 282.757 266.46 282.385 266.125 281.977C265.234 280.754 264.693 279.31 264.56 277.803C264.431 276.723 264.457 275.63 264.637 274.558C264.745 273.948 264.915 273.35 265.144 272.775C265.394 272.178 265.695 271.576 266.029 270.96C266.67 269.729 267.465 268.446 268.177 267.016C268.983 265.522 269.485 263.883 269.652 262.194C269.806 260.411 269.537 258.557 269.652 256.659C269.714 255.692 269.95 254.745 270.351 253.863C270.778 252.948 271.289 252.074 271.878 251.253C272.461 250.394 273.09 249.541 273.628 248.598C274.212 247.649 274.586 246.587 274.725 245.482C275.007 243.173 273.673 240.992 274.019 238.748C274.242 237.609 274.716 236.533 275.405 235.599C276.046 234.618 276.828 233.675 277.482 232.624C278.713 230.423 279.534 228.018 279.906 225.525C280.4 223.03 280.747 220.458 281.696 218.028C282.149 216.803 282.775 215.65 283.555 214.603C284.339 213.546 285.358 212.685 286.531 212.09L286.262 211.942C286.262 212.013 286.262 212.096 286.262 212.173C286.409 213.526 286.653 214.847 286.807 216.168C286.967 217.472 287.018 218.787 286.961 220.099C286.934 220.743 286.874 221.385 286.781 222.023C286.618 222.641 286.403 223.243 286.14 223.825C285.604 224.999 285.139 226.205 284.748 227.436C284.401 228.66 284.186 229.917 284.107 231.187C283.966 232.431 283.829 233.663 283.696 234.881C283.421 237.305 283.241 239.729 282.254 241.833C281.766 242.878 281.119 243.84 280.638 244.898C280.167 245.945 279.904 247.073 279.862 248.22C279.74 250.445 280.028 252.625 279.425 254.633C278.823 256.64 277.566 258.23 276.931 260.096C276.296 261.963 276.533 263.944 276.809 265.65C277.085 267.356 277.367 269.081 276.995 270.62C276.623 272.159 275.565 273.288 274.866 274.519C274.508 275.109 274.266 275.762 274.154 276.443C274.077 277.071 274.036 277.702 274.032 278.335C274.032 278.902 273.947 279.466 273.782 280.009C273.589 280.482 273.283 280.9 272.891 281.227C272.212 281.776 271.447 282.209 270.627 282.51C270.029 282.736 269.41 282.906 268.78 283.016C268.392 283.083 268 283.12 267.607 283.125L267.267 283.106Z" fill="#263238"/>
<path d="M285.505 215.104C285.505 215.104 285.505 215.162 285.448 215.277L285.319 215.797C285.21 216.252 285.069 216.938 284.851 217.797C284.633 218.657 284.101 219.619 283.658 220.811C283.13 222.15 282.672 223.516 282.286 224.903C281.844 226.442 281.452 228.154 281.048 229.982C280.697 231.938 280.073 233.836 279.195 235.619C278.727 236.562 278.195 237.511 277.771 238.543C277.356 239.609 277.076 240.723 276.938 241.859C276.645 244.2 276.23 246.525 275.694 248.823C274.539 253.556 273.436 258.058 272.429 262.162C271.423 266.266 270.506 269.934 269.698 273.064C268.89 276.193 268.319 278.643 267.883 280.407C267.677 281.253 267.524 281.92 267.408 282.407C267.365 282.621 267.327 282.794 267.293 282.927C267.283 282.988 267.283 283.051 267.293 283.113C267.32 283.057 267.342 282.999 267.357 282.94C267.395 282.799 267.447 282.632 267.504 282.427C267.639 281.946 267.819 281.279 268.049 280.439L269.973 273.128L272.763 262.29L276.053 248.951C276.596 246.637 277.011 244.295 277.297 241.936C277.43 240.838 277.699 239.761 278.098 238.729C278.502 237.716 279.028 236.773 279.503 235.824C280.381 234.013 281.001 232.087 281.343 230.104C281.741 228.263 282.113 226.564 282.536 225.025C282.959 223.486 283.402 222.12 283.819 220.933C284.236 219.747 284.749 218.766 284.96 217.881C285.172 216.996 285.274 216.329 285.364 215.861C285.396 215.649 285.428 215.476 285.454 215.335C285.485 215.262 285.503 215.183 285.505 215.104Z" fill="#263238"/>
<path d="M265.196 282.734C269.255 281.067 271.288 274.66 270.326 270.383C269.364 266.105 267.184 262.001 267.395 257.621C267.562 254.254 269.153 251.003 268.851 247.643C268.454 243.115 264.676 239.094 265.388 234.599C265.786 232.079 267.569 229.911 267.825 227.372C268.139 224.255 266.126 221.452 265.055 218.509C263.413 214.02 263.99 209.05 263.907 204.253C263.823 199.456 262.778 194.191 258.969 191.28C257.77 195.166 256.327 197.731 255.865 203.163C255.698 205.087 257.398 209.14 257.084 213.424C256.898 215.989 256.647 218.554 256.442 221.119C256.237 223.684 256.025 226.14 256.57 228.577C256.987 230.443 257.853 232.207 258.077 234.105C258.52 237.677 256.731 241.217 256.981 244.808C257.199 247.848 258.866 250.682 258.841 253.735C258.809 258.019 255.455 261.982 256.275 266.195C256.673 268.279 258.071 270.12 258.238 272.236C258.36 273.884 257.725 275.513 257.815 277.161C257.962 279.81 262.579 282.535 265.228 282.76" fill="#ED8D34"/>
<path d="M259.417 195.378C259.409 195.453 259.409 195.528 259.417 195.602C259.417 195.769 259.417 195.994 259.417 196.244C259.417 196.827 259.417 197.687 259.417 198.809C259.417 199.931 259.853 201.252 260.059 202.804C260.264 204.356 260.54 206.139 260.7 208.114C260.86 210.089 260.892 212.263 260.931 214.597C260.969 216.932 261.014 219.471 261.796 222.011C262.143 223.293 262.553 224.576 262.81 225.897C263.048 227.266 263.113 228.66 263.002 230.046C262.783 232.991 262.723 235.945 262.823 238.896C263.098 244.95 263.368 250.715 263.605 255.967C263.842 261.219 264.176 265.92 264.4 269.889L264.964 279.278C265.041 280.368 265.099 281.202 265.138 281.843C265.138 282.119 265.176 282.337 265.195 282.484C265.189 282.559 265.189 282.634 265.195 282.709C265.205 282.634 265.205 282.559 265.195 282.484C265.195 282.311 265.195 282.093 265.195 281.843C265.195 281.234 265.138 280.381 265.093 279.278C264.984 277.033 264.83 273.833 264.644 269.883C264.458 265.933 264.195 261.193 263.932 255.954C263.669 250.715 263.445 244.943 263.175 238.889C263.074 235.949 263.132 233.006 263.348 230.072C263.456 228.658 263.385 227.236 263.137 225.839C262.874 224.473 262.457 223.191 262.104 221.927C261.322 219.426 261.29 216.925 261.219 214.597C261.149 212.27 261.104 210.108 260.944 208.101C260.783 206.094 260.546 204.33 260.27 202.778C259.994 201.226 259.629 199.905 259.546 198.802C259.462 197.699 259.494 196.834 259.469 196.237C259.469 195.962 259.469 195.737 259.469 195.596C259.46 195.522 259.442 195.449 259.417 195.378Z" fill="#263238"/>
<path d="M224.947 282.733L131.825 282.682C126.446 282.678 121.289 280.539 117.488 276.734C113.687 272.929 111.552 267.77 111.554 262.391L111.599 28.9619C111.596 26.2963 112.119 23.6563 113.138 21.1931C114.157 18.7299 115.651 16.4916 117.535 14.6065C119.42 12.7213 121.658 11.2262 124.121 10.2067C126.584 9.18725 129.223 8.66336 131.889 8.66504L225.011 8.71635C230.389 8.71975 235.546 10.8592 239.348 14.6642C243.149 18.4692 245.284 23.6282 245.282 29.0068L245.237 262.436C245.238 265.101 244.714 267.741 243.694 270.203C242.675 272.665 241.181 274.903 239.296 276.788C237.412 278.673 235.175 280.168 232.713 281.188C230.251 282.208 227.612 282.733 224.947 282.733Z" fill="#455A64"/>
<path d="M225.595 15.6551L207.478 15.5717C206.888 15.5825 206.306 15.7096 205.765 15.9457C205.224 16.1818 204.735 16.5222 204.326 16.9475C203.917 17.3728 203.595 17.8746 203.38 18.4242C203.165 18.9738 203.061 19.5604 203.073 20.1505V23.4403C203.084 24.0315 202.979 24.6191 202.764 25.1695C202.548 25.72 202.225 26.2224 201.815 26.6478C201.404 27.0733 200.914 27.4134 200.371 27.6488C199.829 27.8841 199.245 28.01 198.654 28.0191L163.313 27.8524C162.721 27.8383 162.139 27.7075 161.598 27.4675C161.058 27.2276 160.57 26.8831 160.163 26.4541C159.756 26.025 159.438 25.5198 159.227 24.9674C159.015 24.4149 158.916 23.8263 158.933 23.2351V19.9453C158.95 19.3542 158.85 18.7655 158.639 18.213C158.427 17.6606 158.109 17.1554 157.702 16.7263C157.295 16.2973 156.807 15.9529 156.267 15.7129C155.726 15.4729 155.144 15.3421 154.553 15.328H148.185L132.325 15.2575C130.453 15.249 128.597 15.6096 126.864 16.3187C125.13 17.0277 123.554 18.0713 122.224 19.3898C120.894 20.7083 119.837 22.2759 119.113 24.003C118.389 25.7302 118.013 27.583 118.005 29.4556L117.037 258.114C117.03 261.891 118.523 265.517 121.188 268.195C123.852 270.873 127.471 272.384 131.248 272.395L224.504 272.825C226.377 272.834 228.233 272.475 229.966 271.766C231.699 271.058 233.276 270.015 234.606 268.697C235.936 267.379 236.993 265.812 237.717 264.085C238.44 262.358 238.817 260.506 238.824 258.633L239.793 29.9687C239.8 28.0965 239.439 26.2413 238.73 24.5088C238.02 22.7763 236.977 21.2004 235.658 19.8713C234.34 18.5422 232.772 17.4857 231.046 16.7623C229.319 16.0389 227.467 15.6626 225.595 15.6551Z" fill="#F5F5F5"/>
<path d="M186.021 229.615C185.912 232.379 185.809 234.97 185.726 237.118H199.122L197.48 228.89L186.021 229.615Z" fill="#F5F5F5"/>
<path d="M131.574 233.059L131.69 237.118H184.384C184.474 234.842 184.577 232.309 184.673 229.705L131.574 233.059Z" fill="#F5F5F5"/>
<path d="M198.153 228.852L199.801 237.118H224.498L224.203 227.204L198.153 228.852Z" fill="#F5F5F5"/>
<path d="M187.355 113.228L192.023 86.1523L179.794 85.248V113.228H187.355Z" fill="#EBEBEB"/>
<path d="M130.472 218.034L117.198 223.235L117.159 232.636L130.87 231.764L130.472 218.034Z" fill="#F5F5F5"/>
<path d="M130.413 215.917L129.688 190.701H129.676V181.807L117.369 183.108L117.209 221.073L130.407 215.904L130.413 215.917Z" fill="#EBEBEB"/>
<path d="M129.677 161.953L117.467 160.343L117.377 181.095L129.677 179.794V161.953Z" fill="#F5F5F5"/>
<path d="M220.695 182.179L220.182 189.406L205.76 190.965L206.876 196.679L223.248 195.447L223.004 187.245L224.312 181.813L220.695 182.179Z" fill="#F5F5F5"/>
<path d="M194.703 197.602L206.201 196.73L203.7 183.897L193.657 184.911L194.703 197.602Z" fill="#F5F5F5"/>
<path d="M194.812 198.93L195.691 209.633L197.249 224.312L197.891 227.525L224.164 225.864L223.286 196.788L194.812 198.93Z" fill="#EBEBEB"/>
<path d="M149.596 148.402L150.609 150.134L130.344 161.953V189.984L151.731 188.47L192.941 184.308L191.434 165.935L152.058 160.805L152.321 158.817L191.267 163.902L188.702 132.806L150.16 136.513L150.032 135.185L188.599 131.466L187.272 115.241H150.192L117.634 121.167L117.474 158.323L129.806 159.952L149.596 148.402ZM132.422 187.309C132.422 187.309 132.576 164.191 132.422 163.332L148.955 154.552L151.129 186.129L132.422 187.309Z" fill="#F5F5F5"/>
<path d="M219.349 182.32L204.368 183.827L205.503 189.65L218.932 188.2L219.349 182.32Z" fill="#F5F5F5"/>
<path d="M186.207 224.664C186.162 225.876 186.117 227.088 186.072 228.275L197.218 227.569L196.647 224.696L186.207 224.664Z" fill="#F5F5F5"/>
<path d="M162.195 113.228L164.158 104.327H179.126V85.1969L132.324 81.7339V99.69L117.703 102.999L117.639 119.121L150.011 113.228H162.195Z" fill="#EBEBEB"/>
<path d="M193.453 60.0135L193.056 58.3718L210.929 51.3176L199.27 27.9682C199.057 27.9983 198.843 28.0154 198.629 28.0195L178.877 27.9233L179.416 60.5842L193.453 60.0135Z" fill="#F5F5F5"/>
<path d="M220.509 47.4952V15.6295L207.504 15.5718C206.911 15.5793 206.326 15.7039 205.783 15.9385C205.239 16.1731 204.747 16.513 204.335 16.9386C203.923 17.3642 203.599 17.8672 203.382 18.4184C203.166 18.9697 203.06 19.5584 203.072 20.1506V23.4404C203.072 24.1762 202.898 24.9016 202.564 25.5571C202.229 26.2126 201.744 26.7794 201.148 27.2112L212.781 50.5605L220.509 47.4952Z" fill="#EBEBEB"/>
<path d="M153.321 48.861L151.814 15.3151H148.197L134.088 15.251L128.041 45.2313L153.321 48.861ZM150.114 18.7204L150.595 46.0393L131.805 43.2946L135.922 18.7204H150.114Z" fill="#F5F5F5"/>
<path d="M154.007 48.9643V49.2464C154.007 51.8629 154.097 56.5764 154.136 61.6169L178.748 60.6101L178.21 27.9043L163.312 27.853C162.721 27.8389 162.139 27.7081 161.598 27.4681C161.058 27.2282 160.57 26.8837 160.163 26.4547C159.756 26.0256 159.438 25.5204 159.226 24.968C159.015 24.4156 158.915 23.8269 158.932 23.2357V19.9459C158.949 19.3548 158.85 18.7661 158.638 18.2136C158.427 17.6612 158.109 17.156 157.702 16.7269C157.295 16.2979 156.807 15.9535 156.267 15.7135C155.726 15.4735 155.144 15.3427 154.552 15.3286H152.475L153.982 48.9707L154.007 48.9643Z" fill="#F5F5F5"/>
<path d="M126.053 44.9492L132.017 15.2383C128.293 15.3053 124.743 16.8271 122.126 19.4782C119.51 22.1292 118.035 25.699 118.017 29.4236L117.953 44.231L118.017 43.7949L126.053 44.9492Z" fill="#F5F5F5"/>
<path d="M130.317 81.5856L117.799 80.6558L117.716 100.94L130.317 98.0924V81.5856Z" fill="#F5F5F5"/>
<path d="M125.919 45.6029L117.954 44.4614L117.819 77.3083L119.532 77.4365L125.919 45.6029Z" fill="#F5F5F5"/>
<path d="M151.205 215.532L151.416 189.162L130.356 190.65L131.1 216.487L151.205 215.532Z" fill="#F5F5F5"/>
<path d="M155.079 209.447L184.905 223.735C185.265 214.397 185.579 205.669 185.547 205.137L186.188 205.099L186.502 204.457C186.932 204.669 186.932 204.669 186.707 211.037C186.586 214.59 186.406 219.316 186.227 224.042H196.545L195.025 209.703L192.999 184.981L154.027 188.919L155.079 209.447Z" fill="#F5F5F5"/>
<path d="M228.191 165.678L227.852 162.203L192.1 165.922L193.607 184.244L224.472 181.127L228.191 165.678Z" fill="#F5F5F5"/>
<path d="M179.127 106.333H165.769L164.249 113.227H179.127V106.333Z" fill="#F5F5F5"/>
<path d="M222.671 108.661L189.221 106.346L187.861 114.247L189.266 131.395L224.537 128.003L222.671 108.661ZM190.452 114.234L192.248 109.245L221.298 111.085L222.953 125.348L191.408 129.093L190.452 114.234Z" fill="#F5F5F5"/>
<path d="M226.139 144.503L224.671 129.337L189.374 132.729L190.701 148.871L226.139 144.503Z" fill="#F5F5F5"/>
<path d="M130.908 233.104L117.217 233.97L117.159 233.079L117.14 237.119H131.024L130.908 233.104Z" fill="#F5F5F5"/>
<path d="M239.543 39.9666L239.742 40.4732L239.787 29.9689C239.802 26.1891 238.316 22.5579 235.654 19.8738C232.993 17.1896 229.375 15.6722 225.595 15.6553H221.157V47.2516L239.543 39.9666Z" fill="#EBEBEB"/>
<path d="M184.878 224.453L154.43 209.863L153.359 188.964L152.076 189.092L151.858 216.155L131.112 217.142V217.745L131.516 231.699L184.711 228.333C184.775 227.069 184.827 225.735 184.878 224.453ZM132.421 218.861L161.465 216.821L180.363 225.588L132.421 228.153V218.861Z" fill="#F5F5F5"/>
<path d="M230.885 75.0318L232.129 67.6442C221.227 63.7451 220.458 52.3622 220.49 48.9121L213.365 51.7338L224.094 73.2747L230.885 75.0318Z" fill="#F5F5F5"/>
<path d="M191.939 163.927L206.778 162.382L203.854 149.268L190.861 150.871L191.939 163.927Z" fill="#F5F5F5"/>
<path d="M223.958 87.9095L196.235 87.9031L193.933 87.7363L190.804 105.891L223.708 108.168L222.945 100.274L226.184 88.6149L223.958 87.9095Z" fill="#F5F5F5"/>
<path d="M222.042 83.0353L222.388 74.3715L211.486 52.4971L194.595 59.1857L200.366 83.0353H222.042ZM210.839 55.152L220.817 74.147L219.381 80.0661L202.29 79.4248L198.019 61.4687L210.839 55.152Z" fill="#F5F5F5"/>
<path d="M226.356 187.592L226.863 204.618L238.874 203.938L238.913 204.605L226.889 205.285L227.498 225.652L238.855 224.934L238.939 226.268L227.536 226.992L227.844 237.118H238.906L239.15 180.319L227.831 181.461L226.356 187.592Z" fill="#F5F5F5"/>
<path d="M153.346 49.5405L127.907 45.8916L121.545 77.597L153.456 79.9633C153.584 75.0703 153.475 60.1026 153.346 49.5405Z" fill="#EBEBEB"/>
<path d="M195.179 83.042H199.033L193.582 60.6738L179.429 61.251L179.769 81.8941L195.179 83.042Z" fill="#F5F5F5"/>
<path d="M154.109 79.9956L179.12 81.8489L178.786 61.2764L154.167 62.2832C154.193 69.2604 154.212 76.6609 154.109 79.9956Z" fill="#F5F5F5"/>
<path d="M226.333 146.498L204.522 149.191L207.453 162.312L227.66 160.208L226.333 146.498Z" fill="#F5F5F5"/>
<path d="M232.244 66.9971L233.642 58.7052L239.664 59.1733L239.741 41.3198L221.143 48.6754C220.791 61.2319 228.678 65.6504 232.244 66.9971Z" fill="#EBEBEB"/>
<path d="M225.094 99.0421L225.85 106.872L239.459 107.815L239.523 91.6865L228.133 88.0889L225.094 99.0421Z" fill="#F5F5F5"/>
<path d="M231.572 165.915L228 180.774L239.152 179.645L239.223 164.068C235.798 163.164 232.81 162.433 231.2 162.145L231.572 165.915Z" fill="#F5F5F5"/>
<path d="M224.036 83.2918L239.543 88.1849L239.581 79.3736L224.357 75.436L224.036 83.2918Z" fill="#F5F5F5"/>
<path d="M231.008 160.08C232.258 160.272 234.625 160.772 239.229 162.004L239.37 127.945L228 129.035L231.008 160.08Z" fill="#F5F5F5"/>
<path d="M227.871 127.688L239.376 126.579L239.446 109.822L226.05 108.892L227.871 127.688Z" fill="#F5F5F5"/>
<path d="M233.527 67.4198C235.714 68.0611 237.741 68.5934 239.62 68.9717L239.658 60.5131L234.759 60.1348L233.527 67.4198Z" fill="#F5F5F5"/>
<path d="M232.188 75.3916L239.588 77.3155L239.62 69.6713C237.7 69.2951 235.633 68.7692 233.419 68.0938L232.188 75.3916Z" fill="#F5F5F5"/>
<path d="M238.94 226.268L238.856 224.934L227.499 225.652L226.89 205.285L238.914 204.605L238.882 203.964L226.864 204.643L226.358 187.623L227.833 181.486L239.151 180.345V179.671L227.999 180.8L231.571 165.941L231.199 162.151C232.809 162.459 235.797 163.19 239.222 164.075V161.991C234.618 160.779 232.251 160.279 231.001 160.067L227.993 129.003L239.363 127.913V126.566L227.858 127.676L226.037 108.879L239.434 109.809V107.796L225.825 106.859L225.069 99.0293L228.108 88.076L239.523 91.7057V88.2043L224.017 83.3113L224.331 75.4555L239.555 79.393V77.3216L232.155 75.3977L233.386 68.087C235.605 68.7625 237.672 69.2884 239.588 69.6646V68.9784C237.709 68.6001 235.682 68.087 233.495 67.4265L234.727 60.1415L239.626 60.5198V59.1795L233.604 58.7114L232.206 67.0033C228.641 65.6565 220.753 61.2317 221.131 48.6816L239.729 41.326V40.4731L239.53 39.9665L221.163 47.2323V15.6359H220.49V47.5016L212.75 50.567L201.149 27.2112C200.596 27.6084 199.956 27.8678 199.282 27.9679L210.896 51.3045L193.023 58.3587L193.421 60.0004L179.415 60.5711L178.877 27.9102H178.235L178.774 60.616L154.161 61.6228C154.123 56.5823 154.065 51.8688 154.033 49.2524V48.9702L152.526 15.3281H151.853L153.36 48.874L128.042 45.2315L134.063 15.2319H132.338H132.018L126.054 44.9429L118.018 43.7886L117.954 44.2246V44.4555L125.919 45.597L119.506 77.4306L117.787 77.3024V80.6499L130.305 81.5798V98.1186L117.717 100.94V102.999L132.332 99.6898V81.7337L179.146 85.2031V104.326H164.159L162.197 113.234H150.012L117.64 119.121V121.16L150.198 115.235H187.278L188.605 131.459L150.044 135.172L150.172 136.5L188.714 132.793L191.279 163.889L152.334 158.804L152.071 160.792L191.446 165.922L192.953 184.295L151.744 188.457L130.357 189.971V161.953L150.621 150.134L149.608 148.402L129.818 159.945L117.486 158.316V160.324L129.67 161.933V179.774L117.371 181.057V183.07L129.677 181.788V190.682L130.402 215.898L117.204 221.067V223.221L130.478 218.027L130.876 231.763L117.14 232.636V233.078L117.197 233.969L130.889 233.104L131.004 237.118H131.646L131.53 233.059L184.629 229.705C184.533 232.309 184.43 234.835 184.34 237.118H185.758C185.841 234.97 185.944 232.379 186.053 229.615L197.512 228.89L199.154 237.118H199.834L198.186 228.852L224.235 227.204L224.53 237.118H227.878L238.94 226.268ZM186.072 228.3C186.117 227.114 186.162 225.902 186.207 224.69L196.647 224.722L197.217 227.595L186.072 228.3ZM197.891 227.55L197.25 224.344L195.691 209.665L194.813 198.961L223.286 196.82L224.165 225.896L197.891 227.55ZM204.355 183.827L219.336 182.32L218.919 188.201L205.49 189.65L204.355 183.827ZM203.714 183.898L206.215 196.723L194.736 197.602L193.69 184.911L203.714 183.898ZM223.26 195.441L206.888 196.672L205.772 190.958L220.195 189.4L220.708 182.172L224.318 181.813L223.036 187.239L223.26 195.441ZM203.868 149.268L206.792 162.382L191.953 163.921L190.888 150.871L203.868 149.268ZM207.465 162.312L204.535 149.191L226.338 146.504L227.666 160.208L207.465 162.312ZM222.484 106.635L189.58 104.358L192.709 86.2035L195.011 86.3766H222.734L224.96 87.0756L221.708 98.7599L222.484 106.635ZM220.503 48.9189C220.471 52.369 221.227 63.7519 232.142 67.651L230.885 75.0322L224.094 73.2751L213.365 51.7341L220.503 48.9189ZM211.525 52.478L222.427 74.3524L222.08 83.0163H200.405L194.633 59.1667L211.525 52.478ZM193.581 60.6737L199.032 83.0355H195.185L179.794 81.894L179.454 61.2509L193.581 60.6737ZM178.761 61.2765L179.095 81.8491L154.084 79.9958C154.187 76.6611 154.168 69.2414 154.084 62.2834L178.761 61.2765ZM127.907 45.8856L153.347 49.5345C153.475 60.0966 153.584 75.0643 153.456 79.9445L121.545 77.5974L127.907 45.8856ZM192.036 86.1522L187.367 113.227H179.794V85.2479L192.036 86.1522ZM165.781 106.327H179.14V113.227H164.262L165.781 106.327ZM187.874 114.241L189.233 106.34L222.683 108.655L224.556 127.996L189.285 131.389L187.874 114.241ZM224.684 129.33L226.159 144.503L190.721 148.87L189.375 132.748L224.684 129.33ZM192.113 165.916L227.865 162.196L228.205 165.672L224.485 181.121L193.62 184.237L192.113 165.916ZM195.024 209.703L196.551 224.036H186.232C186.412 219.31 186.591 214.583 186.713 211.031C186.938 204.663 186.938 204.663 186.508 204.451L186.194 205.092L185.552 205.131C185.585 205.689 185.27 214.417 184.911 223.728L155.078 209.447L154.027 188.925L192.998 184.988L195.024 209.703ZM151.417 189.182L151.205 215.552L131.101 216.507L130.357 190.67L151.417 189.182ZM131.133 217.79V217.187L151.878 216.199L152.096 189.137L153.379 189.009L154.45 209.908L184.879 224.453C184.828 225.735 184.776 227.056 184.732 228.345L131.537 231.712L131.133 217.79Z" fill="white"/>
<path d="M161.465 216.834L132.421 218.874V228.198L180.357 225.601L161.465 216.834Z" fill="#E0E0E0"/>
<path d="M221.297 111.086L192.247 109.245L190.451 114.234L191.432 129.093L222.977 125.348L221.297 111.086Z" fill="#E0E0E0"/>
<path d="M117.139 205.553L117.068 253.393V258.524C117.165 262.225 118.699 265.744 121.346 268.333C123.993 270.923 127.544 272.379 131.247 272.395L224.504 272.825C226.376 272.834 228.232 272.474 229.965 271.766C231.698 271.057 233.275 270.014 234.605 268.696C235.935 267.378 236.992 265.811 237.716 264.084C238.44 262.358 238.816 260.505 238.824 258.633L238.913 205.553H117.139Z" fill="white"/>
<path d="M151.153 47.7834L150.672 20.458H136.48L132.363 45.0322L151.153 47.7834Z" fill="#E0E0E0"/>
<path d="M219.381 80.0792L220.824 74.1537L210.839 55.1587L198.02 61.4626L202.297 79.4315L219.381 80.0792Z" fill="#EBEBEB"/>
<path d="M132.421 163.332C132.575 164.191 132.421 187.31 132.421 187.31L151.127 186.13L148.953 154.553L132.421 163.332Z" fill="#E0E0E0"/>
<path d="M194.703 182.102L193.716 167.776L225.748 163.659V166.128L221.875 179.3L194.703 182.102Z" fill="#E0E0E0"/>
<path d="M224.568 218.598L224.164 209.254L196.018 210.62C195.284 210.653 194.553 210.499 193.895 210.171L153.956 189.996C153.501 189.766 153.116 189.42 152.838 188.993C152.56 188.567 152.399 188.074 152.372 187.566L146.94 82.1441C146.924 81.8939 146.963 81.6432 147.054 81.4095C147.144 81.1758 147.285 80.9647 147.466 80.7909C147.645 80.6171 147.858 80.4827 148.093 80.3965C148.327 80.3104 148.576 80.2743 148.825 80.2907L165.941 81.5733V62.8477H167.949V81.8234C167.947 82.0654 167.897 82.3046 167.799 82.5261C167.702 82.7477 167.561 82.947 167.383 83.1117C167.206 83.2763 166.997 83.4029 166.769 83.4836C166.541 83.5642 166.298 83.5972 166.057 83.5806L148.954 82.298L154.373 187.469C154.382 187.625 154.432 187.776 154.518 187.906C154.603 188.036 154.721 188.142 154.86 188.213L194.799 208.388C195.147 208.562 195.534 208.644 195.922 208.626L224.312 207.247C224.545 207.236 224.778 207.271 224.998 207.35C225.218 207.429 225.42 207.55 225.593 207.708C225.765 207.865 225.905 208.055 226.005 208.266C226.104 208.478 226.161 208.707 226.171 208.94L226.582 218.514L224.568 218.598Z" fill="white"/>
<path d="M222.15 98.9969C222.165 96.6238 221.631 94.2793 220.59 92.1467C219.549 90.0141 218.029 88.1511 216.148 86.7034C214.268 85.2557 212.078 84.2624 209.75 83.8012C207.422 83.34 205.019 83.4235 202.729 84.0449C200.438 84.6664 198.323 85.8091 196.547 87.3837C194.772 88.9583 193.384 90.9222 192.493 93.1219C191.603 95.3216 191.233 97.6974 191.412 100.064C191.592 102.43 192.316 104.723 193.529 106.763L193.574 106.821C194.164 107.808 194.901 108.52 195.645 109.565L204.572 121.384C204.83 121.728 205.165 122.007 205.549 122.199C205.934 122.392 206.358 122.492 206.788 122.492C207.218 122.492 207.642 122.392 208.026 122.199C208.411 122.007 208.745 121.728 209.003 121.384L217.776 109.758C218.575 108.815 219.32 107.828 220.008 106.801L220.04 106.763C221.424 104.409 222.153 101.728 222.15 98.9969ZM206.759 105.686C205.421 105.686 204.113 105.289 203 104.545C201.887 103.802 201.02 102.745 200.508 101.509C199.996 100.273 199.862 98.9125 200.123 97.6001C200.384 96.2877 201.029 95.0822 201.975 94.136C202.921 93.1898 204.127 92.5454 205.439 92.2844C206.751 92.0233 208.112 92.1573 209.348 92.6694C210.584 93.1814 211.641 94.0486 212.384 95.1612C213.128 96.2738 213.524 97.5819 213.524 98.92C213.526 100.712 212.817 102.43 211.551 103.699C210.286 104.968 208.57 105.682 206.778 105.686H206.759Z" fill="#ED8D34"/>
<path d="M139.392 225.85C139.392 224.779 139.146 223.722 138.671 222.762C138.197 221.801 137.508 220.963 136.657 220.312C135.807 219.661 134.817 219.215 133.766 219.008C132.715 218.802 131.631 218.84 130.597 219.12C129.563 219.401 128.608 219.915 127.805 220.625C127.003 221.334 126.374 222.219 125.969 223.21C125.563 224.201 125.392 225.273 125.468 226.341C125.543 227.41 125.864 228.447 126.406 229.371C126.675 229.826 127.009 230.147 127.348 230.653L131.395 236.015C131.515 236.167 131.668 236.29 131.842 236.374C132.017 236.459 132.208 236.503 132.402 236.503C132.596 236.503 132.787 236.459 132.961 236.374C133.136 236.29 133.289 236.167 133.409 236.015L137.385 230.737C137.747 230.309 138.086 229.862 138.398 229.396C139.044 228.326 139.387 227.1 139.392 225.85ZM132.421 228.883C131.813 228.885 131.218 228.705 130.712 228.368C130.206 228.031 129.811 227.552 129.578 226.99C129.345 226.429 129.283 225.81 129.402 225.214C129.52 224.618 129.813 224.07 130.243 223.64C130.673 223.21 131.22 222.917 131.817 222.799C132.413 222.68 133.032 222.742 133.593 222.975C134.155 223.208 134.634 223.603 134.971 224.109C135.308 224.615 135.488 225.21 135.486 225.818C135.486 226.631 135.163 227.411 134.589 227.986C134.014 228.561 133.234 228.883 132.421 228.883Z" fill="#ED8D34"/>
<path d="M223.535 230.865C223.535 230.955 206.137 231.032 184.68 231.032C163.222 231.032 145.817 230.955 145.817 230.865C145.817 230.776 163.216 230.699 184.68 230.699C206.144 230.699 223.535 230.737 223.535 230.865Z" fill="#263238"/>
<path d="M185.757 237.118C185.757 237.215 176.824 237.285 165.807 237.285C154.789 237.285 145.85 237.215 145.85 237.118C145.85 237.022 154.783 236.952 165.807 236.952C176.83 236.952 185.757 237.029 185.757 237.118Z" fill="#263238"/>
<path d="M149.396 216.309L150.73 219.021L153.718 219.457L151.557 221.561L152.07 224.543L149.396 223.138L146.722 224.543L147.229 221.561L145.067 219.457L148.056 219.021L149.396 216.309Z" fill="#ED8D34"/>
<path d="M162.055 216.309L163.396 219.021L166.384 219.457L164.216 221.561L164.729 224.543L162.055 223.138L159.381 224.543L159.894 221.561L157.727 219.457L160.721 219.021L162.055 216.309Z" fill="#ED8D34"/>
<path d="M174.714 216.309L176.054 219.021L179.043 219.457L176.881 221.561L177.388 224.543L174.714 223.138L172.04 224.543L172.553 221.561L170.392 219.457L173.38 219.021L174.714 216.309Z" fill="#ED8D34"/>
<path d="M187.379 216.309L188.713 219.021L191.702 219.457L189.541 221.561L190.054 224.543L187.379 223.138L184.705 224.543L185.212 221.561L183.051 219.457L186.039 219.021L187.379 216.309Z" fill="#ED8D34"/>
<path d="M200.039 216.309L201.379 219.021L204.367 219.457L202.206 221.561L202.713 224.543L200.039 223.138L197.364 224.543L197.878 221.561L195.71 219.457L198.705 219.021L200.039 216.309Z" fill="#E0E0E0"/>
<path d="M171.418 249.264C171.418 249.36 166.557 249.431 160.561 249.431C154.565 249.431 149.704 249.36 149.704 249.264C149.704 249.168 154.565 249.097 160.561 249.097C166.557 249.097 171.418 249.174 171.418 249.264Z" fill="#E0E0E0"/>
<path d="M227.21 254.734C227.21 254.823 209.857 254.9 188.457 254.9C167.057 254.9 149.704 254.823 149.704 254.734C149.704 254.644 167.019 254.561 188.457 254.561C209.896 254.561 227.21 254.637 227.21 254.734Z" fill="#E0E0E0"/>
<path d="M135.692 258.512C139.347 258.512 142.31 255.549 142.31 251.894C142.31 248.238 139.347 245.275 135.692 245.275C132.037 245.275 129.074 248.238 129.074 251.894C129.074 255.549 132.037 258.512 135.692 258.512Z" fill="#F5F5F5"/>
<path d="M136.468 251.708C136.849 251.551 137.174 251.284 137.402 250.941C137.631 250.599 137.752 250.196 137.75 249.784C137.754 249.529 137.708 249.276 137.615 249.039C137.521 248.802 137.382 248.586 137.205 248.403C137.028 248.22 136.816 248.073 136.582 247.972C136.349 247.87 136.097 247.816 135.842 247.812C135.588 247.808 135.335 247.854 135.098 247.947C134.861 248.041 134.644 248.18 134.461 248.357C134.278 248.534 134.132 248.746 134.03 248.98C133.929 249.213 133.875 249.465 133.87 249.72C133.863 250.124 133.975 250.522 134.192 250.864C134.408 251.206 134.72 251.477 135.089 251.643C132.094 252.06 132.197 255.305 132.197 255.305L139.251 255.414C139.251 255.414 139.418 252.189 136.468 251.708Z" fill="#E0E0E0"/>
<path d="M178.446 265.963C178.359 265.961 178.276 265.924 178.215 265.861L175.009 262.513C174.979 262.483 174.955 262.448 174.939 262.409C174.922 262.37 174.914 262.328 174.914 262.285C174.914 262.243 174.922 262.201 174.939 262.162C174.955 262.123 174.979 262.088 175.009 262.058C175.038 262.028 175.073 262.004 175.112 261.988C175.15 261.972 175.192 261.963 175.233 261.963C175.275 261.963 175.317 261.972 175.355 261.988C175.394 262.004 175.429 262.028 175.458 262.058L178.44 265.162L181.364 262.115C181.425 262.056 181.507 262.023 181.592 262.023C181.677 262.023 181.758 262.056 181.819 262.115C181.849 262.145 181.873 262.181 181.89 262.22C181.906 262.259 181.914 262.301 181.914 262.343C181.914 262.385 181.906 262.427 181.89 262.466C181.873 262.505 181.849 262.541 181.819 262.571L178.703 265.861C178.671 265.896 178.631 265.924 178.587 265.942C178.542 265.96 178.494 265.967 178.446 265.963Z" fill="#263238"/>
<path d="M66.3941 52.5869C66.9328 52.465 67.5933 52.4394 67.8883 51.9456C68.1833 51.4518 67.8177 50.7271 67.3304 50.336C66.843 49.9448 66.2402 49.6498 65.958 49.0919C65.8297 48.7524 65.7901 48.3858 65.8428 48.0267C65.8956 47.6677 66.0389 47.328 66.2594 47.0397C66.6153 46.4797 67.0909 46.0055 67.6521 45.6514C68.2132 45.2972 68.8459 45.0719 69.5045 44.9915C70.1632 44.9112 70.8315 44.9779 71.4613 45.1868C72.0911 45.3957 72.6668 45.7416 73.1469 46.1996L74.6924 46.065C74.9073 47.8678 74.8944 49.6906 74.6539 51.4903C74.3989 53.3058 73.4665 54.9576 72.0438 56.114C71.439 56.5932 70.6928 56.8593 69.9212 56.8707C69.5369 56.8704 69.1602 56.7636 68.8331 56.5621C68.5059 56.3605 68.241 56.0722 68.0678 55.7292C67.9171 55.3806 67.9049 54.9876 68.0335 54.6302C68.1622 54.2729 68.4221 53.9779 68.7604 53.8053C67.9539 54.0437 67.1114 54.137 66.2722 54.0811C66.1319 54.0796 65.9937 54.0472 65.8674 53.9862C65.741 53.9253 65.6296 53.8372 65.5412 53.7284C65.2526 53.2282 65.8361 52.7087 66.3941 52.5869Z" fill="#263238"/>
<path d="M75.2559 54.2286C74.2524 51.8621 73.4605 49.4114 72.8896 46.9051C72.3143 44.3906 72.3738 41.7724 73.0627 39.2866C73.1781 38.9146 74.1914 36.4008 74.5826 36.42C74.8583 36.42 74.2748 38.7479 74.4287 38.9852C75.8278 41.2637 76.499 43.9147 76.3525 46.5845C76.271 49.1657 75.9011 51.7297 75.2495 54.2286" fill="#263238"/>
<path d="M84.4328 79.6043C80.4504 79.7454 76.0384 72.3577 75.8075 68.3882L74.4287 44.4616C73.8516 38.0487 77.1093 32.3669 83.535 31.9693H84.1314C87.0282 31.9586 89.8231 33.0373 91.9615 34.9915C94.0998 36.9457 95.4252 39.6325 95.6746 42.5185C96.1428 48.0785 96.5853 54.2349 96.5596 57.2169C96.5083 63.3989 90.3263 64.3801 90.3263 64.3801C90.3263 64.3801 90.3776 65.8166 90.461 67.625C90.6469 71.6972 90.3648 81.0921 86.2926 81.2204L84.4328 79.6043Z" fill="#FFBE9D"/>
<path d="M90.3134 64.374C87.4594 64.3776 84.6641 63.563 82.2588 62.0269C82.2588 62.0269 84.2404 66.5159 90.4032 65.9387L90.3134 64.374Z" fill="#EB996E"/>
<path d="M93.6735 47.6235C93.677 47.8533 93.5904 48.0753 93.4321 48.2419C93.2739 48.4085 93.0567 48.5065 92.827 48.5149C92.7148 48.5236 92.6019 48.5099 92.4951 48.4744C92.3882 48.439 92.2895 48.3826 92.2047 48.3086C92.1199 48.2345 92.0507 48.1443 92.0012 48.0432C91.9517 47.9421 91.9229 47.8321 91.9164 47.7197C91.913 47.6043 91.9323 47.4894 91.9734 47.3815C92.0144 47.2736 92.0763 47.1748 92.1555 47.0908C92.2347 47.0069 92.3297 46.9393 92.435 46.8921C92.5403 46.8448 92.6539 46.8188 92.7693 46.8155C92.8823 46.8068 92.9958 46.821 93.1031 46.8573C93.2104 46.8936 93.3093 46.9512 93.3937 47.0267C93.4782 47.1021 93.5465 47.1939 93.5946 47.2965C93.6427 47.3991 93.6696 47.5103 93.6735 47.6235Z" fill="#263238"/>
<path d="M94.3469 45.0837C94.2379 45.1991 93.571 44.7053 92.6219 44.7117C91.6728 44.7181 90.9737 45.1927 90.8711 45.0773C90.7685 44.9618 90.9353 44.8208 91.2367 44.5963C91.6471 44.3114 92.1351 44.1592 92.6347 44.1602C93.1268 44.1564 93.6074 44.3092 94.007 44.5963C94.302 44.8208 94.4047 45.0324 94.3469 45.0837Z" fill="#263238"/>
<path d="M85.0743 47.9506C85.0746 48.1811 84.9862 48.4029 84.8274 48.5701C84.6686 48.7372 84.4516 48.8368 84.2214 48.8484C84.1092 48.8571 83.9963 48.8433 83.8895 48.8079C83.7826 48.7725 83.6839 48.7161 83.5991 48.642C83.5143 48.568 83.4451 48.4778 83.3956 48.3767C83.3461 48.2755 83.3173 48.1656 83.3108 48.0532C83.3056 47.8229 83.3917 47.6 83.5503 47.433C83.7089 47.266 83.9271 47.1685 84.1573 47.1618C84.2695 47.1522 84.3826 47.165 84.4898 47.1997C84.597 47.2343 84.6962 47.29 84.7816 47.3634C84.867 47.4369 84.9369 47.5267 84.9871 47.6275C85.0374 47.7283 85.067 47.8381 85.0743 47.9506Z" fill="#263238"/>
<path d="M85.0742 45.5329C84.9652 45.6483 84.2918 45.1545 83.3427 45.161C82.3936 45.1674 81.701 45.6419 81.5984 45.5265C81.4958 45.4111 81.6561 45.27 81.9575 45.0455C82.367 44.7587 82.8556 44.6064 83.3555 44.6094C83.8496 44.6056 84.3322 44.7583 84.7343 45.0455C85.0036 45.2379 85.0742 45.4495 85.0742 45.5329Z" fill="#263238"/>
<path d="M88.4803 52.7851C88.9784 52.6228 89.4961 52.5279 90.0194 52.503C90.2631 52.503 90.494 52.426 90.5324 52.2593C90.5526 52.0092 90.4968 51.7588 90.3721 51.541C90.1413 50.9575 89.8976 50.3418 89.6475 49.6941C88.6406 47.0712 87.9096 44.9101 88.0186 44.8716C88.1276 44.8331 89.0254 46.9302 90.0322 49.553C90.2695 50.1943 90.5068 50.8356 90.7248 51.4128C90.8764 51.7047 90.9218 52.0402 90.8531 52.3619C90.8182 52.4471 90.7642 52.5233 90.6953 52.5844C90.6263 52.6456 90.5443 52.6901 90.4555 52.7146C90.3217 52.7523 90.1839 52.7738 90.0451 52.7787C89.5256 52.8433 89.0003 52.8454 88.4803 52.7851Z" fill="#263238"/>
<path d="M85.7148 53.4528C85.8688 53.4528 85.8687 54.4724 86.7537 55.2035C87.6387 55.9345 88.7417 55.8448 88.7481 55.9538C88.7546 56.0628 88.5045 56.159 88.0363 56.1718C87.4328 56.1829 86.8446 55.9808 86.3754 55.6011C85.927 55.2338 85.6376 54.7078 85.5673 54.1325C85.5032 53.7029 85.6186 53.4463 85.7148 53.4528Z" fill="#263238"/>
<path d="M84.9839 41.646C84.8877 41.9025 83.9386 41.7807 82.8292 41.9218C81.7198 42.0629 80.8091 42.3643 80.6616 42.1334C80.5975 42.0244 80.7514 41.7807 81.1169 41.5306C81.5988 41.2176 82.1485 41.0241 82.7202 40.9663C83.2897 40.8934 83.8683 40.9594 84.4068 41.1587C84.8172 41.319 85.0224 41.5242 84.9839 41.646Z" fill="#263238"/>
<path d="M93.9441 41.9288C93.7774 42.1404 93.1233 41.9288 92.3409 41.9288C91.5585 41.9288 90.8852 42.0763 90.7313 41.8519C90.6671 41.7429 90.7697 41.5248 91.0583 41.3196C91.4393 41.0721 91.8868 40.9468 92.3409 40.9605C92.8021 40.97 93.2495 41.1199 93.6235 41.3901C93.9249 41.6018 94.0531 41.8198 93.9441 41.9288Z" fill="#263238"/>
<path d="M74.9614 49.0339C74.8588 48.989 70.7096 47.7962 70.8636 52.0223C71.0175 56.2484 75.2243 55.2287 75.2243 55.1005C75.2243 54.9722 74.9614 49.0339 74.9614 49.0339Z" fill="#FFBE9D"/>
<path d="M73.877 53.5487C73.877 53.5487 73.8064 53.6 73.6846 53.6641C73.507 53.7323 73.3106 53.7323 73.1331 53.6641C72.8547 53.4989 72.625 53.263 72.4673 52.9803C72.3096 52.6976 72.2295 52.3781 72.2353 52.0545C72.2094 51.6937 72.2665 51.3317 72.402 50.9963C72.4355 50.8627 72.5017 50.7394 72.5946 50.6375C72.6875 50.5357 72.8042 50.4585 72.9343 50.4128C73.0181 50.3878 73.1081 50.3927 73.1888 50.4266C73.2694 50.4605 73.3359 50.5214 73.3767 50.5988C73.4409 50.7142 73.4152 50.7975 73.4345 50.804C73.4537 50.8104 73.5242 50.7334 73.4858 50.5603C73.458 50.4546 73.3946 50.3617 73.3062 50.2973C73.2471 50.256 73.1804 50.2267 73.11 50.2113C73.0395 50.1959 72.9667 50.1946 72.8958 50.2076C72.7245 50.249 72.5666 50.333 72.4365 50.4519C72.3065 50.5707 72.2085 50.7205 72.1519 50.8873C71.9881 51.2604 71.9156 51.6671 71.9403 52.0737C71.9335 52.4503 72.0375 52.8206 72.2393 53.1387C72.4411 53.4567 72.7318 53.7085 73.0753 53.8629C73.1857 53.8861 73.2997 53.8861 73.4101 53.8629C73.5205 53.8397 73.6249 53.7939 73.7166 53.7282C73.8705 53.6513 73.8898 53.5551 73.877 53.5487Z" fill="#EB996E"/>
<path d="M92.6221 35.6378C93.2634 35.2273 91.1343 33.1047 89.4156 32.4313C86.8505 31.3924 82.9193 30.8537 80.6107 31.6233C77.8275 32.5467 75.5445 34.0538 74.2427 36.6766C72.9977 39.3507 72.4843 42.3071 72.7549 45.2443C72.7574 46.1478 73.0033 47.0339 73.4667 47.8094C74.108 48.7201 75.2559 49.2523 75.2623 50.5477C75.2546 50.7837 75.2943 51.0188 75.3792 51.2391C75.464 51.4594 75.5922 51.6605 75.7561 51.8303C76.5642 52.6127 77.4748 51.8303 77.8788 51.0095C78.7317 49.3101 78.751 47.3349 78.7445 45.4367C78.8176 44.0854 78.6681 42.7314 78.3021 41.4286C78.0648 40.736 77.7057 40.0819 77.5069 39.3765C77.3843 39.0291 77.3391 38.6591 77.3745 38.2924C77.41 37.9258 77.5252 37.5713 77.7121 37.2538C77.809 37.1236 77.9185 37.0033 78.0391 36.8947C78.6047 36.355 79.3038 35.9755 80.0645 35.7952C80.8252 35.6149 81.6202 35.6402 82.3678 35.8686C84.7855 36.6061 88.9026 37.6835 89.9286 36.8306C90.6642 36.2961 91.2783 35.612 91.7307 34.8233L92.6221 35.6378Z" fill="#263238"/>
<path d="M80.81 31.0267C81.9476 30.5656 83.1654 30.335 84.3929 30.3482C85.6203 30.3614 86.8329 30.6182 87.9603 31.1036C88.5637 31.3489 89.1115 31.7133 89.5709 32.1749C90.0304 32.6366 90.3921 33.1861 90.6345 33.7906C91.0385 35.0283 90.5768 36.5931 89.3904 37.1318L89.3135 37.1895C87.5371 37.8756 86.3571 37.6833 84.5294 37.1446C82.9968 36.6893 81.6116 35.8171 80.0404 35.3682C78.3953 34.8876 76.6437 34.9121 75.0127 35.4387C76.524 33.4844 78.5235 31.9626 80.81 31.0267Z" fill="#263238"/>
<path d="M75.499 34.8035C76.1316 34.4919 76.8212 34.3129 77.5255 34.2777C78.2892 34.2622 79.0489 34.3928 79.7636 34.6625C80.6407 35.0094 81.4879 35.4277 82.2967 35.913C83.1199 36.4014 83.9772 36.83 84.8619 37.1956C85.6001 37.4922 86.3877 37.6467 87.1833 37.6509C87.7206 37.6554 88.2539 37.5575 88.7545 37.3623C88.9415 37.299 89.1138 37.1987 89.2611 37.0673C88.5992 37.315 87.8963 37.4347 87.1897 37.42C86.4261 37.3828 85.675 37.2113 84.9709 36.9134C84.1039 36.5408 83.2621 36.1124 82.4506 35.6308C81.6365 35.1383 80.7776 34.7239 79.8854 34.3931C79.1329 34.1274 78.3351 34.014 77.5383 34.0597C77.0021 34.0916 76.4783 34.2335 75.9992 34.4765C75.8099 34.5463 75.6389 34.6581 75.499 34.8035Z" fill="#455A64"/>
<path d="M77.2188 33.3481C77.822 33.1204 78.4595 32.9968 79.1041 32.9826C79.7986 32.996 80.4858 33.1261 81.137 33.3674C81.9382 33.675 82.7036 34.0685 83.42 34.5409C84.196 35.0283 84.927 35.5285 85.6325 35.9261C86.2398 36.2899 86.8849 36.5867 87.5563 36.8111C88.0195 36.9597 88.5005 37.0459 88.9864 37.0676C89.1647 37.0877 89.3451 37.0746 89.5187 37.0291C88.8794 36.9351 88.2489 36.7893 87.6333 36.5931C86.9768 36.3462 86.3454 36.0369 85.7479 35.6696C85.0681 35.2592 84.3499 34.759 83.5611 34.2652C82.832 33.78 82.0485 33.3818 81.2268 33.0788C80.5389 32.8388 79.8132 32.7258 79.0849 32.7453C78.5953 32.7638 78.1131 32.8703 77.6612 33.0595C77.4953 33.124 77.3446 33.2223 77.2188 33.3481Z" fill="#455A64"/>
<path d="M87.043 31.5721C87.043 31.5721 87.261 31.8735 87.6458 32.2968C88.1622 32.8315 88.6044 33.4333 88.9604 34.086C89.3048 34.7342 89.4708 35.4623 89.4414 36.1958C89.4093 36.7601 89.2618 37.0936 89.3067 37.1129C89.3516 37.1321 89.5696 36.8243 89.6723 36.2215C89.7744 35.4349 89.6263 34.6362 89.249 33.9385C88.8802 33.2577 88.3939 32.6477 87.8125 32.1364C87.3764 31.7453 87.075 31.54 87.043 31.5721Z" fill="#455A64"/>
<path d="M90.0704 33.4637C90.166 34.1005 90.1832 34.7466 90.1217 35.3876C89.9572 36.0195 89.7114 36.6273 89.3906 37.196C89.3906 37.196 89.6151 37.0998 89.8524 36.7984C90.1504 36.3987 90.3522 35.9357 90.4423 35.4453C90.5339 34.9541 90.5053 34.4481 90.359 33.9703C90.2435 33.6369 90.1025 33.4445 90.0704 33.4637Z" fill="#455A64"/>
<path d="M72.6266 45.3984C72.4905 45.9959 72.5082 46.6181 72.6779 47.2069C72.7508 47.8235 73.0259 48.3985 73.4603 48.8422C73.5373 48.7909 73.191 48.0854 72.9986 47.1363C72.9369 46.5454 72.8122 45.9628 72.6266 45.3984Z" fill="#ED8D34"/>
<path d="M68.2916 240.665L68.9329 254.548C68.9329 254.548 55.0298 259.826 54.8887 262.398L81.8228 262.186L81.7651 240.523L68.2916 240.665Z" fill="#455A64"/>
<path d="M77.2242 253.311C77.4949 253.383 77.7278 253.556 77.8755 253.795C78.0232 254.033 78.0747 254.318 78.0194 254.593C77.9538 254.856 77.7891 255.084 77.5597 255.228C77.3303 255.373 77.0538 255.423 76.7881 255.369C76.5132 255.287 76.2784 255.106 76.1292 254.861C75.98 254.615 75.9269 254.324 75.9801 254.042C76.0825 253.779 76.2822 253.565 76.5378 253.446C76.7934 253.327 77.0852 253.31 77.3525 253.4" fill="#E0E0E0"/>
<path d="M81.8097 262.186L81.7199 260.006L55.9144 261.006C55.9144 261.006 54.7152 261.539 54.8563 262.379L81.8097 262.186Z" fill="white"/>
<path d="M68.4648 254.413C68.4648 254.542 69.1061 254.599 69.7795 255.016C70.4528 255.433 70.7799 255.985 70.8953 255.933C71.0107 255.882 70.8184 255.119 70.0167 254.651C69.2151 254.183 68.4328 254.292 68.4648 254.413Z" fill="#263238"/>
<path d="M65.6426 255.599C65.6426 255.728 66.1877 255.952 66.6366 256.504C67.0855 257.055 67.2202 257.645 67.3548 257.639C67.4895 257.632 67.56 256.882 66.9893 256.209C66.4185 255.535 65.649 255.477 65.6426 255.599Z" fill="#263238"/>
<path d="M64.0654 258.999C64.1872 258.999 64.3604 258.357 64.0205 257.645C63.6806 256.934 63.0586 256.651 63.0008 256.76C62.9431 256.869 63.3343 257.248 63.6037 257.844C63.873 258.441 63.9115 258.986 64.0654 258.999Z" fill="#263238"/>
<path d="M68.6775 251.232C68.7352 251.354 69.3188 251.168 70.0819 251.232C70.845 251.297 71.403 251.508 71.4735 251.393C71.544 251.277 70.9797 250.816 70.1011 250.751C69.2226 250.687 68.6133 251.13 68.6775 251.232Z" fill="#263238"/>
<path d="M109.001 240.665L108.398 254.548C108.398 254.548 122.301 259.826 122.436 262.398L95.502 262.186L95.5661 240.523L109.001 240.665Z" fill="#455A64"/>
<path d="M100.074 253.311C99.8135 253.387 99.5902 253.557 99.447 253.787C99.3039 254.018 99.2508 254.294 99.2981 254.561C99.3665 254.824 99.5328 255.051 99.7628 255.195C99.9929 255.339 100.269 255.39 100.536 255.337C100.811 255.255 101.046 255.074 101.195 254.828C101.344 254.583 101.397 254.292 101.344 254.01C101.241 253.747 101.042 253.533 100.786 253.414C100.531 253.294 100.239 253.278 99.9715 253.368" fill="#E0E0E0"/>
<path d="M95.4834 262.186L95.5796 260.006L121.385 261.006C121.385 261.006 122.578 261.539 122.437 262.379L95.4834 262.186Z" fill="white"/>
<path d="M108.834 254.413C108.834 254.542 108.192 254.599 107.519 255.016C106.846 255.433 106.519 255.985 106.397 255.933C106.275 255.882 106.48 255.119 107.275 254.651C108.071 254.183 108.866 254.292 108.834 254.413Z" fill="#263238"/>
<path d="M111.656 255.599C111.656 255.728 111.111 255.952 110.662 256.504C110.213 257.055 110.072 257.645 109.944 257.639C109.815 257.632 109.732 256.882 110.309 256.209C110.886 255.535 111.649 255.477 111.656 255.599Z" fill="#263238"/>
<path d="M113.234 258.999C113.112 258.999 112.932 258.357 113.279 257.645C113.625 256.934 114.241 256.651 114.292 256.76C114.343 256.869 113.965 257.248 113.689 257.844C113.413 258.441 113.362 258.986 113.234 258.999Z" fill="#263238"/>
<path d="M108.623 251.232C108.566 251.354 107.982 251.168 107.219 251.232C106.456 251.297 105.891 251.508 105.827 251.393C105.763 251.277 106.321 250.816 107.2 250.751C108.078 250.687 108.687 251.13 108.623 251.232Z" fill="#263238"/>
<path d="M62.5391 136.051C62.5391 136.897 67.9964 251.111 67.9964 251.111L82.1689 251.246L86.7734 154.11C86.7734 154.11 92.6989 205.15 92.6989 206.279C92.6989 207.407 94.3791 251.81 94.3791 251.81H109.334V145.933L99.7146 130.427L62.5391 136.051Z" fill="#263238"/>
<path d="M101.703 251.797C101.693 251.712 101.693 251.626 101.703 251.541C101.703 251.355 101.703 251.105 101.703 250.784C101.703 250.098 101.703 249.123 101.703 247.873C101.664 245.34 101.587 241.678 101.459 237.157C101.183 228.108 100.67 215.622 100.035 201.828C99.4004 188.034 98.7527 175.535 98.3166 166.499C98.0986 162.01 97.919 158.342 97.7972 155.796C97.7459 154.546 97.7074 153.565 97.6753 152.885C97.6753 152.564 97.6753 152.314 97.6753 152.128C97.6668 152.041 97.6668 151.953 97.6753 151.865C97.6952 151.949 97.706 152.035 97.7074 152.122C97.7074 152.308 97.7074 152.558 97.7651 152.878C97.8036 153.565 97.8677 154.539 97.9447 155.79C98.0922 158.355 98.3038 161.985 98.586 166.487C99.0926 175.522 99.7531 188.008 100.401 201.809C101.049 215.609 101.517 228.102 101.728 237.15C101.831 241.678 101.869 245.34 101.869 247.866C101.869 249.149 101.869 250.098 101.869 250.784C101.869 251.105 101.869 251.355 101.869 251.541C101.824 251.633 101.768 251.719 101.703 251.797Z" fill="#455A64"/>
<path d="M75.589 151.878C75.6788 151.878 75.6724 174.105 75.589 201.527C75.5056 228.948 75.3325 251.182 75.2427 251.182C75.1529 251.182 75.1593 228.955 75.2427 201.527C75.3261 174.099 75.4992 151.872 75.589 151.878Z" fill="#455A64"/>
<path d="M87.9093 148.652C87.7087 148.779 87.4933 148.88 87.268 148.953C86.8255 149.12 86.1778 149.358 85.3826 149.64L85.2351 149.691V149.531C85.1453 148.126 85.0363 146.247 84.9401 144.189C84.8311 141.957 84.7541 139.937 84.7157 138.475C84.7157 137.744 84.7157 137.147 84.7157 136.743C84.6859 136.531 84.6859 136.315 84.7157 136.102C84.7713 136.312 84.8035 136.527 84.8119 136.743C84.8503 137.147 84.8952 137.737 84.9465 138.468C85.0427 139.931 85.1582 141.951 85.2608 144.182C85.3634 146.241 85.4339 148.12 85.4724 149.524L85.3121 149.415C86.1201 149.159 86.7742 148.96 87.2359 148.825C87.4526 148.741 87.6787 148.683 87.9093 148.652Z" fill="#455A64"/>
<path d="M86.6462 136.513C86.6462 136.513 86.6975 136.423 86.8642 136.359C87.11 136.287 87.3739 136.313 87.6017 136.43C87.7828 136.512 87.9338 136.649 88.0337 136.822C88.1337 136.994 88.1777 137.193 88.1596 137.392C88.1394 137.635 88.043 137.866 87.8841 138.051C87.7253 138.236 87.512 138.367 87.2746 138.424C87.0337 138.463 86.7868 138.427 86.5668 138.321C86.3468 138.216 86.1642 138.046 86.0434 137.834C85.9664 137.694 85.92 137.54 85.907 137.381C85.8941 137.222 85.915 137.062 85.9683 136.912C86.0216 136.762 86.1062 136.625 86.2164 136.509C86.3266 136.394 86.4599 136.304 86.6077 136.244C86.7744 136.179 86.8706 136.192 86.877 136.244C86.8834 136.295 86.4987 136.378 86.2678 136.885C86.1999 137.017 86.1677 137.165 86.1745 137.313C86.1812 137.462 86.2267 137.606 86.3063 137.731C86.4009 137.881 86.5365 137.999 86.6969 138.073C86.8573 138.147 87.0356 138.173 87.2105 138.148C87.3788 138.103 87.5299 138.009 87.6441 137.878C87.7584 137.746 87.8308 137.584 87.8518 137.411C87.8684 137.267 87.8427 137.122 87.7777 136.994C87.7127 136.865 87.6114 136.758 87.4863 136.686C87.2344 136.534 86.9378 136.473 86.6462 136.513Z" fill="#455A64"/>
<path d="M94.2891 137.712C94.1993 137.712 94.0775 137.211 94.0133 136.583C93.9492 135.954 93.9685 135.429 94.0582 135.416C94.148 135.403 94.2699 135.916 94.3404 136.544C94.4109 137.173 94.3853 137.699 94.2891 137.712Z" fill="#455A64"/>
<path d="M95.4509 137.596C95.3547 137.596 95.2841 137.058 95.2777 136.391C95.2713 135.724 95.3483 135.185 95.438 135.185C95.5278 135.185 95.6048 135.724 95.6048 136.391C95.6048 137.058 95.5406 137.596 95.4509 137.596Z" fill="#455A64"/>
<path d="M75.3651 138.398C75.0478 137.52 74.9444 136.579 75.0637 135.653C75.3811 136.531 75.4844 137.472 75.3651 138.398Z" fill="#455A64"/>
<path d="M76.7385 138.52C76.4458 138.105 76.3033 137.603 76.3345 137.096C76.2596 136.594 76.3616 136.082 76.6231 135.647C76.6855 136.123 76.6984 136.605 76.6616 137.083C76.7391 137.558 76.7649 138.04 76.7385 138.52Z" fill="#455A64"/>
<path d="M55.9014 266.822L60.5892 271.112C62.3698 272.747 64.7004 273.651 67.1175 273.645H109.969C112.379 273.646 114.702 272.742 116.478 271.112L121.165 266.822H55.9014Z" fill="#ED8D34"/>
<path d="M123.052 261.897H54.6133V266.97H123.052V261.897Z" fill="#ED8D34"/>
<path d="M49.0086 246.596H47.8799C45.4114 246.596 43.4102 248.597 43.4102 251.065V279.064C43.4102 281.533 45.4114 283.534 47.8799 283.534H49.0086C51.4772 283.534 53.4784 281.533 53.4784 279.064V251.065C53.4784 248.597 51.4772 246.596 49.0086 246.596Z" fill="#263238"/>
<path d="M48.8354 283.041C48.7456 283.041 48.5211 275.121 48.3416 265.341C48.162 255.562 48.0915 247.642 48.1877 247.642C48.2838 247.642 48.4955 255.562 48.675 265.335C48.8546 275.108 48.9251 283.041 48.8354 283.041Z" fill="#455A64"/>
<path d="M48.5204 280.283C47.5834 279.283 46.7258 278.211 45.9553 277.077C45.0869 276.002 44.3104 274.857 43.6338 273.652C44.5708 274.653 45.4285 275.725 46.1989 276.859C47.0646 277.935 47.841 279.081 48.5204 280.283Z" fill="#455A64"/>
<path d="M48.7968 276C47.8215 274.895 46.9277 273.72 46.1226 272.485C45.2262 271.316 44.4221 270.079 43.7178 268.785C44.6931 269.89 45.5868 271.065 46.392 272.299C47.2868 273.47 48.0908 274.707 48.7968 276Z" fill="#455A64"/>
<path d="M48.1875 270.522C47.2514 269.34 46.4067 268.088 45.6608 266.777C44.809 265.531 44.0503 264.223 43.3906 262.865C44.3377 264.046 45.1951 265.296 45.9558 266.604C46.7929 267.855 47.5387 269.164 48.1875 270.522Z" fill="#455A64"/>
<path d="M48.1878 266.059C47.8804 265.716 47.6195 265.335 47.4118 264.924C46.9693 264.199 46.3793 263.186 45.7444 262.064C45.1096 260.941 44.5516 259.909 44.1669 259.159C43.9241 258.771 43.7343 258.353 43.6025 257.915C43.9024 258.275 44.1626 258.666 44.3785 259.082C44.821 259.806 45.411 260.813 46.0394 261.935C46.6679 263.058 47.2258 264.077 47.617 264.828C47.8523 265.216 48.0437 265.629 48.1878 266.059Z" fill="#455A64"/>
<path d="M48.0916 261.153C47.1034 260.011 46.2611 258.751 45.5841 257.402C44.9428 256.311 44.4619 255.311 44.1092 254.58C43.8866 254.196 43.7162 253.784 43.6025 253.355C44.4323 254.606 45.1902 255.904 45.8727 257.241C46.4819 258.319 47.0398 259.293 47.4567 259.992C47.7085 260.356 47.9213 260.745 48.0916 261.153Z" fill="#455A64"/>
<path d="M47.5077 256.062C46.8355 255.063 46.2519 254.007 45.7633 252.907C45.1785 251.852 44.6912 250.747 44.3076 249.604C44.9879 250.599 45.574 251.655 46.0583 252.759C46.6442 253.812 47.1295 254.918 47.5077 256.062Z" fill="#455A64"/>
<path d="M53.0487 273.043C52.5425 274.322 51.9357 275.56 51.2339 276.743C50.6273 277.978 49.9217 279.162 49.124 280.283C49.6342 279.004 50.2431 277.767 50.9453 276.583C51.5502 275.348 52.2536 274.165 53.0487 273.043Z" fill="#455A64"/>
<path d="M52.9333 267.727C52.5599 269.111 52.0057 270.439 51.2852 271.677C50.7401 272.723 50.2206 273.653 49.823 274.32C49.6402 274.699 49.4049 275.051 49.124 275.365C49.6607 274.043 50.2841 272.757 50.9902 271.517C51.5353 270.472 52.0098 269.523 52.3497 268.83C52.5016 268.441 52.6974 268.071 52.9333 267.727Z" fill="#455A64"/>
<path d="M53.0483 260.646C52.5513 262.181 51.9514 263.681 51.2527 265.136C50.6541 266.628 49.9556 268.078 49.1621 269.477C49.6599 267.941 50.2619 266.442 50.9641 264.988C51.5575 263.494 52.2539 262.044 53.0483 260.646Z" fill="#455A64"/>
<path d="M52.5097 256.646C52.1827 257.882 51.7537 259.09 51.2271 260.256C50.798 261.462 50.2659 262.629 49.6367 263.745C49.9567 262.506 50.3859 261.297 50.9193 260.134C51.3484 258.928 51.8805 257.761 52.5097 256.646Z" fill="#455A64"/>
<path d="M52.0558 251.899C51.872 253.161 51.5025 254.388 50.9592 255.542C50.5167 256.74 49.8986 257.866 49.1251 258.883C49.0417 258.832 49.8497 257.337 50.6514 255.414C51.453 253.49 51.9596 251.874 52.0558 251.899Z" fill="#455A64"/>
<path d="M44.6729 246.257L54.6128 263.892V249.226C54.6218 248.511 54.3513 247.821 53.8591 247.302C53.3668 246.784 52.6916 246.478 51.9771 246.449L44.6729 246.257Z" fill="#ED8D34"/>
<path d="M54.6128 254.863H52.9326V268.593H54.6128V254.863Z" fill="#ED8D34"/>
<path d="M129.38 283.521H130.509C132.977 283.521 134.979 281.52 134.979 279.052V251.059C134.979 248.591 132.977 246.59 130.509 246.59H129.38C126.911 246.59 124.91 248.591 124.91 251.059V279.052C124.91 281.52 126.911 283.521 129.38 283.521Z" fill="#263238"/>
<path d="M129.554 283.028C129.458 283.028 129.554 275.101 129.714 265.328C129.875 255.555 130.112 247.622 130.202 247.628C130.291 247.635 130.202 255.555 130.041 265.334C129.881 275.114 129.644 283.034 129.554 283.028Z" fill="#455A64"/>
<path d="M129.876 280.245C131.333 277.899 132.976 275.673 134.788 273.588C134.107 274.798 133.331 275.952 132.467 277.039C131.689 278.174 130.823 279.246 129.876 280.245Z" fill="#455A64"/>
<path d="M129.587 275.987C130.296 274.696 131.1 273.459 131.992 272.287C132.795 271.049 133.691 269.875 134.672 268.772C133.961 270.066 133.155 271.304 132.261 272.479C131.46 273.715 130.566 274.887 129.587 275.987Z" fill="#455A64"/>
<path d="M130.202 270.51C130.856 269.152 131.606 267.843 132.447 266.592C133.196 265.285 134.04 264.035 134.973 262.853C133.574 265.52 131.98 268.079 130.202 270.51Z" fill="#455A64"/>
<path d="M130.202 266.046C130.342 265.61 130.534 265.193 130.773 264.802C131.158 264.052 131.716 263.026 132.344 261.903C132.973 260.781 133.569 259.774 134.005 259.05C134.217 258.638 134.48 258.254 134.787 257.908C134.646 258.34 134.457 258.756 134.223 259.146C133.832 259.896 133.274 260.922 132.639 262.051C132.004 263.18 131.414 264.186 130.972 264.911C130.765 265.321 130.506 265.702 130.202 266.046Z" fill="#455A64"/>
<path d="M130.298 261.141C130.472 260.733 130.687 260.344 130.939 259.98C131.35 259.281 131.907 258.306 132.517 257.229C133.2 255.891 133.96 254.593 134.793 253.343C134.676 253.771 134.506 254.182 134.287 254.568C133.928 255.299 133.415 256.306 132.805 257.389C132.124 258.737 131.282 259.996 130.298 261.141Z" fill="#455A64"/>
<path d="M130.876 256.049C131.26 254.906 131.747 253.8 132.332 252.746C132.817 251.644 133.401 250.588 134.076 249.591C133.696 250.734 133.211 251.84 132.627 252.893C132.141 253.996 131.555 255.052 130.876 256.049Z" fill="#455A64"/>
<path d="M125.334 273.031C126.836 275.325 128.148 277.738 129.259 280.245C128.46 279.126 127.756 277.942 127.155 276.705C126.454 275.529 125.845 274.301 125.334 273.031Z" fill="#455A64"/>
<path d="M125.476 267.713C125.713 268.06 125.911 268.432 126.066 268.823C126.399 269.515 126.88 270.465 127.419 271.51C128.128 272.748 128.751 274.034 129.285 275.358C129.007 275.041 128.772 274.69 128.586 274.312C128.195 273.671 127.669 272.715 127.124 271.67C126.406 270.428 125.852 269.098 125.476 267.713Z" fill="#455A64"/>
<path d="M125.334 260.634C126.134 262.033 126.836 263.486 127.437 264.982C128.139 266.435 128.739 267.935 129.233 269.471C128.437 268.07 127.736 266.618 127.136 265.123C126.434 263.669 125.832 262.169 125.334 260.634Z" fill="#455A64"/>
<path d="M125.872 256.632C126.506 257.745 127.038 258.913 127.462 260.121C127.99 261.286 128.42 262.494 128.745 263.731C128.116 262.616 127.584 261.449 127.155 260.243C126.626 259.078 126.196 257.87 125.872 256.632Z" fill="#455A64"/>
<path d="M126.335 251.887C126.425 251.887 126.925 253.484 127.733 255.401C128.541 257.318 129.343 258.819 129.259 258.87C127.809 256.771 126.813 254.393 126.335 251.887Z" fill="#455A64"/>
<path d="M133.005 245.865L123.052 263.18V248.821C123.051 248.114 123.326 247.435 123.818 246.927C124.31 246.42 124.981 246.124 125.687 246.102L133.005 245.865Z" fill="#ED8D34"/>
<path d="M124.911 254.132H123.052V266.97H124.911V254.132Z" fill="#ED8D34"/>
<path d="M124.923 267.008C124.923 267.098 108.737 267.175 88.7804 267.175C68.8234 267.175 52.6309 267.098 52.6309 267.008C52.6309 266.918 68.8106 266.841 88.7804 266.841C108.75 266.841 124.923 266.918 124.923 267.008Z" fill="#263238"/>
<path d="M59.1788 162.125C59.1788 162.125 58.7427 155.141 53.016 155.866C47.2893 156.59 47.1354 161.74 47.1354 161.74L44.6729 161.304C44.6729 161.304 45.5835 154.006 53.6509 154.211C61.7183 154.416 61.558 162.619 61.558 162.619L59.1788 162.125Z" fill="#455A64"/>
<g opacity="0.3">
<path opacity="0.3" d="M59.1788 162.125C59.1788 162.125 58.7427 155.142 53.016 155.866C47.2893 156.591 47.1354 161.741 47.1354 161.741L44.6729 161.304C44.6729 161.304 45.5835 154.007 53.6509 154.212C61.7183 154.417 61.558 162.619 61.558 162.619L59.1788 162.125Z" fill="black"/>
</g>
<path d="M32.2706 160.099L31.0137 193.074L74.6278 193.875L75.3717 161.291L32.2706 160.099Z" fill="#455A64"/>
<path d="M75.371 161.292C75.371 161.292 75.371 161.343 75.2941 161.427L75.0311 161.792C74.7746 162.139 74.4283 162.6 73.9987 163.19C73.088 164.396 71.7926 166.153 70.0996 168.263C68.1588 170.774 65.9528 173.068 63.52 175.105C62.0677 176.287 60.4762 177.287 58.7809 178.081C56.9309 178.952 54.9293 179.455 52.8874 179.562C50.8532 179.625 48.8296 179.246 46.9555 178.453C45.2173 177.719 43.6001 176.727 42.1586 175.509C39.7542 173.42 37.7337 170.926 36.1882 168.141C35.1312 166.286 34.168 164.379 33.3024 162.427L32.6034 160.837L32.4303 160.42C32.3918 160.324 32.379 160.272 32.3854 160.272C32.4141 160.315 32.4399 160.36 32.4623 160.407L32.6675 160.811L33.4243 162.376C34.0655 163.729 35.0211 165.704 36.3934 168.019C37.9535 170.757 39.9706 173.208 42.3574 175.266C43.7804 176.456 45.3735 177.427 47.0837 178.145C48.9088 178.912 50.8767 179.279 52.8553 179.223C54.8407 179.125 56.7879 178.641 58.5885 177.799C60.275 177.025 61.8602 176.047 63.3084 174.887C65.7312 172.872 67.9364 170.609 69.888 168.135C71.6066 166.05 72.9341 164.319 73.8704 163.133L74.9542 161.779L75.2492 161.427C75.2853 161.378 75.3261 161.333 75.371 161.292Z" fill="#263238"/>
<path d="M68.6563 193.767C68.5601 193.767 69.8876 186.649 71.6126 177.908C73.3377 169.167 74.8191 162.094 74.9024 162.113C74.9858 162.132 73.6712 169.231 71.9461 177.972C70.221 186.713 68.7461 193.786 68.6563 193.767Z" fill="#263238"/>
<path d="M75.1862 161.542C75.1973 161.651 75.1973 161.76 75.1862 161.869C75.1862 162.126 75.1862 162.44 75.1862 162.818C75.1541 163.639 75.0772 164.819 74.9746 166.288C74.763 169.212 74.391 173.252 73.9357 177.703C73.4804 182.153 73.0956 186.142 72.8006 189.111C72.6659 190.535 72.5569 191.676 72.48 192.568L72.3838 193.51C72.38 193.621 72.3605 193.732 72.3261 193.837C72.308 193.727 72.308 193.614 72.3261 193.504C72.3261 193.247 72.3261 192.94 72.3261 192.561C72.3261 191.74 72.4351 190.554 72.5377 189.092C72.7493 186.161 73.1212 182.127 73.5766 177.67C74.0319 173.213 74.4167 169.231 74.7116 166.268C74.8463 164.845 74.9553 163.703 75.0323 162.805C75.0772 162.433 75.1092 162.119 75.1349 161.869C75.1356 161.758 75.1529 161.648 75.1862 161.542Z" fill="#263238"/>
<path d="M52.3387 178.33L51.0371 178.352L51.0786 180.776L52.3802 180.754L52.3387 178.33Z" fill="#263238"/>
<path d="M75.3723 161.292C75.2274 161.308 75.0812 161.308 74.9363 161.292H73.6537L69.0428 161.228L53.8507 160.876L38.6585 160.42L34.054 160.241L32.7715 160.177C32.627 160.177 32.483 160.162 32.3418 160.132C32.4867 160.116 32.6329 160.116 32.7779 160.132H34.0605L38.6649 160.202L53.8635 160.555L69.0556 161.01L73.6601 161.19L74.9427 161.254C75.0869 161.251 75.2309 161.264 75.3723 161.292Z" fill="#263238"/>
<path d="M51.4708 142.964C51.4708 142.964 48.6106 150.884 48.5209 152.141C48.4311 153.398 47.1613 155.405 48.6042 155.873C48.6042 155.873 48.3605 156.848 49.8868 157.201C49.8868 157.201 49.8868 158.861 51.9005 158.682C51.9005 158.682 53.2792 160.035 54.4143 159.323C54.4143 159.323 56.1715 160.195 56.8897 158.913C57.4458 157.843 57.93 156.738 58.339 155.604L59.4805 156.502C59.8893 155.584 60.0079 154.564 59.8204 153.577C59.4869 152.038 57.5374 150.089 57.9735 148.165C58.086 147.47 58.2819 146.792 58.557 146.145L51.4708 142.964Z" fill="#FFBE9D"/>
<g opacity="0.3">
<path opacity="0.3" d="M66.5346 172.142C64.9161 175.952 62.3538 179.287 59.0893 181.832C56.787 183.692 53.9205 185.173 50.9769 184.865C48.4118 184.596 46.1544 183.005 44.2819 181.216C40.4877 177.603 37.7176 173.049 36.2529 168.019C36.2529 168.019 43.3071 179.664 51.7016 179.504C59.2688 179.324 66.5346 172.142 66.5346 172.142Z" fill="black"/>
</g>
<path d="M96.1943 68.6191C96.1943 68.6191 107.68 70.9919 109.097 72.7298C110.232 74.115 116.26 88.1656 116.26 88.1656L121.121 96.7846C122.144 97.614 122.894 98.7309 123.276 99.991C123.882 102.817 124.174 105.701 124.148 108.591C124.148 108.591 123.282 114.26 119.736 114.497C118.066 114.565 116.398 114.3 114.831 113.719C113.263 113.138 111.827 112.251 110.604 111.111C108.533 109.258 103.467 96.6948 103.646 96.0535L96.1943 68.6191Z" fill="#ED8D34"/>
<path d="M75.1538 66.0541L75.654 65.4769L80.887 71.4024L85.0874 76.0005L90.3524 64.8677L91.8787 65.9899C91.8787 65.9899 97.5477 108.899 97.4515 109.399C97.3553 109.899 99.6447 133.319 99.6447 133.319C99.6447 133.319 87.582 135.717 84.087 134.602C80.592 133.486 72.8195 135.243 72.8708 134.884C72.9221 134.525 69.5361 120.185 69.5361 120.185L70.5301 80.8614L75.1538 66.0541Z" fill="#FAFAFA"/>
<path d="M97.5981 128.073C97.3022 128.032 97.0103 127.966 96.726 127.874C96.1744 127.727 95.3793 127.49 94.4045 127.156C91.8716 126.296 89.4065 125.248 87.0297 124.02C84.6535 122.791 82.3707 121.39 80.1999 119.826C79.3662 119.223 78.7057 118.717 78.2761 118.351C78.0436 118.174 77.8289 117.974 77.6348 117.755C77.8955 117.899 78.1443 118.064 78.3787 118.249C78.8404 118.582 79.5202 119.063 80.3602 119.64C82.5635 121.135 84.8525 122.499 87.2156 123.725C89.5827 124.942 92.022 126.013 94.5199 126.932C95.4754 127.284 96.2578 127.573 96.7965 127.746C97.073 127.831 97.3412 127.94 97.5981 128.073Z" fill="#263238"/>
<path d="M85.0737 76C85.0905 76.162 85.0905 76.3254 85.0737 76.4874C85.0737 76.8337 85.0737 77.3018 85.0737 77.879C85.0737 79.1295 85.0737 80.8738 85.0353 83.0093C85.0353 87.3444 85.0032 93.3341 85.0866 99.9458C85.1699 106.557 85.3303 112.554 85.4585 116.882C85.5227 119.024 85.5739 120.768 85.6124 122.013C85.6124 122.59 85.6124 123.058 85.6124 123.404C85.6306 123.566 85.6306 123.73 85.6124 123.892C85.582 123.733 85.5648 123.572 85.5611 123.411C85.5611 123.058 85.5034 122.596 85.4713 122.013C85.3944 120.807 85.311 119.05 85.2148 116.882C85.0289 112.547 84.8301 106.557 84.7403 99.9393C84.6505 93.3212 84.7018 87.3316 84.7916 82.9965C84.8365 80.8289 84.8814 79.0718 84.9327 77.8662C84.9327 77.2826 84.9775 76.8209 84.9904 76.4681C85.0039 76.3099 85.0318 76.1532 85.0737 76Z" fill="#263238"/>
<path d="M87.7486 133.075C87.541 131.588 87.4402 130.088 87.4472 128.586C87.3392 127.092 87.3392 125.592 87.4472 124.097C87.6548 125.584 87.7555 127.085 87.7486 128.586C87.8565 130.081 87.8565 131.581 87.7486 133.075Z" fill="#263238"/>
<path d="M74.8464 66.5864L70.9666 70.8318C70.9666 70.8318 66.0736 72.0246 60.5457 73.8651C59.4349 74.325 58.4429 75.0309 57.6443 75.9295C56.8457 76.8281 56.2612 77.896 55.9348 79.0531C55.5179 80.4575 62.5657 114.484 62.5657 114.484L61.3473 124.283L57.5893 152.545C57.5893 152.545 64.1048 154.866 68.286 155.033C70.6396 155.129 71.0307 145.914 72.0247 139.527C72.9803 133.358 75.4556 113.606 75.4556 108.104C75.4556 102.601 74.3077 76.0839 74.3077 75.5132C74.3077 74.9424 74.8464 66.5864 74.8464 66.5864Z" fill="#ED8D34"/>
<path d="M74.6979 116.324C74.6321 116.16 74.5806 115.99 74.5439 115.817C74.4477 115.452 74.3259 114.971 74.1656 114.362C73.8449 113.079 73.3896 111.226 72.8381 108.981C71.7415 104.403 70.273 98.1307 68.5799 91.2048C68.1182 89.236 67.6629 87.325 67.2332 85.4909V85.4396V85.3947L70.4397 77.4683L70.5615 77.6543H67.4128H67.2012L67.3102 77.4748C68.5928 75.288 69.6509 73.5116 70.4012 72.2482L71.2541 70.8374C71.3463 70.6678 71.4536 70.5068 71.5748 70.3564C71.4978 70.5348 71.41 70.7083 71.3118 70.8759L70.5102 72.3188C69.792 73.6014 68.7723 75.3906 67.5218 77.5966L67.4128 77.417H70.5615H70.7667L70.6898 77.6094C69.7599 79.9822 68.7018 82.6628 67.5667 85.555V85.4588C68.0028 87.2865 68.4517 89.1975 68.9198 91.1663L73.0818 108.962C73.5948 111.219 74.0117 113.06 74.3067 114.368C74.4413 115.009 74.5504 115.478 74.6273 115.843C74.6618 116.002 74.6853 116.162 74.6979 116.324Z" fill="#263238"/>
<path d="M91.8525 65.8164L94.3407 68.0802L108.609 72.1203L108.802 94.9117L106.673 117.761L111.04 151.871C106.089 154.597 98.7015 154.013 98.7015 154.013L95.3091 134.082C94.7768 130.362 92.9235 105.294 92.9235 105.294L91.8525 65.8164Z" fill="#ED8D34"/>
<path d="M96.9829 112.112C96.9838 111.942 97.001 111.772 97.0342 111.605C97.092 111.252 97.1625 110.771 97.2523 110.175C97.4511 108.892 97.7268 107.116 98.0667 104.923C98.708 100.485 99.5994 94.3415 100.363 87.5374C100.741 84.1322 101.062 80.8873 101.331 77.9181C101.459 76.4431 101.575 75.0387 101.69 73.7176C101.741 73.0763 101.844 72.3966 101.485 71.9733C101.276 71.7966 101.026 71.6761 100.758 71.6233C100.489 71.5706 100.212 71.5873 99.9521 71.6719C99.4252 71.7997 98.8846 71.8622 98.3425 71.8579C97.8513 71.8179 97.3777 71.6571 96.9637 71.3898C96.3245 70.9489 95.7759 70.3894 95.3476 69.7416C94.9885 69.2222 94.7064 68.8054 94.5781 68.5168C94.4836 68.3758 94.404 68.2254 94.3408 68.0679C94.4467 68.1998 94.5432 68.3391 94.6294 68.4847C94.8154 68.754 95.0783 69.1645 95.4502 69.6647C95.8847 70.282 96.4306 70.8126 97.0599 71.2294C97.4473 71.4702 97.8875 71.6133 98.3425 71.6463C98.8684 71.643 99.3919 71.5741 99.9008 71.4411C100.194 71.3825 100.494 71.3631 100.792 71.3833C101.127 71.4049 101.44 71.5568 101.664 71.8066C101.881 72.075 101.997 72.4108 101.991 72.7557C101.998 73.0854 101.985 73.4151 101.953 73.7433C101.844 75.0579 101.735 76.4688 101.619 77.9437C101.369 80.9065 101.055 84.1578 100.677 87.5631C99.9136 94.3736 99.0094 100.517 98.2848 104.948C97.9128 107.161 97.5986 108.95 97.3677 110.188C97.2523 110.778 97.1561 111.252 97.0855 111.605C97.0678 111.777 97.0334 111.946 96.9829 112.112Z" fill="#263238"/>
<path d="M106.64 88.0821C105.872 88.2645 105.081 88.3336 104.293 88.2873C103.506 88.3557 102.714 88.3125 101.939 88.1591C102.711 87.9854 103.503 87.9185 104.293 87.9603C105.077 87.8912 105.867 87.9322 106.64 88.0821Z" fill="#263238"/>
<g opacity="0.3">
<path opacity="0.3" d="M109.187 100.042C110.146 98.7665 111.532 97.8787 113.092 97.5412C113.47 97.4642 113.971 97.4771 114.118 97.8298C114.155 97.9765 114.15 98.1307 114.103 98.2747C114.057 98.4187 113.971 98.5467 113.855 98.6442L113.374 99.2278C111.877 100.647 110.932 102.551 110.706 104.602C110.414 103.657 110.424 102.645 110.736 101.707C111.048 100.768 111.645 99.9508 112.444 99.3689C110.918 99.6767 109.757 100.876 108.699 102.017C108.607 101.674 108.603 101.312 108.688 100.967C108.773 100.622 108.945 100.303 109.187 100.042Z" fill="black"/>
</g>
<path d="M108.109 102.556C108.109 102.556 108.289 102.274 108.616 101.857C109.037 101.307 109.533 100.819 110.091 100.408C110.65 99.9994 111.263 99.6693 111.912 99.4268C112.412 99.2472 112.733 99.1767 112.733 99.151C112.733 99.1254 112.643 99.151 112.496 99.151C112.279 99.1898 112.065 99.2412 111.854 99.305C110.503 99.7451 109.329 100.609 108.507 101.768C108.385 101.943 108.274 102.125 108.173 102.313C108.16 102.473 108.096 102.55 108.109 102.556Z" fill="#263238"/>
<path d="M110.899 105.948C110.899 105.948 110.899 105.499 110.899 104.781C110.924 104.363 110.978 103.948 111.059 103.537C111.169 103.034 111.315 102.539 111.495 102.056C111.691 101.579 111.923 101.119 112.188 100.677C112.409 100.319 112.653 99.9765 112.919 99.6509C113.374 99.0994 113.714 98.8108 113.702 98.7852C113.611 98.8417 113.527 98.9084 113.451 98.984C113.374 99.0481 113.278 99.1315 113.176 99.2341C113.073 99.3367 112.958 99.4457 112.842 99.5868C112.56 99.9062 112.302 100.247 112.073 100.606C111.799 101.052 111.563 101.52 111.367 102.004C111.178 102.493 111.032 102.997 110.931 103.511C110.853 103.935 110.808 104.364 110.796 104.794C110.787 104.956 110.787 105.119 110.796 105.281C110.789 105.405 110.789 105.53 110.796 105.653C110.819 105.756 110.853 105.855 110.899 105.948Z" fill="#263238"/>
<path d="M108.597 81.3677C108.616 81.4846 108.616 81.6035 108.597 81.7204C108.597 81.9961 108.597 82.3296 108.597 82.74C108.559 83.6763 108.508 84.9461 108.444 86.4916C108.277 89.698 108.052 94.046 107.802 98.8556C107.552 103.665 107.251 108.007 107.058 111.213C106.949 112.752 106.866 114.022 106.795 114.952C106.795 115.362 106.731 115.702 106.712 115.972C106.709 116.091 106.689 116.21 106.654 116.324C106.645 116.205 106.645 116.085 106.654 115.965C106.654 115.696 106.654 115.324 106.654 114.946C106.693 114.009 106.751 112.74 106.815 111.194C106.981 107.988 107.206 103.64 107.456 98.83C107.706 94.0203 108.001 89.6852 108.193 86.4788C108.302 84.9332 108.392 83.6699 108.456 82.7336C108.495 82.3232 108.521 81.9897 108.546 81.7204C108.55 81.6013 108.567 81.4829 108.597 81.3677Z" fill="#263238"/>
<path d="M59.6668 74.7173C59.6668 74.7173 56.4219 75.9165 55.5369 80.8608C54.6519 85.8052 49.124 146.311 49.124 146.311L58.474 146.85L63.0721 113.919L59.6668 74.7173Z" fill="#ED8D34"/>
<path d="M63.0719 114.612C63.1681 114.612 62.142 122.308 60.7825 131.792C59.423 141.277 58.2173 148.934 58.1596 148.915C58.1019 148.896 59.0959 141.219 60.449 131.741C61.8021 122.263 62.9821 114.599 63.0719 114.612Z" fill="#263238"/>
<path d="M60.5321 85.7866C60.6283 85.7866 61.2696 92.1995 61.9686 100.184C62.6676 108.168 63.1678 114.606 63.0716 114.619C62.9754 114.632 62.3406 108.206 61.6351 100.216C60.9297 92.2252 60.4424 85.793 60.5321 85.7866Z" fill="#263238"/>
<path d="M85.0743 76.3147C84.8261 76.1491 84.5941 75.9601 84.3817 75.7504L82.5797 74.1215L82.7785 74.0702C82.2014 75.7183 81.3997 77.9179 80.5084 80.3356L80.4057 80.6178L80.2198 80.3869L80.0915 80.2202C78.581 78.3404 77.2901 76.2942 76.2438 74.1215C75.8398 73.2878 75.5512 72.5952 75.3716 72.1143C75.2621 71.8676 75.1804 71.6095 75.1279 71.3447C75.2715 71.5725 75.3939 71.8129 75.4935 72.063C75.7115 72.5311 76.0257 73.1981 76.4554 73.9868C77.5593 76.1111 78.8696 78.1216 80.3673 79.9893L80.4955 80.1496L80.2069 80.1945C81.1048 77.7769 81.932 75.5901 82.5605 73.9612L82.631 73.788L82.7593 73.9163L84.4844 75.6221C84.7065 75.83 84.9044 76.0623 85.0743 76.3147Z" fill="#263238"/>
<path d="M91.9546 69.7798C91.9857 70.0311 91.9857 70.2852 91.9546 70.5365C91.9033 71.088 91.8392 71.7742 91.7622 72.5822C91.5826 74.3137 91.3069 76.6993 90.9927 79.335V79.5402L90.9349 79.9699L90.6848 79.6108C89.1842 77.456 87.8503 75.5001 86.9077 74.0957H87.0872L85.6828 75.5001C85.5187 75.6812 85.336 75.8446 85.1377 75.9875C85.2647 75.7788 85.4177 75.587 85.593 75.4167L86.9205 73.9353L87.0167 73.8327L87.1 73.9482C88.094 75.3205 89.46 77.2508 90.9478 79.412L90.6464 79.4825V79.2837C90.967 76.648 91.2877 74.2688 91.5121 72.5437C91.634 71.7357 91.7301 71.056 91.8135 70.5044C91.8338 70.2585 91.8811 70.0154 91.9546 69.7798Z" fill="#263238"/>
<path d="M56.7042 141.726C56.7042 141.726 56.8261 141.688 57.0377 141.726C57.3403 141.816 57.5972 142.018 57.7559 142.291C57.8656 142.476 57.9396 142.681 57.974 142.894C58.0134 143.152 57.9731 143.416 57.8585 143.65C57.7298 143.917 57.5285 144.142 57.2779 144.3C57.0273 144.457 56.7374 144.541 56.4413 144.542C56.1462 144.497 55.8725 144.361 55.6586 144.153C55.4447 143.945 55.3013 143.675 55.2485 143.381C55.1996 143.152 55.2092 142.915 55.2765 142.69C55.3437 142.466 55.4664 142.263 55.6333 142.098C55.8471 141.872 56.1326 141.727 56.4413 141.688C56.6593 141.688 56.7748 141.688 56.7683 141.733C56.3987 141.798 56.0608 141.983 55.8064 142.259C55.6796 142.404 55.5895 142.578 55.5437 142.765C55.498 142.953 55.4979 143.149 55.5435 143.336C55.5931 143.56 55.7079 143.764 55.8734 143.923C56.0389 144.081 56.2477 144.187 56.4733 144.227C56.7041 144.222 56.9289 144.154 57.1241 144.03C57.3194 143.907 57.4778 143.734 57.5828 143.528C57.6705 143.358 57.7163 143.169 57.7163 142.977C57.7163 142.785 57.6705 142.596 57.5828 142.425C57.2237 141.791 56.6786 141.778 56.7042 141.726Z" fill="#263238"/>
<path d="M107.925 129.805C107.925 129.805 99.3635 130.446 99.7354 130.311L102.198 134.954L110.176 134.39L107.925 129.805Z" fill="#ED8D34"/>
<path d="M107.924 129.805C107.994 129.897 108.054 129.996 108.104 130.1L108.579 130.991C109.015 131.838 109.598 132.966 110.297 134.332L110.381 134.505H110.188L102.211 135.108H102.102L102.05 135.012L101.96 134.845C101.127 133.255 100.325 131.748 99.5941 130.356L99.7801 130.433C99.7801 130.433 99.8442 130.433 99.825 130.266C99.8058 130.1 99.7224 130.183 99.7352 130.177H100.107H100.543L101.396 130.132L102.974 130.048L105.577 129.907L107.27 129.83C107.473 129.815 107.677 129.815 107.88 129.83C107.683 129.886 107.481 129.918 107.277 129.927L105.59 130.087L102.993 130.298L101.409 130.414L100.556 130.472H100.12H99.8891H99.6262C99.6262 130.472 99.6262 130.504 99.53 130.369C99.4338 130.234 99.5941 130.202 99.5749 130.202H99.6198L99.7416 130.164L99.8058 130.279L102.191 134.768L102.281 134.941L102.121 134.852L110.105 134.319L109.996 134.512L108.425 131.171L107.995 130.228C107.955 130.09 107.931 129.948 107.924 129.805Z" fill="#263238"/>
<path d="M68.6513 130.901L60.8917 129.805L59.25 134.954L67.1763 136.102L68.6513 130.901Z" fill="#ED8D34"/>
<path d="M68.6513 130.901C68.6419 131.019 68.6183 131.135 68.5808 131.247L68.3243 132.286C68.0934 133.19 67.7535 134.518 67.3046 136.134V136.243H67.1828L59.3398 135.14H59.25H59.0576L59.1153 134.947C59.7053 133.113 60.2697 131.375 60.7763 129.817L60.8147 129.695H60.9366C63.2645 130.035 65.2204 130.337 66.5799 130.567L68.1511 130.83C68.3295 130.85 68.5056 130.886 68.677 130.939C68.677 130.939 68.4525 130.939 68.0357 130.888L66.4196 130.702C65.0473 130.535 63.1234 130.305 60.8661 129.997L61.0328 129.894C60.5326 131.459 59.9811 133.203 59.4039 135.024L59.2692 134.806H59.359L67.1956 135.954L67.0481 136.05C67.5034 134.505 67.901 133.229 68.1832 132.325C68.3114 131.908 68.4204 131.561 68.5166 131.273C68.5515 131.146 68.5966 131.021 68.6513 130.901Z" fill="#263238"/>
<path d="M122.648 78.8796C122.793 78.9562 122.92 79.0617 123.023 79.1897C123.126 79.3176 123.201 79.4653 123.244 79.6235C123.3 79.8695 123.271 80.1274 123.161 80.3545L119.627 88.2231L117.325 92.8533L110.527 91.2116L114.92 80.2455C114.92 80.2455 115.279 78.7321 116.664 78.7321H122.064C122.268 78.7291 122.47 78.7799 122.648 78.8796Z" fill="#455A64"/>
<path d="M121.109 80.8618H121.994C122.059 80.8604 122.122 80.8419 122.177 80.808C122.233 80.7742 122.278 80.7264 122.308 80.6694C122.337 80.6154 122.352 80.5548 122.35 80.4935C122.349 80.4323 122.331 80.3725 122.299 80.3201C122.268 80.2676 122.223 80.2244 122.169 80.1945C122.116 80.1647 122.055 80.1493 121.994 80.1499H121.109C121.042 80.1499 120.976 80.1692 120.919 80.2056C120.862 80.2419 120.817 80.2938 120.789 80.3551C120.764 80.4093 120.754 80.4687 120.758 80.528C120.762 80.5872 120.781 80.6445 120.813 80.6948C120.844 80.745 120.888 80.7865 120.94 80.8156C120.992 80.8448 121.05 80.8606 121.109 80.8618Z" fill="white"/>
<path d="M122.27 100.812C122.514 100.299 121.629 99.529 121.629 99.529C121.629 99.529 120.551 94.3281 120.987 93.4432C121.423 92.5582 121.205 91.468 121.282 89.6339C121.359 87.7998 122.026 87.1457 122.026 87.1457C122.026 87.1457 122.084 85.9721 122.231 85.023C122.307 84.4257 122.151 83.8222 121.795 83.3364L119.641 88.2487L119.288 87.8062C118.345 86.3914 117.159 85.154 115.786 84.1509C115.094 83.7789 114.568 84.4715 114.369 85.0102C114.17 85.5489 114.966 86.4852 115.459 86.825C115.953 87.1649 116.742 89.3453 117.031 90.1405C117.319 90.9357 117.031 91.1089 116.53 91.4231C116.03 91.7373 114.126 90.1405 113.202 89.7622C112.379 89.3015 111.632 88.7151 110.99 88.0243C110.815 87.891 110.607 87.8086 110.389 87.786C110.17 87.7633 109.95 87.8014 109.752 87.896C109.027 88.2231 109.354 89.6339 109.354 89.6339C108.206 90.5061 108.803 92.1991 108.803 92.1991C108.803 92.1991 107.655 92.2888 107.578 92.6736C107.501 93.0584 107.892 95.1233 108.533 95.6235C109.175 96.1237 111.92 98.0476 111.92 98.0476C112.532 98.9785 113.388 99.7238 114.395 100.202L114.934 102.902C116.11 103.247 117.361 103.247 118.538 102.902C119.932 102.516 121.212 101.799 122.27 100.812Z" fill="#FFBE9D"/>
<path d="M109.36 89.4741C109.36 89.4741 109.36 89.4741 109.36 89.5447C109.351 89.6107 109.351 89.6775 109.36 89.7435C109.401 89.9886 109.497 90.2211 109.642 90.4232C109.854 90.7184 110.112 90.9781 110.405 91.1928C110.732 91.4365 111.104 91.6737 111.508 91.9174C112.195 92.3223 112.911 92.6759 113.65 92.9756C113.932 93.0846 114.17 93.1679 114.33 93.2193L114.586 93.2898C114.586 93.2898 114.24 93.1359 113.689 92.8858C112.962 92.5648 112.255 92.2007 111.572 91.7956C110.869 91.4413 110.24 90.9559 109.719 90.3655C109.521 90.1061 109.397 89.7981 109.36 89.4741Z" fill="#EB996E"/>
<path d="M108.848 92.2056C108.979 92.4203 109.139 92.6165 109.322 92.7892C109.745 93.2279 110.216 93.6173 110.727 93.9499C111.238 94.2825 111.787 94.5537 112.362 94.758C112.596 94.8562 112.842 94.9231 113.093 94.9568C113.093 94.9568 112.824 94.8477 112.4 94.6682C111.843 94.4417 111.308 94.1625 110.804 93.8345C110.301 93.5084 109.828 93.137 109.393 92.7251C109.053 92.4044 108.86 92.1928 108.848 92.2056Z" fill="#EB996E"/>
<path d="M119.947 92.2314C120.115 92.0986 120.229 91.9095 120.268 91.6992C120.356 91.2015 120.343 90.691 120.23 90.1985C120.154 89.7047 120.047 89.2163 119.909 88.7364C119.864 88.5335 119.793 88.3374 119.697 88.1528C119.72 88.3591 119.761 88.563 119.819 88.7621C119.902 89.134 120.011 89.647 120.101 90.2178C120.207 90.6977 120.231 91.1921 120.172 91.6799C120.123 91.8733 120.047 92.0589 119.947 92.2314Z" fill="#EB996E"/>
<path d="M117.228 94.5273C117.228 94.5273 117.311 94.5273 117.446 94.5273C117.619 94.4696 117.765 94.3511 117.856 94.1938C117.947 94.0366 117.978 93.8527 117.946 93.6743C117.946 93.5397 117.863 93.4691 117.844 93.482C117.869 93.7011 117.834 93.9231 117.741 94.1232C117.549 94.4375 117.215 94.4888 117.228 94.5273Z" fill="#EB996E"/>
<path d="M114.951 96.5797C114.951 96.5797 115.054 96.631 115.227 96.5797C115.453 96.5475 115.661 96.4388 115.817 96.2719C115.973 96.1055 116.066 95.8901 116.08 95.6627C116.08 95.4895 116.08 95.3869 116.035 95.3934C115.99 95.3998 116.035 95.496 115.99 95.6499C115.947 95.8472 115.854 96.0304 115.721 96.1821C115.578 96.3256 115.402 96.4313 115.208 96.49C115.119 96.5107 115.033 96.5408 114.951 96.5797Z" fill="#EB996E"/>
<path d="M112.977 97.7979C112.977 97.7979 113.06 97.8364 113.195 97.7979C113.368 97.7426 113.52 97.6351 113.631 97.4901C113.742 97.3446 113.803 97.1667 113.804 96.9835C113.804 96.8424 113.759 96.7654 113.746 96.7719C113.722 97 113.645 97.2195 113.522 97.4131C113.372 97.5821 113.186 97.7138 112.977 97.7979Z" fill="#EB996E"/>
<path d="M114.407 100.325C114.55 100.42 114.708 100.489 114.875 100.53C115.268 100.659 115.668 100.762 116.075 100.838C116.48 100.909 116.889 100.954 117.299 100.972C117.469 100.999 117.642 100.999 117.812 100.972C117.812 100.934 117.037 100.902 116.1 100.729C115.164 100.555 114.42 100.286 114.407 100.325Z" fill="#EB996E"/>
<path d="M112.29 89.2752L112.361 89.1149L112.54 88.6403L113.181 86.8832C113.727 85.3825 114.464 83.3304 115.272 81.0731C115.426 80.5172 115.757 80.0266 116.215 79.6751C116.699 79.4417 117.238 79.3463 117.773 79.3993L120.55 79.4314H122.422H122.91C122.969 79.4407 123.03 79.4407 123.089 79.4314H122.91H122.403L120.531 79.3801L117.754 79.3224C117.485 79.3034 117.215 79.3034 116.946 79.3224C116.658 79.3497 116.379 79.4418 116.131 79.5917C115.644 79.9521 115.29 80.4641 115.125 81.0474C114.317 83.324 113.592 85.3825 113.072 86.8768L112.47 88.6467C112.399 88.8455 112.348 89.0058 112.309 89.1277C112.296 89.1757 112.29 89.2254 112.29 89.2752Z" fill="#263238"/>
<path d="M287.376 283.086C287.376 283.176 228.378 283.253 155.623 283.253C82.8689 283.253 23.8574 283.176 23.8574 283.086C23.8574 282.996 82.8561 282.913 155.623 282.913C228.39 282.913 287.376 282.99 287.376 283.086Z" fill="#263238"/>
</g>
<defs>
<clipPath id="clip0_152_344">
<rect width="316" height="283" fill="white"/>
</clipPath>
</defs>
</svg>
