<svg width="316" height="283" viewBox="0 0 316 283" fill="none" xmlns="http://www.w3.org/2000/svg">
<g clip-path="url(#clip0_98_608)">
<path d="M325 252.477H-14.7627V252.646H325V252.477Z" fill="#EBEBEB"/>
<path d="M290.956 263.41H268.45V263.58H290.956V263.41Z" fill="#EBEBEB"/>
<path d="M210.31 265.259H204.405V265.429H210.31V265.259Z" fill="#EBEBEB"/>
<path d="M267.771 257.104H254.73V257.274H267.771V257.104Z" fill="#EBEBEB"/>
<path d="M50.2335 258.246H20.8848V258.416H50.2335V258.246Z" fill="#EBEBEB"/>
<path d="M60.5895 258.246H56.2881V258.416H60.5895V258.246Z" fill="#EBEBEB"/>
<path d="M138.232 261.114H74.5742V261.284H138.232V261.114Z" fill="#EBEBEB"/>
<path d="M146.285 222.17H15.075C14.0471 222.168 13.0619 221.758 12.3357 221.031C11.6095 220.303 11.2017 219.318 11.2017 218.29V33.8461C11.2106 32.8241 11.6224 31.8469 12.3476 31.1268C13.0729 30.4067 14.0529 30.0018 15.075 30H146.285C147.314 30 148.301 30.4088 149.028 31.1365C149.756 31.8641 150.165 32.851 150.165 33.8801V218.29C150.165 219.319 149.756 220.306 149.028 221.033C148.301 221.761 147.314 222.17 146.285 222.17ZM15.075 30.1359C14.0921 30.1377 13.1502 30.5294 12.4558 31.225C11.7615 31.9206 11.3715 32.8633 11.3715 33.8461V218.29C11.3715 219.273 11.7615 220.215 12.4558 220.911C13.1502 221.606 14.0921 221.998 15.075 222H146.285C147.268 221.998 148.211 221.607 148.906 220.911C149.601 220.216 149.993 219.273 149.995 218.29V33.8461C149.993 32.8627 149.601 31.92 148.906 31.2246C148.211 30.5292 147.268 30.1377 146.285 30.1359H15.075Z" fill="#EBEBEB"/>
<path d="M293.273 222.17H162.057C161.028 222.168 160.042 221.759 159.315 221.031C158.588 220.304 158.179 219.318 158.177 218.29V33.8461C158.187 32.8235 158.601 31.8463 159.327 31.1264C160.053 30.4064 161.034 30.0017 162.057 30H293.273C294.294 30.0035 295.272 30.4092 295.996 31.1292C296.72 31.8491 297.131 32.8253 297.14 33.8461V218.29C297.14 219.316 296.733 220.301 296.008 221.029C295.283 221.756 294.3 222.166 293.273 222.17ZM162.057 30.1359C161.073 30.1377 160.131 30.5292 159.435 31.2246C158.74 31.92 158.348 32.8627 158.347 33.8461V218.29C158.348 219.273 158.74 220.216 159.435 220.911C160.131 221.607 161.073 221.998 162.057 222H293.273C294.257 221.998 295.199 221.607 295.895 220.911C296.59 220.216 296.982 219.273 296.983 218.29V33.8461C296.982 32.8627 296.59 31.92 295.895 31.2246C295.199 30.5292 294.257 30.1377 293.273 30.1359H162.057Z" fill="#EBEBEB"/>
<path d="M279.703 244.988V213.173H276.985V198.013H273.01V145.309H267.254V138.507L254.982 132.778V125.922H253.283V145.309H250.905V198.013H248.52V170.302H242.064V156.018H240.256V198.013H235.35V182.03H232.123V177.953H224.641V164.009H220.543V154.149H215.508V139.777H213.707V154.149H208.672V164.009H204.575V177.953H197.093V182.03H193.865V198.013H190.033V177.953H182.551V134.762H180.173V130.006H164.19V134.762H160.786V166.048H147.189V169.112H142.085V171.491H147.189V183.736H132.905V142.923H129.847V134.253H123.215V103.477H121.34V134.253H116.583V142.923H88.6747V140.069H86.9691V159.456H84.5908V159.796H83.1638V179.176H80.7786V184.449H75.7501V170.166H73.9494V204.169H71.938V189.892H70.1373V212.16H69.0432V196.178H65.8087V192.101H58.3271V178.157H54.2296V168.297H49.1943V153.932H47.4003V168.297H42.3583V178.157H38.2675V192.101H30.7859V196.178H27.5514V211.821H26.9738V212.16H25.3701V244.988H279.703Z" fill="#E6E6E6"/>
<path d="M106.173 144.833H104.243V146.763H106.173V144.833Z" fill="#F0F0F0"/>
<path d="M106.173 148.061H104.243V149.991H106.173V148.061Z" fill="#F0F0F0"/>
<path d="M106.173 160.985H104.243V162.915H106.173V160.985Z" fill="#F0F0F0"/>
<path d="M106.173 164.213H104.243V166.143H106.173V164.213Z" fill="#F0F0F0"/>
<path d="M106.173 167.448H104.243V169.378H106.173V167.448Z" fill="#F0F0F0"/>
<path d="M106.173 177.137H104.243V179.067H106.173V177.137Z" fill="#F0F0F0"/>
<path d="M106.173 180.365H104.243V182.295H106.173V180.365Z" fill="#F0F0F0"/>
<path d="M109.237 157.758H107.307V159.688H109.237V157.758Z" fill="#F0F0F0"/>
<path d="M109.237 160.985H107.307V162.915H109.237V160.985Z" fill="#F0F0F0"/>
<path d="M109.237 164.213H107.307V166.143H109.237V164.213Z" fill="#F0F0F0"/>
<path d="M109.237 167.448H107.307V169.378H109.237V167.448Z" fill="#F0F0F0"/>
<path d="M109.237 170.675H107.307V172.605H109.237V170.675Z" fill="#F0F0F0"/>
<path d="M109.237 177.137H107.307V179.067H109.237V177.137Z" fill="#F0F0F0"/>
<path d="M109.237 180.365H107.307V182.295H109.237V180.365Z" fill="#F0F0F0"/>
<path d="M112.295 144.833H110.365V146.763H112.295V144.833Z" fill="#F0F0F0"/>
<path d="M112.295 148.061H110.365V149.991H112.295V148.061Z" fill="#F0F0F0"/>
<path d="M112.295 151.295H110.365V153.225H112.295V151.295Z" fill="#F0F0F0"/>
<path d="M112.295 154.523H110.365V156.453H112.295V154.523Z" fill="#F0F0F0"/>
<path d="M112.295 157.758H110.365V159.688H112.295V157.758Z" fill="#F0F0F0"/>
<path d="M112.295 160.985H110.365V162.915H112.295V160.985Z" fill="#F0F0F0"/>
<path d="M112.295 164.213H110.365V166.143H112.295V164.213Z" fill="#F0F0F0"/>
<path d="M112.295 167.448H110.365V169.378H112.295V167.448Z" fill="#F0F0F0"/>
<path d="M112.295 170.675H110.365V172.605H112.295V170.675Z" fill="#F0F0F0"/>
<path d="M112.295 173.91H110.365V175.84H112.295V173.91Z" fill="#F0F0F0"/>
<path d="M112.295 180.365H110.365V182.295H112.295V180.365Z" fill="#F0F0F0"/>
<path d="M115.353 144.833H113.423V146.763H115.353V144.833Z" fill="#F0F0F0"/>
<path d="M115.353 148.061H113.423V149.991H115.353V148.061Z" fill="#F0F0F0"/>
<path d="M115.353 151.295H113.423V153.225H115.353V151.295Z" fill="#F0F0F0"/>
<path d="M115.353 154.523H113.423V156.453H115.353V154.523Z" fill="#F0F0F0"/>
<path d="M115.353 157.758H113.423V159.688H115.353V157.758Z" fill="#F0F0F0"/>
<path d="M115.353 160.985H113.423V162.915H115.353V160.985Z" fill="#F0F0F0"/>
<path d="M115.353 164.213H113.423V166.143H115.353V164.213Z" fill="#F0F0F0"/>
<path d="M115.353 193.291H113.423V195.22H115.353V193.291Z" fill="#F0F0F0"/>
<path d="M118.417 144.833H116.487V146.763H118.417V144.833Z" fill="#F0F0F0"/>
<path d="M118.417 148.061H116.487V149.991H118.417V148.061Z" fill="#F0F0F0"/>
<path d="M118.417 151.295H116.487V153.225H118.417V151.295Z" fill="#F0F0F0"/>
<path d="M118.417 154.523H116.487V156.453H118.417V154.523Z" fill="#F0F0F0"/>
<path d="M118.417 157.758H116.487V159.688H118.417V157.758Z" fill="#F0F0F0"/>
<path d="M118.417 160.985H116.487V162.915H118.417V160.985Z" fill="#F0F0F0"/>
<path d="M118.417 164.213H116.487V166.143H118.417V164.213Z" fill="#F0F0F0"/>
<path d="M118.417 167.448H116.487V169.378H118.417V167.448Z" fill="#F0F0F0"/>
<path d="M118.417 186.828H116.487V188.757H118.417V186.828Z" fill="#F0F0F0"/>
<path d="M118.417 190.062H116.487V191.992H118.417V190.062Z" fill="#F0F0F0"/>
<path d="M118.417 193.291H116.487V195.22H118.417V193.291Z" fill="#F0F0F0"/>
<path d="M118.417 196.518H116.487V198.448H118.417V196.518Z" fill="#F0F0F0"/>
<path d="M118.417 209.442H116.487V211.372H118.417V209.442Z" fill="#F0F0F0"/>
<path d="M121.475 144.833H119.545V146.763H121.475V144.833Z" fill="#F0F0F0"/>
<path d="M121.475 148.061H119.545V149.991H121.475V148.061Z" fill="#F0F0F0"/>
<path d="M121.475 151.295H119.545V153.225H121.475V151.295Z" fill="#F0F0F0"/>
<path d="M121.475 154.523H119.545V156.453H121.475V154.523Z" fill="#F0F0F0"/>
<path d="M121.475 157.758H119.545V159.688H121.475V157.758Z" fill="#F0F0F0"/>
<path d="M121.475 160.985H119.545V162.915H121.475V160.985Z" fill="#F0F0F0"/>
<path d="M121.475 164.213H119.545V166.143H121.475V164.213Z" fill="#F0F0F0"/>
<path d="M121.475 167.448H119.545V169.378H121.475V167.448Z" fill="#F0F0F0"/>
<path d="M121.475 170.675H119.545V172.605H121.475V170.675Z" fill="#F0F0F0"/>
<path d="M121.475 173.91H119.545V175.84H121.475V173.91Z" fill="#F0F0F0"/>
<path d="M121.475 183.6H119.545V185.53H121.475V183.6Z" fill="#F0F0F0"/>
<path d="M121.475 186.828H119.545V188.757H121.475V186.828Z" fill="#F0F0F0"/>
<path d="M121.475 190.062H119.545V191.992H121.475V190.062Z" fill="#F0F0F0"/>
<path d="M121.475 193.291H119.545V195.22H121.475V193.291Z" fill="#F0F0F0"/>
<path d="M121.475 196.518H119.545V198.448H121.475V196.518Z" fill="#F0F0F0"/>
<path d="M121.475 209.442H119.545V211.372H121.475V209.442Z" fill="#F0F0F0"/>
<path d="M124.54 144.833H122.61V146.763H124.54V144.833Z" fill="#F0F0F0"/>
<path d="M124.54 148.061H122.61V149.991H124.54V148.061Z" fill="#F0F0F0"/>
<path d="M124.54 151.295H122.61V153.225H124.54V151.295Z" fill="#F0F0F0"/>
<path d="M124.54 154.523H122.61V156.453H124.54V154.523Z" fill="#F0F0F0"/>
<path d="M124.54 157.758H122.61V159.688H124.54V157.758Z" fill="#F0F0F0"/>
<path d="M124.54 160.985H122.61V162.915H124.54V160.985Z" fill="#F0F0F0"/>
<path d="M124.54 164.213H122.61V166.143H124.54V164.213Z" fill="#F0F0F0"/>
<path d="M124.54 167.448H122.61V169.378H124.54V167.448Z" fill="#F0F0F0"/>
<path d="M124.54 170.675H122.61V172.605H124.54V170.675Z" fill="#F0F0F0"/>
<path d="M124.54 173.91H122.61V175.84H124.54V173.91Z" fill="#F0F0F0"/>
<path d="M124.54 177.137H122.61V179.067H124.54V177.137Z" fill="#F0F0F0"/>
<path d="M124.54 180.365H122.61V182.295H124.54V180.365Z" fill="#F0F0F0"/>
<path d="M124.54 183.6H122.61V185.53H124.54V183.6Z" fill="#F0F0F0"/>
<path d="M124.54 186.828H122.61V188.757H124.54V186.828Z" fill="#F0F0F0"/>
<path d="M124.54 190.062H122.61V191.992H124.54V190.062Z" fill="#F0F0F0"/>
<path d="M124.54 193.291H122.61V195.22H124.54V193.291Z" fill="#F0F0F0"/>
<path d="M124.54 196.518H122.61V198.448H124.54V196.518Z" fill="#F0F0F0"/>
<path d="M124.54 199.752H122.61V201.682H124.54V199.752Z" fill="#F0F0F0"/>
<path d="M127.598 144.833H125.668V146.763H127.598V144.833Z" fill="#F0F0F0"/>
<path d="M127.598 148.061H125.668V149.991H127.598V148.061Z" fill="#F0F0F0"/>
<path d="M127.598 151.295H125.668V153.225H127.598V151.295Z" fill="#F0F0F0"/>
<path d="M127.598 154.523H125.668V156.453H127.598V154.523Z" fill="#F0F0F0"/>
<path d="M127.598 157.758H125.668V159.688H127.598V157.758Z" fill="#F0F0F0"/>
<path d="M127.598 160.985H125.668V162.915H127.598V160.985Z" fill="#F0F0F0"/>
<path d="M127.598 164.213H125.668V166.143H127.598V164.213Z" fill="#F0F0F0"/>
<path d="M127.598 167.448H125.668V169.378H127.598V167.448Z" fill="#F0F0F0"/>
<path d="M127.598 170.675H125.668V172.605H127.598V170.675Z" fill="#F0F0F0"/>
<path d="M127.598 173.91H125.668V175.84H127.598V173.91Z" fill="#F0F0F0"/>
<path d="M127.598 183.6H125.668V185.53H127.598V183.6Z" fill="#F0F0F0"/>
<path d="M127.598 186.828H125.668V188.757H127.598V186.828Z" fill="#F0F0F0"/>
<path d="M127.598 190.062H125.668V191.992H127.598V190.062Z" fill="#F0F0F0"/>
<path d="M127.598 193.291H125.668V195.22H127.598V193.291Z" fill="#F0F0F0"/>
<path d="M130.655 144.833H128.726V146.763H130.655V144.833Z" fill="#F0F0F0"/>
<path d="M130.655 148.061H128.726V149.991H130.655V148.061Z" fill="#F0F0F0"/>
<path d="M130.655 151.295H128.726V153.225H130.655V151.295Z" fill="#F0F0F0"/>
<path d="M130.655 154.523H128.726V156.453H130.655V154.523Z" fill="#F0F0F0"/>
<path d="M130.655 157.758H128.726V159.688H130.655V157.758Z" fill="#F0F0F0"/>
<path d="M130.655 160.985H128.726V162.915H130.655V160.985Z" fill="#F0F0F0"/>
<path d="M130.655 164.213H128.726V166.143H130.655V164.213Z" fill="#F0F0F0"/>
<path d="M130.655 167.448H128.726V169.378H130.655V167.448Z" fill="#F0F0F0"/>
<path d="M130.655 170.675H128.726V172.605H130.655V170.675Z" fill="#F0F0F0"/>
<path d="M130.655 173.91H128.726V175.84H130.655V173.91Z" fill="#F0F0F0"/>
<path d="M130.655 183.6H128.726V185.53H130.655V183.6Z" fill="#F0F0F0"/>
<path d="M130.655 186.828H128.726V188.757H130.655V186.828Z" fill="#F0F0F0"/>
<path d="M130.655 190.062H128.726V191.992H130.655V190.062Z" fill="#F0F0F0"/>
<path d="M165.114 136.448H163.185V138.378H165.114V136.448Z" fill="#F0F0F0"/>
<path d="M165.114 139.676H163.185V141.606H165.114V139.676Z" fill="#F0F0F0"/>
<path d="M165.114 142.903H163.185V144.833H165.114V142.903Z" fill="#F0F0F0"/>
<path d="M165.114 146.138H163.185V148.068H165.114V146.138Z" fill="#F0F0F0"/>
<path d="M165.114 149.366H163.185V151.296H165.114V149.366Z" fill="#F0F0F0"/>
<path d="M165.114 152.6H163.185V154.53H165.114V152.6Z" fill="#F0F0F0"/>
<path d="M165.114 155.828H163.185V157.757H165.114V155.828Z" fill="#F0F0F0"/>
<path d="M165.114 159.055H163.185V160.985H165.114V159.055Z" fill="#F0F0F0"/>
<path d="M165.114 168.752H163.185V170.682H165.114V168.752Z" fill="#F0F0F0"/>
<path d="M165.114 171.98H163.185V173.91H165.114V171.98Z" fill="#F0F0F0"/>
<path d="M168.179 136.448H166.249V138.378H168.179V136.448Z" fill="#F0F0F0"/>
<path d="M168.179 139.676H166.249V141.606H168.179V139.676Z" fill="#F0F0F0"/>
<path d="M168.179 142.903H166.249V144.833H168.179V142.903Z" fill="#F0F0F0"/>
<path d="M168.179 146.138H166.249V148.068H168.179V146.138Z" fill="#F0F0F0"/>
<path d="M168.179 149.366H166.249V151.296H168.179V149.366Z" fill="#F0F0F0"/>
<path d="M168.179 152.6H166.249V154.53H168.179V152.6Z" fill="#F0F0F0"/>
<path d="M168.179 155.828H166.249V157.757H168.179V155.828Z" fill="#F0F0F0"/>
<path d="M168.179 159.055H166.249V160.985H168.179V159.055Z" fill="#F0F0F0"/>
<path d="M168.179 171.98H166.249V173.91H168.179V171.98Z" fill="#F0F0F0"/>
<path d="M171.237 136.448H169.308V138.378H171.237V136.448Z" fill="#F0F0F0"/>
<path d="M171.237 139.676H169.308V141.606H171.237V139.676Z" fill="#F0F0F0"/>
<path d="M171.237 142.903H169.308V144.833H171.237V142.903Z" fill="#F0F0F0"/>
<path d="M171.237 146.138H169.308V148.068H171.237V146.138Z" fill="#F0F0F0"/>
<path d="M171.237 149.366H169.308V151.296H171.237V149.366Z" fill="#F0F0F0"/>
<path d="M171.237 152.6H169.308V154.53H171.237V152.6Z" fill="#F0F0F0"/>
<path d="M171.237 155.828H169.308V157.757H171.237V155.828Z" fill="#F0F0F0"/>
<path d="M171.237 159.055H169.308V160.985H171.237V159.055Z" fill="#F0F0F0"/>
<path d="M174.295 136.448H172.365V138.378H174.295V136.448Z" fill="#F0F0F0"/>
<path d="M174.295 139.676H172.365V141.606H174.295V139.676Z" fill="#F0F0F0"/>
<path d="M174.295 142.903H172.365V144.833H174.295V142.903Z" fill="#F0F0F0"/>
<path d="M174.295 146.138H172.365V148.068H174.295V146.138Z" fill="#F0F0F0"/>
<path d="M174.295 149.366H172.365V151.296H174.295V149.366Z" fill="#F0F0F0"/>
<path d="M174.295 152.6H172.365V154.53H174.295V152.6Z" fill="#F0F0F0"/>
<path d="M174.295 159.055H172.365V160.985H174.295V159.055Z" fill="#F0F0F0"/>
<path d="M174.295 162.29H172.365V164.22H174.295V162.29Z" fill="#F0F0F0"/>
<path d="M174.295 171.98H172.365V173.91H174.295V171.98Z" fill="#F0F0F0"/>
<path d="M174.295 175.208H172.365V177.138H174.295V175.208Z" fill="#F0F0F0"/>
<path d="M174.295 178.442H172.365V180.372H174.295V178.442Z" fill="#F0F0F0"/>
<path d="M174.295 181.67H172.365V183.6H174.295V181.67Z" fill="#F0F0F0"/>
<path d="M174.295 184.905H172.365V186.835H174.295V184.905Z" fill="#F0F0F0"/>
<path d="M174.295 188.133H172.365V190.063H174.295V188.133Z" fill="#F0F0F0"/>
<path d="M174.295 191.36H172.365V193.29H174.295V191.36Z" fill="#F0F0F0"/>
<path d="M177.36 136.448H175.43V138.378H177.36V136.448Z" fill="#F0F0F0"/>
<path d="M177.36 139.676H175.43V141.606H177.36V139.676Z" fill="#F0F0F0"/>
<path d="M177.36 142.903H175.43V144.833H177.36V142.903Z" fill="#F0F0F0"/>
<path d="M177.36 146.138H175.43V148.068H177.36V146.138Z" fill="#F0F0F0"/>
<path d="M177.36 149.366H175.43V151.296H177.36V149.366Z" fill="#F0F0F0"/>
<path d="M177.36 152.6H175.43V154.53H177.36V152.6Z" fill="#F0F0F0"/>
<path d="M177.36 162.29H175.43V164.22H177.36V162.29Z" fill="#F0F0F0"/>
<path d="M177.36 165.518H175.43V167.447H177.36V165.518Z" fill="#F0F0F0"/>
<path d="M177.36 168.752H175.43V170.682H177.36V168.752Z" fill="#F0F0F0"/>
<path d="M177.36 171.98H175.43V173.91H177.36V171.98Z" fill="#F0F0F0"/>
<path d="M177.36 175.208H175.43V177.138H177.36V175.208Z" fill="#F0F0F0"/>
<path d="M177.36 178.442H175.43V180.372H177.36V178.442Z" fill="#F0F0F0"/>
<path d="M177.36 181.67H175.43V183.6H177.36V181.67Z" fill="#F0F0F0"/>
<path d="M177.36 184.905H175.43V186.835H177.36V184.905Z" fill="#F0F0F0"/>
<path d="M177.36 188.133H175.43V190.063H177.36V188.133Z" fill="#F0F0F0"/>
<path d="M177.36 191.36H175.43V193.29H177.36V191.36Z" fill="#F0F0F0"/>
<path d="M177.36 194.595H175.43V196.525H177.36V194.595Z" fill="#F0F0F0"/>
<path d="M177.36 201.057H175.43V202.987H177.36V201.057Z" fill="#F0F0F0"/>
<path d="M180.417 136.448H178.487V138.378H180.417V136.448Z" fill="#F0F0F0"/>
<path d="M180.417 139.676H178.487V141.606H180.417V139.676Z" fill="#F0F0F0"/>
<path d="M180.417 142.903H178.487V144.833H180.417V142.903Z" fill="#F0F0F0"/>
<path d="M180.417 146.138H178.487V148.068H180.417V146.138Z" fill="#F0F0F0"/>
<path d="M180.417 149.366H178.487V151.296H180.417V149.366Z" fill="#F0F0F0"/>
<path d="M180.417 152.6H178.487V154.53H180.417V152.6Z" fill="#F0F0F0"/>
<path d="M180.417 162.29H178.487V164.22H180.417V162.29Z" fill="#F0F0F0"/>
<path d="M180.417 165.518H178.487V167.447H180.417V165.518Z" fill="#F0F0F0"/>
<path d="M180.417 168.752H178.487V170.682H180.417V168.752Z" fill="#F0F0F0"/>
<path d="M180.417 171.98H178.487V173.91H180.417V171.98Z" fill="#F0F0F0"/>
<path d="M180.417 181.67H178.487V183.6H180.417V181.67Z" fill="#F0F0F0"/>
<path d="M180.417 184.905H178.487V186.835H180.417V184.905Z" fill="#F0F0F0"/>
<path d="M180.417 188.133H178.487V190.063H180.417V188.133Z" fill="#F0F0F0"/>
<path d="M180.417 191.36H178.487V193.29H180.417V191.36Z" fill="#F0F0F0"/>
<path d="M180.417 194.595H178.487V196.525H180.417V194.595Z" fill="#F0F0F0"/>
<path d="M180.417 201.057H178.487V202.987H180.417V201.057Z" fill="#F0F0F0"/>
<path d="M180.417 204.285H178.487V206.215H180.417V204.285Z" fill="#F0F0F0"/>
<path d="M208.19 166.482H206.26V168.412H208.19V166.482Z" fill="#F0F0F0"/>
<path d="M208.19 169.71H206.26V171.64H208.19V169.71Z" fill="#F0F0F0"/>
<path d="M208.19 172.945H206.26V174.875H208.19V172.945Z" fill="#F0F0F0"/>
<path d="M208.19 176.173H206.26V178.103H208.19V176.173Z" fill="#F0F0F0"/>
<path d="M208.19 179.408H206.26V181.338H208.19V179.408Z" fill="#F0F0F0"/>
<path d="M208.19 182.635H206.26V184.565H208.19V182.635Z" fill="#F0F0F0"/>
<path d="M208.19 185.863H206.26V187.793H208.19V185.863Z" fill="#F0F0F0"/>
<path d="M208.19 195.56H206.26V197.489H208.19V195.56Z" fill="#F0F0F0"/>
<path d="M208.19 198.788H206.26V200.717H208.19V198.788Z" fill="#F0F0F0"/>
<path d="M208.19 202.015H206.26V203.945H208.19V202.015Z" fill="#F0F0F0"/>
<path d="M211.248 166.482H209.318V168.412H211.248V166.482Z" fill="#F0F0F0"/>
<path d="M211.248 169.71H209.318V171.64H211.248V169.71Z" fill="#F0F0F0"/>
<path d="M211.248 172.945H209.318V174.875H211.248V172.945Z" fill="#F0F0F0"/>
<path d="M211.248 176.173H209.318V178.103H211.248V176.173Z" fill="#F0F0F0"/>
<path d="M211.248 179.408H209.318V181.338H211.248V179.408Z" fill="#F0F0F0"/>
<path d="M211.248 182.635H209.318V184.565H211.248V182.635Z" fill="#F0F0F0"/>
<path d="M211.248 185.863H209.318V187.793H211.248V185.863Z" fill="#F0F0F0"/>
<path d="M214.312 166.482H212.382V168.412H214.312V166.482Z" fill="#F0F0F0"/>
<path d="M214.312 169.71H212.382V171.64H214.312V169.71Z" fill="#F0F0F0"/>
<path d="M214.312 172.945H212.382V174.875H214.312V172.945Z" fill="#F0F0F0"/>
<path d="M214.312 176.173H212.382V178.103H214.312V176.173Z" fill="#F0F0F0"/>
<path d="M214.312 179.408H212.382V181.338H214.312V179.408Z" fill="#F0F0F0"/>
<path d="M214.312 182.635H212.382V184.565H214.312V182.635Z" fill="#F0F0F0"/>
<path d="M214.312 185.863H212.382V187.793H214.312V185.863Z" fill="#F0F0F0"/>
<path d="M217.37 166.482H215.44V168.412H217.37V166.482Z" fill="#F0F0F0"/>
<path d="M217.37 169.71H215.44V171.64H217.37V169.71Z" fill="#F0F0F0"/>
<path d="M217.37 172.945H215.44V174.875H217.37V172.945Z" fill="#F0F0F0"/>
<path d="M217.37 176.173H215.44V178.103H217.37V176.173Z" fill="#F0F0F0"/>
<path d="M217.37 179.408H215.44V181.338H217.37V179.408Z" fill="#F0F0F0"/>
<path d="M217.37 182.635H215.44V184.565H217.37V182.635Z" fill="#F0F0F0"/>
<path d="M217.37 185.863H215.44V187.793H217.37V185.863Z" fill="#F0F0F0"/>
<path d="M217.37 189.097H215.44V191.027H217.37V189.097Z" fill="#F0F0F0"/>
<path d="M217.37 192.325H215.44V194.255H217.37V192.325Z" fill="#F0F0F0"/>
<path d="M217.37 195.56H215.44V197.489H217.37V195.56Z" fill="#F0F0F0"/>
<path d="M217.37 198.788H215.44V200.717H217.37V198.788Z" fill="#F0F0F0"/>
<path d="M220.434 166.482H218.504V168.412H220.434V166.482Z" fill="#F0F0F0"/>
<path d="M220.434 169.71H218.504V171.64H220.434V169.71Z" fill="#F0F0F0"/>
<path d="M220.434 172.945H218.504V174.875H220.434V172.945Z" fill="#F0F0F0"/>
<path d="M220.434 176.173H218.504V178.103H220.434V176.173Z" fill="#F0F0F0"/>
<path d="M220.434 179.408H218.504V181.338H220.434V179.408Z" fill="#F0F0F0"/>
<path d="M220.434 182.635H218.504V184.565H220.434V182.635Z" fill="#F0F0F0"/>
<path d="M220.434 185.863H218.504V187.793H220.434V185.863Z" fill="#F0F0F0"/>
<path d="M220.434 189.097H218.504V191.027H220.434V189.097Z" fill="#F0F0F0"/>
<path d="M220.434 192.325H218.504V194.255H220.434V192.325Z" fill="#F0F0F0"/>
<path d="M220.434 195.56H218.504V197.489H220.434V195.56Z" fill="#F0F0F0"/>
<path d="M220.434 198.788H218.504V200.717H220.434V198.788Z" fill="#F0F0F0"/>
<path d="M220.434 202.015H218.504V203.945H220.434V202.015Z" fill="#F0F0F0"/>
<path d="M220.434 211.712H218.504V213.642H220.434V211.712Z" fill="#F0F0F0"/>
<path d="M220.434 214.939H218.504V216.869H220.434V214.939Z" fill="#F0F0F0"/>
<path d="M223.492 166.482H221.562V168.412H223.492V166.482Z" fill="#F0F0F0"/>
<path d="M223.492 169.71H221.562V171.64H223.492V169.71Z" fill="#F0F0F0"/>
<path d="M223.492 172.945H221.562V174.875H223.492V172.945Z" fill="#F0F0F0"/>
<path d="M223.492 182.635H221.562V184.565H223.492V182.635Z" fill="#F0F0F0"/>
<path d="M223.492 185.863H221.562V187.793H223.492V185.863Z" fill="#F0F0F0"/>
<path d="M223.492 189.097H221.562V191.027H223.492V189.097Z" fill="#F0F0F0"/>
<path d="M223.492 192.325H221.562V194.255H223.492V192.325Z" fill="#F0F0F0"/>
<path d="M223.492 195.56H221.562V197.489H223.492V195.56Z" fill="#F0F0F0"/>
<path d="M223.492 198.788H221.562V200.717H223.492V198.788Z" fill="#F0F0F0"/>
<path d="M223.492 202.015H221.562V203.945H223.492V202.015Z" fill="#F0F0F0"/>
<path d="M223.492 211.712H221.562V213.642H223.492V211.712Z" fill="#F0F0F0"/>
<path d="M223.492 214.939H221.562V216.869H223.492V214.939Z" fill="#F0F0F0"/>
<path d="M223.492 218.167H221.562V220.097H223.492V218.167Z" fill="#F0F0F0"/>
<path d="M255.572 147.103H253.643V149.032H255.572V147.103Z" fill="#F0F0F0"/>
<path d="M255.572 150.331H253.643V152.26H255.572V150.331Z" fill="#F0F0F0"/>
<path d="M255.572 153.558H253.643V155.488H255.572V153.558Z" fill="#F0F0F0"/>
<path d="M255.572 156.793H253.643V158.723H255.572V156.793Z" fill="#F0F0F0"/>
<path d="M255.572 160.021H253.643V161.95H255.572V160.021Z" fill="#F0F0F0"/>
<path d="M255.572 163.255H253.643V165.185H255.572V163.255Z" fill="#F0F0F0"/>
<path d="M255.572 166.482H253.643V168.412H255.572V166.482Z" fill="#F0F0F0"/>
<path d="M255.572 169.71H253.643V171.64H255.572V169.71Z" fill="#F0F0F0"/>
<path d="M255.572 172.945H253.643V174.875H255.572V172.945Z" fill="#F0F0F0"/>
<path d="M255.572 176.173H253.643V178.103H255.572V176.173Z" fill="#F0F0F0"/>
<path d="M255.572 179.408H253.643V181.338H255.572V179.408Z" fill="#F0F0F0"/>
<path d="M255.572 182.635H253.643V184.565H255.572V182.635Z" fill="#F0F0F0"/>
<path d="M255.572 185.863H253.643V187.793H255.572V185.863Z" fill="#F0F0F0"/>
<path d="M255.572 189.097H253.643V191.027H255.572V189.097Z" fill="#F0F0F0"/>
<path d="M255.572 192.325H253.643V194.255H255.572V192.325Z" fill="#F0F0F0"/>
<path d="M255.572 195.56H253.643V197.489H255.572V195.56Z" fill="#F0F0F0"/>
<path d="M255.572 198.788H253.643V200.717H255.572V198.788Z" fill="#F0F0F0"/>
<path d="M255.572 202.015H253.643V203.945H255.572V202.015Z" fill="#F0F0F0"/>
<path d="M255.572 205.25H253.643V207.18H255.572V205.25Z" fill="#F0F0F0"/>
<path d="M255.572 208.478H253.643V210.407H255.572V208.478Z" fill="#F0F0F0"/>
<path d="M255.572 211.712H253.643V213.642H255.572V211.712Z" fill="#F0F0F0"/>
<path d="M255.572 214.939H253.643V216.869H255.572V214.939Z" fill="#F0F0F0"/>
<path d="M255.572 218.167H253.643V220.097H255.572V218.167Z" fill="#F0F0F0"/>
<path d="M258.631 147.103H256.701V149.032H258.631V147.103Z" fill="#F0F0F0"/>
<path d="M258.631 150.331H256.701V152.26H258.631V150.331Z" fill="#F0F0F0"/>
<path d="M258.631 153.558H256.701V155.488H258.631V153.558Z" fill="#F0F0F0"/>
<path d="M258.631 156.793H256.701V158.723H258.631V156.793Z" fill="#F0F0F0"/>
<path d="M258.631 160.021H256.701V161.95H258.631V160.021Z" fill="#F0F0F0"/>
<path d="M258.631 163.255H256.701V165.185H258.631V163.255Z" fill="#F0F0F0"/>
<path d="M258.631 166.482H256.701V168.412H258.631V166.482Z" fill="#F0F0F0"/>
<path d="M258.631 169.71H256.701V171.64H258.631V169.71Z" fill="#F0F0F0"/>
<path d="M258.631 172.945H256.701V174.875H258.631V172.945Z" fill="#F0F0F0"/>
<path d="M258.631 176.173H256.701V178.103H258.631V176.173Z" fill="#F0F0F0"/>
<path d="M258.631 179.408H256.701V181.338H258.631V179.408Z" fill="#F0F0F0"/>
<path d="M258.631 182.635H256.701V184.565H258.631V182.635Z" fill="#F0F0F0"/>
<path d="M258.631 185.863H256.701V187.793H258.631V185.863Z" fill="#F0F0F0"/>
<path d="M258.631 189.097H256.701V191.027H258.631V189.097Z" fill="#F0F0F0"/>
<path d="M258.631 192.325H256.701V194.255H258.631V192.325Z" fill="#F0F0F0"/>
<path d="M258.631 195.56H256.701V197.489H258.631V195.56Z" fill="#F0F0F0"/>
<path d="M258.631 198.788H256.701V200.717H258.631V198.788Z" fill="#F0F0F0"/>
<path d="M258.631 202.015H256.701V203.945H258.631V202.015Z" fill="#F0F0F0"/>
<path d="M258.631 205.25H256.701V207.18H258.631V205.25Z" fill="#F0F0F0"/>
<path d="M261.689 147.103H259.759V149.032H261.689V147.103Z" fill="#F0F0F0"/>
<path d="M261.689 150.331H259.759V152.26H261.689V150.331Z" fill="#F0F0F0"/>
<path d="M261.689 153.558H259.759V155.488H261.689V153.558Z" fill="#F0F0F0"/>
<path d="M261.689 156.793H259.759V158.723H261.689V156.793Z" fill="#F0F0F0"/>
<path d="M261.689 160.021H259.759V161.95H261.689V160.021Z" fill="#F0F0F0"/>
<path d="M261.689 163.255H259.759V165.185H261.689V163.255Z" fill="#F0F0F0"/>
<path d="M261.689 166.482H259.759V168.412H261.689V166.482Z" fill="#F0F0F0"/>
<path d="M261.689 169.71H259.759V171.64H261.689V169.71Z" fill="#F0F0F0"/>
<path d="M261.689 172.945H259.759V174.875H261.689V172.945Z" fill="#F0F0F0"/>
<path d="M261.689 176.173H259.759V178.103H261.689V176.173Z" fill="#F0F0F0"/>
<path d="M261.689 179.408H259.759V181.338H261.689V179.408Z" fill="#F0F0F0"/>
<path d="M261.689 182.635H259.759V184.565H261.689V182.635Z" fill="#F0F0F0"/>
<path d="M261.689 185.863H259.759V187.793H261.689V185.863Z" fill="#F0F0F0"/>
<path d="M261.689 189.097H259.759V191.027H261.689V189.097Z" fill="#F0F0F0"/>
<path d="M261.689 192.325H259.759V194.255H261.689V192.325Z" fill="#F0F0F0"/>
<path d="M261.689 195.56H259.759V197.489H261.689V195.56Z" fill="#F0F0F0"/>
<path d="M261.689 198.788H259.759V200.717H261.689V198.788Z" fill="#F0F0F0"/>
<path d="M261.689 202.015H259.759V203.945H261.689V202.015Z" fill="#F0F0F0"/>
<path d="M261.689 205.25H259.759V207.18H261.689V205.25Z" fill="#F0F0F0"/>
<path d="M264.753 147.103H262.823V149.032H264.753V147.103Z" fill="#F0F0F0"/>
<path d="M264.753 150.331H262.823V152.26H264.753V150.331Z" fill="#F0F0F0"/>
<path d="M264.753 153.558H262.823V155.488H264.753V153.558Z" fill="#F0F0F0"/>
<path d="M264.753 156.793H262.823V158.723H264.753V156.793Z" fill="#F0F0F0"/>
<path d="M264.753 160.021H262.823V161.95H264.753V160.021Z" fill="#F0F0F0"/>
<path d="M264.753 163.255H262.823V165.185H264.753V163.255Z" fill="#F0F0F0"/>
<path d="M264.753 166.482H262.823V168.412H264.753V166.482Z" fill="#F0F0F0"/>
<path d="M264.753 169.71H262.823V171.64H264.753V169.71Z" fill="#F0F0F0"/>
<path d="M264.753 172.945H262.823V174.875H264.753V172.945Z" fill="#F0F0F0"/>
<path d="M264.753 176.173H262.823V178.103H264.753V176.173Z" fill="#F0F0F0"/>
<path d="M264.753 179.408H262.823V181.338H264.753V179.408Z" fill="#F0F0F0"/>
<path d="M264.753 182.635H262.823V184.565H264.753V182.635Z" fill="#F0F0F0"/>
<path d="M264.753 185.863H262.823V187.793H264.753V185.863Z" fill="#F0F0F0"/>
<path d="M264.753 189.097H262.823V191.027H264.753V189.097Z" fill="#F0F0F0"/>
<path d="M264.753 192.325H262.823V194.255H264.753V192.325Z" fill="#F0F0F0"/>
<path d="M267.811 147.103H265.881V149.032H267.811V147.103Z" fill="#F0F0F0"/>
<path d="M267.811 150.331H265.881V152.26H267.811V150.331Z" fill="#F0F0F0"/>
<path d="M267.811 153.558H265.881V155.488H267.811V153.558Z" fill="#F0F0F0"/>
<path d="M267.811 156.793H265.881V158.723H267.811V156.793Z" fill="#F0F0F0"/>
<path d="M267.811 160.021H265.881V161.95H267.811V160.021Z" fill="#F0F0F0"/>
<path d="M267.811 163.255H265.881V165.185H267.811V163.255Z" fill="#F0F0F0"/>
<path d="M267.811 166.482H265.881V168.412H267.811V166.482Z" fill="#F0F0F0"/>
<path d="M267.811 169.71H265.881V171.64H267.811V169.71Z" fill="#F0F0F0"/>
<path d="M267.811 172.945H265.881V174.875H267.811V172.945Z" fill="#F0F0F0"/>
<path d="M267.811 176.173H265.881V178.103H267.811V176.173Z" fill="#F0F0F0"/>
<path d="M267.811 179.408H265.881V181.338H267.811V179.408Z" fill="#F0F0F0"/>
<path d="M267.811 182.635H265.881V184.565H267.811V182.635Z" fill="#F0F0F0"/>
<path d="M267.811 185.863H265.881V187.793H267.811V185.863Z" fill="#F0F0F0"/>
<path d="M270.876 147.103H268.946V149.032H270.876V147.103Z" fill="#F0F0F0"/>
<path d="M270.876 150.331H268.946V152.26H270.876V150.331Z" fill="#F0F0F0"/>
<path d="M270.876 153.558H268.946V155.488H270.876V153.558Z" fill="#F0F0F0"/>
<path d="M270.876 156.793H268.946V158.723H270.876V156.793Z" fill="#F0F0F0"/>
<path d="M270.876 160.021H268.946V161.95H270.876V160.021Z" fill="#F0F0F0"/>
<path d="M270.876 163.255H268.946V165.185H270.876V163.255Z" fill="#F0F0F0"/>
<path d="M270.876 166.482H268.946V168.412H270.876V166.482Z" fill="#F0F0F0"/>
<path d="M270.876 169.71H268.946V171.64H270.876V169.71Z" fill="#F0F0F0"/>
<path d="M270.876 172.945H268.946V174.875H270.876V172.945Z" fill="#F0F0F0"/>
<path d="M270.876 176.173H268.946V178.103H270.876V176.173Z" fill="#F0F0F0"/>
<path d="M270.876 179.408H268.946V181.338H270.876V179.408Z" fill="#F0F0F0"/>
<path d="M270.876 182.635H268.946V184.565H270.876V182.635Z" fill="#F0F0F0"/>
<path d="M45.987 170.675H44.0571V172.605H45.987V170.675Z" fill="#F0F0F0"/>
<path d="M45.987 173.91H44.0571V175.84H45.987V173.91Z" fill="#F0F0F0"/>
<path d="M45.987 177.137H44.0571V179.067H45.987V177.137Z" fill="#F0F0F0"/>
<path d="M45.987 180.365H44.0571V182.295H45.987V180.365Z" fill="#F0F0F0"/>
<path d="M45.987 183.6H44.0571V185.53H45.987V183.6Z" fill="#F0F0F0"/>
<path d="M45.987 186.828H44.0571V188.757H45.987V186.828Z" fill="#F0F0F0"/>
<path d="M45.987 190.062H44.0571V191.992H45.987V190.062Z" fill="#F0F0F0"/>
<path d="M45.987 193.291H44.0571V195.22H45.987V193.291Z" fill="#F0F0F0"/>
<path d="M45.987 196.518H44.0571V198.448H45.987V196.518Z" fill="#F0F0F0"/>
<path d="M45.987 199.752H44.0571V201.682H45.987V199.752Z" fill="#F0F0F0"/>
<path d="M45.987 202.98H44.0571V204.91H45.987V202.98Z" fill="#F0F0F0"/>
<path d="M45.987 206.215H44.0571V208.145H45.987V206.215Z" fill="#F0F0F0"/>
<path d="M45.987 209.442H44.0571V211.372H45.987V209.442Z" fill="#F0F0F0"/>
<path d="M45.987 212.67H44.0571V214.6H45.987V212.67Z" fill="#F0F0F0"/>
<path d="M45.987 215.905H44.0571V217.835H45.987V215.905Z" fill="#F0F0F0"/>
<path d="M45.987 219.132H44.0571V221.062H45.987V219.132Z" fill="#F0F0F0"/>
<path d="M45.987 222.367H44.0571V224.297H45.987V222.367Z" fill="#F0F0F0"/>
<path d="M45.987 225.594H44.0571V227.524H45.987V225.594Z" fill="#F0F0F0"/>
<path d="M45.987 228.822H44.0571V230.752H45.987V228.822Z" fill="#F0F0F0"/>
<path d="M45.987 232.057H44.0571V233.986H45.987V232.057Z" fill="#F0F0F0"/>
<path d="M49.0446 170.675H47.1147V172.605H49.0446V170.675Z" fill="#F0F0F0"/>
<path d="M49.0446 173.91H47.1147V175.84H49.0446V173.91Z" fill="#F0F0F0"/>
<path d="M49.0446 177.137H47.1147V179.067H49.0446V177.137Z" fill="#F0F0F0"/>
<path d="M49.0446 180.365H47.1147V182.295H49.0446V180.365Z" fill="#F0F0F0"/>
<path d="M49.0446 183.6H47.1147V185.53H49.0446V183.6Z" fill="#F0F0F0"/>
<path d="M49.0446 186.828H47.1147V188.757H49.0446V186.828Z" fill="#F0F0F0"/>
<path d="M49.0446 190.062H47.1147V191.992H49.0446V190.062Z" fill="#F0F0F0"/>
<path d="M49.0446 193.291H47.1147V195.22H49.0446V193.291Z" fill="#F0F0F0"/>
<path d="M49.0446 196.518H47.1147V198.448H49.0446V196.518Z" fill="#F0F0F0"/>
<path d="M49.0446 199.752H47.1147V201.682H49.0446V199.752Z" fill="#F0F0F0"/>
<path d="M49.0446 202.98H47.1147V204.91H49.0446V202.98Z" fill="#F0F0F0"/>
<path d="M49.0446 206.215H47.1147V208.145H49.0446V206.215Z" fill="#F0F0F0"/>
<path d="M49.0446 209.442H47.1147V211.372H49.0446V209.442Z" fill="#F0F0F0"/>
<path d="M49.0446 212.67H47.1147V214.6H49.0446V212.67Z" fill="#F0F0F0"/>
<path d="M49.0446 215.905H47.1147V217.835H49.0446V215.905Z" fill="#F0F0F0"/>
<path d="M49.0446 219.132H47.1147V221.062H49.0446V219.132Z" fill="#F0F0F0"/>
<path d="M49.0446 222.367H47.1147V224.297H49.0446V222.367Z" fill="#F0F0F0"/>
<path d="M49.0446 225.594H47.1147V227.524H49.0446V225.594Z" fill="#F0F0F0"/>
<path d="M52.1027 170.675H50.1729V172.605H52.1027V170.675Z" fill="#F0F0F0"/>
<path d="M52.1027 173.91H50.1729V175.84H52.1027V173.91Z" fill="#F0F0F0"/>
<path d="M52.1027 177.137H50.1729V179.067H52.1027V177.137Z" fill="#F0F0F0"/>
<path d="M52.1027 180.365H50.1729V182.295H52.1027V180.365Z" fill="#F0F0F0"/>
<path d="M52.1027 183.6H50.1729V185.53H52.1027V183.6Z" fill="#F0F0F0"/>
<path d="M52.1027 186.828H50.1729V188.757H52.1027V186.828Z" fill="#F0F0F0"/>
<path d="M52.1027 190.062H50.1729V191.992H52.1027V190.062Z" fill="#F0F0F0"/>
<path d="M52.1027 193.291H50.1729V195.22H52.1027V193.291Z" fill="#F0F0F0"/>
<path d="M52.1027 196.518H50.1729V198.448H52.1027V196.518Z" fill="#F0F0F0"/>
<path d="M52.1027 199.752H50.1729V201.682H52.1027V199.752Z" fill="#F0F0F0"/>
<path d="M52.1027 202.98H50.1729V204.91H52.1027V202.98Z" fill="#F0F0F0"/>
<path d="M52.1027 206.215H50.1729V208.145H52.1027V206.215Z" fill="#F0F0F0"/>
<path d="M52.1027 209.442H50.1729V211.372H52.1027V209.442Z" fill="#F0F0F0"/>
<path d="M52.1027 212.67H50.1729V214.6H52.1027V212.67Z" fill="#F0F0F0"/>
<path d="M52.1027 215.905H50.1729V217.835H52.1027V215.905Z" fill="#F0F0F0"/>
<path d="M52.1027 219.132H50.1729V221.062H52.1027V219.132Z" fill="#F0F0F0"/>
<path d="M52.1027 222.367H50.1729V224.297H52.1027V222.367Z" fill="#F0F0F0"/>
<path d="M52.1027 225.594H50.1729V227.524H52.1027V225.594Z" fill="#F0F0F0"/>
<path d="M34.5368 194.255H32.6069V196.185H34.5368V194.255Z" fill="#F0F0F0"/>
<path d="M34.5368 197.483H32.6069V199.413H34.5368V197.483Z" fill="#F0F0F0"/>
<path d="M34.5368 200.717H32.6069V202.647H34.5368V200.717Z" fill="#F0F0F0"/>
<path d="M34.5368 203.945H32.6069V205.875H34.5368V203.945Z" fill="#F0F0F0"/>
<path d="M34.5368 207.173H32.6069V209.103H34.5368V207.173Z" fill="#F0F0F0"/>
<path d="M34.5368 210.408H32.6069V212.338H34.5368V210.408Z" fill="#F0F0F0"/>
<path d="M34.5368 213.635H32.6069V215.565H34.5368V213.635Z" fill="#F0F0F0"/>
<path d="M34.5368 216.87H32.6069V218.799H34.5368V216.87Z" fill="#F0F0F0"/>
<path d="M34.5368 220.097H32.6069V222.027H34.5368V220.097Z" fill="#F0F0F0"/>
<path d="M34.5368 223.325H32.6069V225.255H34.5368V223.325Z" fill="#F0F0F0"/>
<path d="M34.5368 226.56H32.6069V228.489H34.5368V226.56Z" fill="#F0F0F0"/>
<path d="M34.5368 229.787H32.6069V231.717H34.5368V229.787Z" fill="#F0F0F0"/>
<path d="M34.5368 233.022H32.6069V234.952H34.5368V233.022Z" fill="#F0F0F0"/>
<path d="M37.5944 194.255H35.6646V196.185H37.5944V194.255Z" fill="#F0F0F0"/>
<path d="M37.5944 197.483H35.6646V199.413H37.5944V197.483Z" fill="#F0F0F0"/>
<path d="M37.5944 200.717H35.6646V202.647H37.5944V200.717Z" fill="#F0F0F0"/>
<path d="M37.5944 203.945H35.6646V205.875H37.5944V203.945Z" fill="#F0F0F0"/>
<path d="M37.5944 207.173H35.6646V209.103H37.5944V207.173Z" fill="#F0F0F0"/>
<path d="M37.5944 210.408H35.6646V212.338H37.5944V210.408Z" fill="#F0F0F0"/>
<path d="M37.5944 213.635H35.6646V215.565H37.5944V213.635Z" fill="#F0F0F0"/>
<path d="M37.5944 216.87H35.6646V218.799H37.5944V216.87Z" fill="#F0F0F0"/>
<path d="M37.5944 220.097H35.6646V222.027H37.5944V220.097Z" fill="#F0F0F0"/>
<path d="M37.5944 223.325H35.6646V225.255H37.5944V223.325Z" fill="#F0F0F0"/>
<path d="M37.5944 226.56H35.6646V228.489H37.5944V226.56Z" fill="#F0F0F0"/>
<path d="M37.5944 229.787H35.6646V231.717H37.5944V229.787Z" fill="#F0F0F0"/>
<path d="M37.5944 233.022H35.6646V234.952H37.5944V233.022Z" fill="#F0F0F0"/>
<path d="M40.6593 194.255H38.7295V196.185H40.6593V194.255Z" fill="#F0F0F0"/>
<path d="M40.6593 197.483H38.7295V199.413H40.6593V197.483Z" fill="#F0F0F0"/>
<path d="M40.6593 200.717H38.7295V202.647H40.6593V200.717Z" fill="#F0F0F0"/>
<path d="M40.6593 203.945H38.7295V205.875H40.6593V203.945Z" fill="#F0F0F0"/>
<path d="M40.6593 207.173H38.7295V209.103H40.6593V207.173Z" fill="#F0F0F0"/>
<path d="M40.6593 210.408H38.7295V212.338H40.6593V210.408Z" fill="#F0F0F0"/>
<path d="M40.6593 213.635H38.7295V215.565H40.6593V213.635Z" fill="#F0F0F0"/>
<path d="M40.6593 216.87H38.7295V218.799H40.6593V216.87Z" fill="#F0F0F0"/>
<path d="M40.6593 220.097H38.7295V222.027H40.6593V220.097Z" fill="#F0F0F0"/>
<path d="M40.6593 223.325H38.7295V225.255H40.6593V223.325Z" fill="#F0F0F0"/>
<path d="M40.6593 226.56H38.7295V228.489H40.6593V226.56Z" fill="#F0F0F0"/>
<path d="M40.6593 229.787H38.7295V231.717H40.6593V229.787Z" fill="#F0F0F0"/>
<path d="M40.6593 233.022H38.7295V234.952H40.6593V233.022Z" fill="#F0F0F0"/>
<path d="M40.6593 236.25H38.7295V238.179H40.6593V236.25Z" fill="#F0F0F0"/>
<path d="M57.6613 195.22H55.7314V197.15H57.6613V195.22Z" fill="#F0F0F0"/>
<path d="M57.6613 198.448H55.7314V200.378H57.6613V198.448Z" fill="#F0F0F0"/>
<path d="M57.6613 201.676H55.7314V203.606H57.6613V201.676Z" fill="#F0F0F0"/>
<path d="M57.6613 204.91H55.7314V206.84H57.6613V204.91Z" fill="#F0F0F0"/>
<path d="M57.6613 208.138H55.7314V210.068H57.6613V208.138Z" fill="#F0F0F0"/>
<path d="M57.6613 211.373H55.7314V213.302H57.6613V211.373Z" fill="#F0F0F0"/>
<path d="M57.6613 214.6H55.7314V216.53H57.6613V214.6Z" fill="#F0F0F0"/>
<path d="M57.6613 217.828H55.7314V219.757H57.6613V217.828Z" fill="#F0F0F0"/>
<path d="M57.6613 221.062H55.7314V222.992H57.6613V221.062Z" fill="#F0F0F0"/>
<path d="M57.6613 224.29H55.7314V226.22H57.6613V224.29Z" fill="#F0F0F0"/>
<path d="M57.6613 233.979H55.7314V235.909H57.6613V233.979Z" fill="#F0F0F0"/>
<path d="M60.7189 195.22H58.7891V197.15H60.7189V195.22Z" fill="#F0F0F0"/>
<path d="M60.7189 198.448H58.7891V200.378H60.7189V198.448Z" fill="#F0F0F0"/>
<path d="M60.7189 201.676H58.7891V203.606H60.7189V201.676Z" fill="#F0F0F0"/>
<path d="M60.7189 204.91H58.7891V206.84H60.7189V204.91Z" fill="#F0F0F0"/>
<path d="M60.7189 208.138H58.7891V210.068H60.7189V208.138Z" fill="#F0F0F0"/>
<path d="M60.7189 211.373H58.7891V213.302H60.7189V211.373Z" fill="#F0F0F0"/>
<path d="M60.7189 214.6H58.7891V216.53H60.7189V214.6Z" fill="#F0F0F0"/>
<path d="M60.7189 217.828H58.7891V219.757H60.7189V217.828Z" fill="#F0F0F0"/>
<path d="M60.7189 221.062H58.7891V222.992H60.7189V221.062Z" fill="#F0F0F0"/>
<path d="M60.7189 230.752H58.7891V232.682H60.7189V230.752Z" fill="#F0F0F0"/>
<path d="M60.7189 233.979H58.7891V235.909H60.7189V233.979Z" fill="#F0F0F0"/>
<path d="M63.7839 195.22H61.854V197.15H63.7839V195.22Z" fill="#F0F0F0"/>
<path d="M63.7839 198.448H61.854V200.378H63.7839V198.448Z" fill="#F0F0F0"/>
<path d="M63.7839 201.676H61.854V203.606H63.7839V201.676Z" fill="#F0F0F0"/>
<path d="M63.7839 204.91H61.854V206.84H63.7839V204.91Z" fill="#F0F0F0"/>
<path d="M63.7839 208.138H61.854V210.068H63.7839V208.138Z" fill="#F0F0F0"/>
<path d="M63.7839 211.373H61.854V213.302H63.7839V211.373Z" fill="#F0F0F0"/>
<path d="M63.7839 214.6H61.854V216.53H63.7839V214.6Z" fill="#F0F0F0"/>
<path d="M63.7839 217.828H61.854V219.757H63.7839V217.828Z" fill="#F0F0F0"/>
<path d="M63.7839 227.524H61.854V229.454H63.7839V227.524Z" fill="#F0F0F0"/>
<path d="M63.7839 230.752H61.854V232.682H63.7839V230.752Z" fill="#F0F0F0"/>
<path d="M63.7839 233.979H61.854V235.909H63.7839V233.979Z" fill="#F0F0F0"/>
<path d="M92.2287 146.138H90.2988V148.068H92.2287V146.138Z" fill="#F0F0F0"/>
<path d="M92.2287 149.366H90.2988V151.296H92.2287V149.366Z" fill="#F0F0F0"/>
<path d="M92.2287 152.6H90.2988V154.53H92.2287V152.6Z" fill="#F0F0F0"/>
<path d="M92.2287 155.828H90.2988V157.757H92.2287V155.828Z" fill="#F0F0F0"/>
<path d="M92.2287 159.055H90.2988V160.985H92.2287V159.055Z" fill="#F0F0F0"/>
<path d="M92.2287 162.29H90.2988V164.22H92.2287V162.29Z" fill="#F0F0F0"/>
<path d="M92.2287 165.518H90.2988V167.447H92.2287V165.518Z" fill="#F0F0F0"/>
<path d="M92.2287 168.752H90.2988V170.682H92.2287V168.752Z" fill="#F0F0F0"/>
<path d="M92.2287 171.98H90.2988V173.91H92.2287V171.98Z" fill="#F0F0F0"/>
<path d="M92.2287 175.208H90.2988V177.138H92.2287V175.208Z" fill="#F0F0F0"/>
<path d="M92.2287 178.442H90.2988V180.372H92.2287V178.442Z" fill="#F0F0F0"/>
<path d="M92.2287 181.67H90.2988V183.6H92.2287V181.67Z" fill="#F0F0F0"/>
<path d="M92.2287 184.905H90.2988V186.835H92.2287V184.905Z" fill="#F0F0F0"/>
<path d="M92.2287 188.133H90.2988V190.063H92.2287V188.133Z" fill="#F0F0F0"/>
<path d="M92.2287 191.36H90.2988V193.29H92.2287V191.36Z" fill="#F0F0F0"/>
<path d="M92.2287 194.595H90.2988V196.525H92.2287V194.595Z" fill="#F0F0F0"/>
<path d="M92.2287 197.823H90.2988V199.753H92.2287V197.823Z" fill="#F0F0F0"/>
<path d="M92.2287 204.285H90.2988V206.215H92.2287V204.285Z" fill="#F0F0F0"/>
<path d="M92.2287 207.512H90.2988V209.442H92.2287V207.512Z" fill="#F0F0F0"/>
<path d="M92.2287 210.747H90.2988V212.677H92.2287V210.747Z" fill="#F0F0F0"/>
<path d="M92.2287 213.975H90.2988V215.904H92.2287V213.975Z" fill="#F0F0F0"/>
<path d="M92.2287 217.209H90.2988V219.139H92.2287V217.209Z" fill="#F0F0F0"/>
<path d="M95.2936 146.138H93.3638V148.068H95.2936V146.138Z" fill="#F0F0F0"/>
<path d="M95.2936 149.366H93.3638V151.296H95.2936V149.366Z" fill="#F0F0F0"/>
<path d="M95.2936 152.6H93.3638V154.53H95.2936V152.6Z" fill="#F0F0F0"/>
<path d="M95.2936 155.828H93.3638V157.757H95.2936V155.828Z" fill="#F0F0F0"/>
<path d="M95.2936 159.055H93.3638V160.985H95.2936V159.055Z" fill="#F0F0F0"/>
<path d="M95.2936 162.29H93.3638V164.22H95.2936V162.29Z" fill="#F0F0F0"/>
<path d="M95.2936 165.518H93.3638V167.447H95.2936V165.518Z" fill="#F0F0F0"/>
<path d="M95.2936 168.752H93.3638V170.682H95.2936V168.752Z" fill="#F0F0F0"/>
<path d="M95.2936 171.98H93.3638V173.91H95.2936V171.98Z" fill="#F0F0F0"/>
<path d="M95.2936 175.208H93.3638V177.138H95.2936V175.208Z" fill="#F0F0F0"/>
<path d="M95.2936 178.442H93.3638V180.372H95.2936V178.442Z" fill="#F0F0F0"/>
<path d="M95.2936 181.67H93.3638V183.6H95.2936V181.67Z" fill="#F0F0F0"/>
<path d="M95.2936 184.905H93.3638V186.835H95.2936V184.905Z" fill="#F0F0F0"/>
<path d="M95.2936 188.133H93.3638V190.063H95.2936V188.133Z" fill="#F0F0F0"/>
<path d="M95.2936 191.36H93.3638V193.29H95.2936V191.36Z" fill="#F0F0F0"/>
<path d="M95.2936 194.595H93.3638V196.525H95.2936V194.595Z" fill="#F0F0F0"/>
<path d="M95.2936 213.975H93.3638V215.904H95.2936V213.975Z" fill="#F0F0F0"/>
<path d="M95.2936 217.209H93.3638V219.139H95.2936V217.209Z" fill="#F0F0F0"/>
<path d="M98.3512 146.138H96.4214V148.068H98.3512V146.138Z" fill="#F0F0F0"/>
<path d="M98.3512 149.366H96.4214V151.296H98.3512V149.366Z" fill="#F0F0F0"/>
<path d="M98.3512 152.6H96.4214V154.53H98.3512V152.6Z" fill="#F0F0F0"/>
<path d="M98.3512 155.828H96.4214V157.757H98.3512V155.828Z" fill="#F0F0F0"/>
<path d="M98.3512 159.055H96.4214V160.985H98.3512V159.055Z" fill="#F0F0F0"/>
<path d="M98.3512 162.29H96.4214V164.22H98.3512V162.29Z" fill="#F0F0F0"/>
<path d="M98.3512 165.518H96.4214V167.447H98.3512V165.518Z" fill="#F0F0F0"/>
<path d="M98.3512 168.752H96.4214V170.682H98.3512V168.752Z" fill="#F0F0F0"/>
<path d="M98.3512 171.98H96.4214V173.91H98.3512V171.98Z" fill="#F0F0F0"/>
<path d="M98.3512 175.208H96.4214V177.138H98.3512V175.208Z" fill="#F0F0F0"/>
<path d="M98.3512 178.442H96.4214V180.372H98.3512V178.442Z" fill="#F0F0F0"/>
<path d="M98.3512 181.67H96.4214V183.6H98.3512V181.67Z" fill="#F0F0F0"/>
<path d="M98.3512 184.905H96.4214V186.835H98.3512V184.905Z" fill="#F0F0F0"/>
<path d="M98.3512 188.133H96.4214V190.063H98.3512V188.133Z" fill="#F0F0F0"/>
<path d="M98.3512 191.36H96.4214V193.29H98.3512V191.36Z" fill="#F0F0F0"/>
<path d="M98.3512 194.595H96.4214V196.525H98.3512V194.595Z" fill="#F0F0F0"/>
<path d="M98.3512 201.057H96.4214V202.987H98.3512V201.057Z" fill="#F0F0F0"/>
<path d="M98.3512 204.285H96.4214V206.215H98.3512V204.285Z" fill="#F0F0F0"/>
<path d="M98.3512 207.512H96.4214V209.442H98.3512V207.512Z" fill="#F0F0F0"/>
<path d="M98.3512 210.747H96.4214V212.677H98.3512V210.747Z" fill="#F0F0F0"/>
<path d="M98.3512 217.209H96.4214V219.139H98.3512V217.209Z" fill="#F0F0F0"/>
<path d="M81.1252 186.828H79.1953V188.757H81.1252V186.828Z" fill="#F0F0F0"/>
<path d="M81.1252 190.062H79.1953V191.992H81.1252V190.062Z" fill="#F0F0F0"/>
<path d="M81.1252 193.291H79.1953V195.22H81.1252V193.291Z" fill="#F0F0F0"/>
<path d="M81.1252 196.518H79.1953V198.448H81.1252V196.518Z" fill="#F0F0F0"/>
<path d="M81.1252 199.752H79.1953V201.682H81.1252V199.752Z" fill="#F0F0F0"/>
<path d="M81.1252 202.98H79.1953V204.91H81.1252V202.98Z" fill="#F0F0F0"/>
<path d="M81.1252 206.215H79.1953V208.145H81.1252V206.215Z" fill="#F0F0F0"/>
<path d="M81.1252 212.67H79.1953V214.6H81.1252V212.67Z" fill="#F0F0F0"/>
<path d="M81.1252 215.905H79.1953V217.835H81.1252V215.905Z" fill="#F0F0F0"/>
<path d="M81.1252 219.132H79.1953V221.062H81.1252V219.132Z" fill="#F0F0F0"/>
<path d="M81.1252 222.367H79.1953V224.297H81.1252V222.367Z" fill="#F0F0F0"/>
<path d="M81.1252 225.594H79.1953V227.524H81.1252V225.594Z" fill="#F0F0F0"/>
<path d="M81.1252 228.822H79.1953V230.752H81.1252V228.822Z" fill="#F0F0F0"/>
<path d="M81.1252 232.057H79.1953V233.986H81.1252V232.057Z" fill="#F0F0F0"/>
<path d="M81.1252 235.285H79.1953V237.215H81.1252V235.285Z" fill="#F0F0F0"/>
<path d="M84.1828 186.828H82.2529V188.757H84.1828V186.828Z" fill="#F0F0F0"/>
<path d="M84.1828 190.062H82.2529V191.992H84.1828V190.062Z" fill="#F0F0F0"/>
<path d="M84.1828 193.291H82.2529V195.22H84.1828V193.291Z" fill="#F0F0F0"/>
<path d="M84.1828 196.518H82.2529V198.448H84.1828V196.518Z" fill="#F0F0F0"/>
<path d="M84.1828 199.752H82.2529V201.682H84.1828V199.752Z" fill="#F0F0F0"/>
<path d="M84.1828 202.98H82.2529V204.91H84.1828V202.98Z" fill="#F0F0F0"/>
<path d="M84.1828 212.67H82.2529V214.6H84.1828V212.67Z" fill="#F0F0F0"/>
<path d="M84.1828 215.905H82.2529V217.835H84.1828V215.905Z" fill="#F0F0F0"/>
<path d="M84.1828 219.132H82.2529V221.062H84.1828V219.132Z" fill="#F0F0F0"/>
<path d="M84.1828 222.367H82.2529V224.297H84.1828V222.367Z" fill="#F0F0F0"/>
<path d="M84.1828 225.594H82.2529V227.524H84.1828V225.594Z" fill="#F0F0F0"/>
<path d="M84.1828 228.822H82.2529V230.752H84.1828V228.822Z" fill="#F0F0F0"/>
<path d="M84.1828 232.057H82.2529V233.986H84.1828V232.057Z" fill="#F0F0F0"/>
<path d="M84.1828 235.285H82.2529V237.215H84.1828V235.285Z" fill="#F0F0F0"/>
<path d="M87.2477 186.828H85.3179V188.757H87.2477V186.828Z" fill="#F0F0F0"/>
<path d="M87.2477 190.062H85.3179V191.992H87.2477V190.062Z" fill="#F0F0F0"/>
<path d="M87.2477 193.291H85.3179V195.22H87.2477V193.291Z" fill="#F0F0F0"/>
<path d="M87.2477 196.518H85.3179V198.448H87.2477V196.518Z" fill="#F0F0F0"/>
<path d="M87.2477 199.752H85.3179V201.682H87.2477V199.752Z" fill="#F0F0F0"/>
<path d="M87.2477 202.98H85.3179V204.91H87.2477V202.98Z" fill="#F0F0F0"/>
<path d="M87.2477 209.442H85.3179V211.372H87.2477V209.442Z" fill="#F0F0F0"/>
<path d="M87.2477 212.67H85.3179V214.6H87.2477V212.67Z" fill="#F0F0F0"/>
<path d="M87.2477 215.905H85.3179V217.835H87.2477V215.905Z" fill="#F0F0F0"/>
<path d="M87.2477 219.132H85.3179V221.062H87.2477V219.132Z" fill="#F0F0F0"/>
<path d="M87.2477 222.367H85.3179V224.297H87.2477V222.367Z" fill="#F0F0F0"/>
<path d="M87.2477 225.594H85.3179V227.524H87.2477V225.594Z" fill="#F0F0F0"/>
<path d="M87.2477 228.822H85.3179V230.752H87.2477V228.822Z" fill="#F0F0F0"/>
<path d="M87.2477 232.057H85.3179V233.986H87.2477V232.057Z" fill="#F0F0F0"/>
<path d="M87.2477 235.285H85.3179V237.215H87.2477V235.285Z" fill="#F0F0F0"/>
<path d="M151.742 168.752H149.812V170.682H151.742V168.752Z" fill="#F0F0F0"/>
<path d="M151.742 171.98H149.812V173.91H151.742V171.98Z" fill="#F0F0F0"/>
<path d="M151.742 175.208H149.812V177.138H151.742V175.208Z" fill="#F0F0F0"/>
<path d="M151.742 178.442H149.812V180.372H151.742V178.442Z" fill="#F0F0F0"/>
<path d="M151.742 181.67H149.812V183.6H151.742V181.67Z" fill="#F0F0F0"/>
<path d="M151.742 184.905H149.812V186.835H151.742V184.905Z" fill="#F0F0F0"/>
<path d="M151.742 188.133H149.812V190.063H151.742V188.133Z" fill="#F0F0F0"/>
<path d="M151.742 191.36H149.812V193.29H151.742V191.36Z" fill="#F0F0F0"/>
<path d="M151.742 194.595H149.812V196.525H151.742V194.595Z" fill="#F0F0F0"/>
<path d="M151.742 197.823H149.812V199.753H151.742V197.823Z" fill="#F0F0F0"/>
<path d="M151.742 201.057H149.812V202.987H151.742V201.057Z" fill="#F0F0F0"/>
<path d="M151.742 204.285H149.812V206.215H151.742V204.285Z" fill="#F0F0F0"/>
<path d="M151.742 207.512H149.812V209.442H151.742V207.512Z" fill="#F0F0F0"/>
<path d="M151.742 213.975H149.812V215.904H151.742V213.975Z" fill="#F0F0F0"/>
<path d="M151.742 217.209H149.812V219.139H151.742V217.209Z" fill="#F0F0F0"/>
<path d="M151.742 220.437H149.812V222.367H151.742V220.437Z" fill="#F0F0F0"/>
<path d="M151.742 223.665H149.812V225.595H151.742V223.665Z" fill="#F0F0F0"/>
<path d="M151.742 230.127H149.812V232.057H151.742V230.127Z" fill="#F0F0F0"/>
<path d="M151.742 233.362H149.812V235.292H151.742V233.362Z" fill="#F0F0F0"/>
<path d="M151.742 236.59H149.812V238.52H151.742V236.59Z" fill="#F0F0F0"/>
<path d="M154.799 168.752H152.87V170.682H154.799V168.752Z" fill="#F0F0F0"/>
<path d="M154.799 171.98H152.87V173.91H154.799V171.98Z" fill="#F0F0F0"/>
<path d="M154.799 175.208H152.87V177.138H154.799V175.208Z" fill="#F0F0F0"/>
<path d="M154.799 178.442H152.87V180.372H154.799V178.442Z" fill="#F0F0F0"/>
<path d="M154.799 181.67H152.87V183.6H154.799V181.67Z" fill="#F0F0F0"/>
<path d="M154.799 184.905H152.87V186.835H154.799V184.905Z" fill="#F0F0F0"/>
<path d="M154.799 188.133H152.87V190.063H154.799V188.133Z" fill="#F0F0F0"/>
<path d="M154.799 191.36H152.87V193.29H154.799V191.36Z" fill="#F0F0F0"/>
<path d="M154.799 194.595H152.87V196.525H154.799V194.595Z" fill="#F0F0F0"/>
<path d="M154.799 197.823H152.87V199.753H154.799V197.823Z" fill="#F0F0F0"/>
<path d="M154.799 201.057H152.87V202.987H154.799V201.057Z" fill="#F0F0F0"/>
<path d="M154.799 204.285H152.87V206.215H154.799V204.285Z" fill="#F0F0F0"/>
<path d="M154.799 207.512H152.87V209.442H154.799V207.512Z" fill="#F0F0F0"/>
<path d="M154.799 217.209H152.87V219.139H154.799V217.209Z" fill="#F0F0F0"/>
<path d="M154.799 220.437H152.87V222.367H154.799V220.437Z" fill="#F0F0F0"/>
<path d="M154.799 226.899H152.87V228.829H154.799V226.899Z" fill="#F0F0F0"/>
<path d="M154.799 230.127H152.87V232.057H154.799V230.127Z" fill="#F0F0F0"/>
<path d="M154.799 233.362H152.87V235.292H154.799V233.362Z" fill="#F0F0F0"/>
<path d="M154.799 236.59H152.87V238.52H154.799V236.59Z" fill="#F0F0F0"/>
<path d="M157.863 168.752H155.934V170.682H157.863V168.752Z" fill="#F0F0F0"/>
<path d="M157.863 171.98H155.934V173.91H157.863V171.98Z" fill="#F0F0F0"/>
<path d="M157.863 175.208H155.934V177.138H157.863V175.208Z" fill="#F0F0F0"/>
<path d="M157.863 178.442H155.934V180.372H157.863V178.442Z" fill="#F0F0F0"/>
<path d="M157.863 181.67H155.934V183.6H157.863V181.67Z" fill="#F0F0F0"/>
<path d="M157.863 184.905H155.934V186.835H157.863V184.905Z" fill="#F0F0F0"/>
<path d="M157.863 188.133H155.934V190.063H157.863V188.133Z" fill="#F0F0F0"/>
<path d="M157.863 191.36H155.934V193.29H157.863V191.36Z" fill="#F0F0F0"/>
<path d="M157.863 194.595H155.934V196.525H157.863V194.595Z" fill="#F0F0F0"/>
<path d="M157.863 197.823H155.934V199.753H157.863V197.823Z" fill="#F0F0F0"/>
<path d="M157.863 201.057H155.934V202.987H157.863V201.057Z" fill="#F0F0F0"/>
<path d="M157.863 204.285H155.934V206.215H157.863V204.285Z" fill="#F0F0F0"/>
<path d="M157.863 207.512H155.934V209.442H157.863V207.512Z" fill="#F0F0F0"/>
<path d="M157.863 210.747H155.934V212.677H157.863V210.747Z" fill="#F0F0F0"/>
<path d="M157.863 217.209H155.934V219.139H157.863V217.209Z" fill="#F0F0F0"/>
<path d="M157.863 223.665H155.934V225.595H157.863V223.665Z" fill="#F0F0F0"/>
<path d="M157.863 226.899H155.934V228.829H157.863V226.899Z" fill="#F0F0F0"/>
<path d="M157.863 230.127H155.934V232.057H157.863V230.127Z" fill="#F0F0F0"/>
<path d="M157.863 233.362H155.934V235.292H157.863V233.362Z" fill="#F0F0F0"/>
<path d="M157.863 236.59H155.934V238.52H157.863V236.59Z" fill="#F0F0F0"/>
<path d="M139.272 187.167H137.342V189.097H139.272V187.167Z" fill="#F0F0F0"/>
<path d="M139.272 190.402H137.342V192.332H139.272V190.402Z" fill="#F0F0F0"/>
<path d="M139.272 193.63H137.342V195.56H139.272V193.63Z" fill="#F0F0F0"/>
<path d="M139.272 196.857H137.342V198.787H139.272V196.857Z" fill="#F0F0F0"/>
<path d="M139.272 200.092H137.342V202.022H139.272V200.092Z" fill="#F0F0F0"/>
<path d="M139.272 203.32H137.342V205.25H139.272V203.32Z" fill="#F0F0F0"/>
<path d="M139.272 213.017H137.342V214.946H139.272V213.017Z" fill="#F0F0F0"/>
<path d="M139.272 216.244H137.342V218.174H139.272V216.244Z" fill="#F0F0F0"/>
<path d="M139.272 219.472H137.342V221.402H139.272V219.472Z" fill="#F0F0F0"/>
<path d="M139.272 222.707H137.342V224.636H139.272V222.707Z" fill="#F0F0F0"/>
<path d="M139.272 225.935H137.342V227.864H139.272V225.935Z" fill="#F0F0F0"/>
<path d="M139.272 229.169H137.342V231.099H139.272V229.169Z" fill="#F0F0F0"/>
<path d="M139.272 232.396H137.342V234.326H139.272V232.396Z" fill="#F0F0F0"/>
<path d="M142.33 187.167H140.4V189.097H142.33V187.167Z" fill="#F0F0F0"/>
<path d="M142.33 190.402H140.4V192.332H142.33V190.402Z" fill="#F0F0F0"/>
<path d="M142.33 193.63H140.4V195.56H142.33V193.63Z" fill="#F0F0F0"/>
<path d="M142.33 196.857H140.4V198.787H142.33V196.857Z" fill="#F0F0F0"/>
<path d="M142.33 200.092H140.4V202.022H142.33V200.092Z" fill="#F0F0F0"/>
<path d="M142.33 203.32H140.4V205.25H142.33V203.32Z" fill="#F0F0F0"/>
<path d="M142.33 213.017H140.4V214.946H142.33V213.017Z" fill="#F0F0F0"/>
<path d="M142.33 216.244H140.4V218.174H142.33V216.244Z" fill="#F0F0F0"/>
<path d="M142.33 219.472H140.4V221.402H142.33V219.472Z" fill="#F0F0F0"/>
<path d="M142.33 222.707H140.4V224.636H142.33V222.707Z" fill="#F0F0F0"/>
<path d="M142.33 225.935H140.4V227.864H142.33V225.935Z" fill="#F0F0F0"/>
<path d="M142.33 229.169H140.4V231.099H142.33V229.169Z" fill="#F0F0F0"/>
<path d="M142.33 235.625H140.4V237.554H142.33V235.625Z" fill="#F0F0F0"/>
<path d="M244.007 172.945H242.077V174.875H244.007V172.945Z" fill="#F0F0F0"/>
<path d="M244.007 176.173H242.077V178.103H244.007V176.173Z" fill="#F0F0F0"/>
<path d="M244.007 179.408H242.077V181.338H244.007V179.408Z" fill="#F0F0F0"/>
<path d="M244.007 182.635H242.077V184.565H244.007V182.635Z" fill="#F0F0F0"/>
<path d="M244.007 185.863H242.077V187.793H244.007V185.863Z" fill="#F0F0F0"/>
<path d="M244.007 189.097H242.077V191.027H244.007V189.097Z" fill="#F0F0F0"/>
<path d="M244.007 192.325H242.077V194.255H244.007V192.325Z" fill="#F0F0F0"/>
<path d="M244.007 195.56H242.077V197.489H244.007V195.56Z" fill="#F0F0F0"/>
<path d="M244.007 198.788H242.077V200.717H244.007V198.788Z" fill="#F0F0F0"/>
<path d="M244.007 202.015H242.077V203.945H244.007V202.015Z" fill="#F0F0F0"/>
<path d="M244.007 205.25H242.077V207.18H244.007V205.25Z" fill="#F0F0F0"/>
<path d="M244.007 211.712H242.077V213.642H244.007V211.712Z" fill="#F0F0F0"/>
<path d="M244.007 214.939H242.077V216.869H244.007V214.939Z" fill="#F0F0F0"/>
<path d="M244.007 218.167H242.077V220.097H244.007V218.167Z" fill="#F0F0F0"/>
<path d="M244.007 221.402H242.077V223.332H244.007V221.402Z" fill="#F0F0F0"/>
<path d="M244.007 224.63H242.077V226.56H244.007V224.63Z" fill="#F0F0F0"/>
<path d="M244.007 227.864H242.077V229.794H244.007V227.864Z" fill="#F0F0F0"/>
<path d="M244.007 231.092H242.077V233.022H244.007V231.092Z" fill="#F0F0F0"/>
<path d="M244.007 234.326H242.077V236.256H244.007V234.326Z" fill="#F0F0F0"/>
<path d="M247.072 172.945H245.143V174.875H247.072V172.945Z" fill="#F0F0F0"/>
<path d="M247.072 176.173H245.143V178.103H247.072V176.173Z" fill="#F0F0F0"/>
<path d="M247.072 179.408H245.143V181.338H247.072V179.408Z" fill="#F0F0F0"/>
<path d="M247.072 182.635H245.143V184.565H247.072V182.635Z" fill="#F0F0F0"/>
<path d="M247.072 185.863H245.143V187.793H247.072V185.863Z" fill="#F0F0F0"/>
<path d="M247.072 189.097H245.143V191.027H247.072V189.097Z" fill="#F0F0F0"/>
<path d="M247.072 192.325H245.143V194.255H247.072V192.325Z" fill="#F0F0F0"/>
<path d="M247.072 195.56H245.143V197.489H247.072V195.56Z" fill="#F0F0F0"/>
<path d="M247.072 198.788H245.143V200.717H247.072V198.788Z" fill="#F0F0F0"/>
<path d="M247.072 202.015H245.143V203.945H247.072V202.015Z" fill="#F0F0F0"/>
<path d="M247.072 205.25H245.143V207.18H247.072V205.25Z" fill="#F0F0F0"/>
<path d="M247.072 208.478H245.143V210.407H247.072V208.478Z" fill="#F0F0F0"/>
<path d="M247.072 211.712H245.143V213.642H247.072V211.712Z" fill="#F0F0F0"/>
<path d="M247.072 214.939H245.143V216.869H247.072V214.939Z" fill="#F0F0F0"/>
<path d="M247.072 218.167H245.143V220.097H247.072V218.167Z" fill="#F0F0F0"/>
<path d="M247.072 221.402H245.143V223.332H247.072V221.402Z" fill="#F0F0F0"/>
<path d="M247.072 224.63H245.143V226.56H247.072V224.63Z" fill="#F0F0F0"/>
<path d="M247.072 227.864H245.143V229.794H247.072V227.864Z" fill="#F0F0F0"/>
<path d="M247.072 231.092H245.143V233.022H247.072V231.092Z" fill="#F0F0F0"/>
<path d="M247.072 234.326H245.143V236.256H247.072V234.326Z" fill="#F0F0F0"/>
<path d="M228.936 185.523H227.006V187.453H228.936V185.523Z" fill="#F0F0F0"/>
<path d="M228.936 188.757H227.006V190.687H228.936V188.757Z" fill="#F0F0F0"/>
<path d="M228.936 191.985H227.006V193.915H228.936V191.985Z" fill="#F0F0F0"/>
<path d="M228.936 195.22H227.006V197.15H228.936V195.22Z" fill="#F0F0F0"/>
<path d="M228.936 198.448H227.006V200.378H228.936V198.448Z" fill="#F0F0F0"/>
<path d="M228.936 201.676H227.006V203.606H228.936V201.676Z" fill="#F0F0F0"/>
<path d="M228.936 204.91H227.006V206.84H228.936V204.91Z" fill="#F0F0F0"/>
<path d="M228.936 208.138H227.006V210.068H228.936V208.138Z" fill="#F0F0F0"/>
<path d="M228.936 211.373H227.006V213.302H228.936V211.373Z" fill="#F0F0F0"/>
<path d="M228.936 214.6H227.006V216.53H228.936V214.6Z" fill="#F0F0F0"/>
<path d="M231.993 185.523H230.063V187.453H231.993V185.523Z" fill="#F0F0F0"/>
<path d="M231.993 188.757H230.063V190.687H231.993V188.757Z" fill="#F0F0F0"/>
<path d="M231.993 191.985H230.063V193.915H231.993V191.985Z" fill="#F0F0F0"/>
<path d="M231.993 195.22H230.063V197.15H231.993V195.22Z" fill="#F0F0F0"/>
<path d="M231.993 198.448H230.063V200.378H231.993V198.448Z" fill="#F0F0F0"/>
<path d="M231.993 201.676H230.063V203.606H231.993V201.676Z" fill="#F0F0F0"/>
<path d="M231.993 204.91H230.063V206.84H231.993V204.91Z" fill="#F0F0F0"/>
<path d="M231.993 208.138H230.063V210.068H231.993V208.138Z" fill="#F0F0F0"/>
<path d="M231.993 211.373H230.063V213.302H231.993V211.373Z" fill="#F0F0F0"/>
<path d="M77.8975 105.59C77.8979 104.656 77.6796 103.734 77.26 102.898C76.8405 102.063 76.2313 101.337 75.4812 100.779C74.731 100.221 73.8608 99.8463 72.94 99.6847C72.0192 99.5231 71.0734 99.5792 70.1781 99.8484C70.2683 99.241 70.3137 98.6278 70.314 98.0137C70.314 96.1496 69.9032 94.3085 69.1108 92.6212C68.3184 90.9339 67.164 89.442 65.7296 88.2515C64.2952 87.061 62.616 86.2012 60.8116 85.7334C59.0072 85.2655 57.1219 85.201 55.2897 85.5444C54.0375 83.492 52.1521 81.902 49.9177 81.0142C47.6833 80.1264 45.2209 79.9888 42.9015 80.6221C40.5821 81.2555 38.5313 82.6254 37.0582 84.5256C35.5851 86.4258 34.7694 88.7532 34.7341 91.1573H34.5438C31.8333 91.1573 29.2338 92.2341 27.3171 94.1507C25.4005 96.0673 24.3237 98.6668 24.3237 101.377C24.3237 104.088 25.4005 106.687 27.3171 108.604C29.2338 110.521 31.8333 111.597 34.5438 111.597H72.074C73.6368 111.555 75.121 110.903 76.2092 109.78C77.2975 108.658 77.9034 107.154 77.8975 105.59Z" fill="#F0F0F0"/>
<path d="M235.982 92.4079C235.982 91.3933 236.386 90.4202 237.103 89.7027C237.82 88.9853 238.794 88.5822 239.808 88.5822C240.179 88.584 240.547 88.6389 240.902 88.7453C240.847 88.3558 240.82 87.963 240.821 87.5697C240.821 85.4262 241.67 83.37 243.183 81.8518C244.697 80.3335 246.75 79.477 248.893 79.4698C249.393 79.4722 249.891 79.5199 250.382 79.6125C251.18 78.3007 252.383 77.2841 253.81 76.7157C255.236 76.1474 256.809 76.0582 258.29 76.4616C259.772 76.865 261.082 77.7391 262.024 78.9521C262.965 80.1651 263.487 81.6514 263.51 83.1868H263.632C265.362 83.1868 267.022 83.8741 268.245 85.0974C269.468 86.3208 270.156 87.9801 270.156 89.7102C270.156 91.4403 269.468 93.0996 268.245 94.323C267.022 95.5464 265.362 96.2337 263.632 96.2337H239.699C238.703 96.2088 237.755 95.7943 237.06 95.0792C236.366 94.364 235.979 93.4051 235.982 92.4079Z" fill="#F0F0F0"/>
<path d="M159.794 51.1332C159.796 50.512 160.043 49.9167 160.483 49.4775C160.922 49.0382 161.517 48.7906 162.138 48.7888C162.369 48.7872 162.598 48.8216 162.818 48.8908C162.783 48.6523 162.764 48.4116 162.764 48.1705C162.764 47.5185 162.892 46.8729 163.142 46.2706C163.391 45.6683 163.757 45.1212 164.219 44.6604C164.68 44.1997 165.228 43.8345 165.83 43.5856C166.433 43.3367 167.079 43.2091 167.731 43.2099C168.036 43.2095 168.341 43.2368 168.641 43.2915C169.132 42.4894 169.87 41.8682 170.744 41.5214C171.618 41.1746 172.581 41.1209 173.488 41.3684C174.395 41.6159 175.198 42.1512 175.775 42.8938C176.351 43.6364 176.672 44.5462 176.687 45.4864H176.755C177.294 45.4641 177.832 45.5511 178.336 45.7421C178.841 45.933 179.302 46.224 179.691 46.5975C180.08 46.9711 180.39 47.4194 180.602 47.9157C180.813 48.412 180.922 48.9459 180.922 49.4854C180.922 50.0248 180.813 50.5588 180.602 51.055C180.39 51.5513 180.08 51.9997 179.691 52.3732C179.302 52.7467 178.841 53.0377 178.336 53.2287C177.832 53.4196 177.294 53.5066 176.755 53.4844H162.077C161.464 53.4701 160.882 53.2157 160.455 52.7759C160.027 52.3362 159.79 51.7462 159.794 51.1332Z" fill="#F0F0F0"/>
<path d="M155.119 283.164C227.884 283.164 286.872 279.72 286.872 275.472C286.872 271.223 227.884 267.779 155.119 267.779C82.3536 267.779 23.3657 271.223 23.3657 275.472C23.3657 279.72 82.3536 283.164 155.119 283.164Z" fill="#F5F5F5"/>
<path d="M272.676 241.848C272.676 241.848 275.863 231.16 269.407 229.026C262.952 226.892 259.085 221.898 259.323 216.244C259.561 210.59 252.739 205.086 247.642 210.386C242.546 215.687 243.225 206.309 236.43 204.033C229.635 201.756 223.879 207.281 225.741 212.33C227.603 217.379 220.896 220.539 212.878 216.244C204.859 211.949 196.012 219.764 197.711 225.88C199.409 231.995 198.023 232.675 192.954 230.636C187.885 228.598 178.786 234.374 181.973 241.848C185.16 249.323 272.676 241.848 272.676 241.848Z" fill="#ED8D34"/>
<path opacity="0.3" d="M272.676 241.848C272.676 241.848 275.863 231.16 269.407 229.026C262.952 226.892 259.085 221.898 259.323 216.244C259.561 210.59 252.739 205.086 247.642 210.386C242.546 215.687 243.225 206.309 236.43 204.033C229.635 201.756 223.879 207.281 225.741 212.33C227.603 217.379 220.896 220.539 212.878 216.244C204.859 211.949 196.012 219.764 197.711 225.88C199.409 231.995 198.023 232.675 192.954 230.636C187.885 228.598 178.786 234.374 181.973 241.848C185.16 249.323 272.676 241.848 272.676 241.848Z" fill="white"/>
<path d="M101.885 242.868C105.282 239.47 102.224 233.694 98.8267 233.015C95.4291 232.335 92.0315 226.355 91.8548 222.55C91.6781 218.745 85.576 207.036 76.0626 214.267C66.5493 221.497 69.4441 215.333 62.5605 213.302C55.6769 211.27 51.3415 217.114 54.3586 221.497C54.3586 221.497 47.4478 219.764 44.6006 226.219C41.7534 232.675 44.6006 236.684 44.6006 236.684C44.6006 236.684 31.5945 236.297 32.7633 244.342C33.9321 252.388 101.885 242.868 101.885 242.868Z" fill="#ED8D34"/>
<path opacity="0.3" d="M101.885 242.868C105.282 239.47 102.224 233.694 98.8267 233.015C95.4291 232.335 92.0315 226.355 91.8548 222.55C91.6781 218.745 85.576 207.036 76.0626 214.267C66.5493 221.497 69.4441 215.333 62.5605 213.302C55.6769 211.27 51.3415 217.114 54.3586 221.497C54.3586 221.497 47.4478 219.764 44.6006 226.219C41.7534 232.675 44.6006 236.684 44.6006 236.684C44.6006 236.684 31.5945 236.297 32.7633 244.342C33.9321 252.388 101.885 242.868 101.885 242.868Z" fill="white"/>
<path d="M284.337 243.072V252.381H22.0402V243.072C22.02 242.7 22.0751 242.328 22.2019 241.978C22.3288 241.627 22.5249 241.306 22.7786 241.034C23.0323 240.761 23.3384 240.542 23.6785 240.39C24.0186 240.238 24.3859 240.157 24.7583 240.15H281.592C281.966 240.153 282.337 240.232 282.68 240.382C283.023 240.533 283.333 240.751 283.589 241.024C283.846 241.297 284.044 241.619 284.173 241.971C284.301 242.323 284.357 242.698 284.337 243.072Z" fill="#263238"/>
<path d="M53.2984 240.15H36.9897V252.381H53.2984V240.15Z" fill="#ED8D34"/>
<path d="M83.8771 240.15H68.248V252.381H83.8771V240.15Z" fill="#ED8D34"/>
<path d="M115.135 240.15H98.8262V252.381H115.135V240.15Z" fill="#ED8D34"/>
<path d="M145.714 240.15H130.085V252.381H145.714V240.15Z" fill="#ED8D34"/>
<path d="M176.293 240.15H160.664V252.381H176.293V240.15Z" fill="#ED8D34"/>
<path d="M207.551 240.15H191.242V252.381H207.551V240.15Z" fill="#ED8D34"/>
<path d="M238.129 240.15H222.5V252.381H238.129V240.15Z" fill="#ED8D34"/>
<path d="M269.388 240.15H253.079V252.381H269.388V240.15Z" fill="#ED8D34"/>
<g opacity="0.6">
<path opacity="0.6" d="M53.2984 240.15H36.9897V252.381H53.2984V240.15Z" fill="white"/>
<path opacity="0.6" d="M83.8771 240.15H68.248V252.381H83.8771V240.15Z" fill="white"/>
<path opacity="0.6" d="M115.135 240.15H98.8267V252.381H115.135V240.15Z" fill="white"/>
<path opacity="0.6" d="M145.714 240.15H130.085V252.381H145.714V240.15Z" fill="white"/>
<path opacity="0.6" d="M176.292 240.15H160.663V252.381H176.292V240.15Z" fill="white"/>
<path opacity="0.6" d="M207.55 240.15H191.242V252.381H207.55V240.15Z" fill="white"/>
<path opacity="0.6" d="M238.13 240.15H222.5V252.381H238.13V240.15Z" fill="white"/>
<path opacity="0.6" d="M269.388 240.15H253.079V252.381H269.388V240.15Z" fill="white"/>
</g>
<path opacity="0.1" d="M284.337 243.072V252.381H22.0402V243.072C22.02 242.7 22.0751 242.328 22.2019 241.978C22.3288 241.627 22.5249 241.306 22.7786 241.034C23.0323 240.761 23.3384 240.542 23.6785 240.39C24.0186 240.238 24.3859 240.157 24.7583 240.15H281.592C281.966 240.153 282.337 240.232 282.68 240.382C283.023 240.533 283.333 240.751 283.589 241.024C283.846 241.297 284.044 241.619 284.173 241.971C284.301 242.323 284.357 242.698 284.337 243.072Z" fill="white"/>
<path d="M120.047 236.99V95.615L167.363 89.9137L188.156 93.8754L194.951 95.1665L209.541 97.9457L219.265 96.0295L226.06 94.6908L258.066 88.3916V229.767L226.06 236.073L219.265 237.412L209.541 239.328L167.363 231.296L164.617 231.629L156.429 232.614L120.047 236.99Z" fill="#ED8D34"/>
<path opacity="0.2" d="M120.047 236.99V95.615L167.363 89.9137L188.156 93.8754L194.951 95.1665L209.541 97.9457L219.265 96.0295L226.06 94.6908L258.066 88.3916V229.767L226.06 236.073L219.265 237.412L209.541 239.328L167.363 231.296L164.617 231.629L156.429 232.614L120.047 236.99Z" fill="black"/>
<path d="M219.265 167.577V157.071C219.265 156.824 219.211 156.58 219.106 156.357C219.001 156.134 218.848 155.936 218.658 155.779C218.467 155.622 218.245 155.509 218.005 155.448C217.766 155.387 217.516 155.38 217.274 155.427L120.047 174.121V167.196L158.624 159.789C158.851 159.745 159.066 159.655 159.257 159.523C159.447 159.392 159.608 159.223 159.73 159.026C159.852 158.83 159.932 158.61 159.965 158.382C159.998 158.153 159.983 157.919 159.922 157.697L152.508 130.726C152.398 130.32 152.137 129.97 151.779 129.748C151.421 129.526 150.992 129.448 150.578 129.53L120.047 135.415V128.484L155.464 121.654C155.878 121.576 156.306 121.656 156.664 121.879C157.021 122.102 157.282 122.451 157.394 122.857L166.67 156.657C166.782 157.063 167.042 157.412 167.4 157.635C167.757 157.858 168.186 157.938 168.599 157.86L186.797 154.353C187.18 154.28 187.525 154.076 187.773 153.776C188.021 153.476 188.157 153.098 188.156 152.709V113.011C188.157 112.621 188.021 112.244 187.773 111.944C187.525 111.643 187.18 111.439 186.797 111.366L164.903 107.33C164.716 107.3 164.526 107.3 164.339 107.33L120.047 114.261V107.412L164.414 100.433C164.6 100.399 164.791 100.399 164.978 100.433L186.179 104.333C186.42 104.378 186.668 104.369 186.906 104.308C187.144 104.246 187.365 104.132 187.553 103.975C187.742 103.818 187.894 103.622 187.998 103.399C188.102 103.177 188.156 102.934 188.156 102.689V93.8755L194.951 95.1666V150.759C194.952 151.006 195.007 151.25 195.113 151.474C195.219 151.698 195.372 151.895 195.563 152.053C195.754 152.21 195.977 152.324 196.216 152.386C196.456 152.447 196.706 152.456 196.949 152.41L217.906 148.373C218.289 148.302 218.635 148.098 218.883 147.797C219.132 147.497 219.267 147.119 219.265 146.729V96.0296L226.06 94.6705V144.758C226.061 145.006 226.116 145.25 226.221 145.473C226.327 145.696 226.481 145.894 226.672 146.051C226.863 146.208 227.086 146.321 227.326 146.382C227.565 146.443 227.815 146.45 228.058 146.403L242.185 143.685C242.568 143.612 242.913 143.408 243.161 143.107C243.409 142.807 243.545 142.43 243.544 142.04V107.384C243.544 106.996 243.68 106.619 243.928 106.32C244.176 106.021 244.521 105.818 244.903 105.747L258.086 103.029V109.967L251.699 111.285C251.317 111.359 250.972 111.563 250.724 111.863C250.476 112.163 250.34 112.54 250.34 112.929V140.11C250.339 140.357 250.393 140.601 250.498 140.825C250.603 141.048 250.756 141.246 250.947 141.403C251.137 141.56 251.36 141.673 251.599 141.734C251.838 141.795 252.088 141.802 252.331 141.755L258.066 140.654V147.558L227.419 153.449C227.037 153.525 226.692 153.731 226.444 154.032C226.196 154.333 226.061 154.711 226.06 155.101V202.504C226.061 202.748 226.114 202.989 226.217 203.21C226.32 203.43 226.47 203.626 226.656 203.783C226.842 203.94 227.061 204.055 227.296 204.119C227.531 204.184 227.777 204.196 228.017 204.156L258.066 199.202V206.065L227.487 211.148C227.093 211.209 226.734 211.408 226.472 211.709C226.211 212.01 226.065 212.394 226.06 212.792V236.059L219.265 237.418V177.872C219.265 177.628 219.213 177.386 219.11 177.165C219.008 176.944 218.858 176.747 218.671 176.59C218.485 176.432 218.266 176.318 218.03 176.254C217.795 176.19 217.548 176.179 217.308 176.22L192.104 180.563C191.85 180.607 191.609 180.709 191.401 180.861C191.192 181.013 191.021 181.211 190.901 181.439L164.631 231.629L156.443 232.614L166.486 213.431C166.629 213.156 166.692 212.848 166.67 212.539C166.648 212.23 166.542 211.934 166.362 211.682C166.182 211.43 165.935 211.233 165.65 211.113C165.365 210.992 165.053 210.952 164.747 210.998L120.061 217.794V210.931L171.093 203.164C171.354 203.123 171.602 203.023 171.817 202.869C172.032 202.716 172.208 202.514 172.33 202.28L186.457 175.31C186.576 175.082 186.746 174.886 186.953 174.735C187.161 174.584 187.4 174.483 187.653 174.44L217.892 169.228C218.278 169.157 218.626 168.952 218.877 168.651C219.128 168.349 219.265 167.969 219.265 167.577Z" fill="#ED8D34"/>
<path d="M209.528 235.896L168.029 227.959L167.513 227.857L166.983 227.925L164.264 228.258L156.11 229.243L123.445 233.178V98.6318L167.241 93.3587L187.518 97.2184L194.313 98.5095L208.903 101.289L209.582 101.411L210.228 101.289L219.952 99.3725L226.747 98.0135L254.669 92.5161V226.974L225.401 232.743L218.606 234.102L209.528 235.896ZM209.528 239.355L219.252 237.439L226.047 236.079L258.066 229.78V88.439L226.061 94.7382L219.265 96.0972L209.541 97.9523L194.952 95.1731L188.157 93.882L167.35 89.9135L120.034 95.6148V236.99L156.416 232.614L164.631 231.629L167.35 231.296L209.528 239.328V239.355Z" fill="#263238"/>
<path opacity="0.1" d="M209.528 235.896L168.029 227.959L167.513 227.857L166.983 227.925L164.264 228.258L156.11 229.243L123.445 233.178V98.6318L167.241 93.3587L187.518 97.2184L194.313 98.5095L208.903 101.289L209.582 101.411L210.228 101.289L219.952 99.3725L226.747 98.0135L254.669 92.5161V226.974L225.401 232.743L218.606 234.102L209.528 235.896ZM209.528 239.355L219.252 237.439L226.047 236.079L258.066 229.78V88.439L226.061 94.7382L219.265 96.0972L209.541 97.9523L194.952 95.1731L188.157 93.882L167.35 89.9135L120.034 95.6148V236.99L156.416 232.614L164.631 231.629L167.35 231.296L209.528 239.328V239.355Z" fill="white"/>
<path opacity="0.1" d="M209.541 239.328V97.9456L167.363 89.9136V231.296L209.541 239.328Z" fill="black"/>
<g opacity="0.5">
<path opacity="0.5" d="M241.024 146.98C241.204 146.964 241.383 147.02 241.522 147.136C241.661 147.252 241.748 147.418 241.764 147.599C241.78 147.779 241.724 147.958 241.608 148.097C241.493 148.236 241.326 148.323 241.146 148.339L223.342 151.533V171.851C223.345 172.013 223.289 172.17 223.186 172.295C223.082 172.419 222.938 172.503 222.778 172.53L189.482 178.272L173.071 209.395C173.031 209.476 172.975 209.548 172.906 209.607C172.838 209.666 172.758 209.711 172.672 209.739C172.586 209.767 172.495 209.778 172.404 209.77C172.314 209.762 172.226 209.737 172.146 209.694C172.066 209.652 171.995 209.595 171.937 209.525C171.88 209.455 171.837 209.374 171.811 209.287C171.785 209.2 171.777 209.109 171.787 209.019C171.797 208.929 171.824 208.842 171.868 208.763L188.455 177.308C188.504 177.216 188.572 177.136 188.656 177.075C188.739 177.014 188.836 176.972 188.938 176.954L221.983 171.246V150.956C221.981 150.795 222.035 150.638 222.137 150.514C222.239 150.389 222.382 150.305 222.54 150.276L240.888 146.98H241.024Z" fill="white"/>
<path opacity="0.5" d="M171.188 209.103C171.187 208.848 171.262 208.599 171.402 208.387C171.543 208.174 171.743 208.009 171.978 207.911C172.213 207.813 172.472 207.787 172.722 207.836C172.971 207.885 173.201 208.008 173.381 208.188C173.561 208.368 173.683 208.597 173.733 208.847C173.782 209.097 173.756 209.355 173.658 209.59C173.56 209.825 173.394 210.026 173.182 210.166C172.97 210.307 172.721 210.381 172.466 210.38C172.128 210.378 171.804 210.243 171.565 210.004C171.325 209.765 171.19 209.441 171.188 209.103Z" fill="white"/>
<path opacity="0.5" d="M239.746 147.66C239.744 147.405 239.819 147.156 239.959 146.944C240.1 146.731 240.3 146.566 240.535 146.468C240.77 146.37 241.029 146.344 241.279 146.393C241.529 146.442 241.758 146.565 241.938 146.745C242.118 146.925 242.241 147.154 242.29 147.404C242.339 147.654 242.313 147.913 242.215 148.148C242.117 148.383 241.951 148.583 241.739 148.724C241.527 148.864 241.278 148.939 241.023 148.937C240.684 148.937 240.359 148.803 240.12 148.563C239.88 148.323 239.746 147.999 239.746 147.66Z" fill="white"/>
</g>
<path d="M173.132 189.063C172.421 188.351 171.576 187.786 170.646 187.4C169.717 187.014 168.72 186.816 167.713 186.816C166.707 186.816 165.71 187.014 164.78 187.4C163.85 187.786 163.005 188.351 162.294 189.063C161.583 189.774 161.018 190.618 160.633 191.548C160.248 192.477 160.05 193.473 160.05 194.479C160.05 195.485 160.248 196.481 160.633 197.41C161.018 198.339 161.583 199.183 162.294 199.895L167.73 205.331L173.166 199.895C173.875 199.181 174.437 198.335 174.819 197.405C175.201 196.474 175.396 195.478 175.393 194.472C175.39 193.466 175.189 192.471 174.801 191.542C174.413 190.614 173.846 189.772 173.132 189.063ZM165.508 196.68C165.072 196.244 164.775 195.689 164.654 195.083C164.534 194.478 164.595 193.851 164.831 193.281C165.067 192.711 165.467 192.224 165.98 191.881C166.493 191.538 167.096 191.356 167.713 191.356C168.33 191.356 168.933 191.538 169.446 191.881C169.959 192.224 170.359 192.711 170.595 193.281C170.831 193.851 170.893 194.478 170.772 195.083C170.652 195.689 170.355 196.244 169.918 196.68C169.629 196.971 169.285 197.201 168.907 197.358C168.529 197.515 168.123 197.596 167.713 197.596C167.303 197.596 166.898 197.515 166.519 197.358C166.141 197.201 165.797 196.971 165.508 196.68Z" fill="white"/>
<path opacity="0.2" d="M173.132 189.063C172.415 188.344 171.562 187.776 170.623 187.391C169.684 187.006 168.677 186.812 167.662 186.821V191.367C168.083 191.347 168.503 191.413 168.897 191.56C169.291 191.708 169.652 191.933 169.956 192.224C170.261 192.515 170.503 192.864 170.669 193.251C170.834 193.638 170.92 194.054 170.92 194.475C170.92 194.896 170.834 195.313 170.669 195.7C170.503 196.087 170.261 196.436 169.956 196.727C169.652 197.018 169.291 197.243 168.897 197.391C168.503 197.538 168.083 197.604 167.662 197.584V205.263L167.71 205.31L173.146 199.874C174.574 198.437 175.375 196.492 175.373 194.466C175.37 192.439 174.564 190.497 173.132 189.063Z" fill="black"/>
<path d="M246.439 126.343C245.728 125.632 244.884 125.068 243.955 124.683C243.025 124.298 242.029 124.1 241.023 124.1C240.018 124.1 239.022 124.298 238.092 124.683C237.163 125.068 236.319 125.632 235.608 126.343C234.172 127.782 233.366 129.731 233.366 131.762C233.366 133.794 234.172 135.743 235.608 137.182L241.044 142.618L246.48 137.182C247.19 136.468 247.752 135.621 248.134 134.69C248.516 133.758 248.711 132.761 248.707 131.754C248.703 130.747 248.501 129.751 248.112 128.823C247.723 127.894 247.154 127.052 246.439 126.343ZM238.822 133.968C238.385 133.532 238.086 132.976 237.965 132.371C237.844 131.765 237.905 131.138 238.141 130.567C238.377 129.997 238.776 129.509 239.29 129.166C239.803 128.822 240.406 128.639 241.023 128.639C241.641 128.639 242.244 128.822 242.757 129.166C243.271 129.509 243.67 129.997 243.906 130.567C244.142 131.138 244.203 131.765 244.082 132.371C243.961 132.976 243.662 133.532 243.225 133.968C242.641 134.55 241.849 134.877 241.023 134.877C240.198 134.877 239.406 134.55 238.822 133.968Z" fill="white"/>
<path opacity="0.2" d="M246.439 126.343C245.725 125.63 244.877 125.066 243.944 124.682C243.011 124.298 242.012 124.103 241.003 124.107V128.654C241.423 128.634 241.844 128.7 242.238 128.847C242.632 128.994 242.992 129.22 243.297 129.511C243.601 129.801 243.844 130.151 244.01 130.538C244.175 130.925 244.261 131.341 244.261 131.762C244.261 132.183 244.175 132.6 244.01 132.987C243.844 133.374 243.601 133.723 243.297 134.014C242.992 134.304 242.632 134.53 242.238 134.678C241.844 134.825 241.423 134.891 241.003 134.871V142.55L241.05 142.597L246.487 137.161C247.913 135.719 248.709 133.77 248.7 131.742C248.691 129.714 247.878 127.773 246.439 126.343Z" fill="black"/>
<path d="M47.7744 261.032L51.539 264.83L60.6378 256.438L56.8733 252.633L47.7744 261.032Z" fill="#EEC1BB"/>
<path d="M52.5109 264.918L47.9445 260.311C47.8688 260.236 47.7701 260.188 47.6641 260.176C47.5581 260.164 47.451 260.187 47.3601 260.243L43.2422 262.839C43.0663 262.953 42.9426 263.132 42.898 263.337C42.8535 263.542 42.8917 263.756 43.0043 263.933C43.0368 263.981 43.0732 264.027 43.1131 264.069C44.6148 265.537 45.7836 266.529 47.6387 268.404C48.7803 269.56 52.11 273.161 53.6865 274.751C55.263 276.341 57.0433 274.996 56.5473 274.201C54.2845 270.64 52.9866 267.562 52.8982 265.795C52.8864 265.464 52.7477 265.15 52.5109 264.918Z" fill="#263238"/>
<path opacity="0.2" d="M56.8733 252.64L60.631 256.438L55.9355 260.767L52.1777 256.968L56.8733 252.64Z" fill="black"/>
<path d="M52.2324 265.7C52.2175 265.679 52.2095 265.654 52.2095 265.629C52.2095 265.603 52.2175 265.578 52.2324 265.557C52.2462 265.537 52.2664 265.522 52.2899 265.514C52.3133 265.507 52.3386 265.508 52.3616 265.516C52.5858 265.564 54.5496 266.047 54.7467 266.678C54.7728 266.747 54.7777 266.822 54.7607 266.894C54.7437 266.965 54.7057 267.03 54.6516 267.079C54.5748 267.184 54.4712 267.267 54.3517 267.318C54.2322 267.37 54.1011 267.388 53.972 267.372C53.6131 267.305 53.2887 267.115 53.0547 266.835C52.7388 266.489 52.4629 266.108 52.2324 265.7ZM52.613 265.836C52.9011 266.428 53.4042 266.887 54.0196 267.12C54.1038 267.127 54.1885 267.113 54.2657 267.078C54.3429 267.044 54.4102 266.99 54.4613 266.923C54.5292 266.848 54.536 266.78 54.5089 266.76C54.493 266.705 54.4624 266.656 54.4205 266.617C53.8737 266.243 53.26 265.978 52.613 265.836Z" fill="#ED8D34"/>
<path d="M52.1846 265.693C52.1814 265.671 52.1833 265.648 52.1904 265.627C52.1975 265.606 52.2095 265.586 52.2254 265.571C52.2798 265.523 53.4622 264.531 54.264 264.619C54.3608 264.626 54.4552 264.652 54.5407 264.698C54.6263 264.744 54.7011 264.807 54.76 264.884C54.8261 264.953 54.8667 265.043 54.8754 265.138C54.884 265.233 54.8601 265.328 54.8076 265.408C54.4814 265.883 52.8981 265.951 52.3002 265.775L52.2526 265.727C52.2395 265.726 52.2268 265.723 52.2151 265.717C52.2034 265.711 52.193 265.703 52.1846 265.693ZM54.264 264.844C53.6581 264.911 53.0881 265.165 52.6331 265.571C53.3127 265.666 54.4271 265.523 54.6241 265.231C54.6241 265.231 54.6989 265.129 54.5834 265.013L54.5426 264.966C54.4682 264.892 54.3689 264.848 54.264 264.844Z" fill="#ED8D34"/>
<path d="M109.34 125.276C109.34 125.276 117.827 138.867 119.437 140.572C121.048 142.278 131.669 124.502 132.498 122.13C133.327 119.758 143.948 119.691 144.675 119.996C145.402 120.302 144.913 125.433 142.874 126.486C140.836 127.539 133.83 127.267 133.83 127.267C133.83 127.267 127.66 147.143 120.402 148.156C113.145 149.168 105.235 131.202 105.235 131.202L109.34 125.276Z" fill="#EEC1BB"/>
<path d="M103.115 118.522C108.443 119.473 115.428 133.859 115.428 133.859L109.272 141.918L101.613 134.647L103.115 118.522Z" fill="#ED8D34"/>
<path opacity="0.4" d="M115.428 133.859L109.272 141.918L109.068 141.721L101.593 134.661L101.688 133.628L103.095 118.522C108.443 119.473 115.428 133.859 115.428 133.859Z" fill="white"/>
<path opacity="0.2" d="M109.068 141.721L101.593 134.661L101.688 133.628L104.277 128.389C104.277 128.389 109.034 132.996 109.068 141.721Z" fill="black"/>
<path d="M101.613 165.552C101.613 165.552 89.0083 212.622 80.3715 231.14C71.7348 249.657 59.5713 259.367 59.5713 259.367L53.938 252.422C53.938 252.422 69.7709 229.903 73.2025 216.007C76.6341 202.11 77.7825 173.38 77.7825 173.38L101.613 165.552Z" fill="#263238"/>
<path opacity="0.2" d="M101.613 165.552C101.613 165.552 89.0083 212.622 80.3715 231.14C71.7348 249.657 59.5713 259.367 59.5713 259.367L53.938 252.422C53.938 252.422 69.7709 229.903 73.2025 216.007C76.6341 202.11 77.7825 173.38 77.7825 173.38L101.613 165.552Z" fill="black"/>
<path d="M105.33 271.482L110.399 269.79L106.9 257.912L101.824 259.604L105.33 271.482Z" fill="#EEC1BB"/>
<path d="M110.903 268.968L104.746 271.007C104.646 271.043 104.561 271.111 104.504 271.201C104.448 271.291 104.423 271.397 104.434 271.503L104.943 276.348C104.97 276.552 105.077 276.738 105.239 276.865C105.402 276.992 105.608 277.05 105.813 277.027C105.871 277.02 105.928 277.007 105.983 276.987C107.96 276.307 109.381 275.682 111.874 274.846C113.417 274.336 118.112 272.943 120.239 272.237C122.366 271.53 121.945 269.328 121.014 269.43C116.821 269.879 113.485 269.682 111.861 268.975C111.554 268.851 111.211 268.848 110.903 268.968Z" fill="#263238"/>
<path opacity="0.2" d="M101.831 259.611L106.9 257.919L108.701 264.042L103.632 265.734L101.831 259.611Z" fill="black"/>
<path d="M111.487 269.553C111.461 269.557 111.435 269.551 111.413 269.537C111.391 269.524 111.374 269.503 111.365 269.479C111.349 269.459 111.341 269.435 111.341 269.411C111.341 269.386 111.349 269.362 111.365 269.343C111.501 269.166 112.805 267.617 113.464 267.719C113.537 267.728 113.606 267.758 113.663 267.805C113.719 267.852 113.761 267.914 113.784 267.984C113.838 268.1 113.862 268.228 113.855 268.356C113.848 268.484 113.809 268.608 113.743 268.718C113.524 269.007 113.212 269.211 112.86 269.295C112.413 269.43 111.952 269.517 111.487 269.553ZM111.779 269.268C112.435 269.276 113.07 269.033 113.553 268.588C113.593 268.514 113.613 268.431 113.613 268.347C113.613 268.263 113.593 268.18 113.553 268.106C113.512 268.011 113.458 267.977 113.424 267.991C113.371 267.971 113.313 267.971 113.261 267.991C112.69 268.319 112.188 268.752 111.779 269.268Z" fill="#ED8D34"/>
<path d="M111.467 269.587C111.444 269.583 111.422 269.573 111.406 269.557C111.389 269.542 111.377 269.521 111.372 269.499C111.372 269.424 110.991 267.929 111.412 267.256C111.461 267.172 111.528 267.099 111.608 267.043C111.688 266.986 111.778 266.948 111.874 266.93C111.965 266.899 112.064 266.901 112.154 266.936C112.243 266.971 112.318 267.036 112.364 267.12C112.649 267.616 112.01 269.071 111.582 269.533H111.521C111.51 269.557 111.491 269.576 111.467 269.587ZM111.616 267.345C111.414 267.92 111.391 268.543 111.548 269.132C111.936 268.568 112.302 267.508 112.126 267.195C112.126 267.195 112.065 267.079 111.915 267.134H111.854C111.756 267.175 111.677 267.25 111.63 267.345H111.616Z" fill="#ED8D34"/>
<path d="M73.2092 162.459C71.2615 171.301 71.4502 180.479 73.7596 189.233C76.6884 199.752 101.702 263.41 101.702 263.41L110.4 260.909L92.0049 185.169C92.0049 185.169 98.8817 175.432 101.613 165.551L73.2092 162.459Z" fill="#263238"/>
<path d="M111.82 261.922L100.886 265.571L98.1611 261.82L111.072 258.3L111.82 261.922Z" fill="#ED8D34"/>
<path opacity="0.3" d="M111.82 261.922L100.886 265.571L98.1611 261.82L111.072 258.3L111.82 261.922Z" fill="white"/>
<path d="M59.2176 262.622L51.1108 254.433L53.2649 250.329L62.1327 260.345L59.2176 262.622Z" fill="#ED8D34"/>
<path opacity="0.3" d="M59.2176 262.622L51.1108 254.433L53.2649 250.329L62.1327 260.345L59.2176 262.622Z" fill="white"/>
<path d="M76.5593 116.075C77.0836 122.029 77.1631 128.014 76.7972 133.98C76.5661 138.146 76.1584 142.08 75.7099 145.648C74.6635 153.992 70.4028 169.472 70.4028 169.472L92.3583 175.248L94.3493 165.551L96.3879 175.248L100.757 172.564C107.552 151.003 107.729 129.251 106.873 122.999C106.737 121.97 106.308 121.001 105.639 120.208C104.969 119.414 104.086 118.829 103.095 118.521C102.096 118.209 100.934 117.842 99.6972 117.57C99.2147 117.482 98.7458 117.352 98.2566 117.257C94.2583 116.584 90.2241 116.143 86.1746 115.939C85.4135 115.891 84.6321 115.871 83.871 115.857C81.4317 115.803 78.9911 115.875 76.5593 116.075Z" fill="#ED8D34"/>
<path opacity="0.4" d="M100.757 172.564L96.4016 175.248L94.363 165.552L92.372 175.248L70.4165 169.473C70.4165 169.473 74.6771 153.993 75.7236 145.648C75.8323 144.799 75.9342 143.929 76.0362 143.039C76.3556 140.192 76.6342 137.154 76.8108 133.981C76.9196 132.241 76.9875 130.495 77.0147 128.755C77.0919 124.524 76.9445 120.291 76.573 116.075C79.0138 115.875 81.4635 115.802 83.9119 115.858C84.673 115.858 85.4544 115.892 86.2155 115.939C90.265 116.144 94.2991 116.584 98.2974 117.258C98.7867 117.353 99.2556 117.482 99.738 117.57C100.968 117.869 102.13 118.209 103.136 118.522C104.127 118.829 105.01 119.415 105.68 120.208C106.349 121.002 106.777 121.97 106.914 123C107.722 129.251 107.553 151.003 100.757 172.564Z" fill="white"/>
<path d="M88.879 102.43C89.2188 106.405 89.2052 113.608 86.2017 115.905C87.2632 117.282 88.6077 118.416 90.1445 119.229C91.6812 120.043 93.3745 120.517 95.1102 120.621C98.4603 120.913 98.8884 118.582 98.2836 117.223C94.057 115.715 94.519 112.514 95.6063 109.572L88.879 102.43Z" fill="#EEC1BB"/>
<path opacity="0.2" d="M91.6247 105.353L95.5999 109.566C95.3408 110.25 95.1385 110.955 94.9952 111.672C93.3643 111.258 91.2985 109.192 91.3053 107.439C91.2783 106.729 91.3867 106.021 91.6247 105.353Z" fill="black"/>
<path d="M89.049 96.5389C88.7908 101.832 88.3695 104.917 90.7546 107.894C94.3153 112.392 101.07 110.687 102.911 105.57C104.556 100.963 104.685 93.0733 99.7583 90.4232C98.6735 89.8291 97.4545 89.5229 96.2177 89.534C94.9809 89.545 93.7675 89.8729 92.6934 90.4862C91.6194 91.0996 90.7204 91.978 90.0824 93.0376C89.4444 94.0972 89.0886 95.3027 89.049 96.5389Z" fill="#EEC1BB"/>
<path d="M96.8703 98.8767C96.7956 99.298 97.013 99.6785 97.2984 99.7057C97.5838 99.7329 97.842 99.4135 97.8896 98.9854C97.9372 98.5573 97.7469 98.1836 97.4683 98.1564C97.1897 98.1292 96.9247 98.4486 96.8703 98.8767Z" fill="#263238"/>
<path d="M101.715 99.4066C101.64 99.8279 101.865 100.202 102.137 100.236C102.408 100.27 102.68 99.9366 102.735 99.5085C102.789 99.0804 102.585 98.7135 102.306 98.6795C102.028 98.6455 101.763 98.9989 101.715 99.4066Z" fill="#263238"/>
<path d="M100.153 99.4473C100.521 100.813 101.077 102.121 101.804 103.334C101.487 103.512 101.135 103.619 100.772 103.648C100.409 103.676 100.045 103.624 99.7041 103.497L100.153 99.4473Z" fill="#D4827D"/>
<path d="M95.5387 97.1507C95.5845 97.161 95.6323 97.1595 95.6774 97.1465C95.7225 97.1334 95.7637 97.1091 95.7969 97.0759C96.0075 96.8381 96.2708 96.6528 96.5658 96.5348C96.8607 96.4169 97.1792 96.3694 97.4957 96.3964C97.5283 96.4022 97.5617 96.4016 97.5941 96.3945C97.6264 96.3875 97.657 96.3741 97.6842 96.3551C97.7113 96.3362 97.7344 96.3121 97.7522 96.2842C97.7701 96.2563 97.7822 96.2251 97.7879 96.1925C97.7948 96.1599 97.7948 96.1261 97.7882 96.0934C97.7815 96.0607 97.7682 96.0297 97.7491 96.0024C97.73 95.975 97.7055 95.9518 97.6771 95.9343C97.6488 95.9167 97.6171 95.9052 97.5841 95.9003C97.1859 95.8536 96.7824 95.9033 96.4075 96.0453C96.0326 96.1872 95.6974 96.4171 95.43 96.7157C95.3835 96.7628 95.3574 96.8263 95.3574 96.8924C95.3574 96.9586 95.3835 97.022 95.43 97.0691L95.5387 97.1507Z" fill="#263238"/>
<path d="M97.4886 105.23C96.8769 105.109 96.3036 104.841 95.8174 104.451C95.3312 104.061 94.9464 103.559 94.6957 102.988C94.6864 102.954 94.6895 102.919 94.7045 102.887C94.7195 102.856 94.7454 102.831 94.7773 102.818C94.7929 102.811 94.8097 102.807 94.8267 102.807C94.8437 102.807 94.8605 102.81 94.8763 102.816C94.8921 102.823 94.9065 102.832 94.9187 102.844C94.9308 102.856 94.9405 102.87 94.9472 102.886C95.1943 103.403 95.5578 103.857 96.0093 104.21C96.4609 104.564 96.9881 104.808 97.5497 104.924C97.5668 104.927 97.5832 104.933 97.5979 104.941C97.6127 104.95 97.6255 104.962 97.6356 104.976C97.6458 104.99 97.653 105.006 97.6569 105.023C97.6608 105.039 97.6614 105.057 97.6585 105.074C97.656 105.091 97.6501 105.107 97.6412 105.122C97.6323 105.137 97.6206 105.149 97.6066 105.16C97.5927 105.17 97.5769 105.177 97.5601 105.181C97.5433 105.185 97.526 105.185 97.509 105.182L97.4886 105.23Z" fill="#263238"/>
<path d="M103.979 97.9521C104.027 97.9692 104.08 97.9692 104.128 97.9521C104.19 97.929 104.241 97.883 104.27 97.8236C104.299 97.7641 104.304 97.6958 104.284 97.6327C104.157 97.2512 103.94 96.9058 103.651 96.6256C103.363 96.3454 103.011 96.1385 102.626 96.0222C102.562 96.0098 102.495 96.0226 102.439 96.0579C102.384 96.0933 102.344 96.1486 102.327 96.2125C102.314 96.2771 102.326 96.3443 102.36 96.4008C102.394 96.4574 102.448 96.4992 102.511 96.5183C102.813 96.6174 103.088 96.7857 103.313 97.0099C103.538 97.2341 103.708 97.5079 103.809 97.8094C103.823 97.8452 103.846 97.8769 103.876 97.9017C103.906 97.9266 103.941 97.9439 103.979 97.9521Z" fill="#263238"/>
<path d="M89.9459 101.017C89.9459 101.017 93.296 96.6883 92.4398 92.6995C94.267 92.4612 96.1187 92.8933 97.6517 93.9158C97.6868 93.2996 97.648 92.6813 97.5362 92.0743C97.5362 92.0743 102.293 92.4073 104.61 95.4244C104.582 93.6649 103.978 91.9631 102.891 90.5793C103.593 90.454 104.316 90.5391 104.97 90.824C104.97 90.824 101.172 86.8216 94.2201 87.8748C87.2686 88.9281 84.632 92.7063 85.3863 98.8764C86.1406 105.046 89.1441 106.786 89.1441 106.786C89.1441 106.786 88.417 102.07 88.8519 101.092C89.2868 100.113 89.9459 101.017 89.9459 101.017Z" fill="#263238"/>
<path d="M86.0458 102.084C86.6317 103.281 87.6676 104.197 88.9269 104.632C90.5986 105.196 91.5295 103.715 91.149 102.091C90.7888 100.643 89.5045 98.5641 87.7514 98.6932C85.9982 98.8223 85.3458 100.603 86.0458 102.084Z" fill="#EEC1BB"/>
<path d="M99.765 87.9837C98.1191 88.2534 96.5002 88.6672 94.9268 89.2204C93.801 89.6164 92.71 90.105 91.6651 90.6814C86.5482 93.5015 85.2435 97.1437 85.2435 97.1437C85.2435 97.1437 85.0805 96.6816 84.863 95.9613C84.6456 95.241 84.3534 94.3033 84.0884 93.3248C83.5787 91.4901 83.1574 89.5738 83.4088 89.0234C85.5901 84.1104 92.5077 82.731 93.4386 83.0028C94.0026 83.1727 96.1567 84.9258 97.808 86.3053C98.6438 86.9848 99.3437 87.5964 99.6359 87.8546L99.765 87.9837Z" fill="#ED8D34"/>
<path opacity="0.6" d="M99.6161 87.8544C98.0038 88.1154 96.4293 88.5718 94.9273 89.2135C93.976 89.594 92.8888 90.0765 91.6656 90.6745C87.7855 92.5636 85.8353 94.4594 84.8704 95.9544C84.6461 95.2409 84.3607 94.2963 84.0957 93.3178C86.0052 91.4016 91.1152 86.9439 97.8085 86.2983C98.624 86.9915 99.3239 87.5962 99.6161 87.8544Z" fill="white"/>
<path d="M85.366 98.8764C85.366 98.8764 80.7044 102.145 80.4122 100.405C79.658 95.9408 92.0253 86.1353 104.094 86.3663C114.008 86.5498 103.346 89.5805 103.346 89.5805C99.3982 88.2146 85.0534 94.4527 85.366 98.8764Z" fill="#ED8D34"/>
<path opacity="0.3" d="M85.366 98.8764C85.366 98.8764 80.7044 102.145 80.4122 100.405C79.658 95.9408 92.0253 86.1353 104.094 86.3663C114.008 86.5498 103.346 89.5805 103.346 89.5805C99.3982 88.2146 85.0534 94.4527 85.366 98.8764Z" fill="black"/>
<path d="M86.8 113.29C86.8 113.29 89.1375 115.722 94.6893 118.338C94.6893 118.338 96.0075 117.326 96.1774 114.261L99.7245 117.598L98.9363 123.19L96.5783 120.588L95.3552 136.842C95.3552 136.842 96.1231 125.969 93.4525 121.111L91.6654 123.87C91.6654 123.87 85.2099 121.634 83.3208 115.865L86.8 113.29Z" fill="#ED8D34"/>
<path opacity="0.6" d="M99.7245 117.571L98.9363 123.163L96.5783 120.56L95.3552 136.815C95.3552 136.815 96.1231 125.942 93.4525 121.084L91.6654 123.843C91.6654 123.843 85.2099 121.607 83.3208 115.838L86.8 113.29C86.8 113.29 89.1375 115.722 94.6893 118.338C94.8388 118.216 96.0075 117.149 96.1638 114.261L99.7245 117.571Z" fill="white"/>
<path opacity="0.2" d="M95.5995 126.798C95.4025 122.721 94.689 118.338 94.689 118.338C94.8385 118.216 96.0072 117.149 96.1635 114.261C96.3679 114.842 96.4381 115.462 96.3686 116.074C96.2992 116.686 96.092 117.274 95.7626 117.794L95.5995 126.798Z" fill="black"/>
<path d="M66.101 173.549C66.6864 174.623 66.9947 175.826 66.998 177.049C67.0863 179.285 66.6311 183.667 66.101 184.218C65.7884 184.537 60.5629 183.07 60.0533 181.772C59.8222 181.18 60.7328 175.167 61.7996 173.549C62.8665 171.932 66.101 173.549 66.101 173.549Z" fill="#EEC1BB"/>
<path opacity="0.2" d="M83.1507 130.291C83.1507 130.291 80.6908 139.804 76.0225 143.039C76.3418 140.192 76.6204 137.154 76.7971 133.981C76.9058 132.241 76.9738 130.495 77.001 128.755L83.1507 130.291Z" fill="black"/>
<path d="M70.4025 128.389C70.4025 128.389 64.0897 139.499 62.9278 143.263C61.7658 147.028 61.7862 173.55 61.7862 173.55H66.1011C66.1011 173.55 68.8192 147.205 70.4025 143.8C71.9858 140.396 77.7822 132.547 77.7822 132.547L70.4025 128.389Z" fill="#EEC1BB"/>
<path d="M77.6531 116.007C74.7651 115.545 67.0117 132.479 67.0117 132.479L75.166 137.596C75.166 137.596 80.4935 132.635 83.1369 130.291C85.7802 127.947 82.3418 116.762 77.6531 116.007Z" fill="#ED8D34"/>
<path opacity="0.4" d="M77.6531 116.007C74.7651 115.545 67.0117 132.479 67.0117 132.479L75.166 137.596C75.166 137.596 80.4935 132.635 83.1369 130.291C85.7802 127.947 82.3418 116.762 77.6531 116.007Z" fill="white"/>
<path d="M66.9982 131.303L76.5523 137.596L74.4322 139.498L65.9653 133.987L66.9982 131.303Z" fill="#ED8D34"/>
<path opacity="0.6" d="M66.9982 131.303L76.5523 137.596L74.4322 139.498L65.9653 133.987L66.9982 131.303Z" fill="white"/>
<path d="M107.668 141.34L114.966 132.533L116.631 134.844L110.23 142.658L107.668 141.34Z" fill="#ED8D34"/>
<path opacity="0.6" d="M107.668 141.34L114.966 132.533L116.631 134.844L110.23 142.658L107.668 141.34Z" fill="white"/>
<path d="M135.603 120.478L142.806 110.489C142.854 110.425 142.918 110.375 142.993 110.345C143.067 110.315 143.148 110.306 143.227 110.319L147.93 111.148C148.002 111.161 148.07 111.191 148.128 111.237C148.185 111.283 148.229 111.343 148.257 111.412C148.284 111.48 148.293 111.554 148.284 111.627C148.274 111.7 148.246 111.769 148.201 111.828L140.849 121.831C140.802 121.895 140.737 121.945 140.662 121.973C140.587 122.002 140.506 122.009 140.428 121.994L135.888 121.144C135.817 121.133 135.75 121.104 135.692 121.059C135.635 121.015 135.59 120.957 135.562 120.89C135.533 120.824 135.522 120.751 135.529 120.679C135.537 120.607 135.562 120.538 135.603 120.478Z" fill="#263238"/>
<path d="M135.087 120.194L142.29 110.204C142.336 110.139 142.401 110.088 142.476 110.058C142.55 110.028 142.632 110.02 142.711 110.035L147.413 110.857C147.486 110.869 147.554 110.9 147.611 110.946C147.669 110.992 147.713 111.052 147.741 111.12C147.768 111.188 147.777 111.263 147.767 111.335C147.758 111.408 147.729 111.478 147.685 111.536L140.319 121.553C140.271 121.616 140.206 121.665 140.132 121.694C140.057 121.723 139.976 121.73 139.898 121.716L135.359 120.866C135.287 120.854 135.22 120.823 135.164 120.777C135.108 120.732 135.064 120.672 135.037 120.605C135.009 120.538 135 120.465 135.009 120.393C135.017 120.321 135.044 120.252 135.087 120.194Z" fill="#263238"/>
<path d="M142.582 110.537L147.087 111.339L139.891 121.015L135.521 120.214L142.582 110.537Z" fill="white"/>
<path d="M161.677 72.6405C161.678 69.1263 160.667 65.6863 158.763 62.7323C156.86 59.7782 154.145 57.4354 150.945 55.9845C147.744 54.5335 144.193 54.0358 140.717 54.5511C137.241 55.0663 133.987 56.5727 131.345 58.8897C128.703 61.2067 126.785 64.2362 125.82 67.6153C124.856 70.9944 124.886 74.58 125.906 77.9426C126.927 81.3052 128.896 84.3022 131.576 86.5749C134.256 88.8475 137.535 90.2994 141.019 90.7566L141.902 100.358L143.588 90.9129C148.401 90.8628 153.001 88.9158 156.388 85.4946C159.775 82.0735 161.675 77.4545 161.677 72.6405Z" fill="#ED8D34"/>
<path opacity="0.8" d="M161.677 72.6405C161.678 69.1263 160.667 65.6863 158.763 62.7323C156.86 59.7782 154.145 57.4354 150.945 55.9845C147.744 54.5335 144.193 54.0358 140.717 54.5511C137.241 55.0663 133.987 56.5727 131.345 58.8897C128.703 61.2067 126.785 64.2362 125.82 67.6153C124.856 70.9944 124.886 74.58 125.906 77.9426C126.927 81.3052 128.896 84.3022 131.576 86.5749C134.256 88.8475 137.535 90.2994 141.019 90.7566L141.902 100.358L143.588 90.9129C148.401 90.8628 153.001 88.9158 156.388 85.4946C159.775 82.0735 161.675 77.4545 161.677 72.6405Z" fill="white"/>
<path d="M152.313 72.6404L134.482 65.186L137.404 72.6404L134.482 80.088L152.313 72.6404Z" fill="#ED8D34"/>
<path opacity="0.3" d="M137.404 72.6401H152.313L134.482 80.0877L137.404 72.6401Z" fill="black"/>
</g>
<defs>
<clipPath id="clip0_98_608">
<rect width="316" height="283" fill="white"/>
</clipPath>
</defs>
</svg>
