<svg width="243" height="223" viewBox="0 0 243 223" fill="none" xmlns="http://www.w3.org/2000/svg">
<path d="M121.115 217.454C182.06 217.454 231.465 188.224 231.465 152.168C231.465 116.112 182.06 86.8828 121.115 86.8828C60.1709 86.8828 10.7656 116.112 10.7656 152.168C10.7656 188.224 60.1709 217.454 121.115 217.454Z" fill="#F0F0F0"/>
<path d="M98.2811 201.639C119.297 201.639 136.334 191.56 136.334 179.128C136.334 166.696 119.297 156.617 98.2811 156.617C77.2652 156.617 60.2285 166.696 60.2285 179.128C60.2285 191.56 77.2652 201.639 98.2811 201.639Z" fill="#E0E0E0"/>
<path d="M206.495 150.963L202.032 148.324C202.032 148.324 200.94 138.532 201.666 130.949C202.687 120.293 209.404 107.469 217.414 110.483C225.423 113.497 213.741 124.344 211.142 133.382C208.542 142.42 206.495 150.963 206.495 150.963Z" fill="#8937C7"/>
<path opacity="0.15" d="M206.495 150.963L202.032 148.324C202.032 148.324 200.94 138.532 201.666 130.949C202.687 120.293 209.404 107.469 217.414 110.483C225.423 113.497 213.741 124.344 211.142 133.382C208.542 142.42 206.495 150.963 206.495 150.963Z" fill="black"/>
<path d="M204.148 149.855C204.22 149.851 204.287 149.819 204.335 149.765C204.383 149.711 204.409 149.64 204.406 149.567C203.624 125.89 215.128 113.977 215.24 113.862C215.291 113.81 215.32 113.739 215.32 113.665C215.32 113.591 215.291 113.52 215.24 113.468C215.215 113.443 215.186 113.422 215.153 113.408C215.121 113.394 215.086 113.387 215.05 113.387C215.015 113.387 214.98 113.394 214.948 113.408C214.915 113.422 214.886 113.443 214.861 113.468C214.739 113.583 203.071 125.669 203.863 149.586C203.864 149.623 203.872 149.659 203.887 149.693C203.902 149.727 203.924 149.757 203.951 149.782C203.977 149.807 204.008 149.826 204.042 149.839C204.076 149.851 204.112 149.857 204.148 149.855Z" fill="white"/>
<path d="M209.301 152.61L206.125 150.733C206.125 150.733 205.582 144.013 208.8 135.854C211.61 128.75 218.543 122.851 222.037 124.09C225.531 125.328 225.442 127.867 223.737 130.531C222.032 133.195 211.676 139.535 209.301 152.61Z" fill="#8937C7"/>
<path d="M207.624 151.899C207.696 151.898 207.764 151.868 207.815 151.816C207.866 151.765 207.895 151.694 207.896 151.621C207.831 136.646 221.55 126.528 221.69 126.427C221.72 126.407 221.745 126.38 221.764 126.35C221.783 126.319 221.795 126.285 221.801 126.249C221.807 126.213 221.805 126.176 221.797 126.141C221.788 126.106 221.773 126.072 221.751 126.043C221.71 125.984 221.647 125.944 221.577 125.931C221.507 125.919 221.435 125.935 221.377 125.976C221.236 126.077 207.292 136.368 207.353 151.621C207.353 151.695 207.381 151.766 207.432 151.818C207.483 151.87 207.552 151.899 207.624 151.899Z" fill="white"/>
<path d="M41.328 145.084L45.4499 142.233C45.4499 142.233 47.2626 131.193 45.5764 121.455C43.2063 107.795 33.9929 103.254 30.7141 104.694C27.4354 106.134 26.7328 110.199 32.8547 117.994C36.4848 122.578 41.2015 132.364 41.328 145.084Z" fill="#8937C7"/>
<g opacity="0.15">
<path opacity="0.15" d="M41.328 145.084L45.4499 142.233C45.4499 142.233 47.2626 131.193 45.5764 121.455C43.2063 107.795 33.9929 103.254 30.7141 104.694C27.4354 106.134 26.7328 110.199 32.8547 117.994C36.4848 122.578 41.2015 132.364 41.328 145.084Z" fill="black"/>
</g>
<path d="M42.7428 139.612H42.7007C42.6586 139.609 42.6175 139.597 42.5802 139.577C42.5428 139.557 42.51 139.529 42.4839 139.495C42.4578 139.461 42.439 139.422 42.4288 139.38C42.4185 139.338 42.417 139.295 42.4243 139.252C43.9138 126.394 38.6163 112.436 32.8503 106.883C32.7948 106.825 32.7637 106.748 32.7637 106.667C32.7637 106.586 32.7948 106.508 32.8503 106.451C32.8778 106.422 32.9106 106.399 32.9467 106.384C32.9829 106.368 33.0218 106.36 33.0611 106.36C33.1003 106.36 33.1392 106.368 33.1754 106.384C33.2116 106.399 33.2444 106.422 33.2718 106.451C39.1455 112.105 44.5415 126.293 43.0332 139.338C43.0244 139.412 42.9903 139.48 42.9371 139.53C42.8839 139.58 42.8151 139.609 42.7428 139.612Z" fill="white"/>
<path d="M30.5365 152.542C29.8807 152.946 27.9697 151.491 27.4404 151.141C26.5333 150.534 25.7944 149.697 25.2951 148.712C24.735 147.595 24.5272 146.327 24.7002 145.084C24.7962 144.435 24.9355 143.793 25.1171 143.164C25.2811 142.535 25.445 141.906 25.5855 141.273C25.7932 140.656 25.873 140.002 25.8197 139.353C25.637 138.071 24.5082 137.193 23.4777 136.439C22.3442 135.599 21.1357 134.491 21.1357 132.945C21.1935 131.731 21.6471 130.572 22.4238 129.653C23.1264 128.693 23.9695 127.858 24.6019 126.854C25.0963 126.159 25.3487 125.314 25.3185 124.455C25.2371 123.925 25.0523 123.417 24.7752 122.962C24.2225 121.964 23.5058 121.042 23.1171 119.981C22.7283 118.921 22.7564 117.557 23.5855 116.765C24.2459 116.117 25.253 116.012 26.1663 116.055C27.027 116.143 27.8584 116.423 28.602 116.876C31.0236 118.196 32.4475 121.076 35.0097 122.079C35.998 122.463 37.0753 122.53 38.1011 122.789C39.1269 123.048 40.1855 123.562 40.6773 124.517C41.6469 126.413 39.9559 128.803 40.6492 130.814C41.2675 132.6 42.9912 133.252 43.9654 134.851C44.3608 135.56 44.5249 136.381 44.4338 137.193C44.3789 138.564 44.0788 139.912 43.5485 141.172C42.9387 142.478 42.2504 143.745 41.4876 144.964C41.4876 144.964 30.6348 152.48 30.5365 152.542Z" fill="#8937C7"/>
<path d="M36.8698 148.564C36.8304 148.563 36.7915 148.554 36.7554 148.538C36.7193 148.522 36.6866 148.499 36.6591 148.47C36.6317 148.441 36.6102 148.407 36.5957 148.369C36.5812 148.332 36.574 148.292 36.5747 148.252C36.837 136.099 31.0007 122.813 26.8695 118.973C26.8108 118.919 26.7754 118.843 26.771 118.762C26.7666 118.681 26.7936 118.602 26.8461 118.541C26.8735 118.513 26.9063 118.49 26.9425 118.474C26.9787 118.459 27.0176 118.451 27.0568 118.451C27.0961 118.451 27.135 118.459 27.1712 118.474C27.2073 118.49 27.2401 118.513 27.2676 118.541C31.4832 122.429 37.4365 135.945 37.1695 148.266C37.1689 148.306 37.1607 148.345 37.1453 148.381C37.1299 148.418 37.1076 148.451 37.0798 148.478C37.052 148.506 37.0191 148.528 36.983 148.542C36.947 148.557 36.9085 148.564 36.8698 148.564Z" fill="white"/>
<path d="M34.6815 133.756C34.6538 133.764 34.6248 133.764 34.5971 133.756C30.7657 132.624 26.0161 132.509 25.9693 132.504C25.9301 132.503 25.8915 132.495 25.8556 132.478C25.8197 132.462 25.7873 132.439 25.7603 132.41C25.7332 132.381 25.7121 132.347 25.6981 132.309C25.6842 132.272 25.6776 132.232 25.6789 132.192C25.6781 132.151 25.6856 132.111 25.7008 132.074C25.7161 132.036 25.7387 132.002 25.7673 131.974C25.7959 131.946 25.8299 131.925 25.8671 131.911C25.9043 131.897 25.9439 131.892 25.9833 131.894C26.0302 131.894 30.8546 132.014 34.7611 133.166C34.8366 133.189 34.9 133.242 34.9377 133.313C34.9754 133.384 34.9843 133.468 34.9625 133.545C34.9443 133.607 34.907 133.661 34.8563 133.699C34.8057 133.737 34.7443 133.757 34.6815 133.756Z" fill="white"/>
<path d="M145.079 136.728L143.304 135.677C143.008 135.48 142.762 135.214 142.585 134.902C142.408 134.589 142.306 134.238 142.287 133.877V58.2721C142.306 57.9118 142.408 57.5613 142.584 57.2487C142.76 56.936 143.004 56.6701 143.299 56.4722L192.644 27.2805C192.959 27.1173 193.306 27.0322 193.659 27.0322C194.011 27.0322 194.358 27.1173 194.673 27.2805L196.448 28.3316C196.744 28.5284 196.99 28.794 197.167 29.1068C197.343 29.4195 197.445 29.7706 197.464 30.1315V105.736C197.445 106.096 197.343 106.447 197.168 106.76C196.992 107.072 196.747 107.338 196.453 107.536L147.107 136.733C146.793 136.896 146.445 136.981 146.092 136.98C145.74 136.979 145.392 136.893 145.079 136.728Z" fill="#455A64"/>
<path d="M197.464 29.9635C197.394 29.4259 196.968 29.2291 196.457 29.5315L147.107 58.7281C146.808 58.9199 146.562 59.1857 146.39 59.5008L142.582 57.2497C142.752 56.9322 142.999 56.6646 143.299 56.4722L192.644 27.2805C192.959 27.1173 193.306 27.0322 193.658 27.0322C194.011 27.0322 194.358 27.1173 194.672 27.2805L196.448 28.3316C196.722 28.5125 196.955 28.7519 197.13 29.0336C197.306 29.3153 197.42 29.6325 197.464 29.9635Z" fill="#455A64"/>
<path d="M146.934 136.814C146.634 136.939 146.312 136.996 145.988 136.982C145.665 136.968 145.349 136.883 145.06 136.733L143.28 135.677C142.986 135.479 142.741 135.213 142.565 134.9C142.39 134.588 142.288 134.237 142.269 133.877V58.2721C142.281 57.9112 142.382 57.5593 142.564 57.2498L146.372 59.5008C146.187 59.8108 146.083 60.1647 146.072 60.5279V136.133C146.091 136.728 146.456 137.001 146.934 136.814Z" fill="#263238"/>
<path d="M146.091 60.5377V136.133C146.091 136.795 146.559 137.064 147.107 136.733L196.453 107.536C196.747 107.338 196.992 107.072 197.168 106.76C197.344 106.447 197.445 106.097 197.465 105.736V30.1316C197.465 29.4693 196.996 29.2005 196.453 29.5317L147.107 58.7282C146.81 58.9259 146.563 59.1931 146.387 59.5076C146.21 59.8222 146.108 60.1752 146.091 60.5377Z" fill="#37474F"/>
<path d="M134.568 89.3356C133.931 88.9469 130.976 87.2238 130.821 87.1326C130.701 87.059 130.598 86.9585 130.52 86.8388C130.443 86.719 130.393 86.5829 130.373 86.4405C130.354 86.2982 130.366 86.1532 130.409 86.0163C130.451 85.8794 130.523 85.754 130.62 85.6495L142.287 72.8247L146.091 75.0614L134.428 87.8957C134.336 87.9957 134.266 88.1146 134.223 88.2444C134.18 88.3742 134.165 88.512 134.178 88.6484C134.192 88.7849 134.233 88.9168 134.301 89.0353C134.368 89.1539 134.459 89.2563 134.568 89.3356Z" fill="#455A64"/>
<path d="M146.091 75.0759L134.428 87.8959C134.298 88.0376 134.214 88.2162 134.185 88.4082C134.157 88.6002 134.186 88.7965 134.269 88.9711C134.351 89.1458 134.484 89.2907 134.649 89.3867C134.813 89.4826 135.003 89.5251 135.191 89.5086L146.091 88.5871V75.0759Z" fill="#37474F"/>
<path d="M171.778 51.9942C177.53 48.5912 182.19 51.3511 182.19 58.157C182.19 64.963 177.53 73.2329 171.778 76.6358C166.026 80.0388 161.365 77.279 161.365 70.4778C161.365 63.6767 166.026 55.3972 171.778 51.9942Z" fill="#8937C7"/>
<path d="M171.703 57.3505C173.577 56.2466 175.08 57.1393 175.08 59.3472C175.016 60.5473 174.677 61.7152 174.091 62.7559C173.504 63.7967 172.686 64.681 171.703 65.3372C169.83 66.4411 168.321 65.5484 168.321 63.3405C168.386 62.1399 168.725 60.9718 169.313 59.931C169.901 58.8902 170.719 58.0061 171.703 57.3505Z" fill="white"/>
<path d="M178.363 69.1195C178.363 65.4957 175.876 64.0222 172.813 65.8365L170.897 66.9692C167.834 68.7835 165.347 73.2088 165.347 76.823V77.8165C165.925 78.0059 166.529 78.1015 167.136 78.0997C168.779 78.0424 170.379 77.5461 171.778 76.6598C174.44 74.9792 176.693 72.6972 178.363 69.9882V69.1195Z" fill="white"/>
<path d="M165.182 110.325L178.372 102.52C178.935 102.189 179.389 102.458 179.389 103.12V107.474C179.37 107.835 179.268 108.186 179.091 108.498C178.914 108.811 178.668 109.077 178.372 109.274L165.182 117.078C164.62 117.409 164.166 117.14 164.166 116.478V112.125C164.185 111.764 164.287 111.413 164.464 111.1C164.64 110.787 164.887 110.522 165.182 110.325Z" fill="#8937C7"/>
<path d="M158.723 100.601L184.818 85.1553C185.487 84.7569 186.036 85.0785 186.036 85.8752V87.4927C186.013 87.9255 185.89 88.3467 185.679 88.722C185.467 89.0973 185.172 89.4161 184.818 89.6526L158.709 105.098C158.039 105.496 157.496 105.175 157.496 104.378V102.775C157.517 102.339 157.64 101.914 157.853 101.536C158.067 101.158 158.365 100.837 158.723 100.601Z" fill="#FAFAFA"/>
<path d="M161.778 89.4222C162.134 89.211 162.41 89.1774 162.607 89.3262C162.804 89.475 162.902 89.8062 162.902 90.315C162.912 90.7793 162.811 91.2391 162.607 91.6541C162.423 92.0292 162.134 92.3399 161.778 92.5468L161.075 92.9644V94.5147C161.074 94.5681 161.061 94.6205 161.038 94.6683C161.021 94.7117 160.992 94.7487 160.953 94.7739L160.597 94.9851C160.585 94.9944 160.57 94.9995 160.555 94.9995C160.54 94.9995 160.525 94.9944 160.513 94.9851C160.488 94.9526 160.476 94.9112 160.48 94.8699V90.3822C160.48 90.3291 160.491 90.2766 160.513 90.2286C160.531 90.1859 160.56 90.1493 160.597 90.123L161.778 89.4222ZM161.075 92.0957L161.754 91.6925C161.918 91.5976 162.057 91.4624 162.157 91.2989C162.264 91.1061 162.316 90.8867 162.307 90.6653C162.307 90.4062 162.256 90.2574 162.157 90.2142C162.088 90.1969 162.015 90.1961 161.945 90.2119C161.876 90.2277 161.81 90.2597 161.754 90.3054L161.075 90.7085V92.0957Z" fill="#FAFAFA"/>
<path d="M164.864 87.5934C164.911 87.5646 164.948 87.5646 164.972 87.5934C165.002 87.6364 165.023 87.6855 165.033 87.7374L166.115 91.4907C166.115 91.4907 166.115 91.5195 166.115 91.5339C166.114 91.5874 166.101 91.64 166.077 91.6875C166.061 91.7309 166.031 91.7679 165.993 91.7931L165.674 91.9803C165.618 92.0139 165.576 92.0187 165.553 91.9803C165.53 91.9562 165.514 91.9264 165.506 91.8939L165.314 91.2363L163.909 92.0619L163.721 92.945C163.708 92.9928 163.691 93.0394 163.67 93.0842C163.646 93.1427 163.603 93.1905 163.548 93.2186L163.229 93.4058C163.218 93.416 163.203 93.4215 163.187 93.4215C163.172 93.4215 163.157 93.416 163.145 93.4058C163.121 93.3748 163.109 93.3352 163.112 93.2954C163.11 93.2779 163.11 93.2601 163.112 93.2426L164.19 88.2125C164.203 88.1386 164.223 88.0662 164.25 87.9966C164.273 87.9461 164.311 87.9042 164.358 87.8766L164.864 87.5934ZM165.108 90.502L164.639 88.8077L164.171 91.0732L165.108 90.502Z" fill="#FAFAFA"/>
<path d="M167.754 85.8127C167.911 85.7114 168.09 85.6505 168.274 85.6352C168.405 85.6231 168.536 85.6533 168.649 85.7215C168.752 85.7899 168.832 85.8887 168.879 86.0047C168.93 86.1229 168.958 86.2499 168.963 86.3791C168.966 86.4324 168.955 86.4856 168.93 86.5327C168.914 86.5761 168.884 86.6131 168.846 86.6383L168.537 86.8207C168.485 86.8495 168.448 86.8543 168.424 86.8207C168.395 86.8011 168.371 86.7748 168.354 86.7439C168.335 86.7007 168.308 86.6618 168.274 86.6297C168.24 86.5975 168.201 86.5727 168.157 86.5567C168.015 86.5358 167.87 86.5738 167.754 86.6623C167.678 86.7125 167.606 86.7687 167.539 86.8303C167.469 86.8958 167.408 86.97 167.356 87.0511C167.306 87.1292 167.266 87.2129 167.234 87.3006C167.207 87.3841 167.193 87.4717 167.192 87.5598C167.187 87.6406 167.201 87.7215 167.234 87.795C167.249 87.8208 167.269 87.8426 167.294 87.8585C167.318 87.8744 167.346 87.8839 167.375 87.8862C167.462 87.9016 167.55 87.9016 167.637 87.8862L168.045 87.795C168.197 87.7489 168.355 87.7294 168.513 87.7374C168.626 87.7371 168.736 87.7741 168.827 87.843C168.913 87.9169 168.975 88.0156 169.005 88.1262C169.051 88.2817 169.071 88.4438 169.066 88.6062C169.066 88.8206 169.036 89.0339 168.977 89.2397C168.92 89.4514 168.836 89.6546 168.729 89.8445C168.615 90.0391 168.48 90.2195 168.326 90.382C168.168 90.5495 167.989 90.6933 167.792 90.8092C167.648 90.8992 167.489 90.9626 167.323 90.9964C167.189 91.023 167.049 91.0114 166.921 90.9628C166.804 90.9071 166.707 90.8146 166.644 90.6988C166.568 90.5507 166.526 90.3864 166.522 90.2189C166.522 90.1642 166.533 90.1102 166.555 90.0605C166.576 90.0196 166.607 89.9849 166.644 89.9597L166.953 89.7773C167 89.7485 167.038 89.7389 167.066 89.7533C167.094 89.7677 167.113 89.7917 167.131 89.8349C167.151 89.8843 167.176 89.931 167.206 89.9741C167.235 90.0159 167.276 90.0477 167.323 90.0653C167.385 90.0798 167.449 90.0798 167.511 90.0653C167.61 90.0412 167.705 90.0007 167.792 89.9453C167.883 89.8922 167.969 89.8312 168.049 89.7629C168.207 89.6352 168.332 89.4706 168.415 89.2829C168.452 89.1868 168.471 89.0841 168.471 88.9805C168.475 88.9429 168.472 88.9048 168.462 88.8685C168.451 88.8322 168.434 88.7985 168.41 88.7694C168.385 88.7465 168.355 88.7295 168.323 88.7195C168.29 88.7096 168.256 88.7069 168.223 88.7118C168.116 88.7162 168.011 88.734 167.909 88.7645C167.787 88.7933 167.647 88.8269 167.483 88.8557C167.357 88.8879 167.227 88.8977 167.099 88.8845C166.997 88.8778 166.901 88.8355 166.827 88.7645C166.746 88.6832 166.689 88.5801 166.663 88.467C166.625 88.3002 166.608 88.1293 166.611 87.9582C166.611 87.7469 166.641 87.5366 166.7 87.3342C166.756 87.126 166.838 86.9259 166.944 86.7391C167.045 86.5535 167.168 86.3811 167.309 86.2255C167.438 86.067 167.588 85.928 167.754 85.8127Z" fill="#FAFAFA"/>
<path d="M170.831 83.9985C170.987 83.894 171.166 83.8313 171.351 83.8161C171.482 83.8047 171.612 83.8348 171.726 83.9025C171.826 83.9726 171.904 84.071 171.951 84.1857C172.002 84.3038 172.03 84.4309 172.035 84.56C172.04 84.6135 172.029 84.6674 172.002 84.7136C171.986 84.757 171.956 84.794 171.918 84.8192L171.609 85.0016C171.562 85.0304 171.524 85.04 171.496 85.0016C171.466 84.9823 171.443 84.9537 171.431 84.92C171.388 84.8358 171.316 84.7708 171.229 84.7376C171.159 84.7271 171.088 84.731 171.02 84.7492C170.951 84.7673 170.887 84.7993 170.831 84.8432C170.753 84.8922 170.679 84.9484 170.611 85.0112C170.543 85.0769 170.483 85.1511 170.433 85.232C170.381 85.309 170.34 85.393 170.311 85.4816C170.282 85.5648 170.266 85.6523 170.264 85.7407C170.259 85.8215 170.273 85.9024 170.306 85.9759C170.321 86.0017 170.341 86.0235 170.366 86.0394C170.39 86.0553 170.418 86.0648 170.447 86.0671C170.534 86.0826 170.623 86.0826 170.709 86.0671L171.117 85.9759C171.269 85.9324 171.427 85.913 171.585 85.9183C171.698 85.9173 171.809 85.9544 171.899 86.0239C171.985 86.0989 172.048 86.197 172.082 86.3071C172.123 86.4635 172.142 86.6251 172.138 86.7871C172.138 87.0015 172.108 87.2148 172.049 87.4206C171.992 87.6323 171.908 87.8355 171.801 88.0254C171.688 88.2219 171.553 88.404 171.398 88.5678C171.24 88.7311 171.062 88.873 170.869 88.9901C170.724 89.0798 170.566 89.1431 170.4 89.1773C170.267 89.2035 170.129 89.1919 170.002 89.1437C169.883 89.0897 169.784 88.997 169.721 88.8798C169.644 88.7321 169.604 88.5672 169.604 88.3998C169.598 88.3463 169.61 88.2924 169.637 88.2462C169.653 88.2028 169.683 88.1658 169.721 88.1406L170.03 87.9582C170.077 87.9294 170.119 87.9198 170.143 87.9342C170.159 87.9418 170.173 87.9531 170.185 87.9672C170.196 87.9814 170.204 87.998 170.208 88.0158C170.229 88.0642 170.254 88.1108 170.283 88.155C170.314 88.1972 170.356 88.2289 170.405 88.2462C170.466 88.2608 170.531 88.2608 170.592 88.2462C170.692 88.2222 170.787 88.1816 170.873 88.1262C170.962 88.0719 171.046 88.0109 171.126 87.9438C171.208 87.878 171.281 87.8004 171.342 87.7134C171.402 87.6305 171.453 87.5402 171.492 87.4446C171.529 87.3485 171.548 87.2458 171.548 87.1423C171.552 87.1047 171.549 87.0665 171.539 87.0302C171.528 86.9939 171.51 86.9602 171.487 86.9311C171.462 86.9082 171.432 86.8912 171.399 86.8813C171.367 86.8713 171.333 86.8687 171.299 86.8735C171.195 86.88 171.091 86.8977 170.99 86.9263C170.869 86.9551 170.723 86.9887 170.564 87.0175C170.437 87.0496 170.306 87.0594 170.175 87.0463C170.074 87.0408 169.977 86.9982 169.904 86.9263C169.824 86.8445 169.769 86.7413 169.744 86.6287C169.703 86.4642 169.684 86.2946 169.688 86.1247C169.69 85.912 169.72 85.7004 169.777 85.496C169.835 85.2884 169.917 85.0886 170.021 84.9008C170.122 84.7141 170.246 84.5415 170.391 84.3872C170.517 84.235 170.665 84.1038 170.831 83.9985Z" fill="#FAFAFA"/>
<path d="M174.246 84.5984L173.867 86.8975C173.856 86.9666 173.837 87.0343 173.811 87.0991C173.792 87.1508 173.758 87.1948 173.712 87.2239L173.356 87.4351C173.309 87.4638 173.277 87.4638 173.253 87.4351C173.222 87.3956 173.204 87.3468 173.202 87.2959L172.64 83.2401C172.64 83.2401 172.64 83.2017 172.64 83.1873C172.641 83.1339 172.654 83.0815 172.677 83.0337C172.695 82.9911 172.724 82.9544 172.761 82.9281L173.085 82.7362C173.112 82.7249 173.142 82.7249 173.169 82.7362C173.197 82.7362 173.216 82.7746 173.225 82.8514L173.595 85.5824L173.918 83.5329C173.927 83.4818 173.941 83.4319 173.961 83.3841C173.979 83.3234 174.019 83.272 174.073 83.2401L174.434 83.0241C174.485 82.9953 174.523 83.0001 174.546 83.0241C174.566 83.0547 174.581 83.0889 174.588 83.1249L174.916 84.7904L175.286 81.6226C175.291 81.5603 175.308 81.4997 175.338 81.445C175.36 81.4092 175.388 81.3782 175.422 81.3538L175.745 81.1619C175.757 81.1525 175.772 81.1475 175.787 81.1475C175.802 81.1475 175.817 81.1525 175.829 81.1619C175.843 81.1776 175.853 81.1959 175.859 81.2156C175.866 81.2354 175.868 81.2563 175.867 81.2771C175.869 81.2962 175.869 81.3155 175.867 81.3346L175.305 86.0527C175.295 86.1218 175.278 86.1894 175.253 86.2543C175.232 86.3056 175.196 86.349 175.15 86.3791L174.79 86.5903C174.747 86.6143 174.715 86.6143 174.691 86.5903C174.668 86.5462 174.649 86.4995 174.635 86.4511L174.246 84.5984Z" fill="#FAFAFA"/>
<path d="M176.439 82.5632C176.449 82.297 176.48 82.0322 176.532 81.7712C176.586 81.5162 176.668 81.2682 176.776 81.0321C176.879 80.8025 177.011 80.5879 177.169 80.3937C177.329 80.2011 177.521 80.0386 177.736 79.9138C177.901 79.799 178.094 79.7342 178.293 79.7266C178.442 79.7282 178.585 79.7884 178.692 79.8946C178.805 80.0252 178.887 80.1814 178.93 80.3505C178.991 80.571 179.024 80.7984 179.029 81.0273C179.029 81.1137 179.029 81.2097 179.029 81.3153C179.029 81.4209 179.029 81.5312 179.029 81.6464C179.029 81.7616 179.029 81.872 179.029 81.9776C179.029 82.0832 179.029 82.184 179.029 82.2752C179.019 82.5398 178.987 82.803 178.935 83.0623C178.881 83.3166 178.801 83.5644 178.696 83.8015C178.59 84.0303 178.456 84.2448 178.298 84.4399C178.138 84.6307 177.948 84.7929 177.736 84.9198C177.567 85.0337 177.371 85.0984 177.169 85.107C177.096 85.1085 177.024 85.0949 176.956 85.0668C176.889 85.0388 176.827 84.9969 176.776 84.9438C176.654 84.8094 176.57 84.6435 176.532 84.4639C176.477 84.2426 176.445 84.0156 176.439 83.7871C176.439 83.7007 176.439 83.6047 176.439 83.4991C176.439 83.3935 176.439 83.2831 176.439 83.1679C176.439 83.0528 176.439 82.9472 176.439 82.8368C176.439 82.7264 176.434 82.6496 176.439 82.5632ZM178.434 81.4161C178.444 81.2986 178.432 81.1803 178.396 81.0681C178.361 80.9559 178.303 80.8522 178.228 80.7633C178.106 80.6529 177.937 80.6577 177.736 80.7633C177.517 80.895 177.344 81.0928 177.24 81.3297C177.107 81.6095 177.036 81.9161 177.033 82.2272C177.033 82.4048 177.033 82.6016 177.033 82.8176C177.033 83.0336 177.033 83.2255 177.033 83.3983C177.023 83.5158 177.036 83.6341 177.071 83.7463C177.107 83.8585 177.164 83.9622 177.24 84.0511C177.361 84.1567 177.53 84.1471 177.736 84.0271C177.951 83.8945 178.122 83.6989 178.228 83.4655C178.361 83.1874 178.431 82.8824 178.434 82.5728C178.434 82.3904 178.434 82.1936 178.434 81.9776C178.434 81.7616 178.439 81.5888 178.434 81.4161Z" fill="#FAFAFA"/>
<path d="M181.071 77.9987C181.441 77.7827 181.717 77.7491 181.909 77.9075C182.023 78.036 182.108 78.1887 182.157 78.3547C182.206 78.5207 182.219 78.6958 182.195 78.8675C182.199 79.1935 182.15 79.5179 182.05 79.8274C181.955 80.1157 181.807 80.3828 181.614 80.6146L182.223 81.9729C182.225 81.9952 182.225 82.0177 182.223 82.0401C182.223 82.0833 182.214 82.1261 182.195 82.1648C182.182 82.1997 182.159 82.2298 182.129 82.2512L181.755 82.472C181.694 82.5056 181.652 82.5104 181.624 82.472C181.599 82.4468 181.578 82.4177 181.563 82.3856L180.987 81.1041L180.401 81.4497V83.072C180.401 83.1251 180.39 83.1775 180.368 83.2256C180.349 83.2673 180.32 83.3035 180.284 83.3312L179.928 83.5424C179.916 83.5525 179.901 83.5581 179.886 83.5581C179.87 83.5581 179.855 83.5525 179.844 83.5424C179.83 83.5277 179.82 83.5103 179.813 83.4912C179.807 83.4722 179.805 83.452 179.806 83.432V78.9443C179.808 78.8909 179.82 78.8384 179.844 78.7907C179.86 78.7472 179.89 78.7103 179.928 78.6851L181.071 77.9987ZM180.41 80.581L181.071 80.2162C181.232 80.1238 181.37 79.994 181.474 79.837C181.582 79.6521 181.634 79.4381 181.624 79.2226C181.624 78.9635 181.572 78.8195 181.474 78.7907C181.331 78.7708 181.187 78.8087 181.071 78.8963L180.434 79.2706L180.41 80.581Z" fill="#FAFAFA"/>
<path d="M184.209 76.151C184.379 76.0373 184.574 75.9681 184.776 75.9494C184.922 75.9438 185.065 75.9972 185.174 76.0982C185.298 76.2318 185.384 76.3979 185.422 76.5781C185.485 76.8162 185.52 77.0611 185.525 77.3077C185.525 77.6437 185.525 77.9892 185.525 78.3396C185.516 78.6254 185.481 78.9097 185.422 79.1892C185.369 79.4489 185.287 79.7016 185.179 79.9427C185.074 80.1641 184.942 80.3707 184.785 80.5571C184.629 80.7479 184.442 80.9102 184.233 81.037L183.122 81.6562C183.111 81.6664 183.096 81.6719 183.08 81.6719C183.065 81.6719 183.05 81.6664 183.038 81.6562C183.024 81.6417 183.014 81.6243 183.008 81.6052C183.001 81.5862 182.999 81.5659 183.001 81.5458V77.0581C183.002 77.0047 183.015 76.9523 183.038 76.9045C183.055 76.8611 183.084 76.8241 183.122 76.7989L184.209 76.151ZM184.93 77.6437C184.928 77.5137 184.909 77.3846 184.874 77.2597C184.852 77.1652 184.805 77.0788 184.738 77.0101C184.709 76.98 184.674 76.9563 184.635 76.9407C184.597 76.925 184.555 76.9176 184.514 76.9189C184.396 76.9269 184.283 76.9667 184.186 77.0341L183.596 77.3797V80.5091L184.209 80.1491C184.328 80.0783 184.434 79.9874 184.523 79.8803C184.61 79.775 184.684 79.6589 184.743 79.5347C184.801 79.4025 184.845 79.2641 184.874 79.122C184.907 78.9737 184.926 78.8227 184.93 78.6708C184.944 78.3204 184.944 77.9796 184.93 77.6437Z" fill="#FAFAFA"/>
<path d="M119.889 6.48792C120.697 6.67227 121.476 6.97282 122.203 7.38066C122.898 7.76381 123.521 8.27091 124.043 8.87817C124.543 9.46232 124.913 10.1499 125.13 10.894C125.351 11.6906 125.367 12.5322 125.177 13.3371C125.051 13.9752 124.805 14.5818 124.451 15.1226C124.128 15.585 123.743 15.9986 123.308 16.3513C122.881 16.6914 122.424 16.9917 121.945 17.2488L120.596 17.9832C120.19 18.2004 119.804 18.4559 119.444 18.7463C119.118 19.0024 118.868 19.3465 118.722 19.7399C118.651 19.9196 118.533 20.0757 118.38 20.191C118.308 20.2484 118.225 20.2882 118.135 20.3073C118.046 20.3264 117.954 20.3244 117.865 20.3014L115.879 19.8503C115.784 19.8297 115.693 19.7899 115.613 19.733C115.532 19.6761 115.464 19.6034 115.411 19.5191C115.355 19.4407 115.317 19.3499 115.302 19.254C115.287 19.1581 115.293 19.0598 115.322 18.9671C115.482 18.3369 115.764 17.746 116.151 17.2296C116.504 16.7729 116.914 16.3647 117.369 16.0153C117.812 15.6826 118.282 15.3888 118.774 15.137C119.242 14.8922 119.711 14.657 120.118 14.4218C120.497 14.213 120.854 13.9637 121.181 13.6779C121.469 13.4311 121.668 13.0935 121.748 12.7179C121.823 12.3918 121.819 12.0521 121.737 11.7278C121.656 11.4035 121.499 11.1042 121.28 10.8556C120.732 10.2429 120 9.83564 119.2 9.69892C117.72 9.36294 116.471 9.8733 115.453 11.23C115.355 11.3781 115.231 11.5066 115.088 11.6092C114.926 11.6913 114.739 11.7051 114.568 11.6476L112.455 11.1676C112.305 11.1378 112.172 11.0481 112.085 10.918C112.039 10.8486 112.008 10.7698 111.994 10.6869C111.981 10.6041 111.984 10.5192 112.006 10.4381C112.185 9.77112 112.519 9.15856 112.98 8.65258C113.499 8.0658 114.116 7.57825 114.802 7.21267C115.552 6.81065 116.36 6.53513 117.195 6.39673C118.09 6.24755 119.005 6.27852 119.889 6.48792ZM117.645 21.9333C117.831 21.978 117.992 22.0955 118.095 22.2605C118.197 22.4255 118.232 22.6251 118.193 22.8165L117.687 25.1683C117.67 25.2668 117.633 25.3605 117.578 25.4432C117.523 25.5259 117.452 25.5958 117.369 25.6483C117.29 25.7037 117.202 25.7417 117.108 25.7599C117.014 25.7781 116.918 25.776 116.825 25.7539L114.558 25.2211C114.462 25.2045 114.37 25.1667 114.289 25.1104C114.209 25.054 114.141 24.9805 114.09 24.8947C114.037 24.8137 114.002 24.7225 113.985 24.6268C113.968 24.531 113.97 24.4328 113.992 24.338L114.502 21.9861C114.546 21.7955 114.66 21.6297 114.821 21.524C114.982 21.4183 115.177 21.3809 115.364 21.4198L117.645 21.9333Z" fill="#8937C7"/>
<path d="M122.39 29.0032C122.954 28.9105 123.528 28.8992 124.095 28.9696C124.637 29.0356 125.163 29.198 125.65 29.4496C126.114 29.6962 126.522 30.0395 126.849 30.4575C127.143 30.8666 127.35 31.3342 127.456 31.8303C127.563 32.3263 127.566 32.8397 127.467 33.3373C127.378 33.7199 127.234 34.087 127.041 34.4269C126.855 34.7574 126.638 35.0692 126.395 35.358C126.156 35.646 125.926 35.9196 125.716 36.1835C125.509 36.4295 125.326 36.6946 125.167 36.9755C125.019 37.2217 124.944 37.507 124.952 37.7962C124.948 37.9314 124.911 38.0634 124.844 38.1802C124.81 38.234 124.766 38.2799 124.713 38.3146C124.661 38.3494 124.602 38.3723 124.54 38.3818L123.135 38.6122C123.069 38.6244 123.002 38.6231 122.936 38.6082C122.871 38.5934 122.81 38.5654 122.755 38.5258C122.7 38.4902 122.654 38.4415 122.62 38.384C122.587 38.3264 122.567 38.2615 122.563 38.1946C122.504 37.748 122.536 37.2937 122.657 36.8603C122.767 36.4766 122.924 36.1089 123.125 35.766C123.322 35.4369 123.548 35.1268 123.8 34.8396C124.048 34.5517 124.268 34.2829 124.484 34.0237C124.676 33.7922 124.843 33.5395 124.98 33.2701C125.102 33.0383 125.146 32.7719 125.107 32.5118C125.071 32.2828 124.983 32.0659 124.848 31.8796C124.714 31.6932 124.537 31.5429 124.334 31.4414C123.83 31.1922 123.26 31.1213 122.713 31.2399C122.218 31.3141 121.757 31.5435 121.394 31.8967C121.031 32.2499 120.783 32.7095 120.685 33.2125C120.657 33.3335 120.61 33.4488 120.544 33.5533C120.461 33.6444 120.347 33.7008 120.226 33.7117L118.746 33.9565C118.642 33.9769 118.534 33.9545 118.446 33.8941C118.401 33.8623 118.363 33.8211 118.335 33.7731C118.306 33.725 118.288 33.6714 118.282 33.6157C118.238 33.1394 118.31 32.6594 118.493 32.219C118.678 31.7065 118.951 31.2319 119.298 30.8175C119.679 30.3637 120.129 29.9748 120.629 29.6656C121.168 29.3302 121.767 29.1052 122.39 29.0032ZM124.807 39.4905C124.871 39.4801 124.937 39.4827 125.001 39.4984C125.064 39.514 125.124 39.5423 125.177 39.5817C125.232 39.6189 125.279 39.6677 125.314 39.7247C125.35 39.7818 125.373 39.8459 125.383 39.9129L125.645 41.5592C125.666 41.6928 125.634 41.8291 125.557 41.9387C125.479 42.0484 125.363 42.1224 125.233 42.1448L123.664 42.4088C123.534 42.4294 123.401 42.3966 123.294 42.3176C123.24 42.2799 123.194 42.2309 123.159 42.1739C123.124 42.1168 123.102 42.053 123.093 41.9864L122.83 40.3401C122.818 40.274 122.82 40.2061 122.835 40.1408C122.851 40.0755 122.879 40.0142 122.919 39.9609C122.956 39.9052 123.004 39.8581 123.059 39.8225C123.115 39.787 123.177 39.7638 123.242 39.7545L124.807 39.4905Z" fill="#8937C7"/>
<g opacity="0.2">
<path opacity="0.2" d="M122.391 29.0032C122.955 28.9105 123.529 28.8992 124.096 28.9696C124.638 29.0356 125.164 29.198 125.651 29.4496C126.115 29.6962 126.523 30.0395 126.85 30.4575C127.144 30.8666 127.351 31.3342 127.457 31.8303C127.564 32.3263 127.567 32.8397 127.468 33.3373C127.379 33.7199 127.235 34.087 127.042 34.4269C126.856 34.7574 126.639 35.0692 126.396 35.358C126.157 35.646 125.927 35.9196 125.717 36.1835C125.51 36.4295 125.327 36.6946 125.168 36.9755C125.02 37.2217 124.945 37.507 124.953 37.7962C124.949 37.9314 124.912 38.0634 124.845 38.1802C124.811 38.234 124.767 38.2798 124.714 38.3146C124.662 38.3494 124.603 38.3723 124.541 38.3818L123.136 38.6122C123.07 38.6244 123.003 38.623 122.937 38.6082C122.872 38.5934 122.811 38.5654 122.756 38.5258C122.701 38.4902 122.655 38.4415 122.621 38.3839C122.588 38.3264 122.568 38.2615 122.564 38.1946C122.505 37.748 122.537 37.2937 122.658 36.8603C122.768 36.4766 122.925 36.1089 123.126 35.766C123.323 35.4369 123.549 35.1268 123.801 34.8396C124.049 34.5516 124.269 34.2829 124.485 34.0237C124.677 33.7922 124.844 33.5395 124.981 33.2701C125.103 33.0383 125.147 32.7719 125.108 32.5118C125.072 32.2828 124.984 32.0659 124.849 31.8796C124.715 31.6932 124.538 31.5429 124.335 31.4414C123.831 31.1922 123.261 31.1213 122.714 31.2399C122.219 31.3141 121.758 31.5435 121.395 31.8967C121.032 32.2499 120.784 32.7095 120.686 33.2125C120.658 33.3335 120.611 33.4488 120.545 33.5533C120.462 33.6444 120.348 33.7008 120.227 33.7117L118.747 33.9565C118.643 33.9769 118.535 33.9545 118.447 33.8941C118.402 33.8623 118.364 33.8211 118.336 33.7731C118.307 33.725 118.289 33.6714 118.283 33.6157C118.239 33.1394 118.311 32.6594 118.494 32.219C118.679 31.7065 118.952 31.2319 119.299 30.8175C119.68 30.3637 120.129 29.9748 120.63 29.6656C121.169 29.3302 121.768 29.1052 122.391 29.0032ZM124.808 39.4905C124.872 39.4801 124.938 39.4827 125.002 39.4984C125.065 39.514 125.125 39.5423 125.178 39.5817C125.233 39.6189 125.28 39.6676 125.315 39.7247C125.351 39.7818 125.374 39.8459 125.384 39.9129L125.646 41.5592C125.667 41.6927 125.635 41.8291 125.558 41.9387C125.48 42.0483 125.364 42.1224 125.234 42.1448L123.665 42.4087C123.535 42.4294 123.402 42.3966 123.295 42.3176C123.241 42.2799 123.195 42.2309 123.16 42.1739C123.125 42.1168 123.103 42.0529 123.093 41.9864L122.831 40.3401C122.819 40.274 122.821 40.2061 122.836 40.1408C122.852 40.0755 122.88 40.0142 122.92 39.9609C122.957 39.9052 123.005 39.8581 123.06 39.8225C123.116 39.787 123.178 39.7638 123.243 39.7545L124.808 39.4905Z" fill="black"/>
</g>
<path d="M135.636 31.5905C135.7 31.636 135.754 31.6943 135.795 31.762C135.836 31.8297 135.864 31.9052 135.875 31.984C135.89 32.0621 135.889 32.1425 135.872 32.2202C135.855 32.2978 135.823 32.371 135.777 32.4352L134.662 34.0431C134.618 34.1085 134.561 34.164 134.495 34.2061C134.429 34.2482 134.355 34.276 134.278 34.2879C134.202 34.3032 134.123 34.3021 134.047 34.2847C133.972 34.2674 133.9 34.2341 133.838 34.1871L132.301 33.0688C132.237 33.0239 132.183 32.9656 132.143 32.8977C132.103 32.8299 132.077 32.754 132.067 32.6752C132.052 32.5971 132.053 32.5167 132.07 32.439C132.087 32.3614 132.12 32.2882 132.165 32.224L133.294 30.6161C133.386 30.4858 133.523 30.3976 133.678 30.3706C133.832 30.3437 133.99 30.3801 134.119 30.4721L135.636 31.5905ZM142.119 20.7C142.679 21.1022 143.178 21.5875 143.599 22.1399C144.01 22.6537 144.327 23.2389 144.536 23.8678C144.73 24.4703 144.796 25.1088 144.728 25.7396C144.648 26.4124 144.4 27.0524 144.007 27.5971C143.714 28.0375 143.338 28.413 142.901 28.701C142.516 28.9482 142.098 29.1358 141.66 29.2578C141.233 29.3721 140.797 29.4492 140.358 29.4882L139.112 29.6034C138.738 29.634 138.368 29.6999 138.006 29.8002C137.673 29.8778 137.367 30.0509 137.126 30.2993C137.017 30.4129 136.879 30.4927 136.728 30.5297C136.656 30.5509 136.58 30.554 136.507 30.539C136.433 30.524 136.365 30.4912 136.306 30.4433L134.948 29.4546C134.818 29.3596 134.729 29.2169 134.699 29.0562C134.682 28.9784 134.683 28.8974 134.701 28.8199C134.72 28.7423 134.756 28.6704 134.807 28.6098C135.125 28.1879 135.521 27.8354 135.974 27.5731C136.381 27.3452 136.815 27.1725 137.266 27.0595C137.701 26.9514 138.145 26.8823 138.592 26.8532C139.032 26.8244 139.444 26.7908 139.828 26.7524C140.18 26.7206 140.527 26.6497 140.864 26.5412C141.158 26.4407 141.412 26.2433 141.585 25.9796C141.741 25.757 141.843 25.4989 141.882 25.2273C141.92 24.9557 141.894 24.6787 141.805 24.4197C141.583 23.78 141.16 23.2344 140.601 22.8694C139.59 22.1303 138.486 22.1063 137.29 22.7974C137.169 22.8759 137.036 22.9312 136.896 22.9606C136.823 22.9658 136.75 22.9562 136.681 22.9323C136.612 22.9084 136.548 22.8707 136.493 22.8214L135.051 21.7703C134.999 21.7347 134.954 21.6888 134.919 21.6352C134.885 21.5816 134.861 21.5215 134.849 21.4583C134.838 21.393 134.84 21.326 134.856 21.2616C134.871 21.1971 134.899 21.1366 134.938 21.0839C135.279 20.637 135.721 20.2827 136.226 20.052C136.801 19.7855 137.416 19.6231 138.044 19.572C138.735 19.5128 139.431 19.5696 140.105 19.74C140.832 19.9195 141.517 20.2459 142.119 20.7Z" fill="#8937C7"/>
<g opacity="0.6">
<path opacity="0.6" d="M135.636 31.5902C135.7 31.6357 135.754 31.6941 135.795 31.7618C135.836 31.8294 135.864 31.905 135.875 31.9838C135.89 32.0619 135.889 32.1423 135.872 32.2199C135.855 32.2976 135.823 32.3708 135.777 32.435L134.662 34.0429C134.618 34.1083 134.561 34.1638 134.495 34.2058C134.429 34.2479 134.355 34.2758 134.278 34.2876C134.202 34.3029 134.123 34.3018 134.047 34.2845C133.972 34.2671 133.9 34.2339 133.838 34.1868L132.301 33.0685C132.237 33.0236 132.183 32.9653 132.143 32.8975C132.103 32.8296 132.077 32.7538 132.067 32.6749C132.052 32.5969 132.053 32.5165 132.07 32.4388C132.087 32.3611 132.12 32.2879 132.165 32.2238L133.294 30.6159C133.386 30.4855 133.523 30.3973 133.678 30.3704C133.832 30.3434 133.99 30.3799 134.119 30.4719L135.636 31.5902ZM142.119 20.6997C142.679 21.102 143.178 21.5873 143.599 22.1396C144.01 22.6534 144.327 23.2387 144.536 23.8675C144.73 24.4701 144.796 25.1085 144.728 25.7394C144.648 26.4121 144.4 27.0522 144.007 27.5969C143.714 28.0373 143.338 28.4127 142.901 28.7008C142.516 28.948 142.098 29.1356 141.66 29.2576C141.233 29.3719 140.797 29.449 140.358 29.4879L139.112 29.6031C138.738 29.6337 138.368 29.6996 138.006 29.7999C137.673 29.8776 137.367 30.0507 137.126 30.2991C137.017 30.4126 136.879 30.4924 136.728 30.5295C136.656 30.5506 136.58 30.5538 136.507 30.5388C136.433 30.5237 136.365 30.4909 136.306 30.4431L134.948 29.4543C134.818 29.3593 134.729 29.2166 134.699 29.056C134.682 28.9781 134.683 28.8972 134.701 28.8196C134.72 28.7421 134.756 28.6701 134.807 28.6096C135.125 28.1877 135.521 27.8352 135.974 27.5729C136.381 27.3449 136.815 27.1723 137.266 27.0593C137.701 26.9511 138.145 26.8821 138.592 26.8529C139.032 26.8241 139.444 26.7905 139.828 26.7521C140.18 26.7203 140.527 26.6495 140.864 26.5409C141.158 26.4405 141.412 26.243 141.585 25.9794C141.741 25.7567 141.843 25.4987 141.882 25.2271C141.92 24.9555 141.894 24.6784 141.805 24.4195C141.583 23.7798 141.16 23.2341 140.601 22.8692C139.59 22.13 138.486 22.106 137.29 22.7972C137.169 22.8757 137.036 22.931 136.896 22.9604C136.823 22.9656 136.75 22.9559 136.681 22.932C136.612 22.9081 136.548 22.8705 136.493 22.8212L135.051 21.77C134.999 21.7345 134.954 21.6886 134.919 21.635C134.885 21.5814 134.861 21.5212 134.849 21.4581C134.838 21.3927 134.84 21.3258 134.856 21.2613C134.871 21.1969 134.899 21.1364 134.938 21.0837C135.279 20.6368 135.721 20.2824 136.226 20.0518C136.801 19.7852 137.416 19.6228 138.044 19.5718C138.735 19.5126 139.431 19.5693 140.105 19.7398C140.832 19.9193 141.517 20.2456 142.119 20.6997Z" fill="white"/>
</g>
<path d="M100.755 74.0773H84.1133V32.7615C84.1133 29.1731 85.5044 25.7316 87.9807 23.1941C90.4569 20.6567 93.8154 19.2312 97.3174 19.2312H98.8537C102.356 19.2312 105.714 20.6567 108.19 23.1941C110.667 25.7316 112.058 29.1731 112.058 32.7615V62.5196C112.052 65.5871 110.858 68.5268 108.739 70.6936C106.62 72.8604 103.749 74.0773 100.755 74.0773Z" fill="#263238"/>
<path d="M82.4927 173.542C82.1984 175.253 82.0417 176.987 82.0243 178.725C81.9635 181.874 81.4014 182.992 81.3264 185.574C81.2374 188.526 81.7386 189.63 82.9049 191.291C84.0712 192.951 87.1205 194.454 88.4414 191.651C89.7623 188.848 89.5702 187.009 89.1534 184.115C88.7271 181.12 88.685 179.464 88.4227 177.184C88.2072 175.173 87.9543 173.642 87.9543 173.642L82.4927 173.542Z" fill="#263238"/>
<path d="M91.2141 152.629L81.0967 152.442C81.2466 159.363 82.3192 167.047 82.5019 173.561C82.5393 174.784 82.4738 183.059 82.9234 185.56C83.6026 189.342 87.9774 188.828 88.2116 186.568C88.4458 184.307 87.9306 174.645 87.9446 173.647C87.9025 169.481 89.8182 162.449 90.8066 154.971C90.8487 154.611 91.1672 152.989 91.2141 152.629Z" fill="#FFA8A7"/>
<path d="M104.212 168.156C104.212 168.156 103.814 167.935 103.743 168.372C103.645 168.89 103.495 169.961 103.275 170.815C102.985 172.001 102.741 173.954 102.914 174.924C103.088 175.893 105.289 177.132 106.718 177.583C108.478 178.14 110.084 179.119 111.402 180.439C112.807 181.802 115.866 183.088 117.959 183.074C120.418 183.074 122.133 182.234 122.943 180.885C123.753 179.536 122.203 179.373 119.393 177.525L117.215 176.085C112.76 173.105 111.125 171.511 109.875 168.531L104.212 168.156Z" fill="#263238"/>
<path d="M109.912 166.308C109.837 164.168 111.28 145.972 111.28 145.972L101.673 150.46C103.729 163.044 104.169 166.015 104.202 168.074C104.16 168.247 104.143 168.425 104.151 168.602C104.151 171.046 106.853 172.365 108.952 173.997C110.736 175.429 112.637 176.701 114.633 177.799C116.16 178.581 119.261 178.653 119.645 177.65C117.088 175.648 113.369 172.653 111.336 170.369C110.343 169.294 109.987 168.454 109.912 166.308Z" fill="#FFA8A7"/>
<path d="M85.242 85.0928C81.551 93.3914 81.551 99.8134 82.1646 110.406C82.7079 120.126 83.6119 128.693 83.6119 128.693C83.4714 130.416 81.1341 133.781 80.8297 141.403C80.5486 148.526 81.2981 157.583 81.2981 157.583C81.2981 157.583 86.5488 160.563 90.4318 157.554C90.4318 157.554 94.179 139.224 95.275 130.306C96.2118 122.526 97.898 112.585 97.898 112.585L101.444 130.253C100.679 132.76 100.124 135.329 99.7857 137.933C99.2892 143.179 102.156 153.479 102.156 153.479C102.156 153.479 107.58 155.135 110.891 152.125C110.891 152.125 112.128 135.379 112.592 129.063C113.21 120.601 111.908 97.6968 110.891 85.5679L85.242 85.0928Z" fill="#455A64"/>
<path d="M97.9072 112.571L99.3639 99.2565C99.3639 99.2565 105.893 98.3637 108.854 95.5127C108.006 96.871 106.878 98.0216 105.548 98.8826C104.218 99.7437 102.719 100.294 101.158 100.495L99.0501 112.883L101.444 130.253L97.9072 112.571Z" fill="#263238"/>
<path d="M124.348 81.8192C124.618 79.3895 124.737 76.9447 124.704 74.4996C124.559 72.3878 124.189 72.0422 121.309 68.3032C117.421 63.2492 114.1 58.7039 110.587 54.1873C108.076 50.9619 105.435 50.4676 102.868 50.6116C101.069 50.7124 104.582 59.5774 106.348 64.8235L116.433 75.9492C116.745 76.3882 116.888 76.93 116.835 77.4707L116.226 86.9356L119.248 91.0826C119.248 91.0826 123.824 87.0412 124.348 81.8192Z" fill="#FFA8A7"/>
<path d="M93.1437 50.8996C91.1905 51.0388 87.64 51.3796 87.64 51.3796C85.5931 52.5507 85.0732 53.5155 84.6938 56.2993C84.5299 57.4896 85.476 60.6526 86.2863 65.1499L87.8227 73.487L87.6541 77.6243C86.8578 80.149 85.0545 83.2832 83.4619 87.9053C91.2841 92.3786 97.8417 92.5466 103.79 91.745C108.324 91.1451 110.727 90.0219 111.528 88.9084C111.36 84.3439 111.06 81.5217 110.966 76.7508C110.933 74.7493 111.051 72.7238 111.13 70.42C114.17 67.8569 114.208 63.5948 112.535 60.8206C108.68 54.4226 104.929 50.3957 102.446 50.6021L93.1437 50.8996Z" fill="#8937C7"/>
<path opacity="0.6" d="M93.1437 50.8996C91.1905 51.0388 87.64 51.3796 87.64 51.3796C85.5931 52.5507 85.0732 53.5155 84.6938 56.2993C84.5299 57.4896 85.476 60.6526 86.2863 65.1499L87.8227 73.487L87.6541 77.6243C86.8578 80.149 85.0545 83.2832 83.4619 87.9053C91.2841 92.3786 97.8417 92.5466 103.79 91.745C108.324 91.1451 110.727 90.0219 111.528 88.9084C111.36 84.3439 111.06 81.5217 110.966 76.7508C110.933 74.7493 111.051 72.7238 111.13 70.42C114.17 67.8569 114.208 63.5948 112.535 60.8206C108.68 54.4226 104.929 50.3957 102.446 50.6021L93.1437 50.8996Z" fill="white"/>
<path opacity="0.1" d="M105.073 70.4823C105.073 70.4823 101.504 73.3237 97.4243 71.8406C96.2787 71.4707 95.2456 70.8041 94.425 69.9052C93.6045 69.0063 93.0242 67.9057 92.7403 66.7097C92.7403 66.7097 92.3094 71.4854 97.4477 73.1125C102.427 74.682 105.073 70.4823 105.073 70.4823Z" fill="black"/>
<path d="M109.917 37.7918C109.763 44.7226 107.575 46.4313 106.47 46.9112C105.364 47.3912 103.247 47.1032 101.186 46.7528V50.9382C101.186 50.9382 103.566 53.4916 103.388 55.3971C103.21 57.3026 99.6405 57.5186 96.98 55.6515C95.512 54.6182 94.1842 53.39 93.0314 51.9989C92.81 51.7305 92.6889 51.3904 92.6895 51.039V41.2476C92.6895 41.2476 91.5606 42.4715 89.5653 41.07C89.1347 40.7885 88.7661 40.4182 88.4827 39.9827C88.1994 39.5473 88.0076 39.0562 87.9195 38.5407C87.8313 38.0252 87.8489 37.4965 87.9709 36.9883C88.093 36.4801 88.3169 36.0035 88.6285 35.5888C89.4997 34.5376 91.7105 34.4656 92.7691 36.0687C93.3686 37.2639 93.4483 38.4686 94.1181 37.9886C95.898 36.6735 94.9425 33.6689 97.0924 32.229C97.7979 31.8516 98.5308 31.5307 99.2845 31.269C103.121 29.9107 106.446 28.7684 107.247 26.0806C108.755 26.9637 110.104 29.6179 109.917 37.7918Z" fill="#FFA8A7"/>
<path d="M102.353 43.9833C102.844 43.9833 103.243 43.575 103.243 43.0714C103.243 42.5677 102.844 42.1594 102.353 42.1594C101.861 42.1594 101.463 42.5677 101.463 43.0714C101.463 43.575 101.861 43.9833 102.353 43.9833Z" fill="#B16668"/>
<path d="M101.762 36.7404C101.762 36.9282 101.708 37.1118 101.607 37.2684C101.506 37.4251 101.362 37.5479 101.194 37.6218C101.025 37.6956 100.84 37.7173 100.659 37.6839C100.479 37.6506 100.312 37.5639 100.179 37.4344C100.047 37.3049 99.954 37.1383 99.9127 36.9554C99.8715 36.7725 99.8835 36.5811 99.9472 36.4051C100.011 36.2291 100.124 36.0761 100.272 35.9651C100.419 35.8541 100.596 35.7899 100.779 35.7805C100.906 35.774 101.032 35.794 101.152 35.8393C101.271 35.8846 101.38 35.9543 101.472 36.0441C101.564 36.1339 101.637 36.2419 101.687 36.3616C101.737 36.4814 101.762 36.6102 101.762 36.7404Z" fill="#263238"/>
<path d="M108.858 36.8365C108.868 36.954 108.854 37.0722 108.819 37.1843C108.784 37.2964 108.727 37.4001 108.652 37.4895C108.577 37.5788 108.485 37.652 108.382 37.7047C108.279 37.7574 108.167 37.7886 108.053 37.7965C107.937 37.8074 107.82 37.793 107.71 37.7542C107.6 37.7154 107.5 37.6531 107.415 37.5714C107.33 37.4897 107.264 37.3904 107.219 37.2803C107.175 37.1702 107.154 37.0516 107.158 36.9325C107.146 36.8142 107.157 36.6947 107.192 36.5811C107.227 36.4676 107.284 36.3625 107.359 36.2723C107.435 36.182 107.528 36.1086 107.632 36.0565C107.736 36.0043 107.85 35.9745 107.966 35.969C108.082 35.9634 108.198 35.9822 108.306 36.0241C108.415 36.066 108.514 36.1303 108.598 36.2128C108.681 36.2954 108.747 36.3946 108.792 36.5043C108.837 36.6141 108.859 36.732 108.858 36.8509V36.8365Z" fill="#263238"/>
<path d="M100.559 39.2076C99.7511 39.2076 98.9762 38.879 98.4045 38.2941C97.8328 37.7092 97.511 36.9156 97.5098 36.0878C97.5098 33.9663 99.6457 33.9663 100.559 33.9663C101.472 33.9663 103.604 33.9663 103.604 36.0878C103.602 36.9148 103.281 37.7076 102.71 38.2924C102.14 38.8772 101.366 39.2063 100.559 39.2076ZM100.559 34.4559C98.6854 34.4559 97.9922 34.9358 97.9922 36.0878C97.9922 36.7879 98.2636 37.4594 98.7468 37.9544C99.2299 38.4495 99.8851 38.7276 100.568 38.7276C101.252 38.7276 101.907 38.4495 102.39 37.9544C102.873 37.4594 103.145 36.7879 103.145 36.0878C103.126 34.9118 102.405 34.4559 100.559 34.4559Z" fill="#455A64"/>
<path d="M108.291 39.2076C107.484 39.2076 106.709 38.879 106.137 38.2941C105.565 37.7092 105.243 36.9156 105.242 36.0878C105.242 33.9663 107.378 33.9663 108.291 33.9663C109.205 33.9663 111.336 33.9663 111.336 36.0878C111.335 36.9148 111.014 37.7076 110.443 38.2924C109.872 38.8772 109.099 39.2063 108.291 39.2076ZM108.291 34.4559C106.446 34.4559 105.725 34.9358 105.725 36.0878C105.725 36.7879 105.996 37.4594 106.479 37.9544C106.962 38.4495 107.618 38.7276 108.301 38.7276C108.984 38.7276 109.639 38.4495 110.122 37.9544C110.606 37.4594 110.877 36.7879 110.877 36.0878C110.858 34.9118 110.137 34.4559 108.291 34.4559Z" fill="#455A64"/>
<path d="M104.076 35.0798L104.226 40.9115L107.219 39.9611L104.076 35.0798Z" fill="#F28F8F"/>
<path d="M101.181 46.7672C99.008 46.4744 94.5348 45.1593 93.8369 43.345C94.1178 44.2619 94.6653 45.069 95.406 45.6584C96.741 46.8343 101.181 48.1543 101.181 48.1543V46.7672Z" fill="#F28F8F"/>
<path d="M101.289 32.2481L99.3029 33.4913C99.1464 33.2119 99.1009 32.8815 99.1759 32.5686C99.251 32.2558 99.4407 31.9846 99.7057 31.8114C99.8368 31.7299 99.9825 31.6765 100.134 31.6544C100.286 31.6323 100.441 31.6419 100.589 31.6828C100.736 31.7236 100.875 31.7947 100.995 31.8919C101.116 31.9891 101.216 32.1103 101.289 32.2481Z" fill="#263238"/>
<path d="M109.369 33.6304L107.158 32.8385C107.201 32.6883 107.273 32.5487 107.371 32.4283C107.468 32.3078 107.588 32.2091 107.724 32.138C107.86 32.067 108.009 32.0252 108.161 32.0153C108.314 32.0053 108.467 32.0274 108.61 32.0801C108.907 32.1893 109.151 32.4112 109.292 32.6998C109.433 32.9884 109.461 33.3216 109.369 33.6304Z" fill="#263238"/>
<path d="M103.364 36.3373C103.332 36.3373 103.301 36.3308 103.271 36.3182C103.242 36.3056 103.216 36.2872 103.193 36.2639C103.171 36.2407 103.154 36.2131 103.142 36.1829C103.13 36.1526 103.124 36.1203 103.125 36.0877C103.125 35.6894 103.893 35.4302 104.586 35.4302C105.28 35.4302 105.725 35.6894 105.725 36.0877C105.71 36.1399 105.679 36.1858 105.637 36.2184C105.595 36.2511 105.543 36.2688 105.49 36.2688C105.438 36.2688 105.386 36.2511 105.344 36.2184C105.302 36.1858 105.271 36.1399 105.256 36.0877C105.256 36.0397 105.017 35.9197 104.601 35.9197C104.265 35.9124 103.931 35.9711 103.617 36.0925C103.617 36.1259 103.61 36.159 103.597 36.1897C103.585 36.2203 103.566 36.248 103.542 36.2709C103.518 36.2938 103.49 36.3116 103.46 36.323C103.429 36.3344 103.396 36.3393 103.364 36.3373Z" fill="#455A64"/>
<path d="M97.7578 36.1261H97.7297L92.3759 35.6461C92.1257 35.392 91.8277 35.1928 91.5 35.0605L97.7859 35.6557C97.8489 35.6641 97.9062 35.6974 97.9456 35.7485C97.985 35.7997 98.0033 35.8645 97.9967 35.9293C97.9857 35.9856 97.9558 36.0361 97.9121 36.0721C97.8684 36.1081 97.8138 36.1272 97.7578 36.1261Z" fill="#455A64"/>
<path d="M75.7755 41.8474C77.5274 39.4476 78.7218 37.6381 80.319 35.6078C81.2277 34.4415 81.8085 33.6064 82.661 32.4112C83.2605 31.5857 83.5978 30.8897 84.2816 30.6353C85.0205 30.3251 85.6863 29.8572 86.2349 29.2626C86.572 28.8804 86.8849 28.4764 87.1716 28.0531C88.1756 26.6684 89.3681 25.4384 90.7127 24.4005C92.1179 23.3158 93.6871 22.4807 95.1344 21.4487C95.9963 20.8296 96.919 19.8024 95.8698 18.8425C95.548 18.5648 95.1629 18.3749 94.7503 18.2905C92.1976 17.7242 89.9773 18.6217 87.4808 19.2745C86.3964 19.5518 85.3358 19.9194 84.3097 20.3736C83.805 20.5781 83.3318 20.8562 82.9046 21.1992C82.3072 21.8163 81.8177 22.5338 81.4572 23.3206C80.3658 25.3173 78.0239 27.1028 76.3845 28.6819C74.4687 30.5297 72.7544 32.224 70.567 34.2591C68.5997 36.0974 66.6746 37.7869 64.8713 39.7932C63.3771 41.4491 63.9345 42.745 64.1312 43.1961C65.349 45.7592 66.7121 46.6807 68.3468 48.2694C71.1572 51.0196 80.8764 58.9343 84.0943 61.5502C84.7857 62.1066 85.3286 62.833 85.6728 63.662L86.2911 65.1259C89.9633 65.8171 92.413 60.1679 89.3731 53.3667C88.8697 52.2669 88.1007 51.317 87.1389 50.6069C83.298 47.7414 75.7755 41.8474 75.7755 41.8474Z" fill="#FFA8A7"/>
<path d="M75.7753 41.8474C74.6065 43.3208 73.0489 44.4188 71.2881 45.0104C71.2881 45.0104 73.6301 45.6248 76.8386 42.673L75.7753 41.8474Z" fill="#F28F8F"/>
<path d="M123.393 76.8132L122.793 76.2852C122.703 76.2248 122.601 76.1867 122.495 76.1742C122.388 76.1617 122.28 76.1751 122.179 76.2133L115.673 78.0275C115.346 78.1395 115.045 78.3227 114.793 78.5646C114.541 78.8065 114.343 79.1014 114.212 79.429L109.528 93.2666C109.472 93.3793 109.45 93.5068 109.465 93.6326C109.48 93.7584 109.531 93.8766 109.612 93.9721L110.231 94.5193C110.321 94.5828 110.424 94.623 110.533 94.6364C110.641 94.6498 110.751 94.636 110.854 94.5961L117.369 92.7818C117.697 92.6698 117.997 92.4866 118.249 92.2447C118.501 92.0028 118.7 91.708 118.83 91.3803C119.767 88.6589 122.578 80.2642 123.514 77.5428C123.627 77.202 123.571 76.9428 123.393 76.8132Z" fill="#455A64"/>
<path d="M110.142 93.7994L114.826 79.9619C114.956 79.6344 115.154 79.3399 115.407 79.0987C115.659 78.8575 115.959 78.6755 116.287 78.5652L122.789 76.7509C123.393 76.5829 123.725 76.9381 123.51 77.5428C122.573 80.2643 119.763 88.6589 118.826 91.3804C118.695 91.708 118.497 92.0029 118.245 92.2448C117.993 92.4867 117.692 92.6699 117.365 92.7819L110.863 94.6153C110.264 94.7593 109.941 94.4042 110.142 93.7994Z" fill="#8937C7"/>
<path d="M115.58 78.9491C115.242 79.2116 114.98 79.5633 114.821 79.9667L110.137 93.7994C110.084 93.9092 110.061 94.0324 110.073 94.1546C110.085 94.2769 110.13 94.3933 110.203 94.4905L109.622 93.9818C109.539 93.8875 109.486 93.7694 109.47 93.6433C109.454 93.5172 109.476 93.3891 109.533 93.2762L114.217 79.4387C114.365 79.0625 114.606 78.7319 114.915 78.4788L115.58 78.9491Z" fill="#37474F"/>
<path d="M121.608 83.1201C121.139 84.5264 119.514 85.4671 116.825 86.1199C114.137 86.7726 112.652 89.6956 113.078 90.5836C113.504 91.4715 117.851 92.3019 119.589 92.0475C121.327 91.7931 123.069 89.2205 123.598 88.4237C124.128 87.627 124.737 82.0689 124.179 81.3058C123.622 80.5426 122.446 80.6626 122.446 80.6626L121.608 83.1201Z" fill="#F28F8F"/>
</svg>
