<svg width="278" height="224" viewBox="0 0 278 224" fill="none" xmlns="http://www.w3.org/2000/svg">
<path d="M277.301 197.569H0.465332V197.711H277.301V197.569Z" fill="#EBEBEB"/>
<path d="M249.562 206.698H231.224V206.84H249.562V206.698Z" fill="#EBEBEB"/>
<path d="M183.852 208.241H179.041V208.383H183.852V208.241Z" fill="#EBEBEB"/>
<path d="M230.671 201.434H220.046V201.575H230.671V201.434Z" fill="#EBEBEB"/>
<path d="M53.4238 202.387H29.5107V202.529H53.4238V202.387Z" fill="#EBEBEB"/>
<path d="M61.8617 202.387H58.3569V202.529H61.8617V202.387Z" fill="#EBEBEB"/>
<path d="M125.124 204.78H73.2563V204.922H125.124V204.78Z" fill="#EBEBEB"/>
<path d="M131.685 172.266H24.777C23.9395 172.264 23.1368 171.922 22.5451 171.315C21.9534 170.708 21.6211 169.884 21.6211 169.026V15.0305C21.6284 14.1773 21.9639 13.3614 22.5548 12.7601C23.1457 12.1589 23.9443 11.8208 24.777 11.8193H131.685C132.524 11.8193 133.328 12.1606 133.921 12.7682C134.514 13.3757 134.847 14.1997 134.847 15.0589V169.026C134.847 169.885 134.514 170.709 133.921 171.317C133.328 171.925 132.524 172.266 131.685 172.266V172.266ZM24.777 11.9328C23.9762 11.9343 23.2087 12.2613 22.643 12.8421C22.0772 13.4229 21.7595 14.2099 21.7595 15.0305V169.026C21.7595 169.847 22.0772 170.634 22.643 171.215C23.2087 171.795 23.9762 172.122 24.777 172.124H131.685C132.487 172.122 133.255 171.796 133.821 171.215C134.388 170.634 134.707 169.847 134.708 169.026V15.0305C134.707 14.2094 134.388 13.4224 133.821 12.8418C133.255 12.2612 132.487 11.9343 131.685 11.9328H24.777Z" fill="#EBEBEB"/>
<path d="M251.45 172.266H144.536C143.698 172.264 142.895 171.923 142.302 171.315C141.71 170.708 141.376 169.885 141.375 169.026V15.0305C141.383 14.1767 141.72 13.3609 142.312 12.7598C142.904 12.1587 143.703 11.8208 144.536 11.8193H251.45C252.282 11.8223 253.079 12.161 253.668 12.7621C254.258 13.3632 254.593 14.1782 254.6 15.0305V169.026C254.6 169.883 254.269 170.706 253.678 171.313C253.088 171.92 252.286 172.263 251.45 172.266V172.266ZM144.536 11.9328C143.735 11.9343 142.967 12.2612 142.4 12.8418C141.833 13.4224 141.514 14.2094 141.513 15.0305V169.026C141.514 169.847 141.833 170.634 142.4 171.215C142.967 171.796 143.735 172.122 144.536 172.124H251.45C252.251 172.122 253.019 171.796 253.586 171.215C254.152 170.634 254.471 169.847 254.473 169.026V15.0305C254.471 14.2094 254.152 13.4224 253.586 12.8418C253.019 12.2612 252.251 11.9343 251.45 11.9328H144.536Z" fill="#EBEBEB"/>
<path d="M134.642 79.2656H56.0317V197.371H134.642V79.2656Z" fill="#F0F0F0"/>
<path d="M131.863 82.9824H58.8057V104.797H131.863V82.9824Z" fill="#E0E0E0"/>
<path d="M62.9582 86.5107H58.8057V104.791H62.9582V86.5107Z" fill="#EBEBEB"/>
<path d="M83.0285 86.5107H78.876V104.791H83.0285V86.5107Z" fill="#EBEBEB"/>
<path d="M105.808 86.0516L101.716 86.7744L104.746 104.789L108.838 104.066L105.808 86.0516Z" fill="#EBEBEB"/>
<path d="M68.1018 88.9219H63.9492V104.796H68.1018V88.9219Z" fill="#EBEBEB"/>
<path d="M77.6413 88.9219H73.4888V104.796H77.6413V88.9219Z" fill="#EBEBEB"/>
<path d="M101.721 88.9219H97.5684V104.796H101.721V88.9219Z" fill="#EBEBEB"/>
<path d="M88.4828 88.3718L84.4292 89.2949L87.7901 104.791L91.8438 103.868L88.4828 88.3718Z" fill="#EBEBEB"/>
<path d="M71.6895 85.6035H69.6133V104.791H71.6895V85.6035Z" fill="#EBEBEB"/>
<path d="M96.3722 85.6035H94.2959V104.791H96.3722V85.6035Z" fill="#EBEBEB"/>
<path d="M58.8113 130.066H131.868V108.252L58.8113 108.252V130.066Z" fill="#E0E0E0"/>
<path d="M127.71 130.061H131.862V111.781H127.71V130.061Z" fill="#EBEBEB"/>
<path d="M107.645 130.061H111.797V111.781H107.645V130.061Z" fill="#EBEBEB"/>
<path d="M81.8365 129.334L85.9287 130.057L88.959 112.042L84.8668 111.319L81.8365 129.334Z" fill="#EBEBEB"/>
<path d="M122.566 130.066H126.719V114.192H122.566V130.066Z" fill="#EBEBEB"/>
<path d="M113.032 130.066H117.185V114.192H113.032V130.066Z" fill="#EBEBEB"/>
<path d="M88.9529 130.066H93.1055V114.192H88.9529V130.066Z" fill="#EBEBEB"/>
<path d="M98.8433 129.139L102.897 130.062L106.258 114.566L102.204 113.643L98.8433 129.139Z" fill="#EBEBEB"/>
<path d="M118.978 130.061H121.055V110.873H118.978V130.061Z" fill="#EBEBEB"/>
<path d="M94.3017 130.061H96.3779V110.873H94.3017V130.061Z" fill="#EBEBEB"/>
<path d="M62.9582 111.78H58.8057V130.06H62.9582V111.78Z" fill="#EBEBEB"/>
<path d="M68.1018 114.187H63.9492V130.061H68.1018V114.187Z" fill="#EBEBEB"/>
<path d="M77.6413 114.187H73.4888V130.061H77.6413V114.187Z" fill="#EBEBEB"/>
<path d="M71.6895 110.873H69.6133V130.061H71.6895V110.873Z" fill="#EBEBEB"/>
<path d="M131.863 133.516H58.8057V155.33H131.863V133.516Z" fill="#E0E0E0"/>
<path d="M104.893 137.045H100.741V155.325H104.893V137.045Z" fill="#EBEBEB"/>
<path d="M127.676 136.584L123.583 137.307L126.614 155.321L130.706 154.598L127.676 136.584Z" fill="#EBEBEB"/>
<path d="M89.966 139.456H85.8135V155.331H89.966V139.456Z" fill="#EBEBEB"/>
<path d="M99.5061 139.456H95.3535V155.331H99.5061V139.456Z" fill="#EBEBEB"/>
<path d="M123.585 139.456H119.433V155.331H123.585V139.456Z" fill="#EBEBEB"/>
<path d="M110.35 138.906L106.296 139.829L109.657 155.325L113.71 154.402L110.35 138.906Z" fill="#EBEBEB"/>
<path d="M93.5538 136.137H91.4775V155.324H93.5538V136.137Z" fill="#EBEBEB"/>
<path d="M118.237 136.137H116.161V155.324H118.237V136.137Z" fill="#EBEBEB"/>
<path d="M79.9286 136.589L75.8364 137.312L78.8667 155.326L82.9589 154.603L79.9286 136.589Z" fill="#EBEBEB"/>
<path d="M75.8366 139.456H71.6841V155.331H75.8366V139.456Z" fill="#EBEBEB"/>
<path d="M62.6029 138.906L58.5493 139.829L61.9103 155.325L65.9639 154.402L62.6029 138.906Z" fill="#EBEBEB"/>
<path d="M70.4937 136.137H68.4175V155.324H70.4937V136.137Z" fill="#EBEBEB"/>
<path d="M42.4668 197.678H56.0317L56.0317 79.2662H42.4668L42.4668 197.678Z" fill="#E0E0E0"/>
<path d="M180.652 194.585H169.13L175.187 144.012C175.332 142.955 175.839 141.986 176.617 141.276C177.394 140.566 178.393 140.163 179.434 140.137H229.685L222.316 194.563L180.652 194.585Z" fill="#F5F5F5"/>
<path d="M217.194 194.585H228.716L234.779 144.012C234.853 143.526 234.822 143.029 234.688 142.556C234.553 142.084 234.32 141.647 234.003 141.278C233.686 140.908 233.294 140.614 232.854 140.417C232.414 140.22 231.937 140.124 231.457 140.137H227.498C226.459 140.169 225.464 140.575 224.688 141.284C223.912 141.992 223.403 142.958 223.251 144.012L217.194 194.585Z" fill="#F0F0F0"/>
<path d="M212.953 194.506L215.04 170.053C215.084 169.523 215.305 169.024 215.664 168.64C216.024 168.256 216.501 168.009 217.017 167.943L217.875 167.829C218.568 167.74 219.21 167.41 219.693 166.893C220.176 166.377 220.47 165.705 220.527 164.992L220.909 160.533C220.947 160.101 220.896 159.665 220.761 159.254C220.625 158.843 220.407 158.465 220.121 158.145C219.835 157.824 219.487 157.569 219.1 157.394C218.712 157.219 218.293 157.129 217.869 157.129H237.126C237.55 157.129 237.969 157.219 238.356 157.394C238.744 157.569 239.092 157.824 239.378 158.145C239.664 158.465 239.882 158.843 240.017 159.254C240.153 159.665 240.203 160.101 240.166 160.533L239.784 164.992C239.727 165.705 239.432 166.377 238.949 166.893C238.466 167.41 237.824 167.74 237.132 167.829L236.274 167.943C235.758 168.011 235.282 168.257 234.922 168.641C234.563 169.025 234.342 169.523 234.297 170.053L232.21 194.506C232.135 195.365 231.749 196.165 231.128 196.748C230.507 197.33 229.696 197.654 228.854 197.655H209.598C210.44 197.654 211.251 197.33 211.872 196.748C212.493 196.165 212.878 195.365 212.953 194.506V194.506Z" fill="#E6E6E6"/>
<path d="M159.956 163.954C159.803 162.098 158.976 160.368 157.638 159.107C156.3 157.846 154.548 157.146 152.73 157.146H169.496C171.309 157.153 173.053 157.856 174.385 159.116C175.718 160.377 176.541 162.102 176.693 163.954L178.354 183.334H161.611L159.956 163.954Z" fill="#E6E6E6"/>
<path d="M145.283 157.169H152.725C154.543 157.169 156.294 157.869 157.632 159.13C158.97 160.391 159.797 162.121 159.95 163.977L161.611 183.358H201.542L203.203 163.977C203.354 162.125 204.177 160.399 205.509 159.138C206.842 157.878 208.587 157.175 210.401 157.169H217.847C218.271 157.169 218.69 157.259 219.078 157.434C219.465 157.609 219.813 157.865 220.099 158.185C220.385 158.505 220.603 158.883 220.739 159.294C220.874 159.705 220.925 160.141 220.887 160.573L220.505 165.032C220.448 165.745 220.154 166.417 219.671 166.933C219.188 167.45 218.546 167.78 217.853 167.869L216.995 167.983C216.479 168.05 216.002 168.296 215.642 168.68C215.283 169.064 215.062 169.563 215.018 170.093L212.953 194.506C212.878 195.366 212.493 196.165 211.872 196.748C211.251 197.331 210.44 197.654 209.598 197.655H153.555C152.713 197.654 151.902 197.331 151.281 196.748C150.66 196.165 150.275 195.366 150.2 194.506L148.113 170.053C148.067 169.524 147.846 169.026 147.486 168.642C147.127 168.258 146.651 168.012 146.136 167.943L145.278 167.829C144.585 167.74 143.943 167.409 143.459 166.893C142.976 166.377 142.679 165.706 142.62 164.993L142.244 160.533C142.212 160.104 142.267 159.673 142.405 159.266C142.543 158.86 142.762 158.487 143.047 158.171C143.332 157.855 143.678 157.603 144.063 157.431C144.448 157.258 144.863 157.169 145.283 157.169V157.169Z" fill="#F0F0F0"/>
<path d="M57.0282 73.3654C57.0282 73.3654 56.4136 69.2181 59.3647 66.5572C62.3158 63.8963 62.0555 62.3191 61.2084 62.1148C60.3613 61.9106 59.5917 64.5658 58.2961 65.2977C58.2961 65.2977 58.2518 61.5078 59.5696 60.1178C60.8873 58.7278 61.5794 55.1251 60.3226 55.0627C59.0657 55.0003 58.9439 57.1959 58.6615 58.7561C58.3792 60.3163 57.0005 62.5063 57.0005 62.5063C57.0005 62.5063 56.7292 59.1022 55.8932 57.7236C55.0571 56.3449 57.3106 53.1394 56.4469 51.7494C55.5831 50.3594 54.0162 53.0089 54.1436 55.9988C54.2709 58.9887 56.2198 62.1773 55.7658 65.2977C55.7658 65.2977 54.9076 63.102 54.138 62.9035C53.3684 62.7049 52.5878 61.2582 52.0729 60.7192C51.5579 60.1802 50.9046 62.0411 52.0729 63.7658C53.2411 65.4906 56.2198 70.1145 55.7658 73.8476L57.0282 73.3654Z" fill="#E6E6E6"/>
<path d="M58.7892 71.4766L59.7582 77.689C59.8278 78.1401 59.8011 78.6013 59.6801 79.0408C59.5591 79.4803 59.3466 79.8877 59.0572 80.2349C58.7677 80.5822 58.4083 80.861 58.0036 81.0523C57.5989 81.2435 57.1586 81.3426 56.713 81.3428H55.6831C55.2375 81.3426 54.7972 81.2435 54.3925 81.0523C53.9878 80.861 53.6284 80.5822 53.3389 80.2349C53.0495 79.8877 52.837 79.4803 52.716 79.0408C52.595 78.6013 52.5683 78.1401 52.6379 77.689L53.6179 71.4766H58.7892Z" fill="#E6E6E6"/>
<path d="M116.764 80.1279H119.771V66.8803H116.764V80.1279Z" fill="#EBEBEB"/>
<path d="M102.225 80.1279H105.231V66.8803H102.225V80.1279Z" fill="#EBEBEB"/>
<path d="M83.5241 79.6017L86.4868 80.125L88.6829 67.0699L85.7201 66.5466L83.5241 79.6017Z" fill="#EBEBEB"/>
<path d="M113.038 80.123H116.044V68.6229H113.038V80.123Z" fill="#EBEBEB"/>
<path d="M106.128 80.123H109.134V68.6229H106.128V80.123Z" fill="#EBEBEB"/>
<path d="M88.6762 80.123H91.6826V68.6229H88.6762V80.123Z" fill="#EBEBEB"/>
<path d="M95.8464 79.4557L98.7812 80.124L101.216 68.8978L98.2812 68.2294L95.8464 79.4557Z" fill="#EBEBEB"/>
<path d="M110.435 80.1279H111.941V66.2222H110.435V80.1279Z" fill="#EBEBEB"/>
<path d="M92.5463 80.1279H94.0522V66.2222H92.5463V80.1279Z" fill="#EBEBEB"/>
<path d="M81.827 69.6094H67.1714V79.9749H81.827V69.6094Z" fill="#EBEBEB"/>
<path d="M132.089 73.8535H119.814V81.5922H132.089V73.8535Z" fill="#EBEBEB"/>
<path d="M129.221 67.0508H123.081V74.7894H129.221V67.0508Z" fill="#EBEBEB"/>
<path d="M231.795 56.8105H217.194V119.151H231.795V56.8105Z" fill="#E0E0E0"/>
<path d="M175.625 119.32H230.228V56.8154L175.625 56.8154V119.32Z" fill="#E0E0E0"/>
<path d="M173.864 119.32L230.516 119.32V56.8154L173.864 56.8154V119.32Z" fill="#F0F0F0"/>
<path d="M176.289 116.444H228.19V58.8016L176.289 58.8016V116.444Z" fill="white"/>
<path d="M176.284 116.444H177.247V58.8016H176.284V116.444Z" fill="#E0E0E0"/>
<path d="M177.092 100.258V101.812H228.329V100.258H177.092Z" fill="#E0E0E0"/>
<path d="M176.284 100.252H228.999V97.6421H176.284V100.252Z" fill="#F0F0F0"/>
<path d="M138.883 223.191C198.171 223.191 246.234 220.316 246.234 216.769C246.234 213.222 198.171 210.347 138.883 210.347C79.5945 210.347 31.5317 213.222 31.5317 216.769C31.5317 220.316 79.5945 223.191 138.883 223.191Z" fill="#F5F5F5"/>
<path d="M178.72 67.3174H79.6622C77.4239 67.3174 75.6094 69.1767 75.6094 71.4704V190.988C75.6094 193.282 77.4239 195.141 79.6622 195.141H178.72C180.958 195.141 182.772 193.282 182.772 190.988V71.4704C182.772 69.1767 180.958 67.3174 178.72 67.3174Z" fill="#8937C7"/>
<path opacity="0.6" d="M178.72 67.3174H79.6622C77.4239 67.3174 75.6094 69.1767 75.6094 71.4704V190.988C75.6094 193.282 77.4239 195.141 79.6622 195.141H178.72C180.958 195.141 182.772 193.282 182.772 190.988V71.4704C182.772 69.1767 180.958 67.3174 178.72 67.3174Z" fill="white"/>
<path d="M165.415 125.941H92.9727V138.65H165.415V125.941Z" fill="white"/>
<g opacity="0.4">
<path opacity="0.4" d="M99.4507 133.533V133.868H96.937V130.226H99.3732V130.555H97.3135V131.854H99.1517V132.177H97.3135V133.533H99.4507Z" fill="#263238"/>
<path opacity="0.4" d="M99.9546 132.296H101.289V132.614H99.9546V132.296Z" fill="#263238"/>
<path opacity="0.4" d="M106.499 132.279V133.868H106.139V132.314C106.139 131.746 105.857 131.44 105.375 131.44C105.25 131.434 105.126 131.456 105.01 131.504C104.894 131.553 104.79 131.627 104.705 131.721C104.62 131.815 104.557 131.927 104.518 132.049C104.48 132.171 104.468 132.3 104.484 132.427V133.868H104.118V132.314C104.118 131.746 103.836 131.44 103.349 131.44C103.224 131.434 103.099 131.456 102.983 131.504C102.868 131.553 102.764 131.627 102.679 131.721C102.594 131.815 102.53 131.927 102.492 132.049C102.454 132.171 102.442 132.3 102.457 132.427V133.868H102.092V131.128H102.441V131.627C102.545 131.46 102.691 131.323 102.863 131.232C103.035 131.14 103.227 131.097 103.421 131.105C103.616 131.088 103.812 131.133 103.982 131.235C104.151 131.337 104.286 131.489 104.367 131.672C104.478 131.49 104.635 131.34 104.821 131.241C105.007 131.141 105.215 131.094 105.425 131.105C105.575 131.093 105.726 131.116 105.867 131.172C106.007 131.228 106.133 131.316 106.237 131.429C106.34 131.541 106.417 131.676 106.462 131.823C106.508 131.971 106.52 132.127 106.499 132.279V132.279Z" fill="#263238"/>
<path opacity="0.4" d="M109.5 132.166V133.868H109.151V133.437C109.052 133.59 108.914 133.713 108.752 133.793C108.591 133.873 108.411 133.907 108.232 133.89C107.628 133.89 107.257 133.567 107.257 133.096C107.257 132.625 107.523 132.319 108.287 132.319H109.134V132.154C109.134 131.683 108.88 131.428 108.381 131.428C108.056 131.424 107.74 131.539 107.49 131.752L107.329 131.479C107.642 131.221 108.035 131.088 108.437 131.105C108.578 131.087 108.721 131.102 108.856 131.149C108.991 131.196 109.114 131.273 109.216 131.374C109.318 131.476 109.396 131.6 109.446 131.737C109.495 131.874 109.513 132.021 109.5 132.166V132.166ZM109.134 133.045V132.597H108.298C107.783 132.597 107.612 132.801 107.612 133.085C107.612 133.369 107.861 133.601 108.287 133.601C108.468 133.613 108.648 133.566 108.8 133.466C108.952 133.366 109.07 133.218 109.134 133.045Z" fill="#263238"/>
<path opacity="0.4" d="M110.397 130.265C110.398 130.23 110.405 130.195 110.419 130.163C110.433 130.131 110.452 130.102 110.477 130.078C110.502 130.054 110.531 130.035 110.563 130.022C110.595 130.009 110.629 130.003 110.663 130.004C110.696 130.003 110.729 130.009 110.761 130.022C110.792 130.034 110.82 130.053 110.844 130.076C110.869 130.1 110.888 130.128 110.901 130.16C110.915 130.191 110.922 130.225 110.923 130.259C110.924 130.295 110.918 130.33 110.905 130.363C110.892 130.396 110.873 130.426 110.849 130.452C110.824 130.477 110.796 130.497 110.764 130.511C110.732 130.525 110.697 130.532 110.663 130.532C110.628 130.532 110.594 130.526 110.561 130.513C110.529 130.5 110.5 130.48 110.475 130.456C110.45 130.431 110.431 130.401 110.417 130.368C110.404 130.336 110.397 130.3 110.397 130.265V130.265ZM110.48 131.127H110.84V133.868H110.48V131.127Z" fill="#263238"/>
<path opacity="0.4" d="M111.842 130.004H112.202V133.868H111.842V130.004Z" fill="#263238"/>
</g>
<path d="M165.415 143.303H92.9727V156.011H165.415V143.303Z" fill="white"/>
<g opacity="0.4">
<path opacity="0.4" d="M99.7164 148.851C99.7164 149.629 99.1628 150.099 98.2658 150.099H97.3135V151.234H96.937V147.592H98.2658C99.1683 147.603 99.7164 148.074 99.7164 148.851ZM99.34 148.851C99.34 148.284 98.969 147.938 98.2326 147.938H97.2914V149.759H98.2326C98.969 149.759 99.34 149.424 99.34 148.851V148.851Z" fill="#263238"/>
<path opacity="0.4" d="M102.446 149.549V151.251H102.097V150.82C101.998 150.973 101.86 151.097 101.699 151.176C101.537 151.256 101.357 151.29 101.178 151.274C100.575 151.274 100.204 150.95 100.204 150.474C100.204 149.997 100.469 149.685 101.233 149.685H102.081V149.515C102.081 149.05 101.82 148.794 101.322 148.794C100.998 148.79 100.684 148.905 100.436 149.118L100.27 148.84C100.586 148.588 100.977 148.457 101.377 148.471C101.521 148.452 101.666 148.467 101.803 148.514C101.94 148.561 102.065 148.639 102.168 148.743C102.271 148.847 102.349 148.974 102.398 149.113C102.446 149.253 102.462 149.402 102.446 149.549V149.549ZM102.086 150.423V149.974H101.233C100.719 149.974 100.552 150.184 100.552 150.468C100.552 150.752 100.796 150.979 101.228 150.979C101.41 150.993 101.592 150.946 101.747 150.846C101.901 150.746 102.02 150.597 102.086 150.423Z" fill="#263238"/>
<path opacity="0.4" d="M103.055 150.934L103.216 150.644C103.495 150.844 103.827 150.951 104.168 150.951C104.672 150.951 104.882 150.775 104.882 150.502C104.882 149.788 103.149 150.349 103.149 149.271C103.149 148.823 103.526 148.488 104.207 148.488C104.539 148.485 104.866 148.573 105.154 148.744L104.993 149.039C104.76 148.881 104.486 148.8 104.207 148.806C103.725 148.806 103.509 148.999 103.509 149.26C103.509 149.997 105.242 149.441 105.242 150.491C105.242 150.968 104.838 151.274 104.135 151.274C103.748 151.284 103.369 151.165 103.055 150.934Z" fill="#263238"/>
<path opacity="0.4" d="M105.536 150.934L105.702 150.644C105.978 150.846 106.309 150.954 106.649 150.951C107.158 150.951 107.363 150.775 107.363 150.503C107.363 149.788 105.635 150.349 105.635 149.271C105.635 148.823 106.012 148.488 106.687 148.488C107.02 148.484 107.347 148.572 107.634 148.744L107.479 149.039C107.244 148.882 106.968 148.801 106.687 148.806C106.206 148.806 105.995 148.999 105.995 149.26C105.995 149.998 107.728 149.442 107.728 150.491C107.728 150.968 107.318 151.274 106.621 151.274C106.233 151.284 105.852 151.164 105.536 150.934V150.934Z" fill="#263238"/>
<path opacity="0.4" d="M112.257 148.511L111.249 151.245H110.912L110.092 149.004L109.251 151.245H108.913L107.877 148.511H108.221L109.062 150.837L109.92 148.511H110.231L111.083 150.837L111.93 148.511H112.257Z" fill="#263238"/>
<path opacity="0.4" d="M112.456 149.878C112.456 149.602 112.536 149.332 112.686 149.103C112.836 148.873 113.048 148.694 113.297 148.589C113.546 148.483 113.82 148.455 114.084 148.509C114.348 148.563 114.591 148.696 114.781 148.891C114.972 149.086 115.102 149.335 115.154 149.606C115.207 149.877 115.18 150.157 115.077 150.412C114.974 150.667 114.799 150.885 114.575 151.039C114.351 151.192 114.088 151.274 113.818 151.274C113.638 151.28 113.458 151.248 113.29 151.18C113.122 151.113 112.969 151.01 112.842 150.879C112.714 150.748 112.614 150.592 112.547 150.42C112.481 150.247 112.45 150.063 112.456 149.878V149.878ZM114.809 149.878C114.801 149.678 114.735 149.485 114.62 149.323C114.505 149.161 114.346 149.037 114.163 148.967C113.98 148.897 113.781 148.883 113.591 148.928C113.4 148.973 113.227 149.074 113.092 149.219C112.957 149.364 112.867 149.547 112.833 149.744C112.798 149.941 112.821 150.144 112.899 150.328C112.976 150.512 113.105 150.668 113.268 150.778C113.432 150.888 113.623 150.946 113.818 150.945C113.954 150.947 114.088 150.921 114.212 150.868C114.337 150.815 114.45 150.735 114.543 150.635C114.636 150.535 114.708 150.416 114.754 150.285C114.8 150.155 114.819 150.016 114.809 149.878V149.878Z" fill="#263238"/>
<path opacity="0.4" d="M117.257 148.489V148.846H117.168C117.041 148.84 116.915 148.862 116.798 148.912C116.68 148.961 116.575 149.037 116.49 149.133C116.404 149.228 116.34 149.342 116.302 149.467C116.264 149.591 116.254 149.722 116.271 149.85V151.246H115.911V148.511H116.254V149.045C116.348 148.86 116.493 148.708 116.672 148.609C116.851 148.509 117.054 148.468 117.257 148.489V148.489Z" fill="#263238"/>
<path opacity="0.4" d="M120.319 147.416V151.274H119.975V150.735C119.868 150.914 119.716 151.061 119.535 151.161C119.354 151.261 119.151 151.309 118.946 151.302C118.6 151.28 118.276 151.123 118.039 150.864C117.802 150.606 117.67 150.264 117.67 149.91C117.67 149.555 117.802 149.213 118.039 148.955C118.276 148.696 118.6 148.539 118.946 148.517C119.148 148.512 119.348 148.562 119.526 148.662C119.704 148.761 119.853 148.907 119.959 149.084V147.416H120.319ZM119.964 149.907C119.956 149.707 119.89 149.514 119.775 149.352C119.66 149.19 119.501 149.066 119.318 148.996C119.135 148.925 118.936 148.912 118.746 148.957C118.555 149.002 118.382 149.103 118.247 149.248C118.112 149.393 118.022 149.575 117.988 149.772C117.953 149.97 117.976 150.173 118.054 150.357C118.131 150.54 118.26 150.697 118.423 150.807C118.587 150.916 118.778 150.974 118.973 150.973C119.111 150.976 119.248 150.949 119.375 150.894C119.501 150.839 119.615 150.757 119.709 150.654C119.803 150.551 119.874 150.428 119.918 150.294C119.962 150.161 119.978 150.019 119.964 149.878V149.907Z" fill="#263238"/>
</g>
<path opacity="0.2" d="M165.415 168.976H92.9727V181.684H165.415V168.976Z" fill="black"/>
<g opacity="0.5">
<path opacity="0.5" d="M110.591 163.137H109.406L109.151 163.704H108.918L109.887 161.531H110.109L111.078 163.704H110.845L110.591 163.137ZM110.507 162.95L109.998 161.781L109.489 162.95H110.507Z" fill="black"/>
<path opacity="0.5" d="M111.388 161.412H111.604V163.716H111.388V161.412Z" fill="black"/>
<path opacity="0.5" d="M113.01 162.07V162.285H112.955C112.877 162.279 112.8 162.29 112.727 162.318C112.655 162.346 112.589 162.391 112.536 162.449C112.483 162.507 112.443 162.576 112.42 162.652C112.396 162.728 112.39 162.808 112.401 162.887V163.721H112.185V162.087H112.395V162.405C112.451 162.29 112.54 162.196 112.65 162.136C112.761 162.076 112.886 162.053 113.01 162.07V162.07Z" fill="black"/>
<path opacity="0.5" d="M114.771 162.966H113.414C113.418 163.046 113.438 163.123 113.472 163.195C113.506 163.267 113.553 163.331 113.611 163.384C113.669 163.436 113.737 163.477 113.811 163.503C113.884 163.528 113.962 163.539 114.04 163.533C114.132 163.537 114.223 163.52 114.308 163.483C114.394 163.447 114.47 163.393 114.533 163.323L114.649 163.465C114.534 163.588 114.387 163.674 114.225 163.712C114.063 163.749 113.894 163.737 113.739 163.676C113.584 163.616 113.45 163.509 113.354 163.371C113.258 163.232 113.204 163.068 113.198 162.898C113.193 162.79 113.209 162.682 113.246 162.581C113.283 162.48 113.34 162.388 113.413 162.31C113.486 162.233 113.574 162.171 113.672 162.13C113.769 162.088 113.874 162.068 113.979 162.07C114.084 162.067 114.189 162.087 114.286 162.128C114.384 162.169 114.472 162.231 114.545 162.309C114.618 162.387 114.674 162.479 114.71 162.581C114.746 162.682 114.761 162.79 114.754 162.898C114.754 162.898 114.771 162.943 114.771 162.966ZM113.436 162.801H114.544C114.544 162.651 114.485 162.507 114.381 162.4C114.278 162.294 114.137 162.234 113.99 162.234C113.843 162.234 113.702 162.294 113.598 162.4C113.495 162.507 113.436 162.651 113.436 162.801Z" fill="black"/>
<path opacity="0.5" d="M116.371 162.733V163.743H116.183V163.488C116.124 163.581 116.041 163.656 115.943 163.704C115.846 163.752 115.737 163.772 115.629 163.76C115.269 163.76 115.075 163.567 115.075 163.284C115.075 163 115.23 162.819 115.69 162.819H116.183V162.722C116.183 162.444 116.028 162.291 115.729 162.291C115.527 162.283 115.33 162.352 115.175 162.484L115.081 162.319C115.264 162.169 115.494 162.091 115.729 162.098C115.814 162.083 115.902 162.089 115.985 162.115C116.068 162.141 116.144 162.187 116.207 162.249C116.269 162.311 116.317 162.387 116.345 162.471C116.374 162.555 116.382 162.645 116.371 162.733ZM116.16 163.255V162.983H115.657C115.346 162.983 115.247 163.108 115.247 163.278C115.247 163.448 115.396 163.584 115.651 163.584C115.766 163.593 115.88 163.563 115.976 163.499C116.072 163.434 116.145 163.338 116.183 163.227L116.16 163.255Z" fill="black"/>
<path opacity="0.5" d="M118.397 161.412V163.716H118.192V163.392C118.13 163.5 118.039 163.589 117.931 163.649C117.823 163.709 117.701 163.738 117.578 163.733C117.374 163.715 117.185 163.62 117.046 163.466C116.908 163.312 116.831 163.111 116.831 162.901C116.831 162.692 116.908 162.49 117.046 162.336C117.185 162.183 117.374 162.087 117.578 162.07C117.698 162.067 117.817 162.095 117.923 162.151C118.03 162.208 118.12 162.291 118.187 162.394V161.412H118.397ZM118.187 162.899C118.181 162.78 118.142 162.665 118.074 162.569C118.006 162.473 117.911 162.4 117.803 162.358C117.694 162.317 117.576 162.309 117.463 162.335C117.35 162.362 117.247 162.422 117.167 162.508C117.087 162.593 117.033 162.702 117.012 162.819C116.992 162.935 117.005 163.056 117.05 163.165C117.096 163.275 117.172 163.368 117.268 163.433C117.365 163.499 117.479 163.534 117.594 163.534C117.677 163.539 117.76 163.526 117.837 163.496C117.914 163.466 117.984 163.419 118.042 163.359C118.1 163.299 118.145 163.226 118.174 163.147C118.203 163.068 118.215 162.983 118.209 162.899H118.187Z" fill="black"/>
<path opacity="0.5" d="M120.363 162.081L119.566 163.914C119.433 164.231 119.261 164.333 119.012 164.333C118.869 164.337 118.73 164.285 118.625 164.186L118.724 164.021C118.802 164.101 118.908 164.146 119.018 164.146C119.162 164.146 119.256 164.078 119.35 163.868L119.416 163.715L118.702 162.081H118.951L119.555 163.471L120.153 162.081H120.363Z" fill="black"/>
<path opacity="0.5" d="M122.666 162.733V163.743H122.461V163.488C122.403 163.581 122.32 163.656 122.222 163.704C122.124 163.752 122.015 163.772 121.908 163.76C121.548 163.76 121.354 163.567 121.354 163.284C121.354 163 121.509 162.819 121.969 162.819H122.472V162.722C122.472 162.444 122.323 162.291 122.024 162.291C121.823 162.283 121.625 162.352 121.47 162.484L121.371 162.319C121.556 162.169 121.788 162.091 122.024 162.098C122.11 162.083 122.198 162.089 122.281 162.115C122.364 162.141 122.44 162.187 122.502 162.249C122.565 162.311 122.612 162.387 122.641 162.471C122.669 162.555 122.678 162.645 122.666 162.733ZM122.45 163.255V162.983H121.952C121.642 162.983 121.542 163.108 121.542 163.278C121.542 163.448 121.692 163.584 121.946 163.584C122.057 163.589 122.166 163.557 122.257 163.492C122.348 163.428 122.416 163.335 122.45 163.227V163.255Z" fill="black"/>
<path opacity="0.5" d="M126.702 162.768V163.716H126.492V162.791C126.492 162.445 126.32 162.269 126.032 162.269C125.958 162.263 125.884 162.274 125.814 162.3C125.744 162.326 125.681 162.368 125.628 162.422C125.575 162.476 125.535 162.541 125.509 162.612C125.483 162.684 125.473 162.76 125.479 162.836V163.693H125.268V162.791C125.268 162.445 125.097 162.269 124.803 162.269C124.729 162.263 124.655 162.274 124.585 162.3C124.515 162.326 124.451 162.368 124.399 162.422C124.346 162.476 124.306 162.541 124.28 162.612C124.254 162.684 124.244 162.76 124.25 162.836V163.693H124.034V162.059H124.239V162.36C124.3 162.258 124.386 162.175 124.49 162.12C124.593 162.065 124.709 162.04 124.825 162.048C124.942 162.038 125.058 162.067 125.157 162.129C125.256 162.191 125.334 162.284 125.379 162.394C125.444 162.283 125.536 162.192 125.648 162.131C125.759 162.07 125.884 162.041 126.01 162.048C126.106 162.03 126.204 162.037 126.297 162.067C126.389 162.097 126.473 162.15 126.542 162.221C126.61 162.292 126.66 162.379 126.688 162.474C126.716 162.57 126.721 162.67 126.702 162.768V162.768Z" fill="black"/>
<path opacity="0.5" d="M128.662 162.967H127.328C127.34 163.127 127.412 163.277 127.53 163.383C127.648 163.489 127.802 163.544 127.959 163.534C128.051 163.538 128.141 163.521 128.226 163.485C128.31 163.448 128.385 163.394 128.447 163.324L128.568 163.466C128.491 163.553 128.395 163.622 128.289 163.668C128.183 163.714 128.069 163.736 127.954 163.733C127.844 163.74 127.734 163.724 127.631 163.685C127.528 163.645 127.434 163.585 127.355 163.506C127.276 163.427 127.214 163.333 127.174 163.228C127.133 163.124 127.114 163.011 127.118 162.899C127.118 162.688 127.199 162.486 127.345 162.337C127.49 162.188 127.687 162.104 127.893 162.104C128.098 162.104 128.296 162.188 128.441 162.337C128.586 162.486 128.668 162.688 128.668 162.899C128.668 162.899 128.662 162.944 128.662 162.967ZM127.328 162.802H128.463C128.463 162.648 128.403 162.5 128.297 162.391C128.191 162.282 128.046 162.221 127.896 162.221C127.745 162.221 127.601 162.282 127.494 162.391C127.388 162.5 127.328 162.648 127.328 162.802V162.802Z" fill="black"/>
<path opacity="0.5" d="M131.741 162.768V163.716H131.525V162.791C131.525 162.445 131.359 162.269 131.071 162.269C130.997 162.262 130.922 162.272 130.851 162.298C130.781 162.324 130.717 162.365 130.664 162.42C130.612 162.474 130.571 162.539 130.546 162.611C130.52 162.683 130.511 162.76 130.517 162.836V163.693H130.301V162.791C130.301 162.445 130.135 162.269 129.842 162.269C129.767 162.262 129.692 162.272 129.622 162.298C129.552 162.324 129.488 162.365 129.435 162.42C129.382 162.474 129.342 162.539 129.316 162.611C129.291 162.683 129.281 162.76 129.288 162.836V163.693H129.072V162.059H129.277V162.36C129.338 162.258 129.424 162.175 129.528 162.119C129.631 162.064 129.748 162.04 129.864 162.048C129.98 162.038 130.096 162.067 130.195 162.129C130.295 162.191 130.373 162.284 130.418 162.394C130.482 162.283 130.575 162.192 130.686 162.131C130.797 162.07 130.923 162.041 131.049 162.048C131.145 162.03 131.243 162.037 131.335 162.067C131.428 162.097 131.512 162.15 131.58 162.221C131.648 162.292 131.699 162.379 131.727 162.474C131.755 162.57 131.76 162.67 131.741 162.768V162.768Z" fill="black"/>
<path opacity="0.5" d="M133.944 162.899C133.95 163.008 133.933 163.117 133.895 163.219C133.858 163.321 133.8 163.414 133.726 163.492C133.652 163.571 133.562 163.632 133.464 163.674C133.365 163.715 133.259 163.735 133.153 163.733C133.03 163.738 132.908 163.709 132.799 163.649C132.691 163.589 132.601 163.5 132.538 163.392V163.716H132.328V161.412H132.544V162.394C132.61 162.291 132.7 162.207 132.807 162.151C132.914 162.094 133.033 162.066 133.153 162.07C133.259 162.067 133.365 162.086 133.463 162.127C133.562 162.168 133.651 162.229 133.726 162.307C133.8 162.384 133.858 162.477 133.895 162.579C133.933 162.681 133.95 162.79 133.944 162.899ZM133.728 162.899C133.723 162.78 133.684 162.665 133.615 162.569C133.547 162.473 133.453 162.4 133.344 162.358C133.236 162.317 133.117 162.309 133.004 162.335C132.891 162.362 132.788 162.422 132.708 162.508C132.628 162.593 132.574 162.702 132.554 162.819C132.533 162.935 132.546 163.056 132.592 163.165C132.637 163.275 132.713 163.368 132.81 163.433C132.907 163.499 133.02 163.534 133.136 163.534C133.217 163.536 133.297 163.52 133.371 163.489C133.446 163.457 133.513 163.41 133.569 163.35C133.624 163.29 133.667 163.219 133.695 163.141C133.722 163.064 133.734 162.981 133.728 162.899V162.899Z" fill="black"/>
<path opacity="0.5" d="M135.777 162.966H134.454C134.458 163.046 134.478 163.124 134.512 163.195C134.545 163.267 134.593 163.331 134.651 163.384C134.709 163.437 134.777 163.477 134.851 163.503C134.924 163.528 135.002 163.539 135.08 163.534C135.172 163.533 135.262 163.513 135.346 163.472C135.429 163.432 135.503 163.374 135.561 163.301L135.683 163.443C135.569 163.566 135.421 163.652 135.259 163.689C135.098 163.727 134.929 163.714 134.773 163.654C134.618 163.593 134.484 163.487 134.388 163.348C134.292 163.21 134.238 163.045 134.232 162.875C134.227 162.768 134.243 162.66 134.28 162.559C134.317 162.458 134.374 162.365 134.447 162.288C134.521 162.21 134.609 162.149 134.706 162.107C134.803 162.066 134.908 162.045 135.013 162.047C135.118 162.044 135.223 162.064 135.32 162.106C135.417 162.147 135.505 162.208 135.577 162.286C135.65 162.364 135.705 162.457 135.741 162.559C135.776 162.66 135.79 162.768 135.783 162.875L135.777 162.966ZM134.443 162.802H135.55C135.55 162.651 135.492 162.507 135.388 162.401C135.284 162.294 135.143 162.234 134.996 162.234C134.85 162.234 134.709 162.294 134.605 162.401C134.501 162.507 134.443 162.651 134.443 162.802Z" fill="black"/>
<path opacity="0.5" d="M137.023 162.07V162.286H136.973C136.895 162.279 136.818 162.29 136.745 162.319C136.673 162.347 136.607 162.392 136.554 162.45C136.501 162.507 136.461 162.577 136.438 162.653C136.414 162.728 136.408 162.809 136.419 162.887V163.721H136.203V162.087H136.408V162.405C136.464 162.291 136.553 162.198 136.663 162.138C136.773 162.078 136.899 162.054 137.023 162.07V162.07Z" fill="black"/>
<path opacity="0.5" d="M138.418 162.099C138.418 161.872 138.241 161.719 137.931 161.719C137.822 161.712 137.713 161.732 137.612 161.775C137.511 161.818 137.422 161.884 137.35 161.968L137.189 161.844C137.283 161.734 137.401 161.649 137.532 161.593C137.663 161.537 137.805 161.512 137.947 161.52C138.374 161.52 138.645 161.73 138.645 162.087C138.645 162.615 138.091 162.655 138.091 163.086H137.864C137.864 162.553 138.418 162.502 138.418 162.099ZM137.82 163.568C137.827 163.531 137.847 163.497 137.875 163.472C137.904 163.448 137.941 163.434 137.978 163.434C138.015 163.434 138.052 163.448 138.08 163.472C138.109 163.497 138.129 163.531 138.136 163.568C138.14 163.592 138.139 163.617 138.133 163.64C138.127 163.663 138.117 163.685 138.102 163.704C138.086 163.722 138.068 163.737 138.046 163.748C138.025 163.758 138.002 163.763 137.978 163.763C137.954 163.763 137.931 163.758 137.91 163.748C137.888 163.737 137.869 163.722 137.854 163.704C137.839 163.685 137.828 163.663 137.822 163.64C137.817 163.617 137.816 163.592 137.82 163.568V163.568Z" fill="black"/>
<path opacity="0.5" d="M139.918 161.542H140.411V163.301H141.474V163.709H139.918V161.542Z" fill="black"/>
<path opacity="0.5" d="M141.585 162.881C141.574 162.697 141.617 162.514 141.709 162.356C141.8 162.198 141.936 162.071 142.099 161.993C142.261 161.914 142.443 161.888 142.621 161.917C142.798 161.945 142.963 162.028 143.094 162.154C143.225 162.28 143.316 162.444 143.356 162.623C143.395 162.803 143.381 162.99 143.315 163.162C143.249 163.333 143.134 163.48 142.986 163.584C142.837 163.687 142.662 163.743 142.482 163.743C142.367 163.751 142.252 163.735 142.143 163.695C142.034 163.655 141.935 163.593 141.851 163.512C141.767 163.431 141.7 163.333 141.654 163.225C141.608 163.116 141.585 162.999 141.585 162.881V162.881ZM142.897 162.881C142.891 162.799 142.861 162.72 142.812 162.655C142.762 162.589 142.696 162.54 142.619 162.513C142.543 162.486 142.461 162.482 142.383 162.502C142.304 162.522 142.234 162.565 142.179 162.626C142.124 162.687 142.088 162.762 142.074 162.844C142.061 162.925 142.071 163.009 142.103 163.085C142.135 163.161 142.188 163.225 142.255 163.271C142.323 163.316 142.401 163.34 142.482 163.341C142.54 163.342 142.597 163.33 142.65 163.307C142.703 163.284 142.751 163.25 142.79 163.206C142.829 163.163 142.859 163.111 142.878 163.055C142.896 162.999 142.903 162.94 142.897 162.881V162.881Z" fill="black"/>
<path opacity="0.5" d="M145.378 162.042V163.438C145.393 163.563 145.38 163.691 145.339 163.81C145.298 163.929 145.23 164.037 145.142 164.125C145.053 164.213 144.946 164.278 144.828 164.317C144.711 164.355 144.586 164.365 144.464 164.346C144.179 164.357 143.898 164.275 143.661 164.113L143.85 163.767C144.011 163.885 144.205 163.951 144.403 163.954C144.736 163.954 144.885 163.801 144.885 163.5V163.426C144.819 163.497 144.739 163.552 144.65 163.589C144.561 163.625 144.466 163.641 144.37 163.636C144.261 163.646 144.151 163.632 144.047 163.595C143.944 163.559 143.849 163.501 143.768 163.425C143.687 163.349 143.623 163.257 143.579 163.154C143.535 163.051 143.512 162.94 143.512 162.828C143.512 162.716 143.535 162.605 143.579 162.502C143.623 162.399 143.687 162.307 143.768 162.231C143.849 162.155 143.944 162.097 144.047 162.06C144.151 162.024 144.261 162.01 144.37 162.019C144.474 162.011 144.579 162.028 144.675 162.07C144.772 162.111 144.857 162.176 144.924 162.258V162.042H145.378ZM144.913 162.831C144.914 162.774 144.904 162.717 144.883 162.665C144.862 162.612 144.831 162.565 144.79 162.526C144.75 162.486 144.702 162.457 144.65 162.438C144.597 162.419 144.542 162.412 144.486 162.417C144.43 162.41 144.372 162.415 144.318 162.433C144.263 162.45 144.213 162.48 144.171 162.518C144.128 162.557 144.094 162.605 144.07 162.658C144.047 162.712 144.035 162.769 144.035 162.828C144.035 162.886 144.047 162.944 144.07 162.998C144.094 163.051 144.128 163.099 144.171 163.137C144.213 163.176 144.263 163.205 144.318 163.223C144.372 163.241 144.43 163.246 144.486 163.239C144.541 163.244 144.596 163.237 144.648 163.218C144.7 163.2 144.748 163.171 144.788 163.132C144.828 163.094 144.86 163.047 144.882 162.995C144.903 162.943 144.914 162.887 144.913 162.831V162.831Z" fill="black"/>
<path opacity="0.5" d="M146.634 161.542C146.635 161.504 146.643 161.467 146.658 161.432C146.674 161.398 146.696 161.367 146.723 161.341C146.751 161.316 146.783 161.296 146.818 161.284C146.854 161.272 146.891 161.267 146.928 161.27C146.964 161.266 147.001 161.27 147.035 161.281C147.07 161.292 147.102 161.311 147.13 161.335C147.157 161.36 147.18 161.39 147.195 161.423C147.211 161.457 147.22 161.494 147.221 161.531C147.221 161.611 147.19 161.687 147.135 161.744C147.08 161.8 147.006 161.832 146.928 161.832C146.85 161.832 146.775 161.8 146.72 161.744C146.665 161.687 146.634 161.611 146.634 161.531V161.542ZM146.69 162.042H147.16V163.744H146.69V162.042Z" fill="black"/>
<path opacity="0.5" d="M149.259 162.734V163.693H148.788V162.813C148.788 162.541 148.666 162.416 148.456 162.416C148.246 162.416 148.063 162.558 148.063 162.864V163.693H147.592V161.991H148.046V162.189C148.118 162.114 148.204 162.055 148.3 162.017C148.395 161.979 148.498 161.962 148.6 161.968C148.696 161.963 148.791 161.98 148.879 162.018C148.968 162.057 149.046 162.115 149.11 162.188C149.173 162.262 149.219 162.349 149.245 162.444C149.271 162.538 149.276 162.637 149.259 162.734V162.734Z" fill="black"/>
</g>
<path d="M165.415 168.198H92.9727V180.907H165.415V168.198Z" fill="#8937C7"/>
<path d="M119.837 176.527L118.951 175.216H118.685H117.633V176.538H117.024V172.187H118.685C119.792 172.187 120.451 172.754 120.451 173.707C120.465 174.009 120.382 174.307 120.213 174.555C120.045 174.803 119.802 174.988 119.521 175.08L120.529 176.538L119.837 176.527ZM119.837 173.69C119.837 173.066 119.432 172.714 118.652 172.714H117.622V174.672H118.652C119.416 174.677 119.82 174.314 119.82 173.696L119.837 173.69Z" fill="white"/>
<path d="M124.222 175.08H121.614C121.655 175.36 121.797 175.615 122.012 175.793C122.228 175.972 122.5 176.061 122.777 176.044C122.951 176.05 123.124 176.018 123.284 175.95C123.445 175.881 123.589 175.778 123.707 175.647L124.028 176.033C123.791 176.279 123.49 176.45 123.16 176.526C122.831 176.601 122.487 176.577 122.17 176.458C121.853 176.338 121.577 176.127 121.374 175.85C121.172 175.574 121.051 175.243 121.027 174.898C121.016 174.675 121.049 174.452 121.126 174.244C121.202 174.035 121.32 173.844 121.472 173.685C121.624 173.525 121.806 173.399 122.008 173.315C122.21 173.231 122.426 173.19 122.644 173.196C122.86 173.19 123.076 173.23 123.276 173.315C123.476 173.399 123.657 173.525 123.807 173.686C123.957 173.846 124.072 174.037 124.145 174.246C124.219 174.454 124.248 174.677 124.233 174.898C124.233 174.949 124.227 175.023 124.222 175.08ZM121.614 174.648H123.674C123.647 174.387 123.527 174.146 123.337 173.97C123.147 173.794 122.9 173.697 122.644 173.697C122.388 173.697 122.141 173.794 121.951 173.97C121.76 174.146 121.64 174.387 121.614 174.648V174.648Z" fill="white"/>
<path d="M128.12 173.236V176.073C128.12 177.236 127.538 177.775 126.459 177.775C125.908 177.799 125.366 177.627 124.925 177.287L125.202 176.827C125.556 177.109 125.994 177.259 126.442 177.253C127.201 177.253 127.549 176.895 127.549 176.147V175.886C127.406 176.054 127.228 176.187 127.028 176.276C126.827 176.364 126.61 176.405 126.392 176.396C125.98 176.396 125.584 176.228 125.292 175.929C125 175.63 124.836 175.225 124.836 174.802C124.836 174.379 125 173.974 125.292 173.675C125.584 173.376 125.98 173.208 126.392 173.208C126.62 173.201 126.846 173.248 127.053 173.347C127.26 173.445 127.441 173.592 127.583 173.775V173.264L128.12 173.236ZM127.566 174.796C127.578 174.57 127.524 174.344 127.41 174.15C127.296 173.955 127.127 173.8 126.926 173.705C126.725 173.609 126.501 173.577 126.282 173.614C126.064 173.65 125.861 173.753 125.7 173.909C125.539 174.065 125.427 174.267 125.379 174.489C125.331 174.71 125.349 174.941 125.431 175.152C125.513 175.363 125.654 175.544 125.838 175.672C126.021 175.8 126.237 175.868 126.459 175.869C126.6 175.877 126.742 175.856 126.875 175.805C127.009 175.755 127.13 175.677 127.233 175.577C127.335 175.476 127.416 175.355 127.471 175.22C127.525 175.086 127.552 174.942 127.549 174.796H127.566Z" fill="white"/>
<path d="M129.127 172.215C129.128 172.162 129.139 172.111 129.159 172.063C129.179 172.015 129.208 171.972 129.245 171.935C129.281 171.899 129.324 171.87 129.372 171.851C129.419 171.832 129.47 171.822 129.521 171.823C129.574 171.816 129.629 171.822 129.68 171.838C129.732 171.855 129.779 171.882 129.82 171.919C129.86 171.956 129.893 172.001 129.915 172.051C129.937 172.102 129.948 172.156 129.948 172.212C129.948 172.267 129.937 172.322 129.915 172.372C129.893 172.423 129.86 172.468 129.82 172.505C129.779 172.541 129.732 172.569 129.68 172.586C129.629 172.602 129.574 172.607 129.521 172.6C129.47 172.602 129.419 172.593 129.372 172.574C129.325 172.556 129.282 172.528 129.245 172.492C129.209 172.456 129.179 172.413 129.159 172.365C129.139 172.318 129.128 172.267 129.127 172.215V172.215ZM129.233 173.236H129.814V176.526H129.233V173.236Z" fill="white"/>
<path d="M130.517 176.18L130.761 175.709C131.091 175.929 131.475 176.047 131.868 176.05C132.422 176.05 132.632 175.879 132.632 175.601C132.632 174.864 130.6 175.505 130.6 174.189C130.6 173.621 131.115 173.201 131.94 173.201C132.348 173.195 132.751 173.299 133.108 173.502L132.859 173.973C132.583 173.795 132.261 173.704 131.934 173.712C131.425 173.712 131.176 173.905 131.176 174.166C131.176 174.943 133.213 174.308 133.213 175.59C133.213 176.157 132.66 176.566 131.824 176.566C131.361 176.573 130.906 176.439 130.517 176.18V176.18Z" fill="white"/>
<path d="M135.771 176.351C135.57 176.508 135.321 176.59 135.068 176.583C134.931 176.599 134.793 176.584 134.663 176.537C134.533 176.491 134.415 176.416 134.317 176.317C134.219 176.218 134.145 176.098 134.098 175.965C134.052 175.832 134.035 175.691 134.049 175.551V173.741H133.496V173.253H134.049V172.532H134.603V173.253H135.561V173.741H134.636V175.528C134.623 175.601 134.627 175.676 134.647 175.747C134.667 175.819 134.702 175.884 134.751 175.939C134.8 175.994 134.86 176.037 134.928 176.064C134.995 176.091 135.068 176.102 135.14 176.095C135.304 176.097 135.463 176.043 135.594 175.942L135.771 176.351Z" fill="white"/>
<path d="M139.259 175.079H136.668C136.709 175.361 136.852 175.617 137.068 175.795C137.285 175.974 137.559 176.063 137.836 176.044C138.009 176.051 138.182 176.019 138.341 175.95C138.501 175.881 138.644 175.778 138.761 175.647L139.082 176.033C138.846 176.28 138.545 176.451 138.215 176.527C137.886 176.603 137.542 176.579 137.226 176.459C136.909 176.34 136.633 176.128 136.431 175.851C136.229 175.574 136.109 175.243 136.087 174.898C136.075 174.675 136.109 174.452 136.185 174.243C136.262 174.035 136.38 173.844 136.532 173.684C136.684 173.525 136.866 173.399 137.068 173.315C137.269 173.23 137.486 173.19 137.703 173.196C137.92 173.191 138.135 173.232 138.335 173.316C138.534 173.401 138.715 173.527 138.864 173.688C139.014 173.848 139.129 174.038 139.203 174.247C139.277 174.455 139.307 174.677 139.292 174.898C139.287 174.959 139.276 175.02 139.259 175.079V175.079ZM136.668 174.648H138.733C138.701 174.391 138.579 174.154 138.389 173.982C138.199 173.811 137.954 173.716 137.701 173.716C137.447 173.716 137.203 173.811 137.013 173.982C136.822 174.154 136.7 174.391 136.668 174.648V174.648Z" fill="white"/>
<path d="M141.812 173.202V173.77H141.679C141.535 173.759 141.391 173.782 141.257 173.837C141.123 173.892 141.002 173.977 140.905 174.086C140.807 174.195 140.735 174.325 140.694 174.467C140.653 174.609 140.643 174.758 140.666 174.904V176.544H140.084V173.253H140.638V173.821C140.755 173.613 140.928 173.444 141.136 173.334C141.344 173.225 141.579 173.179 141.812 173.202Z" fill="white"/>
<g opacity="0.6">
<path opacity="0.6" d="M116.509 81.3815L116.758 80.8482C117.188 81.2172 117.731 81.4182 118.292 81.4155C119.095 81.4155 119.438 81.0978 119.438 80.6836C119.438 79.5489 116.626 80.2524 116.626 78.488C116.626 77.7504 117.179 77.1264 118.403 77.1264C118.93 77.1176 119.449 77.2632 119.898 77.5462L119.676 78.1135C119.296 77.8641 118.854 77.7303 118.403 77.7277C117.611 77.7277 117.295 78.0682 117.295 78.4823C117.295 79.617 120.114 78.9135 120.114 80.6666C120.114 81.3928 119.56 82.0169 118.314 82.0169C117.658 82.031 117.018 81.8058 116.509 81.3815V81.3815Z" fill="#263238"/>
<path opacity="0.6" d="M120.855 77.2003C120.856 77.1432 120.868 77.0868 120.89 77.0344C120.912 76.9819 120.944 76.9346 120.985 76.895C121.025 76.8554 121.072 76.8244 121.124 76.8037C121.176 76.7831 121.232 76.7733 121.287 76.7748C121.342 76.7725 121.397 76.7814 121.449 76.8011C121.5 76.8207 121.548 76.8507 121.588 76.8893C121.628 76.9278 121.66 76.9741 121.683 77.0256C121.705 77.077 121.718 77.1325 121.719 77.1889C121.719 77.3063 121.674 77.4189 121.593 77.5018C121.512 77.5848 121.402 77.6315 121.287 77.6315C121.173 77.6315 121.063 77.5848 120.982 77.5018C120.901 77.4189 120.855 77.3063 120.855 77.1889V77.2003ZM120.966 78.335H121.608V81.9433H120.966V78.335Z" fill="#263238"/>
<path opacity="0.6" d="M126.187 78.3175V81.4323C126.187 82.7088 125.556 83.2875 124.366 83.2875C123.768 83.3069 123.182 83.1168 122.705 82.7485L123.009 82.2436C123.395 82.5562 123.874 82.7225 124.366 82.7145C125.196 82.7145 125.573 82.3173 125.573 81.5004V81.2167C125.416 81.4021 125.221 81.5493 125.002 81.6475C124.782 81.7456 124.544 81.7923 124.305 81.784C124.073 81.7976 123.841 81.7625 123.623 81.6809C123.405 81.5994 123.206 81.4731 123.037 81.3098C122.868 81.1464 122.734 80.9495 122.642 80.7311C122.55 80.5126 122.502 80.2773 122.502 80.0394C122.502 79.8016 122.55 79.5662 122.642 79.3478C122.734 79.1293 122.868 78.9324 123.037 78.7691C123.206 78.6058 123.405 78.4795 123.623 78.3979C123.841 78.3164 124.073 78.2813 124.305 78.2948C124.55 78.2818 124.794 78.3261 125.019 78.4244C125.245 78.5227 125.446 78.6725 125.606 78.8622V78.2948L126.187 78.3175ZM125.567 80.0196C125.579 79.7716 125.519 79.5255 125.393 79.3131C125.268 79.1007 125.083 78.9318 124.862 78.8281C124.642 78.7245 124.397 78.6908 124.158 78.7314C123.919 78.7721 123.697 78.8852 123.521 79.0563C123.345 79.2273 123.224 79.4483 123.172 79.6909C123.12 79.9335 123.14 80.1864 123.23 80.4171C123.32 80.6478 123.475 80.8456 123.675 80.9851C123.876 81.1246 124.112 81.1993 124.355 81.1997C124.513 81.2139 124.673 81.1941 124.823 81.1414C124.974 81.0887 125.112 81.0043 125.229 80.8938C125.345 80.7832 125.438 80.6488 125.501 80.4992C125.564 80.3496 125.596 80.1882 125.595 80.0252L125.567 80.0196Z" fill="#263238"/>
<path opacity="0.6" d="M130.75 79.8502V81.9267H130.107V79.9013C130.107 79.1921 129.764 78.846 129.161 78.846C129.007 78.8357 128.854 78.8602 128.711 78.9176C128.567 78.9751 128.439 79.0641 128.333 79.1783C128.227 79.2926 128.147 79.4293 128.099 79.5788C128.051 79.7282 128.035 79.8868 128.053 80.0431V81.904H127.417V78.2957H128.031V78.863C128.182 78.6708 128.376 78.5188 128.597 78.42C128.818 78.3212 129.059 78.2786 129.299 78.2957C129.499 78.2819 129.699 78.3133 129.886 78.3876C130.072 78.4618 130.241 78.5771 130.379 78.7254C130.517 78.8737 130.622 79.0513 130.686 79.2456C130.75 79.44 130.772 79.6464 130.75 79.8502V79.8502Z" fill="#263238"/>
<path opacity="0.6" d="M137.001 78.318V81.9264H136.397V81.359C136.257 81.5447 136.075 81.6931 135.867 81.7918C135.659 81.8905 135.43 81.9367 135.201 81.9264C134.995 81.9481 134.787 81.9222 134.592 81.8507C134.398 81.7791 134.221 81.6637 134.075 81.5129C133.93 81.3621 133.819 81.1798 133.751 80.9794C133.684 80.779 133.661 80.5656 133.684 80.3548V78.2783H134.321V80.2811C134.321 80.9846 134.67 81.342 135.273 81.342C135.427 81.3533 135.581 81.3296 135.724 81.2725C135.868 81.2154 135.997 81.1264 136.103 81.0119C136.209 80.8974 136.289 80.7602 136.337 80.6103C136.385 80.4604 136.4 80.3014 136.381 80.1449V78.2783L137.001 78.318Z" fill="#263238"/>
<path opacity="0.6" d="M141.862 80.1225C141.874 80.366 141.837 80.6096 141.753 80.8376C141.668 81.0656 141.538 81.273 141.371 81.4466C141.203 81.6201 141.003 81.756 140.781 81.8455C140.56 81.935 140.322 81.9761 140.085 81.9663C139.851 81.9757 139.618 81.9293 139.405 81.8309C139.192 81.7324 139.004 81.5846 138.855 81.399V83.2599H138.219V78.3353H138.828V78.9027C138.974 78.7051 139.165 78.5468 139.383 78.4411C139.602 78.3354 139.843 78.2854 140.085 78.2956C140.321 78.2851 140.557 78.3252 140.778 78.4134C140.999 78.5015 141.199 78.6358 141.366 78.8077C141.533 78.9795 141.664 79.1852 141.749 79.4116C141.834 79.6379 141.873 79.88 141.862 80.1225V80.1225ZM141.22 80.1225C141.209 79.8853 141.13 79.6566 140.994 79.4647C140.858 79.2727 140.669 79.1259 140.452 79.0425C140.236 78.9591 139.999 78.9427 139.774 78.9953C139.548 79.0479 139.342 79.1672 139.181 79.3385C139.021 79.5098 138.913 79.7255 138.871 79.959C138.829 80.1924 138.855 80.4334 138.945 80.6521C139.035 80.8708 139.186 81.0575 139.379 81.1893C139.571 81.321 139.798 81.3919 140.029 81.3933C140.191 81.3968 140.351 81.3659 140.5 81.3025C140.65 81.2392 140.785 81.1449 140.896 81.0254C141.008 80.906 141.095 80.7641 141.15 80.6087C141.206 80.4532 141.23 80.2877 141.22 80.1225V80.1225Z" fill="#263238"/>
</g>
<path d="M165.415 108.575H92.9727V121.284H165.415V108.575Z" fill="white"/>
<g opacity="0.4">
<path opacity="0.4" d="M96.937 112.858H97.3135V116.166H99.3012V116.501H96.937V112.858Z" fill="#263238"/>
<path opacity="0.4" d="M101.876 114.805V116.507H101.533V116.081C101.432 116.233 101.294 116.355 101.133 116.434C100.971 116.514 100.792 116.549 100.614 116.535C100.01 116.535 99.6392 116.212 99.6392 115.735C99.6392 115.258 99.8994 114.963 100.669 114.963H101.516V114.799C101.516 114.328 101.256 114.073 100.758 114.073C100.434 114.068 100.12 114.183 99.8717 114.396L99.7056 114.118C100.022 113.867 100.413 113.737 100.813 113.749C100.954 113.732 101.097 113.747 101.231 113.793C101.366 113.839 101.488 113.916 101.59 114.017C101.692 114.118 101.77 114.241 101.82 114.378C101.869 114.514 101.889 114.66 101.876 114.805V114.805ZM101.516 115.678V115.23H100.68C100.16 115.23 99.9935 115.44 99.9935 115.724C99.9935 116.007 100.243 116.234 100.669 116.234C100.849 116.246 101.029 116.198 101.181 116.098C101.333 115.998 101.451 115.851 101.516 115.678V115.678Z" fill="#263238"/>
<path opacity="0.4" d="M102.485 116.211L102.645 115.922C102.925 116.121 103.257 116.228 103.598 116.228C104.107 116.228 104.312 116.052 104.312 115.78C104.312 115.065 102.585 115.627 102.585 114.549C102.585 114.101 102.955 113.766 103.636 113.766C103.969 113.761 104.296 113.85 104.583 114.021L104.423 114.316C104.19 114.158 103.916 114.077 103.636 114.084C103.155 114.084 102.944 114.276 102.944 114.537C102.944 115.275 104.672 114.719 104.672 115.769C104.672 116.245 104.268 116.551 103.565 116.551C103.178 116.56 102.8 116.441 102.485 116.211V116.211Z" fill="#263238"/>
<path opacity="0.4" d="M106.77 116.337C106.613 116.464 106.417 116.533 106.216 116.529C106.111 116.541 106.005 116.528 105.905 116.492C105.805 116.456 105.714 116.398 105.639 116.321C105.564 116.244 105.507 116.151 105.472 116.049C105.437 115.947 105.424 115.837 105.436 115.729V114.078H104.954V113.766H105.436V113.165H105.796V113.766H106.604V114.078H105.796V115.712C105.786 115.778 105.791 115.844 105.811 115.908C105.83 115.971 105.863 116.028 105.907 116.076C105.951 116.124 106.006 116.162 106.066 116.185C106.126 116.208 106.191 116.218 106.255 116.212C106.401 116.216 106.542 116.166 106.654 116.07L106.77 116.337Z" fill="#263238"/>
<path opacity="0.4" d="M111.753 112.858V116.501H111.443L109.162 113.545V116.501H108.786V112.858H109.096L111.382 115.814V112.858H111.753Z" fill="#263238"/>
<path opacity="0.4" d="M114.876 114.805V116.507H114.521V116.081C114.422 116.234 114.284 116.357 114.122 116.436C113.961 116.516 113.781 116.55 113.602 116.535C112.999 116.535 112.628 116.212 112.628 115.735C112.628 115.259 112.894 114.964 113.663 114.964H114.521V114.799C114.521 114.328 114.261 114.073 113.763 114.073C113.439 114.069 113.125 114.183 112.877 114.396L112.711 114.118C113.026 113.866 113.418 113.736 113.818 113.75C113.959 113.733 114.101 113.749 114.235 113.795C114.368 113.842 114.49 113.919 114.592 114.02C114.693 114.121 114.771 114.244 114.82 114.38C114.869 114.515 114.888 114.661 114.876 114.805V114.805ZM114.516 115.679V115.23H113.674C113.159 115.23 112.993 115.44 112.993 115.724C112.993 116.008 113.243 116.235 113.669 116.235C113.85 116.247 114.031 116.2 114.184 116.1C114.338 116 114.456 115.852 114.521 115.679H114.516Z" fill="#263238"/>
<path opacity="0.4" d="M120.263 114.912V116.501H119.903V114.952C119.903 114.384 119.615 114.078 119.134 114.078C119.009 114.072 118.884 114.094 118.768 114.143C118.653 114.191 118.549 114.265 118.464 114.359C118.379 114.453 118.315 114.565 118.277 114.687C118.239 114.809 118.227 114.938 118.242 115.065V116.501H117.882V114.952C117.882 114.384 117.594 114.078 117.107 114.078C116.982 114.072 116.858 114.094 116.742 114.143C116.626 114.191 116.522 114.265 116.438 114.359C116.353 114.453 116.289 114.565 116.251 114.687C116.212 114.809 116.2 114.938 116.216 115.065V116.501H115.856V113.766H116.183V114.265C116.287 114.098 116.433 113.962 116.605 113.87C116.777 113.778 116.969 113.735 117.163 113.743C117.359 113.727 117.555 113.772 117.726 113.874C117.896 113.975 118.032 114.128 118.115 114.311C118.224 114.128 118.38 113.979 118.565 113.879C118.75 113.779 118.958 113.732 119.167 113.743C119.318 113.728 119.471 113.748 119.614 113.802C119.757 113.856 119.886 113.943 119.991 114.055C120.097 114.168 120.176 114.303 120.223 114.452C120.27 114.6 120.284 114.757 120.263 114.912Z" fill="#263238"/>
<path opacity="0.4" d="M123.58 115.247H121.365C121.373 115.38 121.406 115.511 121.463 115.631C121.52 115.751 121.6 115.859 121.698 115.947C121.796 116.036 121.909 116.104 122.033 116.147C122.156 116.191 122.287 116.208 122.417 116.2C122.571 116.205 122.724 116.176 122.865 116.114C123.007 116.052 123.133 115.96 123.236 115.843L123.436 116.081C123.244 116.286 122.997 116.429 122.727 116.492C122.456 116.554 122.173 116.534 121.914 116.432C121.655 116.331 121.43 116.154 121.269 115.923C121.107 115.692 121.015 115.418 121.005 115.133C120.996 114.953 121.023 114.772 121.085 114.603C121.147 114.433 121.242 114.278 121.364 114.148C121.487 114.018 121.634 113.915 121.797 113.845C121.96 113.775 122.135 113.741 122.312 113.743C122.488 113.74 122.663 113.774 122.826 113.843C122.989 113.913 123.136 114.016 123.258 114.147C123.379 114.277 123.473 114.433 123.534 114.602C123.594 114.772 123.619 114.953 123.607 115.133C123.585 115.167 123.58 115.207 123.58 115.247ZM121.365 114.975H123.259C123.259 114.717 123.159 114.47 122.981 114.289C122.804 114.107 122.563 114.004 122.312 114.004C122.061 114.004 121.82 114.107 121.642 114.289C121.465 114.47 121.365 114.717 121.365 114.975Z" fill="#263238"/>
</g>
<path d="M165.415 91.2139H92.9727V103.923H165.415V91.2139Z" fill="white"/>
<g opacity="0.4">
<path opacity="0.4" d="M97.3135 95.8328V97.2625H99.1517V97.5972H97.3135V99.1404H96.937V95.498H99.3732V95.8328H97.3135Z" fill="#263238"/>
<path opacity="0.4" d="M99.9434 95.5377C99.9423 95.4834 99.9571 95.43 99.9859 95.3843C100.015 95.3387 100.056 95.3029 100.105 95.2816C100.154 95.2603 100.208 95.2544 100.26 95.2647C100.312 95.2751 100.36 95.3011 100.397 95.3395C100.435 95.378 100.46 95.427 100.47 95.4804C100.48 95.5337 100.474 95.5889 100.454 95.6389C100.433 95.6889 100.398 95.7314 100.353 95.7608C100.309 95.7903 100.257 95.8055 100.204 95.8044C100.135 95.8044 100.068 95.7763 100.02 95.7263C99.9708 95.6763 99.9434 95.6084 99.9434 95.5377V95.5377ZM100.021 96.4058H100.381V99.1404H100.021V96.4058Z" fill="#263238"/>
<path opacity="0.4" d="M102.734 96.3831V96.7406H102.646C102.518 96.7342 102.391 96.7568 102.274 96.8066C102.156 96.8565 102.05 96.9324 101.965 97.0289C101.879 97.1254 101.815 97.2401 101.778 97.3649C101.74 97.4896 101.73 97.6213 101.749 97.7505V99.1461H101.389V96.4115H101.732V96.9221C101.828 96.7403 101.974 96.5919 102.153 96.4959C102.331 96.3999 102.534 96.3606 102.734 96.3831Z" fill="#263238"/>
<path opacity="0.4" d="M103.033 98.8285L103.193 98.5335C103.47 98.7391 103.804 98.8484 104.146 98.8455C104.655 98.8455 104.86 98.664 104.86 98.3973C104.86 97.6825 103.132 98.2441 103.132 97.1605C103.132 96.718 103.503 96.3832 104.184 96.3832C104.517 96.3758 104.845 96.4643 105.131 96.6385L104.971 96.9336C104.738 96.776 104.463 96.6948 104.184 96.701C103.703 96.701 103.492 96.8939 103.492 97.1548C103.492 97.8924 105.22 97.3364 105.22 98.386C105.22 98.8569 104.816 99.1632 104.112 99.1632C103.727 99.1735 103.348 99.0562 103.033 98.8285V98.8285Z" fill="#263238"/>
<path opacity="0.4" d="M107.324 98.9756C107.165 99.0995 106.97 99.1654 106.77 99.1628C106.665 99.1754 106.559 99.1636 106.459 99.1282C106.359 99.0928 106.268 99.0348 106.193 98.9585C106.118 98.8822 106.061 98.7895 106.026 98.6873C105.99 98.5852 105.978 98.4762 105.99 98.3686V96.7176H105.508V96.4055H105.99V95.7871H106.349V96.3885H107.158V96.7005H106.349V98.3288C106.34 98.3944 106.345 98.4613 106.365 98.5246C106.384 98.5878 106.417 98.6458 106.461 98.6943C106.505 98.7428 106.559 98.7805 106.619 98.8046C106.68 98.8287 106.744 98.8387 106.809 98.8338C106.954 98.8357 107.095 98.7855 107.208 98.6919L107.324 98.9756Z" fill="#263238"/>
<path opacity="0.4" d="M112.307 95.498V99.1404H111.997L109.716 96.1845V99.1404H109.339V95.498H109.649L111.936 98.4539V95.498H112.307Z" fill="#263238"/>
<path opacity="0.4" d="M115.424 97.4436V99.1457H115.075V98.7201C114.976 98.8717 114.839 98.9932 114.678 99.072C114.517 99.1509 114.339 99.1841 114.162 99.1684C113.553 99.1684 113.182 98.8506 113.182 98.3741C113.182 97.8975 113.447 97.6025 114.217 97.6025H115.075V97.4323C115.075 96.967 114.815 96.7117 114.317 96.7117C113.993 96.7073 113.679 96.8221 113.431 97.0351L113.265 96.7571C113.58 96.5053 113.972 96.3748 114.372 96.3883C114.512 96.3716 114.654 96.3872 114.788 96.434C114.921 96.4808 115.043 96.5576 115.144 96.6587C115.245 96.7599 115.322 96.8829 115.371 97.0187C115.419 97.1545 115.437 97.2997 115.424 97.4436V97.4436ZM115.064 98.3173V97.8691H114.223C113.708 97.8691 113.542 98.079 113.542 98.357C113.542 98.635 113.791 98.8733 114.217 98.8733C114.399 98.8863 114.581 98.8393 114.735 98.7393C114.889 98.6393 115.008 98.4915 115.075 98.3173H115.064Z" fill="#263238"/>
<path opacity="0.4" d="M120.812 97.5514V99.14H120.452V97.5911C120.452 97.0237 120.164 96.7174 119.682 96.7174C119.557 96.7114 119.433 96.7335 119.317 96.7821C119.201 96.8307 119.097 96.9045 119.012 96.9986C118.927 97.0926 118.864 97.2045 118.825 97.3265C118.787 97.4484 118.775 97.5774 118.791 97.7046V99.14H118.431V97.5911C118.431 97.0237 118.143 96.7174 117.656 96.7174C117.531 96.7114 117.406 96.7335 117.29 96.7821C117.175 96.8307 117.071 96.9045 116.986 96.9986C116.901 97.0926 116.837 97.2045 116.799 97.3265C116.761 97.4484 116.749 97.5774 116.764 97.7046V99.14H116.404V96.4053H116.737V96.9216C116.841 96.7543 116.986 96.6181 117.158 96.5265C117.33 96.4349 117.523 96.3912 117.716 96.3997C117.913 96.3831 118.109 96.4287 118.28 96.5301C118.45 96.6315 118.586 96.784 118.669 96.967C118.777 96.7833 118.932 96.6335 119.118 96.5335C119.303 96.4335 119.512 96.3872 119.721 96.3997C119.87 96.3859 120.021 96.4065 120.162 96.46C120.302 96.5135 120.43 96.5986 120.534 96.709C120.639 96.8194 120.718 96.9523 120.766 97.098C120.814 97.2438 120.829 97.3987 120.812 97.5514V97.5514Z" fill="#263238"/>
<path opacity="0.4" d="M124.128 97.8865H121.913C121.921 98.02 121.954 98.1506 122.011 98.2708C122.068 98.3909 122.148 98.4984 122.246 98.587C122.343 98.6755 122.457 98.7434 122.581 98.7868C122.704 98.8302 122.835 98.8481 122.965 98.8397C123.119 98.8448 123.273 98.8149 123.414 98.7522C123.556 98.6894 123.682 98.5953 123.784 98.4766L123.984 98.7205C123.792 98.9259 123.545 99.0687 123.274 99.1312C123.004 99.1938 122.721 99.1732 122.462 99.0721C122.203 98.971 121.978 98.7939 121.816 98.5629C121.655 98.3319 121.563 98.0572 121.553 97.7731C121.544 97.5924 121.571 97.4117 121.633 97.2422C121.695 97.0727 121.79 96.9181 121.912 96.7878C122.035 96.6575 122.182 96.5543 122.345 96.4847C122.508 96.4151 122.683 96.3805 122.86 96.3831C123.036 96.3795 123.211 96.4136 123.374 96.483C123.537 96.5524 123.684 96.6558 123.805 96.7864C123.927 96.9171 124.021 97.0723 124.081 97.2421C124.142 97.412 124.167 97.5928 124.155 97.7731C124.133 97.8014 124.128 97.8411 124.128 97.8865ZM121.913 97.6085H123.806C123.806 97.3512 123.707 97.1045 123.529 96.9225C123.352 96.7406 123.111 96.6384 122.86 96.6384C122.609 96.6384 122.368 96.7406 122.19 96.9225C122.013 97.1045 121.913 97.3512 121.913 97.6085V97.6085Z" fill="#263238"/>
</g>
<path d="M65.7154 199.204H65.1895C65.1895 198.404 65.8372 179.659 69.0209 176.51C72.2931 173.248 76.1411 176.464 76.1743 176.51L75.8421 176.918C75.6981 176.799 72.3152 173.985 69.3807 176.918C66.3522 179.874 65.721 199.011 65.7154 199.204Z" fill="#8937C7"/>
<path d="M65.4501 202.965L64.9296 202.914C64.9296 202.687 66.9893 180.152 59.022 170.779L59.4151 170.428C67.5319 179.976 65.4722 202.738 65.4501 202.965Z" fill="#8937C7"/>
<path d="M65.7048 200.559C65.6384 199.492 64.1047 174.461 70.2283 168.674L70.5827 169.071C64.6418 174.665 66.2087 200.275 66.2253 200.519L65.7048 200.559Z" fill="#8937C7"/>
<path d="M64.9293 200.543C64.9293 200.373 64.741 183.522 60.3836 180.986C60.0132 180.736 59.5895 180.581 59.1481 180.533C58.7068 180.486 58.2609 180.548 57.8478 180.714C55.2954 181.798 53.9389 186.79 53.9223 186.841L53.4185 186.699C53.4738 186.484 54.858 181.406 57.6485 180.22C58.1346 180.02 58.6607 179.943 59.1821 179.995C59.7035 180.048 60.2049 180.228 60.6439 180.521C65.2559 183.227 65.4497 199.811 65.4553 200.537L64.9293 200.543Z" fill="#8937C7"/>
<path d="M66.7235 200.554C66.6903 199.987 66.0204 187.255 69.5473 182.529C70.4885 181.275 71.5294 180.68 72.6589 180.765C75.167 180.941 77.0883 184.424 77.1935 184.572L76.7394 184.838C76.7394 184.804 74.8459 181.434 72.6201 181.298C71.6844 181.224 70.7875 181.752 69.9625 182.858C66.5519 187.397 67.2384 200.395 67.244 200.526L66.7235 200.554Z" fill="#8937C7"/>
<path d="M66.0201 202.318L65.4996 202.278C65.4996 201.972 67.7143 171.573 64.0601 166.501L64.4808 166.184C68.2569 171.415 66.1142 201.059 66.0201 202.318Z" fill="#8937C7"/>
<path d="M56.6355 183.244C56.6355 183.244 58.8944 184.101 58.2245 186.115C57.5546 188.129 50.4011 191.448 50.4011 191.448C50.4011 191.448 47.4058 188.64 50.1575 184.072C52.9093 179.505 56.5746 181.803 56.6355 183.244Z" fill="#8937C7"/>
<path opacity="0.2" d="M56.6355 183.244C56.6355 183.244 58.8944 184.101 58.2245 186.115C57.5546 188.129 50.4011 191.448 50.4011 191.448C50.4011 191.448 47.4058 188.64 50.1575 184.072C52.9093 179.505 56.5746 181.803 56.6355 183.244Z" fill="black"/>
<path d="M66.4631 179.409C66.4631 179.409 64.0546 179.307 63.9162 181.429C63.7778 183.55 69.1207 189.44 69.1207 189.44C69.1207 189.44 72.9411 188.021 72.1216 182.716C71.3022 177.412 67.0611 178.098 66.4631 179.409Z" fill="#8937C7"/>
<path opacity="0.2" d="M66.4631 179.409C66.4631 179.409 64.0546 179.307 63.9162 181.429C63.7778 183.55 69.1207 189.44 69.1207 189.44C69.1207 189.44 72.9411 188.021 72.1216 182.716C71.3022 177.412 67.0611 178.098 66.4631 179.409Z" fill="black"/>
<path d="M68.5006 169.231C68.5006 169.231 66.895 169.055 67.0223 168.056C67.1497 167.058 73.2622 164.476 76.8666 168.624C76.8666 168.624 74.5578 172.686 71.2247 172.743C67.8916 172.799 68.5006 169.231 68.5006 169.231Z" fill="#8937C7"/>
<path opacity="0.2" d="M68.5006 169.231C68.5006 169.231 66.895 169.055 67.0223 168.056C67.1497 167.058 73.2622 164.476 76.8666 168.624C76.8666 168.624 74.5578 172.686 71.2247 172.743C67.8916 172.799 68.5006 169.231 68.5006 169.231Z" fill="black"/>
<path d="M65.5107 166.796C65.5107 166.796 66.9613 167.517 67.371 166.598C67.7807 165.679 63.9216 160.181 58.7116 161.764C58.7116 161.764 58.5732 166.462 61.3747 168.317C64.1763 170.172 65.5107 166.796 65.5107 166.796Z" fill="#8937C7"/>
<path opacity="0.2" d="M65.5107 166.796C65.5107 166.796 66.9613 167.517 67.371 166.598C67.7807 165.679 63.9216 160.181 58.7116 161.764C58.7116 161.764 58.5732 166.462 61.3747 168.317C64.1763 170.172 65.5107 166.796 65.5107 166.796Z" fill="black"/>
<path d="M73.107 182.438C73.107 182.438 71.9996 181.519 73.1956 181.071C74.3915 180.622 80.2549 180.753 80.3158 186.704C80.3158 186.704 73.4835 187.868 72.6419 185.598C71.8003 183.329 73.107 182.438 73.107 182.438Z" fill="#8937C7"/>
<path opacity="0.2" d="M73.107 182.438C73.107 182.438 71.9996 181.519 73.1956 181.071C74.3915 180.622 80.2549 180.753 80.3158 186.704C80.3158 186.704 73.4835 187.868 72.6419 185.598C71.8003 183.329 73.107 182.438 73.107 182.438Z" fill="black"/>
<path d="M59.1546 169.083C59.1546 169.083 60.2619 168.164 59.066 167.721C57.8701 167.279 52.0067 167.398 51.9458 173.349C51.9458 173.349 58.7781 174.518 59.6197 172.249C60.4613 169.979 59.1546 169.083 59.1546 169.083Z" fill="#8937C7"/>
<path opacity="0.2" d="M59.1546 169.083C59.1546 169.083 60.2619 168.164 59.066 167.721C57.8701 167.279 52.0067 167.398 51.9458 173.349C51.9458 173.349 58.7781 174.518 59.6197 172.249C60.4613 169.979 59.1546 169.083 59.1546 169.083Z" fill="black"/>
<path d="M62.7867 173.877C62.7867 173.877 62.8864 172.742 62.0061 173.201C61.1257 173.661 58.075 177.02 61.242 180.225C61.242 180.225 65.5108 176.986 64.7412 175.301C63.9716 173.616 62.7867 173.877 62.7867 173.877Z" fill="#8937C7"/>
<path opacity="0.2" d="M62.7867 173.877C62.7867 173.877 62.8864 172.742 62.0061 173.201C61.1257 173.661 58.075 177.02 61.242 180.225C61.242 180.225 65.5108 176.986 64.7412 175.301C63.9716 173.616 62.7867 173.877 62.7867 173.877Z" fill="black"/>
<path d="M74.1036 175.465C74.1036 175.465 73.4391 174.574 74.4136 174.467C75.3881 174.359 79.7288 175.545 78.7156 179.993C78.7156 179.993 73.4225 179.584 73.1789 177.723C72.9353 175.862 74.1036 175.465 74.1036 175.465Z" fill="#8937C7"/>
<path opacity="0.2" d="M74.1036 175.465C74.1036 175.465 73.4391 174.574 74.4136 174.467C75.3881 174.359 79.7288 175.545 78.7156 179.993C78.7156 179.993 73.4225 179.584 73.1789 177.723C72.9353 175.862 74.1036 175.465 74.1036 175.465Z" fill="black"/>
<path d="M57.0285 217.041H74.1425L76.4181 199.986H54.7529L57.0285 217.041Z" fill="#263238"/>
<path opacity="0.2" d="M57.0285 217.041H74.1425L76.4181 199.986H54.7529L57.0285 217.041Z" fill="white"/>
<path d="M78.5666 198.602V200.224C78.5666 200.745 78.3647 201.244 78.0055 201.612C77.6462 201.98 77.1589 202.187 76.6509 202.187H54.3102C53.8022 202.187 53.3149 201.98 52.9556 201.612C52.5964 201.244 52.3945 200.745 52.3945 200.224V198.602H78.5666Z" fill="#263238"/>
<path d="M221.17 36.9581H205.263C203.965 36.9581 202.72 37.4865 201.802 38.4271C200.884 39.3677 200.368 40.6433 200.368 41.9735V56.1572C200.367 56.8163 200.494 57.4691 200.739 58.0783C200.985 58.6874 201.345 59.241 201.8 59.7073C202.254 60.1736 202.794 60.5436 203.388 60.796C203.983 61.0484 204.619 61.1783 205.263 61.1783H209.908L208.801 65.6547L213.23 61.1783H221.197C222.497 61.1783 223.743 60.6493 224.662 59.7077C225.581 58.766 226.097 57.4889 226.097 56.1572V41.9735C226.097 41.312 225.97 40.657 225.722 40.0463C225.473 39.4356 225.11 38.8812 224.652 38.415C224.194 37.9488 223.65 37.5801 223.053 37.3301C222.455 37.08 221.815 36.9536 221.17 36.9581Z" fill="#8937C7"/>
<path opacity="0.7" d="M221.17 36.9581H205.263C203.965 36.9581 202.72 37.4865 201.802 38.4271C200.884 39.3677 200.368 40.6433 200.368 41.9735V56.1572C200.367 56.8163 200.494 57.4691 200.739 58.0783C200.985 58.6874 201.345 59.241 201.8 59.7073C202.254 60.1736 202.794 60.5436 203.388 60.796C203.983 61.0484 204.619 61.1783 205.263 61.1783H209.908L208.801 65.6547L213.23 61.1783H221.197C222.497 61.1783 223.743 60.6493 224.662 59.7077C225.581 58.766 226.097 57.4889 226.097 56.1572V41.9735C226.097 41.312 225.97 40.657 225.722 40.0463C225.473 39.4356 225.11 38.8812 224.652 38.415C224.194 37.9488 223.65 37.5801 223.053 37.3301C222.455 37.08 221.815 36.9536 221.17 36.9581Z" fill="white"/>
<path d="M213.219 55.3345C216.628 55.3345 219.392 52.5023 219.392 49.0086C219.392 45.5148 216.628 42.6826 213.219 42.6826C209.809 42.6826 207.045 45.5148 207.045 49.0086C207.045 52.5023 209.809 55.3345 213.219 55.3345Z" fill="white"/>
<path d="M213.219 40.918C211.658 40.918 210.131 41.3925 208.833 42.2815C207.534 43.1704 206.522 44.434 205.925 45.9123C205.327 47.3906 205.171 49.0174 205.475 50.5867C205.78 52.1561 206.532 53.5977 207.636 54.7292C208.74 55.8606 210.147 56.6312 211.679 56.9433C213.21 57.2555 214.798 57.0953 216.241 56.4829C217.683 55.8706 218.916 54.8336 219.784 53.5032C220.651 52.1727 221.114 50.6085 221.114 49.0084C221.115 47.9457 220.911 46.8933 220.515 45.9114C220.118 44.9295 219.537 44.0373 218.804 43.2859C218.07 42.5345 217.2 41.9386 216.241 41.5323C215.283 41.126 214.256 40.9172 213.219 40.918V40.918ZM217.698 46.5915L212.942 52.3331C212.875 52.416 212.79 52.4825 212.694 52.5276C212.598 52.5728 212.494 52.5955 212.389 52.594C212.283 52.5947 212.179 52.5716 212.083 52.5266C211.988 52.4815 211.903 52.4154 211.835 52.3331L208.74 48.5942C208.675 48.5203 208.624 48.4336 208.592 48.3394C208.56 48.2452 208.547 48.1453 208.554 48.0457C208.56 47.9462 208.586 47.849 208.63 47.7599C208.674 47.6709 208.735 47.5918 208.809 47.5274C208.884 47.463 208.97 47.4146 209.063 47.3851C209.156 47.3556 209.254 47.3456 209.351 47.3556C209.447 47.3657 209.541 47.3957 209.627 47.4437C209.712 47.4918 209.787 47.557 209.847 47.6354L212.389 50.7048L216.591 45.6326C216.717 45.4899 216.893 45.403 217.08 45.3902C217.268 45.3774 217.453 45.4398 217.596 45.5641C217.74 45.6884 217.831 45.8651 217.85 46.0567C217.869 46.2484 217.815 46.4401 217.698 46.5915V46.5915Z" fill="#8937C7"/>
<path d="M218.412 124.472C218.412 124.472 208.773 123.224 194.167 127.309C194.167 127.309 191.82 100.564 192.096 96.8874C192.373 93.2109 214.647 94.2889 214.647 94.2889C214.647 94.2889 215.201 104.995 216.652 111.451C218.102 117.908 219.165 123.229 218.412 124.472Z" fill="#8937C7"/>
<path opacity="0.2" d="M218.412 124.472C218.412 124.472 208.773 123.224 194.167 127.309C194.167 127.309 191.82 100.564 192.096 96.8874C192.373 93.2109 214.647 94.2889 214.647 94.2889C214.647 94.2889 215.201 104.995 216.652 111.451C218.102 117.908 219.165 123.229 218.412 124.472Z" fill="black"/>
<path d="M187.125 213.013L191.056 214.153L191.991 207.884L192.495 204.531L188.564 203.391L187.894 207.884L187.125 213.013Z" fill="#E4897B"/>
<path d="M209.726 213.342L213.778 213.892L213.817 207.884L213.845 204.151L209.786 203.606L209.759 207.884L209.726 213.342Z" fill="#E4897B"/>
<path opacity="0.2" d="M209.786 203.606L209.759 207.884H213.817L213.845 204.151L209.786 203.606Z" fill="black"/>
<path opacity="0.2" d="M187.894 207.884H191.991L192.495 204.531L188.564 203.391L187.894 207.884Z" fill="black"/>
<path d="M169.673 99.0834L165.77 97.9033L166.484 102.47C166.484 102.47 170.027 103.304 170.359 101.415L169.673 99.0834Z" fill="#E4897B"/>
<path d="M161.872 98.9643L163.787 102.675L166.484 102.47L165.769 97.9033L161.872 98.9643Z" fill="#E4897B"/>
<path d="M175.06 100.252L168.649 98.7822L168.067 101.971L173.886 103.423L175.06 100.252Z" fill="#E4897B"/>
<path d="M194.455 97.3697L194.079 97.8292C193.27 98.7994 191.31 101.143 189.267 103.162C187.606 104.808 185.945 106.243 184.838 106.532C181.699 107.361 170.288 103.917 170.288 103.917L171.467 99.1739C171.467 99.1739 182.097 100.621 182.922 100.621C183.548 100.621 190.015 91.021 191.582 90.2324L194.455 97.3697Z" fill="#8937C7"/>
<path opacity="0.2" d="M194.079 97.8296C193.27 98.7998 191.31 101.143 189.267 103.163C189.677 99.838 190.867 96.7857 192.434 94.8567C192.58 94.6705 192.747 94.5029 192.932 94.3574L194.079 97.8296Z" fill="black"/>
<path d="M187.174 212.383L191.637 212.264C191.717 212.261 191.796 212.287 191.861 212.336C191.925 212.386 191.971 212.456 191.991 212.536L192.933 216.218C192.955 216.306 192.958 216.399 192.941 216.488C192.924 216.577 192.887 216.662 192.834 216.735C192.781 216.808 192.712 216.868 192.634 216.91C192.555 216.952 192.468 216.976 192.379 216.979C190.768 216.979 188.437 216.979 186.416 217.018C184.046 217.086 182.54 216.967 179.772 217.018C178.111 217.064 177.557 215.35 178.266 215.174C181.438 214.369 183.515 214.528 186.216 212.712C186.502 212.517 186.832 212.404 187.174 212.383V212.383Z" fill="#263238"/>
<path d="M186.787 212.973C186.134 213.121 184.971 213.319 184.506 212.928C184.438 212.87 184.385 212.797 184.35 212.714C184.315 212.631 184.3 212.541 184.307 212.451C184.306 212.397 184.32 212.344 184.346 212.297C184.372 212.251 184.41 212.212 184.456 212.185C184.949 211.884 186.615 212.695 186.809 212.786C186.826 212.795 186.84 212.809 186.85 212.826C186.86 212.843 186.865 212.863 186.864 212.883C186.864 212.904 186.855 212.925 186.841 212.942C186.827 212.958 186.808 212.969 186.787 212.973ZM184.572 212.344H184.539C184.521 212.354 184.505 212.37 184.495 212.389C184.484 212.408 184.478 212.429 184.478 212.451C184.474 212.51 184.483 212.569 184.505 212.623C184.527 212.677 184.562 212.726 184.605 212.763C184.866 212.985 185.541 213.007 186.438 212.826C185.79 212.548 184.888 212.224 184.583 212.344H184.572Z" fill="#8937C7"/>
<path d="M186.787 212.973H186.721C186.217 212.758 185.209 211.884 185.264 211.413C185.264 211.3 185.353 211.158 185.619 211.124C185.716 211.111 185.815 211.117 185.91 211.144C186.006 211.17 186.095 211.215 186.172 211.277C186.726 211.702 186.853 212.82 186.865 212.865C186.866 212.883 186.863 212.9 186.857 212.916C186.85 212.932 186.839 212.946 186.826 212.956L186.787 212.973ZM185.547 211.345C185.464 211.373 185.458 211.419 185.458 211.436C185.425 211.719 186.112 212.412 186.626 212.707C186.567 212.23 186.362 211.785 186.04 211.436C185.985 211.389 185.921 211.354 185.852 211.335C185.783 211.315 185.711 211.311 185.641 211.322C185.609 211.325 185.577 211.333 185.547 211.345V211.345Z" fill="#8937C7"/>
<path d="M209.886 212.383L214.349 212.264C214.43 212.261 214.509 212.286 214.575 212.336C214.64 212.385 214.687 212.456 214.708 212.536L215.644 216.218C215.668 216.307 215.671 216.399 215.655 216.489C215.638 216.579 215.602 216.664 215.548 216.737C215.495 216.81 215.426 216.87 215.347 216.912C215.267 216.954 215.18 216.977 215.09 216.979C213.479 216.979 211.148 216.979 209.122 217.018C206.758 217.086 205.246 216.967 202.478 217.018C200.817 217.064 200.263 215.35 200.972 215.174C204.144 214.369 206.215 214.528 208.917 212.712C209.205 212.515 209.54 212.402 209.886 212.383V212.383Z" fill="#263238"/>
<path d="M209.504 212.973C208.85 213.121 207.682 213.319 207.223 212.928C207.155 212.87 207.101 212.797 207.067 212.714C207.032 212.631 207.017 212.541 207.023 212.451C207.023 212.397 207.037 212.344 207.063 212.297C207.089 212.251 207.127 212.212 207.173 212.185C207.66 211.884 209.332 212.695 209.52 212.786C209.539 212.793 209.554 212.807 209.564 212.824C209.574 212.842 209.578 212.862 209.576 212.883C209.574 212.903 209.567 212.923 209.554 212.939C209.541 212.956 209.523 212.968 209.504 212.973V212.973ZM207.289 212.344H207.256C207.238 212.354 207.223 212.37 207.213 212.389C207.203 212.408 207.199 212.43 207.2 212.451C207.195 212.51 207.204 212.569 207.226 212.624C207.248 212.678 207.283 212.726 207.328 212.763C207.588 212.985 208.258 213.007 209.16 212.826C208.502 212.548 207.599 212.224 207.295 212.344H207.289Z" fill="#8937C7"/>
<path d="M209.504 212.973H209.432C208.933 212.757 207.92 211.883 207.981 211.413C207.981 211.299 208.064 211.157 208.33 211.123C208.428 211.109 208.527 211.116 208.622 211.142C208.717 211.169 208.806 211.214 208.884 211.276C209.271 211.719 209.513 212.274 209.576 212.865C209.579 212.882 209.576 212.9 209.569 212.916C209.563 212.932 209.551 212.946 209.537 212.956L209.504 212.973ZM208.258 211.344C208.18 211.373 208.175 211.418 208.175 211.435C208.136 211.719 208.828 212.411 209.343 212.706C209.28 212.231 209.075 211.787 208.756 211.435C208.701 211.388 208.638 211.354 208.569 211.335C208.5 211.315 208.428 211.311 208.358 211.322L208.258 211.344Z" fill="#8937C7"/>
<path d="M218.086 122.032C220.234 131.569 216.547 206.601 216.547 206.601H209.427L206.381 144.074L195.17 206.601L187.557 206.034C192.54 157.594 196.93 128.676 196.93 128.676V125.022L218.086 122.032Z" fill="#263238"/>
<path opacity="0.4" d="M187.557 206.034L195.17 206.601L203.995 157.378L206.381 144.074L209.427 206.601H216.547C216.547 206.601 220.234 131.569 218.086 122.032L196.919 125.022V128.676C196.919 128.676 192.534 157.594 187.557 206.034Z" fill="white"/>
<path d="M214.249 86.7094C214.031 91.2694 214.144 95.8397 214.587 100.383C214.886 103.56 215.296 106.561 215.733 109.267C216.757 115.616 217.92 120.376 218.086 122.038L196.919 125.028C189.201 102.902 192.108 90.0454 192.108 90.0454C193.69 89.3758 195.312 88.8073 196.964 88.3433C197.312 88.2469 197.667 88.1561 198.032 88.071C201.005 87.4716 204.009 87.0473 207.029 86.8002C207.583 86.7491 208.186 86.7094 208.751 86.681C211.641 86.5335 214.249 86.7094 214.249 86.7094Z" fill="#263238"/>
<path d="M202.921 76.752C203.076 79.7873 203.391 85.4835 205.855 86.9302C205.855 86.9302 204.321 89.9201 201.005 90.2265C198.497 90.4535 198.663 87.9174 198.663 87.9174C200.114 86.8111 199.77 84.9331 198.663 82.8113L202.921 76.752Z" fill="#E4897B"/>
<path opacity="0.2" d="M201.182 79.2256L198.68 82.8112C198.943 83.3016 199.165 83.8141 199.344 84.3431C200.507 83.8665 201.841 82.0737 201.647 80.7744C201.587 80.2332 201.429 79.7081 201.182 79.2256V79.2256Z" fill="black"/>
<path d="M192.124 70.6416C191.643 72.2188 191.908 75.4527 194.051 74.4031C196.194 73.3535 192.955 67.9353 192.124 70.6416Z" fill="#263238"/>
<path d="M203.198 72.7754C203.436 76.8206 203.751 79.1751 202.029 81.4672C199.41 84.911 194.339 83.6288 192.921 79.7254C191.648 76.2079 191.476 70.1826 195.136 68.1402C195.947 67.6879 196.857 67.4539 197.781 67.4601C198.704 67.4663 199.611 67.7124 200.417 68.1755C201.222 68.6386 201.9 69.3035 202.386 70.108C202.872 70.9125 203.152 71.8302 203.198 72.7754V72.7754Z" fill="#E4897B"/>
<path d="M200.429 70.5735V66.0347C200.429 66.0347 205.124 65.6773 204.914 68.1396C207.516 69.4615 206.287 73.6088 202.793 75.6399C200.878 74.0684 201.099 70.2898 201.099 70.2898C200.894 70.3976 200.662 70.4884 200.429 70.5735Z" fill="#263238"/>
<path d="M205.108 75.9297C205.017 76.4246 204.831 76.8959 204.56 77.3158C204.289 77.7358 203.939 78.0959 203.53 78.375C202.422 79.1182 201.465 78.2048 201.426 76.9282C201.393 75.7935 201.919 74.0007 203.192 73.7738C203.471 73.7293 203.756 73.7562 204.021 73.8523C204.287 73.9483 204.526 74.1103 204.716 74.3239C204.905 74.5375 205.041 74.796 205.109 75.0762C205.177 75.3565 205.177 75.6497 205.108 75.9297Z" fill="#E4897B"/>
<path d="M197.368 74.5796C197.406 74.9086 197.268 75.1923 197.058 75.215C196.847 75.2377 196.648 74.9938 196.609 74.6477C196.57 74.3016 196.709 74.0349 196.914 74.0122C197.118 73.9895 197.329 74.2278 197.368 74.5796Z" fill="#263238"/>
<path d="M193.746 74.9935C193.785 75.3226 193.647 75.6063 193.436 75.629C193.226 75.6516 193.027 75.4077 192.988 75.0616C192.949 74.7155 193.088 74.4489 193.298 74.4262C193.508 74.4035 193.697 74.6645 193.746 74.9935Z" fill="#263238"/>
<path d="M194.915 75.0215C194.635 76.036 194.22 77.0059 193.68 77.9036C193.919 78.0294 194.181 78.102 194.449 78.1166C194.717 78.1313 194.985 78.0877 195.236 77.9887L194.915 75.0215Z" fill="#DE5753"/>
<path d="M197.102 79.0449C196.965 79.0806 196.826 79.1071 196.686 79.1243C196.661 79.1243 196.637 79.1141 196.62 79.0961C196.602 79.078 196.592 79.0534 196.592 79.0279C196.592 79.0023 196.602 78.9777 196.62 78.9597C196.637 78.9416 196.661 78.9314 196.686 78.9314C197.084 78.8944 197.468 78.7622 197.806 78.5454C198.145 78.3286 198.429 78.0332 198.635 77.6832C198.64 77.6718 198.647 77.6614 198.656 77.6528C198.665 77.6443 198.675 77.6376 198.687 77.6334C198.698 77.6291 198.71 77.6273 198.722 77.6281C198.734 77.6289 198.746 77.6322 198.757 77.6378C198.769 77.6433 198.779 77.651 198.787 77.6606C198.796 77.6702 198.802 77.6814 198.806 77.6935C198.81 77.7057 198.812 77.7186 198.811 77.7314C198.81 77.7443 198.807 77.7568 198.801 77.7683C198.62 78.0906 198.376 78.3706 198.083 78.5904C197.79 78.8102 197.456 78.965 197.102 79.0449V79.0449Z" fill="#263238"/>
<path d="M198.342 73.2572C198.308 73.2651 198.273 73.2641 198.24 73.2542C198.207 73.2442 198.177 73.2257 198.153 73.2004C197.993 73.0204 197.794 72.881 197.572 72.7934C197.35 72.7058 197.111 72.6723 196.874 72.6955C196.85 72.7013 196.825 72.7018 196.8 72.6971C196.775 72.6924 196.752 72.6826 196.731 72.6682C196.71 72.6539 196.693 72.6353 196.679 72.6136C196.666 72.5919 196.657 72.5677 196.653 72.5423C196.648 72.5173 196.648 72.4916 196.653 72.4667C196.658 72.4417 196.668 72.418 196.682 72.3969C196.696 72.3758 196.713 72.3578 196.734 72.3438C196.755 72.3298 196.778 72.3201 196.802 72.3154C197.101 72.2789 197.404 72.316 197.687 72.4235C197.969 72.5311 198.222 72.706 198.425 72.9338C198.443 72.9513 198.457 72.9724 198.467 72.9958C198.477 73.0192 198.482 73.0444 198.482 73.0699C198.482 73.0954 198.477 73.1207 198.467 73.1441C198.457 73.1675 198.443 73.1886 198.425 73.2061C198.401 73.2292 198.373 73.2466 198.342 73.2572V73.2572Z" fill="#263238"/>
<path d="M192.036 73.899C192 73.913 191.961 73.913 191.925 73.899C191.878 73.8822 191.84 73.8472 191.818 73.8015C191.796 73.7558 191.793 73.7032 191.809 73.655C191.9 73.363 192.059 73.098 192.272 72.8826C192.485 72.6673 192.746 72.5079 193.032 72.4182C193.081 72.4054 193.132 72.4129 193.175 72.439C193.218 72.465 193.25 72.5076 193.262 72.5572C193.275 72.6069 193.267 72.6596 193.242 72.7037C193.216 72.7479 193.175 72.7799 193.126 72.7927C192.9 72.8642 192.694 72.9916 192.527 73.1637C192.36 73.3359 192.237 73.5475 192.169 73.7799C192.158 73.8096 192.14 73.8361 192.117 73.857C192.094 73.8778 192.066 73.8923 192.036 73.899V73.899Z" fill="#263238"/>
<path d="M202.511 72.2533C202.511 72.2533 199.743 71.215 198.48 69.5697C198.48 69.5697 195.967 70.2449 195.452 71.2718C195.217 71.0656 195.065 70.7775 195.025 70.4632C194.985 70.1489 195.06 69.8306 195.236 69.5697C195.236 69.5697 193.353 69.9782 192.982 71.2718C192.676 71.1225 192.425 70.8766 192.266 70.5703C192.106 70.2639 192.047 69.9132 192.096 69.5697C192.096 69.5697 191.26 69.8931 190.989 71.2718C190.989 71.2718 188.913 66.8351 195.773 65.5642C195.254 65.3837 194.71 65.2898 194.162 65.2862C194.162 65.2862 198.951 63.3062 202.743 65.116C206.536 66.9259 205.877 70.4321 202.511 72.2533Z" fill="#263238"/>
<path d="M219.719 125.857L213.075 126.764C213.075 126.764 210.334 107.14 209.127 100.803V87.2769L212.599 86.3408L215.29 87.2769C216.028 89.9982 216.596 92.7649 216.99 95.5603C217.316 97.6821 217.61 99.9515 217.87 102.249C218.23 105.381 218.529 108.57 218.783 111.554C219.182 116.371 219.448 120.631 219.592 123.236C219.675 124.87 219.719 125.857 219.719 125.857Z" fill="#8937C7"/>
<path d="M209.133 100.791C209.133 100.791 209.687 91.2423 212.604 86.3177C212.604 86.3177 212.533 84.9107 211.951 84.6837C211.37 84.4568 209.133 85.8184 209.133 85.8184C209.133 85.8184 207.743 84.8426 207.439 85.2965C207.134 85.7503 206.392 88.7686 209.133 100.791Z" fill="#8937C7"/>
<path opacity="0.7" d="M209.133 100.791C209.133 100.791 209.687 91.2423 212.604 86.3177C212.604 86.3177 212.533 84.9107 211.951 84.6837C211.37 84.4568 209.133 85.8184 209.133 85.8184C209.133 85.8184 207.743 84.8426 207.439 85.2965C207.134 85.7503 206.392 88.7686 209.133 100.791Z" fill="white"/>
<path d="M194.029 128.472L194.787 129.04C194.787 129.04 193.68 122.714 194.134 106.715C194.134 105.943 194.184 105.2 194.211 104.491C194.765 90.9536 196.825 88.4913 196.98 88.3438L195.064 89.0132L191.593 90.2387C190.546 101.784 194.029 128.472 194.029 128.472Z" fill="#8937C7"/>
<path d="M194.328 102.159C194.328 102.159 192.412 92.8767 192.983 89.6768C193.553 86.477 195.596 87.901 195.596 87.901C195.596 87.901 197.473 86.3465 198.032 88.0599C198.032 88.0599 195.452 89.9208 194.328 102.159Z" fill="#8937C7"/>
<path opacity="0.7" d="M194.328 102.159C194.328 102.159 192.412 92.8767 192.983 89.6768C193.553 86.477 195.596 87.901 195.596 87.901C195.596 87.901 197.473 86.3465 198.032 88.0599C198.032 88.0599 195.452 89.9208 194.328 102.159Z" fill="white"/>
<path opacity="0.2" d="M217.859 102.226C215.024 100.598 214.647 96.3484 214.647 96.3484C214.819 96.2803 215.871 95.9116 216.978 95.5371C217.305 97.659 217.599 99.9284 217.859 102.226Z" fill="black"/>
<path opacity="0.2" d="M203.995 157.378L206.381 144.074L205.922 137.033C205.922 137.033 202.65 149.243 203.995 157.378Z" fill="black"/>
<path opacity="0.2" d="M219.581 123.213C217.798 123.088 216.259 122.969 216.259 122.969L215.921 115.542C216.476 115.186 217.144 115.06 217.787 115.191C218.225 114.004 218.557 112.779 218.778 111.531C219.165 116.348 219.437 120.615 219.581 123.213Z" fill="black"/>
<path d="M220.19 111.525L216.718 117.239L219.464 118.856L222.726 113.71L220.19 111.525Z" fill="#E4897B"/>
<path d="M215.14 87.1855C217.477 87.4465 227.409 101.415 227.847 105.624C228.284 109.834 222.011 117.102 222.011 117.102L217.825 114.577C217.825 114.577 222.078 107.877 222.299 106.067C222.521 104.257 214.52 96.944 214.52 96.944C213.915 95.2593 213.582 93.4848 213.534 91.6903C213.424 88.6153 215.14 87.1855 215.14 87.1855Z" fill="#8937C7"/>
<path d="M215.915 115.548C215.915 115.548 219.487 116.331 220.926 118.634C220.926 118.634 219.431 123.428 218.363 123.95C217.294 124.472 214.647 124.472 214.647 124.472C214.647 124.472 214.476 119.139 215.915 115.548Z" fill="#8937C7"/>
</svg>
