<svg width="243" height="223" viewBox="0 0 243 223" fill="none" xmlns="http://www.w3.org/2000/svg">
<g clip-path="url(#clip0_1041_892)">
<path d="M249.921 198.948H-11.3525V199.082H249.921V198.948Z" fill="#EBEBEB"/>
<path d="M223.741 207.563H206.434V207.697H223.741V207.563Z" fill="#EBEBEB"/>
<path d="M161.726 209.021H157.185V209.154H161.726V209.021Z" fill="#EBEBEB"/>
<path d="M205.912 202.595H195.884V202.729H205.912V202.595Z" fill="#EBEBEB"/>
<path d="M38.6288 203.494H16.0601V203.628H38.6288V203.494Z" fill="#EBEBEB"/>
<path d="M46.5924 203.494H43.2847V203.628H46.5924V203.494Z" fill="#EBEBEB"/>
<path d="M106.298 205.754H57.3462V205.888H106.298V205.754Z" fill="#EBEBEB"/>
<path d="M112.491 175.067H11.5923C10.8019 175.065 10.0443 174.743 9.48584 174.169C8.92741 173.596 8.61377 172.819 8.61377 172.009V26.6703C8.62065 25.865 8.93733 25.095 9.49501 24.5276C10.0527 23.9601 10.8064 23.641 11.5923 23.6396H112.491C113.282 23.6396 114.041 23.9618 114.601 24.5352C115.16 25.1085 115.475 25.8862 115.475 26.6971V172.009C115.475 172.82 115.16 173.598 114.601 174.171C114.041 174.745 113.282 175.067 112.491 175.067V175.067ZM11.5923 23.7467C10.8365 23.7482 10.1121 24.0568 9.57821 24.6049C9.04428 25.1531 8.7444 25.8959 8.74441 26.6703V172.009C8.7444 172.784 9.04428 173.527 9.57821 174.075C10.1121 174.623 10.8365 174.931 11.5923 174.933H112.491C113.247 174.931 113.972 174.623 114.507 174.075C115.041 173.527 115.343 172.784 115.344 172.009V26.6703C115.343 25.8954 115.041 25.1526 114.507 24.6046C113.972 24.0566 113.247 23.7482 112.491 23.7467H11.5923Z" fill="#EBEBEB"/>
<path d="M225.523 175.067H124.619C123.829 175.065 123.07 174.743 122.511 174.17C121.952 173.597 121.637 172.82 121.636 172.009V26.6703C121.644 25.8645 121.962 25.0945 122.52 24.5272C123.079 23.9599 123.833 23.641 124.619 23.6396H225.523C226.308 23.6424 227.061 23.9621 227.617 24.5294C228.174 25.0967 228.49 25.8659 228.497 26.6703V172.009C228.497 172.818 228.184 173.594 227.626 174.167C227.069 174.741 226.313 175.064 225.523 175.067V175.067ZM124.619 23.7467C123.863 23.7482 123.138 24.0566 122.604 24.6046C122.069 25.1526 121.768 25.8954 121.766 26.6703V172.009C121.768 172.784 122.069 173.527 122.604 174.075C123.138 174.623 123.863 174.931 124.619 174.933H225.523C226.279 174.931 227.004 174.623 227.539 174.075C228.074 173.527 228.375 172.784 228.376 172.009V26.6703C228.375 25.8954 228.074 25.1526 227.539 24.6046C227.004 24.0566 226.279 23.7482 225.523 23.7467H124.619Z" fill="#EBEBEB"/>
<path d="M215.088 193.048V167.978H212.998V156.032H209.941V114.502H205.515V109.142L196.078 104.628V99.2252H194.771V114.502H192.942V156.032H191.108V134.196H186.144V122.941H184.754V156.032H180.981V143.438H178.499V140.225H172.746V129.238H169.595V121.468H165.723V110.143H164.338V121.468H160.466V129.238H157.315V140.225H151.562V143.438H149.08V156.032H146.133V140.225H140.38V106.191H138.551V102.443H126.26V106.191H123.642V130.844H113.186V133.259H109.262V135.133H113.186V144.782H102.202V112.622H99.8508V105.79H94.7507V81.5391H93.3085V105.79H89.6507V112.622H68.1897V110.373H66.8781V125.65H65.0492V125.918H63.9519V141.189H62.1177V145.344H58.2509V134.089H56.8661V160.883H55.3194V149.633H53.9346V167.18H53.0933V154.586H50.606V151.373H44.8528V140.386H41.7018V132.616H37.8298V121.297H36.4502V132.616H32.5729V140.386H29.4272V151.373H23.674V154.586H21.1867V166.912H20.7425V167.18H19.5093V193.048H215.088Z" fill="#E6E6E6"/>
<path d="M81.6452 114.127H80.1611V115.648H81.6452V114.127Z" fill="#F0F0F0"/>
<path d="M81.6452 116.67H80.1611V118.191H81.6452V116.67Z" fill="#F0F0F0"/>
<path d="M81.6452 126.854H80.1611V128.375H81.6452V126.854Z" fill="#F0F0F0"/>
<path d="M81.6452 129.397H80.1611V130.918H81.6452V129.397Z" fill="#F0F0F0"/>
<path d="M81.6452 131.946H80.1611V133.467H81.6452V131.946Z" fill="#F0F0F0"/>
<path d="M81.6452 139.582H80.1611V141.103H81.6452V139.582Z" fill="#F0F0F0"/>
<path d="M81.6452 142.125H80.1611V143.646H81.6452V142.125Z" fill="#F0F0F0"/>
<path d="M84.0016 124.311H82.5176V125.831H84.0016V124.311Z" fill="#F0F0F0"/>
<path d="M84.0016 126.854H82.5176V128.375H84.0016V126.854Z" fill="#F0F0F0"/>
<path d="M84.0016 129.397H82.5176V130.918H84.0016V129.397Z" fill="#F0F0F0"/>
<path d="M84.0016 131.946H82.5176V133.467H84.0016V131.946Z" fill="#F0F0F0"/>
<path d="M84.0016 134.49H82.5176V136.011H84.0016V134.49Z" fill="#F0F0F0"/>
<path d="M84.0016 139.582H82.5176V141.103H84.0016V139.582Z" fill="#F0F0F0"/>
<path d="M84.0016 142.125H82.5176V143.646H84.0016V142.125Z" fill="#F0F0F0"/>
<path d="M86.3532 114.127H84.8691V115.648H86.3532V114.127Z" fill="#F0F0F0"/>
<path d="M86.3532 116.67H84.8691V118.191H86.3532V116.67Z" fill="#F0F0F0"/>
<path d="M86.3532 119.219H84.8691V120.739H86.3532V119.219Z" fill="#F0F0F0"/>
<path d="M86.3532 121.762H84.8691V123.282H86.3532V121.762Z" fill="#F0F0F0"/>
<path d="M86.3532 124.311H84.8691V125.831H86.3532V124.311Z" fill="#F0F0F0"/>
<path d="M86.3532 126.854H84.8691V128.375H86.3532V126.854Z" fill="#F0F0F0"/>
<path d="M86.3532 129.397H84.8691V130.918H86.3532V129.397Z" fill="#F0F0F0"/>
<path d="M86.3532 131.946H84.8691V133.467H86.3532V131.946Z" fill="#F0F0F0"/>
<path d="M86.3532 134.49H84.8691V136.011H86.3532V134.49Z" fill="#F0F0F0"/>
<path d="M86.3532 137.038H84.8691V138.559H86.3532V137.038Z" fill="#F0F0F0"/>
<path d="M86.3532 142.125H84.8691V143.646H86.3532V142.125Z" fill="#F0F0F0"/>
<path d="M88.7047 114.127H87.2207V115.648H88.7047V114.127Z" fill="#F0F0F0"/>
<path d="M88.7047 116.67H87.2207V118.191H88.7047V116.67Z" fill="#F0F0F0"/>
<path d="M88.7047 119.219H87.2207V120.739H88.7047V119.219Z" fill="#F0F0F0"/>
<path d="M88.7047 121.762H87.2207V123.282H88.7047V121.762Z" fill="#F0F0F0"/>
<path d="M88.7047 124.311H87.2207V125.831H88.7047V124.311Z" fill="#F0F0F0"/>
<path d="M88.7047 126.854H87.2207V128.375H88.7047V126.854Z" fill="#F0F0F0"/>
<path d="M88.7047 129.397H87.2207V130.918H88.7047V129.397Z" fill="#F0F0F0"/>
<path d="M88.7047 152.311H87.2207V153.831H88.7047V152.311Z" fill="#F0F0F0"/>
<path d="M91.0612 114.127H89.5771V115.648H91.0612V114.127Z" fill="#F0F0F0"/>
<path d="M91.0612 116.67H89.5771V118.191H91.0612V116.67Z" fill="#F0F0F0"/>
<path d="M91.0612 119.219H89.5771V120.739H91.0612V119.219Z" fill="#F0F0F0"/>
<path d="M91.0612 121.762H89.5771V123.282H91.0612V121.762Z" fill="#F0F0F0"/>
<path d="M91.0612 124.311H89.5771V125.831H91.0612V124.311Z" fill="#F0F0F0"/>
<path d="M91.0612 126.854H89.5771V128.375H91.0612V126.854Z" fill="#F0F0F0"/>
<path d="M91.0612 129.397H89.5771V130.918H91.0612V129.397Z" fill="#F0F0F0"/>
<path d="M91.0612 131.946H89.5771V133.467H91.0612V131.946Z" fill="#F0F0F0"/>
<path d="M91.0612 147.218H89.5771V148.738H91.0612V147.218Z" fill="#F0F0F0"/>
<path d="M91.0612 149.767H89.5771V151.287H91.0612V149.767Z" fill="#F0F0F0"/>
<path d="M91.0612 152.311H89.5771V153.831H91.0612V152.311Z" fill="#F0F0F0"/>
<path d="M91.0612 154.854H89.5771V156.374H91.0612V154.854Z" fill="#F0F0F0"/>
<path d="M91.0612 165.038H89.5771V166.559H91.0612V165.038Z" fill="#F0F0F0"/>
<path d="M93.4128 114.127H91.9287V115.648H93.4128V114.127Z" fill="#F0F0F0"/>
<path d="M93.4128 116.67H91.9287V118.191H93.4128V116.67Z" fill="#F0F0F0"/>
<path d="M93.4128 119.219H91.9287V120.739H93.4128V119.219Z" fill="#F0F0F0"/>
<path d="M93.4128 121.762H91.9287V123.282H93.4128V121.762Z" fill="#F0F0F0"/>
<path d="M93.4128 124.311H91.9287V125.831H93.4128V124.311Z" fill="#F0F0F0"/>
<path d="M93.4128 126.854H91.9287V128.375H93.4128V126.854Z" fill="#F0F0F0"/>
<path d="M93.4128 129.397H91.9287V130.918H93.4128V129.397Z" fill="#F0F0F0"/>
<path d="M93.4128 131.946H91.9287V133.467H93.4128V131.946Z" fill="#F0F0F0"/>
<path d="M93.4128 134.49H91.9287V136.011H93.4128V134.49Z" fill="#F0F0F0"/>
<path d="M93.4128 137.038H91.9287V138.559H93.4128V137.038Z" fill="#F0F0F0"/>
<path d="M93.4128 144.675H91.9287V146.196H93.4128V144.675Z" fill="#F0F0F0"/>
<path d="M93.4128 147.218H91.9287V148.738H93.4128V147.218Z" fill="#F0F0F0"/>
<path d="M93.4128 149.767H91.9287V151.287H93.4128V149.767Z" fill="#F0F0F0"/>
<path d="M93.4128 152.311H91.9287V153.831H93.4128V152.311Z" fill="#F0F0F0"/>
<path d="M93.4128 154.854H91.9287V156.374H93.4128V154.854Z" fill="#F0F0F0"/>
<path d="M93.4128 165.038H91.9287V166.559H93.4128V165.038Z" fill="#F0F0F0"/>
<path d="M95.7692 114.127H94.2852V115.648H95.7692V114.127Z" fill="#F0F0F0"/>
<path d="M95.7692 116.67H94.2852V118.191H95.7692V116.67Z" fill="#F0F0F0"/>
<path d="M95.7692 119.219H94.2852V120.739H95.7692V119.219Z" fill="#F0F0F0"/>
<path d="M95.7692 121.762H94.2852V123.282H95.7692V121.762Z" fill="#F0F0F0"/>
<path d="M95.7692 124.311H94.2852V125.831H95.7692V124.311Z" fill="#F0F0F0"/>
<path d="M95.7692 126.854H94.2852V128.375H95.7692V126.854Z" fill="#F0F0F0"/>
<path d="M95.7692 129.397H94.2852V130.918H95.7692V129.397Z" fill="#F0F0F0"/>
<path d="M95.7692 131.946H94.2852V133.467H95.7692V131.946Z" fill="#F0F0F0"/>
<path d="M95.7692 134.49H94.2852V136.011H95.7692V134.49Z" fill="#F0F0F0"/>
<path d="M95.7692 137.038H94.2852V138.559H95.7692V137.038Z" fill="#F0F0F0"/>
<path d="M95.7692 139.582H94.2852V141.103H95.7692V139.582Z" fill="#F0F0F0"/>
<path d="M95.7692 142.125H94.2852V143.646H95.7692V142.125Z" fill="#F0F0F0"/>
<path d="M95.7692 144.675H94.2852V146.196H95.7692V144.675Z" fill="#F0F0F0"/>
<path d="M95.7692 147.218H94.2852V148.738H95.7692V147.218Z" fill="#F0F0F0"/>
<path d="M95.7692 149.767H94.2852V151.287H95.7692V149.767Z" fill="#F0F0F0"/>
<path d="M95.7692 152.311H94.2852V153.831H95.7692V152.311Z" fill="#F0F0F0"/>
<path d="M95.7692 154.854H94.2852V156.374H95.7692V154.854Z" fill="#F0F0F0"/>
<path d="M95.7692 157.402H94.2852V158.923H95.7692V157.402Z" fill="#F0F0F0"/>
<path d="M98.1212 114.127H96.6372V115.648H98.1212V114.127Z" fill="#F0F0F0"/>
<path d="M98.1212 116.67H96.6372V118.191H98.1212V116.67Z" fill="#F0F0F0"/>
<path d="M98.1212 119.219H96.6372V120.739H98.1212V119.219Z" fill="#F0F0F0"/>
<path d="M98.1212 121.762H96.6372V123.282H98.1212V121.762Z" fill="#F0F0F0"/>
<path d="M98.1212 124.311H96.6372V125.831H98.1212V124.311Z" fill="#F0F0F0"/>
<path d="M98.1212 126.854H96.6372V128.375H98.1212V126.854Z" fill="#F0F0F0"/>
<path d="M98.1212 129.397H96.6372V130.918H98.1212V129.397Z" fill="#F0F0F0"/>
<path d="M98.1212 131.946H96.6372V133.467H98.1212V131.946Z" fill="#F0F0F0"/>
<path d="M98.1212 134.49H96.6372V136.011H98.1212V134.49Z" fill="#F0F0F0"/>
<path d="M98.1212 137.038H96.6372V138.559H98.1212V137.038Z" fill="#F0F0F0"/>
<path d="M98.1212 144.675H96.6372V146.196H98.1212V144.675Z" fill="#F0F0F0"/>
<path d="M98.1212 147.218H96.6372V148.738H98.1212V147.218Z" fill="#F0F0F0"/>
<path d="M98.1212 149.767H96.6372V151.287H98.1212V149.767Z" fill="#F0F0F0"/>
<path d="M98.1212 152.311H96.6372V153.831H98.1212V152.311Z" fill="#F0F0F0"/>
<path d="M100.472 114.127H98.9883V115.648H100.472V114.127Z" fill="#F0F0F0"/>
<path d="M100.472 116.67H98.9883V118.191H100.472V116.67Z" fill="#F0F0F0"/>
<path d="M100.472 119.219H98.9883V120.739H100.472V119.219Z" fill="#F0F0F0"/>
<path d="M100.472 121.762H98.9883V123.282H100.472V121.762Z" fill="#F0F0F0"/>
<path d="M100.472 124.311H98.9883V125.831H100.472V124.311Z" fill="#F0F0F0"/>
<path d="M100.472 126.854H98.9883V128.375H100.472V126.854Z" fill="#F0F0F0"/>
<path d="M100.472 129.397H98.9883V130.918H100.472V129.397Z" fill="#F0F0F0"/>
<path d="M100.472 131.946H98.9883V133.467H100.472V131.946Z" fill="#F0F0F0"/>
<path d="M100.472 134.49H98.9883V136.011H100.472V134.49Z" fill="#F0F0F0"/>
<path d="M100.472 137.038H98.9883V138.559H100.472V137.038Z" fill="#F0F0F0"/>
<path d="M100.472 144.675H98.9883V146.196H100.472V144.675Z" fill="#F0F0F0"/>
<path d="M100.472 147.218H98.9883V148.738H100.472V147.218Z" fill="#F0F0F0"/>
<path d="M100.472 149.767H98.9883V151.287H100.472V149.767Z" fill="#F0F0F0"/>
<path d="M126.97 107.52H125.486V109.04H126.97V107.52Z" fill="#F0F0F0"/>
<path d="M126.97 110.062H125.486V111.583H126.97V110.062Z" fill="#F0F0F0"/>
<path d="M126.97 112.605H125.486V114.126H126.97V112.605Z" fill="#F0F0F0"/>
<path d="M126.97 115.154H125.486V116.675H126.97V115.154Z" fill="#F0F0F0"/>
<path d="M126.97 117.698H125.486V119.219H126.97V117.698Z" fill="#F0F0F0"/>
<path d="M126.97 120.247H125.486V121.768H126.97V120.247Z" fill="#F0F0F0"/>
<path d="M126.97 122.79H125.486V124.311H126.97V122.79Z" fill="#F0F0F0"/>
<path d="M126.97 125.333H125.486V126.854H126.97V125.333Z" fill="#F0F0F0"/>
<path d="M126.97 132.975H125.486V134.495H126.97V132.975Z" fill="#F0F0F0"/>
<path d="M126.97 135.519H125.486V137.039H126.97V135.519Z" fill="#F0F0F0"/>
<path d="M129.327 107.52H127.843V109.04H129.327V107.52Z" fill="#F0F0F0"/>
<path d="M129.327 110.062H127.843V111.583H129.327V110.062Z" fill="#F0F0F0"/>
<path d="M129.327 112.605H127.843V114.126H129.327V112.605Z" fill="#F0F0F0"/>
<path d="M129.327 115.154H127.843V116.675H129.327V115.154Z" fill="#F0F0F0"/>
<path d="M129.327 117.698H127.843V119.219H129.327V117.698Z" fill="#F0F0F0"/>
<path d="M129.327 120.247H127.843V121.768H129.327V120.247Z" fill="#F0F0F0"/>
<path d="M129.327 122.79H127.843V124.311H129.327V122.79Z" fill="#F0F0F0"/>
<path d="M129.327 125.333H127.843V126.854H129.327V125.333Z" fill="#F0F0F0"/>
<path d="M129.327 135.519H127.843V137.039H129.327V135.519Z" fill="#F0F0F0"/>
<path d="M131.679 107.52H130.195V109.04H131.679V107.52Z" fill="#F0F0F0"/>
<path d="M131.679 110.062H130.195V111.583H131.679V110.062Z" fill="#F0F0F0"/>
<path d="M131.679 112.605H130.195V114.126H131.679V112.605Z" fill="#F0F0F0"/>
<path d="M131.679 115.154H130.195V116.675H131.679V115.154Z" fill="#F0F0F0"/>
<path d="M131.679 117.698H130.195V119.219H131.679V117.698Z" fill="#F0F0F0"/>
<path d="M131.679 120.247H130.195V121.768H131.679V120.247Z" fill="#F0F0F0"/>
<path d="M131.679 122.79H130.195V124.311H131.679V122.79Z" fill="#F0F0F0"/>
<path d="M131.679 125.333H130.195V126.854H131.679V125.333Z" fill="#F0F0F0"/>
<path d="M134.03 107.52H132.546V109.04H134.03V107.52Z" fill="#F0F0F0"/>
<path d="M134.03 110.062H132.546V111.583H134.03V110.062Z" fill="#F0F0F0"/>
<path d="M134.03 112.605H132.546V114.126H134.03V112.605Z" fill="#F0F0F0"/>
<path d="M134.03 115.154H132.546V116.675H134.03V115.154Z" fill="#F0F0F0"/>
<path d="M134.03 117.698H132.546V119.219H134.03V117.698Z" fill="#F0F0F0"/>
<path d="M134.03 120.247H132.546V121.768H134.03V120.247Z" fill="#F0F0F0"/>
<path d="M134.03 125.333H132.546V126.854H134.03V125.333Z" fill="#F0F0F0"/>
<path d="M134.03 127.882H132.546V129.403H134.03V127.882Z" fill="#F0F0F0"/>
<path d="M134.03 135.519H132.546V137.039H134.03V135.519Z" fill="#F0F0F0"/>
<path d="M134.03 138.062H132.546V139.582H134.03V138.062Z" fill="#F0F0F0"/>
<path d="M134.03 140.61H132.546V142.131H134.03V140.61Z" fill="#F0F0F0"/>
<path d="M134.03 143.153H132.546V144.674H134.03V143.153Z" fill="#F0F0F0"/>
<path d="M134.03 145.702H132.546V147.223H134.03V145.702Z" fill="#F0F0F0"/>
<path d="M134.03 148.246H132.546V149.767H134.03V148.246Z" fill="#F0F0F0"/>
<path d="M134.03 150.789H132.546V152.31H134.03V150.789Z" fill="#F0F0F0"/>
<path d="M136.387 107.52H134.903V109.04H136.387V107.52Z" fill="#F0F0F0"/>
<path d="M136.387 110.062H134.903V111.583H136.387V110.062Z" fill="#F0F0F0"/>
<path d="M136.387 112.605H134.903V114.126H136.387V112.605Z" fill="#F0F0F0"/>
<path d="M136.387 115.154H134.903V116.675H136.387V115.154Z" fill="#F0F0F0"/>
<path d="M136.387 117.698H134.903V119.219H136.387V117.698Z" fill="#F0F0F0"/>
<path d="M136.387 120.247H134.903V121.768H136.387V120.247Z" fill="#F0F0F0"/>
<path d="M136.387 127.882H134.903V129.403H136.387V127.882Z" fill="#F0F0F0"/>
<path d="M136.387 130.426H134.903V131.946H136.387V130.426Z" fill="#F0F0F0"/>
<path d="M136.387 132.975H134.903V134.495H136.387V132.975Z" fill="#F0F0F0"/>
<path d="M136.387 135.519H134.903V137.039H136.387V135.519Z" fill="#F0F0F0"/>
<path d="M136.387 138.062H134.903V139.582H136.387V138.062Z" fill="#F0F0F0"/>
<path d="M136.387 140.61H134.903V142.131H136.387V140.61Z" fill="#F0F0F0"/>
<path d="M136.387 143.153H134.903V144.674H136.387V143.153Z" fill="#F0F0F0"/>
<path d="M136.387 145.702H134.903V147.223H136.387V145.702Z" fill="#F0F0F0"/>
<path d="M136.387 148.246H134.903V149.767H136.387V148.246Z" fill="#F0F0F0"/>
<path d="M136.387 150.789H134.903V152.31H136.387V150.789Z" fill="#F0F0F0"/>
<path d="M136.387 153.338H134.903V154.859H136.387V153.338Z" fill="#F0F0F0"/>
<path d="M136.387 158.43H134.903V159.95H136.387V158.43Z" fill="#F0F0F0"/>
<path d="M138.738 107.52H137.254V109.04H138.738V107.52Z" fill="#F0F0F0"/>
<path d="M138.738 110.062H137.254V111.583H138.738V110.062Z" fill="#F0F0F0"/>
<path d="M138.738 112.605H137.254V114.126H138.738V112.605Z" fill="#F0F0F0"/>
<path d="M138.738 115.154H137.254V116.675H138.738V115.154Z" fill="#F0F0F0"/>
<path d="M138.738 117.698H137.254V119.219H138.738V117.698Z" fill="#F0F0F0"/>
<path d="M138.738 120.247H137.254V121.768H138.738V120.247Z" fill="#F0F0F0"/>
<path d="M138.738 127.882H137.254V129.403H138.738V127.882Z" fill="#F0F0F0"/>
<path d="M138.738 130.426H137.254V131.946H138.738V130.426Z" fill="#F0F0F0"/>
<path d="M138.738 132.975H137.254V134.495H138.738V132.975Z" fill="#F0F0F0"/>
<path d="M138.738 135.519H137.254V137.039H138.738V135.519Z" fill="#F0F0F0"/>
<path d="M138.738 143.153H137.254V144.674H138.738V143.153Z" fill="#F0F0F0"/>
<path d="M138.738 145.702H137.254V147.223H138.738V145.702Z" fill="#F0F0F0"/>
<path d="M138.738 148.246H137.254V149.767H138.738V148.246Z" fill="#F0F0F0"/>
<path d="M138.738 150.789H137.254V152.31H138.738V150.789Z" fill="#F0F0F0"/>
<path d="M138.738 153.338H137.254V154.859H138.738V153.338Z" fill="#F0F0F0"/>
<path d="M138.738 158.43H137.254V159.95H138.738V158.43Z" fill="#F0F0F0"/>
<path d="M138.738 160.974H137.254V162.494H138.738V160.974Z" fill="#F0F0F0"/>
<path d="M160.095 131.186H158.611V132.706H160.095V131.186Z" fill="#F0F0F0"/>
<path d="M160.095 133.729H158.611V135.25H160.095V133.729Z" fill="#F0F0F0"/>
<path d="M160.095 136.278H158.611V137.799H160.095V136.278Z" fill="#F0F0F0"/>
<path d="M160.095 138.822H158.611V140.343H160.095V138.822Z" fill="#F0F0F0"/>
<path d="M160.095 141.371H158.611V142.892H160.095V141.371Z" fill="#F0F0F0"/>
<path d="M160.095 143.914H158.611V145.435H160.095V143.914Z" fill="#F0F0F0"/>
<path d="M160.095 146.458H158.611V147.979H160.095V146.458Z" fill="#F0F0F0"/>
<path d="M160.095 154.099H158.611V155.619H160.095V154.099Z" fill="#F0F0F0"/>
<path d="M160.095 156.642H158.611V158.162H160.095V156.642Z" fill="#F0F0F0"/>
<path d="M160.095 159.186H158.611V160.706H160.095V159.186Z" fill="#F0F0F0"/>
<path d="M162.446 131.186H160.962V132.706H162.446V131.186Z" fill="#F0F0F0"/>
<path d="M162.446 133.729H160.962V135.25H162.446V133.729Z" fill="#F0F0F0"/>
<path d="M162.446 136.278H160.962V137.799H162.446V136.278Z" fill="#F0F0F0"/>
<path d="M162.446 138.822H160.962V140.343H162.446V138.822Z" fill="#F0F0F0"/>
<path d="M162.446 141.371H160.962V142.892H162.446V141.371Z" fill="#F0F0F0"/>
<path d="M162.446 143.914H160.962V145.435H162.446V143.914Z" fill="#F0F0F0"/>
<path d="M162.446 146.458H160.962V147.979H162.446V146.458Z" fill="#F0F0F0"/>
<path d="M164.803 131.186H163.319V132.706H164.803V131.186Z" fill="#F0F0F0"/>
<path d="M164.803 133.729H163.319V135.25H164.803V133.729Z" fill="#F0F0F0"/>
<path d="M164.803 136.278H163.319V137.799H164.803V136.278Z" fill="#F0F0F0"/>
<path d="M164.803 138.822H163.319V140.343H164.803V138.822Z" fill="#F0F0F0"/>
<path d="M164.803 141.371H163.319V142.892H164.803V141.371Z" fill="#F0F0F0"/>
<path d="M164.803 143.914H163.319V145.435H164.803V143.914Z" fill="#F0F0F0"/>
<path d="M164.803 146.458H163.319V147.979H164.803V146.458Z" fill="#F0F0F0"/>
<path d="M167.155 131.186H165.671V132.706H167.155V131.186Z" fill="#F0F0F0"/>
<path d="M167.155 133.729H165.671V135.25H167.155V133.729Z" fill="#F0F0F0"/>
<path d="M167.155 136.278H165.671V137.799H167.155V136.278Z" fill="#F0F0F0"/>
<path d="M167.155 138.822H165.671V140.343H167.155V138.822Z" fill="#F0F0F0"/>
<path d="M167.155 141.371H165.671V142.892H167.155V141.371Z" fill="#F0F0F0"/>
<path d="M167.155 143.914H165.671V145.435H167.155V143.914Z" fill="#F0F0F0"/>
<path d="M167.155 146.458H165.671V147.979H167.155V146.458Z" fill="#F0F0F0"/>
<path d="M167.155 149.006H165.671V150.527H167.155V149.006Z" fill="#F0F0F0"/>
<path d="M167.155 151.55H165.671V153.071H167.155V151.55Z" fill="#F0F0F0"/>
<path d="M167.155 154.099H165.671V155.619H167.155V154.099Z" fill="#F0F0F0"/>
<path d="M167.155 156.642H165.671V158.162H167.155V156.642Z" fill="#F0F0F0"/>
<path d="M169.511 131.186H168.027V132.706H169.511V131.186Z" fill="#F0F0F0"/>
<path d="M169.511 133.729H168.027V135.25H169.511V133.729Z" fill="#F0F0F0"/>
<path d="M169.511 136.278H168.027V137.799H169.511V136.278Z" fill="#F0F0F0"/>
<path d="M169.511 138.822H168.027V140.343H169.511V138.822Z" fill="#F0F0F0"/>
<path d="M169.511 141.371H168.027V142.892H169.511V141.371Z" fill="#F0F0F0"/>
<path d="M169.511 143.914H168.027V145.435H169.511V143.914Z" fill="#F0F0F0"/>
<path d="M169.511 146.458H168.027V147.979H169.511V146.458Z" fill="#F0F0F0"/>
<path d="M169.511 149.006H168.027V150.527H169.511V149.006Z" fill="#F0F0F0"/>
<path d="M169.511 151.55H168.027V153.071H169.511V151.55Z" fill="#F0F0F0"/>
<path d="M169.511 154.099H168.027V155.619H169.511V154.099Z" fill="#F0F0F0"/>
<path d="M169.511 156.642H168.027V158.162H169.511V156.642Z" fill="#F0F0F0"/>
<path d="M169.511 159.186H168.027V160.706H169.511V159.186Z" fill="#F0F0F0"/>
<path d="M169.511 166.826H168.027V168.347H169.511V166.826Z" fill="#F0F0F0"/>
<path d="M169.511 169.369H168.027V170.89H169.511V169.369Z" fill="#F0F0F0"/>
<path d="M171.862 131.186H170.378V132.706H171.862V131.186Z" fill="#F0F0F0"/>
<path d="M171.862 133.729H170.378V135.25H171.862V133.729Z" fill="#F0F0F0"/>
<path d="M171.862 136.278H170.378V137.799H171.862V136.278Z" fill="#F0F0F0"/>
<path d="M171.862 143.914H170.378V145.435H171.862V143.914Z" fill="#F0F0F0"/>
<path d="M171.862 146.458H170.378V147.979H171.862V146.458Z" fill="#F0F0F0"/>
<path d="M171.862 149.006H170.378V150.527H171.862V149.006Z" fill="#F0F0F0"/>
<path d="M171.862 151.55H170.378V153.071H171.862V151.55Z" fill="#F0F0F0"/>
<path d="M171.862 154.099H170.378V155.619H171.862V154.099Z" fill="#F0F0F0"/>
<path d="M171.862 156.642H170.378V158.162H171.862V156.642Z" fill="#F0F0F0"/>
<path d="M171.862 159.186H170.378V160.706H171.862V159.186Z" fill="#F0F0F0"/>
<path d="M171.862 166.826H170.378V168.347H171.862V166.826Z" fill="#F0F0F0"/>
<path d="M171.862 169.369H170.378V170.89H171.862V169.369Z" fill="#F0F0F0"/>
<path d="M171.862 171.913H170.378V173.434H171.862V171.913Z" fill="#F0F0F0"/>
<path d="M196.532 115.915H195.048V117.436H196.532V115.915Z" fill="#F0F0F0"/>
<path d="M196.532 118.458H195.048V119.979H196.532V118.458Z" fill="#F0F0F0"/>
<path d="M196.532 121.002H195.048V122.523H196.532V121.002Z" fill="#F0F0F0"/>
<path d="M196.532 123.551H195.048V125.071H196.532V123.551Z" fill="#F0F0F0"/>
<path d="M196.532 126.094H195.048V127.614H196.532V126.094Z" fill="#F0F0F0"/>
<path d="M196.532 128.643H195.048V130.163H196.532V128.643Z" fill="#F0F0F0"/>
<path d="M196.532 131.186H195.048V132.706H196.532V131.186Z" fill="#F0F0F0"/>
<path d="M196.532 133.729H195.048V135.25H196.532V133.729Z" fill="#F0F0F0"/>
<path d="M196.532 136.278H195.048V137.799H196.532V136.278Z" fill="#F0F0F0"/>
<path d="M196.532 138.822H195.048V140.343H196.532V138.822Z" fill="#F0F0F0"/>
<path d="M196.532 141.371H195.048V142.892H196.532V141.371Z" fill="#F0F0F0"/>
<path d="M196.532 143.914H195.048V145.435H196.532V143.914Z" fill="#F0F0F0"/>
<path d="M196.532 146.458H195.048V147.979H196.532V146.458Z" fill="#F0F0F0"/>
<path d="M196.532 149.006H195.048V150.527H196.532V149.006Z" fill="#F0F0F0"/>
<path d="M196.532 151.55H195.048V153.071H196.532V151.55Z" fill="#F0F0F0"/>
<path d="M196.532 154.099H195.048V155.619H196.532V154.099Z" fill="#F0F0F0"/>
<path d="M196.532 156.642H195.048V158.162H196.532V156.642Z" fill="#F0F0F0"/>
<path d="M196.532 159.186H195.048V160.706H196.532V159.186Z" fill="#F0F0F0"/>
<path d="M196.532 161.734H195.048V163.255H196.532V161.734Z" fill="#F0F0F0"/>
<path d="M196.532 164.277H195.048V165.798H196.532V164.277Z" fill="#F0F0F0"/>
<path d="M196.532 166.826H195.048V168.347H196.532V166.826Z" fill="#F0F0F0"/>
<path d="M196.532 169.369H195.048V170.89H196.532V169.369Z" fill="#F0F0F0"/>
<path d="M196.532 171.913H195.048V173.434H196.532V171.913Z" fill="#F0F0F0"/>
<path d="M198.883 115.915H197.399V117.436H198.883V115.915Z" fill="#F0F0F0"/>
<path d="M198.883 118.458H197.399V119.979H198.883V118.458Z" fill="#F0F0F0"/>
<path d="M198.883 121.002H197.399V122.523H198.883V121.002Z" fill="#F0F0F0"/>
<path d="M198.883 123.551H197.399V125.071H198.883V123.551Z" fill="#F0F0F0"/>
<path d="M198.883 126.094H197.399V127.614H198.883V126.094Z" fill="#F0F0F0"/>
<path d="M198.883 128.643H197.399V130.163H198.883V128.643Z" fill="#F0F0F0"/>
<path d="M198.883 131.186H197.399V132.706H198.883V131.186Z" fill="#F0F0F0"/>
<path d="M198.883 133.729H197.399V135.25H198.883V133.729Z" fill="#F0F0F0"/>
<path d="M198.883 136.278H197.399V137.799H198.883V136.278Z" fill="#F0F0F0"/>
<path d="M198.883 138.822H197.399V140.343H198.883V138.822Z" fill="#F0F0F0"/>
<path d="M198.883 141.371H197.399V142.892H198.883V141.371Z" fill="#F0F0F0"/>
<path d="M198.883 143.914H197.399V145.435H198.883V143.914Z" fill="#F0F0F0"/>
<path d="M198.883 146.458H197.399V147.979H198.883V146.458Z" fill="#F0F0F0"/>
<path d="M198.883 149.006H197.399V150.527H198.883V149.006Z" fill="#F0F0F0"/>
<path d="M198.883 151.55H197.399V153.071H198.883V151.55Z" fill="#F0F0F0"/>
<path d="M198.883 154.099H197.399V155.619H198.883V154.099Z" fill="#F0F0F0"/>
<path d="M198.883 156.642H197.399V158.162H198.883V156.642Z" fill="#F0F0F0"/>
<path d="M198.883 159.186H197.399V160.706H198.883V159.186Z" fill="#F0F0F0"/>
<path d="M198.883 161.734H197.399V163.255H198.883V161.734Z" fill="#F0F0F0"/>
<path d="M201.235 115.915H199.751V117.436H201.235V115.915Z" fill="#F0F0F0"/>
<path d="M201.235 118.458H199.751V119.979H201.235V118.458Z" fill="#F0F0F0"/>
<path d="M201.235 121.002H199.751V122.523H201.235V121.002Z" fill="#F0F0F0"/>
<path d="M201.235 123.551H199.751V125.071H201.235V123.551Z" fill="#F0F0F0"/>
<path d="M201.235 126.094H199.751V127.614H201.235V126.094Z" fill="#F0F0F0"/>
<path d="M201.235 128.643H199.751V130.163H201.235V128.643Z" fill="#F0F0F0"/>
<path d="M201.235 131.186H199.751V132.706H201.235V131.186Z" fill="#F0F0F0"/>
<path d="M201.235 133.729H199.751V135.25H201.235V133.729Z" fill="#F0F0F0"/>
<path d="M201.235 136.278H199.751V137.799H201.235V136.278Z" fill="#F0F0F0"/>
<path d="M201.235 138.822H199.751V140.343H201.235V138.822Z" fill="#F0F0F0"/>
<path d="M201.235 141.371H199.751V142.892H201.235V141.371Z" fill="#F0F0F0"/>
<path d="M201.235 143.914H199.751V145.435H201.235V143.914Z" fill="#F0F0F0"/>
<path d="M201.235 146.458H199.751V147.979H201.235V146.458Z" fill="#F0F0F0"/>
<path d="M201.235 149.006H199.751V150.527H201.235V149.006Z" fill="#F0F0F0"/>
<path d="M201.235 151.55H199.751V153.071H201.235V151.55Z" fill="#F0F0F0"/>
<path d="M201.235 154.099H199.751V155.619H201.235V154.099Z" fill="#F0F0F0"/>
<path d="M201.235 156.642H199.751V158.162H201.235V156.642Z" fill="#F0F0F0"/>
<path d="M201.235 159.186H199.751V160.706H201.235V159.186Z" fill="#F0F0F0"/>
<path d="M201.235 161.734H199.751V163.255H201.235V161.734Z" fill="#F0F0F0"/>
<path d="M203.591 115.915H202.107V117.436H203.591V115.915Z" fill="#F0F0F0"/>
<path d="M203.591 118.458H202.107V119.979H203.591V118.458Z" fill="#F0F0F0"/>
<path d="M203.591 121.002H202.107V122.523H203.591V121.002Z" fill="#F0F0F0"/>
<path d="M203.591 123.551H202.107V125.071H203.591V123.551Z" fill="#F0F0F0"/>
<path d="M203.591 126.094H202.107V127.614H203.591V126.094Z" fill="#F0F0F0"/>
<path d="M203.591 128.643H202.107V130.163H203.591V128.643Z" fill="#F0F0F0"/>
<path d="M203.591 131.186H202.107V132.706H203.591V131.186Z" fill="#F0F0F0"/>
<path d="M203.591 133.729H202.107V135.25H203.591V133.729Z" fill="#F0F0F0"/>
<path d="M203.591 136.278H202.107V137.799H203.591V136.278Z" fill="#F0F0F0"/>
<path d="M203.591 138.822H202.107V140.343H203.591V138.822Z" fill="#F0F0F0"/>
<path d="M203.591 141.371H202.107V142.892H203.591V141.371Z" fill="#F0F0F0"/>
<path d="M203.591 143.914H202.107V145.435H203.591V143.914Z" fill="#F0F0F0"/>
<path d="M203.591 146.458H202.107V147.979H203.591V146.458Z" fill="#F0F0F0"/>
<path d="M203.591 149.006H202.107V150.527H203.591V149.006Z" fill="#F0F0F0"/>
<path d="M203.591 151.55H202.107V153.071H203.591V151.55Z" fill="#F0F0F0"/>
<path d="M205.943 115.915H204.459V117.436H205.943V115.915Z" fill="#F0F0F0"/>
<path d="M205.943 118.458H204.459V119.979H205.943V118.458Z" fill="#F0F0F0"/>
<path d="M205.943 121.002H204.459V122.523H205.943V121.002Z" fill="#F0F0F0"/>
<path d="M205.943 123.551H204.459V125.071H205.943V123.551Z" fill="#F0F0F0"/>
<path d="M205.943 126.094H204.459V127.614H205.943V126.094Z" fill="#F0F0F0"/>
<path d="M205.943 128.643H204.459V130.163H205.943V128.643Z" fill="#F0F0F0"/>
<path d="M205.943 131.186H204.459V132.706H205.943V131.186Z" fill="#F0F0F0"/>
<path d="M205.943 133.729H204.459V135.25H205.943V133.729Z" fill="#F0F0F0"/>
<path d="M205.943 136.278H204.459V137.799H205.943V136.278Z" fill="#F0F0F0"/>
<path d="M205.943 138.822H204.459V140.343H205.943V138.822Z" fill="#F0F0F0"/>
<path d="M205.943 141.371H204.459V142.892H205.943V141.371Z" fill="#F0F0F0"/>
<path d="M205.943 143.914H204.459V145.435H205.943V143.914Z" fill="#F0F0F0"/>
<path d="M205.943 146.458H204.459V147.979H205.943V146.458Z" fill="#F0F0F0"/>
<path d="M208.3 115.915H206.816V117.436H208.3V115.915Z" fill="#F0F0F0"/>
<path d="M208.3 118.458H206.816V119.979H208.3V118.458Z" fill="#F0F0F0"/>
<path d="M208.3 121.002H206.816V122.523H208.3V121.002Z" fill="#F0F0F0"/>
<path d="M208.3 123.551H206.816V125.071H208.3V123.551Z" fill="#F0F0F0"/>
<path d="M208.3 126.094H206.816V127.614H208.3V126.094Z" fill="#F0F0F0"/>
<path d="M208.3 128.643H206.816V130.163H208.3V128.643Z" fill="#F0F0F0"/>
<path d="M208.3 131.186H206.816V132.706H208.3V131.186Z" fill="#F0F0F0"/>
<path d="M208.3 133.729H206.816V135.25H208.3V133.729Z" fill="#F0F0F0"/>
<path d="M208.3 136.278H206.816V137.799H208.3V136.278Z" fill="#F0F0F0"/>
<path d="M208.3 138.822H206.816V140.343H208.3V138.822Z" fill="#F0F0F0"/>
<path d="M208.3 141.371H206.816V142.892H208.3V141.371Z" fill="#F0F0F0"/>
<path d="M208.3 143.914H206.816V145.435H208.3V143.914Z" fill="#F0F0F0"/>
<path d="M35.3634 134.49H33.8794V136.011H35.3634V134.49Z" fill="#F0F0F0"/>
<path d="M35.3634 137.038H33.8794V138.559H35.3634V137.038Z" fill="#F0F0F0"/>
<path d="M35.3634 139.582H33.8794V141.103H35.3634V139.582Z" fill="#F0F0F0"/>
<path d="M35.3634 142.125H33.8794V143.646H35.3634V142.125Z" fill="#F0F0F0"/>
<path d="M35.3634 144.675H33.8794V146.196H35.3634V144.675Z" fill="#F0F0F0"/>
<path d="M35.3634 147.218H33.8794V148.738H35.3634V147.218Z" fill="#F0F0F0"/>
<path d="M35.3634 149.767H33.8794V151.287H35.3634V149.767Z" fill="#F0F0F0"/>
<path d="M35.3634 152.311H33.8794V153.831H35.3634V152.311Z" fill="#F0F0F0"/>
<path d="M35.3634 154.854H33.8794V156.374H35.3634V154.854Z" fill="#F0F0F0"/>
<path d="M35.3634 157.402H33.8794V158.923H35.3634V157.402Z" fill="#F0F0F0"/>
<path d="M35.3634 159.945H33.8794V161.466H35.3634V159.945Z" fill="#F0F0F0"/>
<path d="M35.3634 162.494H33.8794V164.015H35.3634V162.494Z" fill="#F0F0F0"/>
<path d="M35.3634 165.038H33.8794V166.559H35.3634V165.038Z" fill="#F0F0F0"/>
<path d="M35.3634 167.581H33.8794V169.102H35.3634V167.581Z" fill="#F0F0F0"/>
<path d="M35.3634 170.13H33.8794V171.651H35.3634V170.13Z" fill="#F0F0F0"/>
<path d="M35.3634 172.673H33.8794V174.194H35.3634V172.673Z" fill="#F0F0F0"/>
<path d="M35.3634 175.222H33.8794V176.742H35.3634V175.222Z" fill="#F0F0F0"/>
<path d="M35.3634 177.766H33.8794V179.286H35.3634V177.766Z" fill="#F0F0F0"/>
<path d="M35.3634 180.309H33.8794V181.829H35.3634V180.309Z" fill="#F0F0F0"/>
<path d="M35.3634 182.857H33.8794V184.378H35.3634V182.857Z" fill="#F0F0F0"/>
<path d="M37.7145 134.49H36.2305V136.011H37.7145V134.49Z" fill="#F0F0F0"/>
<path d="M37.7145 137.038H36.2305V138.559H37.7145V137.038Z" fill="#F0F0F0"/>
<path d="M37.7145 139.582H36.2305V141.103H37.7145V139.582Z" fill="#F0F0F0"/>
<path d="M37.7145 142.125H36.2305V143.646H37.7145V142.125Z" fill="#F0F0F0"/>
<path d="M37.7145 144.675H36.2305V146.196H37.7145V144.675Z" fill="#F0F0F0"/>
<path d="M37.7145 147.218H36.2305V148.738H37.7145V147.218Z" fill="#F0F0F0"/>
<path d="M37.7145 149.767H36.2305V151.287H37.7145V149.767Z" fill="#F0F0F0"/>
<path d="M37.7145 152.311H36.2305V153.831H37.7145V152.311Z" fill="#F0F0F0"/>
<path d="M37.7145 154.854H36.2305V156.374H37.7145V154.854Z" fill="#F0F0F0"/>
<path d="M37.7145 157.402H36.2305V158.923H37.7145V157.402Z" fill="#F0F0F0"/>
<path d="M37.7145 159.945H36.2305V161.466H37.7145V159.945Z" fill="#F0F0F0"/>
<path d="M37.7145 162.494H36.2305V164.015H37.7145V162.494Z" fill="#F0F0F0"/>
<path d="M37.7145 165.038H36.2305V166.559H37.7145V165.038Z" fill="#F0F0F0"/>
<path d="M37.7145 167.581H36.2305V169.102H37.7145V167.581Z" fill="#F0F0F0"/>
<path d="M37.7145 170.13H36.2305V171.651H37.7145V170.13Z" fill="#F0F0F0"/>
<path d="M37.7145 172.673H36.2305V174.194H37.7145V172.673Z" fill="#F0F0F0"/>
<path d="M37.7145 175.222H36.2305V176.742H37.7145V175.222Z" fill="#F0F0F0"/>
<path d="M37.7145 177.766H36.2305V179.286H37.7145V177.766Z" fill="#F0F0F0"/>
<path d="M40.0661 134.49H38.582V136.011H40.0661V134.49Z" fill="#F0F0F0"/>
<path d="M40.0661 137.038H38.582V138.559H40.0661V137.038Z" fill="#F0F0F0"/>
<path d="M40.0661 139.582H38.582V141.103H40.0661V139.582Z" fill="#F0F0F0"/>
<path d="M40.0661 142.125H38.582V143.646H40.0661V142.125Z" fill="#F0F0F0"/>
<path d="M40.0661 144.675H38.582V146.196H40.0661V144.675Z" fill="#F0F0F0"/>
<path d="M40.0661 147.218H38.582V148.738H40.0661V147.218Z" fill="#F0F0F0"/>
<path d="M40.0661 149.767H38.582V151.287H40.0661V149.767Z" fill="#F0F0F0"/>
<path d="M40.0661 152.311H38.582V153.831H40.0661V152.311Z" fill="#F0F0F0"/>
<path d="M40.0661 154.854H38.582V156.374H40.0661V154.854Z" fill="#F0F0F0"/>
<path d="M40.0661 157.402H38.582V158.923H40.0661V157.402Z" fill="#F0F0F0"/>
<path d="M40.0661 159.945H38.582V161.466H40.0661V159.945Z" fill="#F0F0F0"/>
<path d="M40.0661 162.494H38.582V164.015H40.0661V162.494Z" fill="#F0F0F0"/>
<path d="M40.0661 165.038H38.582V166.559H40.0661V165.038Z" fill="#F0F0F0"/>
<path d="M40.0661 167.581H38.582V169.102H40.0661V167.581Z" fill="#F0F0F0"/>
<path d="M40.0661 170.13H38.582V171.651H40.0661V170.13Z" fill="#F0F0F0"/>
<path d="M40.0661 172.673H38.582V174.194H40.0661V172.673Z" fill="#F0F0F0"/>
<path d="M40.0661 175.222H38.582V176.742H40.0661V175.222Z" fill="#F0F0F0"/>
<path d="M40.0661 177.766H38.582V179.286H40.0661V177.766Z" fill="#F0F0F0"/>
<path d="M26.5583 153.07H25.0742V154.591H26.5583V153.07Z" fill="#F0F0F0"/>
<path d="M26.5583 155.613H25.0742V157.134H26.5583V155.613Z" fill="#F0F0F0"/>
<path d="M26.5583 158.163H25.0742V159.684H26.5583V158.163Z" fill="#F0F0F0"/>
<path d="M26.5583 160.706H25.0742V162.227H26.5583V160.706Z" fill="#F0F0F0"/>
<path d="M26.5583 163.249H25.0742V164.77H26.5583V163.249Z" fill="#F0F0F0"/>
<path d="M26.5583 165.798H25.0742V167.319H26.5583V165.798Z" fill="#F0F0F0"/>
<path d="M26.5583 168.342H25.0742V169.862H26.5583V168.342Z" fill="#F0F0F0"/>
<path d="M26.5583 170.891H25.0742V172.411H26.5583V170.891Z" fill="#F0F0F0"/>
<path d="M26.5583 173.434H25.0742V174.954H26.5583V173.434Z" fill="#F0F0F0"/>
<path d="M26.5583 175.977H25.0742V177.497H26.5583V175.977Z" fill="#F0F0F0"/>
<path d="M26.5583 178.525H25.0742V180.046H26.5583V178.525Z" fill="#F0F0F0"/>
<path d="M26.5583 181.069H25.0742V182.59H26.5583V181.069Z" fill="#F0F0F0"/>
<path d="M26.5583 183.618H25.0742V185.139H26.5583V183.618Z" fill="#F0F0F0"/>
<path d="M28.9093 153.07H27.4253V154.591H28.9093V153.07Z" fill="#F0F0F0"/>
<path d="M28.9093 155.613H27.4253V157.134H28.9093V155.613Z" fill="#F0F0F0"/>
<path d="M28.9093 158.163H27.4253V159.684H28.9093V158.163Z" fill="#F0F0F0"/>
<path d="M28.9093 160.706H27.4253V162.227H28.9093V160.706Z" fill="#F0F0F0"/>
<path d="M28.9093 163.249H27.4253V164.77H28.9093V163.249Z" fill="#F0F0F0"/>
<path d="M28.9093 165.798H27.4253V167.319H28.9093V165.798Z" fill="#F0F0F0"/>
<path d="M28.9093 168.342H27.4253V169.862H28.9093V168.342Z" fill="#F0F0F0"/>
<path d="M28.9093 170.891H27.4253V172.411H28.9093V170.891Z" fill="#F0F0F0"/>
<path d="M28.9093 173.434H27.4253V174.954H28.9093V173.434Z" fill="#F0F0F0"/>
<path d="M28.9093 175.977H27.4253V177.497H28.9093V175.977Z" fill="#F0F0F0"/>
<path d="M28.9093 178.525H27.4253V180.046H28.9093V178.525Z" fill="#F0F0F0"/>
<path d="M28.9093 181.069H27.4253V182.59H28.9093V181.069Z" fill="#F0F0F0"/>
<path d="M28.9093 183.618H27.4253V185.139H28.9093V183.618Z" fill="#F0F0F0"/>
<path d="M31.2663 153.07H29.7822V154.591H31.2663V153.07Z" fill="#F0F0F0"/>
<path d="M31.2663 155.613H29.7822V157.134H31.2663V155.613Z" fill="#F0F0F0"/>
<path d="M31.2663 158.163H29.7822V159.684H31.2663V158.163Z" fill="#F0F0F0"/>
<path d="M31.2663 160.706H29.7822V162.227H31.2663V160.706Z" fill="#F0F0F0"/>
<path d="M31.2663 163.249H29.7822V164.77H31.2663V163.249Z" fill="#F0F0F0"/>
<path d="M31.2663 165.798H29.7822V167.319H31.2663V165.798Z" fill="#F0F0F0"/>
<path d="M31.2663 168.342H29.7822V169.862H31.2663V168.342Z" fill="#F0F0F0"/>
<path d="M31.2663 170.891H29.7822V172.411H31.2663V170.891Z" fill="#F0F0F0"/>
<path d="M31.2663 173.434H29.7822V174.954H31.2663V173.434Z" fill="#F0F0F0"/>
<path d="M31.2663 175.977H29.7822V177.497H31.2663V175.977Z" fill="#F0F0F0"/>
<path d="M31.2663 178.525H29.7822V180.046H31.2663V178.525Z" fill="#F0F0F0"/>
<path d="M31.2663 181.069H29.7822V182.59H31.2663V181.069Z" fill="#F0F0F0"/>
<path d="M31.2663 183.618H29.7822V185.139H31.2663V183.618Z" fill="#F0F0F0"/>
<path d="M31.2663 186.161H29.7822V187.682H31.2663V186.161Z" fill="#F0F0F0"/>
<path d="M44.3405 153.831H42.8564V155.352H44.3405V153.831Z" fill="#F0F0F0"/>
<path d="M44.3405 156.374H42.8564V157.895H44.3405V156.374Z" fill="#F0F0F0"/>
<path d="M44.3405 158.918H42.8564V160.439H44.3405V158.918Z" fill="#F0F0F0"/>
<path d="M44.3405 161.466H42.8564V162.987H44.3405V161.466Z" fill="#F0F0F0"/>
<path d="M44.3405 164.01H42.8564V165.53H44.3405V164.01Z" fill="#F0F0F0"/>
<path d="M44.3405 166.559H42.8564V168.079H44.3405V166.559Z" fill="#F0F0F0"/>
<path d="M44.3405 169.102H42.8564V170.622H44.3405V169.102Z" fill="#F0F0F0"/>
<path d="M44.3405 171.646H42.8564V173.166H44.3405V171.646Z" fill="#F0F0F0"/>
<path d="M44.3405 174.194H42.8564V175.715H44.3405V174.194Z" fill="#F0F0F0"/>
<path d="M44.3405 176.737H42.8564V178.258H44.3405V176.737Z" fill="#F0F0F0"/>
<path d="M44.3405 184.373H42.8564V185.894H44.3405V184.373Z" fill="#F0F0F0"/>
<path d="M46.692 153.831H45.208V155.352H46.692V153.831Z" fill="#F0F0F0"/>
<path d="M46.692 156.374H45.208V157.895H46.692V156.374Z" fill="#F0F0F0"/>
<path d="M46.692 158.918H45.208V160.439H46.692V158.918Z" fill="#F0F0F0"/>
<path d="M46.692 161.466H45.208V162.987H46.692V161.466Z" fill="#F0F0F0"/>
<path d="M46.692 164.01H45.208V165.53H46.692V164.01Z" fill="#F0F0F0"/>
<path d="M46.692 166.559H45.208V168.079H46.692V166.559Z" fill="#F0F0F0"/>
<path d="M46.692 169.102H45.208V170.622H46.692V169.102Z" fill="#F0F0F0"/>
<path d="M46.692 171.646H45.208V173.166H46.692V171.646Z" fill="#F0F0F0"/>
<path d="M46.692 174.194H45.208V175.715H46.692V174.194Z" fill="#F0F0F0"/>
<path d="M46.692 181.829H45.208V183.35H46.692V181.829Z" fill="#F0F0F0"/>
<path d="M46.692 184.373H45.208V185.894H46.692V184.373Z" fill="#F0F0F0"/>
<path d="M49.0485 153.831H47.5645V155.352H49.0485V153.831Z" fill="#F0F0F0"/>
<path d="M49.0485 156.374H47.5645V157.895H49.0485V156.374Z" fill="#F0F0F0"/>
<path d="M49.0485 158.918H47.5645V160.439H49.0485V158.918Z" fill="#F0F0F0"/>
<path d="M49.0485 161.466H47.5645V162.987H49.0485V161.466Z" fill="#F0F0F0"/>
<path d="M49.0485 164.01H47.5645V165.53H49.0485V164.01Z" fill="#F0F0F0"/>
<path d="M49.0485 166.559H47.5645V168.079H49.0485V166.559Z" fill="#F0F0F0"/>
<path d="M49.0485 169.102H47.5645V170.622H49.0485V169.102Z" fill="#F0F0F0"/>
<path d="M49.0485 171.646H47.5645V173.166H49.0485V171.646Z" fill="#F0F0F0"/>
<path d="M49.0485 179.286H47.5645V180.807H49.0485V179.286Z" fill="#F0F0F0"/>
<path d="M49.0485 181.829H47.5645V183.35H49.0485V181.829Z" fill="#F0F0F0"/>
<path d="M49.0485 184.373H47.5645V185.894H49.0485V184.373Z" fill="#F0F0F0"/>
<path d="M70.9225 115.154H69.4385V116.675H70.9225V115.154Z" fill="#F0F0F0"/>
<path d="M70.9225 117.698H69.4385V119.219H70.9225V117.698Z" fill="#F0F0F0"/>
<path d="M70.9225 120.247H69.4385V121.768H70.9225V120.247Z" fill="#F0F0F0"/>
<path d="M70.9225 122.79H69.4385V124.311H70.9225V122.79Z" fill="#F0F0F0"/>
<path d="M70.9225 125.333H69.4385V126.854H70.9225V125.333Z" fill="#F0F0F0"/>
<path d="M70.9225 127.882H69.4385V129.403H70.9225V127.882Z" fill="#F0F0F0"/>
<path d="M70.9225 130.426H69.4385V131.946H70.9225V130.426Z" fill="#F0F0F0"/>
<path d="M70.9225 132.975H69.4385V134.495H70.9225V132.975Z" fill="#F0F0F0"/>
<path d="M70.9225 135.519H69.4385V137.039H70.9225V135.519Z" fill="#F0F0F0"/>
<path d="M70.9225 138.062H69.4385V139.582H70.9225V138.062Z" fill="#F0F0F0"/>
<path d="M70.9225 140.61H69.4385V142.131H70.9225V140.61Z" fill="#F0F0F0"/>
<path d="M70.9225 143.153H69.4385V144.674H70.9225V143.153Z" fill="#F0F0F0"/>
<path d="M70.9225 145.702H69.4385V147.223H70.9225V145.702Z" fill="#F0F0F0"/>
<path d="M70.9225 148.246H69.4385V149.767H70.9225V148.246Z" fill="#F0F0F0"/>
<path d="M70.9225 150.789H69.4385V152.31H70.9225V150.789Z" fill="#F0F0F0"/>
<path d="M70.9225 153.338H69.4385V154.859H70.9225V153.338Z" fill="#F0F0F0"/>
<path d="M70.9225 155.882H69.4385V157.403H70.9225V155.882Z" fill="#F0F0F0"/>
<path d="M70.9225 160.974H69.4385V162.494H70.9225V160.974Z" fill="#F0F0F0"/>
<path d="M70.9225 163.517H69.4385V165.037H70.9225V163.517Z" fill="#F0F0F0"/>
<path d="M70.9225 166.065H69.4385V167.586H70.9225V166.065Z" fill="#F0F0F0"/>
<path d="M70.9225 168.609H69.4385V170.13H70.9225V168.609Z" fill="#F0F0F0"/>
<path d="M70.9225 171.158H69.4385V172.679H70.9225V171.158Z" fill="#F0F0F0"/>
<path d="M73.2794 115.154H71.7954V116.675H73.2794V115.154Z" fill="#F0F0F0"/>
<path d="M73.2794 117.698H71.7954V119.219H73.2794V117.698Z" fill="#F0F0F0"/>
<path d="M73.2794 120.247H71.7954V121.768H73.2794V120.247Z" fill="#F0F0F0"/>
<path d="M73.2794 122.79H71.7954V124.311H73.2794V122.79Z" fill="#F0F0F0"/>
<path d="M73.2794 125.333H71.7954V126.854H73.2794V125.333Z" fill="#F0F0F0"/>
<path d="M73.2794 127.882H71.7954V129.403H73.2794V127.882Z" fill="#F0F0F0"/>
<path d="M73.2794 130.426H71.7954V131.946H73.2794V130.426Z" fill="#F0F0F0"/>
<path d="M73.2794 132.975H71.7954V134.495H73.2794V132.975Z" fill="#F0F0F0"/>
<path d="M73.2794 135.519H71.7954V137.039H73.2794V135.519Z" fill="#F0F0F0"/>
<path d="M73.2794 138.062H71.7954V139.582H73.2794V138.062Z" fill="#F0F0F0"/>
<path d="M73.2794 140.61H71.7954V142.131H73.2794V140.61Z" fill="#F0F0F0"/>
<path d="M73.2794 143.153H71.7954V144.674H73.2794V143.153Z" fill="#F0F0F0"/>
<path d="M73.2794 145.702H71.7954V147.223H73.2794V145.702Z" fill="#F0F0F0"/>
<path d="M73.2794 148.246H71.7954V149.767H73.2794V148.246Z" fill="#F0F0F0"/>
<path d="M73.2794 150.789H71.7954V152.31H73.2794V150.789Z" fill="#F0F0F0"/>
<path d="M73.2794 153.338H71.7954V154.859H73.2794V153.338Z" fill="#F0F0F0"/>
<path d="M73.2794 168.609H71.7954V170.13H73.2794V168.609Z" fill="#F0F0F0"/>
<path d="M73.2794 171.158H71.7954V172.679H73.2794V171.158Z" fill="#F0F0F0"/>
<path d="M75.6305 115.154H74.1465V116.675H75.6305V115.154Z" fill="#F0F0F0"/>
<path d="M75.6305 117.698H74.1465V119.219H75.6305V117.698Z" fill="#F0F0F0"/>
<path d="M75.6305 120.247H74.1465V121.768H75.6305V120.247Z" fill="#F0F0F0"/>
<path d="M75.6305 122.79H74.1465V124.311H75.6305V122.79Z" fill="#F0F0F0"/>
<path d="M75.6305 125.333H74.1465V126.854H75.6305V125.333Z" fill="#F0F0F0"/>
<path d="M75.6305 127.882H74.1465V129.403H75.6305V127.882Z" fill="#F0F0F0"/>
<path d="M75.6305 130.426H74.1465V131.946H75.6305V130.426Z" fill="#F0F0F0"/>
<path d="M75.6305 132.975H74.1465V134.495H75.6305V132.975Z" fill="#F0F0F0"/>
<path d="M75.6305 135.519H74.1465V137.039H75.6305V135.519Z" fill="#F0F0F0"/>
<path d="M75.6305 138.062H74.1465V139.582H75.6305V138.062Z" fill="#F0F0F0"/>
<path d="M75.6305 140.61H74.1465V142.131H75.6305V140.61Z" fill="#F0F0F0"/>
<path d="M75.6305 143.153H74.1465V144.674H75.6305V143.153Z" fill="#F0F0F0"/>
<path d="M75.6305 145.702H74.1465V147.223H75.6305V145.702Z" fill="#F0F0F0"/>
<path d="M75.6305 148.246H74.1465V149.767H75.6305V148.246Z" fill="#F0F0F0"/>
<path d="M75.6305 150.789H74.1465V152.31H75.6305V150.789Z" fill="#F0F0F0"/>
<path d="M75.6305 153.338H74.1465V154.859H75.6305V153.338Z" fill="#F0F0F0"/>
<path d="M75.6305 158.43H74.1465V159.95H75.6305V158.43Z" fill="#F0F0F0"/>
<path d="M75.6305 160.974H74.1465V162.494H75.6305V160.974Z" fill="#F0F0F0"/>
<path d="M75.6305 163.517H74.1465V165.037H75.6305V163.517Z" fill="#F0F0F0"/>
<path d="M75.6305 166.065H74.1465V167.586H75.6305V166.065Z" fill="#F0F0F0"/>
<path d="M75.6305 171.158H74.1465V172.679H75.6305V171.158Z" fill="#F0F0F0"/>
<path d="M62.3839 147.218H60.8999V148.738H62.3839V147.218Z" fill="#F0F0F0"/>
<path d="M62.3839 149.767H60.8999V151.287H62.3839V149.767Z" fill="#F0F0F0"/>
<path d="M62.3839 152.311H60.8999V153.831H62.3839V152.311Z" fill="#F0F0F0"/>
<path d="M62.3839 154.854H60.8999V156.374H62.3839V154.854Z" fill="#F0F0F0"/>
<path d="M62.3839 157.402H60.8999V158.923H62.3839V157.402Z" fill="#F0F0F0"/>
<path d="M62.3839 159.945H60.8999V161.466H62.3839V159.945Z" fill="#F0F0F0"/>
<path d="M62.3839 162.494H60.8999V164.015H62.3839V162.494Z" fill="#F0F0F0"/>
<path d="M62.3839 167.581H60.8999V169.102H62.3839V167.581Z" fill="#F0F0F0"/>
<path d="M62.3839 170.13H60.8999V171.651H62.3839V170.13Z" fill="#F0F0F0"/>
<path d="M62.3839 172.673H60.8999V174.194H62.3839V172.673Z" fill="#F0F0F0"/>
<path d="M62.3839 175.222H60.8999V176.742H62.3839V175.222Z" fill="#F0F0F0"/>
<path d="M62.3839 177.766H60.8999V179.286H62.3839V177.766Z" fill="#F0F0F0"/>
<path d="M62.3839 180.309H60.8999V181.829H62.3839V180.309Z" fill="#F0F0F0"/>
<path d="M62.3839 182.857H60.8999V184.378H62.3839V182.857Z" fill="#F0F0F0"/>
<path d="M62.3839 185.401H60.8999V186.922H62.3839V185.401Z" fill="#F0F0F0"/>
<path d="M64.7355 147.218H63.2515V148.738H64.7355V147.218Z" fill="#F0F0F0"/>
<path d="M64.7355 149.767H63.2515V151.287H64.7355V149.767Z" fill="#F0F0F0"/>
<path d="M64.7355 152.311H63.2515V153.831H64.7355V152.311Z" fill="#F0F0F0"/>
<path d="M64.7355 154.854H63.2515V156.374H64.7355V154.854Z" fill="#F0F0F0"/>
<path d="M64.7355 157.402H63.2515V158.923H64.7355V157.402Z" fill="#F0F0F0"/>
<path d="M64.7355 159.945H63.2515V161.466H64.7355V159.945Z" fill="#F0F0F0"/>
<path d="M64.7355 167.581H63.2515V169.102H64.7355V167.581Z" fill="#F0F0F0"/>
<path d="M64.7355 170.13H63.2515V171.651H64.7355V170.13Z" fill="#F0F0F0"/>
<path d="M64.7355 172.673H63.2515V174.194H64.7355V172.673Z" fill="#F0F0F0"/>
<path d="M64.7355 175.222H63.2515V176.742H64.7355V175.222Z" fill="#F0F0F0"/>
<path d="M64.7355 177.766H63.2515V179.286H64.7355V177.766Z" fill="#F0F0F0"/>
<path d="M64.7355 180.309H63.2515V181.829H64.7355V180.309Z" fill="#F0F0F0"/>
<path d="M64.7355 182.857H63.2515V184.378H64.7355V182.857Z" fill="#F0F0F0"/>
<path d="M64.7355 185.401H63.2515V186.922H64.7355V185.401Z" fill="#F0F0F0"/>
<path d="M67.0919 147.218H65.6079V148.738H67.0919V147.218Z" fill="#F0F0F0"/>
<path d="M67.0919 149.767H65.6079V151.287H67.0919V149.767Z" fill="#F0F0F0"/>
<path d="M67.0919 152.311H65.6079V153.831H67.0919V152.311Z" fill="#F0F0F0"/>
<path d="M67.0919 154.854H65.6079V156.374H67.0919V154.854Z" fill="#F0F0F0"/>
<path d="M67.0919 157.402H65.6079V158.923H67.0919V157.402Z" fill="#F0F0F0"/>
<path d="M67.0919 159.945H65.6079V161.466H67.0919V159.945Z" fill="#F0F0F0"/>
<path d="M67.0919 165.038H65.6079V166.559H67.0919V165.038Z" fill="#F0F0F0"/>
<path d="M67.0919 167.581H65.6079V169.102H67.0919V167.581Z" fill="#F0F0F0"/>
<path d="M67.0919 170.13H65.6079V171.651H67.0919V170.13Z" fill="#F0F0F0"/>
<path d="M67.0919 172.673H65.6079V174.194H67.0919V172.673Z" fill="#F0F0F0"/>
<path d="M67.0919 175.222H65.6079V176.742H67.0919V175.222Z" fill="#F0F0F0"/>
<path d="M67.0919 177.766H65.6079V179.286H67.0919V177.766Z" fill="#F0F0F0"/>
<path d="M67.0919 180.309H65.6079V181.829H67.0919V180.309Z" fill="#F0F0F0"/>
<path d="M67.0919 182.857H65.6079V184.378H67.0919V182.857Z" fill="#F0F0F0"/>
<path d="M67.0919 185.401H65.6079V186.922H67.0919V185.401Z" fill="#F0F0F0"/>
<path d="M116.687 132.975H115.203V134.495H116.687V132.975Z" fill="#F0F0F0"/>
<path d="M116.687 135.519H115.203V137.039H116.687V135.519Z" fill="#F0F0F0"/>
<path d="M116.687 138.062H115.203V139.582H116.687V138.062Z" fill="#F0F0F0"/>
<path d="M116.687 140.61H115.203V142.131H116.687V140.61Z" fill="#F0F0F0"/>
<path d="M116.687 143.153H115.203V144.674H116.687V143.153Z" fill="#F0F0F0"/>
<path d="M116.687 145.702H115.203V147.223H116.687V145.702Z" fill="#F0F0F0"/>
<path d="M116.687 148.246H115.203V149.767H116.687V148.246Z" fill="#F0F0F0"/>
<path d="M116.687 150.789H115.203V152.31H116.687V150.789Z" fill="#F0F0F0"/>
<path d="M116.687 153.338H115.203V154.859H116.687V153.338Z" fill="#F0F0F0"/>
<path d="M116.687 155.882H115.203V157.403H116.687V155.882Z" fill="#F0F0F0"/>
<path d="M116.687 158.43H115.203V159.95H116.687V158.43Z" fill="#F0F0F0"/>
<path d="M116.687 160.974H115.203V162.494H116.687V160.974Z" fill="#F0F0F0"/>
<path d="M116.687 163.517H115.203V165.037H116.687V163.517Z" fill="#F0F0F0"/>
<path d="M116.687 168.609H115.203V170.13H116.687V168.609Z" fill="#F0F0F0"/>
<path d="M116.687 171.158H115.203V172.679H116.687V171.158Z" fill="#F0F0F0"/>
<path d="M116.687 173.701H115.203V175.222H116.687V173.701Z" fill="#F0F0F0"/>
<path d="M116.687 176.245H115.203V177.766H116.687V176.245Z" fill="#F0F0F0"/>
<path d="M116.687 181.337H115.203V182.858H116.687V181.337Z" fill="#F0F0F0"/>
<path d="M116.687 183.886H115.203V185.406H116.687V183.886Z" fill="#F0F0F0"/>
<path d="M116.687 186.43H115.203V187.95H116.687V186.43Z" fill="#F0F0F0"/>
<path d="M119.039 132.975H117.555V134.495H119.039V132.975Z" fill="#F0F0F0"/>
<path d="M119.039 135.519H117.555V137.039H119.039V135.519Z" fill="#F0F0F0"/>
<path d="M119.039 138.062H117.555V139.582H119.039V138.062Z" fill="#F0F0F0"/>
<path d="M119.039 140.61H117.555V142.131H119.039V140.61Z" fill="#F0F0F0"/>
<path d="M119.039 143.153H117.555V144.674H119.039V143.153Z" fill="#F0F0F0"/>
<path d="M119.039 145.702H117.555V147.223H119.039V145.702Z" fill="#F0F0F0"/>
<path d="M119.039 148.246H117.555V149.767H119.039V148.246Z" fill="#F0F0F0"/>
<path d="M119.039 150.789H117.555V152.31H119.039V150.789Z" fill="#F0F0F0"/>
<path d="M119.039 153.338H117.555V154.859H119.039V153.338Z" fill="#F0F0F0"/>
<path d="M119.039 155.882H117.555V157.403H119.039V155.882Z" fill="#F0F0F0"/>
<path d="M119.039 158.43H117.555V159.95H119.039V158.43Z" fill="#F0F0F0"/>
<path d="M119.039 160.974H117.555V162.494H119.039V160.974Z" fill="#F0F0F0"/>
<path d="M119.039 163.517H117.555V165.037H119.039V163.517Z" fill="#F0F0F0"/>
<path d="M119.039 171.158H117.555V172.679H119.039V171.158Z" fill="#F0F0F0"/>
<path d="M119.039 173.701H117.555V175.222H119.039V173.701Z" fill="#F0F0F0"/>
<path d="M119.039 178.794H117.555V180.315H119.039V178.794Z" fill="#F0F0F0"/>
<path d="M119.039 181.337H117.555V182.858H119.039V181.337Z" fill="#F0F0F0"/>
<path d="M119.039 183.886H117.555V185.406H119.039V183.886Z" fill="#F0F0F0"/>
<path d="M119.039 186.43H117.555V187.95H119.039V186.43Z" fill="#F0F0F0"/>
<path d="M121.395 132.975H119.911V134.495H121.395V132.975Z" fill="#F0F0F0"/>
<path d="M121.395 135.519H119.911V137.039H121.395V135.519Z" fill="#F0F0F0"/>
<path d="M121.395 138.062H119.911V139.582H121.395V138.062Z" fill="#F0F0F0"/>
<path d="M121.395 140.61H119.911V142.131H121.395V140.61Z" fill="#F0F0F0"/>
<path d="M121.395 143.153H119.911V144.674H121.395V143.153Z" fill="#F0F0F0"/>
<path d="M121.395 145.702H119.911V147.223H121.395V145.702Z" fill="#F0F0F0"/>
<path d="M121.395 148.246H119.911V149.767H121.395V148.246Z" fill="#F0F0F0"/>
<path d="M121.395 150.789H119.911V152.31H121.395V150.789Z" fill="#F0F0F0"/>
<path d="M121.395 153.338H119.911V154.859H121.395V153.338Z" fill="#F0F0F0"/>
<path d="M121.395 155.882H119.911V157.403H121.395V155.882Z" fill="#F0F0F0"/>
<path d="M121.395 158.43H119.911V159.95H121.395V158.43Z" fill="#F0F0F0"/>
<path d="M121.395 160.974H119.911V162.494H121.395V160.974Z" fill="#F0F0F0"/>
<path d="M121.395 163.517H119.911V165.037H121.395V163.517Z" fill="#F0F0F0"/>
<path d="M121.395 166.065H119.911V167.586H121.395V166.065Z" fill="#F0F0F0"/>
<path d="M121.395 171.158H119.911V172.679H121.395V171.158Z" fill="#F0F0F0"/>
<path d="M121.395 176.245H119.911V177.766H121.395V176.245Z" fill="#F0F0F0"/>
<path d="M121.395 178.794H119.911V180.315H121.395V178.794Z" fill="#F0F0F0"/>
<path d="M121.395 181.337H119.911V182.858H121.395V181.337Z" fill="#F0F0F0"/>
<path d="M121.395 183.886H119.911V185.406H121.395V183.886Z" fill="#F0F0F0"/>
<path d="M121.395 186.43H119.911V187.95H121.395V186.43Z" fill="#F0F0F0"/>
<path d="M107.098 147.485H105.614V149.006H107.098V147.485Z" fill="#F0F0F0"/>
<path d="M107.098 150.034H105.614V151.555H107.098V150.034Z" fill="#F0F0F0"/>
<path d="M107.098 152.577H105.614V154.098H107.098V152.577Z" fill="#F0F0F0"/>
<path d="M107.098 155.121H105.614V156.642H107.098V155.121Z" fill="#F0F0F0"/>
<path d="M107.098 157.67H105.614V159.191H107.098V157.67Z" fill="#F0F0F0"/>
<path d="M107.098 160.213H105.614V161.734H107.098V160.213Z" fill="#F0F0F0"/>
<path d="M107.098 167.854H105.614V169.375H107.098V167.854Z" fill="#F0F0F0"/>
<path d="M107.098 170.397H105.614V171.918H107.098V170.397Z" fill="#F0F0F0"/>
<path d="M107.098 172.941H105.614V174.462H107.098V172.941Z" fill="#F0F0F0"/>
<path d="M107.098 175.49H105.614V177.011H107.098V175.49Z" fill="#F0F0F0"/>
<path d="M107.098 178.033H105.614V179.554H107.098V178.033Z" fill="#F0F0F0"/>
<path d="M107.098 180.582H105.614V182.103H107.098V180.582Z" fill="#F0F0F0"/>
<path d="M107.098 183.125H105.614V184.646H107.098V183.125Z" fill="#F0F0F0"/>
<path d="M109.45 147.485H107.966V149.006H109.45V147.485Z" fill="#F0F0F0"/>
<path d="M109.45 150.034H107.966V151.555H109.45V150.034Z" fill="#F0F0F0"/>
<path d="M109.45 152.577H107.966V154.098H109.45V152.577Z" fill="#F0F0F0"/>
<path d="M109.45 155.121H107.966V156.642H109.45V155.121Z" fill="#F0F0F0"/>
<path d="M109.45 157.67H107.966V159.191H109.45V157.67Z" fill="#F0F0F0"/>
<path d="M109.45 160.213H107.966V161.734H109.45V160.213Z" fill="#F0F0F0"/>
<path d="M109.45 167.854H107.966V169.375H109.45V167.854Z" fill="#F0F0F0"/>
<path d="M109.45 170.397H107.966V171.918H109.45V170.397Z" fill="#F0F0F0"/>
<path d="M109.45 172.941H107.966V174.462H109.45V172.941Z" fill="#F0F0F0"/>
<path d="M109.45 175.49H107.966V177.011H109.45V175.49Z" fill="#F0F0F0"/>
<path d="M109.45 178.033H107.966V179.554H109.45V178.033Z" fill="#F0F0F0"/>
<path d="M109.45 180.582H107.966V182.103H109.45V180.582Z" fill="#F0F0F0"/>
<path d="M109.45 185.669H107.966V187.19H109.45V185.669Z" fill="#F0F0F0"/>
<path d="M187.638 136.278H186.154V137.799H187.638V136.278Z" fill="#F0F0F0"/>
<path d="M187.638 138.822H186.154V140.343H187.638V138.822Z" fill="#F0F0F0"/>
<path d="M187.638 141.371H186.154V142.892H187.638V141.371Z" fill="#F0F0F0"/>
<path d="M187.638 143.914H186.154V145.435H187.638V143.914Z" fill="#F0F0F0"/>
<path d="M187.638 146.458H186.154V147.979H187.638V146.458Z" fill="#F0F0F0"/>
<path d="M187.638 149.006H186.154V150.527H187.638V149.006Z" fill="#F0F0F0"/>
<path d="M187.638 151.55H186.154V153.071H187.638V151.55Z" fill="#F0F0F0"/>
<path d="M187.638 154.099H186.154V155.619H187.638V154.099Z" fill="#F0F0F0"/>
<path d="M187.638 156.642H186.154V158.162H187.638V156.642Z" fill="#F0F0F0"/>
<path d="M187.638 159.186H186.154V160.706H187.638V159.186Z" fill="#F0F0F0"/>
<path d="M187.638 161.734H186.154V163.255H187.638V161.734Z" fill="#F0F0F0"/>
<path d="M187.638 166.826H186.154V168.347H187.638V166.826Z" fill="#F0F0F0"/>
<path d="M187.638 169.369H186.154V170.89H187.638V169.369Z" fill="#F0F0F0"/>
<path d="M187.638 171.913H186.154V173.434H187.638V171.913Z" fill="#F0F0F0"/>
<path d="M187.638 174.462H186.154V175.983H187.638V174.462Z" fill="#F0F0F0"/>
<path d="M187.638 177.006H186.154V178.527H187.638V177.006Z" fill="#F0F0F0"/>
<path d="M187.638 179.554H186.154V181.074H187.638V179.554Z" fill="#F0F0F0"/>
<path d="M187.638 182.098H186.154V183.618H187.638V182.098Z" fill="#F0F0F0"/>
<path d="M187.638 184.646H186.154V186.166H187.638V184.646Z" fill="#F0F0F0"/>
<path d="M189.995 136.278H188.511V137.799H189.995V136.278Z" fill="#F0F0F0"/>
<path d="M189.995 138.822H188.511V140.343H189.995V138.822Z" fill="#F0F0F0"/>
<path d="M189.995 141.371H188.511V142.892H189.995V141.371Z" fill="#F0F0F0"/>
<path d="M189.995 143.914H188.511V145.435H189.995V143.914Z" fill="#F0F0F0"/>
<path d="M189.995 146.458H188.511V147.979H189.995V146.458Z" fill="#F0F0F0"/>
<path d="M189.995 149.006H188.511V150.527H189.995V149.006Z" fill="#F0F0F0"/>
<path d="M189.995 151.55H188.511V153.071H189.995V151.55Z" fill="#F0F0F0"/>
<path d="M189.995 154.099H188.511V155.619H189.995V154.099Z" fill="#F0F0F0"/>
<path d="M189.995 156.642H188.511V158.162H189.995V156.642Z" fill="#F0F0F0"/>
<path d="M189.995 159.186H188.511V160.706H189.995V159.186Z" fill="#F0F0F0"/>
<path d="M189.995 161.734H188.511V163.255H189.995V161.734Z" fill="#F0F0F0"/>
<path d="M189.995 164.277H188.511V165.798H189.995V164.277Z" fill="#F0F0F0"/>
<path d="M189.995 166.826H188.511V168.347H189.995V166.826Z" fill="#F0F0F0"/>
<path d="M189.995 169.369H188.511V170.89H189.995V169.369Z" fill="#F0F0F0"/>
<path d="M189.995 171.913H188.511V173.434H189.995V171.913Z" fill="#F0F0F0"/>
<path d="M189.995 174.462H188.511V175.983H189.995V174.462Z" fill="#F0F0F0"/>
<path d="M189.995 177.006H188.511V178.527H189.995V177.006Z" fill="#F0F0F0"/>
<path d="M189.995 179.554H188.511V181.074H189.995V179.554Z" fill="#F0F0F0"/>
<path d="M189.995 182.098H188.511V183.618H189.995V182.098Z" fill="#F0F0F0"/>
<path d="M189.995 184.646H188.511V186.166H189.995V184.646Z" fill="#F0F0F0"/>
<path d="M176.048 146.189H174.564V147.71H176.048V146.189Z" fill="#F0F0F0"/>
<path d="M176.048 148.738H174.564V150.259H176.048V148.738Z" fill="#F0F0F0"/>
<path d="M176.048 151.282H174.564V152.803H176.048V151.282Z" fill="#F0F0F0"/>
<path d="M176.048 153.831H174.564V155.352H176.048V153.831Z" fill="#F0F0F0"/>
<path d="M176.048 156.374H174.564V157.895H176.048V156.374Z" fill="#F0F0F0"/>
<path d="M176.048 158.918H174.564V160.439H176.048V158.918Z" fill="#F0F0F0"/>
<path d="M176.048 161.466H174.564V162.987H176.048V161.466Z" fill="#F0F0F0"/>
<path d="M176.048 164.01H174.564V165.53H176.048V164.01Z" fill="#F0F0F0"/>
<path d="M176.048 166.559H174.564V168.079H176.048V166.559Z" fill="#F0F0F0"/>
<path d="M176.048 169.102H174.564V170.622H176.048V169.102Z" fill="#F0F0F0"/>
<path d="M178.4 146.189H176.916V147.71H178.4V146.189Z" fill="#F0F0F0"/>
<path d="M178.4 148.738H176.916V150.259H178.4V148.738Z" fill="#F0F0F0"/>
<path d="M178.4 151.282H176.916V152.803H178.4V151.282Z" fill="#F0F0F0"/>
<path d="M178.4 153.831H176.916V155.352H178.4V153.831Z" fill="#F0F0F0"/>
<path d="M178.4 156.374H176.916V157.895H178.4V156.374Z" fill="#F0F0F0"/>
<path d="M178.4 158.918H176.916V160.439H178.4V158.918Z" fill="#F0F0F0"/>
<path d="M178.4 161.466H176.916V162.987H178.4V161.466Z" fill="#F0F0F0"/>
<path d="M178.4 164.01H176.916V165.53H178.4V164.01Z" fill="#F0F0F0"/>
<path d="M178.4 166.559H176.916V168.079H178.4V166.559Z" fill="#F0F0F0"/>
<path d="M59.9022 83.204C59.9024 82.4673 59.7346 81.7408 59.4119 81.0825C59.0893 80.4242 58.6208 79.8523 58.044 79.4127C57.4672 78.973 56.798 78.6777 56.0899 78.5504C55.3818 78.4231 54.6545 78.4672 53.966 78.6794C54.0354 78.2008 54.0703 77.7175 54.0705 77.2337C54.0705 75.7648 53.7546 74.314 53.1453 72.9844C52.536 71.6549 51.6482 70.4792 50.5452 69.5411C49.4421 68.6031 48.1509 67.9256 46.7633 67.5569C45.3757 67.1882 43.9259 67.1374 42.517 67.408C41.5541 65.7907 40.1043 64.5379 38.386 63.8383C36.6678 63.1387 34.7742 63.0303 32.9907 63.5293C31.2071 64.0284 29.63 65.1079 28.4972 66.6052C27.3644 68.1025 26.7372 69.9365 26.71 71.8309H26.5637C24.4793 71.8309 22.4803 72.6794 21.0065 74.1897C19.5326 75.6999 18.7046 77.7483 18.7046 79.8842C18.7046 82.02 19.5326 84.0684 21.0065 85.5787C22.4803 87.089 24.4793 87.9374 26.5637 87.9374H55.4239C56.6257 87.9039 57.7671 87.3899 58.6039 86.5054C59.4407 85.6208 59.9067 84.436 59.9022 83.204V83.204Z" fill="#F0F0F0"/>
<path d="M181.467 72.8161C181.467 72.0166 181.777 71.2498 182.329 70.6845C182.881 70.1191 183.629 69.8015 184.409 69.8015C184.694 69.8029 184.978 69.8462 185.251 69.93C185.208 69.6232 185.187 69.3136 185.188 69.0037C185.188 67.3146 185.841 65.6944 187.005 64.4981C188.168 63.3017 189.747 62.6267 191.396 62.6211C191.78 62.6229 192.163 62.6606 192.54 62.7335C193.154 61.6999 194.079 60.8988 195.176 60.4509C196.273 60.0031 197.482 59.9328 198.622 60.2506C199.761 60.5685 200.769 61.2573 201.493 62.2131C202.217 63.169 202.618 64.3401 202.636 65.55H202.73C204.06 65.55 205.336 66.0916 206.277 67.0556C207.218 68.0196 207.746 69.3271 207.746 70.6904C207.746 72.0537 207.218 73.3612 206.277 74.3252C205.336 75.2892 204.06 75.8308 202.73 75.8308H184.326C183.559 75.8112 182.831 75.4846 182.296 74.921C181.762 74.3575 181.464 73.6019 181.467 72.8161V72.8161Z" fill="#F0F0F0"/>
<path d="M122.879 40.2927C122.881 39.8032 123.071 39.3341 123.409 38.988C123.747 38.6419 124.204 38.4468 124.682 38.4454C124.859 38.444 125.036 38.4711 125.205 38.5257C125.178 38.3377 125.164 38.1481 125.163 37.9581C125.163 37.4443 125.262 36.9356 125.454 36.461C125.646 35.9864 125.927 35.5553 126.282 35.1922C126.637 34.8292 127.058 34.5414 127.521 34.3453C127.985 34.1491 128.481 34.0486 128.983 34.0493C129.218 34.0489 129.452 34.0704 129.683 34.1135C130.06 33.4815 130.628 32.992 131.3 32.7187C131.972 32.4455 132.713 32.4032 133.41 32.5982C134.108 32.7932 134.725 33.215 135.168 33.8001C135.612 34.3853 135.858 35.1022 135.87 35.843H135.922C136.337 35.8255 136.75 35.8941 137.138 36.0445C137.526 36.195 137.881 36.4243 138.18 36.7186C138.479 37.013 138.718 37.3663 138.88 37.7573C139.043 38.1484 139.127 38.5691 139.127 38.9942C139.127 39.4193 139.043 39.84 138.88 40.2311C138.718 40.6221 138.479 40.9754 138.18 41.2698C137.881 41.5641 137.526 41.7934 137.138 41.9439C136.75 42.0943 136.337 42.1629 135.922 42.1454H124.635C124.164 42.1341 123.716 41.9337 123.387 41.5871C123.059 41.2406 122.877 40.7757 122.879 40.2927Z" fill="#F0F0F0"/>
<path d="M119.284 223.13C175.24 223.13 220.601 220.416 220.601 217.068C220.601 213.721 175.24 211.007 119.284 211.007C63.3287 211.007 17.9678 213.721 17.9678 217.068C17.9678 220.416 63.3287 223.13 119.284 223.13Z" fill="#F5F5F5"/>
<path d="M209.684 190.573C209.684 190.573 212.135 182.15 207.171 180.469C202.207 178.788 199.233 174.852 199.416 170.397C199.599 165.942 194.353 161.605 190.434 165.782C186.515 169.958 187.037 162.569 181.812 160.775C176.586 158.981 172.16 163.335 173.592 167.313C175.024 171.291 169.866 173.781 163.7 170.397C157.534 167.013 150.731 173.171 152.037 177.99C153.343 182.809 152.277 183.345 148.379 181.738C144.481 180.132 137.484 184.683 139.935 190.573C142.385 196.463 209.684 190.573 209.684 190.573Z" fill="#8937C7"/>
<path opacity="0.3" d="M209.684 190.573C209.684 190.573 212.135 182.15 207.171 180.469C202.207 178.788 199.233 174.852 199.416 170.397C199.599 165.942 194.353 161.605 190.434 165.782C186.515 169.958 187.037 162.569 181.812 160.775C176.586 158.981 172.16 163.335 173.592 167.313C175.024 171.291 169.866 173.781 163.7 170.397C157.534 167.013 150.731 173.171 152.037 177.99C153.343 182.809 152.277 183.345 148.379 181.738C144.481 180.132 137.484 184.683 139.935 190.573C142.385 196.463 209.684 190.573 209.684 190.573Z" fill="white"/>
<path d="M78.3478 191.376C80.9605 188.699 78.609 184.148 75.9963 183.612C73.3836 183.077 70.7708 178.365 70.635 175.366C70.4991 172.368 65.8067 163.142 58.491 168.839C51.1754 174.536 53.4014 169.68 48.108 168.079C42.8146 166.478 39.4808 171.082 41.8009 174.536C41.8009 174.536 36.4866 173.171 34.2971 178.258C32.1076 183.344 34.2971 186.504 34.2971 186.504C34.2971 186.504 24.2956 186.198 25.1943 192.538C26.0931 198.878 78.3478 191.376 78.3478 191.376Z" fill="#8937C7"/>
<path opacity="0.3" d="M78.3478 191.376C80.9605 188.699 78.609 184.148 75.9963 183.612C73.3836 183.077 70.7708 178.365 70.635 175.366C70.4991 172.368 65.8067 163.142 58.491 168.839C51.1754 174.536 53.4014 169.68 48.108 168.079C42.8146 166.478 39.4808 171.082 41.8009 174.536C41.8009 174.536 36.4866 173.171 34.2971 178.258C32.1076 183.344 34.2971 186.504 34.2971 186.504C34.2971 186.504 24.2956 186.198 25.1943 192.538C26.0931 198.878 78.3478 191.376 78.3478 191.376Z" fill="white"/>
<path d="M218.651 191.537V198.873H16.9484V191.537C16.9329 191.244 16.9752 190.95 17.0728 190.675C17.1704 190.399 17.3212 190.146 17.5163 189.931C17.7114 189.716 17.9467 189.543 18.2083 189.424C18.4698 189.304 18.7522 189.24 19.0386 189.234H216.54C216.828 189.237 217.113 189.299 217.377 189.418C217.641 189.536 217.879 189.708 218.076 189.923C218.274 190.138 218.426 190.392 218.525 190.67C218.624 190.947 218.667 191.242 218.651 191.537V191.537Z" fill="#263238"/>
<path d="M40.9855 189.234H28.4443V198.873H40.9855V189.234Z" fill="#8937C7"/>
<path d="M64.5005 189.234H52.4819V198.873H64.5005V189.234Z" fill="#8937C7"/>
<path d="M88.5372 189.234H75.9961V198.873H88.5372V189.234Z" fill="#8937C7"/>
<path d="M112.052 189.234H100.033V198.873H112.052V189.234Z" fill="#8937C7"/>
<path d="M135.566 189.234H123.548V198.873H135.566V189.234Z" fill="#8937C7"/>
<path d="M159.604 189.234H147.062V198.873H159.604V189.234Z" fill="#8937C7"/>
<path d="M183.118 189.234H171.1V198.873H183.118V189.234Z" fill="#8937C7"/>
<path d="M207.155 189.234H194.614V198.873H207.155V189.234Z" fill="#8937C7"/>
<g opacity="0.6">
<path opacity="0.6" d="M40.9854 189.234H28.4443V198.873H40.9854V189.234Z" fill="white"/>
<path opacity="0.6" d="M64.5 189.234H52.4814V198.873H64.5V189.234Z" fill="white"/>
<path opacity="0.6" d="M88.5372 189.234H75.9961V198.873H88.5372V189.234Z" fill="white"/>
<path opacity="0.6" d="M112.052 189.234H100.033V198.873H112.052V189.234Z" fill="white"/>
<path opacity="0.6" d="M135.566 189.234H123.548V198.873H135.566V189.234Z" fill="white"/>
<path opacity="0.6" d="M159.603 189.234H147.062V198.873H159.603V189.234Z" fill="white"/>
<path opacity="0.6" d="M183.118 189.234H171.1V198.873H183.118V189.234Z" fill="white"/>
<path opacity="0.6" d="M207.155 189.234H194.614V198.873H207.155V189.234Z" fill="white"/>
</g>
<path opacity="0.1" d="M218.651 191.537V198.873H16.9484V191.537C16.9329 191.244 16.9752 190.95 17.0728 190.675C17.1704 190.399 17.3212 190.146 17.5163 189.931C17.7114 189.716 17.9467 189.543 18.2083 189.424C18.4698 189.304 18.7522 189.24 19.0386 189.234H216.54C216.828 189.237 217.113 189.299 217.377 189.418C217.641 189.536 217.879 189.708 218.076 189.923C218.274 190.138 218.426 190.392 218.525 190.67C218.624 190.947 218.667 191.242 218.651 191.537V191.537Z" fill="white"/>
<path d="M92.3149 186.745V75.3433L128.7 70.8508L144.69 73.9725L149.915 74.9899L161.134 77.1799L168.612 75.6699L173.837 74.6151L198.449 69.6514V181.053L173.837 186.022L168.612 187.077L161.134 188.587L128.7 182.258L126.589 182.52L120.292 183.297L92.3149 186.745Z" fill="#8937C7"/>
<path opacity="0.2" d="M92.3149 186.745V75.3433L128.7 70.8508L144.69 73.9725L149.915 74.9899L161.134 77.1799L168.612 75.6699L173.837 74.6151L198.449 69.6514V181.053L173.837 186.022L168.612 187.077L161.134 188.587L128.7 182.258L126.589 182.52L120.292 183.297L92.3149 186.745Z" fill="black"/>
<path d="M168.612 132.048V123.77C168.612 123.576 168.571 123.383 168.49 123.207C168.409 123.031 168.291 122.876 168.145 122.752C167.999 122.628 167.827 122.539 167.643 122.491C167.459 122.443 167.267 122.437 167.081 122.474L92.3149 137.205V131.748L121.98 125.912C122.154 125.877 122.32 125.806 122.466 125.702C122.613 125.599 122.737 125.466 122.83 125.311C122.924 125.156 122.986 124.983 123.011 124.802C123.036 124.622 123.025 124.438 122.978 124.263L117.277 103.01C117.192 102.69 116.991 102.415 116.716 102.24C116.441 102.065 116.111 102.004 115.793 102.068L92.3149 106.705V101.243L119.55 95.8621C119.868 95.8004 120.198 95.8637 120.473 96.0392C120.747 96.2148 120.948 96.4899 121.034 96.8099L128.167 123.443C128.253 123.763 128.453 124.039 128.728 124.214C129.003 124.39 129.333 124.453 129.651 124.391L143.645 121.628C143.939 121.571 144.204 121.41 144.395 121.173C144.586 120.937 144.69 120.639 144.69 120.332V89.0511C144.69 88.7442 144.586 88.4467 144.395 88.2102C144.204 87.9736 143.939 87.8127 143.645 87.7553L126.808 84.5747C126.665 84.5506 126.518 84.5506 126.375 84.5747L92.3149 90.0364V84.6389L126.432 79.1398C126.575 79.113 126.722 79.113 126.866 79.1398L143.169 82.2133C143.355 82.2487 143.546 82.2418 143.728 82.193C143.911 82.1442 144.081 82.0548 144.226 81.9311C144.371 81.8074 144.488 81.6525 144.568 81.4773C144.648 81.3021 144.69 81.111 144.69 80.9175V73.9727L149.915 74.99V118.796C149.916 118.991 149.958 119.183 150.039 119.359C150.121 119.536 150.239 119.691 150.386 119.816C150.532 119.94 150.704 120.029 150.888 120.078C151.072 120.127 151.265 120.133 151.452 120.097L167.567 116.916C167.862 116.86 168.128 116.699 168.319 116.462C168.51 116.226 168.613 115.928 168.612 115.62V75.6701L173.837 74.5991V114.068C173.838 114.262 173.88 114.455 173.961 114.631C174.043 114.807 174.161 114.962 174.308 115.086C174.455 115.21 174.626 115.299 174.811 115.347C174.995 115.395 175.187 115.401 175.374 115.363L186.237 113.222C186.532 113.164 186.797 113.003 186.988 112.767C187.179 112.53 187.283 112.233 187.283 111.926V84.6175C187.282 84.3113 187.387 84.0145 187.578 83.7789C187.768 83.5432 188.034 83.3833 188.328 83.3271L198.465 81.1853V86.6523L193.553 87.691C193.259 87.7494 192.994 87.9106 192.804 88.1469C192.613 88.3833 192.509 88.6802 192.508 88.9869V110.405C192.508 110.6 192.549 110.792 192.63 110.968C192.711 111.144 192.828 111.3 192.975 111.424C193.121 111.547 193.293 111.637 193.477 111.685C193.661 111.732 193.853 111.738 194.039 111.701L198.449 110.833V116.274L174.883 120.916C174.588 120.976 174.323 121.138 174.133 121.375C173.942 121.612 173.838 121.91 173.837 122.217V159.571C173.838 159.763 173.879 159.952 173.958 160.126C174.037 160.3 174.153 160.455 174.296 160.578C174.439 160.702 174.607 160.793 174.788 160.843C174.968 160.894 175.158 160.904 175.342 160.872L198.449 156.968V162.377L174.935 166.382C174.632 166.43 174.355 166.586 174.154 166.824C173.954 167.061 173.841 167.363 173.837 167.678V186.012L168.612 187.082V140.16C168.612 139.968 168.572 139.778 168.493 139.604C168.414 139.429 168.299 139.274 168.155 139.15C168.012 139.026 167.844 138.936 167.663 138.886C167.482 138.835 167.292 138.826 167.107 138.859L147.726 142.281C147.53 142.316 147.345 142.396 147.185 142.516C147.025 142.636 146.893 142.792 146.801 142.972L126.599 182.52L120.303 183.297L128.026 168.181C128.135 167.964 128.184 167.721 128.168 167.478C128.151 167.235 128.068 167.001 127.93 166.802C127.792 166.604 127.602 166.449 127.383 166.354C127.164 166.259 126.923 166.228 126.688 166.264L92.3254 171.618V166.21L131.569 160.09C131.769 160.059 131.96 159.979 132.125 159.858C132.29 159.737 132.425 159.578 132.52 159.394L143.383 138.142C143.475 137.963 143.605 137.808 143.765 137.689C143.924 137.57 144.109 137.49 144.303 137.456L167.556 133.349C167.853 133.293 168.121 133.132 168.314 132.894C168.507 132.657 168.612 132.357 168.612 132.048Z" fill="#8937C7"/>
<path d="M161.124 185.883L129.212 179.628L128.815 179.548L128.407 179.602L126.317 179.864L120.047 180.64L94.9279 183.741V77.7203L128.606 73.5652L144.199 76.6066L149.424 77.6239L160.643 79.814L161.166 79.9103L161.662 79.814L169.14 78.304L174.365 77.2331L195.837 72.9012V178.852L173.331 183.398L168.105 184.469L161.124 185.883ZM161.124 188.608L168.602 187.098L173.827 186.027L198.45 181.063V69.6885L173.838 74.6522L168.612 75.7231L161.135 77.1849L149.915 74.9949L144.69 73.9775L128.69 70.8504L92.3047 75.3429V186.745L120.282 183.296L126.599 182.52L128.69 182.257L161.124 188.587V188.608Z" fill="#263238"/>
<path opacity="0.1" d="M161.124 185.883L129.212 179.628L128.815 179.548L128.407 179.602L126.317 179.864L120.047 180.64L94.9279 183.741V77.7203L128.606 73.5652L144.199 76.6066L149.424 77.6239L160.643 79.814L161.166 79.9103L161.662 79.814L169.14 78.304L174.365 77.2331L195.837 72.9012V178.852L173.331 183.398L168.105 184.469L161.124 185.883ZM161.124 188.608L168.602 187.098L173.827 186.027L198.45 181.063V69.6885L173.838 74.6522L168.612 75.7231L161.135 77.1849L149.915 74.9949L144.69 73.9775L128.69 70.8504L92.3047 75.3429V186.745L120.282 183.296L126.599 182.52L128.69 182.257L161.124 188.587V188.608Z" fill="white"/>
<path opacity="0.1" d="M161.135 188.587V77.1797L128.7 70.8506V182.258L161.135 188.587Z" fill="black"/>
<g opacity="0.5">
<path opacity="0.5" d="M185.344 115.819C185.483 115.806 185.62 115.85 185.727 115.941C185.834 116.033 185.901 116.164 185.914 116.306C185.926 116.448 185.883 116.589 185.794 116.699C185.705 116.808 185.577 116.877 185.438 116.889L171.747 119.406V135.416C171.749 135.544 171.706 135.668 171.627 135.766C171.547 135.864 171.436 135.93 171.314 135.952L145.709 140.476L133.089 165C133.058 165.064 133.015 165.121 132.963 165.168C132.91 165.214 132.849 165.25 132.782 165.272C132.716 165.294 132.646 165.302 132.577 165.296C132.507 165.29 132.44 165.27 132.378 165.236C132.316 165.203 132.262 165.158 132.218 165.103C132.173 165.047 132.14 164.984 132.12 164.915C132.101 164.847 132.094 164.775 132.102 164.704C132.109 164.633 132.131 164.565 132.164 164.502L144.92 139.716C144.957 139.644 145.009 139.581 145.074 139.533C145.138 139.484 145.212 139.452 145.291 139.438L170.702 134.94V118.951C170.7 118.824 170.742 118.701 170.821 118.603C170.899 118.505 171.009 118.438 171.131 118.416L185.239 115.819H185.344Z" fill="white"/>
<path opacity="0.5" d="M131.642 164.77C131.641 164.57 131.698 164.373 131.806 164.206C131.914 164.039 132.068 163.908 132.249 163.831C132.43 163.754 132.629 163.733 132.821 163.772C133.013 163.811 133.189 163.907 133.328 164.049C133.466 164.191 133.56 164.372 133.598 164.569C133.636 164.766 133.616 164.97 133.541 165.155C133.465 165.34 133.338 165.498 133.175 165.609C133.011 165.719 132.82 165.778 132.624 165.777C132.364 165.776 132.115 165.669 131.931 165.481C131.747 165.292 131.643 165.037 131.642 164.77V164.77Z" fill="white"/>
<path opacity="0.5" d="M184.361 116.354C184.36 116.154 184.417 115.957 184.525 115.79C184.633 115.623 184.787 115.492 184.968 115.415C185.149 115.338 185.348 115.317 185.54 115.356C185.732 115.395 185.908 115.491 186.047 115.633C186.185 115.775 186.279 115.956 186.317 116.153C186.355 116.35 186.335 116.554 186.26 116.739C186.184 116.924 186.057 117.082 185.894 117.193C185.731 117.303 185.539 117.362 185.343 117.361C185.083 117.361 184.833 117.255 184.649 117.066C184.464 116.877 184.361 116.621 184.361 116.354V116.354Z" fill="white"/>
</g>
<path d="M133.137 148.98C132.59 148.418 131.94 147.973 131.225 147.669C130.51 147.365 129.743 147.209 128.969 147.209C128.195 147.209 127.429 147.365 126.714 147.669C125.999 147.973 125.349 148.418 124.802 148.98V148.98C124.255 149.54 123.821 150.205 123.525 150.938C123.229 151.67 123.077 152.455 123.077 153.247C123.077 154.04 123.229 154.825 123.525 155.557C123.821 156.289 124.255 156.954 124.802 157.515L128.982 161.798L133.163 157.515C133.708 156.953 134.14 156.286 134.434 155.553C134.728 154.82 134.877 154.034 134.875 153.242C134.873 152.449 134.718 151.665 134.42 150.933C134.121 150.202 133.685 149.538 133.137 148.98V148.98ZM127.274 154.982C126.938 154.638 126.71 154.2 126.617 153.724C126.524 153.247 126.572 152.753 126.753 152.304C126.935 151.854 127.242 151.471 127.637 151.2C128.031 150.93 128.495 150.786 128.969 150.786C129.444 150.786 129.907 150.93 130.302 151.2C130.696 151.471 131.004 151.854 131.185 152.304C131.367 152.753 131.414 153.247 131.322 153.724C131.229 154.2 131.001 154.638 130.665 154.982C130.443 155.211 130.178 155.392 129.887 155.516C129.596 155.64 129.284 155.704 128.969 155.704C128.654 155.704 128.342 155.64 128.051 155.516C127.76 155.392 127.496 155.211 127.274 154.982V154.982Z" fill="white"/>
<path opacity="0.2" d="M133.137 148.979C132.585 148.413 131.929 147.965 131.207 147.662C130.485 147.358 129.711 147.205 128.93 147.212V150.794C129.254 150.779 129.577 150.831 129.88 150.947C130.183 151.063 130.46 151.241 130.694 151.47C130.928 151.699 131.115 151.974 131.242 152.279C131.37 152.584 131.435 152.912 131.435 153.244C131.435 153.576 131.37 153.904 131.242 154.209C131.115 154.514 130.928 154.789 130.694 155.018C130.46 155.247 130.183 155.425 129.88 155.541C129.577 155.657 129.254 155.709 128.93 155.694V161.744L128.967 161.782L133.147 157.498C134.246 156.366 134.861 154.833 134.859 153.236C134.857 151.64 134.238 150.109 133.137 148.979Z" fill="black"/>
<path d="M189.509 99.557C188.962 98.9965 188.312 98.5519 187.598 98.2486C186.883 97.9452 186.117 97.7891 185.344 97.7891C184.57 97.7891 183.805 97.9452 183.09 98.2486C182.375 98.5519 181.726 98.9965 181.179 99.557C180.075 100.69 179.456 102.226 179.456 103.827C179.456 105.428 180.075 106.964 181.179 108.098L185.36 112.381L189.54 108.098C190.086 107.535 190.518 106.868 190.812 106.134C191.105 105.4 191.255 104.614 191.252 103.821C191.249 103.027 191.094 102.243 190.795 101.511C190.495 100.779 190.058 100.115 189.509 99.557V99.557ZM183.651 105.565C183.315 105.221 183.085 104.784 182.992 104.307C182.899 103.83 182.946 103.335 183.127 102.885C183.308 102.436 183.616 102.051 184.011 101.781C184.405 101.511 184.869 101.366 185.344 101.366C185.819 101.366 186.283 101.511 186.677 101.781C187.072 102.051 187.379 102.436 187.561 102.885C187.742 103.335 187.789 103.83 187.696 104.307C187.602 104.784 187.373 105.221 187.037 105.565C186.587 106.024 185.979 106.282 185.344 106.282C184.709 106.282 184.1 106.024 183.651 105.565V105.565Z" fill="white"/>
<path opacity="0.2" d="M189.508 99.5566C188.96 98.9949 188.308 98.55 187.59 98.2476C186.873 97.9453 186.104 97.7914 185.328 97.795V101.377C185.651 101.362 185.975 101.414 186.278 101.53C186.581 101.646 186.858 101.824 187.092 102.053C187.326 102.282 187.513 102.557 187.64 102.862C187.768 103.167 187.833 103.495 187.833 103.827C187.833 104.159 187.768 104.487 187.64 104.792C187.513 105.097 187.326 105.372 187.092 105.601C186.858 105.83 186.581 106.008 186.278 106.124C185.975 106.24 185.651 106.292 185.328 106.277V112.327L185.365 112.365L189.545 108.081C190.642 106.945 191.254 105.409 191.247 103.811C191.24 102.213 190.615 100.683 189.508 99.5566V99.5566Z" fill="black"/>
<path d="M36.7373 205.689L39.6322 208.682L46.6291 202.069L43.7342 199.07L36.7373 205.689Z" fill="#EEC1BB"/>
<path d="M40.3798 208.751L36.8683 205.121C36.8101 205.061 36.7341 205.024 36.6526 205.014C36.5711 205.005 36.4888 205.023 36.4189 205.067L33.2522 207.113C33.117 207.203 33.0218 207.344 32.9876 207.505C32.9533 207.667 32.9827 207.835 33.0693 207.975C33.0943 208.013 33.1223 208.049 33.1529 208.082C34.3078 209.238 35.2066 210.02 36.6331 211.498C37.511 212.408 40.0715 215.246 41.2838 216.499C42.4961 217.752 43.8652 216.692 43.4837 216.065C41.7436 213.26 40.7455 210.834 40.6776 209.442C40.6685 209.181 40.5619 208.934 40.3798 208.751V208.751Z" fill="#263238"/>
<path opacity="0.2" d="M43.7343 199.076L46.624 202.069L43.0132 205.48L40.1235 202.487L43.7343 199.076Z" fill="black"/>
<path d="M40.1656 209.367C40.1541 209.351 40.1479 209.331 40.1479 209.311C40.1479 209.291 40.1541 209.271 40.1656 209.255C40.1762 209.239 40.1917 209.227 40.2098 209.221C40.2278 209.215 40.2472 209.216 40.2649 209.222C40.4373 209.26 41.9475 209.64 42.099 210.138C42.1191 210.192 42.1229 210.251 42.1098 210.308C42.0968 210.364 42.0675 210.415 42.0259 210.454C41.9668 210.537 41.8872 210.602 41.7953 210.642C41.7034 210.683 41.6026 210.697 41.5033 210.684C41.2273 210.632 40.9779 210.482 40.7979 210.261C40.555 209.989 40.3428 209.689 40.1656 209.367V209.367ZM40.4582 209.474C40.6798 209.94 41.0667 210.302 41.5399 210.486C41.6047 210.492 41.6698 210.48 41.7291 210.453C41.7885 210.426 41.8402 210.384 41.8796 210.331C41.9318 210.272 41.937 210.218 41.9161 210.202C41.9039 210.159 41.8804 210.12 41.8482 210.09C41.4277 209.795 40.9558 209.586 40.4582 209.474Z" fill="#8937C7"/>
<path d="M40.1286 209.362C40.1261 209.345 40.1276 209.327 40.1331 209.31C40.1385 209.293 40.1477 209.278 40.16 209.266C40.2018 209.228 41.111 208.446 41.7276 208.516C41.8021 208.521 41.8746 208.542 41.9404 208.578C42.0062 208.614 42.0637 208.664 42.1091 208.725C42.1599 208.779 42.1911 208.85 42.1978 208.925C42.2044 208.999 42.186 209.074 42.1457 209.137C41.8948 209.512 40.6773 209.566 40.2175 209.426L40.1809 209.389C40.1708 209.388 40.161 209.386 40.152 209.381C40.143 209.376 40.1351 209.37 40.1286 209.362V209.362ZM41.7276 208.693C41.2617 208.746 40.8233 208.946 40.4735 209.266C40.9961 209.341 41.853 209.228 42.0046 208.998C42.0046 208.998 42.0621 208.918 41.9732 208.827L41.9419 208.789C41.8847 208.731 41.8083 208.696 41.7276 208.693V208.693Z" fill="#8937C7"/>
<path d="M84.0805 98.7154C84.0805 98.7154 90.6071 109.424 91.8455 110.768C93.084 112.112 101.251 98.1049 101.889 96.2362C102.526 94.3675 110.694 94.3139 111.253 94.5549C111.812 94.7958 111.436 98.8385 109.868 99.6685C108.301 100.498 102.913 100.284 102.913 100.284C102.913 100.284 98.1684 115.946 92.5876 116.744C87.0068 117.542 80.9243 103.385 80.9243 103.385L84.0805 98.7154Z" fill="#EEC1BB"/>
<path d="M79.294 93.3926C83.3908 94.1422 88.7625 105.478 88.7625 105.478L84.0283 111.828L78.1392 106.099L79.294 93.3926Z" fill="#8937C7"/>
<path opacity="0.4" d="M88.7626 105.478L84.0283 111.828L83.8715 111.673L78.1235 106.11L78.1967 105.296L79.2784 93.3926C83.3908 94.1422 88.7626 105.478 88.7626 105.478Z" fill="white"/>
<path opacity="0.2" d="M83.8715 111.674L78.1235 106.11L78.1967 105.296L80.1876 101.168C80.1876 101.168 83.8454 104.798 83.8715 111.674Z" fill="black"/>
<path d="M78.1389 130.452C78.1389 130.452 68.4457 167.543 61.8041 182.134C55.1625 196.726 45.809 204.377 45.809 204.377L41.4771 198.905C41.4771 198.905 53.6524 181.16 56.2912 170.21C58.9301 159.26 59.8132 136.621 59.8132 136.621L78.1389 130.452Z" fill="#263238"/>
<path opacity="0.2" d="M78.1389 130.452C78.1389 130.452 68.4457 167.543 61.8041 182.134C55.1625 196.726 45.809 204.377 45.809 204.377L41.4771 198.905C41.4771 198.905 53.6524 181.16 56.2912 170.21C58.9301 159.26 59.8132 136.621 59.8132 136.621L78.1389 130.452Z" fill="black"/>
<path d="M80.9971 213.924L84.8953 212.59L82.2042 203.23L78.3008 204.564L80.9971 213.924Z" fill="#EEC1BB"/>
<path d="M85.2822 211.943L80.5479 213.549C80.471 213.577 80.4055 213.631 80.362 213.702C80.3184 213.773 80.2993 213.857 80.3076 213.94L80.6995 217.758C80.7204 217.919 80.8021 218.065 80.9272 218.165C81.0522 218.265 81.2106 218.311 81.3683 218.293C81.4129 218.287 81.4567 218.277 81.499 218.261C83.0196 217.726 84.1117 217.233 86.0294 216.574C87.2156 216.173 90.8264 215.075 92.462 214.518C94.0975 213.961 93.7736 212.226 93.0577 212.307C89.8336 212.66 87.2679 212.505 86.019 211.948C85.783 211.85 85.5195 211.848 85.2822 211.943V211.943Z" fill="#263238"/>
<path opacity="0.2" d="M78.3062 204.57L82.2043 203.236L83.5891 208.061L79.6909 209.394L78.3062 204.57Z" fill="black"/>
<path d="M85.7315 212.404C85.7117 212.406 85.6916 212.402 85.6745 212.391C85.6574 212.38 85.6444 212.364 85.6375 212.345C85.6256 212.33 85.6191 212.311 85.6191 212.291C85.6191 212.272 85.6256 212.253 85.6375 212.238C85.742 212.098 86.7453 210.878 87.2521 210.958C87.3082 210.965 87.3611 210.989 87.4045 211.026C87.448 211.063 87.4804 211.112 87.4977 211.167C87.5392 211.258 87.558 211.359 87.5526 211.46C87.5471 211.561 87.5175 211.659 87.4664 211.745C87.2983 211.973 87.0582 212.134 86.7871 212.2C86.4433 212.306 86.0895 212.375 85.7315 212.404ZM85.9562 212.179C86.4609 212.185 86.9489 211.994 87.3201 211.643C87.3507 211.585 87.3668 211.52 87.3668 211.453C87.3668 211.387 87.3507 211.322 87.3201 211.263C87.2887 211.188 87.2469 211.161 87.2208 211.172C87.1804 211.156 87.1358 211.156 87.0954 211.172C86.6568 211.431 86.2703 211.772 85.9562 212.179V212.179Z" fill="#8937C7"/>
<path d="M85.7159 212.43C85.6983 212.427 85.6819 212.419 85.6689 212.407C85.6558 212.394 85.6467 212.378 85.6427 212.361C85.6427 212.302 85.3501 211.124 85.6741 210.594C85.7118 210.527 85.7631 210.47 85.8244 210.425C85.8857 210.381 85.9556 210.351 86.0294 210.337C86.0993 210.312 86.1754 210.314 86.2442 210.341C86.313 210.369 86.3702 210.42 86.4057 210.486C86.6251 210.877 86.1339 212.023 85.8047 212.387H85.7577C85.7493 212.406 85.7344 212.422 85.7159 212.43V212.43ZM85.8308 210.663C85.6756 211.116 85.6574 211.607 85.7786 212.071C86.0764 211.627 86.3586 210.792 86.2228 210.545C86.2228 210.545 86.1757 210.454 86.0608 210.497H86.0137C85.9387 210.53 85.8775 210.588 85.8413 210.663H85.8308Z" fill="#8937C7"/>
<path d="M56.2967 128.016C54.799 134.982 54.9441 142.215 56.72 149.113C58.9721 157.401 78.2071 207.563 78.2071 207.563L84.8957 205.593L70.7503 145.911C70.7503 145.911 76.0385 138.237 78.1392 130.452L56.2967 128.016Z" fill="#263238"/>
<path d="M85.9876 206.39L77.5798 209.266L75.4844 206.31L85.4128 203.536L85.9876 206.39Z" fill="#8937C7"/>
<path opacity="0.3" d="M85.9876 206.39L77.5798 209.266L75.4844 206.31L85.4128 203.536L85.9876 206.39Z" fill="white"/>
<path d="M45.5372 206.941L39.3032 200.489L40.9597 197.255L47.7789 205.148L45.5372 206.941Z" fill="#8937C7"/>
<path opacity="0.3" d="M45.5372 206.941L39.3032 200.489L40.9597 197.255L47.7789 205.148L45.5372 206.941Z" fill="white"/>
<path d="M58.8729 91.4645C59.2761 96.1564 59.3372 100.873 59.0558 105.574C58.8782 108.856 58.5646 111.956 58.2198 114.768C57.415 121.343 54.1387 133.541 54.1387 133.541L71.0221 138.092L72.5532 130.451L74.1208 138.092L77.4808 135.977C82.7063 118.987 82.8421 101.847 82.1837 96.9208C82.0789 96.1098 81.7495 95.3464 81.2347 94.7211C80.7198 94.0958 80.0409 93.6346 79.2784 93.3922C78.5102 93.1459 77.6167 92.8567 76.6656 92.6425C76.2946 92.5729 75.9341 92.4712 75.5578 92.3962C72.4832 91.8654 69.381 91.5185 66.267 91.3574C65.6817 91.32 65.0808 91.3039 64.4955 91.2932C62.6197 91.2501 60.743 91.3073 58.8729 91.4645V91.4645Z" fill="#8937C7"/>
<path opacity="0.4" d="M77.4806 135.977L74.1311 138.092L72.5635 130.451L71.0324 138.092L54.1489 133.541C54.1489 133.541 57.4253 121.343 58.23 114.768C58.3136 114.099 58.392 113.413 58.4704 112.712C58.716 110.468 58.9302 108.075 59.0661 105.574C59.1497 104.203 59.2019 102.827 59.2228 101.457C59.2822 98.1222 59.1689 94.7869 58.8832 91.4649C60.7602 91.3069 62.6439 91.2497 64.5267 91.2936C65.112 91.2936 65.7129 91.3203 66.2981 91.3578C69.4121 91.5189 72.5144 91.8658 75.589 92.3966C75.9652 92.4716 76.3258 92.5733 76.6968 92.6429C77.6426 92.8785 78.5362 93.1462 79.3095 93.3926C80.0721 93.635 80.751 94.0962 81.2658 94.7215C81.7807 95.3468 82.11 96.1101 82.2149 96.9212C82.8367 101.847 82.7061 118.987 77.4806 135.977Z" fill="white"/>
<path d="M68.3464 80.7129C68.6077 83.8453 68.5973 89.5211 66.2876 91.331C67.1039 92.4162 68.1378 93.3094 69.3196 93.9504C70.5013 94.5914 71.8034 94.9654 73.1382 95.0471C75.7143 95.2773 76.0435 93.4407 75.5785 92.3698C72.3282 91.1811 72.6836 88.6591 73.5196 86.3405L68.3464 80.7129Z" fill="#EEC1BB"/>
<path opacity="0.2" d="M70.4577 83.0156L73.5146 86.3355C73.3153 86.8747 73.1598 87.4299 73.0495 87.9954C71.7954 87.6687 70.2069 86.041 70.2121 84.6595C70.1913 84.1005 70.2746 83.5426 70.4577 83.0156V83.0156Z" fill="black"/>
<path d="M68.477 76.0708C68.2785 80.242 67.9545 82.673 69.7886 85.0183C72.5268 88.563 77.7209 87.219 79.137 83.187C80.4016 79.5566 80.5008 73.34 76.7124 71.2517C75.8781 70.7835 74.9407 70.5423 73.9896 70.551C73.0386 70.5597 72.1055 70.818 71.2796 71.3014C70.4536 71.7847 69.7623 72.4769 69.2717 73.3118C68.7811 74.1468 68.5075 75.0967 68.477 76.0708V76.0708Z" fill="#EEC1BB"/>
<path d="M74.4914 77.9126C74.4339 78.2446 74.6011 78.5444 74.8206 78.5659C75.0401 78.5873 75.2386 78.3356 75.2752 77.9983C75.3118 77.6609 75.1655 77.3664 74.9512 77.345C74.737 77.3236 74.5332 77.5753 74.4914 77.9126Z" fill="#263238"/>
<path d="M78.2172 78.3306C78.1598 78.6626 78.3322 78.9571 78.5412 78.9838C78.7502 79.0106 78.9593 78.7482 79.0011 78.4109C79.0429 78.0736 78.8861 77.7844 78.6719 77.7576C78.4576 77.7309 78.2538 78.0093 78.2172 78.3306Z" fill="#263238"/>
<path d="M77.0153 78.3623C77.2985 79.4384 77.7258 80.4692 78.2851 81.4251C78.0413 81.5656 77.7705 81.6499 77.4916 81.672C77.2127 81.6942 76.9325 81.6538 76.6704 81.5536L77.0153 78.3623Z" fill="#D4827D"/>
<path d="M73.4675 76.5533C73.5028 76.5615 73.5395 76.5603 73.5742 76.55C73.6089 76.5397 73.6405 76.5206 73.6661 76.4944C73.8281 76.3071 74.0305 76.1611 74.2573 76.0681C74.4842 75.9751 74.729 75.9378 74.9724 75.959C74.9975 75.9636 75.0232 75.9631 75.0481 75.9575C75.0729 75.952 75.0965 75.9414 75.1174 75.9265C75.1382 75.9116 75.156 75.8926 75.1697 75.8706C75.1834 75.8486 75.1927 75.824 75.1971 75.7983C75.2024 75.7726 75.2025 75.746 75.1973 75.7203C75.1922 75.6945 75.182 75.6701 75.1673 75.6485C75.1526 75.6269 75.1338 75.6087 75.112 75.5949C75.0901 75.581 75.0658 75.5719 75.0404 75.5681C74.7342 75.5313 74.4239 75.5705 74.1356 75.6823C73.8474 75.7941 73.5895 75.9753 73.3839 76.2106C73.3482 76.2477 73.3281 76.2977 73.3281 76.3499C73.3281 76.402 73.3482 76.452 73.3839 76.4891V76.4891L73.4675 76.5533Z" fill="#263238"/>
<path d="M74.9672 82.9189C74.4968 82.8233 74.056 82.6127 73.6821 82.3051C73.3081 81.9975 73.0122 81.6019 72.8195 81.1519C72.8123 81.1256 72.8147 81.0975 72.8262 81.0729C72.8378 81.0483 72.8577 81.0288 72.8822 81.0181C72.8942 81.0128 72.9071 81.01 72.9202 81.0098C72.9333 81.0096 72.9462 81.0121 72.9584 81.017C72.9705 81.022 72.9816 81.0294 72.9909 81.0388C73.0003 81.0481 73.0077 81.0593 73.0129 81.0716C73.2029 81.4794 73.4825 81.8367 73.8297 82.1154C74.1769 82.394 74.5823 82.5866 75.0142 82.678C75.0273 82.6799 75.0399 82.6846 75.0513 82.6916C75.0626 82.6986 75.0725 82.7078 75.0802 82.7188C75.088 82.7298 75.0936 82.7423 75.0966 82.7555C75.0996 82.7687 75.1 82.7824 75.0978 82.7958C75.0959 82.8092 75.0914 82.8221 75.0846 82.8337C75.0777 82.8454 75.0687 82.8555 75.058 82.8635C75.0472 82.8714 75.0351 82.8771 75.0222 82.8802C75.0093 82.8833 74.9959 82.8837 74.9829 82.8815L74.9672 82.9189Z" fill="#263238"/>
<path d="M79.9578 77.1845C79.995 77.198 80.0356 77.198 80.0728 77.1845C80.1205 77.1663 80.1595 77.1301 80.1819 77.0832C80.2043 77.0364 80.2082 76.9826 80.193 76.9328V76.9328C80.095 76.6322 79.9281 76.3601 79.7062 76.1393C79.4844 75.9185 79.2141 75.7554 78.918 75.6638C78.8682 75.654 78.8167 75.6641 78.7739 75.692C78.7312 75.7198 78.7005 75.7634 78.688 75.8137C78.6781 75.8647 78.687 75.9176 78.7131 75.9622C78.7392 76.0067 78.7806 76.0397 78.8291 76.0547V76.0547C79.0614 76.1328 79.2726 76.2655 79.4459 76.4421C79.6192 76.6188 79.7498 76.8345 79.8272 77.072C79.8384 77.1003 79.8562 77.1252 79.8789 77.1448C79.9017 77.1644 79.9288 77.178 79.9578 77.1845V77.1845Z" fill="#263238"/>
<path d="M69.167 79.5994C69.167 79.5994 71.7432 76.1885 71.0848 73.0454C72.4899 72.8576 73.9138 73.1981 75.0927 74.0038C75.1197 73.5183 75.0899 73.0311 75.0039 72.5528C75.0039 72.5528 78.6617 72.8151 80.4436 75.1926C80.4218 73.8061 79.9575 72.4651 79.1216 71.3748C79.6614 71.276 80.2178 71.3431 80.7205 71.5675C80.7205 71.5675 77.7995 68.4137 72.4539 69.2436C67.1082 70.0736 65.0807 73.0507 65.6608 77.9127C66.2408 82.7746 68.5504 84.1454 68.5504 84.1454C68.5504 84.1454 67.9913 80.4293 68.3257 79.6583C68.6602 78.8872 69.167 79.5994 69.167 79.5994Z" fill="#263238"/>
<path d="M66.1675 80.4401C66.6181 81.3831 67.4146 82.1051 68.3831 82.4481C69.6685 82.8925 70.3844 81.7252 70.0918 80.4455C69.8149 79.3049 68.8272 77.6665 67.4791 77.7682C66.1309 77.8699 65.6293 79.2728 66.1675 80.4401Z" fill="#EEC1BB"/>
<path d="M76.7173 69.3295C75.4516 69.542 74.2067 69.8681 72.9968 70.304C72.131 70.616 71.2921 71.001 70.4885 71.4552C66.5538 73.6774 65.5505 76.5474 65.5505 76.5474C65.5505 76.5474 65.4251 76.1833 65.2578 75.6157C65.0906 75.0482 64.8659 74.3092 64.6621 73.5382C64.2702 72.0924 63.9462 70.5824 64.1396 70.1487C65.817 66.2774 71.1365 65.1904 71.8524 65.4046C72.2861 65.5384 73.9426 66.9199 75.2124 68.0069C75.8551 68.5424 76.3933 69.0243 76.618 69.2277L76.7173 69.3295Z" fill="#8937C7"/>
<path opacity="0.6" d="M76.6029 69.2281C75.3631 69.4338 74.1523 69.7934 72.9974 70.2991C72.2658 70.5989 71.4297 70.9791 70.4891 71.4503C67.5054 72.9389 66.0057 74.4328 65.2637 75.6108C65.0912 75.0486 64.8718 74.3043 64.668 73.5332C66.1363 72.0232 70.0659 68.5106 75.213 68.002C75.84 68.5481 76.3782 69.0247 76.6029 69.2281Z" fill="white"/>
<path d="M65.6447 77.9127C65.6447 77.9127 62.06 80.4882 61.8353 79.1175C61.2553 75.5995 70.7656 67.8729 80.0461 68.0549C87.67 68.1995 79.4713 70.5876 79.4713 70.5876C76.4353 69.5114 65.4043 74.4269 65.6447 77.9127Z" fill="#8937C7"/>
<path opacity="0.3" d="M65.6447 77.9127C65.6447 77.9127 62.06 80.4882 61.8353 79.1175C61.2553 75.5995 70.7656 67.8729 80.0461 68.0549C87.67 68.1995 79.4713 70.5876 79.4713 70.5876C76.4353 69.5114 65.4043 74.4269 65.6447 77.9127Z" fill="black"/>
<path d="M66.7477 89.2705C66.7477 89.2705 68.5453 91.1874 72.8145 93.2489C72.8145 93.2489 73.8282 92.4511 73.9588 90.0362L76.6865 92.6653L76.0804 97.0721L74.2671 95.0213L73.3266 107.829C73.3266 107.829 73.917 99.2621 71.8634 95.4336L70.4891 97.6076C70.4891 97.6076 65.5249 95.8459 64.0723 91.2999L66.7477 89.2705Z" fill="#8937C7"/>
<path opacity="0.6" d="M76.6865 92.6439L76.0804 97.0507L74.2671 94.9999L73.3266 107.808C73.3266 107.808 73.917 99.2407 71.8634 95.4122L70.4891 97.5861C70.4891 97.5861 65.5249 95.8245 64.0723 91.2785L66.7477 89.2705C66.7477 89.2705 68.5453 91.1874 72.8145 93.2489C72.9294 93.1526 73.8282 92.3119 73.9484 90.0362L76.6865 92.6439Z" fill="white"/>
<path opacity="0.2" d="M73.5147 99.9143C73.3631 96.7016 72.8145 93.2479 72.8145 93.2479C72.9294 93.1515 73.8282 92.3108 73.9484 90.0352C74.1056 90.493 74.1595 90.9814 74.1061 91.4636C74.0527 91.9458 73.8934 92.4094 73.6401 92.8195L73.5147 99.9143Z" fill="black"/>
<path d="M50.8303 136.754C51.2805 137.6 51.5176 138.548 51.5201 139.511C51.588 141.273 51.2379 144.727 50.8303 145.161C50.59 145.412 46.5716 144.256 46.1797 143.233C46.002 142.767 46.7022 138.028 47.5226 136.754C48.343 135.48 50.8303 136.754 50.8303 136.754Z" fill="#EEC1BB"/>
<path opacity="0.2" d="M63.9415 102.667C63.9415 102.667 62.0499 110.164 58.46 112.712C58.7056 110.469 58.9198 108.075 59.0557 105.575C59.1393 104.204 59.1915 102.828 59.2124 101.457L63.9415 102.667Z" fill="black"/>
<path d="M54.1381 101.168C54.1381 101.168 49.2837 109.923 48.3901 112.889C47.4965 115.856 47.5122 136.754 47.5122 136.754H50.8304C50.8304 136.754 52.9206 115.995 54.1381 113.312C55.3557 110.629 59.813 104.445 59.813 104.445L54.1381 101.168Z" fill="#EEC1BB"/>
<path d="M59.7138 91.4116C57.493 91.0475 51.5308 104.391 51.5308 104.391L57.8013 108.423C57.8013 108.423 61.8981 104.514 63.9308 102.667C65.9635 100.82 63.3194 92.006 59.7138 91.4116Z" fill="#8937C7"/>
<path opacity="0.4" d="M59.7138 91.4116C57.493 91.0475 51.5308 104.391 51.5308 104.391L57.8013 108.423C57.8013 108.423 61.8981 104.514 63.9308 102.667C65.9635 100.82 63.3194 92.006 59.7138 91.4116Z" fill="white"/>
<path d="M51.5203 103.465L58.8673 108.423L57.237 109.922L50.7261 105.58L51.5203 103.465Z" fill="#8937C7"/>
<path opacity="0.6" d="M51.5203 103.465L58.8673 108.423L57.237 109.922L50.7261 105.58L51.5203 103.465Z" fill="white"/>
<path d="M82.7949 111.373L88.4071 104.434L89.6873 106.254L84.7649 112.412L82.7949 111.373Z" fill="#8937C7"/>
<path opacity="0.6" d="M82.7949 111.373L88.4071 104.434L89.6873 106.254L84.7649 112.412L82.7949 111.373Z" fill="white"/>
<path d="M104.276 94.9346L109.815 87.0634C109.852 87.0127 109.902 86.9733 109.959 86.9497C110.016 86.926 110.079 86.9191 110.139 86.9295L113.755 87.5828C113.811 87.5923 113.864 87.6164 113.908 87.6528C113.952 87.6891 113.986 87.7364 114.007 87.7903C114.028 87.8441 114.035 87.9025 114.028 87.96C114.02 88.0174 113.998 88.0719 113.965 88.1182L108.311 96.0002C108.274 96.0509 108.224 96.0899 108.167 96.1127C108.109 96.1354 108.047 96.141 107.987 96.1287L104.496 95.4594C104.441 95.4504 104.389 95.4274 104.345 95.3924C104.301 95.3573 104.267 95.3115 104.245 95.2591C104.223 95.2066 104.214 95.1494 104.22 95.0927C104.225 95.0359 104.245 94.9815 104.276 94.9346V94.9346Z" fill="#263238"/>
<path d="M103.88 94.71L109.419 86.8388C109.454 86.7871 109.504 86.747 109.561 86.7233C109.619 86.6996 109.682 86.6932 109.743 86.705L113.359 87.3529C113.414 87.3624 113.467 87.3865 113.511 87.4228C113.555 87.4591 113.589 87.5065 113.61 87.5603C113.631 87.6141 113.638 87.6726 113.631 87.73C113.623 87.7875 113.602 87.842 113.568 87.8883L107.903 95.7809C107.866 95.8312 107.816 95.8698 107.759 95.8926C107.702 95.9153 107.639 95.9211 107.579 95.9094L104.089 95.2401C104.034 95.2301 103.982 95.206 103.939 95.17C103.895 95.134 103.862 95.0873 103.841 95.0344C103.82 94.9814 103.813 94.9238 103.819 94.8671C103.826 94.8103 103.847 94.7563 103.88 94.71V94.71Z" fill="#263238"/>
<path d="M109.643 87.1016L113.108 87.7334L107.574 95.3583L104.214 94.7265L109.643 87.1016Z" fill="white"/>
<path d="M124.327 57.2399C124.328 54.4709 123.55 51.7601 122.087 49.4324C120.623 47.1047 118.535 45.2586 116.074 44.1152C113.613 42.9719 110.882 42.5797 108.209 42.9858C105.536 43.3918 103.034 44.5787 101.002 46.4045C98.9706 48.2303 97.4955 50.6175 96.7538 53.2802C96.012 55.9429 96.035 58.7683 96.82 61.4179C97.605 64.0676 99.1187 66.4292 101.18 68.2201C103.241 70.0109 105.762 71.1549 108.441 71.5152L109.121 79.0812L110.417 71.6384C114.118 71.5989 117.655 70.0647 120.26 67.3688C122.864 64.673 124.326 61.0333 124.327 57.2399Z" fill="#8937C7"/>
<path opacity="0.8" d="M124.327 57.2399C124.328 54.4709 123.55 51.7601 122.087 49.4324C120.623 47.1047 118.535 45.2586 116.074 44.1152C113.613 42.9719 110.882 42.5797 108.209 42.9858C105.536 43.3918 103.034 44.5787 101.002 46.4045C98.9706 48.2303 97.4955 50.6175 96.7538 53.2802C96.012 55.9429 96.035 58.7683 96.82 61.4179C97.605 64.0676 99.1187 66.4292 101.18 68.2201C103.241 70.0109 105.762 71.1549 108.441 71.5152L109.121 79.0812L110.417 71.6384C114.118 71.5989 117.655 70.0647 120.26 67.3688C122.864 64.673 124.326 61.0333 124.327 57.2399Z" fill="white"/>
<path d="M117.126 57.2402L103.415 51.3662L105.661 57.2402L103.415 63.1088L117.126 57.2402Z" fill="#8937C7"/>
<path opacity="0.3" d="M105.661 57.2402H117.126L103.415 63.1088L105.661 57.2402Z" fill="black"/>
</g>
<defs>
<clipPath id="clip0_1041_892">
<rect width="243" height="223" fill="white"/>
</clipPath>
</defs>
</svg>
