<svg width="353" height="284" viewBox="0 0 353 284" fill="none" xmlns="http://www.w3.org/2000/svg">
<path d="M360 250.728H0V250.908H360V250.728Z" fill="#EBEBEB"/>
<path d="M323.928 262.313H300.082V262.493H323.928V262.313Z" fill="#EBEBEB"/>
<path d="M238.478 264.271H232.222V264.451H238.478V264.271Z" fill="#EBEBEB"/>
<path d="M299.362 255.631H285.545V255.811H299.362V255.631Z" fill="#EBEBEB"/>
<path d="M68.8683 256.841H37.7715V257.021H68.8683V256.841Z" fill="#EBEBEB"/>
<path d="M79.8408 256.841H75.2832V257.021H79.8408V256.841Z" fill="#EBEBEB"/>
<path d="M162.108 259.879H94.6582V260.059H162.108V259.879Z" fill="#EBEBEB"/>
<path d="M170.64 218.616H31.6147C30.5256 218.614 29.4818 218.18 28.7123 217.409C27.9429 216.639 27.5107 215.594 27.5107 214.505V19.0752C27.5202 17.9923 27.9566 16.9569 28.725 16.1939C29.4934 15.4309 30.5318 15.0019 31.6147 15H170.64C171.73 15 172.776 15.4331 173.547 16.2041C174.318 16.9751 174.751 18.0208 174.751 19.1112V214.505C174.751 215.595 174.318 216.641 173.547 217.412C172.776 218.183 171.73 218.616 170.64 218.616ZM31.6147 15.144C30.5734 15.1459 29.5753 15.5609 28.8396 16.298C28.1039 17.035 27.6907 18.0338 27.6907 19.0752V214.505C27.6907 215.546 28.1039 216.545 28.8396 217.282C29.5753 218.019 30.5734 218.434 31.6147 218.436H170.64C171.682 218.434 172.68 218.019 173.417 217.282C174.154 216.546 174.569 215.547 174.571 214.505V19.0752C174.569 18.0332 174.154 17.0344 173.417 16.2975C172.68 15.5607 171.682 15.1459 170.64 15.144H31.6147Z" fill="#EBEBEB"/>
<path d="M326.383 218.616H187.351C186.262 218.614 185.217 218.18 184.446 217.41C183.676 216.639 183.242 215.595 183.24 214.505V19.0752C183.252 17.9917 183.69 16.9563 184.459 16.1935C185.229 15.4306 186.268 15.0018 187.351 15H326.383C327.465 15.0037 328.502 15.4336 329.269 16.1964C330.035 16.9593 330.471 17.9936 330.48 19.0752V214.505C330.48 215.593 330.049 216.636 329.281 217.407C328.513 218.177 327.471 218.612 326.383 218.616ZM187.351 15.144C186.309 15.1459 185.311 15.5607 184.574 16.2975C183.837 17.0344 183.422 18.0332 183.42 19.0752V214.505C183.422 215.547 183.837 216.546 184.574 217.282C185.311 218.019 186.309 218.434 187.351 218.436H326.383C327.425 218.434 328.424 218.019 329.161 217.282C329.898 216.546 330.313 215.547 330.315 214.505V19.0752C330.313 18.0332 329.898 17.0344 329.161 16.2975C328.424 15.5607 327.425 15.1459 326.383 15.144H187.351Z" fill="#EBEBEB"/>
<path d="M174.484 100.594H72.2588V250.476H174.484V100.594Z" fill="#F0F0F0"/>
<path d="M170.87 105.31H75.8662V132.994H170.87V105.31Z" fill="#E0E0E0"/>
<path d="M81.2662 109.788H75.8662V132.986H81.2662V109.788Z" fill="#EBEBEB"/>
<path d="M107.367 109.788H101.967V132.986H107.367V109.788Z" fill="#EBEBEB"/>
<path d="M136.989 109.205L131.667 110.123L135.608 132.984L140.929 132.067L136.989 109.205Z" fill="#EBEBEB"/>
<path d="M87.9557 112.848H82.5557V132.994H87.9557V112.848Z" fill="#EBEBEB"/>
<path d="M100.361 112.848H94.9609V132.994H100.361V112.848Z" fill="#EBEBEB"/>
<path d="M131.673 112.848H126.273V132.994H131.673V112.848Z" fill="#EBEBEB"/>
<path d="M114.459 112.149L109.188 113.32L113.558 132.986L118.829 131.815L114.459 112.149Z" fill="#EBEBEB"/>
<path d="M92.6209 108.636H89.9209V132.987H92.6209V108.636Z" fill="#EBEBEB"/>
<path d="M124.719 108.636H122.019V132.987H124.719V108.636Z" fill="#EBEBEB"/>
<path d="M75.8739 165.062H170.878V137.379H75.8739V165.062Z" fill="#E0E0E0"/>
<path d="M165.47 165.055H170.87V141.857H165.47V165.055Z" fill="#EBEBEB"/>
<path d="M139.377 165.055H144.777V141.857H139.377V165.055Z" fill="#EBEBEB"/>
<path d="M105.816 164.134L111.138 165.051L115.078 142.19L109.757 141.272L105.816 164.134Z" fill="#EBEBEB"/>
<path d="M158.782 165.062H164.182V144.917H158.782V165.062Z" fill="#EBEBEB"/>
<path d="M146.383 165.062H151.783V144.917H146.383V165.062Z" fill="#EBEBEB"/>
<path d="M115.071 165.062H120.471V144.917H115.071V165.062Z" fill="#EBEBEB"/>
<path d="M127.932 163.886L133.203 165.057L137.574 145.391L132.302 144.22L127.932 163.886Z" fill="#EBEBEB"/>
<path d="M154.116 165.055H156.816V140.705H154.116V165.055Z" fill="#EBEBEB"/>
<path d="M122.026 165.055H124.726V140.705H122.026V165.055Z" fill="#EBEBEB"/>
<path d="M81.2662 141.857H75.8662V165.055H81.2662V141.857Z" fill="#EBEBEB"/>
<path d="M87.9557 144.91H82.5557V165.055H87.9557V144.91Z" fill="#EBEBEB"/>
<path d="M100.361 144.91H94.9609V165.055H100.361V144.91Z" fill="#EBEBEB"/>
<path d="M92.6209 140.705H89.9209V165.055H92.6209V140.705Z" fill="#EBEBEB"/>
<path d="M170.87 169.44H75.8662V197.124H170.87V169.44Z" fill="#E0E0E0"/>
<path d="M135.799 173.918H130.399V197.117H135.799V173.918Z" fill="#EBEBEB"/>
<path d="M165.426 173.334L160.104 174.251L164.045 197.113L169.367 196.195L165.426 173.334Z" fill="#EBEBEB"/>
<path d="M116.388 176.979H110.988V197.124H116.388V176.979Z" fill="#EBEBEB"/>
<path d="M128.794 176.979H123.394V197.124H128.794V176.979Z" fill="#EBEBEB"/>
<path d="M160.106 176.979H154.706V197.124H160.106V176.979Z" fill="#EBEBEB"/>
<path d="M142.894 176.28L137.623 177.452L141.994 197.117L147.265 195.946L142.894 176.28Z" fill="#EBEBEB"/>
<path d="M121.054 172.767H118.354V197.117H121.054V172.767Z" fill="#EBEBEB"/>
<path d="M153.151 172.767H150.451V197.117H153.151V172.767Z" fill="#EBEBEB"/>
<path d="M103.335 173.34L98.0137 174.257L101.954 197.118L107.276 196.201L103.335 173.34Z" fill="#EBEBEB"/>
<path d="M98.0133 176.979H92.6133V197.124H98.0133V176.979Z" fill="#EBEBEB"/>
<path d="M80.8046 176.28L75.5332 177.452L79.9038 197.117L85.1752 195.946L80.8046 176.28Z" fill="#EBEBEB"/>
<path d="M91.0652 172.767H88.3652V197.117H91.0652V172.767Z" fill="#EBEBEB"/>
<path d="M54.6188 250.865H72.2588L72.2588 100.594H54.6188L54.6188 250.865Z" fill="#E0E0E0"/>
<path d="M234.317 246.941H219.334L227.211 182.76C227.4 181.419 228.059 180.189 229.07 179.288C230.081 178.387 231.379 177.875 232.733 177.842H298.08L288.497 246.912L234.317 246.941Z" fill="#F5F5F5"/>
<path d="M281.837 246.941H296.82L304.704 182.76C304.8 182.143 304.76 181.512 304.585 180.913C304.411 180.313 304.107 179.759 303.695 179.29C303.283 178.821 302.773 178.448 302.201 178.198C301.628 177.948 301.008 177.826 300.384 177.842H295.236C293.885 177.884 292.591 178.399 291.582 179.298C290.572 180.197 289.911 181.422 289.714 182.76L281.837 246.941Z" fill="#F0F0F0"/>
<path d="M276.321 246.84L279.036 215.808C279.093 215.135 279.379 214.502 279.847 214.014C280.315 213.527 280.936 213.214 281.606 213.129L282.722 212.985C283.623 212.873 284.457 212.453 285.086 211.798C285.714 211.142 286.097 210.29 286.171 209.385L286.668 203.726C286.717 203.178 286.651 202.625 286.474 202.103C286.298 201.581 286.015 201.102 285.643 200.695C285.271 200.289 284.819 199.964 284.315 199.743C283.81 199.521 283.266 199.406 282.715 199.406H307.756C308.307 199.406 308.852 199.521 309.356 199.743C309.86 199.964 310.313 200.289 310.685 200.695C311.056 201.102 311.34 201.581 311.516 202.103C311.692 202.625 311.758 203.178 311.709 203.726L311.212 209.385C311.138 210.29 310.755 211.142 310.127 211.798C309.499 212.453 308.664 212.873 307.764 212.985L306.648 213.129C305.978 213.216 305.358 213.528 304.89 214.015C304.423 214.503 304.136 215.135 304.077 215.808L301.363 246.84C301.266 247.93 300.764 248.945 299.957 249.685C299.149 250.424 298.094 250.835 297 250.836H271.958C273.053 250.835 274.108 250.424 274.915 249.685C275.723 248.945 276.224 247.93 276.321 246.84Z" fill="#E6E6E6"/>
<path d="M207.403 208.068C207.204 205.712 206.129 203.517 204.388 201.917C202.648 200.317 200.371 199.428 198.007 199.428H219.808C222.166 199.437 224.435 200.33 226.167 201.929C227.9 203.528 228.97 205.718 229.168 208.068L231.328 232.663H209.556L207.403 208.068Z" fill="#E6E6E6"/>
<path d="M188.323 199.457H198C200.363 199.458 202.641 200.346 204.381 201.946C206.121 203.546 207.197 205.741 207.396 208.097L209.556 232.692H261.482L263.642 208.097C263.838 205.747 264.909 203.556 266.641 201.956C268.374 200.357 270.644 199.465 273.002 199.457H282.686C283.237 199.457 283.782 199.571 284.286 199.793C284.79 200.015 285.242 200.34 285.614 200.746C285.986 201.153 286.269 201.632 286.446 202.154C286.622 202.676 286.688 203.228 286.639 203.777L286.142 209.436C286.068 210.341 285.685 211.193 285.057 211.848C284.429 212.504 283.594 212.923 282.693 213.036L281.577 213.18C280.907 213.265 280.286 213.577 279.818 214.065C279.35 214.552 279.064 215.185 279.007 215.859L276.321 246.84C276.224 247.931 275.722 248.946 274.915 249.685C274.108 250.424 273.053 250.835 271.958 250.836H199.08C197.985 250.835 196.93 250.424 196.122 249.685C195.315 248.946 194.813 247.931 194.716 246.84L192.002 215.808C191.942 215.136 191.655 214.504 191.187 214.017C190.72 213.53 190.101 213.217 189.432 213.13L188.316 212.986C187.414 212.872 186.58 212.453 185.951 211.797C185.322 211.142 184.936 210.291 184.86 209.386L184.37 203.727C184.328 203.182 184.4 202.635 184.579 202.119C184.759 201.603 185.043 201.13 185.414 200.729C185.786 200.328 186.235 200.008 186.736 199.789C187.236 199.571 187.777 199.457 188.323 199.457Z" fill="#F0F0F0"/>
<path d="M73.5554 93.1054C73.5554 93.1054 72.7562 87.8422 76.5938 84.4654C80.4314 81.0886 80.093 79.087 78.9914 78.8278C77.8898 78.5686 76.889 81.9382 75.2042 82.867C75.2042 82.867 75.1466 78.0575 76.8602 76.2935C78.5738 74.5295 79.4738 69.9574 77.8394 69.8782C76.205 69.799 76.0466 72.5854 75.6794 74.5654C75.3122 76.5454 73.5194 79.3246 73.5194 79.3246C73.5194 79.3246 73.1666 75.0047 72.0794 73.2551C70.9922 71.5055 73.9226 67.4374 72.7994 65.6734C71.6762 63.9094 69.6386 67.2718 69.8042 71.0662C69.9698 74.8606 72.5042 78.907 71.9138 82.867C71.9138 82.867 70.7978 80.0806 69.797 79.8286C68.7962 79.5766 67.781 77.7407 67.1114 77.0567C66.4418 76.3727 65.5922 78.7342 67.1114 80.923C68.6306 83.1118 72.5042 88.9799 71.9138 93.7175L73.5554 93.1054Z" fill="#E6E6E6"/>
<path d="M75.8443 90.708L77.1043 98.592C77.1948 99.1644 77.1602 99.7497 77.0029 100.307C76.8455 100.865 76.5691 101.382 76.1927 101.823C75.8164 102.264 75.349 102.617 74.8227 102.86C74.2965 103.103 73.7238 103.229 73.1443 103.229H71.8051C71.2256 103.229 70.653 103.103 70.1267 102.86C69.6005 102.617 69.1331 102.264 68.7567 101.823C68.3803 101.382 68.104 100.865 67.9466 100.307C67.7892 99.7497 67.7546 99.1644 67.8451 98.592L69.1195 90.708H75.8443Z" fill="#E6E6E6"/>
<path d="M151.236 101.688H155.146V84.876H151.236V101.688Z" fill="#EBEBEB"/>
<path d="M132.329 101.688H136.238V84.876H132.329V101.688Z" fill="#EBEBEB"/>
<path d="M108.01 101.02L111.863 101.684L114.719 85.1164L110.866 84.4523L108.01 101.02Z" fill="#EBEBEB"/>
<path d="M146.39 101.681H150.3V87.0863H146.39V101.681Z" fill="#EBEBEB"/>
<path d="M137.405 101.681H141.314V87.0863H137.405V101.681Z" fill="#EBEBEB"/>
<path d="M114.711 101.681H118.62V87.0863H114.711V101.681Z" fill="#EBEBEB"/>
<path d="M124.035 100.834L127.852 101.683L131.018 87.4358L127.201 86.5876L124.035 100.834Z" fill="#EBEBEB"/>
<path d="M143.006 101.688H144.965V84.0408H143.006V101.688Z" fill="#EBEBEB"/>
<path d="M119.743 101.688H121.701V84.0408H119.743V101.688Z" fill="#EBEBEB"/>
<path d="M105.804 88.3394H86.7451V101.494H105.804V88.3394Z" fill="#EBEBEB"/>
<path d="M171.166 93.7246H155.203V103.545H171.166V93.7246Z" fill="#EBEBEB"/>
<path d="M167.436 85.0918H159.451V94.9126H167.436V85.0918Z" fill="#EBEBEB"/>
<path d="M300.823 72.0962H281.837V151.21H300.823V72.0962Z" fill="#E0E0E0"/>
<path d="M227.779 151.426H298.785V72.1034L227.779 72.1034V151.426Z" fill="#E0E0E0"/>
<path d="M225.49 151.426H299.16V72.1034L225.49 72.1034V151.426Z" fill="#F0F0F0"/>
<path d="M228.643 147.775H296.136V74.6234L228.643 74.6234V147.775Z" fill="white"/>
<path d="M228.636 147.775H229.889V74.6234H228.636V147.775Z" fill="#E0E0E0"/>
<path d="M229.688 127.234V129.207H296.316V127.234H229.688Z" fill="#E0E0E0"/>
<path d="M228.636 127.227L297.188 127.227V123.915L228.636 123.915V127.227Z" fill="#F0F0F0"/>
<path d="M180 283.243C257.1 283.243 319.601 279.594 319.601 275.093C319.601 270.591 257.1 266.942 180 266.942C102.901 266.942 40.3994 270.591 40.3994 275.093C40.3994 279.594 102.901 283.243 180 283.243Z" fill="#F5F5F5"/>
<path d="M231.804 85.4302H102.989C100.078 85.4302 97.7188 87.7898 97.7188 90.7006V242.376C97.7188 245.287 100.078 247.646 102.989 247.646H231.804C234.715 247.646 237.075 245.287 237.075 242.376V90.7006C237.075 87.7898 234.715 85.4302 231.804 85.4302Z" fill="#ED8D34"/>
<path opacity="0.6" d="M231.804 85.4302H102.989C100.078 85.4302 97.7188 87.7898 97.7188 90.7006V242.376C97.7188 245.287 100.078 247.646 102.989 247.646H231.804C234.715 247.646 237.075 245.287 237.075 242.376V90.7006C237.075 87.7898 234.715 85.4302 231.804 85.4302Z" fill="white"/>
<path d="M214.503 159.828H120.298V175.956H214.503V159.828Z" fill="white"/>
<g opacity="0.4">
<path opacity="0.4" d="M128.722 169.461V169.886H125.453V165.264H128.621V165.681H125.943V167.33H128.333V167.74H125.943V169.461H128.722Z" fill="#263238"/>
<path opacity="0.4" d="M129.377 167.892H131.112V168.295H129.377V167.892Z" fill="#263238"/>
<path opacity="0.4" d="M137.887 167.87V169.886H137.419V167.914C137.419 167.194 137.052 166.805 136.426 166.805C136.263 166.797 136.101 166.825 135.951 166.887C135.801 166.948 135.665 167.042 135.555 167.162C135.445 167.281 135.362 167.423 135.312 167.578C135.262 167.732 135.247 167.896 135.267 168.057V169.886H134.791V167.914C134.791 167.194 134.424 166.805 133.791 166.805C133.628 166.797 133.466 166.825 133.316 166.887C133.165 166.948 133.03 167.042 132.92 167.162C132.809 167.281 132.726 167.423 132.677 167.578C132.627 167.732 132.611 167.896 132.631 168.057V169.886H132.156V166.409H132.61V167.042C132.746 166.83 132.935 166.657 133.159 166.541C133.382 166.425 133.632 166.369 133.884 166.38C134.139 166.358 134.394 166.416 134.614 166.545C134.834 166.674 135.009 166.868 135.115 167.1C135.259 166.868 135.463 166.679 135.705 166.552C135.947 166.425 136.218 166.366 136.491 166.38C136.686 166.365 136.882 166.394 137.065 166.465C137.248 166.536 137.412 166.647 137.546 166.79C137.68 166.933 137.78 167.105 137.839 167.292C137.899 167.478 137.915 167.676 137.887 167.87Z" fill="#263238"/>
<path opacity="0.4" d="M141.79 167.726V169.886H141.336V169.339C141.208 169.534 141.029 169.69 140.818 169.791C140.608 169.893 140.374 169.935 140.141 169.915C139.356 169.915 138.874 169.504 138.874 168.907C138.874 168.309 139.22 167.92 140.213 167.92H141.315V167.712C141.315 167.114 140.984 166.79 140.336 166.79C139.913 166.785 139.502 166.931 139.176 167.2L138.968 166.855C139.374 166.528 139.886 166.359 140.408 166.38C140.591 166.357 140.778 166.376 140.953 166.436C141.129 166.495 141.289 166.593 141.421 166.722C141.554 166.851 141.656 167.008 141.72 167.182C141.783 167.356 141.808 167.542 141.79 167.726ZM141.315 168.842V168.273H140.228C139.558 168.273 139.335 168.532 139.335 168.892C139.335 169.252 139.659 169.548 140.213 169.548C140.448 169.563 140.682 169.503 140.88 169.376C141.078 169.249 141.231 169.062 141.315 168.842Z" fill="#263238"/>
<path opacity="0.4" d="M142.956 165.314C142.957 165.27 142.967 165.226 142.985 165.185C143.002 165.145 143.028 165.108 143.06 165.077C143.092 165.046 143.13 165.022 143.172 165.006C143.213 164.99 143.257 164.982 143.302 164.983C143.345 164.982 143.388 164.99 143.429 165.005C143.47 165.021 143.507 165.045 143.538 165.075C143.569 165.105 143.595 165.141 143.612 165.181C143.63 165.221 143.639 165.264 143.64 165.307C143.641 165.352 143.633 165.397 143.616 165.439C143.6 165.481 143.575 165.519 143.544 165.551C143.512 165.583 143.474 165.609 143.433 165.626C143.391 165.644 143.347 165.653 143.302 165.653C143.257 165.654 143.212 165.645 143.17 165.629C143.128 165.612 143.09 165.588 143.058 165.556C143.026 165.525 143 165.487 142.982 165.445C142.965 165.404 142.956 165.359 142.956 165.314ZM143.064 166.409H143.532V169.886H143.064V166.409Z" fill="#263238"/>
<path opacity="0.4" d="M144.836 164.983H145.304V169.886H144.836V164.983Z" fill="#263238"/>
</g>
<path d="M214.503 181.86H120.298V197.988H214.503V181.86Z" fill="white"/>
<g opacity="0.4">
<path opacity="0.4" d="M129.068 188.901C129.068 189.888 128.348 190.485 127.181 190.485H125.943V191.925H125.453V187.303H127.181C128.355 187.317 129.068 187.915 129.068 188.901ZM128.578 188.901C128.578 188.181 128.096 187.742 127.138 187.742H125.914V190.053H127.138C128.096 190.053 128.578 189.628 128.578 188.901Z" fill="#263238"/>
<path opacity="0.4" d="M132.617 189.787V191.947H132.164V191.4C132.035 191.595 131.856 191.751 131.645 191.852C131.435 191.954 131.201 191.996 130.968 191.976C130.184 191.976 129.701 191.565 129.701 190.961C129.701 190.356 130.047 189.96 131.04 189.96H132.142V189.744C132.142 189.153 131.804 188.829 131.156 188.829C130.735 188.824 130.326 188.969 130.004 189.24L129.788 188.887C130.198 188.567 130.708 188.401 131.228 188.419C131.414 188.395 131.603 188.413 131.781 188.473C131.959 188.533 132.122 188.633 132.255 188.765C132.389 188.896 132.492 189.057 132.554 189.234C132.617 189.411 132.638 189.6 132.617 189.787ZM132.149 190.896V190.327H131.04C130.371 190.327 130.155 190.593 130.155 190.953C130.155 191.313 130.472 191.601 131.033 191.601C131.27 191.619 131.507 191.56 131.708 191.433C131.909 191.306 132.063 191.117 132.149 190.896Z" fill="#263238"/>
<path opacity="0.4" d="M133.409 191.544L133.618 191.177C133.981 191.43 134.413 191.566 134.856 191.565C135.512 191.565 135.785 191.342 135.785 190.997C135.785 190.089 133.532 190.802 133.532 189.434C133.532 188.865 134.021 188.441 134.907 188.441C135.339 188.437 135.764 188.549 136.138 188.765L135.929 189.139C135.626 188.939 135.27 188.836 134.907 188.844C134.28 188.844 134 189.089 134 189.42C134 190.356 136.253 189.65 136.253 190.982C136.253 191.587 135.728 191.976 134.813 191.976C134.311 191.989 133.818 191.837 133.409 191.544Z" fill="#263238"/>
<path opacity="0.4" d="M136.635 191.544L136.851 191.177C137.21 191.433 137.641 191.569 138.082 191.565C138.744 191.565 139.011 191.342 139.011 190.997C139.011 190.089 136.764 190.802 136.764 189.434C136.764 188.865 137.254 188.441 138.132 188.441C138.565 188.435 138.99 188.547 139.364 188.765L139.162 189.139C138.856 188.94 138.497 188.837 138.132 188.844C137.506 188.844 137.232 189.089 137.232 189.42C137.232 190.356 139.486 189.65 139.486 190.982C139.486 191.587 138.953 191.976 138.046 191.976C137.541 191.988 137.046 191.836 136.635 191.544Z" fill="#263238"/>
<path opacity="0.4" d="M145.376 188.469L144.065 191.94H143.626L142.561 189.096L141.466 191.94H141.027L139.681 188.469H140.127L141.221 191.421L142.337 188.469H142.741L143.849 191.421L144.951 188.469H145.376Z" fill="#263238"/>
<path opacity="0.4" d="M145.635 190.204C145.635 189.854 145.739 189.512 145.933 189.22C146.128 188.929 146.405 188.702 146.728 188.568C147.052 188.434 147.408 188.399 147.752 188.467C148.095 188.535 148.411 188.704 148.658 188.952C148.906 189.2 149.075 189.515 149.143 189.859C149.211 190.202 149.176 190.558 149.042 190.882C148.908 191.206 148.681 191.482 148.39 191.677C148.099 191.872 147.756 191.975 147.406 191.975C147.171 191.984 146.937 191.943 146.719 191.857C146.5 191.771 146.302 191.641 146.136 191.475C145.97 191.309 145.839 191.11 145.753 190.891C145.667 190.673 145.627 190.439 145.635 190.204ZM148.695 190.204C148.683 189.95 148.598 189.705 148.448 189.5C148.299 189.294 148.092 189.137 147.854 189.048C147.616 188.959 147.358 188.942 147.11 188.999C146.862 189.056 146.637 189.184 146.461 189.368C146.286 189.552 146.169 189.784 146.124 190.034C146.08 190.284 146.109 190.542 146.21 190.775C146.311 191.009 146.478 191.207 146.69 191.346C146.903 191.485 147.152 191.559 147.406 191.558C147.582 191.561 147.756 191.528 147.918 191.46C148.081 191.393 148.227 191.292 148.348 191.165C148.47 191.037 148.563 190.886 148.623 190.721C148.682 190.556 148.707 190.38 148.695 190.204Z" fill="#263238"/>
<path opacity="0.4" d="M151.878 188.44V188.894H151.762C151.598 188.886 151.433 188.915 151.281 188.977C151.128 189.04 150.992 189.136 150.88 189.257C150.769 189.379 150.686 189.524 150.637 189.681C150.587 189.839 150.574 190.005 150.596 190.168V191.94H150.128V188.469H150.574V189.146C150.696 188.911 150.885 188.718 151.117 188.593C151.35 188.467 151.615 188.414 151.878 188.44Z" fill="#263238"/>
<path opacity="0.4" d="M155.859 187.08V191.976H155.413V191.292C155.273 191.519 155.075 191.706 154.84 191.832C154.605 191.959 154.34 192.021 154.073 192.012C153.624 191.983 153.203 191.784 152.895 191.456C152.586 191.128 152.415 190.694 152.415 190.244C152.415 189.794 152.586 189.36 152.895 189.032C153.203 188.704 153.624 188.505 154.073 188.476C154.337 188.471 154.597 188.534 154.828 188.66C155.06 188.787 155.254 188.972 155.391 189.196V187.08H155.859ZM155.398 190.24C155.387 189.987 155.301 189.742 155.152 189.536C155.002 189.33 154.796 189.173 154.558 189.084C154.32 188.995 154.061 188.978 153.813 189.035C153.566 189.092 153.34 189.22 153.165 189.404C152.99 189.588 152.872 189.82 152.828 190.07C152.783 190.32 152.813 190.578 152.913 190.811C153.014 191.045 153.181 191.243 153.394 191.382C153.606 191.522 153.855 191.595 154.109 191.594C154.288 191.598 154.466 191.564 154.631 191.494C154.796 191.424 154.944 191.32 155.066 191.189C155.188 191.058 155.28 190.902 155.338 190.732C155.395 190.563 155.416 190.383 155.398 190.204V190.24Z" fill="#263238"/>
</g>
<path opacity="0.2" d="M214.503 214.44H120.298V230.568H214.503V214.44Z" fill="black"/>
<g opacity="0.5">
<path opacity="0.5" d="M143.209 207.031H141.668L141.337 207.751H141.034L142.294 204.993H142.582L143.842 207.751H143.54L143.209 207.031ZM143.101 206.793L142.438 205.31L141.776 206.793H143.101Z" fill="black"/>
<path opacity="0.5" d="M144.245 204.842H144.526V207.765H144.245V204.842Z" fill="black"/>
<path opacity="0.5" d="M146.355 205.677V205.951H146.283C146.183 205.942 146.081 205.956 145.987 205.992C145.893 206.028 145.808 206.085 145.739 206.159C145.669 206.232 145.618 206.32 145.587 206.416C145.557 206.512 145.549 206.614 145.563 206.714V207.772H145.282V205.699H145.556V206.102C145.628 205.957 145.744 205.838 145.887 205.761C146.031 205.685 146.194 205.656 146.355 205.677Z" fill="black"/>
<path opacity="0.5" d="M148.645 206.815H146.881C146.886 206.916 146.912 207.014 146.956 207.105C147 207.196 147.061 207.278 147.137 207.345C147.213 207.412 147.301 207.463 147.397 207.496C147.492 207.528 147.593 207.541 147.694 207.535C147.814 207.539 147.933 207.517 148.044 207.471C148.154 207.425 148.254 207.356 148.335 207.268L148.486 207.448C148.338 207.605 148.146 207.713 147.935 207.761C147.725 207.809 147.505 207.793 147.304 207.716C147.102 207.639 146.928 207.504 146.802 207.329C146.677 207.153 146.607 206.944 146.6 206.728C146.593 206.591 146.614 206.455 146.662 206.326C146.71 206.198 146.784 206.081 146.88 205.982C146.975 205.884 147.089 205.806 147.216 205.753C147.342 205.701 147.478 205.675 147.615 205.677C147.752 205.674 147.888 205.699 148.015 205.751C148.142 205.804 148.256 205.882 148.351 205.98C148.446 206.079 148.519 206.197 148.566 206.326C148.613 206.454 148.632 206.592 148.623 206.728C148.623 206.728 148.645 206.786 148.645 206.815ZM146.91 206.606H148.35C148.35 206.415 148.274 206.232 148.139 206.097C148.004 205.962 147.82 205.886 147.63 205.886C147.439 205.886 147.255 205.962 147.12 206.097C146.985 206.232 146.91 206.415 146.91 206.606Z" fill="black"/>
<path opacity="0.5" d="M150.726 206.52V207.801H150.481V207.477C150.405 207.596 150.297 207.691 150.17 207.752C150.043 207.813 149.901 207.838 149.761 207.823C149.293 207.823 149.041 207.578 149.041 207.218C149.041 206.858 149.243 206.628 149.84 206.628H150.481V206.505C150.481 206.153 150.279 205.958 149.891 205.958C149.629 205.949 149.372 206.036 149.171 206.203L149.048 205.994C149.287 205.804 149.585 205.704 149.891 205.713C150.002 205.694 150.116 205.702 150.224 205.735C150.332 205.768 150.431 205.827 150.512 205.905C150.594 205.984 150.655 206.08 150.693 206.187C150.73 206.294 150.741 206.408 150.726 206.52ZM150.452 207.182V206.837H149.797C149.394 206.837 149.264 206.995 149.264 207.211C149.264 207.427 149.459 207.6 149.79 207.6C149.939 207.611 150.088 207.573 150.213 207.491C150.338 207.409 150.432 207.288 150.481 207.146L150.452 207.182Z" fill="black"/>
<path opacity="0.5" d="M153.361 204.842V207.765H153.095V207.355C153.013 207.493 152.895 207.605 152.755 207.681C152.614 207.757 152.455 207.794 152.295 207.787C152.031 207.765 151.784 207.645 151.604 207.449C151.424 207.254 151.324 206.998 151.324 206.732C151.324 206.467 151.424 206.211 151.604 206.015C151.784 205.82 152.031 205.699 152.295 205.677C152.451 205.673 152.606 205.709 152.744 205.78C152.883 205.852 153.001 205.958 153.087 206.088V204.842H153.361ZM153.087 206.729C153.08 206.578 153.029 206.433 152.94 206.311C152.852 206.189 152.729 206.096 152.588 206.043C152.446 205.99 152.293 205.98 152.146 206.014C151.999 206.047 151.865 206.123 151.761 206.232C151.657 206.342 151.587 206.479 151.56 206.627C151.533 206.776 151.55 206.929 151.609 207.067C151.669 207.206 151.767 207.324 151.893 207.407C152.019 207.49 152.166 207.535 152.317 207.535C152.424 207.541 152.532 207.525 152.632 207.487C152.732 207.448 152.823 207.389 152.899 207.313C152.975 207.236 153.033 207.145 153.071 207.044C153.108 206.943 153.124 206.836 153.116 206.729H153.087Z" fill="black"/>
<path opacity="0.5" d="M155.917 205.692L154.88 208.017C154.707 208.421 154.484 208.55 154.16 208.55C153.974 208.555 153.794 208.488 153.656 208.363L153.786 208.154C153.887 208.256 154.024 208.313 154.167 208.313C154.355 208.313 154.477 208.226 154.599 207.96L154.686 207.765L153.757 205.692H154.081L154.866 207.456L155.643 205.692H155.917Z" fill="black"/>
<path opacity="0.5" d="M158.911 206.52V207.801H158.645V207.477C158.569 207.596 158.461 207.691 158.334 207.752C158.207 207.813 158.065 207.838 157.925 207.823C157.457 207.823 157.205 207.578 157.205 207.218C157.205 206.858 157.407 206.628 158.004 206.628H158.659V206.505C158.659 206.153 158.465 205.958 158.076 205.958C157.814 205.949 157.558 206.036 157.356 206.203L157.227 205.994C157.468 205.804 157.769 205.705 158.076 205.713C158.188 205.694 158.302 205.702 158.41 205.735C158.518 205.768 158.617 205.827 158.698 205.905C158.779 205.984 158.841 206.08 158.878 206.187C158.915 206.294 158.927 206.408 158.911 206.52ZM158.631 207.182V206.837H157.983C157.579 206.837 157.45 206.995 157.45 207.211C157.45 207.427 157.644 207.6 157.975 207.6C158.119 207.606 158.261 207.564 158.379 207.483C158.497 207.401 158.585 207.283 158.631 207.146V207.182Z" fill="black"/>
<path opacity="0.5" d="M164.161 206.563V207.765H163.887V206.592C163.887 206.152 163.664 205.929 163.29 205.929C163.193 205.922 163.096 205.935 163.005 205.968C162.915 206.002 162.832 206.055 162.764 206.123C162.695 206.192 162.642 206.274 162.609 206.365C162.575 206.456 162.562 206.553 162.57 206.649V207.736H162.296V206.592C162.296 206.152 162.073 205.929 161.691 205.929C161.595 205.922 161.498 205.935 161.407 205.968C161.316 206.002 161.234 206.055 161.165 206.123C161.097 206.192 161.044 206.274 161.011 206.365C160.977 206.456 160.964 206.553 160.971 206.649V207.736H160.69V205.663H160.957V206.044C161.036 205.915 161.149 205.81 161.284 205.741C161.418 205.671 161.569 205.639 161.72 205.648C161.871 205.637 162.022 205.673 162.151 205.751C162.28 205.83 162.381 205.948 162.44 206.088C162.524 205.946 162.645 205.831 162.789 205.754C162.934 205.676 163.097 205.64 163.261 205.648C163.385 205.626 163.513 205.635 163.634 205.673C163.754 205.711 163.863 205.778 163.952 205.868C164.04 205.958 164.106 206.069 164.142 206.19C164.179 206.311 164.185 206.439 164.161 206.563Z" fill="black"/>
<path opacity="0.5" d="M166.71 206.815H164.975C164.989 207.019 165.084 207.209 165.237 207.343C165.391 207.478 165.591 207.547 165.795 207.535C165.914 207.54 166.032 207.518 166.142 207.472C166.251 207.426 166.349 207.357 166.429 207.269L166.587 207.449C166.486 207.559 166.362 207.646 166.225 207.705C166.087 207.763 165.938 207.791 165.788 207.787C165.645 207.796 165.502 207.775 165.368 207.726C165.234 207.676 165.112 207.599 165.009 207.499C164.907 207.4 164.827 207.28 164.773 207.147C164.72 207.014 164.696 206.872 164.701 206.729C164.701 206.461 164.807 206.205 164.996 206.016C165.185 205.827 165.442 205.721 165.709 205.721C165.976 205.721 166.233 205.827 166.422 206.016C166.611 206.205 166.717 206.461 166.717 206.729C166.717 206.729 166.71 206.786 166.71 206.815ZM164.975 206.606H166.451C166.451 206.411 166.373 206.223 166.234 206.084C166.096 205.946 165.908 205.868 165.713 205.868C165.517 205.868 165.329 205.946 165.191 206.084C165.052 206.223 164.975 206.411 164.975 206.606Z" fill="black"/>
<path opacity="0.5" d="M170.713 206.563V207.765H170.432V206.592C170.432 206.152 170.216 205.929 169.841 205.929C169.745 205.92 169.647 205.933 169.556 205.966C169.464 205.999 169.381 206.052 169.313 206.12C169.244 206.189 169.191 206.272 169.158 206.363C169.125 206.455 169.113 206.552 169.121 206.649V207.736H168.841V206.592C168.841 206.152 168.625 205.929 168.243 205.929C168.146 205.92 168.049 205.933 167.957 205.966C167.866 205.999 167.783 206.052 167.714 206.12C167.646 206.189 167.593 206.272 167.56 206.363C167.527 206.455 167.514 206.552 167.523 206.649V207.736H167.242V205.663H167.509V206.044C167.587 205.915 167.7 205.809 167.835 205.74C167.969 205.67 168.121 205.638 168.272 205.648C168.423 205.637 168.574 205.673 168.703 205.751C168.832 205.83 168.933 205.948 168.992 206.088C169.076 205.946 169.196 205.831 169.341 205.754C169.486 205.676 169.649 205.64 169.813 205.648C169.937 205.626 170.065 205.635 170.185 205.673C170.306 205.711 170.415 205.778 170.504 205.868C170.592 205.958 170.658 206.069 170.694 206.19C170.73 206.311 170.737 206.439 170.713 206.563Z" fill="black"/>
<path opacity="0.5" d="M173.578 206.729C173.585 206.867 173.563 207.005 173.514 207.135C173.466 207.265 173.39 207.383 173.294 207.482C173.197 207.582 173.081 207.66 172.953 207.712C172.825 207.765 172.687 207.79 172.548 207.787C172.389 207.794 172.23 207.757 172.089 207.681C171.948 207.605 171.831 207.493 171.749 207.355V207.765H171.476V204.842H171.756V206.088C171.842 205.958 171.96 205.851 172.099 205.78C172.238 205.708 172.392 205.673 172.548 205.677C172.687 205.673 172.824 205.698 172.952 205.749C173.081 205.801 173.197 205.879 173.293 205.978C173.39 206.076 173.465 206.194 173.514 206.323C173.563 206.453 173.585 206.591 173.578 206.729ZM173.297 206.729C173.29 206.578 173.239 206.433 173.15 206.311C173.061 206.189 172.939 206.096 172.798 206.043C172.656 205.99 172.503 205.98 172.356 206.014C172.209 206.047 172.075 206.123 171.971 206.232C171.866 206.342 171.797 206.479 171.77 206.627C171.743 206.776 171.76 206.929 171.819 207.067C171.878 207.206 171.977 207.324 172.103 207.407C172.229 207.49 172.376 207.535 172.527 207.535C172.632 207.537 172.736 207.518 172.833 207.477C172.93 207.437 173.017 207.377 173.09 207.301C173.162 207.226 173.218 207.136 173.254 207.037C173.289 206.938 173.304 206.833 173.297 206.729Z" fill="black"/>
<path opacity="0.5" d="M175.961 206.815H174.24C174.246 206.916 174.271 207.014 174.315 207.105C174.359 207.196 174.421 207.278 174.497 207.345C174.572 207.412 174.661 207.463 174.756 207.496C174.852 207.528 174.953 207.541 175.054 207.535C175.174 207.535 175.292 207.508 175.4 207.457C175.508 207.406 175.604 207.332 175.68 207.239L175.839 207.419C175.69 207.576 175.498 207.684 175.288 207.732C175.077 207.78 174.858 207.764 174.656 207.687C174.454 207.61 174.28 207.475 174.155 207.3C174.03 207.124 173.959 206.915 173.952 206.699C173.946 206.563 173.967 206.426 174.015 206.298C174.063 206.169 174.137 206.052 174.232 205.954C174.327 205.855 174.442 205.777 174.568 205.725C174.695 205.672 174.831 205.646 174.968 205.648C175.104 205.645 175.24 205.67 175.367 205.722C175.493 205.775 175.607 205.853 175.701 205.952C175.795 206.051 175.868 206.169 175.914 206.297C175.96 206.426 175.979 206.563 175.968 206.699L175.961 206.815ZM174.226 206.606H175.666C175.666 206.415 175.59 206.232 175.455 206.097C175.32 205.962 175.137 205.886 174.946 205.886C174.755 205.886 174.572 205.962 174.437 206.097C174.302 206.232 174.226 206.415 174.226 206.606Z" fill="black"/>
<path opacity="0.5" d="M177.581 205.677V205.951H177.516C177.416 205.942 177.315 205.956 177.22 205.992C177.126 206.028 177.041 206.085 176.972 206.158C176.903 206.232 176.851 206.32 176.821 206.416C176.79 206.512 176.782 206.614 176.796 206.714V207.772H176.516V205.699H176.782V206.102C176.855 205.957 176.971 205.839 177.114 205.763C177.257 205.687 177.42 205.657 177.581 205.677Z" fill="black"/>
<path opacity="0.5" d="M179.396 205.713C179.396 205.425 179.166 205.231 178.763 205.231C178.621 205.223 178.479 205.247 178.348 205.302C178.217 205.357 178.1 205.441 178.007 205.548L177.798 205.389C177.921 205.251 178.073 205.142 178.244 205.071C178.415 205 178.6 204.968 178.784 204.979C179.339 204.979 179.691 205.245 179.691 205.699C179.691 206.369 178.971 206.419 178.971 206.966H178.676C178.676 206.289 179.396 206.225 179.396 205.713ZM178.619 207.578C178.628 207.53 178.653 207.487 178.691 207.456C178.728 207.425 178.775 207.408 178.824 207.408C178.873 207.408 178.92 207.425 178.957 207.456C178.995 207.487 179.02 207.53 179.029 207.578C179.035 207.608 179.034 207.639 179.026 207.669C179.018 207.699 179.004 207.727 178.985 207.75C178.965 207.774 178.94 207.793 178.913 207.806C178.885 207.819 178.855 207.826 178.824 207.826C178.793 207.826 178.763 207.819 178.735 207.806C178.707 207.793 178.683 207.774 178.663 207.75C178.644 207.727 178.629 207.699 178.622 207.669C178.614 207.639 178.613 207.608 178.619 207.578Z" fill="black"/>
<path opacity="0.5" d="M181.347 205.008H181.987V207.24H183.37V207.758H181.347V205.008Z" fill="black"/>
<path opacity="0.5" d="M183.514 206.707C183.5 206.473 183.555 206.241 183.675 206.04C183.794 205.839 183.97 205.679 184.182 205.579C184.393 205.48 184.63 205.446 184.861 205.483C185.091 205.519 185.306 205.624 185.476 205.784C185.647 205.944 185.765 206.151 185.816 206.379C185.867 206.607 185.849 206.845 185.763 207.063C185.677 207.28 185.528 207.467 185.335 207.598C185.142 207.73 184.914 207.801 184.68 207.801C184.531 207.811 184.381 207.79 184.239 207.739C184.098 207.689 183.969 207.61 183.86 207.507C183.75 207.405 183.663 207.281 183.604 207.143C183.544 207.005 183.514 206.857 183.514 206.707ZM185.22 206.707C185.212 206.602 185.173 206.502 185.109 206.419C185.045 206.336 184.958 206.274 184.859 206.24C184.76 206.205 184.653 206.201 184.551 206.226C184.449 206.251 184.357 206.306 184.286 206.383C184.215 206.46 184.167 206.556 184.15 206.659C184.132 206.763 184.145 206.869 184.187 206.965C184.229 207.061 184.298 207.143 184.385 207.201C184.473 207.259 184.575 207.29 184.68 207.29C184.755 207.291 184.83 207.277 184.899 207.247C184.968 207.218 185.03 207.174 185.081 207.119C185.132 207.064 185.171 206.999 185.195 206.928C185.219 206.857 185.227 206.781 185.22 206.707Z" fill="black"/>
<path opacity="0.5" d="M188.447 205.641V207.412C188.466 207.572 188.449 207.733 188.395 207.885C188.342 208.036 188.254 208.173 188.139 208.284C188.024 208.396 187.885 208.479 187.732 208.528C187.579 208.577 187.417 208.589 187.259 208.564C186.888 208.579 186.523 208.475 186.215 208.269L186.459 207.83C186.67 207.981 186.921 208.063 187.179 208.068C187.611 208.068 187.806 207.873 187.806 207.492V207.398C187.72 207.488 187.615 207.558 187.5 207.604C187.384 207.65 187.26 207.67 187.136 207.664C186.994 207.676 186.851 207.659 186.716 207.613C186.582 207.566 186.458 207.493 186.353 207.396C186.248 207.3 186.165 207.183 186.107 207.052C186.05 206.922 186.021 206.781 186.021 206.638C186.021 206.496 186.05 206.355 186.107 206.225C186.165 206.094 186.248 205.977 186.353 205.881C186.458 205.784 186.582 205.711 186.716 205.664C186.851 205.618 186.994 205.601 187.136 205.612C187.272 205.602 187.408 205.623 187.533 205.676C187.658 205.729 187.769 205.811 187.856 205.915V205.641H188.447ZM187.842 206.642C187.844 206.57 187.831 206.498 187.804 206.431C187.776 206.365 187.735 206.305 187.682 206.255C187.63 206.205 187.568 206.167 187.5 206.143C187.432 206.12 187.359 206.11 187.287 206.116C187.214 206.108 187.139 206.115 187.068 206.137C186.997 206.159 186.932 206.196 186.877 206.246C186.821 206.295 186.777 206.356 186.746 206.423C186.716 206.491 186.7 206.564 186.7 206.638C186.7 206.713 186.716 206.786 186.746 206.854C186.777 206.921 186.821 206.982 186.877 207.031C186.932 207.081 186.997 207.118 187.068 207.14C187.139 207.162 187.214 207.169 187.287 207.161C187.359 207.167 187.43 207.158 187.498 207.134C187.566 207.111 187.627 207.073 187.68 207.025C187.732 206.976 187.773 206.916 187.801 206.85C187.829 206.785 187.843 206.714 187.842 206.642Z" fill="black"/>
<path opacity="0.5" d="M190.081 205.008C190.082 204.959 190.093 204.912 190.113 204.868C190.132 204.824 190.161 204.785 190.197 204.752C190.233 204.72 190.275 204.695 190.32 204.68C190.366 204.664 190.415 204.658 190.463 204.662C190.51 204.657 190.557 204.662 190.603 204.676C190.648 204.69 190.69 204.714 190.725 204.745C190.761 204.776 190.79 204.814 190.811 204.857C190.831 204.899 190.843 204.946 190.844 204.993C190.844 205.094 190.804 205.192 190.732 205.263C190.661 205.335 190.564 205.375 190.463 205.375C190.361 205.375 190.264 205.335 190.193 205.263C190.121 205.192 190.081 205.094 190.081 204.993V205.008ZM190.153 205.641H190.765V207.801H190.153V205.641Z" fill="black"/>
<path opacity="0.5" d="M193.493 206.52V207.737H192.881V206.621C192.881 206.275 192.723 206.117 192.449 206.117C192.176 206.117 191.938 206.297 191.938 206.686V207.737H191.326V205.577H191.917V205.829C192.009 205.733 192.122 205.658 192.246 205.61C192.37 205.561 192.503 205.54 192.637 205.548C192.761 205.542 192.885 205.564 193 205.612C193.115 205.66 193.217 205.734 193.299 205.827C193.382 205.921 193.442 206.032 193.475 206.151C193.509 206.271 193.515 206.397 193.493 206.52Z" fill="black"/>
</g>
<path d="M214.503 213.454H120.298V229.582H214.503V213.454Z" fill="#ED8D34"/>
<path d="M155.233 224.023L154.081 222.36H153.735H152.367V224.038H151.575V218.515H153.735C155.175 218.515 156.032 219.235 156.032 220.445C156.05 220.828 155.942 221.206 155.723 221.521C155.504 221.836 155.188 222.07 154.822 222.187L156.133 224.038L155.233 224.023ZM155.233 220.423C155.233 219.631 154.707 219.185 153.692 219.185H152.353V221.669H153.692C154.686 221.676 155.211 221.215 155.211 220.43L155.233 220.423Z" fill="white"/>
<path d="M160.935 222.187H157.543C157.597 222.543 157.782 222.866 158.061 223.093C158.341 223.32 158.696 223.433 159.055 223.411C159.281 223.419 159.507 223.378 159.715 223.291C159.924 223.204 160.112 223.073 160.265 222.907L160.683 223.397C160.374 223.709 159.983 223.927 159.554 224.022C159.126 224.118 158.679 224.088 158.267 223.936C157.855 223.784 157.496 223.516 157.232 223.165C156.968 222.814 156.811 222.395 156.78 221.957C156.765 221.674 156.809 221.391 156.908 221.126C157.008 220.861 157.161 220.62 157.359 220.417C157.556 220.214 157.794 220.054 158.056 219.947C158.318 219.841 158.6 219.789 158.883 219.797C159.164 219.789 159.444 219.84 159.705 219.947C159.965 220.054 160.2 220.215 160.395 220.418C160.59 220.622 160.74 220.864 160.835 221.129C160.93 221.394 160.969 221.676 160.949 221.957C160.949 222.021 160.942 222.115 160.935 222.187ZM157.543 221.64H160.222C160.187 221.309 160.032 221.002 159.784 220.779C159.537 220.556 159.216 220.433 158.883 220.433C158.55 220.433 158.228 220.556 157.981 220.779C157.734 221.002 157.578 221.309 157.543 221.64Z" fill="white"/>
<path d="M166.004 219.847V223.447C166.004 224.923 165.248 225.607 163.844 225.607C163.128 225.638 162.423 225.419 161.85 224.988L162.21 224.405C162.67 224.762 163.239 224.953 163.822 224.945C164.809 224.945 165.262 224.491 165.262 223.541V223.209C165.076 223.423 164.844 223.592 164.584 223.705C164.323 223.817 164.041 223.869 163.758 223.857C163.221 223.857 162.706 223.644 162.327 223.265C161.948 222.885 161.734 222.371 161.734 221.834C161.734 221.298 161.948 220.783 162.327 220.404C162.706 220.024 163.221 219.811 163.758 219.811C164.054 219.802 164.348 219.862 164.617 219.987C164.886 220.112 165.122 220.299 165.306 220.531V219.883L166.004 219.847ZM165.284 221.827C165.3 221.539 165.229 221.254 165.081 221.007C164.932 220.76 164.713 220.563 164.452 220.441C164.191 220.32 163.899 220.28 163.615 220.326C163.33 220.373 163.066 220.503 162.857 220.701C162.648 220.899 162.503 221.155 162.44 221.436C162.378 221.718 162.401 222.011 162.508 222.279C162.614 222.547 162.798 222.776 163.036 222.938C163.275 223.1 163.556 223.187 163.844 223.188C164.028 223.199 164.213 223.171 164.386 223.108C164.559 223.044 164.717 222.945 164.851 222.817C164.984 222.689 165.089 222.536 165.16 222.365C165.231 222.195 165.266 222.011 165.262 221.827H165.284Z" fill="white"/>
<path d="M167.313 218.551C167.314 218.485 167.328 218.42 167.355 218.359C167.381 218.298 167.419 218.243 167.466 218.197C167.514 218.151 167.57 218.114 167.631 218.09C167.693 218.066 167.758 218.053 167.825 218.054C167.894 218.046 167.965 218.052 168.032 218.073C168.099 218.094 168.161 218.129 168.214 218.176C168.266 218.222 168.309 218.28 168.337 218.344C168.366 218.408 168.381 218.477 168.381 218.548C168.381 218.618 168.366 218.687 168.337 218.751C168.309 218.816 168.266 218.873 168.214 218.919C168.161 218.966 168.099 219.001 168.032 219.022C167.965 219.043 167.894 219.049 167.825 219.041C167.759 219.043 167.693 219.031 167.632 219.008C167.57 218.984 167.514 218.949 167.467 218.903C167.419 218.857 167.381 218.803 167.355 218.742C167.328 218.682 167.314 218.617 167.313 218.551ZM167.45 219.847H168.206V224.023H167.45V219.847Z" fill="white"/>
<path d="M169.121 223.584L169.438 222.986C169.867 223.265 170.366 223.414 170.878 223.418C171.598 223.418 171.871 223.202 171.871 222.849C171.871 221.913 169.229 222.727 169.229 221.056C169.229 220.336 169.899 219.804 170.971 219.804C171.503 219.795 172.027 219.927 172.491 220.185L172.167 220.783C171.807 220.557 171.389 220.441 170.964 220.452C170.302 220.452 169.978 220.696 169.978 221.028C169.978 222.014 172.627 221.208 172.627 222.835C172.627 223.555 171.907 224.073 170.82 224.073C170.218 224.082 169.626 223.912 169.121 223.584Z" fill="white"/>
<path d="M175.954 223.8C175.692 224 175.37 224.104 175.04 224.095C174.862 224.115 174.682 224.095 174.513 224.037C174.344 223.979 174.191 223.883 174.063 223.757C173.936 223.631 173.839 223.479 173.779 223.31C173.718 223.142 173.697 222.962 173.715 222.785V220.488H172.995V219.869H173.715V218.954H174.435V219.869H175.681V220.488H174.478V222.756C174.461 222.848 174.466 222.944 174.492 223.034C174.518 223.125 174.564 223.208 174.628 223.278C174.691 223.348 174.77 223.402 174.857 223.436C174.945 223.47 175.04 223.484 175.134 223.476C175.346 223.478 175.554 223.409 175.724 223.281L175.954 223.8Z" fill="white"/>
<path d="M180.49 222.187H177.12C177.174 222.544 177.36 222.869 177.641 223.095C177.922 223.322 178.279 223.435 178.639 223.411C178.864 223.419 179.089 223.379 179.296 223.292C179.504 223.205 179.69 223.073 179.842 222.907L180.259 223.397C179.952 223.71 179.561 223.928 179.132 224.024C178.704 224.12 178.257 224.091 177.845 223.938C177.434 223.786 177.075 223.518 176.812 223.166C176.549 222.815 176.394 222.395 176.364 221.957C176.349 221.674 176.393 221.391 176.492 221.126C176.592 220.861 176.745 220.62 176.943 220.417C177.14 220.214 177.378 220.054 177.64 219.947C177.902 219.841 178.184 219.789 178.467 219.797C178.748 219.79 179.027 219.842 179.287 219.949C179.547 220.057 179.782 220.217 179.976 220.421C180.171 220.624 180.321 220.865 180.417 221.13C180.512 221.394 180.552 221.676 180.533 221.957C180.526 222.035 180.511 222.112 180.49 222.187ZM177.12 221.64H179.806C179.764 221.313 179.605 221.013 179.358 220.795C179.111 220.577 178.792 220.457 178.463 220.457C178.134 220.457 177.815 220.577 177.568 220.795C177.321 221.013 177.162 221.313 177.12 221.64Z" fill="white"/>
<path d="M183.809 219.804V220.524H183.636C183.449 220.511 183.261 220.54 183.087 220.61C182.912 220.679 182.756 220.787 182.629 220.926C182.503 221.064 182.409 221.229 182.355 221.409C182.301 221.589 182.289 221.779 182.319 221.964V224.045H181.562V219.869H182.283V220.589C182.435 220.325 182.659 220.111 182.93 219.972C183.201 219.832 183.506 219.774 183.809 219.804Z" fill="white"/>
<g opacity="0.6">
<path opacity="0.6" d="M150.905 103.279L151.229 102.602C151.788 103.07 152.495 103.326 153.224 103.322C154.268 103.322 154.714 102.919 154.714 102.393C154.714 100.953 151.056 101.846 151.056 99.6069C151.056 98.6709 151.776 97.8789 153.368 97.8789C154.053 97.8678 154.728 98.0526 155.312 98.4117L155.024 99.1317C154.529 98.8151 153.955 98.6453 153.368 98.6421C152.338 98.6421 151.928 99.0741 151.928 99.5997C151.928 101.04 155.592 100.147 155.592 102.372C155.592 103.293 154.872 104.085 153.252 104.085C152.399 104.103 151.567 103.817 150.905 103.279Z" fill="#263238"/>
<path opacity="0.6" d="M156.558 97.9726C156.559 97.9001 156.574 97.8285 156.603 97.762C156.632 97.6955 156.673 97.6354 156.725 97.5851C156.778 97.5349 156.839 97.4955 156.907 97.4693C156.975 97.4431 157.047 97.4307 157.119 97.4326C157.191 97.4297 157.262 97.441 157.329 97.466C157.396 97.4909 157.458 97.529 157.51 97.5779C157.562 97.6268 157.604 97.6856 157.634 97.7509C157.663 97.8162 157.679 97.8866 157.681 97.9582C157.681 98.1071 157.622 98.25 157.516 98.3553C157.411 98.4606 157.268 98.5198 157.119 98.5198C156.97 98.5198 156.827 98.4606 156.722 98.3553C156.617 98.25 156.558 98.1071 156.558 97.9582V97.9726ZM156.702 99.4126H157.537V103.992H156.702V99.4126Z" fill="#263238"/>
<path opacity="0.6" d="M163.491 99.3908V103.344C163.491 104.964 162.67 105.698 161.122 105.698C160.345 105.723 159.583 105.481 158.962 105.014L159.358 104.373C159.86 104.77 160.483 104.981 161.122 104.971C162.202 104.971 162.692 104.467 162.692 103.43V103.07C162.488 103.305 162.234 103.492 161.949 103.617C161.664 103.741 161.354 103.8 161.043 103.79C160.742 103.807 160.44 103.763 160.157 103.659C159.873 103.556 159.613 103.395 159.394 103.188C159.175 102.981 159 102.731 158.88 102.454C158.761 102.177 158.699 101.878 158.699 101.576C158.699 101.274 158.761 100.975 158.88 100.698C159 100.421 159.175 100.171 159.394 99.9639C159.613 99.7566 159.873 99.5963 160.157 99.4928C160.44 99.3893 160.742 99.3448 161.043 99.362C161.361 99.3454 161.679 99.4017 161.972 99.5265C162.266 99.6512 162.526 99.8412 162.735 100.082V99.362L163.491 99.3908ZM162.685 101.551C162.701 101.236 162.622 100.924 162.458 100.654C162.295 100.385 162.055 100.17 161.768 100.039C161.482 99.9072 161.163 99.8645 160.852 99.9161C160.541 99.9677 160.253 100.111 160.024 100.328C159.796 100.545 159.637 100.826 159.57 101.134C159.502 101.442 159.528 101.763 159.645 102.055C159.762 102.348 159.964 102.599 160.224 102.776C160.485 102.953 160.793 103.048 161.108 103.048C161.314 103.066 161.521 103.041 161.717 102.974C161.913 102.908 162.092 102.801 162.244 102.66C162.396 102.52 162.517 102.349 162.599 102.159C162.681 101.97 162.723 101.765 162.721 101.558L162.685 101.551Z" fill="#263238"/>
<path opacity="0.6" d="M169.423 101.335V103.97H168.588V101.4C168.588 100.5 168.142 100.06 167.357 100.06C167.157 100.047 166.958 100.078 166.772 100.151C166.586 100.224 166.418 100.337 166.28 100.482C166.143 100.627 166.039 100.801 165.976 100.99C165.913 101.18 165.893 101.381 165.917 101.58V103.941H165.089V99.3621H165.888V100.082C166.085 99.8381 166.337 99.6452 166.624 99.5199C166.911 99.3945 167.224 99.3404 167.537 99.3621C167.797 99.3447 168.057 99.3845 168.3 99.4787C168.542 99.5729 168.761 99.7193 168.941 99.9074C169.121 100.096 169.258 100.321 169.341 100.568C169.424 100.814 169.452 101.076 169.423 101.335Z" fill="#263238"/>
<path opacity="0.6" d="M177.553 99.3907V103.97H176.768V103.25C176.585 103.486 176.349 103.674 176.078 103.799C175.808 103.924 175.511 103.983 175.213 103.97C174.945 103.998 174.675 103.965 174.421 103.874C174.168 103.783 173.938 103.637 173.749 103.445C173.56 103.254 173.416 103.023 173.328 102.768C173.239 102.514 173.21 102.243 173.24 101.976V99.3403H174.068V101.882C174.068 102.775 174.522 103.228 175.306 103.228C175.506 103.243 175.707 103.213 175.893 103.14C176.08 103.068 176.248 102.955 176.386 102.809C176.524 102.664 176.627 102.49 176.69 102.3C176.752 102.11 176.772 101.908 176.746 101.709V99.3403L177.553 99.3907Z" fill="#263238"/>
<path opacity="0.6" d="M183.874 101.68C183.891 101.989 183.842 102.299 183.732 102.588C183.622 102.877 183.453 103.141 183.235 103.361C183.018 103.581 182.757 103.753 182.469 103.867C182.181 103.981 181.872 104.033 181.563 104.02C181.259 104.032 180.957 103.973 180.679 103.848C180.402 103.723 180.157 103.536 179.965 103.3V105.662H179.137V99.4123H179.929V100.132C180.119 99.8817 180.367 99.6807 180.651 99.5466C180.936 99.4124 181.249 99.3491 181.563 99.3619C181.871 99.3486 182.178 99.3995 182.465 99.5114C182.752 99.6233 183.012 99.7937 183.23 100.012C183.447 100.23 183.617 100.491 183.728 100.778C183.839 101.065 183.889 101.373 183.874 101.68ZM183.039 101.68C183.025 101.379 182.923 101.089 182.746 100.846C182.568 100.602 182.324 100.416 182.041 100.31C181.759 100.204 181.452 100.183 181.159 100.25C180.865 100.317 180.597 100.468 180.388 100.685C180.18 100.903 180.039 101.177 179.985 101.473C179.93 101.769 179.964 102.075 180.081 102.352C180.198 102.63 180.394 102.867 180.645 103.034C180.896 103.201 181.19 103.291 181.491 103.293C181.701 103.298 181.91 103.258 182.104 103.178C182.298 103.098 182.473 102.978 182.619 102.826C182.764 102.675 182.877 102.495 182.949 102.297C183.021 102.1 183.052 101.89 183.039 101.68Z" fill="#263238"/>
</g>
<path d="M214.503 137.789H120.298V153.917H214.503V137.789Z" fill="white"/>
<g opacity="0.4">
<path opacity="0.4" d="M125.453 143.225H125.943V147.422H128.528V147.847H125.453V143.225Z" fill="#263238"/>
<path opacity="0.4" d="M131.876 145.694V147.854H131.429V147.314C131.298 147.507 131.119 147.662 130.909 147.763C130.699 147.864 130.466 147.908 130.234 147.89C129.449 147.89 128.967 147.48 128.967 146.875C128.967 146.27 129.305 145.896 130.306 145.896H131.408V145.687C131.408 145.09 131.069 144.766 130.421 144.766C130 144.76 129.592 144.906 129.269 145.176L129.053 144.823C129.464 144.505 129.973 144.339 130.493 144.355C130.676 144.333 130.862 144.352 131.037 144.411C131.212 144.47 131.371 144.567 131.504 144.695C131.636 144.823 131.738 144.98 131.803 145.153C131.867 145.326 131.892 145.511 131.876 145.694ZM131.408 146.803V146.234H130.32C129.644 146.234 129.428 146.501 129.428 146.861C129.428 147.221 129.752 147.509 130.306 147.509C130.541 147.523 130.774 147.463 130.972 147.336C131.17 147.209 131.323 147.022 131.408 146.803Z" fill="#263238"/>
<path opacity="0.4" d="M132.668 147.48L132.877 147.113C133.24 147.366 133.672 147.502 134.115 147.501C134.778 147.501 135.044 147.278 135.044 146.933C135.044 146.025 132.798 146.738 132.798 145.37C132.798 144.801 133.28 144.377 134.166 144.377C134.598 144.371 135.023 144.483 135.397 144.701L135.188 145.075C134.885 144.875 134.528 144.772 134.166 144.78C133.539 144.78 133.266 145.025 133.266 145.356C133.266 146.292 135.512 145.586 135.512 146.918C135.512 147.523 134.986 147.912 134.072 147.912C133.57 147.923 133.077 147.771 132.668 147.48Z" fill="#263238"/>
<path opacity="0.4" d="M138.241 147.638C138.036 147.8 137.782 147.887 137.521 147.883C137.384 147.898 137.245 147.882 137.115 147.836C136.985 147.79 136.867 147.716 136.77 147.618C136.673 147.521 136.598 147.403 136.552 147.273C136.507 147.143 136.491 147.005 136.505 146.868V144.772H135.879V144.376H136.505V143.613H136.973V144.376H138.025V144.772H136.973V146.846C136.961 146.929 136.968 147.014 136.993 147.094C137.018 147.174 137.061 147.247 137.118 147.308C137.176 147.369 137.247 147.416 137.325 147.446C137.403 147.476 137.487 147.487 137.571 147.48C137.76 147.485 137.944 147.421 138.089 147.3L138.241 147.638Z" fill="#263238"/>
<path opacity="0.4" d="M144.721 143.225V147.847H144.317L141.351 144.096V147.847H140.861V143.225H141.265L144.238 146.976V143.225H144.721Z" fill="#263238"/>
<path opacity="0.4" d="M148.782 145.694V147.854H148.321V147.314C148.191 147.508 148.012 147.663 147.801 147.764C147.591 147.866 147.358 147.909 147.126 147.89C146.341 147.89 145.858 147.48 145.858 146.875C145.858 146.27 146.204 145.896 147.205 145.896H148.321V145.687C148.321 145.089 147.982 144.765 147.334 144.765C146.914 144.76 146.505 144.905 146.182 145.176L145.966 144.823C146.377 144.503 146.886 144.337 147.406 144.355C147.589 144.334 147.774 144.354 147.948 144.413C148.122 144.472 148.28 144.57 148.412 144.698C148.544 144.826 148.645 144.982 148.709 145.154C148.773 145.327 148.798 145.511 148.782 145.694ZM148.314 146.803V146.234H147.219C146.55 146.234 146.334 146.5 146.334 146.86C146.334 147.22 146.658 147.508 147.212 147.508C147.448 147.524 147.683 147.465 147.882 147.338C148.082 147.211 148.235 147.023 148.321 146.803H148.314Z" fill="#263238"/>
<path opacity="0.4" d="M155.787 145.831V147.847H155.319V145.882C155.319 145.162 154.944 144.773 154.318 144.773C154.156 144.765 153.994 144.793 153.843 144.855C153.693 144.917 153.558 145.01 153.447 145.13C153.337 145.249 153.254 145.391 153.204 145.546C153.154 145.701 153.139 145.864 153.159 146.026V147.847H152.691V145.882C152.691 145.162 152.316 144.773 151.683 144.773C151.52 144.765 151.358 144.793 151.208 144.855C151.058 144.917 150.922 145.01 150.812 145.13C150.702 145.249 150.619 145.391 150.569 145.546C150.519 145.701 150.504 145.864 150.524 146.026V147.847H150.056V144.377H150.48V145.01C150.616 144.798 150.806 144.625 151.029 144.509C151.253 144.393 151.503 144.337 151.755 144.348C152.01 144.327 152.266 144.385 152.487 144.514C152.709 144.642 152.885 144.836 152.993 145.068C153.135 144.836 153.338 144.647 153.578 144.52C153.819 144.393 154.09 144.334 154.361 144.348C154.558 144.329 154.757 144.354 154.943 144.423C155.129 144.492 155.296 144.601 155.434 144.744C155.571 144.887 155.674 145.059 155.735 145.247C155.796 145.435 155.814 145.635 155.787 145.831Z" fill="#263238"/>
<path opacity="0.4" d="M160.099 146.256H157.219C157.229 146.425 157.273 146.591 157.347 146.744C157.421 146.896 157.525 147.032 157.652 147.145C157.779 147.257 157.927 147.343 158.088 147.398C158.248 147.453 158.418 147.476 158.587 147.466C158.787 147.472 158.986 147.435 159.17 147.356C159.354 147.278 159.519 147.161 159.653 147.012L159.912 147.314C159.663 147.575 159.342 147.756 158.99 147.836C158.638 147.915 158.27 147.889 157.933 147.761C157.596 147.632 157.304 147.408 157.094 147.114C156.884 146.821 156.765 146.473 156.751 146.112C156.739 145.883 156.775 145.653 156.855 145.438C156.935 145.223 157.059 145.027 157.218 144.862C157.378 144.696 157.569 144.565 157.781 144.477C157.993 144.389 158.221 144.345 158.45 144.348C158.68 144.343 158.907 144.387 159.119 144.475C159.331 144.563 159.522 144.694 159.68 144.86C159.839 145.026 159.961 145.223 160.039 145.438C160.118 145.654 160.15 145.883 160.135 146.112C160.106 146.155 160.099 146.206 160.099 146.256ZM157.219 145.91H159.682C159.682 145.584 159.552 145.271 159.321 145.04C159.09 144.809 158.777 144.679 158.45 144.679C158.124 144.679 157.811 144.809 157.58 145.04C157.349 145.271 157.219 145.584 157.219 145.91Z" fill="#263238"/>
</g>
<path d="M214.503 115.756H120.298V131.884H214.503V115.756Z" fill="white"/>
<g opacity="0.4">
<path opacity="0.4" d="M125.943 121.617V123.432H128.333V123.856H125.943V125.815H125.453V121.192H128.621V121.617H125.943Z" fill="#263238"/>
<path opacity="0.4" d="M129.362 121.243C129.361 121.174 129.38 121.106 129.418 121.048C129.455 120.99 129.509 120.945 129.572 120.918C129.636 120.891 129.706 120.883 129.774 120.896C129.841 120.91 129.904 120.943 129.952 120.991C130.001 121.04 130.034 121.102 130.047 121.17C130.06 121.238 130.053 121.308 130.026 121.371C129.999 121.435 129.953 121.489 129.895 121.526C129.838 121.563 129.77 121.583 129.701 121.581C129.611 121.581 129.525 121.546 129.461 121.482C129.398 121.419 129.362 121.333 129.362 121.243ZM129.463 122.344H129.931V125.815H129.463V122.344Z" fill="#263238"/>
<path opacity="0.4" d="M132.992 122.315V122.769H132.877C132.711 122.761 132.546 122.79 132.393 122.853C132.24 122.916 132.103 123.012 131.991 123.135C131.88 123.257 131.797 123.403 131.748 123.561C131.7 123.72 131.687 123.887 131.71 124.051V125.822H131.242V122.351H131.689V122.999C131.813 122.769 132.004 122.58 132.236 122.459C132.468 122.337 132.731 122.287 132.992 122.315Z" fill="#263238"/>
<path opacity="0.4" d="M133.38 125.419L133.589 125.044C133.949 125.305 134.383 125.444 134.827 125.44C135.489 125.44 135.756 125.21 135.756 124.871C135.756 123.964 133.509 124.677 133.509 123.302C133.509 122.74 133.992 122.315 134.877 122.315C135.31 122.306 135.737 122.418 136.109 122.639L135.9 123.014C135.597 122.814 135.24 122.711 134.877 122.719C134.251 122.719 133.977 122.963 133.977 123.295C133.977 124.231 136.224 123.525 136.224 124.857C136.224 125.455 135.698 125.843 134.784 125.843C134.282 125.857 133.79 125.708 133.38 125.419Z" fill="#263238"/>
<path opacity="0.4" d="M138.96 125.606C138.753 125.763 138.5 125.847 138.24 125.844C138.104 125.86 137.965 125.845 137.835 125.8C137.705 125.755 137.587 125.681 137.49 125.584C137.392 125.487 137.318 125.37 137.272 125.24C137.226 125.111 137.21 124.972 137.225 124.836V122.74H136.599V122.344H137.225V121.56H137.693V122.323H138.744V122.719H137.693V124.785C137.681 124.868 137.688 124.953 137.713 125.034C137.738 125.114 137.781 125.187 137.838 125.249C137.895 125.31 137.966 125.358 138.044 125.389C138.123 125.42 138.207 125.432 138.291 125.426C138.479 125.428 138.663 125.365 138.809 125.246L138.96 125.606Z" fill="#263238"/>
<path opacity="0.4" d="M145.44 121.192V125.815H145.037L142.071 122.064V125.815H141.581V121.192H141.984L144.958 124.944V121.192H145.44Z" fill="#263238"/>
<path opacity="0.4" d="M149.494 123.662V125.822H149.041V125.282C148.911 125.474 148.733 125.628 148.524 125.728C148.315 125.829 148.083 125.871 147.853 125.851C147.061 125.851 146.578 125.448 146.578 124.843C146.578 124.238 146.924 123.864 147.925 123.864H149.041V123.648C149.041 123.057 148.702 122.733 148.054 122.733C147.633 122.728 147.225 122.873 146.902 123.144L146.686 122.791C147.097 122.471 147.606 122.306 148.126 122.323C148.308 122.301 148.493 122.321 148.667 122.381C148.84 122.44 148.999 122.537 149.13 122.666C149.261 122.794 149.362 122.95 149.425 123.123C149.488 123.295 149.511 123.479 149.494 123.662ZM149.026 124.771V124.202H147.932C147.262 124.202 147.046 124.468 147.046 124.821C147.046 125.174 147.37 125.476 147.925 125.476C148.161 125.493 148.397 125.433 148.598 125.306C148.799 125.179 148.954 124.992 149.041 124.771H149.026Z" fill="#263238"/>
<path opacity="0.4" d="M156.5 123.799V125.815H156.032V123.849C156.032 123.129 155.657 122.74 155.031 122.74C154.869 122.733 154.706 122.761 154.556 122.823C154.406 122.884 154.27 122.978 154.16 123.097C154.05 123.217 153.967 123.359 153.917 123.513C153.867 123.668 153.852 123.832 153.872 123.993V125.815H153.404V123.849C153.404 123.129 153.029 122.74 152.396 122.74C152.233 122.733 152.071 122.761 151.921 122.823C151.77 122.884 151.635 122.978 151.525 123.097C151.414 123.217 151.331 123.359 151.282 123.513C151.232 123.668 151.216 123.832 151.237 123.993V125.815H150.769V122.344H151.201V123C151.336 122.787 151.526 122.615 151.749 122.498C151.973 122.382 152.223 122.327 152.475 122.337C152.73 122.316 152.986 122.374 153.207 122.503C153.429 122.632 153.605 122.825 153.713 123.057C153.854 122.824 154.056 122.634 154.297 122.507C154.538 122.38 154.809 122.322 155.081 122.337C155.276 122.32 155.472 122.346 155.655 122.414C155.838 122.482 156.003 122.59 156.139 122.73C156.275 122.87 156.378 123.039 156.44 123.224C156.503 123.409 156.523 123.605 156.5 123.799Z" fill="#263238"/>
<path opacity="0.4" d="M160.812 124.224H157.932C157.942 124.393 157.986 124.559 158.06 124.711C158.134 124.864 158.238 125 158.365 125.113C158.492 125.225 158.64 125.311 158.801 125.366C158.961 125.421 159.131 125.444 159.3 125.433C159.501 125.44 159.7 125.402 159.885 125.322C160.069 125.243 160.233 125.123 160.366 124.973L160.625 125.282C160.375 125.543 160.055 125.724 159.703 125.803C159.351 125.883 158.983 125.857 158.646 125.728C158.309 125.6 158.017 125.375 157.807 125.082C157.597 124.789 157.477 124.44 157.464 124.08C157.452 123.85 157.488 123.621 157.568 123.406C157.648 123.191 157.772 122.995 157.931 122.829C158.091 122.664 158.282 122.533 158.494 122.445C158.706 122.356 158.934 122.312 159.163 122.316C159.393 122.311 159.62 122.354 159.832 122.443C160.044 122.531 160.235 122.662 160.393 122.828C160.552 122.993 160.674 123.19 160.752 123.406C160.83 123.621 160.863 123.851 160.848 124.08C160.819 124.116 160.812 124.166 160.812 124.224ZM157.932 123.871H160.395C160.395 123.544 160.265 123.231 160.034 123C159.803 122.769 159.49 122.64 159.163 122.64C158.837 122.64 158.524 122.769 158.293 123C158.062 123.231 157.932 123.544 157.932 123.871Z" fill="#263238"/>
</g>
<path d="M84.852 252.801H84.168C84.168 251.786 85.0104 227.997 89.1504 224.001C93.4056 219.861 98.4096 223.944 98.4528 224.001L98.0208 224.52C97.8336 224.369 93.4344 220.797 89.6184 224.52C85.68 228.271 84.8592 252.557 84.852 252.801Z" fill="#ED8D34"/>
<path d="M84.5057 257.575L83.8289 257.51C83.8289 257.222 86.5073 228.624 76.1465 216.73L76.6577 216.283C87.2129 228.401 84.5345 257.287 84.5057 257.575Z" fill="#ED8D34"/>
<path d="M84.8372 254.522C84.7508 253.169 82.7564 221.402 90.7196 214.058L91.1804 214.562C83.4548 221.661 85.4924 254.162 85.514 254.472L84.8372 254.522Z" fill="#ED8D34"/>
<path d="M83.8292 254.501C83.8292 254.285 83.5844 232.901 77.918 229.682C77.4362 229.365 76.8852 229.168 76.3113 229.107C75.7374 229.047 75.1575 229.126 74.6204 229.337C71.3012 230.712 69.5372 237.048 69.5156 237.113L68.8604 236.933C68.9324 236.659 70.7324 230.215 74.3612 228.71C74.9933 228.456 75.6774 228.359 76.3554 228.425C77.0334 228.491 77.6855 228.72 78.2564 229.092C84.254 232.526 84.506 253.572 84.5132 254.494L83.8292 254.501Z" fill="#ED8D34"/>
<path d="M86.1616 254.515C86.1184 253.795 85.2472 237.639 89.8336 231.641C91.0576 230.05 92.4112 229.294 93.88 229.402C97.1416 229.625 99.64 234.046 99.7768 234.233L99.1864 234.571C99.1864 234.528 96.724 230.251 93.8296 230.079C92.6128 229.985 91.4464 230.655 90.3736 232.059C85.9384 237.819 86.8312 254.314 86.8384 254.479L86.1616 254.515Z" fill="#ED8D34"/>
<path d="M85.248 256.754L84.5712 256.704C84.5712 256.315 87.4512 217.737 82.6992 211.301L83.2464 210.897C88.1568 217.536 85.3704 255.156 85.248 256.754Z" fill="#ED8D34"/>
<path d="M73.0436 232.548C73.0436 232.548 75.9812 233.635 75.11 236.191C74.2388 238.747 64.9364 242.959 64.9364 242.959C64.9364 242.959 61.0412 239.395 64.6196 233.599C68.198 227.803 72.9644 230.719 73.0436 232.548Z" fill="#ED8D34"/>
<path opacity="0.2" d="M73.0436 232.548C73.0436 232.548 75.9812 233.635 75.11 236.191C74.2388 238.747 64.9364 242.959 64.9364 242.959C64.9364 242.959 61.0412 239.395 64.6196 233.599C68.198 227.803 72.9644 230.719 73.0436 232.548Z" fill="black"/>
<path d="M85.8232 227.681C85.8232 227.681 82.6913 227.551 82.5113 230.244C82.3313 232.937 89.2793 240.41 89.2793 240.41C89.2793 240.41 94.2473 238.61 93.1817 231.878C92.1161 225.146 86.6008 226.017 85.8232 227.681Z" fill="#ED8D34"/>
<path opacity="0.2" d="M85.8232 227.681C85.8232 227.681 82.6913 227.551 82.5113 230.244C82.3313 232.937 89.2793 240.41 89.2793 240.41C89.2793 240.41 94.2473 238.61 93.1817 231.878C92.1161 225.146 86.6008 226.017 85.8232 227.681Z" fill="black"/>
<path d="M88.4728 214.764C88.4728 214.764 86.3848 214.541 86.5504 213.274C86.716 212.007 94.6648 208.731 99.352 213.994C99.352 213.994 96.3496 219.149 92.0152 219.221C87.6808 219.293 88.4728 214.764 88.4728 214.764Z" fill="#ED8D34"/>
<path opacity="0.2" d="M88.4728 214.764C88.4728 214.764 86.3848 214.541 86.5504 213.274C86.716 212.007 94.6648 208.731 99.352 213.994C99.352 213.994 96.3496 219.149 92.0152 219.221C87.6808 219.293 88.4728 214.764 88.4728 214.764Z" fill="black"/>
<path d="M84.5852 211.675C84.5852 211.675 86.4716 212.59 87.0044 211.423C87.5372 210.257 82.5188 203.28 75.7436 205.289C75.7436 205.289 75.5636 211.25 79.2068 213.605C82.85 215.959 84.5852 211.675 84.5852 211.675Z" fill="#ED8D34"/>
<path opacity="0.2" d="M84.5852 211.675C84.5852 211.675 86.4716 212.59 87.0044 211.423C87.5372 210.257 82.5188 203.28 75.7436 205.289C75.7436 205.289 75.5636 211.25 79.2068 213.605C82.85 215.959 84.5852 211.675 84.5852 211.675Z" fill="black"/>
<path d="M94.4634 231.525C94.4634 231.525 93.0234 230.359 94.5786 229.79C96.1338 229.221 103.759 229.387 103.838 236.94C103.838 236.94 94.953 238.416 93.8586 235.536C92.7642 232.656 94.4634 231.525 94.4634 231.525Z" fill="#ED8D34"/>
<path opacity="0.2" d="M94.4634 231.525C94.4634 231.525 93.0234 230.359 94.5786 229.79C96.1338 229.221 103.759 229.387 103.838 236.94C103.838 236.94 94.953 238.416 93.8586 235.536C92.7642 232.656 94.4634 231.525 94.4634 231.525Z" fill="black"/>
<path d="M76.3197 214.577C76.3197 214.577 77.7597 213.41 76.2045 212.849C74.6493 212.287 67.0245 212.438 66.9453 219.991C66.9453 219.991 75.8301 221.474 76.9245 218.594C78.0189 215.714 76.3197 214.577 76.3197 214.577Z" fill="#ED8D34"/>
<path opacity="0.2" d="M76.3197 214.577C76.3197 214.577 77.7597 213.41 76.2045 212.849C74.6493 212.287 67.0245 212.438 66.9453 219.991C66.9453 219.991 75.8301 221.474 76.9245 218.594C78.0189 215.714 76.3197 214.577 76.3197 214.577Z" fill="black"/>
<path d="M81.0427 220.661C81.0427 220.661 81.1723 219.221 80.0275 219.804C78.8827 220.387 74.9155 224.65 79.0339 228.718C79.0339 228.718 84.5851 224.606 83.5843 222.468C82.5835 220.33 81.0427 220.661 81.0427 220.661Z" fill="#ED8D34"/>
<path opacity="0.2" d="M81.0427 220.661C81.0427 220.661 81.1723 219.221 80.0275 219.804C78.8827 220.387 74.9155 224.65 79.0339 228.718C79.0339 228.718 84.5851 224.606 83.5843 222.468C82.5835 220.33 81.0427 220.661 81.0427 220.661Z" fill="black"/>
<path d="M95.7595 222.677C95.7595 222.677 94.8955 221.547 96.1627 221.41C97.4299 221.273 103.075 222.778 101.757 228.423C101.757 228.423 94.8739 227.904 94.5571 225.543C94.2403 223.181 95.7595 222.677 95.7595 222.677Z" fill="#ED8D34"/>
<path opacity="0.2" d="M95.7595 222.677C95.7595 222.677 94.8955 221.547 96.1627 221.41C97.4299 221.273 103.075 222.778 101.757 228.423C101.757 228.423 94.8739 227.904 94.5571 225.543C94.2403 223.181 95.7595 222.677 95.7595 222.677Z" fill="black"/>
<path d="M73.5549 275.438H95.8101L98.7693 253.795H70.5957L73.5549 275.438Z" fill="#263238"/>
<path opacity="0.2" d="M73.5549 275.438H95.8101L98.7693 253.795H70.5957L73.5549 275.438Z" fill="white"/>
<path d="M101.563 252.038V254.097C101.563 254.758 101.3 255.392 100.833 255.859C100.366 256.326 99.7322 256.588 99.0715 256.588H70.0195C69.3588 256.588 68.7252 256.326 68.258 255.859C67.7908 255.392 67.5283 254.758 67.5283 254.097V252.038H101.563Z" fill="#263238"/>
<path d="M287.006 46.903H266.321C264.633 46.903 263.014 47.5736 261.82 48.7672C260.627 49.9608 259.956 51.5797 259.956 53.2678V71.2678C259.955 72.1042 260.119 72.9327 260.438 73.7057C260.758 74.4787 261.227 75.1812 261.818 75.773C262.409 76.3648 263.111 76.8343 263.883 77.1546C264.656 77.4749 265.484 77.6398 266.321 77.6398H272.362L270.922 83.3206L276.682 77.6398H287.042C288.732 77.6398 290.353 76.9684 291.548 75.7735C292.743 74.5785 293.414 72.9577 293.414 71.2678V53.2678C293.414 52.4283 293.248 51.5971 292.926 50.8221C292.603 50.047 292.131 49.3434 291.535 48.7518C290.939 48.1603 290.233 47.6923 289.455 47.375C288.678 47.0577 287.846 46.8973 287.006 46.903Z" fill="#ED8D34"/>
<path opacity="0.7" d="M287.006 46.903H266.321C264.633 46.903 263.014 47.5736 261.82 48.7672C260.627 49.9608 259.956 51.5797 259.956 53.2678V71.2678C259.955 72.1042 260.119 72.9327 260.438 73.7057C260.758 74.4787 261.227 75.1812 261.818 75.773C262.409 76.3648 263.111 76.8343 263.883 77.1546C264.656 77.4749 265.484 77.6398 266.321 77.6398H272.362L270.922 83.3206L276.682 77.6398H287.042C288.732 77.6398 290.353 76.9684 291.548 75.7735C292.743 74.5785 293.414 72.9577 293.414 71.2678V53.2678C293.414 52.4283 293.248 51.5971 292.926 50.8221C292.603 50.047 292.131 49.3434 291.535 48.7518C290.939 48.1603 290.233 47.6923 289.455 47.375C288.678 47.0577 287.846 46.8973 287.006 46.903Z" fill="white"/>
<path d="M276.668 70.224C281.101 70.224 284.696 66.6297 284.696 62.196C284.696 57.7622 281.101 54.168 276.668 54.168C272.234 54.168 268.64 57.7622 268.64 62.196C268.64 66.6297 272.234 70.224 276.668 70.224Z" fill="white"/>
<path d="M276.668 51.9287C274.637 51.9287 272.652 52.5309 270.963 53.659C269.275 54.7872 267.959 56.3907 267.182 58.2668C266.405 60.1429 266.202 62.2073 266.598 64.1989C266.994 66.1906 267.972 68.02 269.408 69.4559C270.843 70.8918 272.673 71.8697 274.665 72.2658C276.656 72.662 278.721 72.4587 280.597 71.6816C282.473 70.9045 284.076 69.5885 285.204 67.9001C286.333 66.2116 286.935 64.2266 286.935 62.1959C286.936 60.8473 286.671 59.5118 286.155 58.2657C285.64 57.0196 284.883 55.8874 283.93 54.9338C282.976 53.9802 281.844 53.224 280.598 52.7083C279.352 52.1927 278.016 51.9278 276.668 51.9287ZM282.492 59.1287L276.308 66.4151C276.22 66.5204 276.11 66.6048 275.985 66.6621C275.86 66.7194 275.725 66.7481 275.588 66.7463C275.451 66.7471 275.315 66.7179 275.191 66.6607C275.066 66.6035 274.956 66.5196 274.868 66.4151L270.843 61.6703C270.758 61.5765 270.692 61.4665 270.651 61.3469C270.609 61.2273 270.592 61.1006 270.601 60.9743C270.609 60.8479 270.643 60.7246 270.7 60.6115C270.757 60.4985 270.836 60.3982 270.933 60.3164C271.03 60.2347 271.142 60.1733 271.263 60.1358C271.384 60.0984 271.511 60.0857 271.637 60.0985C271.763 60.1113 271.885 60.1493 271.996 60.2103C272.107 60.2713 272.204 60.354 272.283 60.4535L275.588 64.3487L281.052 57.9119C281.217 57.7308 281.445 57.6205 281.689 57.6042C281.933 57.588 282.173 57.6671 282.36 57.8249C282.547 57.9827 282.665 58.2068 282.69 58.4501C282.714 58.6933 282.644 58.9366 282.492 59.1287Z" fill="#ED8D34"/>
<path d="M283.421 157.963C283.421 157.963 270.886 156.379 251.892 161.563C251.892 161.563 248.839 127.622 249.199 122.957C249.559 118.291 278.525 119.659 278.525 119.659C278.525 119.659 279.245 133.245 281.131 141.439C283.018 149.633 284.4 156.386 283.421 157.963Z" fill="#ED8D34"/>
<path opacity="0.2" d="M283.421 157.963C283.421 157.963 270.886 156.379 251.892 161.563C251.892 161.563 248.839 127.622 249.199 122.957C249.559 118.291 278.525 119.659 278.525 119.659C278.525 119.659 279.245 133.245 281.131 141.439C283.018 149.633 284.4 156.386 283.421 157.963Z" fill="black"/>
<path d="M242.733 270.326L247.845 271.774L249.062 263.818L249.717 259.562L244.605 258.115L243.734 263.818L242.733 270.326Z" fill="#E4897B"/>
<path d="M272.124 270.744L277.394 271.442L277.445 263.817L277.481 259.08L272.203 258.389L272.167 263.817L272.124 270.744Z" fill="#E4897B"/>
<path opacity="0.2" d="M272.203 258.389L272.167 263.817H277.445L277.481 259.08L272.203 258.389Z" fill="black"/>
<path opacity="0.2" d="M243.734 263.818H249.062L249.718 259.562L244.606 258.115L243.734 263.818Z" fill="black"/>
<path d="M220.039 125.743L214.963 124.246L215.892 130.042C215.892 130.042 220.5 131.1 220.932 128.702L220.039 125.743Z" fill="#E4897B"/>
<path d="M209.895 125.592L212.386 130.301L215.892 130.042L214.963 124.246L209.895 125.592Z" fill="#E4897B"/>
<path d="M227.045 127.226L218.707 125.361L217.951 129.408L225.518 131.251L227.045 127.226Z" fill="#E4897B"/>
<path d="M252.267 123.569L251.777 124.152C250.726 125.383 248.177 128.357 245.52 130.92C243.36 133.008 241.2 134.83 239.76 135.197C235.678 136.248 220.839 131.878 220.839 131.878L222.372 125.858C222.372 125.858 236.196 127.694 237.269 127.694C238.083 127.694 246.492 115.512 248.53 114.511L252.267 123.569Z" fill="#ED8D34"/>
<path opacity="0.2" d="M251.777 124.152C250.726 125.383 248.177 128.357 245.521 130.92C246.053 126.701 247.601 122.827 249.639 120.379C249.829 120.143 250.046 119.93 250.287 119.746L251.777 124.152Z" fill="black"/>
<path d="M242.799 269.527L248.602 269.376C248.707 269.372 248.809 269.405 248.893 269.468C248.977 269.53 249.037 269.62 249.063 269.721L250.287 274.394C250.316 274.506 250.32 274.623 250.297 274.736C250.275 274.85 250.228 274.957 250.159 275.05C250.09 275.142 250 275.218 249.898 275.272C249.795 275.325 249.682 275.355 249.567 275.359C247.472 275.359 244.44 275.359 241.812 275.409C238.731 275.496 236.772 275.345 233.172 275.409C231.012 275.467 230.292 273.293 231.214 273.069C235.34 272.047 238.039 272.249 241.553 269.945C241.924 269.697 242.354 269.553 242.799 269.527Z" fill="#263238"/>
<path d="M242.295 270.276C241.445 270.463 239.933 270.715 239.328 270.218C239.24 270.145 239.171 270.052 239.126 269.947C239.081 269.842 239.061 269.727 239.069 269.613C239.069 269.545 239.087 269.477 239.121 269.418C239.155 269.358 239.204 269.309 239.264 269.275C239.904 268.893 242.072 269.923 242.324 270.038C242.346 270.05 242.364 270.068 242.377 270.089C242.389 270.111 242.396 270.135 242.396 270.16C242.394 270.188 242.384 270.215 242.365 270.236C242.347 270.257 242.322 270.271 242.295 270.276ZM239.415 269.476H239.372C239.347 269.49 239.328 269.51 239.314 269.534C239.3 269.558 239.292 269.585 239.292 269.613C239.286 269.688 239.298 269.762 239.327 269.831C239.356 269.9 239.401 269.961 239.458 270.009C239.796 270.29 240.675 270.319 241.841 270.088C240.999 269.736 239.825 269.325 239.429 269.476H239.415Z" fill="#ED8D34"/>
<path d="M242.294 270.276H242.208C241.553 270.002 240.242 268.893 240.314 268.296C240.314 268.152 240.43 267.972 240.775 267.929C240.902 267.912 241.031 267.921 241.155 267.954C241.278 267.987 241.394 268.045 241.495 268.123C242.215 268.663 242.381 270.081 242.395 270.139C242.397 270.161 242.394 270.183 242.385 270.203C242.376 270.223 242.362 270.241 242.345 270.254L242.294 270.276ZM240.682 268.209C240.574 268.245 240.566 268.303 240.566 268.325C240.523 268.685 241.416 269.563 242.086 269.937C242.008 269.333 241.741 268.768 241.322 268.325C241.251 268.265 241.168 268.221 241.079 268.196C240.989 268.171 240.896 268.166 240.804 268.181C240.762 268.184 240.721 268.194 240.682 268.209Z" fill="#ED8D34"/>
<path d="M272.333 269.527L278.136 269.376C278.242 269.372 278.346 269.404 278.431 269.467C278.516 269.53 278.577 269.619 278.604 269.721L279.821 274.394C279.852 274.506 279.857 274.624 279.835 274.738C279.814 274.852 279.766 274.959 279.697 275.052C279.627 275.145 279.538 275.221 279.434 275.275C279.331 275.328 279.217 275.357 279.101 275.359C277.006 275.359 273.975 275.359 271.34 275.409C268.265 275.496 266.3 275.345 262.7 275.409C260.54 275.467 259.82 273.293 260.741 273.069C264.867 272.047 267.56 272.249 271.073 269.945C271.448 269.695 271.883 269.551 272.333 269.527Z" fill="#263238"/>
<path d="M271.836 270.276C270.986 270.463 269.467 270.715 268.869 270.218C268.781 270.145 268.712 270.052 268.667 269.947C268.622 269.842 268.602 269.727 268.61 269.613C268.61 269.545 268.628 269.477 268.662 269.418C268.696 269.358 268.745 269.309 268.805 269.275C269.438 268.893 271.613 269.923 271.857 270.038C271.881 270.047 271.901 270.065 271.914 270.087C271.927 270.109 271.933 270.135 271.929 270.16C271.927 270.187 271.917 270.212 271.901 270.233C271.884 270.253 271.861 270.268 271.836 270.276ZM268.956 269.476H268.913C268.889 269.49 268.869 269.51 268.857 269.534C268.844 269.559 268.838 269.586 268.841 269.613C268.833 269.688 268.845 269.763 268.874 269.832C268.902 269.901 268.948 269.962 269.006 270.009C269.345 270.29 270.216 270.319 271.389 270.088C270.533 269.736 269.359 269.325 268.963 269.476H268.956Z" fill="#ED8D34"/>
<path d="M271.836 270.276H271.742C271.094 270.002 269.777 268.894 269.856 268.296C269.856 268.152 269.964 267.972 270.31 267.929C270.436 267.911 270.566 267.92 270.689 267.953C270.813 267.986 270.929 268.044 271.03 268.123C271.533 268.684 271.848 269.39 271.93 270.139C271.933 270.161 271.93 270.184 271.921 270.204C271.913 270.225 271.898 270.242 271.879 270.254L271.836 270.276ZM270.216 268.21C270.115 268.246 270.108 268.303 270.108 268.325C270.058 268.685 270.958 269.563 271.627 269.938C271.545 269.334 271.278 268.771 270.864 268.325C270.793 268.265 270.71 268.222 270.62 268.197C270.531 268.172 270.437 268.167 270.346 268.181L270.216 268.21Z" fill="#ED8D34"/>
<path d="M282.996 154.867C285.789 166.97 280.994 262.19 280.994 262.19H271.735L267.775 182.839L253.195 262.19L243.295 261.47C249.775 199.997 255.485 163.298 255.485 163.298V158.662L282.996 154.867Z" fill="#263238"/>
<path opacity="0.4" d="M243.295 261.47L253.195 262.19L264.672 199.723L267.775 182.839L271.735 262.19H280.994C280.994 262.19 285.789 166.97 282.996 154.867L255.47 158.662V163.298C255.47 163.298 249.768 199.997 243.295 261.47Z" fill="white"/>
<path d="M278.006 110.04C277.722 115.827 277.869 121.627 278.445 127.392C278.834 131.424 279.367 135.233 279.936 138.667C281.268 146.724 282.78 152.765 282.996 154.874L255.47 158.669C245.433 130.589 249.213 114.274 249.213 114.274C251.271 113.424 253.38 112.702 255.528 112.114C255.981 111.991 256.442 111.876 256.917 111.768C260.783 111.007 264.69 110.469 268.617 110.155C269.337 110.09 270.122 110.04 270.857 110.004C274.615 109.817 278.006 110.04 278.006 110.04Z" fill="#263238"/>
<path d="M263.275 97.4038C263.477 101.256 263.887 108.485 267.091 110.321C267.091 110.321 265.097 114.115 260.784 114.504C257.522 114.792 257.738 111.573 257.738 111.573C259.625 110.169 259.178 107.786 257.738 105.093L263.275 97.4038Z" fill="#E4897B"/>
<path opacity="0.2" d="M261.014 100.543L257.76 105.093C258.102 105.716 258.391 106.366 258.624 107.037C260.136 106.433 261.871 104.157 261.619 102.509C261.54 101.822 261.335 101.155 261.014 100.543Z" fill="black"/>
<path d="M249.236 89.6493C248.609 91.6509 248.955 95.7549 251.741 94.4229C254.528 93.0909 250.316 86.2149 249.236 89.6493Z" fill="#263238"/>
<path d="M263.636 92.3565C263.945 97.4901 264.356 100.478 262.116 103.387C258.711 107.757 252.116 106.13 250.272 101.176C248.616 96.7125 248.393 89.0661 253.152 86.4741C254.207 85.9001 255.391 85.6031 256.592 85.611C257.793 85.6188 258.972 85.9312 260.019 86.5189C261.067 87.1066 261.948 87.9504 262.58 88.9713C263.213 89.9923 263.576 91.157 263.636 92.3565Z" fill="#E4897B"/>
<path d="M260.035 89.5627V83.8027C260.035 83.8027 266.141 83.3492 265.867 86.474C269.251 88.1516 267.653 93.4148 263.11 95.9924C260.618 93.998 260.906 89.2027 260.906 89.2027C260.64 89.3395 260.338 89.4547 260.035 89.5627Z" fill="#263238"/>
<path d="M266.119 96.3596C266.001 96.9876 265.759 97.5857 265.407 98.1187C265.054 98.6516 264.599 99.1087 264.067 99.4628C262.627 100.406 261.381 99.2468 261.331 97.6268C261.288 96.1868 261.972 93.9116 263.628 93.6236C263.99 93.5672 264.361 93.6014 264.706 93.7232C265.052 93.845 265.362 94.0507 265.609 94.3218C265.856 94.5928 266.032 94.9209 266.121 95.2765C266.21 95.6321 266.209 96.0043 266.119 96.3596Z" fill="#E4897B"/>
<path d="M256.053 94.6462C256.104 95.0638 255.924 95.4238 255.65 95.4526C255.377 95.4814 255.117 95.1718 255.067 94.7326C255.017 94.2934 255.197 93.955 255.463 93.9262C255.729 93.8974 256.003 94.1998 256.053 94.6462Z" fill="#263238"/>
<path d="M251.344 95.1719C251.395 95.5895 251.215 95.9495 250.941 95.9783C250.668 96.0071 250.408 95.6975 250.358 95.2583C250.308 94.8191 250.488 94.4807 250.761 94.4519C251.035 94.4231 251.28 94.7543 251.344 95.1719Z" fill="#263238"/>
<path d="M252.864 95.208C252.501 96.4955 251.96 97.7264 251.259 98.8656C251.569 99.0252 251.91 99.1173 252.259 99.1359C252.608 99.1546 252.956 99.0992 253.282 98.9736L252.864 95.208Z" fill="#DE5753"/>
<path d="M255.708 100.313C255.531 100.358 255.35 100.392 255.168 100.414C255.136 100.414 255.105 100.401 255.082 100.378C255.059 100.355 255.046 100.324 255.046 100.291C255.046 100.259 255.059 100.228 255.082 100.205C255.105 100.182 255.136 100.169 255.168 100.169C255.685 100.122 256.184 99.9541 256.624 99.679C257.065 99.4038 257.434 99.029 257.703 98.5848C257.709 98.5703 257.718 98.5571 257.729 98.5463C257.741 98.5354 257.755 98.527 257.769 98.5216C257.784 98.5162 257.8 98.5139 257.816 98.5149C257.832 98.5158 257.847 98.52 257.861 98.5272C257.876 98.5342 257.889 98.544 257.9 98.5561C257.911 98.5682 257.919 98.5824 257.925 98.5979C257.93 98.6133 257.932 98.6297 257.931 98.646C257.93 98.6623 257.926 98.6782 257.919 98.6928C257.683 99.1018 257.365 99.4571 256.984 99.7361C256.604 100.015 256.169 100.211 255.708 100.313Z" fill="#263238"/>
<path d="M257.321 92.9688C257.277 92.9789 257.232 92.9776 257.189 92.965C257.146 92.9524 257.107 92.9289 257.076 92.8968C256.867 92.6683 256.609 92.4915 256.32 92.3803C256.031 92.2691 255.721 92.2265 255.413 92.256C255.381 92.2633 255.348 92.264 255.316 92.2581C255.284 92.2521 255.254 92.2396 255.227 92.2214C255.2 92.2032 255.177 92.1796 255.159 92.1521C255.142 92.1246 255.13 92.0938 255.125 92.0616C255.118 92.0299 255.119 91.9973 255.125 91.9657C255.131 91.934 255.144 91.9039 255.162 91.8771C255.18 91.8504 255.203 91.8274 255.23 91.8097C255.257 91.7919 255.287 91.7797 255.319 91.7736C255.708 91.7273 256.102 91.7744 256.469 91.9109C256.836 92.0474 257.165 92.2693 257.429 92.5584C257.452 92.5806 257.471 92.6074 257.484 92.6371C257.497 92.6668 257.503 92.6989 257.503 92.7312C257.503 92.7636 257.497 92.7956 257.484 92.8253C257.471 92.855 257.452 92.8818 257.429 92.904C257.398 92.9333 257.361 92.9554 257.321 92.9688Z" fill="#263238"/>
<path d="M249.121 93.782C249.074 93.7997 249.023 93.7997 248.977 93.782C248.916 93.7607 248.866 93.7163 248.837 93.6583C248.809 93.6003 248.805 93.5335 248.825 93.4724C248.944 93.1018 249.151 92.7655 249.428 92.4921C249.705 92.2188 250.044 92.0166 250.417 91.9028C250.48 91.8865 250.547 91.896 250.603 91.9291C250.659 91.9622 250.699 92.0162 250.715 92.0792C250.732 92.1422 250.722 92.2091 250.689 92.2651C250.656 92.3211 250.602 92.3617 250.539 92.378C250.245 92.4687 249.977 92.6304 249.76 92.8489C249.543 93.0673 249.382 93.3359 249.293 93.6308C249.28 93.6685 249.257 93.7022 249.227 93.7286C249.196 93.7551 249.16 93.7734 249.121 93.782Z" fill="#263238"/>
<path d="M262.742 91.6942C262.742 91.6942 259.142 90.3766 257.501 88.2886C257.501 88.2886 254.232 89.1454 253.562 90.4486C253.257 90.1869 253.059 89.8214 253.007 89.4225C252.955 89.0236 253.053 88.6197 253.281 88.2886C253.281 88.2886 250.833 88.807 250.351 90.4486C249.953 90.2592 249.626 89.9472 249.419 89.5584C249.212 89.1696 249.135 88.7245 249.199 88.2886C249.199 88.2886 248.112 88.699 247.759 90.4486C247.759 90.4486 245.059 84.8182 253.98 83.2054C253.305 82.9763 252.597 82.8572 251.885 82.8526C251.885 82.8526 258.113 80.3398 263.045 82.6366C267.977 84.9334 267.12 89.383 262.742 91.6942Z" fill="#263238"/>
<path d="M285.12 159.72L276.48 160.872C276.48 160.872 272.916 135.967 271.347 127.925V110.76L275.861 109.572L279.36 110.76C280.32 114.213 281.058 117.724 281.571 121.272C281.995 123.965 282.377 126.845 282.715 129.761C283.183 133.735 283.572 137.781 283.903 141.569C284.422 147.681 284.767 153.089 284.955 156.393C285.063 158.467 285.12 159.72 285.12 159.72Z" fill="#ED8D34"/>
<path d="M271.353 127.91C271.353 127.91 272.073 115.793 275.868 109.543C275.868 109.543 275.774 107.757 275.018 107.469C274.262 107.181 271.353 108.909 271.353 108.909C271.353 108.909 269.546 107.671 269.15 108.247C268.754 108.823 267.789 112.653 271.353 127.91Z" fill="#ED8D34"/>
<path opacity="0.7" d="M271.353 127.91C271.353 127.91 272.073 115.793 275.868 109.543C275.868 109.543 275.774 107.757 275.018 107.469C274.262 107.181 271.353 108.909 271.353 108.909C271.353 108.909 269.546 107.671 269.15 108.247C268.754 108.823 267.789 112.653 271.353 127.91Z" fill="white"/>
<path d="M251.712 163.039L252.698 163.759C252.698 163.759 251.258 155.731 251.849 135.427C251.849 134.448 251.914 133.504 251.95 132.604C252.67 115.425 255.348 112.3 255.55 112.113L253.058 112.963L248.544 114.518C247.183 129.17 251.712 163.039 251.712 163.039Z" fill="#ED8D34"/>
<path d="M252.101 129.646C252.101 129.646 249.61 117.866 250.352 113.806C251.093 109.745 253.75 111.552 253.75 111.552C253.75 111.552 256.191 109.579 256.918 111.754C256.918 111.754 253.563 114.115 252.101 129.646Z" fill="#ED8D34"/>
<path opacity="0.7" d="M252.101 129.646C252.101 129.646 249.61 117.866 250.352 113.806C251.093 109.745 253.75 111.552 253.75 111.552C253.75 111.552 256.191 109.579 256.918 111.754C256.918 111.754 253.563 114.115 252.101 129.646Z" fill="white"/>
<path opacity="0.2" d="M282.701 129.732C279.015 127.666 278.525 122.273 278.525 122.273C278.749 122.186 280.117 121.718 281.557 121.243C281.981 123.936 282.363 126.816 282.701 129.732Z" fill="black"/>
<path opacity="0.2" d="M264.672 199.723L267.775 182.839L267.178 173.904C267.178 173.904 262.922 189.398 264.672 199.723Z" fill="black"/>
<path opacity="0.2" d="M284.94 156.364C282.621 156.206 280.62 156.055 280.62 156.055L280.181 146.63C280.903 146.178 281.771 146.018 282.607 146.184C283.177 144.678 283.608 143.123 283.896 141.54C284.4 147.652 284.753 153.067 284.94 156.364Z" fill="black"/>
<path d="M285.732 141.533L281.218 148.783L284.789 150.835L289.03 144.305L285.732 141.533Z" fill="#E4897B"/>
<path d="M279.166 110.645C282.204 110.976 295.121 128.702 295.69 134.045C296.259 139.387 288.101 148.61 288.101 148.61L282.658 145.406C282.658 145.406 288.188 136.903 288.476 134.606C288.764 132.309 278.36 123.029 278.36 123.029C277.573 120.891 277.14 118.639 277.078 116.361C276.934 112.459 279.166 110.645 279.166 110.645Z" fill="#ED8D34"/>
<path d="M280.174 146.637C280.174 146.637 284.818 147.631 286.69 150.554C286.69 150.554 284.746 156.638 283.356 157.3C281.966 157.963 278.525 157.963 278.525 157.963C278.525 157.963 278.302 151.195 280.174 146.637Z" fill="#ED8D34"/>
</svg>
