<svg width="320" height="284" viewBox="0 0 320 284" fill="none" xmlns="http://www.w3.org/2000/svg">
<path d="M319.637 254.456H0.363281V254.616H319.637V254.456Z" fill="#E0E0E0"/>
<path d="M242.584 260.343H220.618V260.503H242.584V260.343Z" fill="#E0E0E0"/>
<path d="M268.425 259.89H256.063V260.049H268.425V259.89Z" fill="#E0E0E0"/>
<path d="M158.302 260.267H141.904V260.426H158.302V260.267Z" fill="#E0E0E0"/>
<path d="M170.147 262.534H158.947V262.693H170.147V262.534Z" fill="#E0E0E0"/>
<path d="M92.7424 258.651H58.9058V258.811H92.7424V258.651Z" fill="#E0E0E0"/>
<path d="M151.699 225.977H28.4019C27.436 225.975 26.5103 225.59 25.8279 224.906C25.1455 224.223 24.7622 223.296 24.7622 222.331V49.0097C24.7706 48.0493 25.1576 47.1311 25.8391 46.4544C26.5206 45.7777 27.4415 45.3972 28.4019 45.3955H151.699C152.666 45.3955 153.593 45.7796 154.277 46.4634C154.961 47.1472 155.345 48.0746 155.345 49.0416V222.331C155.345 223.298 154.961 224.225 154.277 224.909C153.593 225.592 152.666 225.977 151.699 225.977ZM28.4019 45.5232C27.4784 45.5249 26.5932 45.893 25.9407 46.5466C25.2883 47.2003 24.9218 48.0861 24.9218 49.0097V222.331C24.9218 223.254 25.2883 224.14 25.9407 224.794C26.5932 225.447 27.4784 225.815 28.4019 225.817H151.699C152.623 225.815 153.509 225.447 154.162 224.794C154.816 224.14 155.184 223.255 155.185 222.331V49.0097C155.184 48.0855 154.816 47.1997 154.162 46.5462C153.509 45.8928 152.623 45.5249 151.699 45.5232H28.4019Z" fill="#E0E0E0"/>
<path d="M289.824 225.977H166.52C165.554 225.975 164.627 225.59 163.944 224.907C163.26 224.223 162.876 223.297 162.874 222.331V49.0097C162.884 48.0487 163.272 47.1305 163.955 46.454C164.638 45.7774 165.559 45.3971 166.52 45.3955H289.824C290.783 45.3988 291.702 45.7801 292.382 46.4566C293.062 47.1331 293.449 48.0504 293.457 49.0097V222.331C293.457 223.295 293.075 224.221 292.393 224.904C291.712 225.588 290.788 225.973 289.824 225.977ZM166.52 45.5232C165.596 45.5249 164.71 45.8928 164.057 46.5462C163.403 47.1997 163.035 48.0855 163.034 49.0097V222.331C163.035 223.255 163.403 224.14 164.057 224.794C164.71 225.447 165.596 225.815 166.52 225.817H289.824C290.748 225.815 291.634 225.447 292.287 224.794C292.94 224.14 293.308 223.255 293.31 222.331V49.0097C293.308 48.0855 292.94 47.1997 292.287 46.5462C291.634 45.8928 290.748 45.5249 289.824 45.5232H166.52Z" fill="#E0E0E0"/>
<path d="M277.512 60.8931H181.283V143.623H277.512V60.8931Z" fill="#E0E0E0"/>
<path d="M279.651 60.8931H183.422V143.623H279.651V60.8931Z" fill="#F0F0F0"/>
<path d="M275.813 139.741V64.7754H187.26V139.741H275.813Z" fill="#FAFAFA"/>
<path d="M247.513 139.741V64.7754H241.727V139.741H247.513Z" fill="#E0E0E0"/>
<path d="M217.08 139.741V64.7754H211.295V139.741H217.08Z" fill="#E0E0E0"/>
<path d="M249.55 142.199V61.8823H243.765V142.199H249.55Z" fill="#F0F0F0"/>
<path d="M219.11 142.206V61.8892H213.325V142.206H219.11Z" fill="#F0F0F0"/>
<path d="M275.813 139.734V64.769H274.198V139.734H275.813Z" fill="#E0E0E0"/>
<path d="M113.603 126.229C113.603 126.229 101.892 106.058 118.143 89.9727C118.143 89.9727 122.383 92.7376 122.319 96.4539C122.256 100.17 117.773 101.109 118.737 104.212C119.701 107.316 123.922 110.349 121.151 112.916C118.38 115.483 121.598 117.756 121.413 120.897C121.228 124.039 113.603 126.229 113.603 126.229Z" fill="#E0E0E0"/>
<path d="M115.443 129.53C115.443 129.53 120.193 106.683 99.7088 96.5557C99.7088 96.5557 96.5544 100.515 97.7932 104.02C99.032 107.526 103.572 107.002 103.636 110.253C103.7 113.503 100.654 117.717 104.089 119.275C107.525 120.833 105.194 124.013 106.362 126.938C107.531 129.862 115.443 129.53 115.443 129.53Z" fill="#E6E6E6"/>
<path d="M105.015 123.726C105.015 123.726 105.219 143.45 113.105 143.45C120.991 143.45 121.189 123.726 121.189 123.726H105.015Z" fill="#F0F0F0"/>
<path d="M57.6343 136.031C57.6343 136.031 58.0749 143.451 74.9134 143.451C91.7519 143.451 92.1988 136.031 92.1988 136.031H57.6343Z" fill="#E6E6E6"/>
<path d="M235.157 180.768H226.269C225.161 180.768 224.264 181.665 224.264 182.773V197.472C224.264 198.579 225.161 199.477 226.269 199.477H235.157C236.265 199.477 237.162 198.579 237.162 197.472V182.773C237.162 181.665 236.265 180.768 235.157 180.768Z" fill="#F0F0F0"/>
<path d="M258.732 186.885H252.749C252.005 186.885 251.401 187.488 251.401 188.232V198.13C251.401 198.874 252.005 199.477 252.749 199.477H258.732C259.476 199.477 260.079 198.874 260.079 198.13V188.232C260.079 187.488 259.476 186.885 258.732 186.885Z" fill="#E6E6E6"/>
<path d="M259.626 185.665H251.855C251.604 185.665 251.401 185.868 251.401 186.118V186.629C251.401 186.88 251.604 187.083 251.855 187.083H259.626C259.876 187.083 260.079 186.88 260.079 186.629V186.118C260.079 185.868 259.876 185.665 259.626 185.665Z" fill="#F0F0F0"/>
<path d="M203.689 189.068C203.689 189.068 204.009 199.477 216.199 199.477C228.388 199.477 228.714 189.068 228.714 189.068H203.689Z" fill="#E6E6E6"/>
<path d="M173.371 175.321H191.819V171.681H173.371V175.321Z" fill="#E0E0E0"/>
<path d="M283.533 171.687H191.819V175.327H283.533V171.687Z" fill="#F0F0F0"/>
<path d="M173.371 203.117H191.819V199.477H173.371V203.117Z" fill="#E0E0E0"/>
<path d="M283.533 199.477H191.819V203.116H283.533V199.477Z" fill="#F0F0F0"/>
<path d="M180.018 175.321H176.615V254.45H180.018V175.321Z" fill="#E0E0E0"/>
<path d="M195.222 175.321H191.819V254.45H195.222V175.321Z" fill="#F0F0F0"/>
<path d="M271.733 175.321H268.33V254.45H271.733V175.321Z" fill="#E0E0E0"/>
<path d="M283.533 175.321H280.13V254.45H283.533V175.321Z" fill="#F0F0F0"/>
<path d="M57.6341 148.08H40.189V249.667H57.6341V148.08Z" fill="#E6E6E6"/>
<path d="M129.567 249.66H43.542V254.456H129.567V249.66Z" fill="#E6E6E6"/>
<path d="M57.6348 249.66H132.913V148.074H57.6348L57.6348 249.66Z" fill="#F0F0F0"/>
<path d="M64.4924 211.277H126.055V186.463H64.4924V211.277Z" fill="#E6E6E6"/>
<path d="M64.4924 240.612H126.055V215.798H64.4924V240.612Z" fill="#E6E6E6"/>
<path d="M102.186 189.184H88.3616C87.9117 189.182 87.4806 189.003 87.1624 188.684C86.8443 188.366 86.6648 187.935 86.6631 187.485C86.6631 187.034 86.8418 186.601 87.1602 186.282C87.4785 185.962 87.9106 185.782 88.3616 185.78H102.186C102.637 185.782 103.069 185.962 103.388 186.282C103.706 186.601 103.885 187.034 103.885 187.485C103.883 187.935 103.704 188.366 103.385 188.684C103.067 189.003 102.636 189.182 102.186 189.184Z" fill="#F0F0F0"/>
<path d="M64.4924 181.936H126.055V157.122H64.4924V181.936Z" fill="#E6E6E6"/>
<path d="M102.186 159.849H88.3616C87.9106 159.847 87.4785 159.667 87.1602 159.347C86.8418 159.028 86.6631 158.595 86.6631 158.144C86.6648 157.694 86.8443 157.263 87.1624 156.945C87.4806 156.626 87.9117 156.447 88.3616 156.445H102.186C102.636 156.447 103.067 156.626 103.385 156.945C103.704 157.263 103.883 157.694 103.885 158.144C103.885 158.595 103.706 159.028 103.388 159.347C103.069 159.667 102.637 159.847 102.186 159.849Z" fill="#F0F0F0"/>
<path d="M102.186 218.518H88.3616C87.9117 218.517 87.4806 218.337 87.1624 218.019C86.8443 217.701 86.6648 217.27 86.6631 216.82C86.6631 216.369 86.8418 215.936 87.1602 215.616C87.4785 215.297 87.9106 215.116 88.3616 215.115H102.186C102.637 215.116 103.069 215.297 103.388 215.616C103.706 215.936 103.885 216.369 103.885 216.82C103.883 217.27 103.704 217.701 103.385 218.019C103.067 218.337 102.636 218.517 102.186 218.518Z" fill="#F0F0F0"/>
<path d="M135.237 143.451H57.6343V148.08H135.237V143.451Z" fill="#E6E6E6"/>
<path d="M37.7499 148.074H57.6343V143.444H37.7499V148.074Z" fill="#E0E0E0"/>
<path d="M77.0783 64.7754H48.8545V95.7705H77.0783V64.7754Z" fill="#E6E6E6"/>
<path d="M80.1365 64.7754H50.9805V95.7705H80.1365V64.7754Z" fill="#F0F0F0"/>
<path d="M77.6914 93.325V67.2148H53.4202V93.325H77.6914Z" fill="#FAFAFA"/>
<path d="M71.8105 86.9967V73.5425H59.3078V86.9967H71.8105Z" fill="#F0F0F0"/>
<path d="M106.835 55.625H85.4307V78.6191H106.835V55.625Z" fill="#E6E6E6"/>
<path d="M109.108 55.625H87.4805V78.6191H109.108V55.625Z" fill="#F0F0F0"/>
<path d="M107.294 76.8051V57.438H89.2938V76.8051H107.294Z" fill="#FAFAFA"/>
<path d="M98.2909 62.2217L93.3677 70.7527H103.214L98.2909 62.2217Z" fill="#F0F0F0"/>
<path d="M160 283.293C228.377 283.293 283.808 280.056 283.808 276.064C283.808 272.072 228.377 268.836 160 268.836C91.6231 268.836 36.1924 272.072 36.1924 276.064C36.1924 280.056 91.6231 283.293 160 283.293Z" fill="#F5F5F5"/>
<path d="M268.425 103.389H205.784C202.48 103.389 199.801 106.067 199.801 109.372V126.408C199.801 129.713 202.48 132.391 205.784 132.391H268.425C271.73 132.391 274.409 129.713 274.409 126.408V109.372C274.409 106.067 271.73 103.389 268.425 103.389Z" fill="#ED8D34"/>
<path d="M255.999 108.28H207.067C206.489 108.28 206.02 108.749 206.02 109.327V110.476C206.02 111.055 206.489 111.524 207.067 111.524H255.999C256.577 111.524 257.046 111.055 257.046 110.476V109.327C257.046 108.749 256.577 108.28 255.999 108.28Z" fill="#ED8D34"/>
<path d="M240.502 116.096H207.067C206.489 116.096 206.02 116.565 206.02 117.143V118.292C206.02 118.871 206.489 119.34 207.067 119.34H240.502C241.08 119.34 241.549 118.871 241.549 118.292V117.143C241.549 116.565 241.08 116.096 240.502 116.096Z" fill="#ED8D34"/>
<path d="M231.536 123.912H207.067C206.489 123.912 206.02 124.38 206.02 124.959V126.108C206.02 126.687 206.489 127.155 207.067 127.155H231.536C232.115 127.155 232.584 126.687 232.584 126.108V124.959C232.584 124.38 232.115 123.912 231.536 123.912Z" fill="#ED8D34"/>
<path d="M261.861 123.912H237.392C236.814 123.912 236.345 124.38 236.345 124.959V126.108C236.345 126.687 236.814 127.155 237.392 127.155H261.861C262.439 127.155 262.908 126.687 262.908 126.108V124.959C262.908 124.38 262.439 123.912 261.861 123.912Z" fill="#ED8D34"/>
<g opacity="0.5">
<path opacity="0.5" d="M255.999 108.28H207.067C206.488 108.28 206.02 108.749 206.02 109.327V110.477C206.02 111.055 206.488 111.524 207.067 111.524H255.999C256.577 111.524 257.046 111.055 257.046 110.477V109.327C257.046 108.749 256.577 108.28 255.999 108.28Z" fill="white"/>
<path opacity="0.5" d="M240.501 116.096H207.067C206.488 116.096 206.02 116.565 206.02 117.143V118.293C206.02 118.871 206.488 119.34 207.067 119.34H240.501C241.079 119.34 241.548 118.871 241.548 118.293V117.143C241.548 116.565 241.079 116.096 240.501 116.096Z" fill="white"/>
<path opacity="0.5" d="M231.536 123.912H207.067C206.488 123.912 206.02 124.38 206.02 124.959V126.108C206.02 126.687 206.488 127.155 207.067 127.155H231.536C232.114 127.155 232.583 126.687 232.583 126.108V124.959C232.583 124.38 232.114 123.912 231.536 123.912Z" fill="white"/>
<path opacity="0.5" d="M261.861 123.912H237.391C236.813 123.912 236.344 124.38 236.344 124.959V126.108C236.344 126.687 236.813 127.155 237.391 127.155H261.861C262.439 127.155 262.908 126.687 262.908 126.108V124.959C262.908 124.38 262.439 123.912 261.861 123.912Z" fill="white"/>
</g>
<path d="M218.248 96.6265H147.146C142.3 96.6265 138.372 100.555 138.372 105.4V130.38C138.372 135.226 142.3 139.154 147.146 139.154H218.248C223.093 139.154 227.022 135.226 227.022 130.38V105.4C227.022 100.555 223.093 96.6265 218.248 96.6265Z" fill="#ED8D34"/>
<path d="M220.764 103.797H149.03C148.18 103.797 147.491 104.486 147.491 105.336V107.016C147.491 107.866 148.18 108.555 149.03 108.555H220.764C221.614 108.555 222.303 107.866 222.303 107.016V105.336C222.303 104.486 221.614 103.797 220.764 103.797Z" fill="#ED8D34"/>
<path d="M198.038 115.26H149.03C148.18 115.26 147.491 115.949 147.491 116.799V118.478C147.491 119.328 148.18 120.017 149.03 120.017H198.038C198.888 120.017 199.577 119.328 199.577 118.478V116.799C199.577 115.949 198.888 115.26 198.038 115.26Z" fill="#ED8D34"/>
<path d="M184.897 126.721H149.03C148.18 126.721 147.491 127.41 147.491 128.26V129.939C147.491 130.789 148.18 131.478 149.03 131.478H184.897C185.747 131.478 186.436 130.789 186.436 129.939V128.26C186.436 127.41 185.747 126.721 184.897 126.721Z" fill="#ED8D34"/>
<path d="M223.376 126.721H193.492C192.642 126.721 191.953 127.41 191.953 128.26V129.939C191.953 130.789 192.642 131.478 193.492 131.478H223.376C224.225 131.478 224.914 130.789 224.914 129.939V128.26C224.914 127.41 224.225 126.721 223.376 126.721Z" fill="#ED8D34"/>
<g opacity="0.5">
<path opacity="0.5" d="M220.764 103.797H149.03C148.18 103.797 147.491 104.486 147.491 105.336V107.016C147.491 107.866 148.18 108.555 149.03 108.555H220.764C221.614 108.555 222.303 107.866 222.303 107.016V105.336C222.303 104.486 221.614 103.797 220.764 103.797Z" fill="white"/>
<path opacity="0.5" d="M198.039 115.259H149.03C148.18 115.259 147.491 115.948 147.491 116.798V118.478C147.491 119.327 148.18 120.016 149.03 120.016H198.039C198.889 120.016 199.577 119.327 199.577 118.478V116.798C199.577 115.948 198.889 115.259 198.039 115.259Z" fill="white"/>
<path opacity="0.5" d="M184.897 126.722H149.03C148.18 126.722 147.491 127.411 147.491 128.261V129.94C147.491 130.79 148.18 131.479 149.03 131.479H184.897C185.747 131.479 186.436 130.79 186.436 129.94V128.261C186.436 127.411 185.747 126.722 184.897 126.722Z" fill="white"/>
<path opacity="0.5" d="M223.377 126.722H193.493C192.643 126.722 191.954 127.411 191.954 128.261V129.94C191.954 130.79 192.643 131.479 193.493 131.479H223.377C224.226 131.479 224.915 130.79 224.915 129.94V128.261C224.915 127.411 224.226 126.722 223.377 126.722Z" fill="white"/>
</g>
<path d="M174.042 146.861H139.796C137.532 146.861 135.697 148.696 135.697 150.96V202.261C135.697 204.525 137.532 206.361 139.796 206.361H174.042C176.306 206.361 178.141 204.525 178.141 202.261V150.96C178.141 148.696 176.306 146.861 174.042 146.861Z" fill="#ED8D34"/>
<path opacity="0.4" d="M174.042 146.861H139.796C137.532 146.861 135.697 148.696 135.697 150.96V202.261C135.697 204.525 137.532 206.361 139.796 206.361H174.042C176.306 206.361 178.141 204.525 178.141 202.261V150.96C178.141 148.696 176.306 146.861 174.042 146.861Z" fill="#F3ECFF"/>
<path d="M172.471 153.067H141.361C140.945 153.067 140.607 153.405 140.607 153.821V154.951C140.607 155.367 140.945 155.705 141.361 155.705H172.471C172.887 155.705 173.224 155.367 173.224 154.951V153.821C173.224 153.405 172.887 153.067 172.471 153.067Z" fill="#FAFAFA"/>
<path d="M162.567 159.415H141.361C140.945 159.415 140.607 159.752 140.607 160.168V161.298C140.607 161.714 140.945 162.052 141.361 162.052H162.567C162.983 162.052 163.321 161.714 163.321 161.298V160.168C163.321 159.752 162.983 159.415 162.567 159.415Z" fill="#FAFAFA"/>
<path d="M172.471 165.768H141.361C140.945 165.768 140.607 166.105 140.607 166.522V167.652C140.607 168.068 140.945 168.405 141.361 168.405H172.471C172.887 168.405 173.224 168.068 173.224 167.652V166.522C173.224 166.105 172.887 165.768 172.471 165.768Z" fill="#FAFAFA"/>
<path d="M152.925 172.115H141.361C140.945 172.115 140.607 172.453 140.607 172.869V173.999C140.607 174.415 140.945 174.752 141.361 174.752H152.925C153.341 174.752 153.678 174.415 153.678 173.999V172.869C153.678 172.453 153.341 172.115 152.925 172.115Z" fill="#FAFAFA"/>
<path d="M169.105 172.115H157.541C157.125 172.115 156.788 172.453 156.788 172.869V173.999C156.788 174.415 157.125 174.752 157.541 174.752H169.105C169.521 174.752 169.859 174.415 169.859 173.999V172.869C169.859 172.453 169.521 172.115 169.105 172.115Z" fill="#FAFAFA"/>
<path d="M172.471 178.469H141.361C140.945 178.469 140.607 178.806 140.607 179.222V180.352C140.607 180.769 140.945 181.106 141.361 181.106H172.471C172.887 181.106 173.224 180.769 173.224 180.352V179.222C173.224 178.806 172.887 178.469 172.471 178.469Z" fill="#FAFAFA"/>
<path d="M172.471 184.816H141.361C140.945 184.816 140.607 185.153 140.607 185.569V186.7C140.607 187.116 140.945 187.453 141.361 187.453H172.471C172.887 187.453 173.224 187.116 173.224 186.7V185.569C173.224 185.153 172.887 184.816 172.471 184.816Z" fill="#FAFAFA"/>
<path d="M166.954 191.169H141.361C140.945 191.169 140.607 191.507 140.607 191.923V193.053C140.607 193.469 140.945 193.807 141.361 193.807H166.954C167.37 193.807 167.707 193.469 167.707 193.053V191.923C167.707 191.507 167.37 191.169 166.954 191.169Z" fill="#FAFAFA"/>
<path d="M153.302 197.517H141.361C140.945 197.517 140.607 197.854 140.607 198.27V199.4C140.607 199.816 140.945 200.154 141.361 200.154H153.302C153.718 200.154 154.055 199.816 154.055 199.4V198.27C154.055 197.854 153.718 197.517 153.302 197.517Z" fill="#FAFAFA"/>
<path d="M183.307 146.497H135.805L156.807 163.208L189.009 175.34V152.187C189.006 150.676 188.403 149.229 187.334 148.163C186.265 147.096 184.817 146.497 183.307 146.497Z" fill="#ED8D34"/>
<path opacity="0.4" d="M183.307 146.497H135.805L156.807 163.208L189.009 175.34V152.187C189.006 150.676 188.403 149.229 187.334 148.163C186.265 147.096 184.817 146.497 183.307 146.497Z" fill="#F3ECFF"/>
<path d="M181.231 155.104H146.475C145.953 155.104 145.53 155.528 145.53 156.05V157.812C145.53 158.334 145.953 158.757 146.475 158.757H181.231C181.753 158.757 182.177 158.334 182.177 157.812V156.05C182.177 155.528 181.753 155.104 181.231 155.104Z" fill="#FAFAFA"/>
<path d="M265.456 191.732V158.323C265.456 155.763 263.38 153.688 260.82 153.688H202.808C200.247 153.688 198.172 155.763 198.172 158.323V191.732C198.172 194.292 200.247 196.368 202.808 196.368H260.82C263.38 196.368 265.456 194.292 265.456 191.732Z" fill="#ED8D34"/>
<path d="M276.049 181.144V147.735C276.049 145.175 273.974 143.1 271.413 143.1H213.401C210.841 143.1 208.766 145.175 208.766 147.735V181.144C208.766 183.705 210.841 185.78 213.401 185.78H271.413C273.974 185.78 276.049 183.705 276.049 181.144Z" fill="#ED8D34"/>
<path opacity="0.5" d="M276.049 181.144V147.735C276.049 145.175 273.974 143.1 271.413 143.1H213.401C210.841 143.1 208.766 145.175 208.766 147.735V181.144C208.766 183.705 210.841 185.78 213.401 185.78H271.413C273.974 185.78 276.049 183.705 276.049 181.144Z" fill="white"/>
<path d="M270.163 169.696V149.128C270.163 147.989 269.239 147.065 268.1 147.065H249.142C248.003 147.065 247.079 147.989 247.079 149.128V169.696C247.079 170.835 248.003 171.758 249.142 171.758H268.1C269.239 171.758 270.163 170.835 270.163 169.696Z" fill="#ED8D34"/>
<path opacity="0.7" d="M270.163 169.696V149.128C270.163 147.989 269.239 147.065 268.1 147.065H249.142C248.003 147.065 247.079 147.989 247.079 149.128V169.696C247.079 170.835 248.003 171.758 249.142 171.758H268.1C269.239 171.758 270.163 170.835 270.163 169.696Z" fill="white"/>
<path d="M243.464 179.644V163.884C243.464 163.01 242.755 162.301 241.881 162.301H227.354C226.479 162.301 225.77 163.01 225.77 163.884V179.644C225.77 180.518 226.479 181.227 227.354 181.227H241.881C242.755 181.227 243.464 180.518 243.464 179.644Z" fill="#ED8D34"/>
<path opacity="0.3" d="M243.464 179.644V163.884C243.464 163.01 242.755 162.301 241.881 162.301H227.354C226.479 162.301 225.77 163.01 225.77 163.884V179.644C225.77 180.518 226.479 181.227 227.354 181.227H241.881C242.755 181.227 243.464 180.518 243.464 179.644Z" fill="white"/>
<path d="M234.614 79.7238V71.212C234.614 68.6094 232.504 66.4995 229.902 66.4995L74.0133 66.4995C71.4106 66.4995 69.3008 68.6094 69.3008 71.212V79.7238C69.3008 82.3265 71.4106 84.4363 74.0133 84.4363L229.902 84.4363C232.504 84.4363 234.614 82.3265 234.614 79.7238Z" fill="#ED8D34"/>
<path opacity="0.5" d="M234.614 79.7238V71.212C234.614 68.6094 232.504 66.4995 229.902 66.4995L74.0133 66.4995C71.4106 66.4995 69.3008 68.6094 69.3008 71.212V79.7238C69.3008 82.3265 71.4106 84.4363 74.0133 84.4363L229.902 84.4363C232.504 84.4363 234.614 82.3265 234.614 79.7238Z" fill="white"/>
<path d="M205.12 87.4375V81.2627H160.262V87.4375H205.12Z" fill="#ED8D34"/>
<path opacity="0.5" d="M205.12 87.4375V81.2627H160.262V87.4375H205.12Z" fill="white"/>
<path d="M250.699 53.2243V44.7125C250.699 42.1099 248.589 40 245.987 40L90.0982 40C87.4956 40 85.3858 42.1099 85.3858 44.7125V53.2243C85.3858 55.8269 87.4956 57.9368 90.0982 57.9368L245.987 57.9368C248.589 57.9368 250.699 55.8269 250.699 53.2243Z" fill="#ED8D34"/>
<path d="M83.6042 134.32C83.0422 135.597 82.4228 136.976 81.8801 138.324C81.3373 139.671 80.7754 141.057 80.2837 142.436C79.2749 145.125 78.466 147.884 77.8636 150.692L77.6784 151.714L77.6146 152.097C77.6146 152.206 77.6146 152.346 77.5763 152.474C77.552 153.096 77.5648 153.718 77.6146 154.338C77.7359 155.686 77.953 157.129 78.2531 158.572C78.7895 161.465 79.4728 164.447 80.1688 167.384L76.893 168.661C75.366 165.877 74.0656 162.975 73.0043 159.983C72.4451 158.426 71.9928 156.832 71.6506 155.213C71.4588 154.317 71.3392 153.408 71.293 152.493C71.293 152.238 71.293 151.995 71.293 151.72C71.293 151.446 71.293 151.139 71.3377 150.96L71.4654 149.683C71.6562 148.039 71.9483 146.407 72.3402 144.799C72.6978 143.202 73.1575 141.65 73.6173 140.118C74.077 138.585 74.6517 137.078 75.2583 135.597C75.5585 134.856 75.8969 134.122 76.1906 133.388C76.4844 132.653 76.8292 131.951 77.2378 131.166L83.6042 134.32Z" fill="#F3ECFF"/>
<path d="M79.9967 166.521L82.487 168.954L77.053 171.509C77.053 171.509 75.7376 169.203 76.6507 167.122L79.9967 166.521Z" fill="#F3ECFF"/>
<path d="M84.4982 172.575L79.907 174.452L77.0591 171.483L82.4867 168.954L84.4982 172.575Z" fill="#F3ECFF"/>
<path opacity="0.4" d="M177.503 169.957C168.468 168.942 159.937 165.272 152.987 159.41C146.038 153.547 140.983 145.756 138.461 137.021C135.939 128.287 136.064 119 138.819 110.336C141.574 101.672 146.836 94.0191 153.94 88.3452C161.044 82.6713 169.67 79.2309 178.729 78.459C187.788 77.6871 196.872 79.6184 204.834 84.0086C212.795 88.3989 219.276 95.051 223.457 103.124C227.639 111.197 229.332 120.329 228.325 129.364C227.655 135.367 225.809 141.18 222.892 146.469C219.976 151.759 216.045 156.422 211.325 160.192C206.605 163.961 201.189 166.764 195.386 168.44C189.582 170.115 183.505 170.631 177.503 169.957Z" fill="#FAFAFA"/>
<path opacity="0.4" d="M210.95 88.0442L141.029 143.911C140.735 143.272 140.448 142.634 140.18 141.995C138.427 137.826 137.306 133.418 136.853 128.918L197.247 80.6626C202.205 82.3165 206.841 84.8137 210.95 88.0442Z" fill="#FAFAFA"/>
<path opacity="0.4" d="M227.086 112.52L161.347 165.04C155.102 161.785 149.69 157.135 145.53 151.452L217.309 94.0977C221.936 99.4084 225.281 105.711 227.086 112.52Z" fill="#FAFAFA"/>
<path d="M130.876 106.696L130.269 106.492C131.32 103.392 132.64 100.39 134.215 97.5201L134.771 97.8267C133.216 100.664 131.913 103.632 130.876 106.696ZM138.628 91.7924L138.11 91.4156C143.358 84.32 150.226 78.5818 158.142 74.6793L158.429 75.254C150.603 79.1162 143.814 84.7931 138.628 91.8115V91.7924ZM208.606 76.1288C206.519 75.0096 204.361 74.0305 202.144 73.1979L202.374 72.5977C204.612 73.4498 206.792 74.4481 208.9 75.5861L208.606 76.1288Z" fill="#ED8D34"/>
<path opacity="0.3" d="M130.876 106.696L130.269 106.492C131.32 103.392 132.64 100.39 134.215 97.5201L134.771 97.8267C133.216 100.664 131.913 103.632 130.876 106.696ZM138.628 91.7924L138.11 91.4156C143.358 84.32 150.226 78.5818 158.142 74.6793L158.429 75.254C150.603 79.1162 143.814 84.7931 138.628 91.8115V91.7924ZM208.606 76.1288C206.519 75.0096 204.361 74.0305 202.144 73.1979L202.374 72.5977C204.612 73.4498 206.792 74.4481 208.9 75.5861L208.606 76.1288Z" fill="#F3ECFF"/>
<path d="M230.157 100.783C224.244 88.5199 213.839 79.0024 201.099 74.2035C188.359 69.4047 174.26 69.6925 161.727 75.0074C149.193 80.3222 139.185 90.2565 133.778 102.751C128.37 115.245 127.978 129.341 132.683 142.116C128.418 143.61 124.203 145.213 120.014 146.867C113.974 149.264 107.988 151.767 102.058 154.376C96.1326 157.001 90.2324 159.676 84.3897 162.473C81.4587 163.846 78.5661 165.295 75.648 166.7C74.1299 167.353 72.7545 168.296 71.5996 169.478C70.9746 170.132 70.4242 170.854 69.9585 171.63C69.3903 172.547 68.96 173.544 68.6814 174.586C68.2009 176.465 68.4087 178.454 69.2672 180.194C70.1257 181.933 71.5781 183.307 73.362 184.069C74.3525 184.484 75.3977 184.755 76.4653 184.873C77.367 184.975 78.2774 184.975 79.1791 184.873C80.8178 184.674 82.4015 184.156 83.8405 183.347C86.7331 181.885 89.6449 180.474 92.5184 178.973C98.2653 176.042 104.012 172.984 109.689 169.88C115.366 166.777 121.049 163.527 126.591 160.193C130.423 157.875 134.292 155.506 138.085 153.029C145.369 164.527 156.796 172.782 170.001 176.084C183.205 179.386 197.173 177.481 209.011 170.765C220.85 164.048 229.65 153.034 233.589 140.006C237.528 126.978 236.304 112.933 230.17 100.783H230.157ZM201.129 161.783C193.708 165.446 185.368 166.827 177.163 165.75C168.957 164.673 161.256 161.187 155.032 155.733C148.808 150.279 144.34 143.102 142.195 135.11C140.049 127.117 140.322 118.668 142.978 110.83C145.635 102.993 150.555 96.1186 157.118 91.0774C163.681 86.0362 171.591 83.0542 179.849 82.5085C188.106 81.9628 196.34 83.8778 203.509 88.0115C210.678 92.1452 216.461 98.3118 220.126 105.732C222.559 110.659 223.999 116.018 224.361 121.502C224.723 126.986 224.002 132.488 222.238 137.693C220.474 142.898 217.702 147.704 214.08 151.838C210.458 155.971 206.057 159.351 201.129 161.783Z" fill="#ED8D34"/>
<path opacity="0.3" d="M230.157 100.783C224.244 88.5199 213.839 79.0024 201.099 74.2035C188.359 69.4047 174.26 69.6925 161.727 75.0074C149.193 80.3222 139.185 90.2565 133.778 102.751C128.37 115.245 127.978 129.341 132.683 142.116C128.418 143.61 124.203 145.213 120.014 146.867C113.974 149.264 107.988 151.767 102.058 154.376C96.1326 157.001 90.2324 159.676 84.3897 162.473C81.4587 163.846 78.5661 165.295 75.648 166.7C74.1299 167.353 72.7545 168.296 71.5996 169.478C70.9746 170.132 70.4242 170.854 69.9585 171.63C69.3903 172.547 68.96 173.544 68.6814 174.586C68.2009 176.465 68.4087 178.454 69.2672 180.194C70.1257 181.933 71.5781 183.307 73.362 184.069C74.3525 184.484 75.3977 184.755 76.4653 184.873C77.367 184.975 78.2774 184.975 79.1791 184.873C80.8178 184.674 82.4015 184.156 83.8405 183.347C86.7331 181.885 89.6449 180.474 92.5184 178.973C98.2653 176.042 104.012 172.984 109.689 169.88C115.366 166.777 121.049 163.527 126.591 160.193C130.423 157.875 134.292 155.506 138.085 153.029C145.369 164.527 156.796 172.782 170.001 176.084C183.205 179.386 197.173 177.481 209.011 170.765C220.85 164.048 229.65 153.034 233.589 140.006C237.528 126.978 236.304 112.933 230.17 100.783H230.157ZM201.129 161.783C193.708 165.446 185.368 166.827 177.163 165.75C168.957 164.673 161.256 161.187 155.032 155.733C148.808 150.279 144.34 143.102 142.195 135.11C140.049 127.117 140.322 118.668 142.978 110.83C145.635 102.993 150.555 96.1186 157.118 91.0774C163.681 86.0362 171.591 83.0542 179.849 82.5085C188.106 81.9628 196.34 83.8778 203.509 88.0115C210.678 92.1452 216.461 98.3118 220.126 105.732C222.559 110.659 223.999 116.018 224.361 121.502C224.723 126.986 224.002 132.488 222.238 137.693C220.474 142.898 217.702 147.704 214.08 151.838C210.458 155.971 206.057 159.351 201.129 161.783Z" fill="#F3ECFF"/>
<path d="M101.253 111.517C101.253 111.894 101.451 112.2 101.7 112.2C101.949 112.2 102.147 111.894 102.147 111.517C102.147 111.14 101.949 110.834 101.7 110.834C101.451 110.834 101.253 111.166 101.253 111.517Z" fill="#263238"/>
<path d="M101.433 112.2C101.885 113.357 102.493 114.446 103.24 115.438C102.981 115.622 102.686 115.748 102.374 115.807C102.061 115.865 101.74 115.855 101.433 115.776V112.2Z" fill="#DE5753"/>
<path d="M99.9322 109.416C99.8966 109.416 99.8615 109.408 99.8294 109.392C99.7973 109.377 99.7692 109.354 99.7471 109.326C99.7138 109.278 99.7005 109.218 99.71 109.16C99.7195 109.101 99.7511 109.049 99.7981 109.013C100.079 108.8 100.408 108.658 100.756 108.599C101.104 108.54 101.461 108.566 101.797 108.675C101.827 108.683 101.855 108.698 101.879 108.717C101.903 108.737 101.923 108.762 101.937 108.79C101.952 108.818 101.96 108.848 101.961 108.879C101.963 108.911 101.958 108.942 101.947 108.971C101.935 109 101.918 109.027 101.896 109.049C101.874 109.071 101.848 109.088 101.818 109.099C101.789 109.11 101.758 109.115 101.727 109.114C101.696 109.112 101.665 109.104 101.637 109.09C101.37 109.008 101.088 108.992 100.814 109.042C100.539 109.092 100.281 109.207 100.06 109.377C100.022 109.403 99.9777 109.416 99.9322 109.416Z" fill="#263238"/>
<path d="M88.3554 114.358C88.9939 117.787 89.6963 124.077 87.2954 126.369C87.2954 126.369 88.2341 129.85 94.6132 129.85C101.637 129.85 97.9591 126.369 97.9591 126.369C94.1279 125.45 94.2364 122.615 94.9005 119.946L88.3554 114.358Z" fill="#F3ECFF"/>
<path d="M84.4279 128.177C85.1877 126.995 83.9106 124.128 83.9106 124.128C83.9106 124.128 95.2002 121.287 99.8169 125.648C100.775 126.548 99.7147 127.877 99.7147 127.877L84.4279 128.177Z" fill="#ED8D34"/>
<path opacity="0.1" d="M84.4279 128.177C85.1877 126.995 83.9106 124.128 83.9106 124.128C83.9106 124.128 95.2002 121.287 99.8169 125.648C100.775 126.548 99.7147 127.877 99.7147 127.877L84.4279 128.177Z" fill="#F3ECFF"/>
<path d="M65.7505 258.459C65.1567 258.459 64.2053 257.47 63.9243 257.099C63.9122 257.081 63.9058 257.06 63.9058 257.039C63.9058 257.017 63.9122 256.996 63.9243 256.978C63.9346 256.96 63.9495 256.945 63.9675 256.935C63.9855 256.925 64.0058 256.92 64.0265 256.92C64.0967 256.92 65.6611 257.061 66.089 257.616C66.1355 257.675 66.1687 257.743 66.1864 257.816C66.204 257.889 66.2056 257.964 66.1911 258.038C66.1856 258.133 66.1507 258.224 66.0912 258.298C66.0317 258.373 65.9506 258.427 65.8591 258.453L65.7505 258.459ZM64.2691 257.182C64.7352 257.719 65.4824 258.325 65.8016 258.249C65.8016 258.249 65.9293 258.217 65.9676 258.012C65.976 257.97 65.9747 257.926 65.9636 257.884C65.9525 257.842 65.9321 257.803 65.9038 257.77C65.4308 257.411 64.8616 257.202 64.2691 257.169V257.182Z" fill="#ED8D34"/>
<path d="M64.3395 257.169C64.2248 257.181 64.1093 257.181 63.9947 257.169C63.9745 257.168 63.9552 257.16 63.9393 257.148C63.9234 257.135 63.9115 257.118 63.9053 257.099C63.8963 257.081 63.8916 257.062 63.8916 257.042C63.8916 257.022 63.8963 257.002 63.9053 256.984C63.95 256.946 64.8886 255.969 65.5974 255.969C65.6822 255.967 65.7665 255.983 65.8446 256.016C65.9228 256.049 65.993 256.098 66.0508 256.16C66.1144 256.214 66.1579 256.287 66.1741 256.368C66.1904 256.45 66.1784 256.534 66.1402 256.607C65.955 256.965 64.978 257.169 64.3395 257.169ZM64.2565 256.946C64.895 256.946 65.8209 256.748 65.9742 256.467C65.9742 256.467 66.0189 256.384 65.9167 256.282C65.8795 256.241 65.834 256.21 65.7832 256.189C65.7325 256.168 65.6778 256.158 65.623 256.16C65.0995 256.281 64.6237 256.554 64.2565 256.946Z" fill="#ED8D34"/>
<path d="M107.888 272.955C107.404 272.951 106.922 272.906 106.445 272.821C106.422 272.816 106.4 272.803 106.385 272.785C106.37 272.766 106.362 272.742 106.362 272.718C106.359 272.696 106.362 272.674 106.371 272.653C106.38 272.633 106.395 272.616 106.413 272.603C106.484 272.565 108.118 271.626 108.904 271.844C108.977 271.86 109.045 271.891 109.106 271.935C109.166 271.979 109.217 272.035 109.255 272.099C109.305 272.17 109.332 272.255 109.332 272.342C109.332 272.429 109.305 272.513 109.255 272.584C109.07 272.872 108.489 272.955 107.888 272.955ZM106.809 272.655C107.678 272.782 108.865 272.776 109.083 272.469C109.114 272.431 109.14 272.361 109.083 272.227C109.034 272.147 108.956 272.09 108.865 272.067C108.367 271.939 107.378 272.361 106.809 272.655Z" fill="#ED8D34"/>
<path d="M106.471 272.826C106.45 272.832 106.428 272.832 106.407 272.826C106.389 272.815 106.376 272.798 106.368 272.779C106.36 272.76 106.358 272.738 106.362 272.718C106.406 272.053 106.661 271.42 107.09 270.911C107.177 270.836 107.279 270.78 107.389 270.748C107.5 270.716 107.615 270.709 107.729 270.725C108.035 270.725 108.125 270.911 108.144 271.032C108.227 271.562 107.109 272.577 106.541 272.833L106.471 272.826ZM107.614 270.911C107.473 270.91 107.337 270.96 107.231 271.051C106.87 271.454 106.646 271.962 106.592 272.501C107.167 272.149 107.933 271.358 107.869 271.038C107.869 271.038 107.869 270.93 107.652 270.911H107.614Z" fill="#ED8D34"/>
<path d="M101.312 272.712H106.005L106.471 261.85H101.778L101.312 272.712Z" fill="#F3ECFF"/>
<path d="M59.5186 254.066L63.4392 256.633L72.0979 249.322L68.1709 246.749L59.5186 254.066Z" fill="#F3ECFF"/>
<path d="M64.084 256.39L60.0101 253.05C59.9381 252.991 59.8479 252.959 59.7547 252.959C59.6615 252.959 59.5713 252.991 59.4993 253.05L56.1405 255.688C56.0594 255.752 55.9938 255.834 55.9488 255.928C55.9038 256.021 55.8804 256.124 55.8804 256.227C55.8804 256.331 55.9038 256.433 55.9488 256.527C55.9938 256.62 56.0594 256.702 56.1405 256.767C57.5836 257.91 58.3435 258.395 60.1378 259.864C61.2425 260.764 63.9691 263.523 65.508 264.768C67.0469 266.013 68.4581 264.672 67.9473 264.027C65.6549 261.122 64.7545 258.638 64.4927 257.099C64.4475 256.821 64.3021 256.569 64.084 256.39Z" fill="#263238"/>
<path d="M105.973 272.169H100.865C100.771 272.169 100.681 272.201 100.608 272.259C100.535 272.317 100.484 272.398 100.462 272.488L99.5365 276.658C99.5132 276.759 99.5132 276.864 99.5366 276.965C99.5599 277.066 99.6059 277.16 99.6711 277.241C99.7364 277.322 99.8191 277.386 99.913 277.43C100.007 277.474 100.11 277.496 100.213 277.494C102.059 277.462 104.728 277.354 107.052 277.354C109.766 277.354 112.116 277.501 115.296 277.501C117.211 277.501 117.761 275.553 116.95 275.381C113.284 274.576 110.283 274.493 107.116 272.533C106.776 272.308 106.38 272.182 105.973 272.169Z" fill="#263238"/>
<path d="M78.049 127.769C73.9815 129.684 71.6636 142.519 71.6636 142.519L81.6058 146.484C83.061 142.931 84.2374 139.269 85.1241 135.533C86.4906 129.62 82.2124 125.789 78.049 127.769Z" fill="#263238"/>
<path d="M83.3234 135.003C80.865 137.493 79.7412 142.371 79.2495 145.545L81.6313 146.496C83.0452 143.044 84.1978 139.49 85.0794 135.865C84.8687 134.511 84.3451 133.968 83.3234 135.003Z" fill="#203048"/>
<path d="M105.174 127.679C105.174 127.679 110.168 133.323 105.455 168.226H80.3666C80.1942 164.395 82.6143 145.59 78.8979 127.442C81.6706 126.905 84.4756 126.551 87.2948 126.382C90.8463 126.171 94.4071 126.171 97.9586 126.382C100.394 126.627 102.806 127.061 105.174 127.679Z" fill="#263238"/>
<path d="M107.467 141.229L103.239 133.943C102.423 137.342 102.09 140.84 102.25 144.332C102.365 146.835 104.657 156.107 106.72 157.461C107.267 152.068 107.516 146.649 107.467 141.229Z" fill="#203048"/>
<path d="M108.054 132.666C108.693 135.769 109.332 138.949 110.015 142.065C110.698 145.182 111.407 148.31 112.231 151.331C112.441 152.078 112.639 152.844 112.869 153.559L113.042 154.108L113.125 154.383V154.351C113.08 154.294 113.029 154.287 113.067 154.351C113.329 154.638 113.665 154.847 114.038 154.958C114.641 155.182 115.263 155.355 115.896 155.475C118.915 155.953 121.972 156.152 125.027 156.069L125.634 159.542C124.778 159.817 123.98 160.015 123.137 160.213C122.294 160.411 121.464 160.577 120.615 160.705C118.858 160.997 117.076 161.117 115.296 161.062C114.306 161.036 113.322 160.907 112.358 160.679C111.133 160.411 109.982 159.877 108.987 159.115C108.337 158.59 107.8 157.938 107.41 157.199C107.307 157.007 107.218 156.79 107.135 156.605L107.02 156.305L106.784 155.666C106.458 154.856 106.19 154.057 105.896 153.259C104.817 150.066 103.917 146.842 103.125 143.623C102.333 140.405 101.65 137.193 101.082 133.892L108.054 132.666Z" fill="#F3ECFF"/>
<path d="M98.91 131.101C97.5882 135.386 102.946 148.163 102.946 148.163L113.616 145.481C113.616 145.481 113.207 138.841 110.774 133.573C107.109 125.629 100.494 125.961 98.91 131.101Z" fill="#263238"/>
<path d="M124.938 156.069L130.25 155.935L127.696 161.464C127.696 161.464 125.531 161.752 123.756 158.834L121.885 156.599L124.037 156.171C124.333 156.108 124.635 156.074 124.938 156.069Z" fill="#F3ECFF"/>
<path d="M133.602 156.963L130.563 161.547L127.696 161.464L130.25 155.935L133.602 156.963Z" fill="#F3ECFF"/>
<path d="M106.471 261.85L106.228 267.45H101.535L101.777 261.85H106.471Z" fill="#CE6F64"/>
<path d="M68.1705 246.749L72.0975 249.322L67.6277 253.089L63.707 250.522L68.1705 246.749Z" fill="#CE6F64"/>
<path d="M88.6489 110.706C88.9299 115.349 88.8596 118.088 91.2031 120.47C94.7279 124.065 100.468 121.938 101.58 117.277C102.582 113.101 101.956 106.205 97.4098 104.353C96.4066 103.948 95.317 103.805 94.2432 103.936C93.1695 104.068 92.1467 104.47 91.2709 105.105C90.3952 105.74 89.6952 106.587 89.2365 107.567C88.7779 108.547 88.5757 109.627 88.6489 110.706Z" fill="#F3ECFF"/>
<path d="M83.183 109.889C84.3388 114.122 87.059 119.001 90.5774 119.314C94.9451 119.697 96.9182 115.182 97.4929 110.521C100.111 108.726 98.738 106.753 101.362 106.504C104.734 106.185 103.655 100.017 99.2169 99.0269C99.2169 99.0269 100.705 101.805 97.5823 100.4C94.6127 98.9885 91.3137 98.4166 88.0424 98.7459C88.0424 98.7459 92.0269 100.738 88.1318 101.626C84.2366 102.513 83.0745 104.914 84.8688 106.364C84.8688 106.37 82.4231 107.105 83.183 109.889Z" fill="#263238"/>
<path d="M94.83 111.479C94.9158 112.633 95.3805 113.726 96.1518 114.588C97.1735 115.719 98.2399 115.016 98.4187 113.643C98.5847 112.411 98.2463 110.336 96.9947 109.71C95.7432 109.084 94.747 110.087 94.83 111.479Z" fill="#F3ECFF"/>
<path d="M96.5547 168.226C96.5547 168.226 101.127 201.335 97.5252 214.604C91.8166 235.612 69.9911 253.344 69.9911 253.344L62.5903 248.491C62.5903 248.491 81.1784 233.518 83.4517 215.926C85.495 200.134 80.3675 181.035 80.3675 168.22L96.5547 168.226Z" fill="#ED8D34"/>
<path opacity="0.1" d="M96.5547 168.226C96.5547 168.226 101.127 201.335 97.5252 214.604C91.8166 235.612 69.9911 253.344 69.9911 253.344L62.5903 248.491C62.5903 248.491 81.1784 233.518 83.4517 215.926C85.495 200.134 80.3675 181.035 80.3675 168.22L96.5547 168.226Z" fill="#F3ECFF"/>
<path d="M98.4446 187.153C97.2275 185.759 95.8875 184.476 94.4409 183.322C95.2199 194.069 95.8585 209.988 95.1497 221.296C96.1027 219.128 96.8966 216.894 97.5251 214.611C99.2811 208.129 99.0959 196.936 98.4446 187.153Z" fill="#ED8D34"/>
<path opacity="0.3" d="M98.4446 187.153C97.2275 185.759 95.8875 184.476 94.4409 183.322C95.2199 194.069 95.8585 209.988 95.1497 221.296C96.1027 219.128 96.8966 216.894 97.5251 214.611C99.2811 208.129 99.0959 196.936 98.4446 187.153Z" fill="#F3ECFF"/>
<path d="M72.9726 251.691C73.0045 251.691 70.1055 253.606 70.1055 253.606L62.0215 248.306L64.5757 246.193L72.9726 251.691Z" fill="#ED8D34"/>
<path opacity="0.3" d="M72.9726 251.691C73.0045 251.691 70.1055 253.606 70.1055 253.606L62.0215 248.306L64.5757 246.193L72.9726 251.691Z" fill="#F3ECFF"/>
<path d="M105.456 168.227C105.456 168.227 112.518 198.174 113.016 212.484C113.578 228.525 107.978 266.365 107.978 266.365H100.028C100.028 266.365 99.051 228.231 98.6998 213.621C98.3102 197.689 88.9619 168.227 88.9619 168.227H105.456Z" fill="#ED8D34"/>
<path opacity="0.1" d="M105.456 168.227C105.456 168.227 112.518 198.174 113.016 212.484C113.578 228.525 107.978 266.365 107.978 266.365H100.028C100.028 266.365 99.051 228.231 98.6998 213.621C98.3102 197.689 88.9619 168.227 88.9619 168.227H105.456Z" fill="#F3ECFF"/>
<path d="M109.504 263.204C109.542 263.204 109.057 266.499 109.057 266.499H99.3892L99.1274 263.555L109.504 263.204Z" fill="#ED8D34"/>
<path opacity="0.3" d="M109.504 263.204C109.542 263.204 109.057 266.499 109.057 266.499H99.3892L99.1274 263.555L109.504 263.204Z" fill="#F3ECFF"/>
<path d="M227.687 139.448C228.23 139.959 228.657 140.393 229.104 140.878C229.551 141.363 229.973 141.836 230.381 142.328C231.212 143.305 231.991 144.333 232.744 145.367C234.249 147.442 235.588 149.633 236.748 151.919L236.984 152.385C237.099 152.61 237.196 152.845 237.271 153.087C237.426 153.554 237.52 154.039 237.552 154.53C237.594 155.396 237.475 156.262 237.201 157.084C236.735 158.451 236.042 159.728 235.151 160.865C233.547 162.925 231.654 164.745 229.532 166.267L227.942 164.44C228.689 163.566 229.468 162.627 230.164 161.688C230.873 160.779 231.513 159.818 232.08 158.815C232.61 157.939 233.002 156.987 233.242 155.993C233.325 155.637 233.34 155.268 233.287 154.907C233.264 154.785 233.225 154.667 233.172 154.556C233.148 154.507 233.12 154.46 233.089 154.415L232.885 154.07C231.653 152.062 230.317 150.121 228.881 148.253C228.172 147.315 227.412 146.414 226.646 145.527C226.269 145.08 225.88 144.646 225.49 144.211C225.101 143.777 224.679 143.343 224.341 143.004L227.687 139.448Z" fill="#F3ECFF"/>
<path d="M228.555 163.904L223.785 163.125L226.282 167.301C226.282 167.301 229.353 167.193 230.228 165.385L228.555 163.904Z" fill="#F3ECFF"/>
<path d="M220.26 165.053L222.533 168.444L226.282 167.301L223.785 163.125L220.26 165.053Z" fill="#F3ECFF"/>
<path d="M228.325 272.898C228.001 272.926 227.678 272.837 227.412 272.649C227.332 272.573 227.273 272.478 227.241 272.373C227.208 272.268 227.204 272.156 227.227 272.048C227.232 271.98 227.255 271.914 227.294 271.858C227.334 271.801 227.388 271.757 227.451 271.729C228.006 271.48 229.462 272.412 229.628 272.521C229.647 272.533 229.662 272.55 229.67 272.571C229.678 272.592 229.679 272.614 229.673 272.636C229.67 272.658 229.661 272.678 229.646 272.694C229.631 272.71 229.611 272.721 229.59 272.725C229.176 272.83 228.752 272.888 228.325 272.898ZM227.687 271.908C227.64 271.901 227.593 271.901 227.546 271.908C227.518 271.921 227.494 271.942 227.478 271.968C227.461 271.994 227.451 272.024 227.451 272.055C227.434 272.126 227.435 272.2 227.456 272.271C227.476 272.341 227.514 272.405 227.566 272.457C227.808 272.674 228.434 272.706 229.27 272.54C228.791 272.223 228.252 272.008 227.687 271.908Z" fill="#ED8D34"/>
<path d="M229.602 272.719H229.544C229.091 272.457 228.216 271.442 228.325 270.886C228.345 270.799 228.394 270.72 228.463 270.663C228.532 270.605 228.618 270.571 228.708 270.567C228.794 270.554 228.882 270.562 228.965 270.588C229.048 270.615 229.124 270.66 229.187 270.72C229.71 271.18 229.717 272.559 229.717 272.636C229.715 272.655 229.71 272.674 229.7 272.691C229.69 272.707 229.676 272.721 229.659 272.732L229.602 272.719ZM228.784 270.803H228.733C228.593 270.803 228.561 270.88 228.548 270.937C228.484 271.263 229.027 272.042 229.48 272.406C229.492 271.87 229.338 271.344 229.04 270.899C229.002 270.863 228.956 270.836 228.907 270.82C228.857 270.803 228.804 270.798 228.753 270.803H228.784Z" fill="#ED8D34"/>
<path d="M206.563 272.897C206.156 272.936 205.747 272.832 205.408 272.604C205.331 272.536 205.272 272.45 205.235 272.355C205.199 272.259 205.185 272.156 205.197 272.055C205.201 271.992 205.221 271.932 205.254 271.88C205.288 271.827 205.334 271.784 205.388 271.754C205.982 271.422 207.885 272.393 208.102 272.514C208.122 272.527 208.138 272.545 208.148 272.567C208.158 272.588 208.162 272.612 208.16 272.636C208.156 272.658 208.145 272.679 208.129 272.695C208.113 272.711 208.093 272.721 208.07 272.725C207.575 272.83 207.07 272.888 206.563 272.897ZM205.714 271.908C205.641 271.903 205.568 271.918 205.503 271.952C205.48 271.963 205.461 271.98 205.447 272.002C205.434 272.023 205.427 272.048 205.427 272.074C205.417 272.14 205.424 272.208 205.446 272.271C205.468 272.335 205.505 272.392 205.554 272.438C205.848 272.699 206.634 272.744 207.694 272.565C207.076 272.236 206.406 272.014 205.714 271.908Z" fill="#ED8D34"/>
<path d="M208.051 272.719H208C207.432 272.463 206.301 271.442 206.391 270.886C206.391 270.758 206.506 270.599 206.819 270.567C206.933 270.555 207.049 270.566 207.158 270.6C207.268 270.634 207.37 270.69 207.457 270.765C208.057 271.263 208.172 272.553 208.172 272.61C208.175 272.63 208.172 272.649 208.164 272.667C208.156 272.685 208.144 272.701 208.128 272.712C208.103 272.723 208.077 272.725 208.051 272.719ZM206.908 270.803H206.838C206.633 270.803 206.621 270.905 206.614 270.931C206.563 271.256 207.329 272.067 207.891 272.419C207.836 271.873 207.613 271.358 207.253 270.944C207.156 270.861 207.035 270.812 206.908 270.803Z" fill="#ED8D34"/>
<path d="M215.599 124.767C215.414 127.653 214.916 133.515 217.131 135.137C217.131 135.137 216.729 138.094 211.499 138.783C205.752 139.53 208.377 136.286 208.377 136.286C211.423 135.124 211.033 132.806 210.203 130.686L215.599 124.767Z" fill="#F3ECFF"/>
<path d="M203.703 119.665C203.671 119.665 203.64 119.658 203.612 119.645C203.583 119.632 203.557 119.613 203.537 119.589C203.354 119.372 203.123 119.201 202.863 119.09C202.602 118.98 202.319 118.931 202.036 118.95C202.007 118.956 201.976 118.955 201.946 118.948C201.917 118.941 201.889 118.928 201.864 118.911C201.84 118.893 201.819 118.87 201.804 118.844C201.788 118.818 201.778 118.789 201.775 118.758C201.767 118.698 201.784 118.638 201.821 118.59C201.858 118.542 201.913 118.511 201.973 118.503C202.333 118.473 202.696 118.53 203.029 118.67C203.363 118.81 203.658 119.029 203.888 119.308C203.916 119.341 203.934 119.381 203.939 119.424C203.945 119.467 203.938 119.511 203.92 119.55C203.902 119.59 203.874 119.623 203.837 119.647C203.801 119.671 203.759 119.684 203.716 119.684L203.703 119.665Z" fill="#263238"/>
<path d="M202.706 122.494C202.48 123.41 202.13 124.291 201.666 125.112C201.879 125.227 202.114 125.293 202.356 125.306C202.598 125.32 202.84 125.28 203.064 125.189L202.706 122.494Z" fill="#DE5753"/>
<path d="M202.962 121.792C203.013 122.175 202.853 122.507 202.604 122.546C202.355 122.584 202.106 122.29 202.061 121.907C202.017 121.524 202.17 121.192 202.419 121.16C202.668 121.128 202.917 121.383 202.962 121.792Z" fill="#263238"/>
<path d="M202.534 121.166L201.583 121.019C201.583 121.019 202.144 121.677 202.534 121.166Z" fill="#263238"/>
<path d="M213.312 272.616H208.523L208.204 261.538H212.993L213.312 272.616Z" fill="#F3ECFF"/>
<path d="M235.056 272.616H230.266L228.728 261.538H233.517L235.056 272.616Z" fill="#F3ECFF"/>
<path d="M229.972 272.08H235.349C235.441 272.079 235.529 272.112 235.599 272.172C235.668 272.232 235.713 272.315 235.726 272.406L236.364 276.665C236.376 276.772 236.365 276.881 236.332 276.984C236.298 277.086 236.244 277.181 236.171 277.261C236.099 277.341 236.011 277.405 235.912 277.449C235.813 277.493 235.706 277.515 235.598 277.514C233.727 277.482 232.82 277.374 230.458 277.374C229.002 277.374 226.875 277.521 224.87 277.521C222.865 277.521 222.757 275.535 223.593 275.356C227.342 274.551 227.935 273.44 229.193 272.374C229.413 272.192 229.687 272.088 229.972 272.08Z" fill="#263238"/>
<path d="M208.364 272.08H213.734C213.826 272.079 213.916 272.111 213.987 272.171C214.057 272.231 214.103 272.314 214.117 272.406L214.756 276.665C214.767 276.772 214.756 276.881 214.723 276.984C214.69 277.086 214.635 277.181 214.563 277.261C214.491 277.341 214.402 277.405 214.303 277.449C214.204 277.493 214.097 277.515 213.989 277.514C212.119 277.482 211.212 277.374 208.849 277.374C207.393 277.374 204.379 277.521 202.374 277.521C200.369 277.521 200.261 275.535 201.097 275.356C204.845 274.551 206.321 273.44 207.585 272.374C207.804 272.192 208.079 272.088 208.364 272.08Z" fill="#263238"/>
<path d="M208.204 261.538L208.37 267.253H213.159L212.993 261.538H208.204Z" fill="#CE6F64"/>
<path d="M233.517 261.538H228.728L229.526 267.253H234.308L233.517 261.538Z" fill="#CE6F64"/>
<path d="M215.662 118.79C215.988 123.528 216.224 125.527 214.168 128.254C211.071 132.347 205.184 131.715 203.447 127.168C201.883 123.075 201.614 116.019 205.969 113.542C206.927 112.993 208.01 112.697 209.114 112.684C210.218 112.671 211.307 112.94 212.278 113.466C213.249 113.991 214.07 114.756 214.662 115.688C215.254 116.62 215.599 117.688 215.662 118.79Z" fill="#F3ECFF"/>
<path d="M218.421 123.19C221.078 124.672 223.051 121.019 223.051 121.019C223.051 121.019 218.287 121.536 218.715 118.701C219.277 114.94 216.582 110.368 209.827 110.956C209.45 110.987 209.092 111.032 208.741 111.09C208.034 110.754 207.234 110.668 206.471 110.844C205.709 111.02 205.028 111.449 204.539 112.06C202.624 112.22 200.038 114.506 201.794 117.526C201.917 117.179 202.108 116.86 202.356 116.588C202.502 118.356 204.048 121.166 205.976 121.351C206.391 123.771 204.782 126.574 205.338 129.103C206.161 132.749 212.311 133.573 212.311 133.573C212.098 133.118 212.019 132.612 212.083 132.113C212.146 131.615 212.349 131.145 212.668 130.757C216.844 132.673 219.596 130.802 219.596 130.802C216.748 129.742 217.61 127.851 217.61 127.851C218.594 128.288 219.708 128.326 220.719 127.958C221.73 127.591 222.559 126.845 223.032 125.878C222.086 125.923 221.147 125.693 220.329 125.216C219.511 124.739 218.848 124.036 218.421 123.19Z" fill="#263238"/>
<path d="M207.643 122.079C207.654 122.534 207.575 122.986 207.411 123.41C207.246 123.834 207 124.222 206.685 124.55C205.842 125.425 204.808 124.812 204.527 123.694C204.278 122.685 204.418 121.019 205.516 120.559C205.758 120.464 206.02 120.431 206.278 120.463C206.535 120.495 206.781 120.591 206.992 120.742C207.204 120.893 207.374 121.094 207.487 121.328C207.601 121.561 207.654 121.819 207.643 122.079Z" fill="#F3ECFF"/>
<path d="M211.621 166.221C211.621 166.221 212.834 197.74 215.72 216.245C218.044 231.2 228.37 266.141 228.37 266.141H234.896C234.896 266.141 229.513 232.394 228.331 217.612C225.343 180.199 233.101 172.166 225.777 164.376L211.621 166.221Z" fill="#263238"/>
<path d="M217.074 176.189C217.074 176.189 214.123 175.678 212.399 181.297C213.038 191.942 214.13 206.066 215.72 216.245C216.071 218.512 216.607 221.245 217.265 224.24C216.02 206.258 217.074 176.189 217.074 176.189Z" fill="#161F33"/>
<path d="M206.531 166.886C206.531 166.886 201.154 201.757 201.467 216.348C201.793 231.526 207.355 266.154 207.355 266.154H213.823C213.823 266.154 212.801 232.426 213.37 217.523C214.008 201.272 220.643 165.053 220.643 165.053L206.531 166.886Z" fill="#263238"/>
<path d="M235.841 266.448H227.163L226.486 263.536L235.777 263.6L235.841 266.448Z" fill="#ED8D34"/>
<path opacity="0.2" d="M235.841 266.448H227.163L226.486 263.536L235.777 263.6L235.841 266.448Z" fill="#F3ECFF"/>
<path d="M225.451 135.143C227.948 135.386 231.741 142.48 231.741 142.48L225.439 147.314C225.439 147.314 220.222 142.736 220.841 140.162C221.486 137.487 223.057 134.92 225.451 135.143Z" fill="#ED8D34"/>
<path opacity="0.1" d="M225.451 135.143C227.948 135.386 231.741 142.48 231.741 142.48L225.439 147.314C225.439 147.314 220.222 142.736 220.841 140.162C221.486 137.487 223.057 134.92 225.451 135.143Z" fill="#F3ECFF"/>
<path d="M223.568 138.196C222.931 138.024 222.272 137.951 221.614 137.979C221.279 138.677 221.02 139.409 220.841 140.163C220.203 142.717 225.439 147.314 225.439 147.314L225.905 146.957L223.568 138.196Z" fill="#ED8D34"/>
<path opacity="0.3" d="M223.568 138.196C222.931 138.024 222.272 137.951 221.614 137.979C221.279 138.677 221.02 139.409 220.841 140.163C220.203 142.717 225.439 147.314 225.439 147.314L225.905 146.957L223.568 138.196Z" fill="#F3ECFF"/>
<path d="M204.392 145.009C202.572 149.613 200.657 154.294 199.131 158.911C199.028 159.204 198.945 159.485 198.856 159.773L198.639 160.481C198.58 160.69 198.58 160.911 198.639 161.12C198.999 161.918 199.571 162.603 200.293 163.099C202.202 164.469 204.282 165.583 206.48 166.413L205.905 168.763C203.201 168.407 200.586 167.554 198.192 166.247C196.718 165.46 195.518 164.245 194.75 162.761C194.309 161.813 194.156 160.756 194.309 159.722C194.324 159.595 194.345 159.469 194.373 159.345L194.437 159.077L194.546 158.591C194.622 158.266 194.699 157.953 194.782 157.633C195.421 155.079 196.238 152.653 197.1 150.245C197.962 147.838 198.862 145.463 199.878 143.094L204.392 145.009Z" fill="#F3ECFF"/>
<path d="M200.516 138.547C200.516 138.547 198.358 139.639 206.531 166.886L225.803 164.37C224.449 156.567 223.81 151.733 225.451 135.144C222.688 134.946 219.914 134.946 217.15 135.144C214.208 135.315 211.282 135.699 208.396 136.293C204.699 137.117 200.516 138.547 200.516 138.547Z" fill="#ED8D34"/>
<path opacity="0.1" d="M200.516 138.547C200.516 138.547 198.358 139.639 206.531 166.886L225.803 164.37C224.449 156.567 223.81 151.733 225.451 135.144C222.688 134.946 219.914 134.946 217.15 135.144C214.208 135.315 211.282 135.699 208.396 136.293C204.699 137.117 200.516 138.547 200.516 138.547Z" fill="#F3ECFF"/>
<path d="M225.943 163.201L227.048 164.804C227.131 164.932 226.99 165.085 226.773 165.117L206.563 167.761C206.391 167.761 206.231 167.716 206.206 167.607L205.81 165.902C205.778 165.787 205.918 165.666 206.11 165.641L225.624 163.086C225.682 163.077 225.742 163.083 225.798 163.103C225.854 163.123 225.904 163.157 225.943 163.201Z" fill="#ED8D34"/>
<path opacity="0.2" d="M225.943 163.201L227.048 164.804C227.131 164.932 226.99 165.085 226.773 165.117L206.563 167.761C206.391 167.761 206.231 167.716 206.206 167.607L205.81 165.902C205.778 165.787 205.918 165.666 206.11 165.641L225.624 163.086C225.682 163.077 225.742 163.083 225.798 163.103C225.854 163.123 225.904 163.157 225.943 163.201Z" fill="#F3ECFF"/>
<path d="M223.606 165.724L224.13 165.653C224.232 165.653 224.302 165.577 224.289 165.513L223.753 163.304C223.733 163.266 223.7 163.236 223.661 163.22C223.621 163.204 223.577 163.202 223.536 163.214L223.012 163.278C222.904 163.278 222.834 163.355 222.853 163.425L223.389 165.628C223.402 165.698 223.504 165.736 223.606 165.724Z" fill="#263238"/>
<path d="M210.937 167.358L211.461 167.288C211.563 167.288 211.639 167.212 211.62 167.148L211.084 164.938C211.063 164.901 211.031 164.872 210.991 164.854C210.952 164.837 210.909 164.833 210.867 164.842L210.343 164.913C210.241 164.913 210.164 164.989 210.184 165.053L210.72 167.263C210.733 167.358 210.835 167.397 210.937 167.358Z" fill="#263238"/>
<path d="M201.417 147.793C201.946 150.258 202.694 153.381 203.786 157.333L204.022 147.314L201.417 147.793Z" fill="#ED8D34"/>
<path opacity="0.3" d="M201.417 147.793C201.946 150.258 202.694 153.381 203.786 157.333L204.022 147.314L201.417 147.793Z" fill="#F3ECFF"/>
<path d="M200.516 138.547C198.122 139.511 196.046 147.704 196.046 147.704L204.284 151.714C204.284 151.714 208.262 141.695 206.48 139.741C204.699 137.787 203.275 137.442 200.516 138.547Z" fill="#ED8D34"/>
<path opacity="0.1" d="M200.516 138.547C198.122 139.511 196.046 147.704 196.046 147.704L204.284 151.714C204.284 151.714 208.262 141.695 206.48 139.741C204.699 137.787 203.275 137.442 200.516 138.547Z" fill="#F3ECFF"/>
<path d="M214.928 266.448H206.25L205.573 263.536L215.234 263.6L214.928 266.448Z" fill="#ED8D34"/>
<path opacity="0.2" d="M214.928 266.448H206.25L205.573 263.536L215.234 263.6L214.928 266.448Z" fill="#F3ECFF"/>
<path d="M206.614 165.622L205.918 165.334C205.747 165.265 205.561 165.242 205.378 165.268C205.195 165.293 205.022 165.367 204.877 165.481C204.732 165.595 204.619 165.746 204.551 165.917C204.482 166.089 204.461 166.276 204.488 166.458L204.992 169.785C205.017 169.952 205.077 170.111 205.171 170.251C205.264 170.391 205.387 170.509 205.531 170.595C205.675 170.682 205.837 170.736 206.004 170.752C206.172 170.769 206.341 170.748 206.499 170.692C206.753 170.6 206.99 170.468 207.202 170.302C207.433 170.111 207.615 169.868 207.735 169.593C207.855 169.318 207.908 169.018 207.891 168.719L207.821 167.34C207.809 166.967 207.688 166.606 207.474 166.301C207.26 165.996 206.961 165.76 206.614 165.622Z" fill="#F3ECFF"/>
</svg>
