<svg width="316" height="283" viewBox="0 0 316 283" fill="none" xmlns="http://www.w3.org/2000/svg">
<g clip-path="url(#clip0_101_6724)">
<path d="M28.1797 256.391L60.5303 256.224L92.8879 256.161L157.589 256.043L222.291 256.161L254.648 256.224L286.999 256.391L254.648 256.558L222.291 256.62L157.589 256.739L92.8879 256.62L60.5303 256.558L28.1797 256.391Z" fill="#263238"/>
<path d="M117.956 6.70605H28V74.2598H117.956V6.70605Z" fill="#DBDBDB"/>
<path d="M112.147 11.9385H33.8027V69.0287H112.147V11.9385Z" fill="#EBEBEB"/>
<path d="M62.8685 20.127H43.959V61.5914H62.8685V20.127Z" fill="white"/>
<path d="M101.989 20.127H69.1377V42.5498H101.989V20.127Z" fill="white"/>
<path d="M84.6104 46.1182H69.1377V61.5908H84.6104V46.1182Z" fill="white"/>
<path d="M101.989 46.1182H91.1914V61.5908H101.989V46.1182Z" fill="white"/>
<path d="M62.8961 38.0207C67.8373 38.0207 71.843 34.015 71.843 29.0738C71.843 24.1326 67.8373 20.127 62.8961 20.127C57.9549 20.127 53.9492 24.1326 53.9492 29.0738C53.9492 34.015 57.9549 38.0207 62.8961 38.0207Z" fill="#DBDBDB"/>
<path d="M69.1377 61.5913H95.5122V35.2168L69.1377 61.5913Z" fill="#DBDBDB"/>
<path d="M286.999 4H194.455V145.898H286.999V4Z" fill="#EBEBEB"/>
<path d="M238.579 9.68457H199.501V72.7996H238.579V9.68457Z" fill="white"/>
<path d="M281.955 9.68457H242.877V72.7996H281.955V9.68457Z" fill="white"/>
<path d="M238.579 77.0918H199.501V140.207H238.579V77.0918Z" fill="white"/>
<path d="M281.955 77.0918H242.877V140.207H281.955V77.0918Z" fill="white"/>
<path d="M251.115 4H287V207.002H266.226L280.725 103.703L251.115 4Z" fill="#DBDBDB"/>
<path d="M257.335 9.48145L263.346 32.9965L269.253 56.5395L281.066 103.618L281.08 103.681L281.073 103.744L275.486 152.979L272.689 177.594L269.788 202.201L272.348 177.559L275.027 152.924L280.384 103.667L280.391 103.785L268.807 56.6508L263.019 33.08L257.335 9.48145Z" fill="#EBEBEB"/>
<path d="M284.864 13.6494L285.031 34.006L285.129 54.3695L285.212 95.0826L285.129 135.803L285.038 156.159L284.864 176.523L284.691 156.159L284.6 135.803L284.517 95.0826L284.6 54.3695L284.697 34.006L284.864 13.6494Z" fill="#EBEBEB"/>
<path d="M278.158 17.4619L279.591 39.0847L280.927 60.7144L283.578 103.967C283.404 112.002 283.133 120.038 282.917 128.073L282.221 152.173L281.525 176.279L280.732 200.407L281.192 176.3L281.755 152.194L282.326 128.087C282.52 120.052 282.673 112.009 282.917 103.981L280.482 60.7074L279.271 39.1055L278.158 17.4619Z" fill="#EBEBEB"/>
<path d="M273.489 197.318L275.472 173.929L277.559 150.546C278.999 134.962 280.377 119.371 281.859 103.794V103.884L275.382 67.4706L272.188 49.2569L269.051 31.0361L272.481 49.2082L275.862 67.3524L282.52 103.731V103.822C281.128 119.406 279.598 134.983 278.144 150.567L275.862 173.929L273.489 197.318Z" fill="#EBEBEB"/>
<path d="M287.001 101.998H278.896V106.729H287.001V101.998Z" fill="#DBDBDB"/>
<path d="M216.377 4H194.455V207.009H216.377V4Z" fill="#DBDBDB"/>
<path d="M212.218 13.6494L212.392 35.5992L212.454 57.5489L212.566 101.448L212.454 145.348L212.392 167.298L212.218 189.247L212.051 167.298L211.988 145.348L211.877 101.448L211.988 57.5489L212.051 35.5992L212.218 13.6494Z" fill="#EBEBEB"/>
<path d="M202.158 18.7354L202.325 38.3405L202.423 57.9388L202.506 97.1352L202.423 136.332L202.325 155.93L202.158 175.535L201.984 155.93L201.887 136.332L201.811 97.1352L201.894 57.9388L201.984 38.3405L202.158 18.7354Z" fill="#EBEBEB"/>
<path d="M207.188 23.3682L207.362 46.3128L207.417 69.2643L207.536 115.161L207.417 161.057L207.362 184.008L207.188 206.96L207.021 184.008L206.958 161.057L206.84 115.161L206.958 69.2643L207.021 46.3128L207.188 23.3682Z" fill="#EBEBEB"/>
<path d="M198.415 14.8047L198.582 38.8277L198.645 62.8437L198.763 110.883L198.645 158.922L198.582 182.938L198.415 206.961L198.241 182.938L198.186 158.922L198.067 110.883L198.186 62.8437L198.248 38.8277L198.415 14.8047Z" fill="#EBEBEB"/>
<path d="M77.5276 86.9014H49.6504V105.978H77.5276V86.9014Z" fill="#EBEBEB"/>
<path d="M49.6504 88.2994C52.0506 89.6491 54.416 91.0823 56.7675 92.4737C57.9502 93.1694 59.1051 93.9138 60.2461 94.6374L63.7247 96.815H63.349L66.8275 94.6374C67.9963 93.9417 69.1512 93.1764 70.3061 92.4737L73.8473 90.3518C75.037 89.6561 76.2197 88.9604 77.4233 88.2646C76.3032 89.0647 75.1552 89.83 74.0282 90.6092L70.7096 92.9607C69.5687 93.733 68.3999 94.4565 67.2311 95.2079L63.7525 97.4411L63.5646 97.5594L63.3768 97.4411L59.8982 95.2079C58.7434 94.4565 57.5815 93.733 56.4197 92.9607C54.1864 91.4162 51.8975 89.8926 49.6504 88.2994Z" fill="white"/>
<path d="M49.7549 102.582C51.4384 101.108 53.2062 99.7324 55.0493 98.4633C56.8746 97.1673 58.7749 95.9802 60.7402 94.9082C59.0585 96.3869 57.2906 97.7645 55.4458 99.0338C53.6203 100.327 51.72 101.512 49.7549 102.582Z" fill="white"/>
<path d="M77.4647 102.582C75.5004 101.511 73.6003 100.326 71.7737 99.0338C69.9299 97.7661 68.1643 96.3884 66.4863 94.9082C68.4493 95.9803 70.3473 97.1674 72.1703 98.4633C74.0159 99.729 75.7839 101.104 77.4647 102.582Z" fill="white"/>
<path d="M49.9984 80.5986H49.3027V82.9014H49.9984V80.5986Z" fill="#DBDBDB"/>
<path d="M45.2634 82.2698L44.7715 82.7617L46.3998 84.39L46.8918 83.8981L45.2634 82.2698Z" fill="#DBDBDB"/>
<path d="M45.3995 86.8037H43.0967V87.4994H45.3995V86.8037Z" fill="#DBDBDB"/>
<path d="M46.4057 89.9166L44.7773 91.5449L45.2693 92.0369L46.8976 90.4085L46.4057 89.9166Z" fill="#DBDBDB"/>
<path d="M49.9984 91.4102H49.3027V93.713H49.9984V91.4102Z" fill="#DBDBDB"/>
<path d="M52.9099 89.9153L52.418 90.4072L54.0463 92.0356L54.5382 91.5436L52.9099 89.9153Z" fill="#DBDBDB"/>
<path d="M56.211 86.8037H53.9082V87.4994H56.211V86.8037Z" fill="#DBDBDB"/>
<path d="M54.0395 82.274L52.4111 83.9023L52.9031 84.3943L54.5314 82.766L54.0395 82.274Z" fill="#DBDBDB"/>
<path d="M160.666 290.043C222.546 290.043 272.71 283.972 272.71 276.483C272.71 268.995 222.546 262.924 160.666 262.924C98.7851 262.924 48.6211 268.995 48.6211 276.483C48.6211 283.972 98.7851 290.043 160.666 290.043Z" fill="#EBEBEB"/>
<path d="M217.045 228.771H174.982V231.553H217.045V228.771Z" fill="#455A64"/>
<path d="M178.141 131.955L177.94 145.139L176.659 228.77L176.618 231.553L176.054 268.238H173.911L173.348 231.553L173.306 228.77L172.026 145.139L171.824 131.955H178.141Z" fill="#455A64"/>
<path d="M171.824 131.955H178.141L177.94 145.139H172.026L171.824 131.955Z" fill="#263238"/>
<path d="M220.196 131.955L219.994 145.139L218.109 268.238H215.966L215.403 231.553L215.361 228.77L214.081 145.139L213.879 131.955H220.196Z" fill="#455A64"/>
<path d="M220.196 131.955L219.994 145.139H214.081L213.879 131.955H220.196Z" fill="#263238"/>
<path d="M197.426 228.771H155.363V231.553H197.426V228.771Z" fill="#37474F"/>
<path d="M158.521 131.955L158.319 145.139L157.039 228.77L156.998 231.553L156.434 268.238H154.291L152.406 145.139L152.204 131.955H158.521Z" fill="#37474F"/>
<path d="M152.204 131.955H158.521L158.319 145.139H152.406L152.204 131.955Z" fill="#263238"/>
<path d="M200.585 131.955L200.383 145.139L199.103 228.77L199.061 231.553L198.498 268.238H196.355L195.791 231.553L195.749 228.77L194.469 145.139L194.268 131.955H200.585Z" fill="#37474F"/>
<path d="M194.268 131.955H200.585L200.383 145.139H194.469L194.268 131.955Z" fill="#263238"/>
<path d="M223.481 125.818H149.693V133.04H223.481V125.818Z" fill="#ED8D34"/>
<path opacity="0.1" d="M209.093 125.818H149.693V133.04H209.093V125.818Z" fill="#263238"/>
<path d="M228.177 62.2448L223.467 125.819H179.456L179.059 119.718L175.254 61.7021L222.277 62.1822L228.177 62.2448Z" fill="#ED8D34"/>
<path opacity="0.1" d="M222.277 62.1822L219.042 125.819H179.456L179.059 119.718L175.254 61.7021L222.277 62.1822Z" fill="#263238"/>
<path d="M223.918 119.718L223.466 125.819H179.455L179.059 119.718H223.918Z" fill="#263238"/>
<path d="M170.614 27.7039C161.973 36.9152 161.173 59.5815 173.042 74.268C183.088 86.7004 205.149 88.1266 214.222 80.0146C223.85 71.4086 222.271 57.5848 214.159 52.1861C206.325 46.9752 197.337 48.1022 192.494 42.4113C190.171 39.6841 189.078 33.7358 185.829 29.5615C182.205 24.9141 175.039 22.98 170.614 27.7039Z" fill="#263238"/>
<path d="M180.994 62.5379C178.747 77.4332 176.771 88.975 172.959 92.2101C169.884 94.7981 165.383 96.8922 160.693 98.5411C155.673 100.237 150.546 101.602 145.346 102.625C143.746 102.952 142.41 103.195 141.464 103.376C139.119 103.808 133.401 88.6689 134.848 86.5679C135.182 86.0878 136.698 85.566 138.848 85.0303C146.09 83.2354 160.54 81.3013 161.306 80.376C162.071 79.4507 166.03 72.6814 171.393 63.8111C175.095 57.6819 178.476 55.6086 180.125 56.9931C181.05 57.7793 181.426 59.6646 180.994 62.5379Z" fill="#EB9481"/>
<path d="M145.347 102.626C143.02 104.017 140.603 105.251 138.111 106.32C136.108 107.085 130.284 109.103 129.227 107.016C128.531 105.569 131.787 103.968 134.097 102.786C135.308 102.16 136.748 100.699 136.309 99.9472C135.551 98.5558 132.441 100.267 130.424 101.673C126.521 104.386 121.379 109.124 118.736 107.238C117.727 106.543 118.736 105.005 120.197 103.474C117.727 105.325 115.048 106.89 113.935 106.146C113.641 105.954 113.43 105.658 113.345 105.318C113.26 104.977 113.307 104.617 113.476 104.309C113.16 104.49 112.797 104.571 112.433 104.544C112.07 104.517 111.724 104.382 111.438 104.156C110.519 103.335 110.825 101.993 111.639 100.573C111.48 100.57 111.323 100.528 111.183 100.452C111.042 100.376 110.922 100.267 110.832 100.135C108.808 97.54 117.156 88.948 120.211 87.9601C129.178 85.0381 138.995 85.0381 138.995 85.0381C142.724 87.6122 145.354 102.619 145.347 102.626Z" fill="#EB9481"/>
<path d="M131.203 95.1945C129.048 95.6941 127.031 96.6659 125.297 98.04C123.279 99.6818 121.749 101.818 119.912 103.606C119.907 103.611 119.904 103.617 119.901 103.623C119.899 103.629 119.898 103.636 119.898 103.643C119.899 103.65 119.9 103.656 119.903 103.662C119.906 103.669 119.91 103.674 119.915 103.679C119.92 103.683 119.926 103.687 119.933 103.689C119.939 103.691 119.946 103.692 119.953 103.692C119.959 103.692 119.966 103.69 119.972 103.687C119.978 103.684 119.984 103.68 119.988 103.675C120.844 102.743 121.804 101.894 122.702 100.997C123.599 100.099 124.427 99.2088 125.359 98.3948C127.044 96.8976 129.047 95.8032 131.217 95.1945C131.217 95.1945 131.224 95.1875 131.203 95.1945Z" fill="#263238"/>
<path d="M129.186 91.452C126.788 92.2291 124.476 93.2477 122.284 94.4922C119.947 95.9323 118.2 98.1169 116.482 100.225C115.443 101.486 114.439 102.771 113.47 104.079C113.428 104.135 113.47 104.211 113.546 104.156C115.285 101.985 117.092 99.8678 118.966 97.8038C120.689 95.8779 122.777 94.3126 125.109 93.1982C126.438 92.5581 127.822 92.0294 129.193 91.4937C129.221 91.4867 129.207 91.445 129.186 91.452Z" fill="#263238"/>
<path d="M126.339 88.2726C124.043 88.9683 122.039 89.5179 120.078 90.9372C117.883 92.6682 115.912 94.6664 114.213 96.8855C113.28 98.0613 112.383 99.2718 111.506 100.489C111.472 100.538 111.555 100.601 111.597 100.552C113.611 97.8619 115.798 95.3056 118.143 92.8991C119.24 91.7365 120.513 90.7529 121.914 89.984C123.34 89.287 124.823 88.7121 126.346 88.2656C126.346 88.2656 126.346 88.2656 126.339 88.2726Z" fill="#263238"/>
<path d="M180.995 62.538C178.748 77.4332 176.772 88.9751 172.96 92.2101C169.885 94.7982 165.383 96.8923 160.694 98.5411L180.126 56.9932C181.051 57.7793 181.427 59.6647 180.995 62.538Z" fill="#263238"/>
<path d="M181.941 59.9639C181.941 60.1935 181.941 60.437 181.941 60.6596C181.941 60.8822 181.941 61.0492 181.9 61.2579C181.583 64.9763 180.971 68.6636 180.07 72.2849H179.458H178.859L173.989 72.445H173.294L168.465 72.605H167.846L166.072 72.6606L164.681 72.7093C164.681 72.7093 169.551 63.3729 175.116 57.7376C175.636 57.1977 176.226 56.7297 176.87 56.3462C179.388 55.0034 181.893 55.7966 181.941 59.9639Z" fill="#ED8D34"/>
<path d="M179.172 56.6728C179.372 56.6728 179.534 56.5108 179.534 56.311C179.534 56.1112 179.372 55.9492 179.172 55.9492C178.973 55.9492 178.811 56.1112 178.811 56.311C178.811 56.5108 178.973 56.6728 179.172 56.6728Z" fill="white"/>
<path d="M174.024 64.437C174.024 64.5089 174.003 64.5791 173.963 64.6387C173.923 64.6984 173.866 64.7447 173.799 64.7719C173.733 64.799 173.66 64.8058 173.589 64.7913C173.519 64.7767 173.455 64.7416 173.404 64.6903C173.354 64.639 173.32 64.5739 173.307 64.5033C173.294 64.4326 173.302 64.3597 173.33 64.2937C173.359 64.2277 173.406 64.1717 173.467 64.1328C173.527 64.0939 173.598 64.0739 173.669 64.0753C173.717 64.0753 173.763 64.0847 173.807 64.1029C173.85 64.1212 173.89 64.1479 173.923 64.1816C173.956 64.2153 173.982 64.2553 173.999 64.2991C174.017 64.343 174.025 64.3899 174.024 64.437Z" fill="white"/>
<path d="M179.172 64.7851C179.372 64.7851 179.534 64.6231 179.534 64.4233C179.534 64.2235 179.372 64.0615 179.172 64.0615C178.973 64.0615 178.811 64.2235 178.811 64.4233C178.811 64.6231 178.973 64.7851 179.172 64.7851Z" fill="white"/>
<path d="M176.416 60.6806C176.616 60.6806 176.778 60.5186 176.778 60.3188C176.778 60.119 176.616 59.957 176.416 59.957C176.217 59.957 176.055 60.119 176.055 60.3188C176.055 60.5186 176.217 60.6806 176.416 60.6806Z" fill="white"/>
<path d="M181.941 59.9641C181.941 60.1937 181.941 60.4372 181.941 60.6598C181.887 60.6752 181.83 60.6779 181.775 60.6676C181.72 60.6574 181.668 60.6345 181.623 60.6008C181.579 60.5671 181.542 60.5234 181.517 60.4733C181.493 60.4232 181.479 60.368 181.479 60.312C181.479 60.256 181.493 60.2007 181.517 60.1506C181.542 60.1005 181.579 60.0569 181.623 60.0232C181.668 59.9894 181.72 59.9665 181.775 59.9563C181.83 59.9461 181.887 59.9487 181.941 59.9641Z" fill="white"/>
<path d="M168.522 72.5284C168.523 72.5867 168.509 72.6443 168.481 72.6954H167.861C167.825 72.6394 167.806 72.5742 167.806 72.5075C167.827 72.4319 167.873 72.3654 167.936 72.3181C167.998 72.2707 168.075 72.2451 168.154 72.2451C168.232 72.2451 168.309 72.2707 168.371 72.3181C168.434 72.3654 168.48 72.4319 168.501 72.5075L168.522 72.5284Z" fill="white"/>
<path d="M174.023 72.5075H173.327C173.349 72.4319 173.394 72.3654 173.457 72.3181C173.52 72.2707 173.596 72.2451 173.675 72.2451C173.754 72.2451 173.83 72.2707 173.893 72.3181C173.956 72.3654 174.001 72.4319 174.023 72.5075Z" fill="white"/>
<path d="M179.465 72.3272H178.866C178.898 72.2741 178.943 72.2301 178.996 72.1996C179.05 72.1691 179.111 72.1532 179.172 72.1533C179.232 72.1561 179.289 72.1735 179.34 72.2038C179.391 72.2341 179.434 72.2765 179.465 72.3272Z" fill="white"/>
<path d="M170.914 68.7929C171.113 68.7929 171.275 68.6309 171.275 68.4311C171.275 68.2313 171.113 68.0693 170.914 68.0693C170.714 68.0693 170.552 68.2313 170.552 68.4311C170.552 68.6309 170.714 68.7929 170.914 68.7929Z" fill="white"/>
<path d="M176.416 68.7929C176.616 68.7929 176.778 68.6309 176.778 68.4311C176.778 68.2313 176.616 68.0693 176.416 68.0693C176.217 68.0693 176.055 68.2313 176.055 68.4311C176.055 68.6309 176.217 68.7929 176.416 68.7929Z" fill="white"/>
<path d="M181.94 59.9638C181.94 60.1934 181.94 60.4369 181.94 60.6595C181.94 60.8821 181.94 61.0491 181.899 61.2578C181.582 64.9762 180.971 68.6636 180.069 72.2849H179.457H178.858L173.989 72.4449H173.293L168.465 72.6049H167.845L166.071 72.6606L176.834 56.36C179.387 55.0034 181.892 55.7965 181.94 59.9638Z" fill="#263238"/>
<path d="M147.539 238.505C149.257 238.213 191 215.895 192.064 214.037C192.468 213.341 189.574 207.08 185.858 199.587C185.051 197.973 184.217 196.31 183.354 194.627C177.788 183.69 171.61 172.218 171.61 172.218L143.643 187.071L156.165 209.07L158.907 213.905C158.907 213.905 146.739 229.6 145.799 231.757C144.86 233.914 145.82 238.798 147.539 238.505Z" fill="#EB9481"/>
<path d="M147.538 238.506C149.256 238.213 190.999 215.895 192.063 214.037C192.55 213.175 188.174 204.103 183.353 194.627L156.158 209.07L158.899 213.905C158.899 213.905 146.738 229.6 145.799 231.757C144.859 233.914 145.819 238.798 147.538 238.506Z" fill="white"/>
<path d="M147.538 238.505C149.256 238.213 190.999 215.894 192.063 214.037C192.467 213.341 189.573 207.08 185.858 199.587L158.899 213.905C158.899 213.905 146.738 229.6 145.799 231.757C144.859 233.913 145.819 238.797 147.538 238.505Z" fill="#ED8D34"/>
<path d="M147.246 236.515C154.154 232.605 182.372 217.466 189.496 214.127C189.552 214.127 189.573 214.127 189.496 214.169C182.741 218.197 154.398 233.099 147.288 236.633C147.155 236.703 147.1 236.598 147.246 236.515Z" fill="#263238"/>
<path d="M147.678 228.82C148.445 228.383 149.294 228.11 150.172 228.019C151.05 227.928 151.937 228.021 152.777 228.291C154.296 228.76 155.573 229.8 156.34 231.192C156.34 231.234 156.284 231.276 156.256 231.234C155.278 229.975 153.917 229.068 152.379 228.649C150.841 228.23 149.208 228.322 147.727 228.91C147.671 228.931 147.622 228.855 147.678 228.82Z" fill="#263238"/>
<path d="M156.555 216.047C159.337 214.509 163.108 213.765 166.072 215.121C166.19 215.177 166.114 215.337 166.002 215.344C162.868 215.37 159.745 215.729 156.687 216.416C156.638 216.433 156.584 216.43 156.537 216.408C156.49 216.386 156.454 216.346 156.436 216.297C156.419 216.248 156.421 216.194 156.444 216.148C156.466 216.101 156.506 216.064 156.555 216.047Z" fill="#263238"/>
<path d="M154.844 218.05C157.626 216.512 161.397 215.761 164.361 217.125C164.479 217.173 164.403 217.34 164.291 217.34C161.157 217.365 158.033 217.727 154.976 218.419C154.952 218.427 154.926 218.431 154.9 218.43C154.875 218.429 154.849 218.422 154.826 218.411C154.803 218.4 154.782 218.385 154.765 218.366C154.747 218.347 154.734 218.325 154.725 218.3C154.717 218.276 154.713 218.25 154.714 218.225C154.715 218.199 154.722 218.174 154.733 218.151C154.744 218.127 154.759 218.106 154.778 218.089C154.797 218.072 154.819 218.059 154.844 218.05Z" fill="#263238"/>
<path d="M153.133 220.048C155.916 218.51 159.686 217.766 162.65 219.122C162.768 219.178 162.692 219.338 162.58 219.338C159.446 219.363 156.323 219.725 153.265 220.417C153.216 220.434 153.162 220.431 153.115 220.409C153.068 220.387 153.032 220.347 153.014 220.298C152.997 220.249 153 220.195 153.022 220.149C153.044 220.102 153.084 220.065 153.133 220.048Z" fill="#263238"/>
<path d="M151.42 222.044C154.202 220.506 157.973 219.762 160.937 221.119C161.055 221.174 160.979 221.334 160.867 221.341C157.732 221.366 154.609 221.728 151.552 222.42C151.505 222.428 151.456 222.419 151.415 222.395C151.373 222.371 151.342 222.333 151.326 222.288C151.31 222.243 151.311 222.193 151.328 222.149C151.345 222.104 151.377 222.067 151.42 222.044Z" fill="#263238"/>
<path d="M184.16 208.45C187.304 206.78 189.906 211.671 186.755 213.32C183.603 214.969 181.008 210.106 184.16 208.45Z" fill="#263238"/>
<path d="M151.949 214.182C154.503 215.323 157.46 215.316 160.194 215.629C160.255 215.632 160.316 215.62 160.371 215.594C160.427 215.568 160.475 215.529 160.513 215.481C160.55 215.433 160.576 215.376 160.587 215.316C160.598 215.256 160.594 215.194 160.576 215.135C160.588 215.131 160.599 215.124 160.608 215.115C160.617 215.106 160.624 215.095 160.628 215.083C160.632 215.071 160.633 215.058 160.631 215.045C160.63 215.032 160.625 215.02 160.618 215.01C159.038 212.551 156.841 210.551 154.245 209.208C152.722 208.456 150.322 208.261 149.528 210.196C148.735 212.13 150.454 213.514 151.949 214.182ZM150.558 211.928C149.208 208.735 153.209 209.604 154.308 210.202C155.017 210.603 155.699 211.051 156.346 211.545C157.703 212.547 158.893 213.723 160.138 214.85C158.809 214.613 157.466 214.495 156.131 214.307C154.551 214.085 151.33 213.688 150.579 211.928H150.558Z" fill="#263238"/>
<path d="M169.613 207.9C168.417 206.189 166.135 206.912 164.792 207.983C162.558 209.867 160.857 212.305 159.859 215.052C159.855 215.064 159.854 215.077 159.855 215.089C159.856 215.102 159.86 215.114 159.867 215.124C159.874 215.135 159.883 215.144 159.894 215.151C159.904 215.158 159.916 215.162 159.929 215.163C159.926 215.224 159.938 215.285 159.963 215.341C159.987 215.398 160.025 215.447 160.072 215.486C160.119 215.525 160.175 215.553 160.235 215.567C160.294 215.581 160.356 215.581 160.416 215.567C163.011 214.655 165.898 214.001 168.131 212.325C169.419 211.344 170.74 209.521 169.613 207.9ZM164.048 213.382C162.781 213.862 161.501 214.273 160.249 214.774C161.216 213.382 162.121 211.991 163.227 210.711C163.748 210.087 164.311 209.499 164.91 208.951C165.85 208.123 169.565 206.39 168.952 209.806C168.632 211.713 165.571 212.812 164.068 213.382H164.048Z" fill="#263238"/>
<path d="M163.157 147.226C163.853 155.373 182.595 191.056 182.595 191.056L157.96 203.405L153.027 205.882C153.027 205.882 130.229 165.691 131.46 147.602C132.511 132.255 159.08 112.914 175.422 94.0322H197.449C190.491 115.439 165.001 139.073 163.22 146.287C163.153 146.596 163.132 146.912 163.157 147.226Z" fill="#455A64"/>
<path d="M153 199.956C157.87 197.361 156.416 198.042 161.286 195.503C163.672 194.258 175.638 187.989 178.052 187.196C178.065 187.193 178.078 187.194 178.09 187.199C178.101 187.205 178.111 187.214 178.116 187.225C178.122 187.237 178.124 187.25 178.121 187.262C178.118 187.274 178.111 187.286 178.101 187.294C176.014 188.782 163.943 194.8 161.536 195.997C156.625 198.446 158.009 197.694 153.069 200.088C153.061 200.095 153.05 200.1 153.039 200.103C153.028 200.106 153.017 200.107 153.005 200.105C152.994 200.102 152.983 200.098 152.974 200.091C152.965 200.084 152.958 200.075 152.952 200.065C152.947 200.055 152.944 200.044 152.943 200.032C152.943 200.021 152.945 200.009 152.95 199.999C152.954 199.988 152.961 199.979 152.97 199.971C152.979 199.964 152.989 199.959 153 199.956Z" fill="#263238"/>
<path d="M194.861 97.3588C187.873 109.182 179.963 120.436 171.207 131.017C169.064 133.592 166.852 136.096 164.633 138.608C162.754 140.695 160.855 143.081 160.493 145.989C160.096 149.231 161.509 152.383 162.643 155.333C163.895 158.588 165.161 161.837 166.483 165.073C167.916 168.551 169.412 172.03 171.075 175.376C171.928 177.101 172.821 178.806 173.753 180.49C174.217 181.329 174.697 182.164 175.193 182.994C175.437 183.412 177.162 186.257 177.413 186.674C177.496 186.807 177.705 186.967 177.496 186.619C177.023 185.84 175.096 182.611 174.651 181.818C172.898 178.688 171.332 175.467 169.85 172.197C168.369 168.927 166.949 165.532 165.614 162.158C164.278 158.783 162.9 155.472 161.766 152.097C161.096 150.37 160.763 148.531 160.785 146.678C160.932 144.89 161.567 143.176 162.622 141.724C164.514 138.942 167.047 136.52 169.224 133.953C173.751 128.624 178.051 123.114 182.123 117.423C186.753 110.986 191.044 104.312 194.98 97.4284C194.98 97.3518 194.896 97.3101 194.861 97.3588Z" fill="#263238"/>
<path d="M182.596 191.056L157.961 203.405L163.158 147.227C163.854 155.373 182.596 191.056 182.596 191.056Z" fill="#263238"/>
<path d="M173.335 282.196C175.082 282.196 219.997 267.238 221.34 265.589C221.854 264.963 220.059 258.298 217.659 250.283C217.144 248.558 216.595 246.805 216.031 244.975C212.386 233.259 208.239 220.903 208.239 220.903L178.164 230.824L186.79 254.618L188.676 259.842C188.676 259.842 174.066 273.263 172.751 275.232C171.436 277.2 171.596 282.154 173.335 282.196Z" fill="#EB9481"/>
<path d="M173.336 282.195C175.082 282.195 219.997 267.237 221.34 265.588C221.966 264.823 219.183 255.153 216.032 244.988L186.812 254.631L188.697 259.856C188.697 259.856 174.087 273.276 172.772 275.245C171.457 277.214 171.597 282.153 173.336 282.195Z" fill="white"/>
<path d="M173.335 282.196C175.082 282.196 219.997 267.238 221.34 265.589C221.854 264.963 220.059 258.298 217.659 250.283L188.676 259.842C188.676 259.842 174.066 273.263 172.751 275.231C171.436 277.2 171.596 282.154 173.335 282.196Z" fill="#ED8D34"/>
<path d="M173.383 280.143C180.848 277.457 211.222 267.3 218.806 265.213C218.868 265.213 218.882 265.213 218.806 265.255C211.466 268.086 181.015 277.993 173.41 280.268C173.264 280.317 173.223 280.205 173.383 280.143Z" fill="#263238"/>
<path d="M175.109 272.636C175.938 272.335 176.821 272.209 177.701 272.266C178.581 272.324 179.44 272.564 180.223 272.97C181.643 273.695 182.728 274.942 183.249 276.449C183.249 276.49 183.179 276.518 183.159 276.449C182.407 275.043 181.219 273.918 179.774 273.245C178.329 272.571 176.704 272.384 175.144 272.713C175.081 272.74 175.047 272.657 175.109 272.636Z" fill="#263238"/>
<path d="M186.01 261.546C189.009 260.496 192.856 260.398 195.548 262.242C195.653 262.311 195.548 262.457 195.444 262.444C192.35 261.938 189.21 261.766 186.08 261.929C186.03 261.935 185.981 261.922 185.941 261.892C185.901 261.863 185.873 261.819 185.864 261.77C185.856 261.721 185.866 261.671 185.893 261.629C185.92 261.588 185.962 261.558 186.01 261.546Z" fill="#263238"/>
<path d="M183.986 263.224C186.984 262.18 190.831 262.083 193.524 263.919C193.628 263.996 193.524 264.142 193.42 264.121C190.325 263.618 187.186 263.448 184.055 263.613C184.009 263.612 183.964 263.595 183.928 263.565C183.893 263.535 183.869 263.493 183.861 263.447C183.852 263.401 183.86 263.354 183.883 263.313C183.906 263.272 183.942 263.241 183.986 263.224Z" fill="#263238"/>
<path d="M181.941 264.906C184.939 263.863 188.787 263.759 191.479 265.602C191.583 265.672 191.479 265.818 191.382 265.804C188.285 265.301 185.143 265.131 182.01 265.296C181.964 265.295 181.919 265.278 181.883 265.248C181.848 265.217 181.824 265.176 181.816 265.13C181.807 265.084 181.815 265.037 181.838 264.996C181.861 264.955 181.897 264.924 181.941 264.906Z" fill="#263238"/>
<path d="M179.938 266.591C182.936 265.54 186.784 265.443 189.476 267.287C189.58 267.356 189.476 267.502 189.379 267.488C186.282 266.983 183.14 266.81 180.007 266.974C179.958 266.98 179.908 266.967 179.868 266.937C179.828 266.908 179.801 266.864 179.792 266.815C179.783 266.766 179.793 266.716 179.82 266.674C179.848 266.632 179.889 266.603 179.938 266.591Z" fill="#263238"/>
<path d="M214.506 258.694C217.894 257.581 219.634 262.868 216.239 263.954C212.843 265.039 211.118 259.814 214.506 258.694Z" fill="#263238"/>
<path d="M181.788 258.924C184.112 260.482 187.034 260.976 189.67 261.749C189.942 261.825 190.137 261.561 190.13 261.324C190.142 261.322 190.155 261.317 190.165 261.309C190.176 261.302 190.185 261.292 190.192 261.281C190.198 261.27 190.202 261.257 190.204 261.244C190.205 261.231 190.203 261.218 190.199 261.206C189.056 258.514 187.225 256.171 184.891 254.409C183.499 253.414 181.183 252.816 180.077 254.59C178.97 256.364 180.431 258.013 181.788 258.924ZM180.821 256.454C180.028 253.073 183.82 254.611 184.807 255.39C185.437 255.904 186.032 256.459 186.588 257.052C187.715 258.298 188.776 259.601 189.768 260.955C188.495 260.496 187.194 260.148 185.907 259.738C184.369 259.272 181.245 258.34 180.821 256.454Z" fill="#263238"/>
<path d="M200.26 255.758C199.369 253.866 196.983 254.186 195.494 255.02C192.975 256.501 190.887 258.617 189.442 261.157C189.435 261.168 189.43 261.18 189.429 261.193C189.428 261.206 189.43 261.219 189.434 261.232C189.439 261.244 189.447 261.255 189.456 261.263C189.466 261.272 189.478 261.278 189.49 261.282C189.456 261.511 189.616 261.804 189.901 261.755C192.614 261.296 195.564 261.143 198.055 259.863C199.509 259.083 201.102 257.504 200.26 255.758ZM193.866 260.217C192.538 260.475 191.209 260.67 189.887 260.976C191.077 259.779 192.204 258.541 193.505 257.497C194.123 256.969 194.779 256.485 195.467 256.05C196.531 255.389 200.483 254.304 199.307 257.574C198.639 259.306 195.453 259.876 193.866 260.183V260.217Z" fill="#263238"/>
<path d="M183.479 252.03L216.031 241.302C216.031 241.302 200.391 196.268 196.669 173.664C194.707 161.775 203.953 128.005 207.237 124.589C215.627 115.858 216.003 106.723 209.93 93.9775H182.456C182.456 93.9775 184.139 107.46 183.903 107.996C177.767 121.903 159.956 153.099 162.851 176.447C167.568 214.565 183.479 252.03 183.479 252.03Z" fill="#455A64"/>
<path d="M182.511 245.323C189.203 242.637 210.562 235.659 212.934 235.256C212.99 235.256 213.018 235.332 212.969 235.353C210.882 236.508 199.667 240.342 182.559 245.469C182.55 245.472 182.54 245.473 182.53 245.473C182.519 245.472 182.51 245.469 182.501 245.465C182.492 245.46 182.483 245.454 182.477 245.446C182.47 245.439 182.465 245.43 182.462 245.42C182.459 245.411 182.457 245.401 182.458 245.39C182.459 245.38 182.462 245.37 182.466 245.361C182.471 245.352 182.477 245.344 182.485 245.338C182.492 245.331 182.501 245.326 182.511 245.323Z" fill="#263238"/>
<path d="M181.768 94.5268C182.213 98.054 182.352 104.1 184.405 104.1C186.457 104.1 185.754 96.7252 185.733 95.0555C185.733 93.511 186.248 93.6989 186.394 95.5147C186.777 100.426 186.854 104.775 184.224 104.698C181.594 104.622 181.246 96.9548 181.246 95.2086C181.246 94.3041 181.629 93.4136 181.768 94.5268Z" fill="#263238"/>
<path d="M184.279 104.336C184.464 105.571 184.495 106.823 184.37 108.065C184.37 108.17 183.946 108.107 183.904 108.03C183.632 107.529 183.716 105.101 183.619 104.454C183.603 104.367 183.623 104.276 183.674 104.203C183.724 104.13 183.802 104.081 183.89 104.065C183.977 104.049 184.068 104.069 184.141 104.12C184.214 104.171 184.264 104.249 184.279 104.336Z" fill="#263238"/>
<path d="M183.904 108.031C178.867 116.79 171.506 133.313 170.998 136.36C170.998 136.513 171.137 136.59 171.2 136.437C172.348 133.654 180.021 117.019 184.37 108.065C184.46 107.892 183.987 107.878 183.904 108.031Z" fill="#263238"/>
<path d="M197.776 146.921C199.96 138.482 202.52 129.994 206.973 122.439C208.204 120.352 209.693 118.411 210.855 116.289C211.956 114.316 212.558 112.105 212.608 109.846C212.699 104.976 210.625 100.357 208.615 96.0364C208.559 95.9112 208.371 96.0364 208.434 96.1547C210.368 100.329 212.386 104.844 212.351 109.547C212.332 111.858 211.724 114.126 210.584 116.136C209.554 117.993 208.274 119.698 207.175 121.506C202.694 128.839 200.016 137.09 197.824 145.356C195.494 154.17 192.718 163.235 193.824 172.44C194.484 176.988 195.463 181.484 196.753 185.895C197.998 190.57 199.299 195.231 200.621 199.892C203.585 210.328 206.555 220.833 210.006 231.144C210.006 231.179 210.083 231.144 210.069 231.144C207.335 221.793 204.427 212.506 201.783 203.128C200.475 198.466 199.195 193.798 197.943 189.123C196.697 184.462 195.348 179.807 194.534 175.049C193.695 170.23 193.709 165.301 194.575 160.487C195.396 155.903 196.614 151.401 197.776 146.921Z" fill="#263238"/>
<path d="M211.044 94.7492C209.755 95.5072 208.419 96.1811 207.043 96.7668L206.389 97.0311C202.561 98.5325 198.552 99.5265 194.465 99.9879C182.241 101.477 170.706 98.9304 169.732 97.3442L171.033 84.9953L171.103 84.2996L171.277 82.6229C171.277 82.6229 168.257 78.7547 168.097 74.2744C168.09 73.7906 168.137 73.3076 168.237 72.8342C168.271 72.6255 168.32 72.4099 168.376 72.1803C169.266 68.5626 172.146 63.2056 174.602 59.4905C175.394 58.2407 176.285 57.0565 177.267 55.9493C180.05 53.0203 183.16 52.3524 186.214 53.1664C187.612 53.5723 188.933 54.207 190.124 55.0449C193.036 57.1584 195.514 59.8135 197.422 62.8647C199.62 66.225 201.958 71.1506 204.059 76.125C204.135 76.2989 204.205 76.4728 204.274 76.6467C208.052 85.7328 211.044 94.7492 211.044 94.7492Z" fill="#ED8D34"/>
<path d="M179.535 56.311C179.535 56.4069 179.497 56.499 179.429 56.5668C179.361 56.6346 179.269 56.6728 179.173 56.6728C179.102 56.6728 179.032 56.6515 178.972 56.6118C178.913 56.572 178.866 56.5155 178.839 56.4494C178.812 56.3833 178.805 56.3106 178.818 56.2404C178.832 56.1702 178.867 56.1058 178.918 56.0552C178.968 56.0046 179.033 55.9701 179.103 55.9562C179.173 55.9422 179.246 55.9494 179.312 55.9768C179.378 56.0041 179.434 56.0505 179.474 56.11C179.514 56.1695 179.535 56.2394 179.535 56.311ZM184.676 55.9562C184.605 55.9562 184.534 55.9776 184.475 56.0177C184.415 56.0577 184.369 56.1146 184.342 56.1812C184.314 56.2477 184.308 56.3208 184.322 56.3911C184.337 56.4615 184.372 56.5259 184.423 56.5762C184.474 56.6265 184.54 56.6604 184.61 56.6736C184.681 56.6868 184.754 56.6786 184.82 56.6501C184.886 56.6217 184.942 56.5742 184.981 56.5138C185.02 56.4534 185.04 56.3828 185.038 56.311C185.038 56.2638 185.029 56.2171 185.011 56.1736C184.992 56.1301 184.965 56.0906 184.932 56.0576C184.898 56.0246 184.858 55.9986 184.814 55.9812C184.77 55.9637 184.724 55.9552 184.676 55.9562ZM190.186 55.9562C190.114 55.9548 190.043 55.975 189.983 56.0142C189.922 56.0535 189.875 56.1099 189.847 56.1763C189.818 56.2426 189.811 56.316 189.824 56.3868C189.838 56.4576 189.873 56.5227 189.924 56.5737C189.975 56.6247 190.04 56.6593 190.111 56.673C190.181 56.6868 190.255 56.679 190.321 56.6508C190.388 56.6225 190.444 56.5751 190.483 56.5146C190.522 56.454 190.543 56.3831 190.541 56.311C190.541 56.2169 190.504 56.1266 190.437 56.0601C190.371 55.9936 190.281 55.9562 190.186 55.9562ZM173.67 64.0612C173.623 64.0612 173.576 64.0706 173.532 64.0888C173.488 64.107 173.448 64.1336 173.414 64.1672C173.381 64.2008 173.354 64.2407 173.336 64.2846C173.318 64.3285 173.308 64.3755 173.308 64.423C173.293 64.4768 173.29 64.5335 173.301 64.5886C173.311 64.6436 173.334 64.6955 173.367 64.7402C173.401 64.7849 173.445 64.8212 173.495 64.8462C173.545 64.8711 173.6 64.8841 173.656 64.8841C173.712 64.8841 173.768 64.8711 173.818 64.8462C173.868 64.8212 173.911 64.7849 173.945 64.7402C173.979 64.6955 174.002 64.6436 174.012 64.5886C174.022 64.5335 174.02 64.4768 174.004 64.423C174.006 64.3312 173.972 64.2422 173.91 64.1748C173.848 64.1073 173.762 64.0666 173.67 64.0612ZM179.173 64.0612C179.126 64.0612 179.079 64.0706 179.035 64.0888C178.991 64.107 178.951 64.1336 178.918 64.1672C178.884 64.2008 178.857 64.2407 178.839 64.2846C178.821 64.3285 178.812 64.3755 178.812 64.423C178.812 64.5189 178.85 64.611 178.918 64.6788C178.985 64.7467 179.077 64.7848 179.173 64.7848C179.269 64.783 179.36 64.7443 179.427 64.6768C179.495 64.6094 179.533 64.5184 179.535 64.423C179.535 64.3743 179.525 64.3261 179.506 64.2813C179.487 64.2364 179.459 64.1959 179.424 64.1621C179.389 64.1284 179.348 64.102 179.302 64.0847C179.257 64.0673 179.208 64.0594 179.159 64.0612H179.173ZM184.676 64.0612C184.629 64.0612 184.582 64.0706 184.539 64.0889C184.495 64.1072 184.456 64.1339 184.423 64.1676C184.39 64.2013 184.364 64.2412 184.347 64.2851C184.329 64.3289 184.321 64.3758 184.322 64.423C184.322 64.4948 184.343 64.5651 184.383 64.6247C184.423 64.6843 184.48 64.7307 184.547 64.7579C184.613 64.785 184.686 64.7918 184.757 64.7772C184.827 64.7627 184.891 64.7275 184.942 64.6762C184.992 64.625 185.026 64.5598 185.039 64.4892C185.052 64.4186 185.044 64.3456 185.016 64.2797C184.987 64.2137 184.94 64.1577 184.879 64.1188C184.819 64.0799 184.748 64.0599 184.676 64.0612ZM190.186 64.0612C190.139 64.0612 190.092 64.0706 190.048 64.0888C190.004 64.107 189.964 64.1336 189.931 64.1672C189.897 64.2008 189.87 64.2407 189.852 64.2846C189.834 64.3285 189.825 64.3755 189.825 64.423C189.809 64.4768 189.807 64.5335 189.817 64.5886C189.827 64.6436 189.85 64.6955 189.884 64.7402C189.917 64.7849 189.961 64.8212 190.011 64.8462C190.061 64.8711 190.117 64.8841 190.173 64.8841C190.229 64.8841 190.284 64.8711 190.334 64.8462C190.384 64.8212 190.428 64.7849 190.461 64.7402C190.495 64.6955 190.518 64.6436 190.528 64.5886C190.538 64.5335 190.536 64.4768 190.52 64.423C190.522 64.3312 190.489 64.2422 190.426 64.1748C190.364 64.1073 190.278 64.0666 190.186 64.0612ZM195.69 64.0612C195.642 64.0612 195.595 64.0706 195.551 64.0888C195.507 64.107 195.467 64.1336 195.434 64.1672C195.4 64.2008 195.373 64.2407 195.355 64.2846C195.337 64.3285 195.328 64.3755 195.328 64.423C195.328 64.5189 195.366 64.611 195.434 64.6788C195.502 64.7467 195.594 64.7848 195.69 64.7848C195.785 64.783 195.876 64.7443 195.943 64.6768C196.011 64.6094 196.05 64.5184 196.051 64.423C196.051 64.3755 196.042 64.3285 196.024 64.2846C196.006 64.2407 195.979 64.2008 195.945 64.1672C195.912 64.1336 195.872 64.107 195.828 64.0888C195.784 64.0706 195.737 64.0612 195.69 64.0612ZM176.418 59.9635C176.346 59.9635 176.276 59.9849 176.217 60.025C176.157 60.065 176.111 60.122 176.083 60.1885C176.056 60.255 176.05 60.3281 176.064 60.3984C176.079 60.4688 176.114 60.5332 176.165 60.5835C176.216 60.6338 176.281 60.6677 176.352 60.6809C176.423 60.6941 176.496 60.6859 176.562 60.6574C176.628 60.629 176.684 60.5815 176.722 60.5211C176.761 60.4607 176.781 60.3901 176.78 60.3183C176.78 60.2711 176.771 60.2244 176.752 60.1809C176.734 60.1374 176.707 60.098 176.674 60.0649C176.64 60.0319 176.6 60.0059 176.556 59.9885C176.512 59.9711 176.465 59.9626 176.418 59.9635ZM181.928 59.9635C181.856 59.9621 181.785 59.9823 181.725 60.0215C181.664 60.0608 181.617 60.1172 181.589 60.1836C181.56 60.2499 181.553 60.3233 181.566 60.3941C181.58 60.4649 181.615 60.53 181.666 60.581C181.717 60.632 181.782 60.6666 181.853 60.6803C181.923 60.6941 181.997 60.6863 182.063 60.6581C182.129 60.6298 182.186 60.5824 182.225 60.5219C182.264 60.4613 182.285 60.3904 182.283 60.3183C182.283 60.2266 182.248 60.1384 182.184 60.0722C182.121 60.006 182.034 59.9671 181.942 59.9635H181.928ZM187.431 59.9635C187.378 59.9481 187.321 59.9454 187.266 59.9557C187.211 59.9659 187.159 59.9888 187.114 60.0225C187.069 60.0562 187.033 60.0999 187.008 60.15C186.983 60.2001 186.97 60.2554 186.97 60.3113C186.97 60.3673 186.983 60.4226 187.008 60.4727C187.033 60.5228 187.069 60.5664 187.114 60.6002C187.159 60.6339 187.211 60.6568 187.266 60.667C187.321 60.6772 187.378 60.6746 187.431 60.6592C187.485 60.6746 187.542 60.6772 187.597 60.667C187.652 60.6568 187.704 60.6339 187.749 60.6002C187.793 60.5664 187.83 60.5228 187.855 60.4727C187.88 60.4226 187.893 60.3673 187.893 60.3113C187.893 60.2554 187.88 60.2001 187.855 60.15C187.83 60.0999 187.793 60.0562 187.749 60.0225C187.704 59.9888 187.652 59.9659 187.597 59.9557C187.542 59.9454 187.485 59.9481 187.431 59.9635ZM192.934 59.9635C192.863 59.9635 192.792 59.9849 192.733 60.025C192.673 60.065 192.627 60.122 192.6 60.1885C192.572 60.255 192.566 60.3281 192.58 60.3984C192.595 60.4688 192.63 60.5332 192.681 60.5835C192.733 60.6338 192.798 60.6677 192.868 60.6809C192.939 60.6941 193.012 60.6859 193.078 60.6574C193.144 60.629 193.2 60.5815 193.239 60.5211C193.278 60.4607 193.298 60.3901 193.296 60.3183C193.296 60.2711 193.287 60.2244 193.269 60.1809C193.25 60.1374 193.224 60.098 193.19 60.0649C193.156 60.0319 193.116 60.0059 193.072 59.9885C193.029 59.9711 192.982 59.9626 192.934 59.9635ZM168.355 72.2289C168.299 72.4585 168.251 72.6742 168.216 72.8829C168.301 72.871 168.379 72.8285 168.436 72.7632C168.492 72.6979 168.523 72.6143 168.522 72.5281C168.522 72.468 168.507 72.4089 168.478 72.3565C168.449 72.3041 168.406 72.2601 168.355 72.2289ZM173.67 72.1732C173.598 72.1719 173.527 72.1921 173.467 72.2313C173.406 72.2705 173.359 72.3269 173.33 72.3933C173.302 72.4597 173.294 72.533 173.308 72.6038C173.322 72.6747 173.357 72.7397 173.408 72.7908C173.459 72.8418 173.524 72.8764 173.594 72.8901C173.665 72.9038 173.739 72.8961 173.805 72.8678C173.871 72.8396 173.928 72.7922 173.967 72.7316C174.006 72.6711 174.026 72.6002 174.025 72.5281C174.025 72.434 173.988 72.3437 173.921 72.2772C173.855 72.2106 173.764 72.1732 173.67 72.1732ZM179.173 72.1732C179.119 72.1579 179.063 72.1552 179.008 72.1654C178.953 72.1757 178.901 72.1986 178.856 72.2323C178.811 72.266 178.775 72.3096 178.75 72.3598C178.725 72.4099 178.712 72.4651 178.712 72.5211C178.712 72.5771 178.725 72.6323 178.75 72.6824C178.775 72.7326 178.811 72.7762 178.856 72.8099C178.901 72.8436 178.953 72.8665 179.008 72.8768C179.063 72.887 179.119 72.8843 179.173 72.869C179.227 72.8843 179.284 72.887 179.339 72.8768C179.394 72.8665 179.446 72.8436 179.491 72.8099C179.535 72.7762 179.572 72.7326 179.596 72.6824C179.621 72.6323 179.634 72.5771 179.634 72.5211C179.634 72.4651 179.621 72.4099 179.596 72.3598C179.572 72.3096 179.535 72.266 179.491 72.2323C179.446 72.1986 179.394 72.1757 179.339 72.1654C179.284 72.1552 179.227 72.1579 179.173 72.1732ZM184.676 72.1732C184.605 72.1733 184.534 72.1947 184.475 72.2347C184.415 72.2748 184.369 72.3317 184.342 72.3982C184.314 72.4647 184.308 72.5378 184.322 72.6082C184.337 72.6785 184.372 72.743 184.423 72.7933C184.474 72.8436 184.54 72.8775 184.61 72.8907C184.681 72.9038 184.754 72.8957 184.82 72.8672C184.886 72.8388 184.942 72.7913 184.981 72.7309C185.02 72.6705 185.04 72.5999 185.038 72.5281C185.038 72.4809 185.029 72.4342 185.011 72.3906C184.992 72.3471 184.965 72.3077 184.932 72.2747C184.898 72.2416 184.858 72.2156 184.814 72.1982C184.77 72.1808 184.724 72.1723 184.676 72.1732ZM190.186 72.1732C190.114 72.1719 190.043 72.1921 189.983 72.2313C189.922 72.2705 189.875 72.3269 189.847 72.3933C189.818 72.4597 189.811 72.533 189.824 72.6038C189.838 72.6747 189.873 72.7397 189.924 72.7908C189.975 72.8418 190.04 72.8764 190.111 72.8901C190.181 72.9038 190.255 72.8961 190.321 72.8678C190.388 72.8396 190.444 72.7922 190.483 72.7316C190.522 72.6711 190.543 72.6002 190.541 72.5281C190.541 72.434 190.504 72.3437 190.437 72.2772C190.371 72.2106 190.281 72.1732 190.186 72.1732ZM195.69 72.1732C195.636 72.1579 195.579 72.1552 195.524 72.1654C195.469 72.1757 195.417 72.1986 195.372 72.2323C195.328 72.266 195.291 72.3096 195.266 72.3598C195.241 72.4099 195.228 72.4651 195.228 72.5211C195.228 72.5771 195.241 72.6323 195.266 72.6824C195.291 72.7326 195.328 72.7762 195.372 72.8099C195.417 72.8436 195.469 72.8665 195.524 72.8768C195.579 72.887 195.636 72.8843 195.69 72.869C195.743 72.8843 195.8 72.887 195.855 72.8768C195.91 72.8665 195.962 72.8436 196.007 72.8099C196.051 72.7762 196.088 72.7326 196.113 72.6824C196.138 72.6323 196.151 72.5771 196.151 72.5211C196.151 72.4651 196.138 72.4099 196.113 72.3598C196.088 72.3096 196.051 72.266 196.007 72.2323C195.962 72.1986 195.91 72.1757 195.855 72.1654C195.8 72.1552 195.743 72.1579 195.69 72.1732ZM201.193 72.1732C201.121 72.1733 201.051 72.1947 200.991 72.2347C200.931 72.2748 200.885 72.3317 200.858 72.3982C200.831 72.4647 200.824 72.5378 200.838 72.6082C200.853 72.6785 200.888 72.743 200.939 72.7933C200.991 72.8436 201.056 72.8775 201.126 72.8907C201.197 72.9038 201.27 72.8957 201.336 72.8672C201.402 72.8388 201.458 72.7913 201.497 72.7309C201.536 72.6705 201.556 72.5999 201.554 72.5281C201.554 72.4809 201.545 72.4342 201.527 72.3906C201.508 72.3471 201.482 72.3077 201.448 72.2747C201.414 72.2416 201.374 72.2156 201.331 72.1982C201.287 72.1808 201.24 72.1723 201.193 72.1732ZM170.915 68.0685C170.819 68.0685 170.727 68.1066 170.659 68.1745C170.592 68.2423 170.553 68.3344 170.553 68.4303C170.553 68.5263 170.592 68.6183 170.659 68.6861C170.727 68.754 170.819 68.7921 170.915 68.7921C171.011 68.7903 171.102 68.7516 171.169 68.6841C171.236 68.6167 171.275 68.5257 171.277 68.4303C171.277 68.3828 171.268 68.3358 171.249 68.2919C171.231 68.248 171.205 68.2081 171.171 68.1745C171.137 68.1409 171.098 68.1143 171.054 68.0961C171.01 68.0779 170.963 68.0685 170.915 68.0685ZM176.418 68.0685C176.371 68.0685 176.324 68.0779 176.281 68.0962C176.237 68.1145 176.198 68.1412 176.165 68.1749C176.132 68.2086 176.106 68.2485 176.088 68.2924C176.071 68.3362 176.063 68.3831 176.063 68.4303C176.063 68.5022 176.085 68.5724 176.125 68.632C176.165 68.6916 176.222 68.738 176.288 68.7652C176.355 68.7923 176.428 68.7991 176.498 68.7845C176.569 68.77 176.633 68.7349 176.684 68.6836C176.734 68.6323 176.768 68.5672 176.781 68.4965C176.794 68.4259 176.786 68.3529 176.757 68.287C176.729 68.221 176.682 68.165 176.621 68.1261C176.561 68.0872 176.49 68.0672 176.418 68.0685ZM181.928 68.0685C181.832 68.0685 181.74 68.1066 181.673 68.1745C181.605 68.2423 181.567 68.3344 181.567 68.4303C181.551 68.4842 181.549 68.5408 181.559 68.5959C181.569 68.6509 181.592 68.7028 181.626 68.7475C181.659 68.7922 181.703 68.8285 181.753 68.8535C181.803 68.8784 181.858 68.8914 181.914 68.8914C181.97 68.8914 182.026 68.8784 182.076 68.8535C182.126 68.8285 182.169 68.7922 182.203 68.7475C182.237 68.7028 182.26 68.6509 182.27 68.5959C182.28 68.5408 182.278 68.4842 182.262 68.4303C182.264 68.3407 182.233 68.2537 182.173 68.1866C182.114 68.1195 182.031 68.0773 181.942 68.0685H181.928ZM187.431 68.0685C187.335 68.0685 187.243 68.1066 187.176 68.1745C187.108 68.2423 187.07 68.3344 187.07 68.4303C187.07 68.5263 187.108 68.6183 187.176 68.6861C187.243 68.754 187.335 68.7921 187.431 68.7921C187.527 68.7903 187.618 68.7516 187.685 68.6841C187.753 68.6167 187.791 68.5257 187.793 68.4303C187.793 68.3828 187.784 68.3358 187.766 68.2919C187.747 68.248 187.721 68.2081 187.687 68.1745C187.654 68.1409 187.614 68.1143 187.57 68.0961C187.526 68.0779 187.479 68.0685 187.431 68.0685ZM192.934 68.0685C192.887 68.0685 192.841 68.0779 192.797 68.0962C192.754 68.1145 192.714 68.1412 192.681 68.1749C192.648 68.2086 192.622 68.2485 192.605 68.2924C192.587 68.3362 192.579 68.3831 192.58 68.4303C192.58 68.5022 192.601 68.5724 192.641 68.632C192.681 68.6916 192.738 68.738 192.805 68.7652C192.871 68.7923 192.944 68.7991 193.015 68.7845C193.085 68.77 193.149 68.7349 193.2 68.6836C193.25 68.6323 193.284 68.5672 193.297 68.4965C193.31 68.4259 193.302 68.3529 193.274 68.287C193.245 68.221 193.198 68.165 193.137 68.1261C193.077 68.0872 193.006 68.0672 192.934 68.0685ZM198.445 68.0685C198.349 68.0685 198.257 68.1066 198.189 68.1745C198.121 68.2423 198.083 68.3344 198.083 68.4303C198.067 68.4842 198.065 68.5408 198.075 68.5959C198.085 68.6509 198.108 68.7028 198.142 68.7475C198.176 68.7922 198.219 68.8285 198.269 68.8535C198.319 68.8784 198.375 68.8914 198.431 68.8914C198.487 68.8914 198.542 68.8784 198.592 68.8535C198.642 68.8285 198.686 68.7922 198.719 68.7475C198.753 68.7028 198.776 68.6509 198.786 68.5959C198.797 68.5408 198.794 68.4842 198.779 68.4303C198.78 68.3385 198.747 68.2495 198.684 68.1821C198.622 68.1146 198.536 68.0739 198.445 68.0685ZM173.67 80.2783C173.574 80.2783 173.482 80.3164 173.414 80.3843C173.347 80.4521 173.308 80.5441 173.308 80.6401C173.293 80.6939 173.29 80.7506 173.301 80.8056C173.311 80.8607 173.334 80.9126 173.367 80.9573C173.401 81.002 173.445 81.0383 173.495 81.0632C173.545 81.0882 173.6 81.1012 173.656 81.1012C173.712 81.1012 173.768 81.0882 173.818 81.0632C173.868 81.0383 173.911 81.002 173.945 80.9573C173.979 80.9126 174.002 80.8607 174.012 80.8056C174.022 80.7506 174.02 80.6939 174.004 80.6401C174.006 80.5483 173.972 80.4593 173.91 80.3918C173.848 80.3244 173.762 80.2837 173.67 80.2783ZM179.173 80.2783C179.077 80.2783 178.985 80.3164 178.918 80.3843C178.85 80.4521 178.812 80.5441 178.812 80.6401C178.812 80.736 178.85 80.828 178.918 80.8959C178.985 80.9637 179.077 81.0018 179.173 81.0018C179.269 81.0001 179.36 80.9614 179.427 80.8939C179.495 80.8264 179.533 80.7355 179.535 80.6401C179.535 80.5914 179.525 80.5432 179.506 80.4983C179.487 80.4535 179.459 80.413 179.424 80.3792C179.389 80.3454 179.348 80.3191 179.302 80.3017C179.257 80.2844 179.208 80.2764 179.159 80.2783H179.173ZM184.676 80.2783C184.629 80.2783 184.582 80.2877 184.539 80.306C184.495 80.3242 184.456 80.351 184.423 80.3847C184.39 80.4184 184.364 80.4583 184.347 80.5022C184.329 80.546 184.321 80.5929 184.322 80.6401C184.322 80.7119 184.343 80.7821 184.383 80.8418C184.423 80.9014 184.48 80.9478 184.547 80.9749C184.613 81.0021 184.686 81.0088 184.757 80.9943C184.827 80.9798 184.891 80.9446 184.942 80.8933C184.992 80.842 185.026 80.7769 185.039 80.7063C185.052 80.6357 185.044 80.5627 185.016 80.4967C184.987 80.4308 184.94 80.3748 184.879 80.3359C184.819 80.297 184.748 80.2769 184.676 80.2783ZM190.186 80.2783C190.09 80.2783 189.998 80.3164 189.931 80.3843C189.863 80.4521 189.825 80.5441 189.825 80.6401C189.809 80.6939 189.807 80.7506 189.817 80.8056C189.827 80.8607 189.85 80.9126 189.884 80.9573C189.917 81.002 189.961 81.0383 190.011 81.0632C190.061 81.0882 190.117 81.1012 190.173 81.1012C190.229 81.1012 190.284 81.0882 190.334 81.0632C190.384 81.0383 190.428 81.002 190.461 80.9573C190.495 80.9126 190.518 80.8607 190.528 80.8056C190.538 80.7506 190.536 80.6939 190.52 80.6401C190.522 80.5483 190.489 80.4593 190.426 80.3918C190.364 80.3244 190.278 80.2837 190.186 80.2783ZM195.69 80.2783C195.594 80.2783 195.502 80.3164 195.434 80.3843C195.366 80.4521 195.328 80.5441 195.328 80.6401C195.328 80.736 195.366 80.828 195.434 80.8959C195.502 80.9637 195.594 81.0018 195.69 81.0018C195.785 81.0001 195.876 80.9614 195.943 80.8939C196.011 80.8264 196.05 80.7355 196.051 80.6401C196.051 80.5926 196.042 80.5455 196.024 80.5016C196.006 80.4577 195.979 80.4179 195.945 80.3843C195.912 80.3507 195.872 80.324 195.828 80.3058C195.784 80.2877 195.737 80.2783 195.69 80.2783ZM201.193 80.2783C201.145 80.2783 201.099 80.2877 201.055 80.306C201.012 80.3242 200.972 80.351 200.939 80.3847C200.906 80.4184 200.88 80.4583 200.863 80.5022C200.845 80.546 200.837 80.5929 200.838 80.6401C200.838 80.7119 200.859 80.7821 200.899 80.8418C200.939 80.9014 200.996 80.9478 201.063 80.9749C201.129 81.0021 201.202 81.0088 201.273 80.9943C201.343 80.9798 201.408 80.9446 201.458 80.8933C201.508 80.842 201.542 80.7769 201.555 80.7063C201.568 80.6357 201.56 80.5627 201.532 80.4967C201.503 80.4308 201.456 80.3748 201.395 80.3359C201.335 80.297 201.264 80.2769 201.193 80.2783ZM170.915 76.1806C170.861 76.1652 170.805 76.1625 170.75 76.1727C170.695 76.183 170.643 76.2059 170.598 76.2396C170.553 76.2733 170.517 76.3169 170.492 76.3671C170.467 76.4172 170.454 76.4724 170.454 76.5284C170.454 76.5844 170.467 76.6396 170.492 76.6897C170.517 76.7399 170.553 76.7835 170.598 76.8172C170.643 76.8509 170.695 76.8738 170.75 76.8841C170.805 76.8943 170.861 76.8916 170.915 76.8763C170.969 76.8916 171.026 76.8943 171.081 76.8841C171.136 76.8738 171.188 76.8509 171.232 76.8172C171.277 76.7835 171.313 76.7399 171.338 76.6897C171.363 76.6396 171.376 76.5844 171.376 76.5284C171.376 76.4724 171.363 76.4172 171.338 76.3671C171.313 76.3169 171.277 76.2733 171.232 76.2396C171.188 76.2059 171.136 76.183 171.081 76.1727C171.026 76.1625 170.969 76.1652 170.915 76.1806ZM176.418 76.1806C176.346 76.1806 176.276 76.202 176.217 76.242C176.157 76.2821 176.111 76.339 176.083 76.4055C176.056 76.472 176.05 76.5451 176.064 76.6155C176.079 76.6859 176.114 76.7503 176.165 76.8006C176.216 76.8509 176.281 76.8848 176.352 76.898C176.423 76.9111 176.496 76.903 176.562 76.8745C176.628 76.8461 176.684 76.7986 176.722 76.7382C176.761 76.6778 176.781 76.6072 176.78 76.5354C176.78 76.4882 176.771 76.4415 176.752 76.398C176.734 76.3544 176.707 76.315 176.674 76.282C176.64 76.2489 176.6 76.2229 176.556 76.2055C176.512 76.1881 176.465 76.1796 176.418 76.1806ZM181.928 76.1806C181.856 76.1792 181.785 76.1994 181.725 76.2386C181.664 76.2778 181.617 76.3343 181.589 76.4006C181.56 76.467 181.553 76.5403 181.566 76.6111C181.58 76.682 181.615 76.7471 181.666 76.7981C181.717 76.8491 181.782 76.8837 181.853 76.8974C181.923 76.9111 181.997 76.9034 182.063 76.8752C182.129 76.8469 182.186 76.7995 182.225 76.7389C182.264 76.6784 182.285 76.6075 182.283 76.5354C182.283 76.4436 182.248 76.3554 182.184 76.2893C182.121 76.2231 182.034 76.1842 181.942 76.1806H181.928ZM187.431 76.1806C187.378 76.1652 187.321 76.1625 187.266 76.1727C187.211 76.183 187.159 76.2059 187.114 76.2396C187.069 76.2733 187.033 76.3169 187.008 76.3671C186.983 76.4172 186.97 76.4724 186.97 76.5284C186.97 76.5844 186.983 76.6396 187.008 76.6897C187.033 76.7399 187.069 76.7835 187.114 76.8172C187.159 76.8509 187.211 76.8738 187.266 76.8841C187.321 76.8943 187.378 76.8916 187.431 76.8763C187.485 76.8916 187.542 76.8943 187.597 76.8841C187.652 76.8738 187.704 76.8509 187.749 76.8172C187.793 76.7835 187.83 76.7399 187.855 76.6897C187.88 76.6396 187.893 76.5844 187.893 76.5284C187.893 76.4724 187.88 76.4172 187.855 76.3671C187.83 76.3169 187.793 76.2733 187.749 76.2396C187.704 76.2059 187.652 76.183 187.597 76.1727C187.542 76.1625 187.485 76.1652 187.431 76.1806ZM192.934 76.1806C192.863 76.1806 192.792 76.202 192.733 76.242C192.673 76.2821 192.627 76.339 192.6 76.4055C192.572 76.472 192.566 76.5451 192.58 76.6155C192.595 76.6859 192.63 76.7503 192.681 76.8006C192.733 76.8509 192.798 76.8848 192.868 76.898C192.939 76.9111 193.012 76.903 193.078 76.8745C193.144 76.8461 193.2 76.7986 193.239 76.7382C193.278 76.6778 193.298 76.6072 193.296 76.5354C193.296 76.4882 193.287 76.4415 193.269 76.398C193.25 76.3544 193.224 76.315 193.19 76.282C193.156 76.2489 193.116 76.2229 193.072 76.2055C193.029 76.1881 192.982 76.1796 192.934 76.1806ZM198.445 76.1806C198.372 76.1792 198.302 76.1994 198.241 76.2386C198.18 76.2778 198.133 76.3343 198.105 76.4006C198.077 76.467 198.069 76.5403 198.083 76.6111C198.096 76.682 198.131 76.7471 198.182 76.7981C198.233 76.8491 198.298 76.8837 198.369 76.8974C198.44 76.9111 198.513 76.9034 198.579 76.8752C198.646 76.8469 198.702 76.7995 198.741 76.7389C198.781 76.6784 198.801 76.6075 198.799 76.5354C198.799 76.4888 198.79 76.4426 198.772 76.3996C198.755 76.3565 198.728 76.3174 198.695 76.2845C198.662 76.2515 198.623 76.2254 198.58 76.2076C198.537 76.1897 198.491 76.1806 198.445 76.1806ZM204.01 76.1806H203.913C203.849 76.1798 203.786 76.1961 203.73 76.2277C203.674 76.2593 203.628 76.3051 203.596 76.3604C203.564 76.4158 203.547 76.4787 203.547 76.5427C203.547 76.6067 203.564 76.6696 203.596 76.7248C203.629 76.7801 203.675 76.8258 203.731 76.8573C203.787 76.8888 203.85 76.9049 203.914 76.904C203.978 76.9032 204.04 76.8853 204.095 76.8523C204.15 76.8193 204.195 76.7724 204.226 76.7162C204.205 76.5423 204.122 76.3684 204.045 76.1945L204.01 76.1806ZM173.635 88.3764C173.563 88.375 173.492 88.3952 173.432 88.4345C173.371 88.4737 173.324 88.5301 173.296 88.5965C173.267 88.6629 173.26 88.7362 173.273 88.807C173.287 88.8778 173.322 88.9429 173.373 88.9939C173.424 89.0449 173.489 89.0795 173.56 89.0932C173.63 89.107 173.704 89.0992 173.77 89.071C173.837 89.0428 173.893 88.9953 173.932 88.9348C173.971 88.8742 173.992 88.8033 173.99 88.7312C173.987 88.6452 173.953 88.5633 173.894 88.5006C173.835 88.4379 173.756 88.3987 173.67 88.3903L173.635 88.3764ZM179.139 88.3764C179.085 88.361 179.028 88.3583 178.973 88.3686C178.918 88.3788 178.866 88.4017 178.821 88.4354C178.777 88.4692 178.74 88.5128 178.715 88.5629C178.69 88.613 178.677 88.6683 178.677 88.7243C178.677 88.7802 178.69 88.8355 178.715 88.8856C178.74 88.9357 178.777 88.9793 178.821 89.0131C178.866 89.0468 178.918 89.0697 178.973 89.0799C179.028 89.0902 179.085 89.0875 179.139 89.0721C179.192 89.0875 179.249 89.0902 179.304 89.0799C179.359 89.0697 179.411 89.0468 179.456 89.0131C179.5 88.9793 179.537 88.9357 179.562 88.8856C179.587 88.8355 179.6 88.7802 179.6 88.7243C179.6 88.6683 179.587 88.613 179.562 88.5629C179.537 88.5128 179.5 88.4692 179.456 88.4354C179.411 88.4017 179.359 88.3788 179.304 88.3686C179.249 88.3583 179.192 88.361 179.139 88.3764ZM184.642 88.3764C184.57 88.3764 184.5 88.3978 184.44 88.4379C184.38 88.478 184.334 88.5349 184.307 88.6014C184.28 88.6679 184.273 88.741 184.287 88.8113C184.302 88.8817 184.337 88.9461 184.388 88.9965C184.44 89.0468 184.505 89.0806 184.575 89.0938C184.646 89.107 184.719 89.0988 184.785 89.0704C184.851 89.0419 184.907 88.9945 184.946 88.9341C184.985 88.8737 185.005 88.803 185.003 88.7312C185 88.6442 184.965 88.5613 184.905 88.4984C184.845 88.4356 184.763 88.3971 184.676 88.3903L184.642 88.3764ZM190.152 88.3764C190.08 88.375 190.009 88.3952 189.948 88.4345C189.888 88.4737 189.84 88.5301 189.812 88.5965C189.784 88.6629 189.776 88.7362 189.79 88.807C189.803 88.8778 189.838 88.9429 189.889 88.9939C189.94 89.0449 190.005 89.0795 190.076 89.0932C190.147 89.107 190.22 89.0992 190.286 89.071C190.353 89.0428 190.409 88.9953 190.448 88.9348C190.488 88.8742 190.508 88.8033 190.506 88.7312C190.504 88.6452 190.469 88.5633 190.411 88.5006C190.352 88.4379 190.272 88.3987 190.186 88.3903L190.152 88.3764ZM195.655 88.3764C195.601 88.361 195.544 88.3583 195.489 88.3686C195.434 88.3788 195.382 88.4017 195.338 88.4354C195.293 88.4692 195.257 88.5128 195.232 88.5629C195.207 88.613 195.194 88.6683 195.194 88.7243C195.194 88.7802 195.207 88.8355 195.232 88.8856C195.257 88.9357 195.293 88.9793 195.338 89.0131C195.382 89.0468 195.434 89.0697 195.489 89.0799C195.544 89.0902 195.601 89.0875 195.655 89.0721C195.709 89.0875 195.765 89.0902 195.82 89.0799C195.875 89.0697 195.927 89.0468 195.972 89.0131C196.017 88.9793 196.053 88.9357 196.078 88.8856C196.103 88.8355 196.116 88.7802 196.116 88.7243C196.116 88.6683 196.103 88.613 196.078 88.5629C196.053 88.5128 196.017 88.4692 195.972 88.4354C195.927 88.4017 195.875 88.3788 195.82 88.3686C195.765 88.3583 195.709 88.361 195.655 88.3764ZM201.158 88.3764C201.086 88.3764 201.016 88.3978 200.956 88.4379C200.896 88.478 200.85 88.5349 200.823 88.6014C200.796 88.6679 200.789 88.741 200.804 88.8113C200.818 88.8817 200.853 88.9461 200.905 88.9965C200.956 89.0468 201.021 89.0806 201.092 89.0938C201.162 89.107 201.235 89.0988 201.301 89.0704C201.367 89.0419 201.423 88.9945 201.462 88.9341C201.501 88.8737 201.521 88.803 201.52 88.7312C201.516 88.6442 201.481 88.5613 201.421 88.4984C201.361 88.4356 201.279 88.3971 201.193 88.3903L201.158 88.3764ZM206.668 88.3764C206.596 88.375 206.525 88.3952 206.464 88.4345C206.404 88.4737 206.356 88.5301 206.328 88.5965C206.3 88.6629 206.292 88.7362 206.306 88.807C206.32 88.8778 206.354 88.9429 206.405 88.9939C206.456 89.0449 206.521 89.0795 206.592 89.0932C206.663 89.107 206.736 89.0992 206.803 89.071C206.869 89.0428 206.925 88.9953 206.965 88.9348C207.004 88.8742 207.024 88.8033 207.023 88.7312C207.02 88.6452 206.986 88.5633 206.927 88.5006C206.868 88.4379 206.788 88.3987 206.703 88.3903L206.668 88.3764ZM170.88 84.2717C170.784 84.2717 170.692 84.3098 170.625 84.3777C170.557 84.4455 170.519 84.5375 170.519 84.6335C170.519 84.7294 170.557 84.8214 170.625 84.8893C170.692 84.9571 170.784 84.9952 170.88 84.9952C170.976 84.9935 171.067 84.9548 171.134 84.8873C171.202 84.8198 171.24 84.7288 171.242 84.6335C171.239 84.5457 171.204 84.4619 171.144 84.3979C171.084 84.3339 171.003 84.294 170.915 84.2856L170.88 84.2717ZM176.384 84.2717C176.336 84.2717 176.29 84.2811 176.246 84.2994C176.203 84.3176 176.163 84.3444 176.13 84.3781C176.097 84.4117 176.071 84.4517 176.054 84.4955C176.036 84.5394 176.028 84.5863 176.029 84.6335C176.029 84.7053 176.05 84.7755 176.09 84.8352C176.13 84.8948 176.187 84.9411 176.254 84.9683C176.32 84.9955 176.393 85.0022 176.464 84.9877C176.534 84.9732 176.598 84.938 176.649 84.8867C176.699 84.8354 176.733 84.7703 176.746 84.6997C176.759 84.6291 176.751 84.5561 176.723 84.4901C176.694 84.4242 176.647 84.3681 176.586 84.3292C176.526 84.2903 176.455 84.2703 176.384 84.2717ZM181.894 84.2717C181.798 84.2717 181.706 84.3098 181.638 84.3777C181.57 84.4455 181.532 84.5375 181.532 84.6335C181.516 84.6873 181.514 84.744 181.524 84.799C181.534 84.8541 181.557 84.906 181.591 84.9507C181.625 84.9954 181.668 85.0317 181.718 85.0566C181.768 85.0816 181.824 85.0946 181.88 85.0946C181.936 85.0946 181.991 85.0816 182.041 85.0566C182.091 85.0317 182.135 84.9954 182.168 84.9507C182.202 84.906 182.225 84.8541 182.235 84.799C182.246 84.744 182.243 84.6873 182.227 84.6335C182.227 84.5514 182.199 84.472 182.147 84.4086C182.095 84.3451 182.023 84.3017 181.942 84.2856L181.894 84.2717ZM187.397 84.2717C187.301 84.2717 187.209 84.3098 187.141 84.3777C187.073 84.4455 187.035 84.5375 187.035 84.6335C187.035 84.7294 187.073 84.8214 187.141 84.8893C187.209 84.9571 187.301 84.9952 187.397 84.9952C187.492 84.9935 187.583 84.9548 187.65 84.8873C187.718 84.8198 187.757 84.7288 187.758 84.6335C187.755 84.5457 187.721 84.4619 187.66 84.3979C187.6 84.3339 187.519 84.294 187.431 84.2856L187.397 84.2717ZM192.9 84.2717C192.853 84.2717 192.806 84.2811 192.762 84.2994C192.719 84.3176 192.679 84.3444 192.646 84.3781C192.613 84.4117 192.587 84.4517 192.57 84.4955C192.552 84.5394 192.544 84.5863 192.545 84.6335C192.545 84.7053 192.566 84.7755 192.606 84.8352C192.646 84.8948 192.703 84.9411 192.77 84.9683C192.836 84.9955 192.909 85.0022 192.98 84.9877C193.05 84.9732 193.115 84.938 193.165 84.8867C193.215 84.8354 193.249 84.7703 193.262 84.6997C193.275 84.6291 193.267 84.5561 193.239 84.4901C193.21 84.4242 193.163 84.3681 193.103 84.3292C193.042 84.2903 192.972 84.2703 192.9 84.2717ZM198.41 84.2717C198.314 84.2717 198.222 84.3098 198.154 84.3777C198.086 84.4455 198.048 84.5375 198.048 84.6335C198.033 84.6873 198.03 84.744 198.04 84.799C198.05 84.8541 198.073 84.906 198.107 84.9507C198.141 84.9954 198.184 85.0317 198.235 85.0566C198.285 85.0816 198.34 85.0946 198.396 85.0946C198.452 85.0946 198.507 85.0816 198.557 85.0566C198.607 85.0317 198.651 84.9954 198.685 84.9507C198.718 84.906 198.741 84.8541 198.752 84.799C198.762 84.744 198.759 84.6873 198.744 84.6335C198.743 84.5494 198.713 84.4684 198.658 84.4047C198.603 84.341 198.528 84.2988 198.445 84.2856L198.41 84.2717ZM203.913 84.2717C203.817 84.2717 203.725 84.3098 203.657 84.3777C203.589 84.4455 203.551 84.5375 203.551 84.6335C203.551 84.7294 203.589 84.8214 203.657 84.8893C203.725 84.9571 203.817 84.9952 203.913 84.9952C204.008 84.9935 204.099 84.9548 204.167 84.8873C204.234 84.8198 204.273 84.7288 204.275 84.6335C204.272 84.5457 204.237 84.4619 204.177 84.3979C204.117 84.3339 204.035 84.294 203.948 84.2856L203.913 84.2717ZM173.635 96.4814C173.588 96.4814 173.541 96.4908 173.497 96.509C173.453 96.5272 173.413 96.5538 173.38 96.5874C173.346 96.621 173.319 96.6609 173.301 96.7048C173.283 96.7487 173.274 96.7957 173.274 96.8432C173.258 96.8971 173.256 96.9537 173.266 97.0088C173.276 97.0638 173.299 97.1157 173.333 97.1605C173.366 97.2052 173.41 97.2414 173.46 97.2664C173.51 97.2914 173.566 97.3044 173.622 97.3044C173.678 97.3044 173.733 97.2914 173.783 97.2664C173.833 97.2414 173.877 97.2052 173.91 97.1605C173.944 97.1157 173.967 97.0638 173.977 97.0088C173.987 96.9537 173.985 96.8971 173.969 96.8432C173.969 96.7592 173.938 96.6781 173.884 96.6144C173.829 96.5507 173.753 96.5085 173.67 96.4954L173.635 96.4814ZM179.139 96.4814C179.043 96.4814 178.951 96.5196 178.883 96.5874C178.815 96.6553 178.777 96.7473 178.777 96.8432C178.777 96.9392 178.815 97.0312 178.883 97.099C178.951 97.1669 179.043 97.205 179.139 97.205C179.234 97.2032 179.325 97.1645 179.392 97.0971C179.46 97.0296 179.499 96.9386 179.5 96.8432C179.497 96.7532 179.46 96.6677 179.397 96.6033C179.334 96.539 179.249 96.5005 179.159 96.4954L179.139 96.4814ZM184.642 96.4814C184.594 96.4814 184.548 96.4908 184.504 96.5091C184.461 96.5274 184.421 96.5541 184.388 96.5878C184.355 96.6215 184.329 96.6614 184.312 96.7053C184.294 96.7492 184.286 96.796 184.287 96.8432C184.287 96.9151 184.308 96.9853 184.348 97.0449C184.388 97.1045 184.445 97.1509 184.512 97.1781C184.578 97.2052 184.651 97.212 184.722 97.1974C184.792 97.1829 184.857 97.1478 184.907 97.0965C184.957 97.0452 184.991 96.9801 185.004 96.9094C185.017 96.8388 185.009 96.7659 184.981 96.6999C184.952 96.6339 184.905 96.5779 184.844 96.539C184.784 96.5001 184.713 96.4801 184.642 96.4814ZM190.152 96.4814C190.104 96.4814 190.057 96.4908 190.013 96.509C189.969 96.5272 189.929 96.5538 189.896 96.5874C189.862 96.621 189.836 96.6609 189.817 96.7048C189.799 96.7487 189.79 96.7957 189.79 96.8432C189.775 96.8971 189.772 96.9537 189.782 97.0088C189.792 97.0638 189.815 97.1157 189.849 97.1605C189.883 97.2052 189.926 97.2414 189.976 97.2664C190.027 97.2914 190.082 97.3044 190.138 97.3044C190.194 97.3044 190.249 97.2914 190.299 97.2664C190.349 97.2414 190.393 97.2052 190.427 97.1605C190.46 97.1157 190.483 97.0638 190.493 97.0088C190.504 96.9537 190.501 96.8971 190.486 96.8432C190.485 96.7592 190.455 96.6781 190.4 96.6144C190.345 96.5507 190.269 96.5085 190.186 96.4954L190.152 96.4814ZM195.655 96.4814C195.607 96.4814 195.56 96.4908 195.516 96.509C195.472 96.5272 195.433 96.5538 195.399 96.5874C195.365 96.621 195.339 96.6609 195.321 96.7048C195.302 96.7487 195.293 96.7957 195.293 96.8432C195.293 96.9392 195.331 97.0312 195.399 97.099C195.467 97.1669 195.559 97.205 195.655 97.205C195.75 97.2032 195.841 97.1645 195.909 97.0971C195.976 97.0296 196.015 96.9386 196.017 96.8432C196.014 96.7554 195.979 96.6717 195.919 96.6077C195.858 96.5437 195.777 96.5038 195.69 96.4954L195.655 96.4814ZM201.158 96.4814C201.111 96.4814 201.064 96.4908 201.02 96.5091C200.977 96.5274 200.937 96.5541 200.904 96.5878C200.871 96.6215 200.845 96.6614 200.828 96.7053C200.811 96.7492 200.802 96.796 200.803 96.8432C200.803 96.9151 200.824 96.9853 200.864 97.0449C200.905 97.1045 200.961 97.1509 201.028 97.1781C201.095 97.2052 201.168 97.212 201.238 97.1974C201.308 97.1829 201.373 97.1478 201.423 97.0965C201.473 97.0452 201.507 96.9801 201.52 96.9094C201.534 96.8388 201.525 96.7659 201.497 96.6999C201.469 96.6339 201.421 96.5779 201.361 96.539C201.3 96.5001 201.23 96.4801 201.158 96.4814ZM206.668 96.4814C206.572 96.4814 206.48 96.5196 206.412 96.5874C206.344 96.6553 206.306 96.7473 206.306 96.8432C206.305 96.9047 206.322 96.9652 206.355 97.0172L207.009 96.7528C206.99 96.6836 206.951 96.6217 206.896 96.5757C206.842 96.5296 206.774 96.5016 206.703 96.4954L206.668 96.4814ZM170.88 92.3837C170.827 92.3683 170.77 92.3657 170.715 92.3759C170.66 92.3861 170.608 92.409 170.563 92.4427C170.518 92.4765 170.482 92.5201 170.457 92.5702C170.432 92.6203 170.419 92.6756 170.419 92.7316C170.419 92.7876 170.432 92.8428 170.457 92.8929C170.482 92.943 170.518 92.9866 170.563 93.0204C170.608 93.0541 170.66 93.077 170.715 93.0872C170.77 93.0975 170.827 93.0948 170.88 93.0794C170.934 93.0948 170.991 93.0975 171.046 93.0872C171.101 93.077 171.153 93.0541 171.198 93.0204C171.242 92.9866 171.279 92.943 171.304 92.8929C171.329 92.8428 171.342 92.7876 171.342 92.7316C171.342 92.6756 171.329 92.6203 171.304 92.5702C171.279 92.5201 171.242 92.4765 171.198 92.4427C171.153 92.409 171.101 92.3861 171.046 92.3759C170.991 92.3657 170.934 92.3683 170.88 92.3837ZM176.384 92.3837C176.312 92.3837 176.241 92.4051 176.182 92.4452C176.122 92.4853 176.076 92.5422 176.049 92.6087C176.021 92.6752 176.015 92.7483 176.029 92.8186C176.044 92.889 176.079 92.9534 176.13 93.0038C176.182 93.0541 176.247 93.088 176.317 93.1011C176.388 93.1143 176.461 93.1061 176.527 93.0777C176.593 93.0492 176.649 93.0018 176.688 92.9414C176.727 92.881 176.747 92.8103 176.745 92.7385C176.742 92.6515 176.707 92.5686 176.647 92.5057C176.586 92.4429 176.505 92.4044 176.418 92.3976L176.384 92.3837ZM181.894 92.3837C181.821 92.3823 181.751 92.4026 181.69 92.4418C181.629 92.481 181.582 92.5374 181.554 92.6038C181.526 92.6702 181.518 92.7435 181.531 92.8143C181.545 92.8851 181.58 92.9502 181.631 93.0012C181.682 93.0522 181.747 93.0868 181.818 93.1006C181.889 93.1143 181.962 93.1065 182.028 93.0783C182.095 93.0501 182.151 93.0026 182.19 92.9421C182.23 92.8815 182.25 92.8106 182.248 92.7385C182.246 92.6547 182.214 92.5744 182.158 92.512C182.102 92.4496 182.025 92.4091 181.942 92.3976L181.894 92.3837ZM187.397 92.3837C187.343 92.3683 187.286 92.3657 187.231 92.3759C187.176 92.3861 187.124 92.409 187.079 92.4427C187.035 92.4765 186.998 92.5201 186.973 92.5702C186.948 92.6203 186.936 92.6756 186.936 92.7316C186.936 92.7876 186.948 92.8428 186.973 92.8929C186.998 92.943 187.035 92.9866 187.079 93.0204C187.124 93.0541 187.176 93.077 187.231 93.0872C187.286 93.0975 187.343 93.0948 187.397 93.0794C187.45 93.0948 187.507 93.0975 187.562 93.0872C187.617 93.077 187.669 93.0541 187.714 93.0204C187.759 92.9866 187.795 92.943 187.82 92.8929C187.845 92.8428 187.858 92.7876 187.858 92.7316C187.858 92.6756 187.845 92.6203 187.82 92.5702C187.795 92.5201 187.759 92.4765 187.714 92.4427C187.669 92.409 187.617 92.3861 187.562 92.3759C187.507 92.3657 187.45 92.3683 187.397 92.3837ZM192.9 92.3837C192.828 92.3837 192.758 92.4051 192.698 92.4452C192.638 92.4853 192.592 92.5422 192.565 92.6087C192.538 92.6752 192.531 92.7483 192.545 92.8186C192.56 92.889 192.595 92.9534 192.646 93.0038C192.698 93.0541 192.763 93.088 192.833 93.1011C192.904 93.1143 192.977 93.1061 193.043 93.0777C193.109 93.0492 193.165 93.0018 193.204 92.9414C193.243 92.881 193.263 92.8103 193.261 92.7385C193.258 92.6515 193.223 92.5686 193.163 92.5057C193.103 92.4429 193.021 92.4044 192.934 92.3976L192.9 92.3837ZM198.41 92.3837C198.338 92.3823 198.267 92.4026 198.206 92.4418C198.146 92.481 198.098 92.5374 198.07 92.6038C198.042 92.6702 198.034 92.7435 198.048 92.8143C198.061 92.8851 198.096 92.9502 198.147 93.0012C198.198 93.0522 198.263 93.0868 198.334 93.1006C198.405 93.1143 198.478 93.1065 198.544 93.0783C198.611 93.0501 198.667 93.0026 198.707 92.9421C198.746 92.8815 198.766 92.8106 198.765 92.7385C198.762 92.6526 198.728 92.5706 198.669 92.5079C198.61 92.4452 198.53 92.406 198.445 92.3976L198.41 92.3837ZM203.913 92.3837C203.859 92.3683 203.802 92.3657 203.747 92.3759C203.692 92.3861 203.64 92.409 203.596 92.4427C203.551 92.4765 203.515 92.5201 203.49 92.5702C203.465 92.6203 203.452 92.6756 203.452 92.7316C203.452 92.7876 203.465 92.8428 203.49 92.8929C203.515 92.943 203.551 92.9866 203.596 93.0204C203.64 93.0541 203.692 93.077 203.747 93.0872C203.802 93.0975 203.859 93.0948 203.913 93.0794C203.967 93.0948 204.023 93.0975 204.078 93.0872C204.133 93.077 204.185 93.0541 204.23 93.0204C204.275 92.9866 204.311 92.943 204.336 92.8929C204.361 92.8428 204.374 92.7876 204.374 92.7316C204.374 92.6756 204.361 92.6203 204.336 92.5702C204.311 92.5201 204.275 92.4765 204.23 92.4427C204.185 92.409 204.133 92.3861 204.078 92.3759C204.023 92.3657 203.967 92.3683 203.913 92.3837ZM209.416 92.3837C209.344 92.3837 209.274 92.4051 209.214 92.4452C209.155 92.4853 209.108 92.5422 209.081 92.6087C209.054 92.6752 209.047 92.7483 209.062 92.8186C209.076 92.889 209.111 92.9534 209.163 93.0038C209.214 93.0541 209.279 93.088 209.35 93.1011C209.42 93.1143 209.493 93.1061 209.559 93.0777C209.625 93.0492 209.681 93.0018 209.72 92.9414C209.759 92.881 209.779 92.8103 209.778 92.7385C209.775 92.6515 209.739 92.5686 209.679 92.5057C209.619 92.4429 209.538 92.4044 209.451 92.3976L209.416 92.3837Z" fill="white"/>
<path d="M211.043 94.7495C206.034 97.7202 200.162 99.2995 194.443 99.9882C191.786 86.4079 187.264 59.5743 186.199 53.2363C187.597 53.6422 188.919 54.2769 190.109 55.1148C193.022 57.2283 195.499 59.8833 197.407 62.9346C203.669 72.5145 211.043 94.7495 211.043 94.7495Z" fill="#263238"/>
<path d="M194.93 58.6209C204.065 69.0566 216.692 86.9851 211.892 91.4725C203.996 98.8401 179.889 104.343 174.358 105.387C171.965 105.832 166.128 90.3802 167.61 88.2444C169.092 86.1085 194.743 83.0126 194.812 81.4194C194.861 80.5219 191.285 72.9734 188.161 63.5744C184.55 52.7212 192.315 55.6224 194.93 58.6209Z" fill="#EB9481"/>
<path d="M171.742 86.6582C171.742 86.6582 164.354 87.0756 159.533 87.5765C156.84 87.8548 152.276 88.7453 150.391 89.8515C147.608 91.5073 136.866 100.239 138.926 102.882C140.79 105.275 149.041 96.6208 149.041 96.6208C149.041 96.6208 139.941 104.635 142.724 107.098C145.507 109.561 153.515 98.5271 153.515 98.5271C153.515 98.5271 144.352 106.966 147.615 109.06C150.085 110.639 157.912 101.053 157.912 101.053C157.912 101.053 150.085 108.364 152.555 110.097C155.282 112.01 163.06 103.62 163.06 103.62C170.073 106.973 174.79 105.707 178.032 104.392C178.818 104.093 171.742 86.6582 171.742 86.6582Z" fill="#EB9481"/>
<path d="M152.025 93.6577C150.926 94.5552 149.799 95.4666 148.783 96.4406C147.767 97.4146 146.78 98.4721 145.854 99.5574C144.624 100.958 143.557 102.494 142.675 104.135C144.456 101.352 148.046 97.7068 149.068 96.7119C150.091 95.717 151.051 94.6665 152.067 93.6716C152.081 93.6577 152.025 93.616 152.025 93.6577Z" fill="#263238"/>
<path d="M155.684 97.2469C154.293 98.4644 152.901 99.6123 151.628 100.892C150.355 102.173 149.207 103.474 147.996 104.83C147.906 104.935 147.996 104.948 148.087 104.83C149.346 103.529 150.612 102.416 151.892 101.129C153.173 99.8419 154.397 98.4992 155.712 97.2608C155.733 97.2608 155.705 97.226 155.684 97.2469Z" fill="#263238"/>
<path d="M159.386 99.7867C157.259 101.595 155.324 103.619 153.612 105.825C153.521 105.937 153.612 105.944 153.737 105.825C155.615 103.78 157.076 102.159 159.449 99.8423C159.491 99.8215 159.435 99.7449 159.386 99.7867Z" fill="#263238"/>
<path d="M166.739 86.9229C163.365 87.1177 159.907 87.3194 156.561 87.7925C153.657 88.1159 150.88 89.1611 148.483 90.8328C146.225 92.5835 144.129 94.5348 142.222 96.6628C141.125 97.7377 140.15 98.9298 139.314 100.218C138.848 101.004 138.166 102.242 138.91 103.001C139.815 103.954 142.862 102.771 145.944 99.5918C146.055 99.4805 145.979 99.4178 145.861 99.5222C141.505 103.55 139.641 103.237 139.119 102.625C138.785 102.235 139.036 101.498 139.279 100.935C139.679 100.118 140.182 99.3556 140.775 98.6665C142.734 96.2653 144.935 94.0715 147.342 92.1198C149.923 89.9483 153.066 88.5517 156.408 88.0916C159.83 87.5907 163.365 87.6325 166.76 87.0829C166.829 87.0411 166.808 86.9229 166.739 86.9229Z" fill="#263238"/>
<path d="M205.805 71.2271L190.116 72.1524C188.859 68.5593 187.889 64.872 187.215 61.1254C187.174 60.9028 187.139 60.6801 187.104 60.4714C187.104 60.4018 187.104 60.3392 187.104 60.2766C186.22 54.5022 188.022 52.9021 193.609 57.3825C196.255 59.5338 198.69 61.9333 200.879 64.5483L201.081 64.7848C202.138 66.0371 203.029 67.199 203.745 68.1799C203.892 68.3817 204.038 68.5765 204.163 68.7643C205.22 70.2531 205.805 71.2271 205.805 71.2271Z" fill="#ED8D34"/>
<path d="M190.541 56.3119C190.542 56.384 190.522 56.4549 190.483 56.5155C190.444 56.576 190.387 56.6235 190.321 56.6517C190.254 56.6799 190.181 56.6877 190.11 56.674C190.039 56.6602 189.974 56.6256 189.923 56.5746C189.872 56.5236 189.838 56.4585 189.824 56.3877C189.81 56.3169 189.818 56.2436 189.846 56.1772C189.874 56.1108 189.922 56.0544 189.982 56.0152C190.043 55.9759 190.114 55.9557 190.186 55.9571C190.28 55.9571 190.37 55.9945 190.437 56.061C190.503 56.1276 190.541 56.2178 190.541 56.3119Z" fill="white"/>
<path d="M190.541 64.437C190.541 64.5089 190.519 64.5791 190.479 64.6387C190.439 64.6984 190.382 64.7447 190.316 64.7719C190.249 64.799 190.176 64.8058 190.106 64.7913C190.036 64.7767 189.971 64.7416 189.921 64.6903C189.871 64.639 189.837 64.5739 189.824 64.5033C189.81 64.4326 189.819 64.3597 189.847 64.2937C189.875 64.2277 189.923 64.1717 189.983 64.1328C190.044 64.0939 190.114 64.0739 190.186 64.0753C190.233 64.0753 190.28 64.0847 190.324 64.1029C190.367 64.1212 190.406 64.1479 190.439 64.1816C190.473 64.2153 190.499 64.2553 190.516 64.2991C190.533 64.343 190.542 64.3899 190.541 64.437Z" fill="white"/>
<path d="M195.688 64.7851C195.888 64.7851 196.05 64.6231 196.05 64.4233C196.05 64.2235 195.888 64.0615 195.688 64.0615C195.488 64.0615 195.326 64.2235 195.326 64.4233C195.326 64.6231 195.488 64.7851 195.688 64.7851Z" fill="white"/>
<path d="M187.43 60.6806C187.63 60.6806 187.792 60.5186 187.792 60.3188C187.792 60.119 187.63 59.957 187.43 59.957C187.23 59.957 187.068 60.119 187.068 60.3188C187.068 60.5186 187.23 60.6806 187.43 60.6806Z" fill="white"/>
<path d="M192.933 60.6806C193.133 60.6806 193.295 60.5186 193.295 60.3188C193.295 60.119 193.133 59.957 192.933 59.957C192.733 59.957 192.571 60.119 192.571 60.3188C192.571 60.5186 192.733 60.6806 192.933 60.6806Z" fill="white"/>
<path d="M192.933 68.7929C193.133 68.7929 193.295 68.6309 193.295 68.4311C193.295 68.2313 193.133 68.0693 192.933 68.0693C192.733 68.0693 192.571 68.2313 192.571 68.4311C192.571 68.6309 192.733 68.7929 192.933 68.7929Z" fill="white"/>
<path d="M198.444 68.7929C198.644 68.7929 198.806 68.6309 198.806 68.4311C198.806 68.2313 198.644 68.0693 198.444 68.0693C198.244 68.0693 198.082 68.2313 198.082 68.4311C198.082 68.6309 198.244 68.7929 198.444 68.7929Z" fill="white"/>
<path d="M204.135 68.7367C204.079 68.7729 204.013 68.7922 203.947 68.7924C203.851 68.7924 203.759 68.7543 203.691 68.6864C203.623 68.6186 203.585 68.5266 203.585 68.4306C203.584 68.3772 203.596 68.3243 203.619 68.2761C203.642 68.2278 203.675 68.1855 203.717 68.1523C203.863 68.3541 204.009 68.5489 204.135 68.7367Z" fill="white"/>
<path d="M180.94 28.2603C180.07 27.9333 179.235 23.0564 182.449 20.7327C185.664 18.409 189.761 21.0597 188.015 25.06C186.951 27.5646 182.79 28.956 180.94 28.2603Z" fill="#263238"/>
<path d="M190.109 55.1145L190.06 55.1702C187.5 57.9113 182.345 62.8856 178.894 62.4543C177.872 62.2875 176.898 61.907 176.033 61.3375C175.169 60.768 174.434 60.0225 173.878 59.1497C174.898 57.861 176.009 56.6473 177.203 55.518C181.246 51.3229 185.886 52.2412 190.109 55.1145Z" fill="#EB9481"/>
<path d="M185.154 54.3571C185.098 55.1015 182.371 60.3124 179.08 60.6742C178.002 60.7855 177.105 54.9276 177.105 54.9276L176.938 54.5102L174.635 48.6592L181.042 42.9752L181.975 42.21C181.975 42.21 182.503 43.8518 183.136 45.9042C183.136 46.0016 183.192 46.092 183.227 46.1964C183.262 46.3007 183.303 46.419 183.331 46.5303C183.429 46.8295 183.526 47.1426 183.623 47.4556C183.721 47.7687 183.763 47.9287 183.832 48.1513C183.902 48.374 183.964 48.6453 184.041 48.9027C184.534 50.6939 184.905 52.5161 185.154 54.3571Z" fill="#EB9481"/>
<path d="M183.136 45.9042C182.79 47.7027 182.056 49.4042 180.985 50.8904C179.915 52.3766 178.534 53.6118 176.938 54.5102L174.635 48.6592L181.042 42.9752L181.975 42.21C181.975 42.21 182.503 43.8518 183.136 45.9042Z" fill="#263238"/>
<path d="M164.868 40.2618C165.564 51.2749 172.257 52.0889 174.608 51.9358C176.765 51.7967 184.084 51.0384 184.515 40.0183C184.947 28.9982 179.603 25.8397 174.657 25.9023C169.71 25.9649 164.159 29.2556 164.868 40.2618Z" fill="#EB9481"/>
<path d="M166.796 38.4591C167.047 38.3896 167.269 38.2922 167.492 38.2017C167.762 38.1474 168.006 38.0056 168.188 37.7982C168.231 37.7236 168.249 37.6366 168.237 37.551C168.226 37.4653 168.186 37.3859 168.125 37.3251C167.983 37.2245 167.817 37.1625 167.644 37.1455C167.471 37.1284 167.296 37.1567 167.137 37.2277C166.796 37.329 166.504 37.5518 166.316 37.8539C166.279 37.9264 166.264 38.008 166.272 38.0891C166.28 38.1701 166.311 38.2472 166.361 38.311C166.412 38.3748 166.48 38.4227 166.557 38.449C166.634 38.4752 166.717 38.4788 166.796 38.4591Z" fill="#263238"/>
<path d="M174.392 37.6666C174.137 37.6619 173.881 37.6433 173.627 37.6109C173.359 37.6297 173.092 37.5588 172.869 37.4092C172.806 37.3481 172.765 37.2679 172.752 37.181C172.74 37.0942 172.756 37.0056 172.799 36.9291C172.909 36.7944 173.052 36.6912 173.215 36.6301C173.378 36.569 173.553 36.5522 173.725 36.5813C174.079 36.5807 174.419 36.7151 174.678 36.957C174.735 37.0149 174.773 37.0881 174.789 37.1677C174.805 37.2473 174.797 37.3297 174.767 37.405C174.737 37.4803 174.685 37.5452 174.619 37.5916C174.552 37.6381 174.474 37.6641 174.392 37.6666Z" fill="#263238"/>
<path d="M173.308 40.623C173.308 40.623 173.371 40.623 173.371 40.6787C173.433 41.4301 173.628 42.2788 174.331 42.4528V42.4945C173.489 42.4667 173.246 41.3396 173.308 40.623Z" fill="#263238"/>
<path d="M173.885 39.7675C175.075 39.5449 175.444 41.9382 174.337 42.1469C173.231 42.3556 172.897 39.9554 173.885 39.7675Z" fill="#263238"/>
<path d="M174.379 39.8231C174.609 39.9274 174.845 40.1362 175.075 40.1222C175.304 40.1083 175.555 39.8231 175.708 39.5518C175.708 39.5518 175.75 39.5518 175.757 39.5518C175.833 40.0109 175.757 40.5118 175.242 40.651C174.727 40.7901 174.421 40.4284 174.233 39.9553C174.226 39.9205 174.289 39.7813 174.379 39.8231Z" fill="#263238"/>
<path d="M168.604 40.9844C168.604 40.9844 168.549 41.0331 168.556 41.0609C168.695 41.7984 168.737 42.668 168.104 43.0228C168.104 43.0228 168.104 43.0715 168.104 43.0646C168.917 42.8141 168.855 41.6662 168.604 40.9844Z" fill="#263238"/>
<path d="M167.819 40.3166C166.608 40.414 166.9 42.8281 168.013 42.7307C169.127 42.6333 168.827 40.2331 167.819 40.3166Z" fill="#263238"/>
<path d="M167.33 40.5392C167.156 40.6853 166.996 40.9428 166.774 40.9845C166.551 41.0262 166.287 40.7967 166.078 40.5671C166.12 41.0262 166.329 41.4924 166.774 41.5272C167.219 41.5619 167.435 41.1306 167.47 40.6575C167.483 40.5949 167.4 40.4766 167.33 40.5392Z" fill="#263238"/>
<path d="M170.726 43.517C170.324 43.6135 169.936 43.7607 169.571 43.9553C169.502 41.5968 169.808 39.2453 169.704 36.8938C169.704 36.8753 169.696 36.8576 169.683 36.8446C169.67 36.8315 169.652 36.8242 169.634 36.8242C169.615 36.8242 169.598 36.8315 169.585 36.8446C169.572 36.8576 169.564 36.8753 169.564 36.8938C169.153 39.404 168.997 41.9493 169.098 44.491C169.098 44.7484 170.747 43.6422 170.747 43.6422C170.747 43.6422 170.74 43.517 170.726 43.517Z" fill="#263238"/>
<path d="M183.833 40.9574C181.099 41.2426 179.137 32.9915 178.908 31.9757C179.019 32.6227 179.603 36.0526 179.353 36.2265C179.06 36.2613 178.764 36.2472 178.476 36.1848C178.417 35.7727 178.326 35.3656 178.205 34.9673C178.156 34.7795 178.205 35.3917 178.205 36.15L177.683 36.0804C177.59 35.1961 177.379 34.3281 177.057 33.4993C176.932 33.1863 177.057 34.6612 176.918 35.983C174.502 35.6289 172.055 35.5426 169.62 35.7256C168.924 35.7952 168.354 35.8856 167.839 35.983C167.693 34.9673 167.658 33.8959 167.616 34.1116C167.499 34.754 167.445 35.4065 167.456 36.0596L166.691 36.2265C166.42 34.8351 166.781 32.414 166.601 32.7967C166.071 33.9723 165.769 35.2376 165.71 36.5257C164.757 36.8527 164.513 37.0823 164.451 36.8318C164.35 33.9632 165.273 31.1523 167.053 28.9007C170.003 25.2204 176.674 23.4672 181.19 27.8641C181.19 27.8641 184.626 29.4781 185.587 32.7341C186.547 35.99 185.42 40.7835 183.833 40.9574Z" fill="#263238"/>
<path d="M182.84 40.9709C182.84 40.9709 184.704 37.2071 186.374 37.8193C188.044 38.4315 187.014 43.6424 185.303 44.5955C185.091 44.7317 184.854 44.8238 184.606 44.8664C184.358 44.909 184.104 44.9012 183.86 44.8434C183.615 44.7856 183.384 44.679 183.181 44.53C182.979 44.3811 182.808 44.1927 182.68 43.9764L182.84 40.9709Z" fill="#EB9481"/>
<path d="M186.038 39.3086V39.3503C184.842 40.0461 184.355 41.3401 184.069 42.6341C184.124 42.4956 184.208 42.3706 184.316 42.2678C184.424 42.1649 184.552 42.0867 184.693 42.0384C184.834 41.9901 184.984 41.973 185.132 41.9881C185.28 42.0033 185.423 42.0504 185.551 42.1262C185.559 42.1295 185.565 42.1348 185.57 42.1416C185.574 42.1484 185.576 42.1564 185.576 42.1645C185.576 42.1726 185.574 42.1806 185.57 42.1874C185.565 42.1942 185.559 42.1995 185.551 42.2028C185.317 42.1631 185.076 42.1982 184.862 42.3031C184.649 42.4079 184.474 42.5773 184.362 42.7872C184.172 43.1354 184.022 43.5042 183.916 43.8864C183.875 44.0116 183.659 43.9768 183.68 43.8446V43.8099C183.409 42.1749 184.327 39.733 186.038 39.3086Z" fill="#263238"/>
<path d="M170.69 45.4095C171.025 45.8197 171.458 46.1381 171.95 46.3348C172.224 46.4218 172.518 46.4218 172.791 46.3348C173.397 46.1609 173.397 45.6391 173.272 45.1313C173.203 44.8893 173.108 44.6558 172.986 44.4355C172.344 44.9953 171.54 45.3364 170.69 45.4095Z" fill="#263238"/>
<path d="M171.951 46.3491C172.225 46.436 172.519 46.436 172.793 46.3491C173.398 46.1752 173.398 45.6534 173.273 45.1455C172.949 45.1667 172.642 45.2973 172.401 45.5159C172.161 45.7346 172.003 46.0284 171.951 46.3491Z" fill="#FF9CBD"/>
<path d="M161.388 55.6436C162.319 57.0233 162.823 58.6472 162.835 60.3119C162.835 66.2254 156.344 71.0189 148.336 71.0189C140.329 71.0189 133.852 66.2254 133.852 60.3119C133.852 54.3983 140.336 49.6048 148.336 49.6048C151.893 49.547 155.383 50.5815 158.334 52.5686L163.329 51.3024L161.388 55.6436Z" fill="white"/>
<path d="M161.388 55.6433C162.313 56.9428 162.843 58.4826 162.912 60.0765C162.981 61.6704 162.587 63.2502 161.777 64.625C160.968 65.9951 159.88 67.1802 158.584 68.1035C157.299 69.044 155.874 69.7765 154.361 70.2742C152.852 70.7825 151.287 71.1026 149.7 71.2273C148.112 71.3424 146.517 71.2653 144.948 70.9977C141.759 70.5201 138.792 69.078 136.446 66.8652C135.281 65.7279 134.405 64.3274 133.893 62.7813C133.399 61.2119 133.385 59.5308 133.851 57.9531C134.333 56.3997 135.188 54.9879 136.342 53.8414C137.476 52.6959 138.798 51.7545 140.252 51.0586C143.15 49.7034 146.349 49.1188 149.54 49.361C152.727 49.5359 155.804 50.5881 158.431 52.4013H158.299L163.308 51.2047L163.482 51.1629L163.405 51.3229L161.388 55.6433ZM161.388 55.6433L163.252 51.2673L163.35 51.3786L158.375 52.7213H158.306L158.243 52.6796C155.642 50.9697 152.622 50.0071 149.512 49.8967C147.967 49.817 146.418 49.9268 144.899 50.2237C143.378 50.4907 141.903 50.9708 140.516 51.6499C139.134 52.3147 137.877 53.2139 136.801 54.3075C135.731 55.3855 134.94 56.7086 134.498 58.1618C134.077 59.6146 134.099 61.1601 134.561 62.6004C135.025 64.0462 135.835 65.3572 136.919 66.4199C139.162 68.5552 142.005 69.9514 145.066 70.4203C148.121 70.962 151.261 70.7616 154.222 69.8359C157.219 68.9737 159.811 67.0721 161.534 64.4719C162.345 63.1444 162.769 61.6167 162.758 60.0611C162.713 58.491 162.239 56.9631 161.388 55.6433Z" fill="#263238"/>
<path d="M143.126 60.3113C143.126 60.0141 143.037 59.7236 142.872 59.4765C142.707 59.2293 142.473 59.0367 142.198 58.923C141.923 58.8092 141.621 58.7795 141.33 58.8375C141.038 58.8955 140.77 59.0386 140.56 59.2487C140.35 59.4589 140.207 59.7267 140.149 60.0182C140.091 60.3097 140.121 60.6118 140.235 60.8864C140.348 61.161 140.541 61.3957 140.788 61.5608C141.035 61.7259 141.326 61.8141 141.623 61.8141C142.021 61.8141 142.404 61.6557 142.685 61.3739C142.967 61.0921 143.126 60.7099 143.126 60.3113Z" fill="#263238"/>
<path d="M149.846 60.3113C149.846 60.0141 149.758 59.7236 149.593 59.4765C149.428 59.2293 149.193 59.0367 148.919 58.923C148.644 58.8092 148.342 58.7795 148.05 58.8375C147.759 58.8955 147.491 59.0386 147.281 59.2487C147.071 59.4589 146.928 59.7267 146.87 60.0182C146.812 60.3097 146.841 60.6118 146.955 60.8864C147.069 61.161 147.262 61.3957 147.509 61.5608C147.756 61.7259 148.046 61.8141 148.344 61.8141C148.742 61.8141 149.124 61.6557 149.406 61.3739C149.688 61.0921 149.846 60.7099 149.846 60.3113Z" fill="#263238"/>
<path d="M156.559 60.3113C156.559 60.0141 156.471 59.7236 156.306 59.4765C156.141 59.2293 155.906 59.0367 155.632 58.923C155.357 58.8092 155.055 58.7795 154.763 58.8375C154.472 58.8955 154.204 59.0386 153.994 59.2487C153.784 59.4589 153.641 59.7267 153.583 60.0182C153.525 60.3097 153.554 60.6118 153.668 60.8864C153.782 61.161 153.974 61.3957 154.222 61.5608C154.469 61.7259 154.759 61.8141 155.056 61.8141C155.455 61.8141 155.837 61.6557 156.119 61.3739C156.401 61.0921 156.559 60.7099 156.559 60.3113Z" fill="#263238"/>
<path d="M163.329 107.932H108.729V110.381H163.329V107.932Z" fill="#455A64"/>
<path d="M136.21 107.932H108.729V110.381H136.21V107.932Z" fill="#263238"/>
<path d="M133.254 110.381H80.046L73.0889 74.2383H126.297L133.254 110.381Z" fill="#455A64"/>
<path d="M106.406 92.3058C106.453 92.7181 106.411 93.1356 106.283 93.5304C106.155 93.9252 105.945 94.2882 105.666 94.5951C105.386 94.902 105.045 95.1457 104.664 95.3101C104.283 95.4744 103.871 95.5554 103.456 95.5479C102.573 95.5335 101.726 95.1955 101.076 94.5978C100.426 94.0002 100.018 93.1846 99.929 92.3058C99.8845 91.8937 99.9282 91.4768 100.057 91.0829C100.186 90.6889 100.398 90.327 100.677 90.021C100.957 89.715 101.298 89.472 101.679 89.3082C102.06 89.1444 102.471 89.0634 102.886 89.0708C103.767 89.0851 104.612 89.4224 105.261 90.0188C105.91 90.6151 106.318 91.429 106.406 92.3058Z" fill="#A6A6A6"/>
<path d="M200.808 104.676C200.361 105.757 199.555 106.65 198.526 107.205C197.497 107.761 196.308 107.944 195.159 107.723C194.681 107.632 194.214 107.487 193.768 107.292L194.595 105.372C194.837 105.481 195.089 105.568 195.347 105.629C196.062 105.807 196.818 105.721 197.475 105.386C198.132 105.051 198.646 104.49 198.923 103.807C199.834 101.831 199.528 97.7678 197.984 96.4738C197.879 96.3764 197.483 96.265 196.084 96.8494C195.827 96.9607 195.535 97.086 195.208 97.246C194.957 97.3878 194.691 97.4998 194.415 97.5799L194.185 96.5642L193.893 95.5624C193.983 95.5276 194.122 95.458 194.303 95.3676C194.939 95.0441 195.6 94.7719 196.279 94.5536C197.33 94.2405 198.478 94.157 199.326 94.8736C201.824 96.9886 201.949 102.199 200.808 104.676Z" fill="#ED8D34"/>
<path d="M194.582 105.372C194.823 105.482 195.075 105.568 195.333 105.629L195.159 107.717C194.681 107.625 194.214 107.48 193.768 107.285L194.582 105.372Z" fill="#263238"/>
<path d="M196.265 94.5537L196.07 96.8496C195.813 96.9609 195.521 97.0861 195.194 97.2461C194.943 97.3879 194.677 97.5 194.401 97.5801L194.171 96.5643L193.879 95.5625C193.969 95.5277 194.108 95.4581 194.289 95.3677C194.925 95.0442 195.586 94.772 196.265 94.5537Z" fill="#263238"/>
<path d="M195.145 90.1357L195.076 91.9933L195.034 93.1273L195.013 93.8091L194.408 110.137H180.32L179.714 93.8091L179.693 93.1273L179.652 91.9933L179.582 90.1357H195.145Z" fill="#ED8D34"/>
<path d="M195.145 90.1357L195.076 91.9933H179.652L179.582 90.1357H195.145Z" fill="#455A64"/>
<path d="M195.034 93.127L195.013 93.8087H179.714L179.693 93.127H195.034Z" fill="#455A64"/>
<path d="M98.0516 114.765L97.8776 128.477L95.9644 278.876H93.8147L91.9015 128.477L91.7275 114.765H98.0516Z" fill="#455A64"/>
<path d="M91.7275 114.765H98.0516L97.8776 128.477H91.9015L91.7275 114.765Z" fill="#263238"/>
<path d="M250.543 114.765L250.369 128.477L248.456 278.876H246.306L244.393 128.477L244.219 114.765H250.543Z" fill="#455A64"/>
<path d="M250.543 114.765L250.369 128.477H244.393L244.219 114.765H250.543Z" fill="#263238"/>
<path d="M76.116 114.765L75.9421 128.477L74.0289 278.876H71.8791L69.9659 128.477L69.792 114.765H76.116Z" fill="#37474F"/>
<path d="M69.792 114.765H76.116L75.9421 128.477H69.9659L69.792 114.765Z" fill="#263238"/>
<path d="M228.601 114.765L228.427 128.477L226.514 278.876H224.364L222.451 128.477L222.277 114.765H228.601Z" fill="#37474F"/>
<path d="M222.277 114.765H228.601L228.427 128.477H222.451L222.277 114.765Z" fill="#263238"/>
<path d="M223.863 231.29H72.9561V234.073H223.863V231.29Z" fill="#37474F"/>
<path d="M254.301 110.139H234.752V118.077H254.301V110.139Z" fill="#455A64"/>
<path d="M234.752 110.139H62.8896V118.077H234.752V110.139Z" fill="#37474F"/>
<path d="M98.0778 192.698C86.8837 208.824 75.2584 227.483 72.8721 247.381C72.8721 247.68 73.3312 247.763 73.3869 247.464C74.5728 242.026 76.1421 236.679 78.083 231.463C85.6871 229.132 93.1591 227.184 96.9646 219.462C100.84 211.524 100.026 201.373 98.9961 192.851C98.9265 192.392 98.3073 192.392 98.0778 192.698Z" fill="#ED8D34"/>
<path d="M77.8331 231.094C82.9884 219.302 89.6255 207.44 98.1062 197.7C98.1619 197.637 98.2523 197.7 98.2036 197.797C92.6379 204.72 88.4636 212.247 84.3589 219.907C88.1923 215.955 92.3944 212.414 96.026 208.233C96.0956 208.157 96.2069 208.233 96.1443 208.351C92.5405 212.734 88.6097 217.5 83.8998 220.756C82.6475 223.107 81.3836 225.461 80.1081 227.817C80.4212 227.643 80.7482 227.483 81.0752 227.316C81.1308 227.316 81.1795 227.372 81.1239 227.4C80.7621 227.588 80.4282 227.783 80.0386 227.943C79.4333 229.056 78.828 230.176 78.2088 231.289C78.0697 231.553 77.7218 231.345 77.8331 231.094Z" fill="#263238"/>
<path d="M81.7012 226.962C84.8241 225.187 87.8018 223.167 90.6063 220.923C90.6829 220.86 90.7942 220.971 90.7177 221.034C88.0008 223.417 85.02 225.48 81.8334 227.184C81.6873 227.233 81.5551 227.045 81.7012 226.962Z" fill="#263238"/>
<path d="M71.4525 249.238C71.4525 249.482 71.8908 249.461 71.8769 249.238C71.7516 242.712 71.5081 236.166 71.4107 229.612C72.983 226.196 76.5173 224.227 78.9314 221.451C80.6681 219.428 82.1646 217.21 83.3909 214.842C86.2279 209.189 87.8849 203.018 88.2609 196.705C88.7479 189.713 85.4363 166.789 82.5143 167.659C81.0046 168.118 76.399 179.66 75.2024 183.465C73.2626 189.741 71.8957 196.18 71.1185 202.702C69.1844 218.084 69.8384 233.835 71.4525 249.238Z" fill="#ED8D34"/>
<path d="M70.6255 221.117C70.7437 212.859 72.3647 204.476 73.8675 196.426C75.4955 187.751 77.4504 179.569 81.6664 171.756C81.7429 171.61 81.9586 171.756 81.8891 171.882C79.1143 177.946 77.0146 184.296 75.6276 190.819C75.9129 190.346 76.2607 189.901 76.5599 189.427C76.6712 189.254 76.9634 189.427 76.8521 189.587C76.4761 190.295 76.031 190.964 75.5233 191.584C75.5027 191.589 75.4812 191.589 75.4607 191.584C74.1179 197.79 73.1996 204.107 72.4482 210.438C72.5108 210.354 72.5804 210.264 72.65 210.188C72.7196 210.111 72.7752 210.188 72.7474 210.257C72.6361 210.473 72.5108 210.681 72.3926 210.89C72.0099 214.097 71.6969 217.291 71.3142 220.463C76.8799 215.44 81.5412 209.582 84.0736 202.451C84.0736 202.416 84.1362 202.451 84.1292 202.451C81.6595 209.847 77.6174 216.47 71.2446 221.096C71.1472 221.952 71.0568 222.808 70.9594 223.657C70.9594 223.83 70.6533 223.796 70.6533 223.657C70.6533 222.905 70.6533 222.154 70.6533 221.395C70.6299 221.382 70.6101 221.362 70.5955 221.339C70.5809 221.316 70.5719 221.29 70.5692 221.263C70.5665 221.236 70.5702 221.209 70.58 221.184C70.5897 221.158 70.6053 221.135 70.6255 221.117Z" fill="#263238"/>
<path d="M72.9207 209.089C77.0949 202.486 80.9492 196.072 83.9199 188.822C83.9199 188.739 84.0868 188.822 84.059 188.878C81.5892 196.072 78.0481 203.384 73.1433 209.249C73.0459 209.367 72.8372 209.221 72.9207 209.089Z" fill="#263238"/>
<path d="M78.0697 187.389C79.7742 184.154 81.583 181.002 83.1762 177.705C83.2249 177.614 83.3501 177.705 83.3154 177.781C82.0266 181.202 80.3605 184.469 78.348 187.521C78.325 187.548 78.2941 187.566 78.26 187.573C78.2258 187.58 78.1903 187.576 78.1587 187.561C78.1272 187.546 78.1015 187.521 78.0854 187.49C78.0693 187.459 78.0638 187.424 78.0697 187.389Z" fill="#263238"/>
<path d="M77.4018 188.795C77.4434 188.795 77.4434 188.844 77.4018 188.85C77.3601 188.857 77.367 188.795 77.4018 188.795Z" fill="#263238"/>
<path d="M68.0151 229.585C68.0524 233.91 67.6655 238.227 66.8603 242.477C66.9437 242.936 67.0203 243.395 67.1038 243.868C68.3282 239.151 69.0031 229.835 68.9961 229.042C68.993 222.539 68.3216 216.054 66.9924 209.688C64.627 197.763 59.8823 186.388 51.2693 177.685C51.1985 177.628 51.1155 177.588 51.0269 177.568C50.9382 177.547 50.8461 177.548 50.7575 177.569C50.669 177.589 50.5864 177.63 50.5159 177.688C50.4455 177.745 50.3891 177.818 50.351 177.901C47.2272 186.569 48.7022 196.768 51.8189 205.235C53.5132 209.807 55.8638 214.107 58.7969 218.001C61.8024 221.946 65.5593 225.251 68.0151 229.585Z" fill="#ED8D34"/>
<path d="M52.3756 181.629C60.6615 194.249 66.6168 209.332 67.7299 224.492C67.7299 224.763 67.2986 224.847 67.2499 224.569C67.0203 223.212 66.7768 221.869 66.5194 220.526C63.1522 217.486 59.6945 214.265 57.2316 210.418C57.1899 210.355 57.2873 210.272 57.343 210.327C60.2858 213.507 63.0408 216.763 66.3455 219.573C65.6869 216.234 64.9123 212.95 64.0218 209.722L63.3748 209.026C63.2356 208.866 63.4583 208.623 63.6044 208.783L63.7992 208.985C62.55 204.546 61.0376 200.185 59.2701 195.926C57.1829 193.581 54.8662 191.571 53.3148 188.711C53.3106 188.698 53.311 188.684 53.316 188.671C53.321 188.657 53.3303 188.646 53.3423 188.639C53.3544 188.632 53.3685 188.629 53.3824 188.631C53.3963 188.632 53.4093 188.639 53.4191 188.649C54.6436 190.27 55.8402 191.905 57.2177 193.401C57.7743 193.999 58.3726 194.555 58.9431 195.14C56.986 190.532 54.6885 186.076 52.0695 181.81C52.0551 181.77 52.055 181.727 52.0692 181.687C52.0835 181.647 52.1111 181.614 52.1475 181.593C52.1838 181.571 52.2265 181.563 52.2681 181.57C52.3098 181.576 52.3478 181.597 52.3756 181.629Z" fill="#263238"/>
<path d="M54.4351 197.435C57.0928 200.809 60.1052 204.01 62.5889 207.502C62.6585 207.599 62.5124 207.711 62.4219 207.634C59.2843 204.851 56.5849 201.011 54.2612 197.539C54.1917 197.435 54.3517 197.317 54.4351 197.435Z" fill="#263238"/>
<path d="M62.9719 208.289L63.0902 208.393C63.1667 208.47 63.0485 208.588 62.9719 208.518L62.8606 208.407C62.7771 208.337 62.8885 208.212 62.9719 208.289Z" fill="#263238"/>
<path d="M39.1439 202.883C39.9718 209.471 43.68 217.27 48.0699 222.245C50.0106 224.406 52.3799 226.141 55.027 227.337C58.0047 228.729 61.1284 230.287 64.1965 231.386C65.7455 235.022 66.9293 238.802 67.7308 242.671C67.8142 242.337 67.9047 241.975 67.9951 241.655C65.5601 224.958 54.3105 210.974 40.1666 202.194C40.0549 202.134 39.9287 202.105 39.8018 202.111C39.6749 202.117 39.5521 202.158 39.4467 202.229C39.3414 202.3 39.2574 202.398 39.204 202.514C39.1507 202.629 39.1299 202.757 39.1439 202.883Z" fill="#ED8D34"/>
<path d="M44.0774 207.669C43.98 207.586 44.0774 207.405 44.2166 207.481C51.7164 212.706 58.5622 220.449 62.4999 228.728C62.6112 228.951 62.2982 229.167 62.159 228.937C61.4633 227.831 60.7676 226.753 60.0719 225.688C56.8925 225.18 53.8105 223.044 51.4242 220.999C51.3616 220.943 51.4242 220.846 51.5146 220.902C52.7568 221.968 54.129 222.873 55.5985 223.594C56.9291 224.155 58.2875 224.647 59.6684 225.069C58.437 223.246 57.1638 221.5 55.842 219.802C52.4051 218.745 49.1005 216.748 46.1785 214.738C46.0881 214.675 46.1785 214.522 46.2689 214.578C49.1777 216.223 52.1711 217.714 55.2367 219.044C53.2318 216.553 51.0781 214.186 48.7874 211.955C47.6952 211.419 46.589 210.876 45.5315 210.299C45.5168 210.287 45.5063 210.27 45.5016 210.252C45.4968 210.234 45.498 210.214 45.5049 210.196C45.5118 210.179 45.5242 210.163 45.5402 210.153C45.5562 210.143 45.5751 210.138 45.5941 210.139C46.4691 210.415 47.3077 210.796 48.0917 211.273C46.8186 210.055 45.4967 208.845 44.0774 207.669Z" fill="#263238"/>
<path d="M44.5422 213.436C44.7326 213.544 44.914 213.668 45.0849 213.805C45.1336 213.847 45.0849 213.916 45.0222 213.888C44.8225 213.808 44.6313 213.708 44.4518 213.589C44.4359 213.575 44.4254 213.556 44.422 213.535C44.4187 213.515 44.4227 213.493 44.4335 213.475C44.4442 213.457 44.4609 213.443 44.4808 213.436C44.5007 213.429 44.5224 213.429 44.5422 213.436Z" fill="#263238"/>
<path d="M84.8529 232.638L84.2964 245.362L82.7658 280.266H58.1028L56.5722 245.362L56.0156 232.638H84.8529Z" fill="#37474F"/>
<path d="M84.8529 232.638L84.2964 245.362H56.5722L56.0156 232.638H84.8529Z" fill="#263238"/>
<path d="M86.9747 230.03H53.8936V238.052H86.9747V230.03Z" fill="#37474F"/>
</g>
<defs>
<clipPath id="clip0_101_6724">
<rect width="316" height="283" fill="white"/>
</clipPath>
</defs>
</svg>
