<svg width="243" height="223" viewBox="0 0 243 223" fill="none" xmlns="http://www.w3.org/2000/svg">
<g clip-path="url(#clip0_1041_5816)">
<path d="M21.6699 202.033L46.5472 201.901L71.4298 201.852L121.184 201.759L170.939 201.852L195.821 201.901L220.699 202.033L195.821 202.164L170.939 202.214L121.184 202.307L71.4298 202.214L46.5472 202.164L21.6699 202.033Z" fill="#263238"/>
<path d="M90.7065 5.28516H21.5317V58.5165H90.7065V5.28516Z" fill="#DBDBDB"/>
<path d="M86.2399 9.40723H25.9941V54.3935H86.2399V9.40723Z" fill="#EBEBEB"/>
<path d="M48.3449 15.8604H33.8037V48.5338H48.3449V15.8604Z" fill="white"/>
<path d="M78.4289 15.8604H53.1665V33.5292H78.4289V15.8604Z" fill="white"/>
<path d="M65.0648 36.3408H53.1665V48.5331H65.0648V36.3408Z" fill="white"/>
<path d="M78.4281 36.3408H70.125V48.5331H78.4281V36.3408Z" fill="white"/>
<path d="M48.3664 29.9604C52.1661 29.9604 55.2464 26.804 55.2464 22.9104C55.2464 19.0167 52.1661 15.8604 48.3664 15.8604C44.5666 15.8604 41.4863 19.0167 41.4863 22.9104C41.4863 26.804 44.5666 29.9604 48.3664 29.9604Z" fill="#DBDBDB"/>
<path d="M53.1665 48.5337H73.4481V27.751L53.1665 48.5337Z" fill="#DBDBDB"/>
<path d="M220.699 3.15234H149.534V114.966H220.699V3.15234Z" fill="#EBEBEB"/>
<path d="M183.465 7.63184H153.414V57.3656H183.465V7.63184Z" fill="white"/>
<path d="M216.82 7.63184H186.769V57.3656H216.82V7.63184Z" fill="white"/>
<path d="M183.465 60.7471H153.414V110.481H183.465V60.7471Z" fill="white"/>
<path d="M216.82 60.7471H186.769V110.481H216.82V60.7471Z" fill="white"/>
<path d="M193.104 3.15234H220.7V163.115H204.725L215.874 81.7166L193.104 3.15234Z" fill="#DBDBDB"/>
<path d="M197.888 7.47168L202.51 26.0012L207.052 44.5527L216.136 81.6502L216.147 81.6996L216.142 81.7489L211.846 120.546L209.695 139.942L207.464 159.332L209.433 139.914L211.493 120.502L215.612 81.6886L215.617 81.7818L206.71 44.6405L202.259 26.067L197.888 7.47168Z" fill="#EBEBEB"/>
<path d="M219.058 10.7559L219.186 26.7965L219.261 42.8427L219.325 74.9241L219.261 107.011L219.191 123.052L219.058 139.098L218.924 123.052L218.854 107.011L218.79 74.9241L218.854 42.8427L218.929 26.7965L219.058 10.7559Z" fill="#EBEBEB"/>
<path d="M213.9 13.7607L215.002 30.7992L216.029 47.8431L218.068 81.9254C217.934 88.2573 217.725 94.5891 217.559 100.921L217.024 119.911L216.489 138.907L215.879 157.919L216.232 138.923L216.666 119.927L217.105 100.932C217.254 94.6001 217.372 88.2627 217.559 81.9364L215.687 47.8376L214.756 30.8156L213.9 13.7607Z" fill="#EBEBEB"/>
<path d="M210.31 155.484L211.835 137.053L213.44 118.628C214.547 106.348 215.607 94.0625 216.746 81.7881V81.8593L211.765 53.1659L209.31 38.8137L206.897 24.4561L209.535 38.7754L212.135 53.0727L217.254 81.7387V81.81C216.184 94.0899 215.007 106.364 213.889 118.644L212.135 137.053L210.31 155.484Z" fill="#EBEBEB"/>
<path d="M220.7 80.374H214.467V84.1019H220.7V80.374Z" fill="#DBDBDB"/>
<path d="M166.391 3.15234H149.534V163.121H166.391V3.15234Z" fill="#DBDBDB"/>
<path d="M163.193 10.7559L163.327 28.0519L163.375 45.348L163.46 79.9402L163.375 114.532L163.327 131.828L163.193 149.125L163.064 131.828L163.016 114.532L162.931 79.9402L163.016 45.348L163.064 28.0519L163.193 10.7559Z" fill="#EBEBEB"/>
<path d="M155.457 14.7637L155.586 30.2123L155.661 45.6554L155.725 76.5417L155.661 107.428L155.586 122.871L155.457 138.32L155.324 122.871L155.249 107.428L155.19 76.5417L155.254 45.6554L155.324 30.2123L155.457 14.7637Z" fill="#EBEBEB"/>
<path d="M159.325 18.4141L159.459 36.4941L159.502 54.5796L159.593 90.7452L159.502 126.911L159.459 144.996L159.325 163.082L159.197 144.996L159.149 126.911L159.058 90.7452L159.149 54.5796L159.197 36.4941L159.325 18.4141Z" fill="#EBEBEB"/>
<path d="M152.579 11.666L152.707 30.5958L152.756 49.5201L152.847 87.3741L152.756 125.228L152.707 144.152L152.579 163.082L152.445 144.152L152.402 125.228L152.312 87.3741L152.402 49.5201L152.451 30.5958L152.579 11.666Z" fill="#EBEBEB"/>
<path d="M59.6174 68.4775H38.1802V83.5095H59.6174V68.4775Z" fill="#EBEBEB"/>
<path d="M38.1802 69.5792C40.0259 70.6427 41.8449 71.772 43.6532 72.8684C44.5627 73.4166 45.4508 74.0032 46.3281 74.5734L49.0031 76.2893H48.7142L51.3892 74.5734C52.288 74.0252 53.1761 73.4221 54.0642 72.8684L56.7873 71.1964C57.7021 70.6482 58.6116 70.1 59.5372 69.5518C58.6758 70.1822 57.7931 70.7852 56.9264 71.3992L54.3745 73.2522C53.4971 73.8607 52.5983 74.4308 51.6995 75.0229L49.0245 76.7827L48.8801 76.8759L48.7356 76.7827L46.0606 75.0229C45.1726 74.4308 44.2791 73.8607 43.3857 73.2522C41.6683 72.0352 39.9082 70.8346 38.1802 69.5792Z" fill="white"/>
<path d="M38.2607 80.8339C39.5553 79.6722 40.9147 78.5885 42.332 77.5885C43.7357 76.5673 45.197 75.6319 46.7083 74.7871C45.4151 75.9523 44.0556 77.0378 42.637 78.038C41.2332 79.0574 39.7719 79.991 38.2607 80.8339V80.8339Z" fill="white"/>
<path d="M59.5696 80.8339C58.0592 79.9898 56.598 79.0562 55.1934 78.038C53.7755 77.0391 52.4178 75.9535 51.1274 74.7871C52.637 75.6319 54.0965 76.5673 55.4983 77.5885C56.9176 78.5858 58.2771 79.6696 59.5696 80.8339Z" fill="white"/>
<path d="M38.4486 63.5107H37.9136V65.3253H38.4486V63.5107Z" fill="#DBDBDB"/>
<path d="M34.8075 64.8272L34.4292 65.2148L35.6814 66.4979L36.0597 66.1103L34.8075 64.8272Z" fill="#DBDBDB"/>
<path d="M34.9119 68.4004H33.1411V68.9486H34.9119V68.4004Z" fill="#DBDBDB"/>
<path d="M35.6853 70.8536L34.4331 72.1367L34.8114 72.5244L36.0636 71.2413L35.6853 70.8536Z" fill="#DBDBDB"/>
<path d="M38.4486 72.0303H37.9136V73.8449H38.4486V72.0303Z" fill="#DBDBDB"/>
<path d="M40.6874 70.8526L40.3091 71.2402L41.5612 72.5233L41.9395 72.1357L40.6874 70.8526Z" fill="#DBDBDB"/>
<path d="M43.2254 68.4004H41.4546V68.9486H43.2254V68.4004Z" fill="#DBDBDB"/>
<path d="M41.5559 64.8312L40.3037 66.1143L40.682 66.5019L41.9342 65.2188L41.5559 64.8312Z" fill="#DBDBDB"/>
<path d="M123.55 228.55C171.135 228.55 209.711 223.766 209.711 217.865C209.711 211.964 171.135 207.181 123.55 207.181C75.9647 207.181 37.3892 211.964 37.3892 217.865C37.3892 223.766 75.9647 228.55 123.55 228.55Z" fill="#EBEBEB"/>
<path d="M166.905 180.269H134.559V182.461H166.905V180.269Z" fill="#455A64"/>
<path d="M136.988 103.979L136.833 114.368L135.849 180.269L135.816 182.462L135.383 211.369H133.735L133.302 182.462L133.27 180.269L132.286 114.368L132.13 103.979H136.988Z" fill="#455A64"/>
<path d="M132.13 103.979H136.988L136.833 114.368H132.286L132.13 103.979Z" fill="#263238"/>
<path d="M169.328 103.979L169.173 114.368L167.723 211.369H166.075L165.642 182.462L165.61 180.269L164.625 114.368L164.47 103.979H169.328Z" fill="#455A64"/>
<path d="M169.328 103.979L169.173 114.368H164.625L164.47 103.979H169.328Z" fill="#263238"/>
<path d="M151.818 180.269H119.472V182.461H151.818V180.269Z" fill="#37474F"/>
<path d="M121.901 103.979L121.746 114.368L120.762 180.269L120.73 182.462L120.296 211.369H118.648L117.199 114.368L117.043 103.979H121.901Z" fill="#37474F"/>
<path d="M117.043 103.979H121.901L121.746 114.368H117.199L117.043 103.979Z" fill="#263238"/>
<path d="M154.247 103.979L154.092 114.368L153.107 180.269L153.075 182.462L152.642 211.369H150.994L150.561 182.462L150.529 180.269L149.544 114.368L149.389 103.979H154.247Z" fill="#37474F"/>
<path d="M149.389 103.979H154.247L154.092 114.368H149.544L149.389 103.979Z" fill="#263238"/>
<path d="M171.854 99.1445H115.112V104.835H171.854V99.1445Z" fill="#ED8D34"/>
<path opacity="0.1" d="M160.79 99.1445H115.112V104.835H160.79V99.1445Z" fill="#263238"/>
<path d="M175.465 49.0487L171.843 99.1443H137.999L137.694 94.3365L134.768 48.6211L170.928 48.9994L175.465 49.0487Z" fill="#ED8D34"/>
<path opacity="0.1" d="M170.928 48.9994L168.441 99.1443H137.999L137.694 94.3365L134.768 48.6211L170.928 48.9994Z" fill="#263238"/>
<path d="M172.19 94.3369L171.843 99.1447H137.999L137.694 94.3369H172.19Z" fill="#263238"/>
<path d="M131.2 21.8312C124.555 29.0895 123.94 46.9503 133.067 58.523C140.793 68.3196 157.757 69.4434 164.734 63.0512C172.138 56.2699 170.923 45.3769 164.685 41.1228C158.661 37.0167 151.749 37.9048 148.026 33.4204C146.239 31.2714 145.399 26.5842 142.9 23.2949C140.113 19.6329 134.603 18.1088 131.2 21.8312Z" fill="#263238"/>
<path d="M139.182 49.2801C137.454 61.0173 135.935 70.1121 133.003 72.6613C130.638 74.7007 127.177 76.3508 123.571 77.6501C119.71 78.9867 115.768 80.0617 111.769 80.8681C110.539 81.1257 109.511 81.3176 108.784 81.4601C106.981 81.8 102.583 69.8709 103.696 68.2153C103.953 67.8371 105.119 67.4259 106.772 67.0038C112.342 65.5894 123.453 64.0654 124.042 63.3362C124.63 62.6071 127.674 57.273 131.799 50.2833C134.645 45.4536 137.246 43.8199 138.513 44.9108C139.225 45.5303 139.514 47.016 139.182 49.2801Z" fill="#EB9481"/>
<path d="M111.77 80.8686C109.981 81.965 108.122 82.9375 106.206 83.7796C104.665 84.3826 100.187 85.9724 99.3741 84.3278C98.8391 83.1875 101.343 81.9266 103.119 80.9946C104.05 80.5013 105.157 79.35 104.82 78.7579C104.237 77.6615 101.846 79.0101 100.294 80.1175C97.293 82.2555 93.3393 85.9889 91.3064 84.5032C90.5306 83.955 91.3064 82.7434 92.4299 81.5374C90.5306 82.9956 88.4709 84.2291 87.6149 83.6425C87.3887 83.4914 87.2266 83.2583 87.1611 82.9899C87.0956 82.7215 87.1316 82.4376 87.2618 82.1952C87.0185 82.3373 86.7393 82.4016 86.4601 82.3802C86.1808 82.3587 85.9142 82.2523 85.6943 82.0746C84.9881 81.4277 85.2235 80.3697 85.8494 79.2513C85.7266 79.2486 85.6062 79.2159 85.4982 79.1558C85.3903 79.0957 85.2979 79.0101 85.2288 78.906C83.672 76.8611 90.0919 70.0907 92.4406 69.3123C99.3366 67.0098 106.885 67.0098 106.885 67.0098C109.753 69.0381 111.775 80.8631 111.77 80.8686Z" fill="#EB9481"/>
<path d="M100.894 75.0132C99.2366 75.4068 97.6853 76.1727 96.3519 77.2554C94.8004 78.5491 93.6234 80.2321 92.211 81.6411C92.2075 81.645 92.2048 81.6496 92.203 81.6547C92.2013 81.6597 92.2005 81.6651 92.2007 81.6704C92.201 81.6757 92.2022 81.681 92.2045 81.6858C92.2067 81.6907 92.2098 81.695 92.2137 81.6986C92.2176 81.7022 92.2221 81.705 92.227 81.7068C92.2319 81.7086 92.2371 81.7094 92.2423 81.7092C92.2476 81.7089 92.2527 81.7076 92.2574 81.7053C92.2621 81.703 92.2664 81.6998 92.2699 81.6959C92.9279 80.9613 93.6662 80.2925 94.3564 79.5853C95.0465 78.8781 95.6831 78.1764 96.4 77.5349C97.6955 76.3552 99.2359 75.4929 100.905 75.0132C100.905 75.0132 100.91 75.0077 100.894 75.0132Z" fill="#263238"/>
<path d="M99.3424 72.0641C97.4987 72.6764 95.7205 73.4791 94.0352 74.4598C92.2376 75.5946 90.8948 77.316 89.5734 78.977C88.7744 79.9711 88.0023 80.9835 87.2568 82.0141C87.2247 82.058 87.2568 82.1183 87.3157 82.0744C88.6532 80.364 90.0424 78.6956 91.4833 77.0693C92.8086 75.5517 94.4142 74.3182 96.2073 73.4401C97.2291 72.9357 98.2938 72.5191 99.3477 72.097C99.3691 72.0915 99.3584 72.0586 99.3424 72.0641Z" fill="#263238"/>
<path d="M97.1532 69.5582C95.3877 70.1064 93.8469 70.5395 92.3382 71.6579C90.6504 73.0219 89.1354 74.5965 87.8282 76.3451C87.1113 77.2716 86.4212 78.2255 85.7471 79.1848C85.7203 79.2232 85.7845 79.2725 85.8166 79.2342C87.3656 77.1145 89.0472 75.1002 90.8509 73.2038C91.6945 72.2877 92.6729 71.5126 93.7506 70.9068C94.8472 70.3575 95.9872 69.9046 97.1585 69.5527C97.1585 69.5527 97.1585 69.5527 97.1532 69.5582Z" fill="#263238"/>
<path d="M139.183 49.2794C137.455 61.0166 135.936 70.1115 133.004 72.6606C130.64 74.7 127.178 76.3501 123.572 77.6494L138.515 44.9102C139.226 45.5296 139.515 47.0153 139.183 49.2794Z" fill="#263238"/>
<path d="M139.911 47.2515C139.911 47.4324 139.911 47.6243 139.911 47.7997C139.911 47.9751 139.911 48.1067 139.879 48.2712C139.636 51.2012 139.165 54.1068 138.472 56.9603H138.001H137.541L133.796 57.0864H133.261L129.548 57.2125H129.072L127.708 57.2564L126.638 57.2947C126.638 57.2947 130.383 49.9377 134.663 45.4972C135.062 45.0718 135.516 44.703 136.011 44.4008C137.947 43.3427 139.873 43.9677 139.911 47.2515Z" fill="#ED8D34"/>
<path d="M137.781 44.658C137.935 44.658 138.059 44.5304 138.059 44.373C138.059 44.2155 137.935 44.0879 137.781 44.0879C137.627 44.0879 137.503 44.2155 137.503 44.373C137.503 44.5304 137.627 44.658 137.781 44.658Z" fill="white"/>
<path d="M133.823 50.7763C133.823 50.8329 133.806 50.8883 133.775 50.9353C133.744 50.9823 133.701 51.0188 133.65 51.0402C133.598 51.0616 133.542 51.0669 133.488 51.0555C133.434 51.044 133.384 51.0163 133.346 50.9759C133.307 50.9355 133.281 50.8842 133.271 50.8285C133.261 50.7729 133.267 50.7154 133.289 50.6634C133.311 50.6114 133.347 50.5673 133.394 50.5366C133.44 50.506 133.494 50.4902 133.55 50.4913C133.586 50.4913 133.622 50.4987 133.655 50.5131C133.689 50.5275 133.719 50.5485 133.745 50.5751C133.77 50.6016 133.79 50.6331 133.803 50.6677C133.817 50.7022 133.823 50.7392 133.823 50.7763V50.7763Z" fill="white"/>
<path d="M137.781 51.0506C137.935 51.0506 138.059 50.923 138.059 50.7655C138.059 50.6081 137.935 50.4805 137.781 50.4805C137.627 50.4805 137.503 50.6081 137.503 50.7655C137.503 50.923 137.627 51.0506 137.781 51.0506Z" fill="white"/>
<path d="M135.662 47.8162C135.816 47.8162 135.94 47.6886 135.94 47.5312C135.94 47.3737 135.816 47.2461 135.662 47.2461C135.508 47.2461 135.384 47.3737 135.384 47.5312C135.384 47.6886 135.508 47.8162 135.662 47.8162Z" fill="white"/>
<path d="M139.91 47.2512C139.91 47.4321 139.91 47.624 139.91 47.7994C139.869 47.8115 139.825 47.8136 139.783 47.8056C139.741 47.7975 139.701 47.7795 139.666 47.7529C139.632 47.7263 139.604 47.6919 139.585 47.6524C139.566 47.6129 139.556 47.5694 139.556 47.5253C139.556 47.4812 139.566 47.4377 139.585 47.3982C139.604 47.3587 139.632 47.3243 139.666 47.2977C139.701 47.2712 139.741 47.2531 139.783 47.245C139.825 47.237 139.869 47.2391 139.91 47.2512V47.2512Z" fill="white"/>
<path d="M129.591 57.1519C129.592 57.1979 129.581 57.2433 129.559 57.2835H129.083C129.055 57.2394 129.04 57.188 129.04 57.1355C129.057 57.0759 129.092 57.0235 129.14 56.9862C129.188 56.9489 129.247 56.9287 129.308 56.9287C129.368 56.9287 129.427 56.9489 129.475 56.9862C129.523 57.0235 129.558 57.0759 129.575 57.1355L129.591 57.1519Z" fill="white"/>
<path d="M133.822 57.1355H133.287C133.303 57.0759 133.338 57.0235 133.387 56.9862C133.435 56.9489 133.494 56.9287 133.554 56.9287C133.615 56.9287 133.673 56.9489 133.722 56.9862C133.77 57.0235 133.805 57.0759 133.822 57.1355V57.1355Z" fill="white"/>
<path d="M138.006 56.9935H137.546C137.57 56.9516 137.605 56.917 137.646 56.8929C137.687 56.8689 137.734 56.8563 137.781 56.8564C137.827 56.8587 137.871 56.8723 137.91 56.8962C137.95 56.9201 137.982 56.9535 138.006 56.9935V56.9935Z" fill="white"/>
<path d="M131.431 54.2078C131.584 54.2078 131.709 54.0802 131.709 53.9228C131.709 53.7653 131.584 53.6377 131.431 53.6377C131.277 53.6377 131.152 53.7653 131.152 53.9228C131.152 54.0802 131.277 54.2078 131.431 54.2078Z" fill="white"/>
<path d="M135.662 54.2078C135.816 54.2078 135.94 54.0802 135.94 53.9228C135.94 53.7653 135.816 53.6377 135.662 53.6377C135.508 53.6377 135.384 53.7653 135.384 53.9228C135.384 54.0802 135.508 54.2078 135.662 54.2078Z" fill="white"/>
<path d="M139.91 47.2515C139.91 47.4324 139.91 47.6243 139.91 47.7997C139.91 47.9751 139.91 48.1067 139.878 48.2712C139.635 51.2012 139.164 54.1068 138.471 56.9603H138H137.54L133.795 57.0864H133.26L129.547 57.2125H129.071L127.707 57.2564L135.983 44.4117C137.947 43.3427 139.873 43.9677 139.91 47.2515Z" fill="#263238"/>
<path d="M113.455 187.94C114.777 187.709 146.877 170.123 147.695 168.659C148.005 168.111 145.78 163.177 142.923 157.273C142.302 156.001 141.66 154.691 140.997 153.364C136.717 144.746 131.966 135.706 131.966 135.706L110.459 147.41L120.089 164.745L122.197 168.555C122.197 168.555 112.84 180.923 112.118 182.622C111.396 184.321 112.134 188.17 113.455 187.94Z" fill="#EB9481"/>
<path d="M113.454 187.939C114.776 187.709 146.875 170.122 147.694 168.658C148.068 167.979 144.703 160.83 140.996 153.363L120.083 164.744L122.191 168.554C122.191 168.554 112.839 180.922 112.117 182.621C111.395 184.321 112.133 188.169 113.454 187.939Z" fill="white"/>
<path d="M113.454 187.939C114.776 187.709 146.875 170.123 147.694 168.659C148.004 168.111 145.779 163.177 142.922 157.272L122.191 168.555C122.191 168.555 112.839 180.922 112.117 182.622C111.395 184.321 112.133 188.17 113.454 187.939Z" fill="#ED8D34"/>
<path d="M113.23 186.371C118.543 183.29 140.242 171.361 145.72 168.729C145.763 168.729 145.779 168.729 145.72 168.762C140.526 171.937 118.73 183.679 113.262 186.464C113.161 186.519 113.118 186.437 113.23 186.371Z" fill="#263238"/>
<path d="M113.563 180.308C114.153 179.964 114.806 179.749 115.481 179.677C116.156 179.605 116.838 179.678 117.484 179.891C118.652 180.261 119.634 181.081 120.224 182.177C120.224 182.21 120.181 182.243 120.159 182.21C119.407 181.218 118.361 180.503 117.178 180.173C115.995 179.843 114.74 179.915 113.6 180.379C113.557 180.396 113.52 180.335 113.563 180.308Z" fill="#263238"/>
<path d="M120.388 170.242C122.528 169.031 125.428 168.444 127.707 169.513C127.798 169.557 127.739 169.683 127.654 169.689C125.243 169.709 122.842 169.992 120.49 170.533C120.452 170.547 120.411 170.545 120.375 170.527C120.339 170.51 120.311 170.478 120.297 170.44C120.284 170.401 120.286 170.359 120.303 170.322C120.32 170.285 120.351 170.256 120.388 170.242V170.242Z" fill="#263238"/>
<path d="M119.073 171.821C121.213 170.609 124.113 170.017 126.392 171.092C126.483 171.13 126.424 171.262 126.338 171.262C123.927 171.281 121.526 171.566 119.175 172.111C119.156 172.118 119.136 172.121 119.116 172.12C119.097 172.119 119.077 172.114 119.059 172.106C119.042 172.097 119.026 172.085 119.012 172.07C118.999 172.055 118.989 172.037 118.982 172.018C118.975 171.999 118.972 171.979 118.973 171.959C118.974 171.938 118.979 171.919 118.988 171.9C118.996 171.882 119.008 171.865 119.023 171.852C119.037 171.838 119.054 171.828 119.073 171.821V171.821Z" fill="#263238"/>
<path d="M117.757 173.395C119.897 172.183 122.797 171.596 125.076 172.665C125.167 172.709 125.108 172.835 125.023 172.835C122.612 172.855 120.21 173.14 117.859 173.685C117.822 173.699 117.78 173.697 117.744 173.679C117.708 173.662 117.68 173.63 117.667 173.592C117.653 173.553 117.655 173.511 117.672 173.474C117.689 173.437 117.72 173.408 117.757 173.395Z" fill="#263238"/>
<path d="M116.44 174.969C118.58 173.757 121.479 173.171 123.758 174.24C123.849 174.284 123.791 174.41 123.705 174.415C121.294 174.435 118.893 174.72 116.541 175.265C116.505 175.271 116.468 175.265 116.436 175.246C116.404 175.227 116.38 175.197 116.368 175.161C116.355 175.125 116.356 175.087 116.369 175.051C116.382 175.016 116.407 174.987 116.44 174.969Z" fill="#263238"/>
<path d="M141.617 164.256C144.035 162.941 146.036 166.794 143.612 168.094C141.189 169.393 139.193 165.561 141.617 164.256Z" fill="#263238"/>
<path d="M116.847 168.773C118.811 169.673 121.085 169.667 123.187 169.914C123.234 169.916 123.281 169.906 123.324 169.886C123.366 169.866 123.404 169.835 123.432 169.797C123.461 169.759 123.481 169.714 123.489 169.667C123.498 169.62 123.495 169.571 123.481 169.525C123.491 169.521 123.499 169.516 123.506 169.509C123.513 169.501 123.518 169.493 123.521 169.483C123.524 169.474 123.525 169.464 123.524 169.454C123.522 169.444 123.519 169.434 123.513 169.426C122.298 167.489 120.609 165.912 118.613 164.854C117.441 164.262 115.595 164.108 114.986 165.632C114.376 167.156 115.697 168.247 116.847 168.773ZM115.777 166.997C114.739 164.481 117.816 165.166 118.661 165.638C119.207 165.953 119.73 166.307 120.229 166.696C121.272 167.485 122.187 168.412 123.144 169.3C122.122 169.113 121.09 169.02 120.063 168.872C118.848 168.697 116.371 168.384 115.793 166.997H115.777Z" fill="#263238"/>
<path d="M130.431 163.823C129.511 162.474 127.756 163.044 126.723 163.889C125.005 165.373 123.697 167.294 122.93 169.458C122.927 169.468 122.926 169.478 122.927 169.488C122.928 169.498 122.931 169.507 122.936 169.516C122.941 169.524 122.948 169.531 122.956 169.536C122.965 169.542 122.974 169.545 122.984 169.546C122.981 169.594 122.99 169.642 123.009 169.687C123.029 169.731 123.057 169.77 123.094 169.8C123.13 169.831 123.173 169.853 123.219 169.864C123.264 169.875 123.312 169.875 123.358 169.864C125.354 169.146 127.574 168.631 129.291 167.309C130.281 166.536 131.297 165.1 130.431 163.823ZM126.151 168.143C125.177 168.521 124.193 168.844 123.23 169.239C123.973 168.143 124.669 167.046 125.519 166.038C125.92 165.546 126.353 165.083 126.814 164.651C127.536 163.998 130.393 162.633 129.922 165.325C129.676 166.827 127.322 167.693 126.167 168.143H126.151Z" fill="#263238"/>
<path d="M125.466 116.013C126.001 122.433 140.414 150.55 140.414 150.55L121.47 160.281L117.677 162.233C117.677 162.233 100.145 130.563 101.092 116.309C101.9 104.215 122.331 88.9752 134.898 74.0967H151.836C146.486 90.9652 126.884 109.588 125.514 115.273C125.463 115.516 125.447 115.765 125.466 116.013V116.013Z" fill="#455A64"/>
<path d="M117.655 157.562C121.4 155.518 120.282 156.055 124.027 154.054C125.862 153.073 135.064 148.133 136.92 147.508C136.93 147.506 136.94 147.507 136.949 147.511C136.958 147.515 136.965 147.522 136.969 147.531C136.974 147.54 136.975 147.55 136.973 147.56C136.971 147.57 136.966 147.579 136.958 147.585C135.353 148.758 126.071 153.5 124.22 154.443C120.443 156.373 121.507 155.781 117.709 157.667C117.702 157.672 117.694 157.677 117.686 157.679C117.677 157.681 117.668 157.682 117.659 157.68C117.651 157.678 117.643 157.674 117.636 157.669C117.629 157.664 117.623 157.657 117.619 157.649C117.614 157.641 117.612 157.632 117.612 157.623C117.612 157.614 117.613 157.605 117.617 157.597C117.62 157.588 117.626 157.581 117.632 157.575C117.639 157.569 117.647 157.565 117.655 157.562Z" fill="#263238"/>
<path d="M149.846 76.7177C144.472 86.0342 138.39 94.9025 131.656 103.24C130.008 105.269 128.307 107.242 126.6 109.221C125.156 110.866 123.695 112.746 123.417 115.038C123.112 117.592 124.198 120.076 125.07 122.4C126.033 124.966 127.007 127.526 128.024 130.075C129.126 132.816 130.276 135.557 131.554 138.194C132.211 139.554 132.897 140.897 133.614 142.224C133.971 142.885 134.34 143.543 134.722 144.197C134.909 144.526 136.236 146.768 136.428 147.097C136.492 147.201 136.653 147.327 136.492 147.053C136.129 146.439 134.647 143.896 134.304 143.271C132.956 140.804 131.752 138.265 130.613 135.689C129.473 133.112 128.382 130.437 127.355 127.778C126.328 125.119 125.268 122.51 124.396 119.851C123.881 118.49 123.625 117.04 123.642 115.58C123.755 114.171 124.243 112.821 125.054 111.677C126.51 109.484 128.457 107.577 130.131 105.554C133.612 101.354 136.919 97.0125 140.05 92.5281C143.611 87.4558 146.911 82.1968 149.937 76.7725C149.937 76.7122 149.873 76.6793 149.846 76.7177Z" fill="#263238"/>
<path d="M140.414 150.551L121.47 160.282L125.466 116.014C126.001 122.433 140.414 150.551 140.414 150.551Z" fill="#263238"/>
<path d="M133.293 222.367C134.636 222.367 169.175 210.58 170.208 209.281C170.604 208.788 169.224 203.536 167.378 197.22C166.982 195.861 166.559 194.479 166.126 193.037C163.323 183.806 160.134 174.069 160.134 174.069L137.006 181.887L143.64 200.636L145.09 204.753C145.09 204.753 133.855 215.328 132.844 216.879C131.833 218.431 131.956 222.334 133.293 222.367Z" fill="#EB9481"/>
<path d="M133.294 222.367C134.636 222.367 169.176 210.581 170.208 209.281C170.69 208.678 168.55 201.058 166.126 193.049L143.656 200.647L145.106 204.764C145.106 204.764 133.871 215.339 132.86 216.891C131.849 218.442 131.956 222.334 133.294 222.367Z" fill="white"/>
<path d="M133.293 222.367C134.636 222.367 169.175 210.581 170.208 209.281C170.604 208.788 169.224 203.536 167.378 197.221L145.09 204.753C145.09 204.753 133.855 215.328 132.844 216.88C131.833 218.431 131.956 222.334 133.293 222.367Z" fill="#ED8D34"/>
<path d="M133.33 220.75C139.07 218.634 162.428 210.63 168.259 208.985C168.308 208.985 168.318 208.985 168.259 209.018C162.615 211.249 139.199 219.056 133.351 220.849C133.239 220.887 133.207 220.799 133.33 220.75Z" fill="#263238"/>
<path d="M134.657 214.834C135.294 214.597 135.973 214.498 136.65 214.543C137.327 214.588 137.987 214.777 138.589 215.097C139.681 215.669 140.515 216.651 140.916 217.838C140.916 217.871 140.863 217.893 140.847 217.838C140.269 216.73 139.355 215.844 138.244 215.314C137.133 214.783 135.883 214.636 134.683 214.894C134.635 214.916 134.609 214.851 134.657 214.834Z" fill="#263238"/>
<path d="M143.04 206.096C145.345 205.268 148.304 205.192 150.374 206.644C150.455 206.699 150.374 206.814 150.294 206.803C147.915 206.405 145.501 206.269 143.093 206.398C143.055 206.402 143.017 206.392 142.986 206.369C142.955 206.346 142.935 206.311 142.928 206.273C142.921 206.234 142.929 206.195 142.949 206.162C142.97 206.129 143.003 206.105 143.04 206.096V206.096Z" fill="#263238"/>
<path d="M141.483 207.417C143.789 206.595 146.747 206.518 148.818 207.966C148.898 208.026 148.818 208.141 148.737 208.125C146.358 207.728 143.944 207.594 141.536 207.724C141.501 207.724 141.466 207.71 141.439 207.686C141.411 207.662 141.393 207.63 141.387 207.593C141.38 207.557 141.387 207.52 141.404 207.488C141.422 207.456 141.449 207.431 141.483 207.417V207.417Z" fill="#263238"/>
<path d="M139.91 208.743C142.216 207.921 145.174 207.839 147.245 209.292C147.325 209.346 147.245 209.462 147.17 209.451C144.789 209.054 142.373 208.92 139.964 209.05C139.928 209.05 139.893 209.036 139.866 209.012C139.839 208.988 139.82 208.956 139.814 208.919C139.808 208.883 139.814 208.846 139.831 208.814C139.849 208.782 139.877 208.757 139.91 208.743V208.743Z" fill="#263238"/>
<path d="M138.37 210.071C140.676 209.243 143.634 209.166 145.704 210.619C145.785 210.674 145.704 210.789 145.63 210.778C143.248 210.38 140.833 210.244 138.423 210.372C138.385 210.377 138.347 210.367 138.316 210.344C138.286 210.32 138.265 210.286 138.258 210.247C138.251 210.209 138.259 210.169 138.28 210.136C138.3 210.104 138.333 210.08 138.37 210.071V210.071Z" fill="#263238"/>
<path d="M164.953 203.848C167.559 202.971 168.896 207.137 166.285 207.993C163.674 208.848 162.348 204.731 164.953 203.848Z" fill="#263238"/>
<path d="M139.793 204.029C141.58 205.257 143.827 205.646 145.854 206.255C146.063 206.315 146.213 206.107 146.207 205.92C146.217 205.919 146.227 205.915 146.235 205.909C146.243 205.903 146.25 205.895 146.255 205.886C146.26 205.878 146.263 205.868 146.264 205.858C146.265 205.847 146.264 205.837 146.261 205.827C145.381 203.706 143.974 201.859 142.179 200.471C141.109 199.687 139.327 199.216 138.477 200.614C137.626 202.012 138.75 203.311 139.793 204.029ZM139.049 202.083C138.439 199.419 141.355 200.63 142.115 201.244C142.599 201.649 143.057 202.087 143.484 202.554C144.35 203.536 145.166 204.562 145.929 205.63C144.95 205.268 143.95 204.994 142.96 204.671C141.778 204.303 139.376 203.569 139.049 202.083Z" fill="#263238"/>
<path d="M153.997 201.535C153.312 200.044 151.477 200.296 150.332 200.954C148.395 202.12 146.79 203.788 145.678 205.789C145.673 205.798 145.669 205.808 145.668 205.818C145.667 205.828 145.669 205.838 145.672 205.848C145.676 205.858 145.682 205.866 145.689 205.873C145.697 205.88 145.706 205.885 145.715 205.888C145.689 206.069 145.812 206.299 146.031 206.26C148.118 205.899 150.386 205.778 152.301 204.769C153.419 204.155 154.644 202.911 153.997 201.535ZM149.08 205.049C148.059 205.252 147.037 205.405 146.02 205.646C146.935 204.703 147.802 203.728 148.802 202.905C149.278 202.489 149.782 202.108 150.311 201.765C151.13 201.244 154.168 200.389 153.264 202.966C152.751 204.331 150.3 204.78 149.08 205.021V205.049Z" fill="#263238"/>
<path d="M141.092 198.596L166.125 190.143C166.125 190.143 154.098 154.657 151.236 136.846C149.727 127.477 156.837 100.867 159.363 98.175C165.815 91.295 166.103 84.097 161.433 74.0537H140.306C140.306 74.0537 141.601 84.6781 141.419 85.1002C136.7 96.0589 123.004 120.641 125.23 139.039C128.857 169.075 141.092 198.596 141.092 198.596Z" fill="#455A64"/>
<path d="M140.349 193.312C145.495 191.195 161.92 185.697 163.744 185.379C163.787 185.379 163.808 185.439 163.771 185.456C162.166 186.366 153.542 189.386 140.386 193.427C140.379 193.429 140.371 193.43 140.363 193.43C140.355 193.429 140.348 193.427 140.341 193.423C140.334 193.42 140.328 193.415 140.323 193.409C140.317 193.403 140.314 193.396 140.311 193.388C140.309 193.381 140.308 193.373 140.308 193.365C140.309 193.357 140.311 193.349 140.314 193.342C140.318 193.335 140.323 193.328 140.329 193.323C140.334 193.318 140.341 193.314 140.349 193.312V193.312Z" fill="#263238"/>
<path d="M139.777 74.4871C140.12 77.2665 140.227 82.0304 141.805 82.0304C143.383 82.0304 142.843 76.2194 142.827 74.9037C142.827 73.6867 143.223 73.8347 143.335 75.2655C143.629 79.1359 143.688 82.5622 141.666 82.5019C139.643 82.4416 139.376 76.4003 139.376 75.0243C139.376 74.3116 139.67 73.6099 139.777 74.4871Z" fill="#263238"/>
<path d="M141.709 82.216C141.851 83.1887 141.874 84.1758 141.778 85.1544C141.778 85.2366 141.452 85.1873 141.42 85.127C141.211 84.7323 141.275 82.819 141.2 82.3092C141.188 82.2401 141.203 82.169 141.243 82.1114C141.282 82.0538 141.342 82.0145 141.409 82.0022C141.476 81.9898 141.546 82.0054 141.602 82.0455C141.658 82.0856 141.697 82.1469 141.709 82.216V82.216Z" fill="#263238"/>
<path d="M141.42 85.1274C137.546 92.0294 131.886 105.049 131.496 107.451C131.496 107.571 131.603 107.632 131.651 107.511C132.533 105.318 138.434 92.2103 141.778 85.1548C141.848 85.0178 141.484 85.0068 141.42 85.1274Z" fill="#263238"/>
<path d="M152.087 115.772C153.766 109.122 155.735 102.434 159.159 96.4804C160.106 94.8358 161.251 93.3063 162.144 91.6342C162.991 90.08 163.454 88.3373 163.493 86.5578C163.562 82.7203 161.968 79.0802 160.422 75.6758C160.379 75.5771 160.235 75.6758 160.283 75.769C161.77 79.0582 163.321 82.6161 163.295 86.3221C163.28 88.1429 162.813 89.9298 161.936 91.5136C161.144 92.9773 160.16 94.3205 159.314 95.7458C155.869 101.524 153.809 108.026 152.124 114.539C150.332 121.484 148.197 128.628 149.048 135.88C149.555 139.464 150.308 143.007 151.3 146.483C152.258 150.167 153.258 153.84 154.275 157.513C156.554 165.736 158.838 174.014 161.492 182.139C161.492 182.166 161.551 182.139 161.54 182.139C159.437 174.771 157.201 167.452 155.168 160.062C154.162 156.389 153.178 152.711 152.215 149.027C151.257 145.354 150.219 141.686 149.593 137.936C148.949 134.139 148.96 130.255 149.626 126.462C150.257 122.849 151.193 119.302 152.087 115.772Z" fill="#263238"/>
<path d="M162.29 74.6619C161.299 75.2592 160.271 75.7902 159.214 76.2518L158.711 76.4601C155.766 77.6431 152.684 78.4264 149.541 78.79C140.141 79.9631 131.271 77.9567 130.522 76.7068L131.522 66.976L131.576 66.4278L131.71 65.1066C131.71 65.1066 129.388 62.0585 129.265 58.5281C129.259 58.1469 129.295 57.7663 129.372 57.3933C129.398 57.2288 129.436 57.0589 129.479 56.8779C130.164 54.0272 132.378 49.806 134.267 46.8786C134.876 45.8937 135.561 44.9606 136.316 44.0882C138.456 41.7802 140.847 41.2539 143.196 41.8953C144.271 42.2151 145.287 42.7153 146.203 43.3755C148.442 45.041 150.348 47.1331 151.815 49.5374C153.505 52.1852 155.303 56.0666 156.919 59.9863C156.977 60.1234 157.031 60.2604 157.084 60.3975C159.989 67.5571 162.29 74.6619 162.29 74.6619Z" fill="#ED8D34"/>
<path d="M138.06 44.373C138.06 44.4486 138.031 44.5211 137.978 44.5745C137.926 44.628 137.855 44.658 137.782 44.658C137.727 44.658 137.673 44.6413 137.627 44.61C137.581 44.5787 137.546 44.5341 137.525 44.4821C137.504 44.43 137.498 44.3726 137.509 44.3173C137.52 44.262 137.546 44.2113 137.585 44.1714C137.624 44.1315 137.673 44.1044 137.727 44.0934C137.781 44.0824 137.837 44.088 137.888 44.1096C137.939 44.1312 137.982 44.1677 138.013 44.2146C138.044 44.2615 138.06 44.3166 138.06 44.373V44.373ZM142.013 44.0934C141.958 44.0934 141.904 44.1102 141.858 44.1418C141.812 44.1734 141.777 44.2182 141.756 44.2707C141.735 44.3231 141.73 44.3807 141.741 44.4361C141.752 44.4915 141.779 44.5423 141.819 44.582C141.858 44.6216 141.908 44.6483 141.963 44.6587C142.017 44.6691 142.073 44.6626 142.124 44.6402C142.174 44.6178 142.217 44.5804 142.247 44.5328C142.277 44.4852 142.293 44.4296 142.292 44.373C142.292 44.3358 142.284 44.299 142.27 44.2647C142.256 44.2304 142.236 44.1993 142.21 44.1733C142.184 44.1473 142.153 44.1268 142.119 44.1131C142.086 44.0993 142.05 44.0926 142.013 44.0934V44.0934ZM146.251 44.0934C146.195 44.0923 146.141 44.1082 146.094 44.1391C146.047 44.17 146.011 44.2145 145.989 44.2668C145.968 44.3191 145.962 44.3769 145.972 44.4327C145.983 44.4885 146.009 44.5398 146.049 44.58C146.088 44.6202 146.138 44.6474 146.192 44.6582C146.247 44.6691 146.303 44.663 146.354 44.6407C146.405 44.6185 146.449 44.5811 146.479 44.5334C146.509 44.4857 146.524 44.4298 146.523 44.373C146.523 44.2988 146.495 44.2277 146.444 44.1753C146.392 44.1228 146.323 44.0934 146.251 44.0934ZM133.55 50.48C133.513 50.48 133.477 50.4874 133.443 50.5017C133.41 50.5161 133.379 50.5371 133.353 50.5635C133.327 50.59 133.307 50.6214 133.293 50.656C133.279 50.6906 133.272 50.7277 133.272 50.7651C133.26 50.8075 133.258 50.8522 133.266 50.8956C133.273 50.9389 133.291 50.9799 133.317 51.0151C133.343 51.0503 133.377 51.0789 133.415 51.0986C133.454 51.1182 133.496 51.1285 133.539 51.1285C133.582 51.1285 133.625 51.1182 133.663 51.0986C133.702 51.0789 133.735 51.0503 133.761 51.0151C133.787 50.9799 133.805 50.9389 133.813 50.8956C133.821 50.8522 133.818 50.8075 133.807 50.7651C133.808 50.6928 133.782 50.6227 133.734 50.5695C133.686 50.5163 133.62 50.4843 133.55 50.48V50.48ZM137.782 50.48C137.745 50.48 137.709 50.4874 137.675 50.5017C137.641 50.5161 137.611 50.5371 137.585 50.5635C137.559 50.59 137.539 50.6214 137.525 50.656C137.511 50.6906 137.503 50.7277 137.503 50.7651C137.503 50.8407 137.533 50.9132 137.585 50.9667C137.637 51.0202 137.708 51.0502 137.782 51.0502C137.855 51.0488 137.925 51.0183 137.977 50.9651C138.029 50.912 138.058 50.8403 138.06 50.7651C138.06 50.7267 138.052 50.6887 138.038 50.6534C138.023 50.6181 138.002 50.5862 137.975 50.5596C137.948 50.5329 137.916 50.5122 137.881 50.4985C137.846 50.4849 137.808 50.4786 137.771 50.48H137.782ZM142.013 50.48C141.977 50.48 141.941 50.4874 141.908 50.5018C141.874 50.5162 141.844 50.5373 141.819 50.5639C141.793 50.5904 141.773 50.6219 141.76 50.6564C141.746 50.691 141.74 50.7279 141.741 50.7651C141.741 50.8217 141.757 50.8771 141.788 50.924C141.819 50.971 141.862 51.0076 141.914 51.029C141.965 51.0504 142.021 51.0557 142.075 51.0442C142.129 51.0328 142.179 51.0051 142.217 50.9647C142.256 50.9242 142.282 50.8729 142.292 50.8173C142.302 50.7616 142.296 50.7041 142.274 50.6522C142.252 50.6002 142.216 50.5561 142.169 50.5254C142.123 50.4947 142.069 50.479 142.013 50.48V50.48ZM146.251 50.48C146.214 50.48 146.178 50.4874 146.144 50.5017C146.11 50.5161 146.08 50.5371 146.054 50.5635C146.028 50.59 146.008 50.6214 145.994 50.656C145.98 50.6906 145.972 50.7277 145.972 50.7651C145.961 50.8075 145.959 50.8522 145.966 50.8956C145.974 50.9389 145.992 50.9799 146.018 51.0151C146.044 51.0503 146.077 51.0789 146.116 51.0986C146.154 51.1182 146.197 51.1285 146.24 51.1285C146.283 51.1285 146.325 51.1182 146.364 51.0986C146.402 51.0789 146.436 51.0503 146.462 51.0151C146.488 50.9799 146.506 50.9389 146.513 50.8956C146.521 50.8522 146.519 50.8075 146.507 50.7651C146.509 50.6928 146.483 50.6227 146.435 50.5695C146.387 50.5163 146.321 50.4843 146.251 50.48V50.48ZM150.482 50.48C150.446 50.48 150.41 50.4874 150.376 50.5017C150.342 50.5161 150.312 50.5371 150.286 50.5635C150.26 50.59 150.239 50.6214 150.225 50.656C150.211 50.6906 150.204 50.7277 150.204 50.7651C150.204 50.8407 150.233 50.9132 150.286 50.9667C150.338 51.0202 150.409 51.0502 150.482 51.0502C150.556 51.0488 150.626 51.0183 150.678 50.9651C150.729 50.912 150.759 50.8403 150.761 50.7651C150.761 50.7277 150.753 50.6906 150.739 50.656C150.725 50.6214 150.705 50.59 150.679 50.5635C150.653 50.5371 150.623 50.5161 150.589 50.5017C150.555 50.4874 150.519 50.48 150.482 50.48V50.48ZM135.663 47.2511C135.608 47.2511 135.554 47.268 135.508 47.2995C135.462 47.3311 135.426 47.3759 135.406 47.4284C135.385 47.4808 135.379 47.5384 135.391 47.5938C135.402 47.6492 135.429 47.7 135.468 47.7397C135.508 47.7793 135.558 47.806 135.612 47.8164C135.666 47.8268 135.723 47.8203 135.773 47.7979C135.824 47.7755 135.867 47.7381 135.897 47.6905C135.927 47.6429 135.942 47.5873 135.941 47.5307C135.941 47.4935 135.934 47.4567 135.92 47.4224C135.906 47.3881 135.885 47.357 135.859 47.331C135.834 47.305 135.803 47.2845 135.769 47.2708C135.735 47.257 135.699 47.2503 135.663 47.2511V47.2511ZM139.9 47.2511C139.845 47.25 139.79 47.2659 139.744 47.2968C139.697 47.3277 139.661 47.3722 139.639 47.4245C139.617 47.4768 139.611 47.5346 139.622 47.5904C139.632 47.6462 139.659 47.6975 139.698 47.7377C139.737 47.7779 139.787 47.8051 139.842 47.8159C139.896 47.8268 139.953 47.8207 140.004 47.7984C140.055 47.7762 140.098 47.7388 140.128 47.6911C140.159 47.6434 140.174 47.5875 140.173 47.5307C140.173 47.4584 140.146 47.3889 140.097 47.3367C140.048 47.2846 139.981 47.2539 139.911 47.2511H139.9ZM144.132 47.2511C144.091 47.239 144.047 47.2368 144.005 47.2449C143.962 47.253 143.922 47.271 143.888 47.2976C143.854 47.3242 143.826 47.3586 143.807 47.398C143.787 47.4375 143.777 47.4811 143.777 47.5252C143.777 47.5693 143.787 47.6128 143.807 47.6523C143.826 47.6918 143.854 47.7262 143.888 47.7528C143.922 47.7793 143.962 47.7974 144.005 47.8054C144.047 47.8135 144.091 47.8114 144.132 47.7993C144.173 47.8114 144.217 47.8135 144.259 47.8054C144.302 47.7974 144.342 47.7793 144.376 47.7528C144.41 47.7262 144.438 47.6918 144.457 47.6523C144.477 47.6128 144.487 47.5693 144.487 47.5252C144.487 47.4811 144.477 47.4375 144.457 47.398C144.438 47.3586 144.41 47.3242 144.376 47.2976C144.342 47.271 144.302 47.253 144.259 47.2449C144.217 47.2368 144.173 47.239 144.132 47.2511V47.2511ZM148.364 47.2511C148.309 47.2511 148.255 47.268 148.209 47.2995C148.163 47.3311 148.127 47.3759 148.106 47.4284C148.085 47.4808 148.08 47.5384 148.091 47.5938C148.103 47.6492 148.13 47.7 148.169 47.7397C148.209 47.7793 148.259 47.806 148.313 47.8164C148.367 47.8268 148.423 47.8203 148.474 47.7979C148.525 47.7755 148.568 47.7381 148.598 47.6905C148.628 47.6429 148.643 47.5873 148.642 47.5307C148.642 47.4935 148.635 47.4567 148.621 47.4224C148.607 47.3881 148.586 47.357 148.56 47.331C148.534 47.305 148.504 47.2845 148.47 47.2708C148.436 47.257 148.4 47.2503 148.364 47.2511V47.2511ZM129.462 56.916C129.42 57.097 129.382 57.2669 129.355 57.4314C129.421 57.422 129.481 57.3885 129.525 57.3371C129.568 57.2856 129.591 57.2197 129.591 57.1518C129.591 57.1045 129.579 57.0579 129.557 57.0166C129.534 56.9753 129.502 56.9406 129.462 56.916V56.916ZM133.55 56.8722C133.494 56.8711 133.44 56.887 133.393 56.9179C133.347 56.9488 133.31 56.9933 133.289 57.0456C133.267 57.0979 133.261 57.1557 133.271 57.2115C133.282 57.2673 133.309 57.3186 133.348 57.3588C133.387 57.399 133.437 57.4262 133.492 57.4371C133.546 57.4479 133.602 57.4418 133.653 57.4195C133.704 57.3973 133.748 57.3599 133.778 57.3122C133.808 57.2645 133.824 57.2086 133.823 57.1518C133.823 57.0776 133.794 57.0065 133.743 56.9541C133.692 56.9017 133.622 56.8722 133.55 56.8722V56.8722ZM137.782 56.8722C137.74 56.8601 137.697 56.858 137.654 56.866C137.612 56.8741 137.572 56.8921 137.538 56.9187C137.503 56.9453 137.475 56.9797 137.456 57.0192C137.437 57.0587 137.427 57.1022 137.427 57.1463C137.427 57.1904 137.437 57.2339 137.456 57.2734C137.475 57.3129 137.503 57.3473 137.538 57.3739C137.572 57.4004 137.612 57.4185 137.654 57.4266C137.697 57.4346 137.74 57.4325 137.782 57.4204C137.823 57.4325 137.867 57.4346 137.909 57.4266C137.951 57.4185 137.991 57.4004 138.026 57.3739C138.06 57.3473 138.088 57.3129 138.107 57.2734C138.126 57.2339 138.136 57.1904 138.136 57.1463C138.136 57.1022 138.126 57.0587 138.107 57.0192C138.088 56.9797 138.06 56.9453 138.026 56.9187C137.991 56.8921 137.951 56.8741 137.909 56.866C137.867 56.858 137.823 56.8601 137.782 56.8722V56.8722ZM142.013 56.8722C141.958 56.8722 141.904 56.8891 141.858 56.9206C141.812 56.9522 141.777 56.9971 141.756 57.0495C141.735 57.1019 141.73 57.1595 141.741 57.2149C141.752 57.2704 141.779 57.3211 141.819 57.3608C141.858 57.4004 141.908 57.4271 141.963 57.4375C142.017 57.4479 142.073 57.4414 142.124 57.419C142.174 57.3966 142.217 57.3592 142.247 57.3116C142.277 57.264 142.293 57.2084 142.292 57.1518C142.292 57.1146 142.284 57.0778 142.27 57.0435C142.256 57.0092 142.236 56.9782 142.21 56.9521C142.184 56.9261 142.153 56.9056 142.119 56.8919C142.086 56.8782 142.05 56.8715 142.013 56.8722V56.8722ZM146.251 56.8722C146.195 56.8711 146.141 56.887 146.094 56.9179C146.047 56.9488 146.011 56.9933 145.989 57.0456C145.968 57.0979 145.962 57.1557 145.972 57.2115C145.983 57.2673 146.009 57.3186 146.049 57.3588C146.088 57.399 146.138 57.4262 146.192 57.4371C146.247 57.4479 146.303 57.4418 146.354 57.4195C146.405 57.3973 146.449 57.3599 146.479 57.3122C146.509 57.2645 146.524 57.2086 146.523 57.1518C146.523 57.0776 146.495 57.0065 146.444 56.9541C146.392 56.9017 146.323 56.8722 146.251 56.8722V56.8722ZM150.482 56.8722C150.441 56.8601 150.397 56.858 150.355 56.866C150.313 56.8741 150.273 56.8921 150.238 56.9187C150.204 56.9453 150.176 56.9797 150.157 57.0192C150.138 57.0587 150.128 57.1022 150.128 57.1463C150.128 57.1904 150.138 57.2339 150.157 57.2734C150.176 57.3129 150.204 57.3473 150.238 57.3739C150.273 57.4004 150.313 57.4185 150.355 57.4266C150.397 57.4346 150.441 57.4325 150.482 57.4204C150.524 57.4325 150.567 57.4346 150.61 57.4266C150.652 57.4185 150.692 57.4004 150.726 57.3739C150.761 57.3473 150.789 57.3129 150.808 57.2734C150.827 57.2339 150.837 57.1904 150.837 57.1463C150.837 57.1022 150.827 57.0587 150.808 57.0192C150.789 56.9797 150.761 56.9453 150.726 56.9187C150.692 56.8921 150.652 56.8741 150.61 56.866C150.567 56.858 150.524 56.8601 150.482 56.8722V56.8722ZM154.714 56.8722C154.659 56.8722 154.605 56.8891 154.559 56.9206C154.513 56.9522 154.478 56.9971 154.457 57.0495C154.436 57.1019 154.431 57.1595 154.442 57.2149C154.453 57.2704 154.48 57.3211 154.519 57.3608C154.559 57.4004 154.609 57.4271 154.663 57.4375C154.718 57.4479 154.774 57.4414 154.824 57.419C154.875 57.3966 154.918 57.3592 154.948 57.3116C154.978 57.264 154.993 57.2084 154.992 57.1518C154.992 57.1146 154.985 57.0778 154.971 57.0435C154.957 57.0092 154.936 56.9782 154.911 56.9521C154.885 56.9261 154.854 56.9056 154.82 56.8919C154.787 56.8782 154.75 56.8715 154.714 56.8722V56.8722ZM131.431 53.6377C131.357 53.6377 131.287 53.6678 131.235 53.7212C131.182 53.7747 131.153 53.8472 131.153 53.9228C131.153 53.9984 131.182 54.0709 131.235 54.1244C131.287 54.1778 131.357 54.2079 131.431 54.2079C131.505 54.2065 131.575 54.176 131.626 54.1228C131.678 54.0697 131.708 53.998 131.709 53.9228C131.709 53.8854 131.702 53.8483 131.688 53.8137C131.674 53.7791 131.654 53.7477 131.628 53.7212C131.602 53.6948 131.571 53.6738 131.538 53.6594C131.504 53.6451 131.468 53.6377 131.431 53.6377V53.6377ZM135.663 53.6377C135.627 53.6377 135.591 53.6451 135.557 53.6595C135.524 53.6739 135.494 53.695 135.468 53.7216C135.443 53.7481 135.423 53.7796 135.409 53.8141C135.396 53.8487 135.389 53.8856 135.39 53.9228C135.39 53.9794 135.407 54.0348 135.437 54.0817C135.468 54.1287 135.512 54.1653 135.563 54.1867C135.614 54.2081 135.671 54.2134 135.725 54.2019C135.779 54.1905 135.828 54.1628 135.867 54.1224C135.906 54.082 135.932 54.0306 135.942 53.975C135.952 53.9193 135.946 53.8619 135.924 53.8099C135.902 53.7579 135.865 53.7138 135.819 53.6831C135.773 53.6524 135.718 53.6367 135.663 53.6377ZM139.9 53.6377C139.826 53.6377 139.756 53.6678 139.703 53.7212C139.651 53.7747 139.622 53.8472 139.622 53.9228C139.61 53.9652 139.608 54.0099 139.616 54.0533C139.624 54.0967 139.641 54.1376 139.667 54.1728C139.693 54.208 139.727 54.2366 139.765 54.2563C139.804 54.2759 139.846 54.2862 139.89 54.2862C139.933 54.2862 139.975 54.2759 140.014 54.2563C140.052 54.2366 140.086 54.208 140.112 54.1728C140.138 54.1376 140.155 54.0967 140.163 54.0533C140.171 54.0099 140.169 53.9652 140.157 53.9228C140.159 53.8522 140.134 53.7836 140.089 53.7307C140.043 53.6779 139.979 53.6446 139.911 53.6377H139.9ZM144.132 53.6377C144.058 53.6377 143.987 53.6678 143.935 53.7212C143.883 53.7747 143.854 53.8472 143.854 53.9228C143.854 53.9984 143.883 54.0709 143.935 54.1244C143.987 54.1778 144.058 54.2079 144.132 54.2079C144.205 54.2065 144.275 54.176 144.327 54.1228C144.379 54.0697 144.409 53.998 144.41 53.9228C144.41 53.8854 144.403 53.8483 144.389 53.8137C144.375 53.7791 144.355 53.7477 144.329 53.7212C144.303 53.6948 144.272 53.6738 144.238 53.6594C144.205 53.6451 144.169 53.6377 144.132 53.6377V53.6377ZM148.364 53.6377C148.328 53.6377 148.292 53.6451 148.258 53.6595C148.225 53.6739 148.194 53.695 148.169 53.7216C148.144 53.7481 148.124 53.7796 148.11 53.8141C148.097 53.8487 148.09 53.8856 148.091 53.9228C148.091 53.9794 148.107 54.0348 148.138 54.0817C148.169 54.1287 148.213 54.1653 148.264 54.1867C148.315 54.2081 148.371 54.2134 148.425 54.2019C148.48 54.1905 148.529 54.1628 148.568 54.1224C148.606 54.082 148.633 54.0306 148.643 53.975C148.653 53.9193 148.646 53.8619 148.625 53.8099C148.603 53.7579 148.566 53.7138 148.52 53.6831C148.473 53.6524 148.419 53.6367 148.364 53.6377V53.6377ZM152.601 53.6377C152.527 53.6377 152.456 53.6678 152.404 53.7212C152.352 53.7747 152.323 53.8472 152.323 53.9228C152.311 53.9652 152.309 54.0099 152.317 54.0533C152.325 54.0967 152.342 54.1376 152.368 54.1728C152.394 54.208 152.428 54.2366 152.466 54.2563C152.505 54.2759 152.547 54.2862 152.59 54.2862C152.633 54.2862 152.676 54.2759 152.714 54.2563C152.753 54.2366 152.786 54.208 152.812 54.1728C152.838 54.1376 152.856 54.0967 152.864 54.0533C152.872 54.0099 152.87 53.9652 152.858 53.9228C152.859 53.8505 152.833 53.7804 152.785 53.7272C152.738 53.674 152.671 53.642 152.601 53.6377V53.6377ZM133.55 63.2589C133.476 63.2589 133.405 63.2889 133.353 63.3424C133.301 63.3958 133.272 63.4683 133.272 63.5439C133.26 63.5864 133.258 63.631 133.266 63.6744C133.273 63.7178 133.291 63.7587 133.317 63.7939C133.343 63.8291 133.377 63.8577 133.415 63.8774C133.454 63.8971 133.496 63.9073 133.539 63.9073C133.582 63.9073 133.625 63.8971 133.663 63.8774C133.702 63.8577 133.735 63.8291 133.761 63.7939C133.787 63.7587 133.805 63.7178 133.813 63.6744C133.821 63.631 133.818 63.5864 133.807 63.5439C133.808 63.4716 133.782 63.4015 133.734 63.3483C133.686 63.2952 133.62 63.2631 133.55 63.2589V63.2589ZM137.782 63.2589C137.708 63.2589 137.637 63.2889 137.585 63.3424C137.533 63.3958 137.503 63.4683 137.503 63.5439C137.503 63.6195 137.533 63.692 137.585 63.7455C137.637 63.799 137.708 63.829 137.782 63.829C137.855 63.8276 137.925 63.7971 137.977 63.744C138.029 63.6908 138.058 63.6191 138.06 63.5439C138.06 63.5056 138.052 63.4676 138.038 63.4322C138.023 63.3969 138.002 63.365 137.975 63.3384C137.948 63.3118 137.916 63.291 137.881 63.2773C137.846 63.2637 137.808 63.2574 137.771 63.2589H137.782ZM142.013 63.2589C141.977 63.2589 141.941 63.2663 141.908 63.2807C141.874 63.295 141.844 63.3161 141.819 63.3427C141.793 63.3692 141.773 63.4007 141.76 63.4353C141.746 63.4698 141.74 63.5068 141.741 63.5439C141.741 63.6005 141.757 63.6559 141.788 63.7029C141.819 63.7499 141.862 63.7864 141.914 63.8078C141.965 63.8292 142.021 63.8345 142.075 63.8231C142.129 63.8116 142.179 63.7839 142.217 63.7435C142.256 63.7031 142.282 63.6518 142.292 63.5961C142.302 63.5405 142.296 63.483 142.274 63.431C142.252 63.379 142.216 63.3349 142.169 63.3042C142.123 63.2736 142.069 63.2578 142.013 63.2589V63.2589ZM146.251 63.2589C146.177 63.2589 146.106 63.2889 146.054 63.3424C146.002 63.3958 145.972 63.4683 145.972 63.5439C145.961 63.5864 145.959 63.631 145.966 63.6744C145.974 63.7178 145.992 63.7587 146.018 63.7939C146.044 63.8291 146.077 63.8577 146.116 63.8774C146.154 63.8971 146.197 63.9073 146.24 63.9073C146.283 63.9073 146.325 63.8971 146.364 63.8774C146.402 63.8577 146.436 63.8291 146.462 63.7939C146.488 63.7587 146.506 63.7178 146.513 63.6744C146.521 63.631 146.519 63.5864 146.507 63.5439C146.509 63.4716 146.483 63.4015 146.435 63.3483C146.387 63.2952 146.321 63.2631 146.251 63.2589V63.2589ZM150.482 63.2589C150.409 63.2589 150.338 63.2889 150.286 63.3424C150.233 63.3958 150.204 63.4683 150.204 63.5439C150.204 63.6195 150.233 63.692 150.286 63.7455C150.338 63.799 150.409 63.829 150.482 63.829C150.556 63.8276 150.626 63.7971 150.678 63.744C150.729 63.6908 150.759 63.6191 150.761 63.5439C150.761 63.5065 150.753 63.4694 150.739 63.4348C150.725 63.4003 150.705 63.3688 150.679 63.3424C150.653 63.3159 150.623 63.2949 150.589 63.2806C150.555 63.2662 150.519 63.2589 150.482 63.2589V63.2589ZM154.714 63.2589C154.678 63.2589 154.642 63.2663 154.609 63.2807C154.575 63.295 154.545 63.3161 154.519 63.3427C154.494 63.3692 154.474 63.4007 154.461 63.4353C154.447 63.4698 154.441 63.5068 154.441 63.5439C154.441 63.6005 154.458 63.6559 154.489 63.7029C154.519 63.7499 154.563 63.7864 154.614 63.8078C154.666 63.8292 154.722 63.8345 154.776 63.8231C154.83 63.8116 154.879 63.7839 154.918 63.7435C154.957 63.7031 154.983 63.6518 154.993 63.5961C155.003 63.5405 154.997 63.483 154.975 63.431C154.953 63.379 154.917 63.3349 154.87 63.3042C154.824 63.2736 154.769 63.2578 154.714 63.2589ZM131.431 60.0299C131.39 60.0178 131.346 60.0157 131.304 60.0237C131.262 60.0318 131.222 60.0499 131.187 60.0764C131.153 60.103 131.125 60.1374 131.106 60.1769C131.087 60.2164 131.077 60.2599 131.077 60.304C131.077 60.3481 131.087 60.3916 131.106 60.4311C131.125 60.4706 131.153 60.505 131.187 60.5316C131.222 60.5582 131.262 60.5762 131.304 60.5843C131.346 60.5923 131.39 60.5902 131.431 60.5781C131.473 60.5902 131.516 60.5923 131.559 60.5843C131.601 60.5762 131.641 60.5582 131.675 60.5316C131.71 60.505 131.737 60.4706 131.757 60.4311C131.776 60.3916 131.786 60.3481 131.786 60.304C131.786 60.2599 131.776 60.2164 131.757 60.1769C131.737 60.1374 131.71 60.103 131.675 60.0764C131.641 60.0499 131.601 60.0318 131.559 60.0237C131.516 60.0157 131.473 60.0178 131.431 60.0299V60.0299ZM135.663 60.0299C135.608 60.0299 135.554 60.0468 135.508 60.0783C135.462 60.1099 135.426 60.1548 135.406 60.2072C135.385 60.2596 135.379 60.3172 135.391 60.3726C135.402 60.4281 135.429 60.4788 135.468 60.5185C135.508 60.5581 135.558 60.5848 135.612 60.5952C135.666 60.6056 135.723 60.5991 135.773 60.5767C135.824 60.5543 135.867 60.5169 135.897 60.4693C135.927 60.4217 135.942 60.3661 135.941 60.3095C135.941 60.2723 135.934 60.2355 135.92 60.2012C135.906 60.1669 135.885 60.1358 135.859 60.1098C135.834 60.0838 135.803 60.0633 135.769 60.0496C135.735 60.0359 135.699 60.0292 135.663 60.0299V60.0299ZM139.9 60.0299C139.845 60.0288 139.79 60.0447 139.744 60.0756C139.697 60.1065 139.661 60.151 139.639 60.2033C139.617 60.2556 139.611 60.3134 139.622 60.3692C139.632 60.425 139.659 60.4763 139.698 60.5165C139.737 60.5567 139.787 60.5839 139.842 60.5948C139.896 60.6056 139.953 60.5995 140.004 60.5772C140.055 60.555 140.098 60.5176 140.128 60.4699C140.159 60.4222 140.174 60.3663 140.173 60.3095C140.173 60.2372 140.146 60.1677 140.097 60.1156C140.048 60.0634 139.981 60.0327 139.911 60.0299H139.9ZM144.132 60.0299C144.091 60.0178 144.047 60.0157 144.005 60.0237C143.962 60.0318 143.922 60.0499 143.888 60.0764C143.854 60.103 143.826 60.1374 143.807 60.1769C143.787 60.2164 143.777 60.2599 143.777 60.304C143.777 60.3481 143.787 60.3916 143.807 60.4311C143.826 60.4706 143.854 60.505 143.888 60.5316C143.922 60.5582 143.962 60.5762 144.005 60.5843C144.047 60.5923 144.091 60.5902 144.132 60.5781C144.173 60.5902 144.217 60.5923 144.259 60.5843C144.302 60.5762 144.342 60.5582 144.376 60.5316C144.41 60.505 144.438 60.4706 144.457 60.4311C144.477 60.3916 144.487 60.3481 144.487 60.304C144.487 60.2599 144.477 60.2164 144.457 60.1769C144.438 60.1374 144.41 60.103 144.376 60.0764C144.342 60.0499 144.302 60.0318 144.259 60.0237C144.217 60.0157 144.173 60.0178 144.132 60.0299V60.0299ZM148.364 60.0299C148.309 60.0299 148.255 60.0468 148.209 60.0783C148.163 60.1099 148.127 60.1548 148.106 60.2072C148.085 60.2596 148.08 60.3172 148.091 60.3726C148.103 60.4281 148.13 60.4788 148.169 60.5185C148.209 60.5581 148.259 60.5848 148.313 60.5952C148.367 60.6056 148.423 60.5991 148.474 60.5767C148.525 60.5543 148.568 60.5169 148.598 60.4693C148.628 60.4217 148.643 60.3661 148.642 60.3095C148.642 60.2723 148.635 60.2355 148.621 60.2012C148.607 60.1669 148.586 60.1358 148.56 60.1098C148.534 60.0838 148.504 60.0633 148.47 60.0496C148.436 60.0359 148.4 60.0292 148.364 60.0299V60.0299ZM152.601 60.0299C152.545 60.0288 152.491 60.0447 152.444 60.0756C152.398 60.1065 152.361 60.151 152.34 60.2033C152.318 60.2556 152.312 60.3134 152.323 60.3692C152.333 60.425 152.36 60.4763 152.399 60.5165C152.438 60.5567 152.488 60.5839 152.543 60.5948C152.597 60.6056 152.654 60.5995 152.705 60.5772C152.756 60.555 152.799 60.5176 152.829 60.4699C152.859 60.4222 152.875 60.3663 152.874 60.3095C152.874 60.2728 152.867 60.2364 152.853 60.2025C152.839 60.1686 152.819 60.1377 152.794 60.1118C152.769 60.0858 152.738 60.0652 152.705 60.0512C152.672 60.0371 152.637 60.0299 152.601 60.0299V60.0299ZM156.881 60.0299H156.806C156.757 60.0293 156.708 60.0421 156.665 60.067C156.623 60.0919 156.587 60.128 156.562 60.1716C156.538 60.2153 156.525 60.2648 156.525 60.3153C156.525 60.3657 156.538 60.4152 156.563 60.4588C156.587 60.5023 156.623 60.5384 156.666 60.5632C156.709 60.588 156.757 60.6007 156.807 60.6C156.856 60.5993 156.904 60.5852 156.946 60.5592C156.988 60.5332 157.023 60.4962 157.047 60.452C157.031 60.315 156.967 60.1779 156.908 60.0409L156.881 60.0299ZM133.523 69.64C133.468 69.639 133.413 69.6549 133.367 69.6858C133.32 69.7167 133.283 69.7612 133.262 69.8135C133.24 69.8658 133.234 69.9235 133.245 69.9793C133.255 70.0351 133.282 70.0864 133.321 70.1266C133.36 70.1668 133.41 70.1941 133.465 70.2049C133.519 70.2157 133.576 70.2096 133.627 70.1874C133.678 70.1651 133.721 70.1278 133.751 70.08C133.781 70.0323 133.797 69.9765 133.796 69.9196C133.794 69.8519 133.767 69.7873 133.722 69.7379C133.677 69.6885 133.616 69.6576 133.55 69.651L133.523 69.64ZM137.755 69.64C137.713 69.6279 137.67 69.6258 137.628 69.6339C137.585 69.642 137.545 69.66 137.511 69.6866C137.477 69.7131 137.449 69.7475 137.429 69.787C137.41 69.8265 137.4 69.87 137.4 69.9142C137.4 69.9583 137.41 70.0018 137.429 70.0413C137.449 70.0808 137.477 70.1152 137.511 70.1417C137.545 70.1683 137.585 70.1863 137.628 70.1944C137.67 70.2025 137.713 70.2004 137.755 70.1883C137.796 70.2004 137.84 70.2025 137.882 70.1944C137.925 70.1863 137.964 70.1683 137.999 70.1417C138.033 70.1152 138.061 70.0808 138.08 70.0413C138.099 70.0018 138.109 69.9583 138.109 69.9142C138.109 69.87 138.099 69.8265 138.08 69.787C138.061 69.7475 138.033 69.7131 137.999 69.6866C137.964 69.66 137.925 69.642 137.882 69.6339C137.84 69.6258 137.796 69.6279 137.755 69.64V69.64ZM141.987 69.64C141.931 69.6401 141.877 69.6569 141.832 69.6885C141.786 69.7201 141.75 69.7649 141.729 69.8173C141.708 69.8697 141.703 69.9273 141.714 69.9828C141.725 70.0382 141.752 70.089 141.792 70.1286C141.831 70.1683 141.881 70.195 141.936 70.2054C141.99 70.2157 142.046 70.2093 142.097 70.1869C142.148 70.1645 142.191 70.1271 142.221 70.0795C142.251 70.0319 142.266 69.9762 142.265 69.9196C142.262 69.851 142.235 69.7858 142.189 69.7362C142.143 69.6867 142.08 69.6563 142.013 69.651L141.987 69.64ZM146.224 69.64C146.168 69.639 146.114 69.6549 146.067 69.6858C146.021 69.7167 145.984 69.7612 145.963 69.8135C145.941 69.8658 145.935 69.9235 145.945 69.9793C145.956 70.0351 145.983 70.0864 146.022 70.1266C146.061 70.1668 146.111 70.1941 146.166 70.2049C146.22 70.2157 146.276 70.2096 146.327 70.1874C146.378 70.1651 146.422 70.1278 146.452 70.08C146.482 70.0323 146.498 69.9765 146.497 69.9196C146.494 69.8519 146.468 69.7873 146.423 69.7379C146.378 69.6885 146.316 69.6576 146.251 69.651L146.224 69.64ZM150.456 69.64C150.414 69.6279 150.371 69.6258 150.328 69.6339C150.286 69.642 150.246 69.66 150.212 69.6866C150.177 69.7131 150.149 69.7475 150.13 69.787C150.111 69.8265 150.101 69.87 150.101 69.9142C150.101 69.9583 150.111 70.0018 150.13 70.0413C150.149 70.0808 150.177 70.1152 150.212 70.1417C150.246 70.1683 150.286 70.1863 150.328 70.1944C150.371 70.2025 150.414 70.2004 150.456 70.1883C150.497 70.2004 150.541 70.2025 150.583 70.1944C150.625 70.1863 150.665 70.1683 150.7 70.1417C150.734 70.1152 150.762 70.0808 150.781 70.0413C150.8 70.0018 150.81 69.9583 150.81 69.9142C150.81 69.87 150.8 69.8265 150.781 69.787C150.762 69.7475 150.734 69.7131 150.7 69.6866C150.665 69.66 150.625 69.642 150.583 69.6339C150.541 69.6258 150.497 69.6279 150.456 69.64V69.64ZM154.687 69.64C154.632 69.6401 154.578 69.6569 154.532 69.6885C154.486 69.7201 154.451 69.7649 154.43 69.8173C154.409 69.8697 154.404 69.9273 154.415 69.9828C154.426 70.0382 154.453 70.089 154.493 70.1286C154.532 70.1683 154.582 70.195 154.637 70.2054C154.691 70.2157 154.747 70.2093 154.798 70.1869C154.848 70.1645 154.891 70.1271 154.921 70.0795C154.951 70.0319 154.967 69.9762 154.966 69.9196C154.963 69.851 154.936 69.7858 154.89 69.7362C154.844 69.6867 154.781 69.6563 154.714 69.651L154.687 69.64ZM158.925 69.64C158.869 69.639 158.815 69.6549 158.768 69.6858C158.721 69.7167 158.685 69.7612 158.663 69.8135C158.642 69.8658 158.636 69.9235 158.646 69.9793C158.657 70.0351 158.683 70.0864 158.723 70.1266C158.762 70.1668 158.812 70.1941 158.866 70.2049C158.921 70.2157 158.977 70.2096 159.028 70.1874C159.079 70.1651 159.123 70.1278 159.153 70.08C159.183 70.0323 159.198 69.9765 159.197 69.9196C159.195 69.8519 159.169 69.7873 159.124 69.7379C159.078 69.6885 159.017 69.6576 158.951 69.651L158.925 69.64ZM131.405 66.4056C131.331 66.4056 131.26 66.4356 131.208 66.4891C131.156 66.5426 131.126 66.6151 131.126 66.6907C131.126 66.7663 131.156 66.8388 131.208 66.8922C131.26 66.9457 131.331 66.9757 131.405 66.9757C131.478 66.9743 131.548 66.9438 131.6 66.8907C131.652 66.8375 131.681 66.7658 131.683 66.6907C131.68 66.6215 131.654 66.5555 131.607 66.5051C131.561 66.4546 131.498 66.4232 131.431 66.4166L131.405 66.4056ZM135.636 66.4056C135.6 66.4056 135.564 66.413 135.531 66.4274C135.497 66.4418 135.467 66.4629 135.441 66.4894C135.416 66.516 135.396 66.5474 135.383 66.582C135.369 66.6165 135.363 66.6535 135.363 66.6907C135.363 66.7473 135.38 66.8026 135.411 66.8496C135.442 66.8966 135.485 66.9331 135.536 66.9545C135.588 66.9759 135.644 66.9812 135.698 66.9698C135.752 66.9583 135.802 66.9306 135.84 66.8902C135.879 66.8498 135.905 66.7985 135.915 66.7428C135.925 66.6872 135.919 66.6297 135.897 66.5777C135.875 66.5257 135.839 66.4816 135.792 66.4509C135.746 66.4203 135.692 66.4045 135.636 66.4056ZM139.873 66.4056C139.8 66.4056 139.729 66.4356 139.677 66.4891C139.625 66.5426 139.595 66.6151 139.595 66.6907C139.583 66.7331 139.581 66.7777 139.589 66.8211C139.597 66.8645 139.615 66.9054 139.641 66.9406C139.667 66.9759 139.7 67.0044 139.739 67.0241C139.777 67.0438 139.82 67.054 139.863 67.054C139.906 67.054 139.948 67.0438 139.987 67.0241C140.025 67.0044 140.059 66.9759 140.085 66.9406C140.111 66.9054 140.128 66.8645 140.136 66.8211C140.144 66.7777 140.142 66.7331 140.13 66.6907C140.13 66.626 140.108 66.5634 140.068 66.5134C140.028 66.4635 139.973 66.4292 139.911 66.4166L139.873 66.4056ZM144.105 66.4056C144.031 66.4056 143.961 66.4356 143.909 66.4891C143.856 66.5426 143.827 66.6151 143.827 66.6907C143.827 66.7663 143.856 66.8388 143.909 66.8922C143.961 66.9457 144.031 66.9757 144.105 66.9757C144.179 66.9743 144.249 66.9438 144.3 66.8907C144.352 66.8375 144.382 66.7658 144.383 66.6907C144.381 66.6215 144.354 66.5555 144.308 66.5051C144.262 66.4546 144.199 66.4232 144.132 66.4166L144.105 66.4056ZM148.337 66.4056C148.301 66.4056 148.265 66.413 148.231 66.4274C148.198 66.4418 148.168 66.4629 148.142 66.4894C148.117 66.516 148.097 66.5474 148.083 66.582C148.07 66.6165 148.063 66.6535 148.064 66.6907C148.064 66.7473 148.081 66.8026 148.111 66.8496C148.142 66.8966 148.186 66.9331 148.237 66.9545C148.288 66.9759 148.345 66.9812 148.399 66.9698C148.453 66.9583 148.502 66.9306 148.541 66.8902C148.58 66.8498 148.606 66.7985 148.616 66.7428C148.626 66.6872 148.62 66.6297 148.598 66.5777C148.576 66.5257 148.539 66.4816 148.493 66.4509C148.447 66.4203 148.392 66.4045 148.337 66.4056V66.4056ZM152.574 66.4056C152.5 66.4056 152.43 66.4356 152.377 66.4891C152.325 66.5426 152.296 66.6151 152.296 66.6907C152.284 66.7331 152.282 66.7777 152.29 66.8211C152.298 66.8645 152.315 66.9054 152.341 66.9406C152.367 66.9759 152.401 67.0044 152.439 67.0241C152.478 67.0438 152.52 67.054 152.564 67.054C152.607 67.054 152.649 67.0438 152.688 67.0241C152.726 67.0044 152.76 66.9759 152.786 66.9406C152.812 66.9054 152.829 66.8645 152.837 66.8211C152.845 66.7777 152.843 66.7331 152.831 66.6907C152.831 66.6245 152.807 66.5606 152.765 66.5104C152.723 66.4602 152.665 66.4269 152.601 66.4166L152.574 66.4056ZM156.806 66.4056C156.732 66.4056 156.661 66.4356 156.609 66.4891C156.557 66.5426 156.528 66.6151 156.528 66.6907C156.528 66.7663 156.557 66.8388 156.609 66.8922C156.661 66.9457 156.732 66.9757 156.806 66.9757C156.879 66.9743 156.949 66.9438 157.001 66.8907C157.053 66.8375 157.083 66.7658 157.084 66.6907C157.082 66.6215 157.055 66.5555 157.009 66.5051C156.963 66.4546 156.9 66.4232 156.833 66.4166L156.806 66.4056ZM133.523 76.0267C133.487 76.0267 133.45 76.0341 133.417 76.0484C133.383 76.0627 133.352 76.0837 133.326 76.1102C133.301 76.1367 133.28 76.1681 133.266 76.2027C133.252 76.2373 133.245 76.2743 133.245 76.3118C133.233 76.3542 133.231 76.3989 133.239 76.4422C133.247 76.4856 133.264 76.5265 133.29 76.5618C133.316 76.597 133.35 76.6256 133.388 76.6452C133.427 76.6649 133.469 76.6752 133.512 76.6752C133.555 76.6752 133.598 76.6649 133.636 76.6452C133.675 76.6256 133.709 76.597 133.734 76.5618C133.76 76.5265 133.778 76.4856 133.786 76.4422C133.794 76.3989 133.792 76.3542 133.78 76.3118C133.779 76.2456 133.756 76.1817 133.714 76.1315C133.672 76.0813 133.614 76.0481 133.55 76.0377L133.523 76.0267ZM137.755 76.0267C137.681 76.0267 137.61 76.0568 137.558 76.1102C137.506 76.1637 137.477 76.2362 137.477 76.3118C137.477 76.3874 137.506 76.4599 137.558 76.5134C137.61 76.5668 137.681 76.5969 137.755 76.5969C137.828 76.5955 137.898 76.565 137.95 76.5118C138.002 76.4586 138.032 76.387 138.033 76.3118C138.031 76.2409 138.002 76.1734 137.954 76.1228C137.905 76.0721 137.84 76.0417 137.771 76.0377L137.755 76.0267ZM141.987 76.0267C141.95 76.0267 141.914 76.0341 141.881 76.0485C141.848 76.0629 141.817 76.084 141.792 76.1105C141.766 76.1371 141.746 76.1686 141.733 76.2031C141.72 76.2377 141.713 76.2746 141.714 76.3118C141.714 76.3684 141.73 76.4237 141.761 76.4707C141.792 76.5177 141.836 76.5542 141.887 76.5756C141.938 76.597 141.994 76.6024 142.048 76.5909C142.102 76.5795 142.152 76.5518 142.191 76.5113C142.229 76.4709 142.255 76.4196 142.266 76.364C142.276 76.3083 142.269 76.2508 142.247 76.1988C142.226 76.1469 142.189 76.1027 142.143 76.0721C142.096 76.0414 142.042 76.0256 141.987 76.0267V76.0267ZM146.224 76.0267C146.187 76.0267 146.151 76.0341 146.117 76.0484C146.084 76.0627 146.053 76.0837 146.027 76.1102C146.001 76.1367 145.981 76.1681 145.967 76.2027C145.953 76.2373 145.946 76.2743 145.946 76.3118C145.934 76.3542 145.932 76.3989 145.94 76.4422C145.948 76.4856 145.965 76.5265 145.991 76.5618C146.017 76.597 146.051 76.6256 146.089 76.6452C146.128 76.6649 146.17 76.6752 146.213 76.6752C146.256 76.6752 146.299 76.6649 146.337 76.6452C146.376 76.6256 146.409 76.597 146.435 76.5618C146.461 76.5265 146.479 76.4856 146.487 76.4422C146.495 76.3989 146.492 76.3542 146.481 76.3118C146.48 76.2456 146.457 76.1817 146.415 76.1315C146.373 76.0813 146.314 76.0481 146.251 76.0377L146.224 76.0267ZM150.456 76.0267C150.419 76.0267 150.383 76.0341 150.349 76.0484C150.315 76.0627 150.285 76.0837 150.259 76.1102C150.233 76.1367 150.213 76.1681 150.199 76.2027C150.185 76.2373 150.177 76.2743 150.177 76.3118C150.177 76.3874 150.207 76.4599 150.259 76.5134C150.311 76.5668 150.382 76.5969 150.456 76.5969C150.529 76.5955 150.599 76.565 150.651 76.5118C150.703 76.4586 150.732 76.387 150.734 76.3118C150.732 76.2426 150.705 76.1766 150.658 76.1262C150.612 76.0758 150.55 76.0443 150.482 76.0377L150.456 76.0267ZM154.687 76.0267C154.651 76.0267 154.615 76.0341 154.582 76.0485C154.548 76.0629 154.518 76.084 154.493 76.1105C154.467 76.1371 154.447 76.1686 154.434 76.2031C154.42 76.2377 154.414 76.2746 154.415 76.3118C154.415 76.3684 154.431 76.4237 154.462 76.4707C154.493 76.5177 154.536 76.5542 154.588 76.5756C154.639 76.597 154.695 76.6024 154.749 76.5909C154.803 76.5795 154.853 76.5518 154.891 76.5113C154.93 76.4709 154.956 76.4196 154.966 76.364C154.976 76.3083 154.97 76.2508 154.948 76.1988C154.926 76.1469 154.89 76.1027 154.843 76.0721C154.797 76.0414 154.743 76.0256 154.687 76.0267V76.0267ZM158.925 76.0267C158.851 76.0267 158.78 76.0568 158.728 76.1102C158.676 76.1637 158.646 76.2362 158.646 76.3118C158.645 76.3602 158.658 76.4079 158.684 76.4488L159.187 76.2405C159.173 76.186 159.142 76.1373 159.1 76.101C159.058 76.0647 159.006 76.0426 158.951 76.0377L158.925 76.0267ZM131.405 72.7977C131.363 72.7856 131.32 72.7835 131.277 72.7916C131.235 72.7997 131.195 72.8177 131.161 72.8443C131.126 72.8708 131.098 72.9052 131.079 72.9447C131.06 72.9842 131.05 73.0277 131.05 73.0719C131.05 73.116 131.06 73.1595 131.079 73.199C131.098 73.2385 131.126 73.2729 131.161 73.2994C131.195 73.326 131.235 73.344 131.277 73.3521C131.32 73.3602 131.363 73.3581 131.405 73.346C131.446 73.3581 131.489 73.3602 131.532 73.3521C131.574 73.344 131.614 73.326 131.648 73.2994C131.683 73.2729 131.711 73.2385 131.73 73.199C131.749 73.1595 131.759 73.116 131.759 73.0719C131.759 73.0277 131.749 72.9842 131.73 72.9447C131.711 72.9052 131.683 72.8708 131.648 72.8443C131.614 72.8177 131.574 72.7997 131.532 72.7916C131.489 72.7835 131.446 72.7856 131.405 72.7977V72.7977ZM135.636 72.7977C135.581 72.7978 135.527 72.8146 135.481 72.8462C135.435 72.8778 135.4 72.9226 135.379 72.975C135.358 73.0274 135.353 73.085 135.364 73.1405C135.375 73.1959 135.402 73.2467 135.442 73.2863C135.481 73.326 135.531 73.3527 135.585 73.3631C135.64 73.3734 135.696 73.367 135.747 73.3446C135.797 73.3222 135.84 73.2848 135.87 73.2372C135.9 73.1896 135.916 73.1339 135.914 73.0773C135.912 73.0087 135.885 72.9434 135.839 72.8939C135.792 72.8444 135.73 72.8141 135.663 72.8087L135.636 72.7977ZM139.873 72.7977C139.818 72.7967 139.763 72.8126 139.717 72.8435C139.67 72.8744 139.634 72.9189 139.612 72.9712C139.59 73.0235 139.584 73.0812 139.595 73.137C139.606 73.1929 139.632 73.2441 139.671 73.2843C139.711 73.3245 139.761 73.3518 139.815 73.3626C139.87 73.3734 139.926 73.3673 139.977 73.3451C140.028 73.3228 140.071 73.2854 140.102 73.2377C140.132 73.19 140.147 73.1342 140.146 73.0773C140.144 73.0113 140.12 72.948 140.077 72.8989C140.033 72.8497 139.975 72.8178 139.911 72.8087L139.873 72.7977ZM144.105 72.7977C144.064 72.7856 144.02 72.7835 143.978 72.7916C143.936 72.7997 143.896 72.8177 143.861 72.8443C143.827 72.8708 143.799 72.9052 143.78 72.9447C143.761 72.9842 143.751 73.0277 143.751 73.0719C143.751 73.116 143.761 73.1595 143.78 73.199C143.799 73.2385 143.827 73.2729 143.861 73.2994C143.896 73.326 143.936 73.344 143.978 73.3521C144.02 73.3602 144.064 73.3581 144.105 73.346C144.147 73.3581 144.19 73.3602 144.233 73.3521C144.275 73.344 144.315 73.326 144.349 73.2994C144.384 73.2729 144.411 73.2385 144.431 73.199C144.45 73.1595 144.46 73.116 144.46 73.0719C144.46 73.0277 144.45 72.9842 144.431 72.9447C144.411 72.9052 144.384 72.8708 144.349 72.8443C144.315 72.8177 144.275 72.7997 144.233 72.7916C144.19 72.7835 144.147 72.7856 144.105 72.7977V72.7977ZM148.337 72.7977C148.282 72.7978 148.228 72.8146 148.182 72.8462C148.136 72.8778 148.1 72.9226 148.08 72.975C148.059 73.0274 148.053 73.085 148.065 73.1405C148.076 73.1959 148.103 73.2467 148.142 73.2863C148.182 73.326 148.232 73.3527 148.286 73.3631C148.34 73.3734 148.397 73.367 148.447 73.3446C148.498 73.3222 148.541 73.2848 148.571 73.2372C148.601 73.1896 148.616 73.1339 148.615 73.0773C148.613 73.0087 148.586 72.9434 148.539 72.8939C148.493 72.8444 148.431 72.8141 148.364 72.8087L148.337 72.7977ZM152.574 72.7977C152.519 72.7967 152.464 72.8126 152.418 72.8435C152.371 72.8744 152.335 72.9189 152.313 72.9712C152.291 73.0235 152.285 73.0812 152.296 73.137C152.306 73.1929 152.333 73.2441 152.372 73.2843C152.411 73.3245 152.461 73.3518 152.516 73.3626C152.57 73.3734 152.627 73.3673 152.678 73.3451C152.729 73.3228 152.772 73.2854 152.802 73.2377C152.833 73.19 152.848 73.1342 152.847 73.0773C152.845 73.0096 152.819 72.945 152.773 72.8956C152.728 72.8462 152.667 72.8153 152.601 72.8087L152.574 72.7977ZM156.806 72.7977C156.765 72.7856 156.721 72.7835 156.679 72.7916C156.636 72.7997 156.596 72.8177 156.562 72.8443C156.528 72.8708 156.5 72.9052 156.481 72.9447C156.461 72.9842 156.451 73.0277 156.451 73.0719C156.451 73.116 156.461 73.1595 156.481 73.199C156.5 73.2385 156.528 73.2729 156.562 73.2994C156.596 73.326 156.636 73.344 156.679 73.3521C156.721 73.3602 156.765 73.3581 156.806 73.346C156.847 73.3581 156.891 73.3602 156.933 73.3521C156.976 73.344 157.016 73.326 157.05 73.2994C157.084 73.2729 157.112 73.2385 157.131 73.199C157.151 73.1595 157.161 73.116 157.161 73.0719C157.161 73.0277 157.151 72.9842 157.131 72.9447C157.112 72.9052 157.084 72.8708 157.05 72.8443C157.016 72.8177 156.976 72.7997 156.933 72.7916C156.891 72.7835 156.847 72.7856 156.806 72.7977V72.7977ZM161.038 72.7977C160.983 72.7978 160.929 72.8146 160.883 72.8462C160.837 72.8778 160.801 72.9226 160.78 72.975C160.759 73.0274 160.754 73.085 160.765 73.1405C160.777 73.1959 160.804 73.2467 160.843 73.2863C160.883 73.326 160.933 73.3527 160.987 73.3631C161.041 73.3734 161.097 73.367 161.148 73.3446C161.199 73.3222 161.242 73.2848 161.272 73.2372C161.302 73.1896 161.317 73.1339 161.316 73.0773C161.314 73.0087 161.287 72.9434 161.24 72.8939C161.194 72.8444 161.131 72.8141 161.065 72.8087L161.038 72.7977Z" fill="white"/>
<path d="M162.29 74.662C158.438 77.0029 153.922 78.2473 149.525 78.79C147.481 68.0889 144.004 46.9444 143.185 41.9502C144.26 42.27 145.276 42.7702 146.192 43.4304C148.431 45.0958 150.337 47.188 151.804 49.5923C156.619 57.1411 162.29 74.662 162.29 74.662Z" fill="#263238"/>
<path d="M149.899 46.1928C156.924 54.416 166.634 68.5434 162.942 72.0794C156.87 77.885 138.332 82.2213 134.079 83.0436C132.239 83.3945 127.75 71.2187 128.89 69.5357C130.029 67.8527 149.755 65.4131 149.808 64.1577C149.846 63.4505 147.096 57.5024 144.694 50.0961C141.917 41.544 147.887 43.83 149.899 46.1928Z" fill="#EB9481"/>
<path d="M132.068 68.2861C132.068 68.2861 126.386 68.6151 122.679 69.0098C120.608 69.2291 117.099 69.9308 115.649 70.8024C113.509 72.1072 105.249 78.9872 106.832 81.0704C108.266 82.9563 114.611 76.1365 114.611 76.1365C114.611 76.1365 107.613 82.4519 109.753 84.3926C111.893 86.3333 118.051 77.6386 118.051 77.6386C118.051 77.6386 111.005 84.2884 113.514 85.9385C115.413 87.183 121.432 79.6286 121.432 79.6286C121.432 79.6286 115.413 85.3903 117.313 86.7554C119.41 88.263 125.391 81.6515 125.391 81.6515C130.784 84.2939 134.411 83.2962 136.904 82.26C137.509 82.0243 132.068 68.2861 132.068 68.2861Z" fill="#EB9481"/>
<path d="M116.905 73.8014C116.06 74.5085 115.193 75.2267 114.412 75.9942C113.631 76.7617 112.871 77.595 112.16 78.4502C111.214 79.5536 110.394 80.7638 109.715 82.0574C111.084 79.8646 113.845 76.9919 114.631 76.208C115.418 75.4241 116.156 74.5963 116.937 73.8123C116.948 73.8014 116.905 73.7685 116.905 73.8014Z" fill="#263238"/>
<path d="M119.719 76.6303C118.649 77.5896 117.579 78.4942 116.6 79.5029C115.621 80.5116 114.739 81.5367 113.808 82.6058C113.738 82.688 113.808 82.699 113.877 82.6058C114.846 81.5806 115.819 80.7035 116.804 79.6893C117.788 78.6751 118.73 77.617 119.741 76.6412C119.757 76.6412 119.735 76.6138 119.719 76.6303Z" fill="#263238"/>
<path d="M122.566 78.6308C120.93 80.056 119.442 81.6506 118.126 83.3892C118.056 83.4769 118.126 83.4824 118.222 83.3892C119.667 81.7775 120.79 80.5002 122.614 78.6746C122.647 78.6582 122.604 78.5979 122.566 78.6308Z" fill="#263238"/>
<path d="M128.221 68.4951C125.626 68.6486 122.967 68.8076 120.394 69.1804C118.161 69.4352 116.025 70.2588 114.182 71.5761C112.446 72.9556 110.834 74.4932 109.367 76.1701C108.524 77.017 107.774 77.9565 107.131 78.9714C106.773 79.5909 106.248 80.5667 106.821 81.1643C107.516 81.9153 109.86 80.9834 112.23 78.4781C112.315 78.3903 112.256 78.341 112.165 78.4232C108.816 81.5974 107.383 81.3507 106.981 80.8683C106.725 80.5613 106.917 79.9802 107.104 79.5361C107.412 78.8926 107.798 78.292 108.255 77.7489C109.761 75.8568 111.454 74.1282 113.305 72.5903C115.29 70.8791 117.707 69.7787 120.276 69.4161C122.908 69.0214 125.626 69.0543 128.237 68.6212C128.29 68.5883 128.274 68.4951 128.221 68.4951Z" fill="#263238"/>
<path d="M158.261 56.1266L146.197 56.8557C145.23 54.0243 144.484 51.1188 143.966 48.1665C143.934 47.9911 143.907 47.8157 143.88 47.6512C143.88 47.5964 143.88 47.547 143.88 47.4977C143.201 42.9475 144.587 41.6867 148.883 45.2171C150.918 46.9123 152.79 48.8031 154.473 50.8637L154.628 51.0501C155.442 52.0369 156.126 52.9524 156.677 53.7254C156.79 53.8844 156.902 54.0379 156.998 54.1859C157.812 55.3591 158.261 56.1266 158.261 56.1266Z" fill="#ED8D34"/>
<path d="M146.523 44.3734C146.524 44.4302 146.509 44.4861 146.478 44.5338C146.448 44.5815 146.405 44.6189 146.354 44.6411C146.303 44.6634 146.246 44.6695 146.192 44.6587C146.138 44.6479 146.087 44.6206 146.048 44.5804C146.009 44.5402 145.982 44.4889 145.972 44.4331C145.961 44.3773 145.967 44.3195 145.989 44.2672C146.011 44.2149 146.047 44.1705 146.094 44.1396C146.14 44.1087 146.195 44.0927 146.25 44.0938C146.323 44.0938 146.392 44.1233 146.443 44.1757C146.494 44.2281 146.523 44.2992 146.523 44.3734V44.3734Z" fill="white"/>
<path d="M146.523 50.7763C146.523 50.8329 146.507 50.8883 146.476 50.9353C146.445 50.9823 146.401 51.0188 146.35 51.0402C146.299 51.0616 146.243 51.0669 146.189 51.0555C146.135 51.044 146.085 51.0163 146.046 50.9759C146.008 50.9355 145.982 50.8842 145.972 50.8285C145.961 50.7729 145.968 50.7154 145.99 50.6634C146.011 50.6114 146.048 50.5673 146.094 50.5366C146.141 50.506 146.195 50.4902 146.25 50.4913C146.287 50.4913 146.323 50.4987 146.356 50.5131C146.389 50.5275 146.42 50.5485 146.445 50.5751C146.471 50.6016 146.491 50.6331 146.504 50.6677C146.517 50.7022 146.524 50.7392 146.523 50.7763V50.7763Z" fill="white"/>
<path d="M150.482 51.0506C150.635 51.0506 150.76 50.923 150.76 50.7655C150.76 50.6081 150.635 50.4805 150.482 50.4805C150.328 50.4805 150.204 50.6081 150.204 50.7655C150.204 50.923 150.328 51.0506 150.482 51.0506Z" fill="white"/>
<path d="M144.132 47.8162C144.285 47.8162 144.41 47.6886 144.41 47.5312C144.41 47.3737 144.285 47.2461 144.132 47.2461C143.978 47.2461 143.854 47.3737 143.854 47.5312C143.854 47.6886 143.978 47.8162 144.132 47.8162Z" fill="white"/>
<path d="M148.363 47.8162C148.516 47.8162 148.641 47.6886 148.641 47.5312C148.641 47.3737 148.516 47.2461 148.363 47.2461C148.209 47.2461 148.084 47.3737 148.084 47.5312C148.084 47.6886 148.209 47.8162 148.363 47.8162Z" fill="white"/>
<path d="M148.363 54.2078C148.516 54.2078 148.641 54.0802 148.641 53.9228C148.641 53.7653 148.516 53.6377 148.363 53.6377C148.209 53.6377 148.084 53.7653 148.084 53.9228C148.084 54.0802 148.209 54.2078 148.363 54.2078Z" fill="white"/>
<path d="M152.601 54.2078C152.755 54.2078 152.879 54.0802 152.879 53.9228C152.879 53.7653 152.755 53.6377 152.601 53.6377C152.447 53.6377 152.323 53.7653 152.323 53.9228C152.323 54.0802 152.447 54.2078 152.601 54.2078Z" fill="white"/>
<path d="M156.977 54.1646C156.934 54.1931 156.884 54.2083 156.832 54.2085C156.759 54.2085 156.688 54.1784 156.636 54.125C156.584 54.0715 156.554 53.999 156.554 53.9234C156.554 53.8813 156.562 53.8396 156.58 53.8016C156.598 53.7636 156.624 53.7302 156.656 53.7041C156.768 53.8631 156.881 54.0166 156.977 54.1646Z" fill="white"/>
<path d="M139.14 22.2695C138.471 22.0118 137.829 18.1689 140.301 16.3378C142.773 14.5068 145.924 16.5955 144.581 19.7477C143.762 21.7213 140.563 22.8177 139.14 22.2695Z" fill="#263238"/>
<path d="M146.191 43.4305L146.154 43.4744C144.185 45.6343 140.221 49.554 137.567 49.2141C136.782 49.0827 136.032 48.7829 135.367 48.3341C134.703 47.8854 134.138 47.2979 133.71 46.6101C134.494 45.5947 135.349 44.6383 136.267 43.7485C139.376 40.4428 142.944 41.1664 146.191 43.4305Z" fill="#EB9481"/>
<path d="M142.382 42.8335C142.339 43.4201 140.242 47.5262 137.711 47.8113C136.882 47.899 136.192 43.283 136.192 43.283L136.063 42.9541L134.292 38.3436L139.22 33.8648L139.937 33.2617C139.937 33.2617 140.343 34.5555 140.83 36.1727C140.83 36.2495 140.873 36.3207 140.9 36.403C140.926 36.4852 140.959 36.5784 140.98 36.6661C141.055 36.9018 141.13 37.1485 141.205 37.3952C141.28 37.6419 141.312 37.768 141.365 37.9434C141.419 38.1189 141.467 38.3327 141.526 38.5355C141.904 39.9469 142.19 41.3828 142.382 42.8335Z" fill="#EB9481"/>
<path d="M140.83 36.1727C140.564 37.5899 139.999 38.9307 139.176 40.1018C138.353 41.2729 137.291 42.2462 136.063 42.9541L134.292 38.3436L139.22 33.8648L139.937 33.2617C139.937 33.2617 140.343 34.5555 140.83 36.1727Z" fill="#263238"/>
<path d="M126.782 31.726C127.317 40.4042 132.463 41.0456 134.272 40.925C135.93 40.8153 141.558 40.2178 141.89 31.5341C142.222 22.8504 138.113 20.3615 134.309 20.4109C130.505 20.4602 126.236 23.0533 126.782 31.726Z" fill="#EB9481"/>
<path d="M128.264 30.3066C128.456 30.2517 128.628 30.175 128.799 30.1037C129.006 30.0609 129.195 29.9491 129.334 29.7857C129.367 29.7269 129.381 29.6584 129.372 29.5909C129.363 29.5234 129.333 29.4608 129.286 29.413C129.177 29.3336 129.049 29.2848 128.916 29.2714C128.783 29.2579 128.648 29.2803 128.526 29.3362C128.264 29.416 128.039 29.5915 127.895 29.8296C127.866 29.8867 127.854 29.9511 127.86 30.0149C127.867 30.0788 127.891 30.1395 127.93 30.1898C127.968 30.2401 128.021 30.2778 128.08 30.2985C128.139 30.3192 128.203 30.322 128.264 30.3066Z" fill="#263238"/>
<path d="M134.106 29.6816C133.909 29.6779 133.713 29.6632 133.517 29.6377C133.311 29.6526 133.106 29.5966 132.934 29.4787C132.886 29.4307 132.854 29.3674 132.844 29.299C132.835 29.2305 132.848 29.1607 132.881 29.1005C132.965 28.9943 133.075 28.913 133.2 28.8649C133.325 28.8167 133.461 28.8034 133.592 28.8264C133.864 28.8259 134.127 28.9318 134.325 29.1224C134.369 29.168 134.399 29.2257 134.411 29.2885C134.423 29.3512 134.417 29.4162 134.394 29.4755C134.371 29.5348 134.331 29.5859 134.28 29.6225C134.229 29.6591 134.168 29.6796 134.106 29.6816V29.6816Z" fill="#263238"/>
<path d="M133.272 32.0117C133.272 32.0117 133.32 32.0117 133.32 32.0556C133.368 32.6476 133.518 33.3165 134.058 33.4535V33.4864C133.411 33.4645 133.224 32.5764 133.272 32.0117Z" fill="#263238"/>
<path d="M133.716 31.3367C134.63 31.1613 134.914 33.0471 134.063 33.2116C133.213 33.376 132.956 31.4847 133.716 31.3367Z" fill="#263238"/>
<path d="M134.095 31.3808C134.272 31.463 134.454 31.6275 134.63 31.6165C134.807 31.6056 134.999 31.3808 135.117 31.167C135.117 31.167 135.149 31.167 135.154 31.167C135.213 31.5288 135.154 31.9235 134.759 32.0332C134.363 32.1428 134.127 31.8577 133.983 31.485C133.977 31.4575 134.026 31.3479 134.095 31.3808Z" fill="#263238"/>
<path d="M129.655 32.2959C129.655 32.2959 129.612 32.3343 129.618 32.3562C129.725 32.9373 129.757 33.6226 129.27 33.9022C129.27 33.9022 129.27 33.9405 129.27 33.9351C129.896 33.7377 129.848 32.8331 129.655 32.2959Z" fill="#263238"/>
<path d="M129.051 31.7702C128.12 31.847 128.345 33.7493 129.201 33.6725C130.057 33.5958 129.826 31.7044 129.051 31.7702Z" fill="#263238"/>
<path d="M128.675 31.9456C128.542 32.0608 128.419 32.2636 128.247 32.2965C128.076 32.3294 127.873 32.1485 127.712 31.9676C127.745 32.3294 127.905 32.6967 128.247 32.7241C128.59 32.7515 128.756 32.4116 128.782 32.0388C128.793 31.9895 128.729 31.8963 128.675 31.9456Z" fill="#263238"/>
<path d="M131.286 34.2914C130.977 34.3674 130.679 34.4835 130.398 34.6367C130.345 32.7783 130.58 30.9254 130.5 29.0724C130.5 29.0579 130.494 29.0439 130.484 29.0336C130.474 29.0234 130.46 29.0176 130.446 29.0176C130.432 29.0176 130.418 29.0234 130.408 29.0336C130.398 29.0439 130.393 29.0579 130.393 29.0724C130.076 31.0504 129.956 33.0561 130.034 35.0589C130.034 35.2617 131.302 34.3901 131.302 34.3901C131.302 34.3901 131.297 34.2914 131.286 34.2914Z" fill="#263238"/>
<path d="M141.366 32.2741C139.263 32.4988 137.755 25.997 137.578 25.1966C137.664 25.7065 138.113 28.4092 137.92 28.5462C137.695 28.5736 137.468 28.5625 137.246 28.5133V28.5133C137.201 28.1886 137.131 27.8679 137.038 27.554C137 27.4059 137.038 27.8884 137.038 28.4859L136.636 28.4311C136.565 27.7343 136.403 27.0503 136.155 26.3972C136.059 26.1505 136.155 27.3127 136.048 28.3543C134.19 28.0753 132.308 28.0073 130.436 28.1515C129.901 28.2063 129.462 28.2776 129.066 28.3543C128.954 27.554 128.927 26.7097 128.895 26.8797C128.805 27.3859 128.764 27.9001 128.772 28.4146L128.183 28.5462C127.975 27.4498 128.253 25.542 128.114 25.8435C127.707 26.7699 127.474 27.7669 127.429 28.7819C126.696 29.0396 126.509 29.2205 126.461 29.0232C126.384 26.7628 127.093 24.5478 128.462 22.7735C130.73 19.8735 135.861 18.492 139.333 21.9567C139.333 21.9567 141.976 23.2286 142.714 25.7942C143.452 28.3598 142.586 32.137 141.366 32.2741Z" fill="#263238"/>
<path d="M140.602 32.2855C140.602 32.2855 142.035 29.3197 143.319 29.8021C144.603 30.2845 143.812 34.3906 142.495 35.1417C142.333 35.249 142.151 35.3216 141.96 35.3551C141.769 35.3887 141.574 35.3825 141.386 35.3369C141.198 35.2914 141.02 35.2074 140.864 35.09C140.708 34.9727 140.577 34.8243 140.479 34.6538L140.602 32.2855Z" fill="#EB9481"/>
<path d="M143.061 30.9756V31.0085C142.141 31.5567 141.767 32.5764 141.547 33.596C141.589 33.4869 141.654 33.3884 141.737 33.3074C141.82 33.2263 141.919 33.1647 142.027 33.1266C142.135 33.0886 142.25 33.0751 142.364 33.087C142.478 33.099 142.588 33.1361 142.687 33.1958C142.692 33.1984 142.697 33.2026 142.701 33.208C142.704 33.2133 142.706 33.2196 142.706 33.226C142.706 33.2324 142.704 33.2387 142.701 33.244C142.697 33.2494 142.692 33.2536 142.687 33.2561C142.506 33.2249 142.321 33.2525 142.157 33.3352C141.993 33.4178 141.858 33.5513 141.772 33.7166C141.626 33.9911 141.511 34.2817 141.429 34.5828C141.397 34.6815 141.232 34.6541 141.248 34.5499V34.5225C141.039 33.2342 141.745 31.31 143.061 30.9756Z" fill="#263238"/>
<path d="M131.259 35.7831C131.516 36.1063 131.849 36.3572 132.227 36.5122C132.438 36.5807 132.664 36.5807 132.874 36.5122C133.34 36.3752 133.34 35.964 133.244 35.5638C133.191 35.3731 133.118 35.1892 133.024 35.0156C132.53 35.4567 131.912 35.7255 131.259 35.7831V35.7831Z" fill="#263238"/>
<path d="M132.229 36.5226C132.439 36.5911 132.665 36.5911 132.876 36.5226C133.341 36.3856 133.341 35.9744 133.245 35.5742C132.996 35.5909 132.759 35.6938 132.575 35.8661C132.39 36.0384 132.268 36.2699 132.229 36.5226Z" fill="#FF9CBD"/>
<path d="M124.105 43.8472C124.821 44.9343 125.208 46.214 125.218 47.5257C125.218 52.1855 120.226 55.9627 114.068 55.9627C107.91 55.9627 102.93 52.1855 102.93 47.5257C102.93 42.8659 107.916 39.0887 114.068 39.0887C116.804 39.0432 119.487 39.8583 121.756 41.4241L125.597 40.4264L124.105 43.8472Z" fill="white"/>
<path d="M124.105 43.8469C124.816 44.8709 125.224 46.0842 125.277 47.3402C125.33 48.5962 125.027 49.8411 124.404 50.9243C123.782 52.004 122.945 52.9378 121.949 53.6654C120.96 54.4065 119.865 54.9837 118.701 55.3758C117.541 55.7764 116.337 56.0286 115.117 56.1269C113.896 56.2176 112.669 56.1568 111.463 55.946C109.01 55.5696 106.729 54.4333 104.925 52.6896C104.029 51.7935 103.355 50.6898 102.962 49.4716C102.582 48.2349 102.571 46.9102 102.93 45.667C103.3 44.4429 103.958 43.3305 104.845 42.4271C105.717 41.5244 106.734 40.7826 107.852 40.2342C110.08 39.1664 112.54 38.7057 114.994 38.8966C117.445 39.0344 119.811 39.8635 121.831 41.2923H121.729L125.581 40.3493L125.715 40.3164L125.656 40.4425L124.105 43.8469ZM124.105 43.8469L125.538 40.3987L125.613 40.4864L121.788 41.5444H121.735L121.686 41.5115C119.687 40.1642 117.364 39.4057 114.972 39.3187C113.784 39.2558 112.593 39.3424 111.425 39.5764C110.256 39.7867 109.121 40.1651 108.055 40.7002C106.992 41.224 106.025 41.9326 105.198 42.7944C104.375 43.6438 103.767 44.6864 103.427 45.8315C103.103 46.9762 103.12 48.1941 103.475 49.329C103.832 50.4683 104.455 51.5013 105.289 52.3387C107.013 54.0213 109.2 55.1215 111.554 55.4909C113.903 55.9179 116.317 55.7599 118.594 55.0304C120.899 54.3511 122.893 52.8526 124.217 50.8037C124.841 49.7577 125.167 48.5539 125.159 47.3281C125.124 46.0908 124.76 44.8869 124.105 43.8469V43.8469Z" fill="#263238"/>
<path d="M110.062 47.525C110.062 47.2908 109.994 47.0618 109.867 46.8671C109.74 46.6724 109.559 46.5206 109.348 46.431C109.137 46.3413 108.905 46.3179 108.681 46.3636C108.456 46.4093 108.251 46.522 108.089 46.6876C107.927 46.8532 107.817 47.0642 107.773 47.2939C107.728 47.5236 107.751 47.7617 107.838 47.9781C107.926 48.1945 108.074 48.3794 108.264 48.5095C108.454 48.6396 108.678 48.7091 108.906 48.7091C109.213 48.7091 109.506 48.5843 109.723 48.3623C109.94 48.1402 110.062 47.839 110.062 47.525Z" fill="#263238"/>
<path d="M115.23 47.525C115.23 47.2908 115.162 47.0618 115.035 46.8671C114.908 46.6724 114.727 46.5206 114.516 46.431C114.305 46.3413 114.073 46.3179 113.849 46.3636C113.624 46.4093 113.419 46.522 113.257 46.6876C113.095 46.8532 112.985 47.0642 112.941 47.2939C112.896 47.5236 112.919 47.7617 113.006 47.9781C113.094 48.1945 113.242 48.3794 113.432 48.5095C113.622 48.6396 113.845 48.7091 114.074 48.7091C114.381 48.7091 114.674 48.5843 114.891 48.3623C115.108 48.1402 115.23 47.839 115.23 47.525V47.525Z" fill="#263238"/>
<path d="M120.392 47.525C120.392 47.2908 120.324 47.0618 120.197 46.8671C120.07 46.6724 119.89 46.5206 119.678 46.431C119.467 46.3413 119.235 46.3179 119.011 46.3636C118.787 46.4093 118.581 46.522 118.419 46.6876C118.257 46.8532 118.147 47.0642 118.103 47.2939C118.058 47.5236 118.081 47.7617 118.169 47.9781C118.256 48.1945 118.404 48.3794 118.594 48.5095C118.784 48.6396 119.008 48.7091 119.236 48.7091C119.543 48.7091 119.837 48.5843 120.053 48.3623C120.27 48.1402 120.392 47.839 120.392 47.525V47.525Z" fill="#263238"/>
<path d="M125.598 85.0488H83.6118V86.9785H125.598V85.0488Z" fill="#455A64"/>
<path d="M104.744 85.0488H83.6118V86.9785H104.744V85.0488Z" fill="#263238"/>
<path d="M102.47 86.9786H61.554L56.2041 58.499H97.1205L102.47 86.9786Z" fill="#455A64"/>
<path d="M81.8248 72.7361C81.8607 73.0609 81.8284 73.3899 81.7302 73.701C81.632 74.0121 81.4702 74.2981 81.2554 74.54C81.0407 74.7818 80.7781 74.9739 80.4851 75.1033C80.1921 75.2328 79.8755 75.2967 79.5565 75.2907C78.8774 75.2795 78.226 75.0131 77.726 74.5421C77.226 74.0712 76.9121 73.4285 76.844 72.7361C76.8098 72.4113 76.8434 72.0828 76.9427 71.7724C77.0419 71.462 77.2044 71.1768 77.4194 70.9356C77.6345 70.6945 77.8972 70.5031 78.19 70.374C78.4828 70.2449 78.799 70.1811 79.1178 70.1869C79.7954 70.1981 80.4454 70.464 80.9445 70.9339C81.4435 71.4038 81.7568 72.0451 81.8248 72.7361V72.7361Z" fill="#A6A6A6"/>
<path d="M154.419 82.484C154.075 83.3355 153.455 84.0394 152.664 84.4769C151.872 84.9144 150.958 85.0586 150.074 84.8851C149.707 84.8127 149.348 84.6987 149.004 84.5452L149.641 83.0322C149.827 83.1184 150.02 83.1864 150.219 83.235C150.769 83.3751 151.35 83.307 151.856 83.0431C152.361 82.7792 152.756 82.3373 152.969 81.7987C153.67 80.2418 153.434 77.0402 152.246 76.0205C152.166 75.9438 151.861 75.8561 150.786 76.3166C150.588 76.4043 150.363 76.503 150.112 76.6291C149.919 76.7408 149.715 76.8291 149.502 76.8922L149.325 76.0918L149.101 75.3024C149.17 75.275 149.277 75.2201 149.416 75.1489C149.905 74.894 150.413 74.6795 150.936 74.5075C151.744 74.2608 152.626 74.195 153.279 74.7596C155.2 76.4262 155.296 80.5323 154.419 82.484Z" fill="#ED8D34"/>
<path d="M149.63 83.0322C149.816 83.1185 150.01 83.1864 150.208 83.2351L150.074 84.8797C149.707 84.8073 149.348 84.6933 149.004 84.5398L149.63 83.0322Z" fill="#263238"/>
<path d="M150.925 74.5078L150.776 76.3169C150.578 76.4046 150.353 76.5033 150.101 76.6294C149.909 76.7411 149.704 76.8294 149.492 76.8925L149.315 76.0922L149.09 75.3027C149.16 75.2753 149.267 75.2205 149.406 75.1492C149.895 74.8943 150.403 74.6798 150.925 74.5078V74.5078Z" fill="#263238"/>
<path d="M150.064 71.0264L150.011 72.4901L149.978 73.3837L149.962 73.9209L149.497 86.7875H138.663L138.198 73.9209L138.182 73.3837L138.15 72.4901L138.096 71.0264H150.064Z" fill="#ED8D34"/>
<path d="M150.064 71.0264L150.011 72.4901H138.15L138.096 71.0264H150.064Z" fill="#455A64"/>
<path d="M149.979 73.3838L149.963 73.921H138.198L138.182 73.3838H149.979Z" fill="#455A64"/>
<path d="M75.4007 90.4336L75.2669 101.239L73.7957 219.751H72.1426L70.6713 101.239L70.5376 90.4336H75.4007Z" fill="#455A64"/>
<path d="M70.5376 90.4336H75.4007L75.2669 101.239H70.6713L70.5376 90.4336Z" fill="#263238"/>
<path d="M192.664 90.4336L192.531 101.239L191.059 219.751H189.406L187.935 101.239L187.801 90.4336H192.664Z" fill="#455A64"/>
<path d="M192.664 90.4336L192.531 101.239H187.935L187.801 90.4336H192.664Z" fill="#263238"/>
<path d="M58.532 90.4336L58.3983 101.239L56.9271 219.751H55.2739L53.8027 101.239L53.6689 90.4336H58.532Z" fill="#37474F"/>
<path d="M53.6689 90.4336H58.532L58.3983 101.239H53.8027L53.6689 90.4336Z" fill="#263238"/>
<path d="M175.792 90.4336L175.658 101.239L174.187 219.751H172.534L171.062 101.239L170.929 90.4336H175.792Z" fill="#37474F"/>
<path d="M170.929 90.4336H175.792L175.658 101.239H171.062L170.929 90.4336Z" fill="#263238"/>
<path d="M172.148 182.254H56.1021V184.447H172.148V182.254Z" fill="#37474F"/>
<path d="M195.555 86.7881H180.521V93.0432H195.555V86.7881Z" fill="#455A64"/>
<path d="M180.521 86.7881H48.3613V93.0432H180.521V86.7881Z" fill="#37474F"/>
<path d="M75.4209 151.844C66.8129 164.551 57.8731 179.254 56.0381 194.933C56.0381 195.169 56.3912 195.235 56.434 194.999C57.346 190.714 58.5527 186.501 60.0452 182.39C65.8927 180.554 71.6385 179.019 74.5649 172.934C77.5449 166.679 76.9189 158.68 76.1271 151.964C76.0736 151.603 75.5975 151.603 75.4209 151.844Z" fill="#ED8D34"/>
<path d="M59.8531 182.1C63.8174 172.807 68.9212 163.46 75.4428 155.785C75.4856 155.736 75.5551 155.785 75.5177 155.862C71.2377 161.317 68.0278 167.249 64.8713 173.284C67.8191 170.171 71.0505 167.38 73.8431 164.085C73.8966 164.025 73.9822 164.085 73.9341 164.179C71.1628 167.632 68.1401 171.388 64.5182 173.953C63.5552 175.806 62.5833 177.661 61.6025 179.518C61.8432 179.38 62.0947 179.254 62.3461 179.123C62.3889 179.123 62.4264 179.167 62.3836 179.189C62.1054 179.337 61.8486 179.49 61.549 179.616C61.0835 180.493 60.6181 181.376 60.1419 182.253C60.0349 182.461 59.7675 182.297 59.8531 182.1Z" fill="#263238"/>
<path d="M62.8272 178.843C65.2287 177.445 67.5184 175.854 69.6751 174.085C69.7339 174.036 69.8195 174.123 69.7607 174.173C67.6715 176.05 65.3793 177.676 62.9288 179.019C62.8165 179.057 62.7148 178.909 62.8272 178.843Z" fill="#263238"/>
<path d="M54.9459 196.397C54.9459 196.589 55.283 196.572 55.2723 196.397C55.176 191.255 54.9887 186.096 54.9138 180.932C56.1229 178.24 58.8407 176.689 60.6971 174.501C62.0326 172.907 63.1834 171.159 64.1264 169.293C66.308 164.839 67.5822 159.977 67.8714 155.002C68.2459 149.492 65.6993 131.428 63.4523 132.114C62.2914 132.476 58.7497 141.57 57.8295 144.569C56.3379 149.514 55.2868 154.588 54.6891 159.727C53.2018 171.848 53.7047 184.26 54.9459 196.397Z" fill="#ED8D34"/>
<path d="M54.31 174.239C54.401 167.731 55.6475 161.125 56.8031 154.783C58.055 147.946 59.5583 141.499 62.8004 135.343C62.8592 135.228 63.0251 135.343 62.9716 135.442C60.8379 140.22 59.2232 145.224 58.1566 150.364C58.376 149.991 58.6435 149.64 58.8735 149.268C58.9591 149.131 59.1838 149.268 59.0982 149.394C58.8091 149.951 58.4668 150.478 58.0764 150.967C58.0606 150.971 58.044 150.971 58.0282 150.967C56.9957 155.857 56.2895 160.835 55.7117 165.824C55.7599 165.758 55.8134 165.687 55.8669 165.626C55.9204 165.566 55.9632 165.626 55.9418 165.681C55.8562 165.851 55.7599 166.015 55.6689 166.18C55.3747 168.707 55.1339 171.223 54.8397 173.723C59.1196 169.765 62.7041 165.149 64.6515 159.53C64.6515 159.503 64.6996 159.53 64.6943 159.53C62.795 165.358 59.6867 170.577 54.7862 174.222C54.7113 174.897 54.6417 175.571 54.5668 176.24C54.5668 176.377 54.3314 176.349 54.3314 176.24C54.3314 175.648 54.3314 175.055 54.3314 174.458C54.3135 174.447 54.2982 174.432 54.287 174.414C54.2758 174.396 54.2689 174.375 54.2668 174.354C54.2647 174.333 54.2675 174.311 54.275 174.291C54.2825 174.271 54.2945 174.253 54.31 174.239Z" fill="#263238"/>
<path d="M56.0749 164.76C59.2849 159.557 62.2487 154.503 64.5331 148.791C64.5331 148.725 64.6615 148.791 64.6401 148.834C62.7409 154.503 60.0178 160.265 56.2461 164.886C56.1712 164.979 56.0107 164.864 56.0749 164.76Z" fill="#263238"/>
<path d="M60.0345 147.661C61.3452 145.112 62.7362 142.628 63.9613 140.03C63.9988 139.959 64.0951 140.03 64.0683 140.09C63.0773 142.786 61.7961 145.36 60.2485 147.765C60.2308 147.786 60.2071 147.8 60.1808 147.806C60.1545 147.811 60.1272 147.808 60.103 147.796C60.0787 147.784 60.0589 147.765 60.0466 147.74C60.0342 147.716 60.03 147.688 60.0345 147.661V147.661Z" fill="#263238"/>
<path d="M59.5211 148.769C59.5532 148.769 59.5532 148.807 59.5211 148.812C59.4891 148.818 59.4944 148.769 59.5211 148.769Z" fill="#263238"/>
<path d="M52.303 180.91C52.3316 184.318 52.0341 187.72 51.4149 191.068C51.4791 191.43 51.5379 191.792 51.6021 192.165C52.5437 188.448 53.0627 181.107 53.0573 180.482C53.055 175.358 52.5386 170.247 51.5165 165.231C49.6976 155.835 46.0489 146.871 39.4257 140.013C39.3712 139.968 39.3074 139.937 39.2392 139.921C39.171 139.905 39.1002 139.905 39.0321 139.922C38.964 139.938 38.9005 139.97 38.8463 140.015C38.7921 140.061 38.7488 140.118 38.7195 140.183C36.3173 147.014 37.4515 155.051 39.8483 161.722C41.1511 165.325 42.9588 168.714 45.2143 171.782C47.5255 174.891 50.4144 177.495 52.303 180.91Z" fill="#ED8D34"/>
<path d="M40.2765 143.122C46.6482 153.066 51.2278 164.952 52.0838 176.897C52.0838 177.111 51.7521 177.177 51.7146 176.958C51.5381 175.889 51.3508 174.83 51.1529 173.772C48.5635 171.377 45.9046 168.838 44.0107 165.807C43.9786 165.758 44.0535 165.692 44.0963 165.736C46.3593 168.241 48.4779 170.807 51.0191 173.021C50.5127 170.39 49.9171 167.802 49.2323 165.259L48.7347 164.71C48.6277 164.584 48.7989 164.393 48.9113 164.519L49.0611 164.678C48.1004 161.18 46.9374 157.744 45.5783 154.388C43.9733 152.54 42.1917 150.956 40.9987 148.703C40.9955 148.692 40.9958 148.681 40.9997 148.67C41.0035 148.66 41.0106 148.651 41.0199 148.646C41.0291 148.64 41.04 148.638 41.0507 148.639C41.0614 148.64 41.0714 148.645 41.0789 148.653C42.0205 149.931 42.9407 151.219 44 152.398C44.428 152.869 44.8881 153.308 45.3268 153.768C43.8219 150.137 42.0551 146.626 40.0411 143.264C40.03 143.233 40.0299 143.199 40.0409 143.168C40.0518 143.136 40.0731 143.11 40.1011 143.093C40.129 143.076 40.1618 143.07 40.1938 143.075C40.2259 143.08 40.2551 143.097 40.2765 143.122V143.122Z" fill="#263238"/>
<path d="M41.8603 155.577C43.9039 158.236 46.2205 160.758 48.1304 163.51C48.1839 163.586 48.0716 163.674 48.002 163.614C45.5892 161.421 43.5134 158.395 41.7265 155.659C41.673 155.577 41.7961 155.484 41.8603 155.577Z" fill="#263238"/>
<path d="M48.4252 164.129L48.5162 164.211C48.575 164.272 48.4841 164.365 48.4252 164.31L48.3396 164.222C48.2754 164.168 48.361 164.069 48.4252 164.129Z" fill="#263238"/>
<path d="M30.1014 159.87C30.7381 165.061 33.5896 171.207 36.9654 175.126C38.4578 176.83 40.2797 178.196 42.3154 179.139C44.6051 180.236 47.0072 181.464 49.3666 182.33C50.5577 185.194 51.4681 188.173 52.0843 191.222C52.1485 190.959 52.2181 190.674 52.2876 190.421C50.4152 177.264 41.7643 166.245 30.8879 159.327C30.802 159.279 30.7049 159.257 30.6074 159.261C30.5098 159.266 30.4153 159.298 30.3343 159.354C30.2533 159.41 30.1887 159.488 30.1477 159.579C30.1066 159.669 30.0906 159.77 30.1014 159.87Z" fill="#ED8D34"/>
<path d="M33.895 163.642C33.8201 163.576 33.895 163.434 34.002 163.494C39.7693 167.611 45.0336 173.713 48.0617 180.236C48.1473 180.412 47.9065 180.582 47.7995 180.401C47.2645 179.529 46.7295 178.679 46.1945 177.841C43.7496 177.441 41.3796 175.758 39.5446 174.146C39.4964 174.102 39.5446 174.025 39.6141 174.069C40.5693 174.909 41.6245 175.622 42.7545 176.191C43.7778 176.632 44.8224 177.02 45.8842 177.353C44.9373 175.917 43.9583 174.541 42.9418 173.203C40.2989 172.37 37.7577 170.796 35.5107 169.212C35.4411 169.163 35.5107 169.042 35.5802 169.086C37.8171 170.382 40.1189 171.557 42.4763 172.605C40.9346 170.642 39.2784 168.777 37.5169 167.019C36.677 166.597 35.8263 166.169 35.0132 165.714C35.0019 165.705 34.9938 165.692 34.9901 165.677C34.9865 165.663 34.9874 165.647 34.9927 165.633C34.998 165.619 35.0075 165.608 35.0199 165.599C35.0322 165.591 35.0467 165.587 35.0613 165.588C35.7342 165.806 36.379 166.106 36.9819 166.482C36.0029 165.522 34.9864 164.569 33.895 163.642Z" fill="#263238"/>
<path d="M34.2525 168.186C34.3989 168.271 34.5384 168.368 34.6698 168.476C34.7072 168.509 34.6698 168.564 34.6216 168.542C34.468 168.479 34.321 168.4 34.1829 168.307C34.1707 168.296 34.1626 168.281 34.1601 168.264C34.1575 168.248 34.1606 168.231 34.1689 168.217C34.1771 168.202 34.19 168.191 34.2052 168.186C34.2205 168.18 34.2372 168.18 34.2525 168.186V168.186Z" fill="#263238"/>
<path d="M65.2512 183.316L64.8232 193.343L63.6462 220.847H44.6807L43.5037 193.343L43.0757 183.316H65.2512Z" fill="#37474F"/>
<path d="M65.2512 183.316L64.8232 193.343H43.5037L43.0757 183.316H65.2512Z" fill="#263238"/>
<path d="M66.8823 181.262H41.4434V187.583H66.8823V181.262Z" fill="#37474F"/>
</g>
<defs>
<clipPath id="clip0_1041_5816">
<rect width="243" height="223" fill="white"/>
</clipPath>
</defs>
</svg>
