<svg width="316" height="283" viewBox="0 0 316 283" fill="none" xmlns="http://www.w3.org/2000/svg">
<path d="M157.5 275.961C236.753 275.961 301 238.868 301 193.11C301 147.353 236.753 110.259 157.5 110.259C78.2471 110.259 14 147.353 14 193.11C14 238.868 78.2471 275.961 157.5 275.961Z" fill="#F0F0F0"/>
<path d="M127.805 255.891C155.135 255.891 177.289 243.101 177.289 227.324C177.289 211.547 155.135 198.757 127.805 198.757C100.476 198.757 78.3213 211.547 78.3213 227.324C78.3213 243.101 100.476 255.891 127.805 255.891Z" fill="#E0E0E0"/>
<path d="M268.529 191.581L262.724 188.231C262.724 188.231 261.305 175.805 262.249 166.181C263.577 152.659 272.311 136.384 282.727 140.209C293.143 144.034 277.952 157.8 274.571 169.27C271.191 180.739 268.529 191.581 268.529 191.581Z" fill="#ED8D34"/>
<path opacity="0.15" d="M268.529 191.581L262.724 188.231C262.724 188.231 261.305 175.805 262.249 166.181C263.577 152.659 272.311 136.384 282.727 140.209C293.143 144.034 277.952 157.8 274.571 169.27C271.191 180.739 268.529 191.581 268.529 191.581Z" fill="black"/>
<path d="M265.477 190.174C265.57 190.169 265.657 190.129 265.72 190.06C265.782 189.992 265.816 189.901 265.812 189.809C264.795 159.761 279.755 144.643 279.901 144.497C279.967 144.431 280.004 144.341 280.004 144.247C280.004 144.154 279.967 144.064 279.901 143.998C279.869 143.965 279.83 143.939 279.788 143.922C279.746 143.904 279.7 143.895 279.654 143.895C279.608 143.895 279.563 143.904 279.521 143.922C279.478 143.939 279.44 143.965 279.408 143.998C279.249 144.144 264.076 159.481 265.106 189.833C265.107 189.88 265.118 189.926 265.138 189.969C265.157 190.012 265.185 190.05 265.22 190.082C265.255 190.113 265.295 190.138 265.339 190.154C265.384 190.17 265.43 190.177 265.477 190.174Z" fill="white"/>
<path d="M272.178 193.671L268.048 191.289C268.048 191.289 267.341 182.761 271.526 172.407C275.181 163.392 284.195 155.906 288.739 157.477C293.283 159.049 293.168 162.271 290.95 165.652C288.733 169.032 275.266 177.078 272.178 193.671Z" fill="#ED8D34"/>
<path d="M269.996 192.769C270.089 192.767 270.178 192.73 270.244 192.664C270.31 192.598 270.348 192.509 270.349 192.416C270.264 173.411 288.105 160.571 288.288 160.444C288.326 160.417 288.358 160.384 288.383 160.345C288.408 160.306 288.424 160.262 288.432 160.217C288.439 160.171 288.437 160.125 288.426 160.08C288.415 160.035 288.395 159.993 288.367 159.956C288.313 159.881 288.232 159.83 288.141 159.814C288.05 159.798 287.956 159.819 287.88 159.871C287.697 159.999 269.564 173.058 269.643 192.416C269.643 192.509 269.68 192.599 269.746 192.666C269.813 192.732 269.902 192.769 269.996 192.769Z" fill="white"/>
<path d="M53.7437 184.119L59.1039 180.501C59.1039 180.501 61.4611 166.492 59.2683 154.133C56.1862 136.798 44.2051 131.036 39.9413 132.863C35.6775 134.69 34.7639 139.849 42.7249 149.741C47.4455 155.558 53.5793 167.978 53.7437 184.119Z" fill="#ED8D34"/>
<g opacity="0.15">
<path opacity="0.15" d="M53.7437 184.119L59.1039 180.501C59.1039 180.501 61.4611 166.492 59.2683 154.133C56.1862 136.798 44.2051 131.036 39.9413 132.863C35.6775 134.69 34.7639 139.849 42.7249 149.741C47.4455 155.558 53.5793 167.978 53.7437 184.119Z" fill="black"/>
</g>
<path d="M55.5835 177.176H55.5286C55.4739 177.172 55.4205 177.157 55.3719 177.132C55.3233 177.106 55.2807 177.071 55.2468 177.028C55.2129 176.984 55.1884 176.935 55.1751 176.881C55.1617 176.828 55.1597 176.773 55.1693 176.719C57.1062 160.401 50.2172 142.688 42.7191 135.64C42.6469 135.567 42.6064 135.469 42.6064 135.366C42.6064 135.264 42.6469 135.165 42.7191 135.092C42.7548 135.056 42.7975 135.027 42.8445 135.007C42.8916 134.987 42.9421 134.977 42.9932 134.977C43.0442 134.977 43.0948 134.987 43.1418 135.007C43.1889 135.027 43.2315 135.056 43.2673 135.092C50.9055 142.268 57.9224 160.273 55.9611 176.828C55.9496 176.922 55.9053 177.008 55.8361 177.071C55.7669 177.135 55.6774 177.172 55.5835 177.176Z" fill="white"/>
<path d="M39.7102 193.585C38.8574 194.097 36.3723 192.251 35.684 191.806C34.5043 191.036 33.5435 189.975 32.8942 188.724C32.1659 187.306 31.8956 185.697 32.1207 184.119C32.2454 183.296 32.4266 182.482 32.6628 181.683C32.876 180.885 33.0892 180.087 33.2719 179.283C33.542 178.501 33.6458 177.671 33.5764 176.847C33.3389 175.22 31.8709 174.106 30.5309 173.149C29.0569 172.083 27.4854 170.676 27.4854 168.715C27.5605 167.174 28.1503 165.703 29.1604 164.537C30.0741 163.318 31.1705 162.258 31.9928 160.985C32.6358 160.103 32.9639 159.031 32.9247 157.94C32.8188 157.267 32.5785 156.623 32.2181 156.046C31.4994 154.779 30.5674 153.609 30.0619 152.263C29.5563 150.917 29.5929 149.187 30.671 148.182C31.5298 147.36 32.8394 147.226 34.0272 147.281C35.1464 147.392 36.2276 147.748 37.1946 148.322C40.3436 149.997 42.1953 153.652 45.5272 154.925C46.8124 155.412 48.2133 155.497 49.5473 155.826C50.8812 156.155 52.2578 156.807 52.8974 158.019C54.1582 160.425 51.9594 163.458 52.8608 166.011C53.6649 168.276 55.9064 169.105 57.1733 171.133C57.6875 172.034 57.9009 173.075 57.7824 174.106C57.711 175.845 57.3208 177.557 56.6312 179.155C55.8382 180.813 54.9431 182.42 53.9511 183.967C53.9511 183.967 39.8381 193.506 39.7102 193.585Z" fill="#ED8D34"/>
<path d="M47.9457 188.535C47.8945 188.535 47.844 188.524 47.797 188.504C47.75 188.483 47.7074 188.454 47.6718 188.417C47.6362 188.38 47.6081 188.337 47.5893 188.289C47.5704 188.242 47.5611 188.191 47.5619 188.14C47.903 172.717 40.3135 155.857 34.9412 150.984C34.8649 150.915 34.8188 150.819 34.8131 150.716C34.8074 150.613 34.8425 150.513 34.9108 150.436C34.9465 150.399 34.9891 150.37 35.0362 150.351C35.0833 150.331 35.1338 150.321 35.1849 150.321C35.2359 150.321 35.2864 150.331 35.3335 150.351C35.3806 150.37 35.4232 150.399 35.4589 150.436C40.9409 155.37 48.6827 172.522 48.3355 188.158C48.3347 188.208 48.324 188.258 48.304 188.304C48.284 188.351 48.255 188.392 48.2188 188.427C48.1826 188.462 48.1399 188.49 48.093 188.509C48.0461 188.527 47.9961 188.536 47.9457 188.535Z" fill="white"/>
<path d="M45.1008 169.745C45.0648 169.754 45.0272 169.754 44.9912 169.745C40.0087 168.307 33.8323 168.161 33.7714 168.155C33.7205 168.154 33.6702 168.143 33.6236 168.123C33.5769 168.102 33.5348 168.073 33.4996 168.036C33.4645 167.999 33.437 167.956 33.4188 167.908C33.4007 167.86 33.3921 167.81 33.3937 167.759C33.3928 167.707 33.4025 167.656 33.4223 167.609C33.4421 167.561 33.4716 167.519 33.5088 167.483C33.546 167.448 33.5902 167.42 33.6385 167.403C33.6869 167.385 33.7384 167.378 33.7897 167.381C33.8506 167.381 40.1244 167.533 45.2044 168.995C45.3025 169.025 45.3851 169.092 45.4341 169.182C45.4831 169.272 45.4947 169.378 45.4663 169.476C45.4426 169.555 45.3941 169.623 45.3282 169.671C45.2623 169.72 45.1825 169.745 45.1008 169.745Z" fill="white"/>
<path d="M188.663 173.515L186.354 172.181C185.969 171.932 185.649 171.595 185.419 171.198C185.19 170.801 185.057 170.355 185.032 169.897V73.9504C185.057 73.4932 185.19 73.0484 185.418 72.6516C185.647 72.2549 185.965 71.9173 186.348 71.6662L250.518 34.6202C250.926 34.4131 251.378 34.3052 251.836 34.3052C252.294 34.3052 252.746 34.4131 253.155 34.6202L255.463 35.9542C255.848 36.2039 256.168 36.5409 256.398 36.9379C256.628 37.3348 256.76 37.7804 256.785 38.2383V134.185C256.76 134.642 256.628 135.087 256.399 135.484C256.171 135.881 255.852 136.218 255.47 136.469L191.3 173.521C190.891 173.729 190.439 173.837 189.98 173.836C189.522 173.835 189.07 173.725 188.663 173.515Z" fill="#455A64"/>
<path d="M256.785 38.0251C256.694 37.3429 256.14 37.0932 255.476 37.4769L191.3 74.529C190.912 74.7725 190.591 75.1098 190.368 75.5097L185.416 72.653C185.638 72.25 185.958 71.9104 186.348 71.6662L250.518 34.6202C250.926 34.4131 251.378 34.3052 251.836 34.3052C252.295 34.3052 252.746 34.4131 253.155 34.6202L255.464 35.9542C255.82 36.1837 256.123 36.4876 256.351 36.8451C256.579 37.2025 256.727 37.6051 256.785 38.0251Z" fill="#455A64"/>
<path d="M191.075 173.625C190.685 173.783 190.265 173.856 189.845 173.838C189.425 173.82 189.013 173.712 188.638 173.522L186.323 172.182C185.941 171.93 185.622 171.593 185.394 171.196C185.165 170.799 185.033 170.354 185.008 169.897V73.9505C185.023 73.4924 185.156 73.0459 185.392 72.6531L190.344 75.5098C190.103 75.9032 189.969 76.3524 189.954 76.8133V172.76C189.978 173.515 190.453 173.863 191.075 173.625Z" fill="#263238"/>
<path d="M189.979 76.8255V172.76C189.979 173.601 190.588 173.942 191.3 173.522L255.47 136.469C255.853 136.218 256.171 135.881 256.4 135.484C256.628 135.087 256.76 134.642 256.786 134.185V38.2384C256.786 37.3979 256.176 37.0568 255.47 37.4771L191.3 74.5292C190.914 74.7801 190.593 75.1191 190.363 75.5183C190.133 75.9175 190.001 76.3655 189.979 76.8255Z" fill="#37474F"/>
<path d="M174.994 113.372C174.166 112.878 170.322 110.692 170.121 110.576C169.965 110.483 169.831 110.355 169.73 110.203C169.629 110.051 169.564 109.878 169.539 109.698C169.514 109.517 169.53 109.333 169.585 109.159C169.641 108.986 169.734 108.827 169.859 108.694L185.032 92.4185L189.978 95.2569L174.812 111.544C174.692 111.671 174.602 111.822 174.546 111.987C174.49 112.152 174.47 112.327 174.487 112.5C174.505 112.673 174.559 112.84 174.646 112.991C174.734 113.141 174.852 113.271 174.994 113.372Z" fill="#455A64"/>
<path d="M189.978 95.2754L174.812 111.545C174.643 111.725 174.533 111.951 174.496 112.195C174.459 112.438 174.497 112.688 174.605 112.909C174.712 113.131 174.884 113.315 175.099 113.437C175.313 113.558 175.559 113.612 175.804 113.591L189.978 112.422V95.2754Z" fill="#37474F"/>
<path d="M223.382 65.9832C230.862 61.6647 236.923 65.167 236.923 73.8042C236.923 82.4414 230.862 92.9363 223.382 97.2549C215.902 101.573 209.842 98.0711 209.842 89.44C209.842 80.809 215.902 70.3018 223.382 65.9832Z" fill="#ED8D34"/>
<path d="M223.284 72.781C225.721 71.3801 227.676 72.513 227.676 75.3149C227.593 76.838 227.152 78.3201 226.389 79.6409C225.626 80.9616 224.562 82.0839 223.284 82.9166C220.848 84.3176 218.887 83.1846 218.887 80.3827C218.97 78.8591 219.412 77.3767 220.176 76.0559C220.94 74.7351 222.005 73.6131 223.284 72.781Z" fill="white"/>
<path d="M231.946 87.7164C231.946 83.1176 228.711 81.2477 224.728 83.5501L222.237 84.9876C218.253 87.29 215.019 92.906 215.019 97.4926V98.7534C215.771 98.9938 216.556 99.1151 217.345 99.1128C219.482 99.0402 221.563 98.4102 223.382 97.2855C226.844 95.1527 229.773 92.2568 231.946 88.8189V87.7164Z" fill="white"/>
<path d="M214.805 140.008L231.958 130.104C232.689 129.684 233.279 130.025 233.279 130.866V136.39C233.255 136.848 233.122 137.294 232.892 137.691C232.663 138.088 232.342 138.425 231.958 138.674L214.805 148.579C214.074 148.999 213.483 148.658 213.483 147.817V142.293C213.508 141.835 213.641 141.389 213.871 140.992C214.1 140.595 214.421 140.258 214.805 140.008Z" fill="#ED8D34"/>
<path d="M206.406 127.668L240.34 108.067C241.211 107.561 241.924 107.969 241.924 108.98V111.033C241.894 111.582 241.735 112.117 241.46 112.593C241.185 113.069 240.801 113.474 240.34 113.774L206.388 133.375C205.517 133.881 204.811 133.472 204.811 132.461V130.427C204.838 129.873 204.998 129.334 205.275 128.854C205.553 128.375 205.94 127.968 206.406 127.668Z" fill="#FAFAFA"/>
<path d="M210.378 113.482C210.841 113.214 211.2 113.171 211.456 113.36C211.712 113.549 211.84 113.969 211.84 114.615C211.853 115.204 211.721 115.787 211.456 116.314C211.217 116.79 210.841 117.184 210.378 117.447L209.464 117.977V119.944C209.462 120.012 209.446 120.079 209.415 120.139C209.394 120.194 209.356 120.241 209.306 120.273L208.843 120.541C208.827 120.553 208.808 120.56 208.788 120.56C208.768 120.56 208.749 120.553 208.733 120.541C208.7 120.5 208.685 120.447 208.691 120.395V114.7C208.69 114.633 208.705 114.566 208.733 114.505C208.756 114.451 208.794 114.404 208.843 114.371L210.378 113.482ZM209.464 116.874L210.347 116.363C210.561 116.242 210.741 116.071 210.871 115.863C211.01 115.619 211.077 115.34 211.066 115.059C211.066 114.73 210.999 114.542 210.871 114.487C210.781 114.465 210.687 114.464 210.596 114.484C210.505 114.504 210.42 114.544 210.347 114.602L209.464 115.114V116.874Z" fill="#FAFAFA"/>
<path d="M214.391 111.161C214.452 111.124 214.501 111.124 214.531 111.161C214.57 111.215 214.597 111.278 214.61 111.343L216.017 116.107C216.017 116.107 216.017 116.143 216.017 116.162C216.016 116.229 216 116.296 215.969 116.356C215.947 116.412 215.909 116.458 215.859 116.49L215.445 116.728C215.372 116.771 215.317 116.777 215.286 116.728C215.257 116.697 215.236 116.66 215.225 116.618L214.976 115.784L213.148 116.832L212.905 117.952C212.887 118.013 212.865 118.072 212.838 118.129C212.807 118.203 212.751 118.264 212.679 118.299L212.265 118.537C212.25 118.55 212.23 118.557 212.21 118.557C212.19 118.557 212.171 118.55 212.155 118.537C212.124 118.498 212.108 118.447 212.113 118.397C212.11 118.375 212.11 118.352 212.113 118.33L213.514 111.946C213.531 111.853 213.557 111.761 213.593 111.672C213.623 111.608 213.672 111.555 213.733 111.52L214.391 111.161ZM214.708 114.852L214.099 112.702L213.489 115.577L214.708 114.852Z" fill="#FAFAFA"/>
<path d="M218.15 108.901C218.354 108.772 218.586 108.695 218.826 108.676C218.996 108.66 219.166 108.699 219.313 108.785C219.447 108.872 219.551 108.997 219.612 109.145C219.678 109.295 219.715 109.456 219.721 109.62C219.725 109.687 219.711 109.755 219.679 109.815C219.657 109.87 219.619 109.917 219.569 109.949L219.167 110.18C219.1 110.217 219.051 110.223 219.021 110.18C218.983 110.155 218.952 110.122 218.929 110.083C218.905 110.028 218.87 109.979 218.826 109.938C218.782 109.897 218.73 109.865 218.674 109.845C218.488 109.819 218.3 109.867 218.15 109.979C218.051 110.043 217.957 110.114 217.87 110.192C217.779 110.276 217.699 110.37 217.632 110.473C217.567 110.572 217.514 110.678 217.474 110.789C217.438 110.895 217.419 111.006 217.419 111.118C217.412 111.221 217.431 111.323 217.474 111.417C217.492 111.449 217.519 111.477 217.551 111.497C217.583 111.517 217.619 111.529 217.656 111.532C217.769 111.552 217.885 111.552 217.998 111.532L218.527 111.417C218.725 111.358 218.931 111.333 219.137 111.344C219.283 111.343 219.427 111.39 219.545 111.478C219.656 111.571 219.737 111.697 219.776 111.837C219.836 112.034 219.863 112.24 219.855 112.446C219.855 112.718 219.816 112.989 219.74 113.25C219.665 113.519 219.557 113.777 219.417 114.018C219.269 114.265 219.093 114.493 218.893 114.7C218.688 114.912 218.454 115.095 218.199 115.242C218.011 115.356 217.805 115.436 217.589 115.479C217.414 115.513 217.233 115.498 217.066 115.437C216.913 115.366 216.787 115.249 216.706 115.102C216.607 114.914 216.552 114.705 216.548 114.493C216.547 114.423 216.562 114.355 216.591 114.292C216.617 114.24 216.657 114.196 216.706 114.164L217.108 113.932C217.169 113.896 217.218 113.884 217.254 113.902C217.291 113.92 217.315 113.951 217.34 114.005C217.365 114.068 217.398 114.127 217.437 114.182C217.475 114.235 217.528 114.275 217.589 114.298C217.67 114.316 217.753 114.316 217.833 114.298C217.962 114.267 218.086 114.216 218.199 114.145C218.317 114.078 218.429 114.001 218.534 113.914C218.738 113.752 218.901 113.543 219.009 113.305C219.057 113.183 219.082 113.053 219.082 112.921C219.087 112.873 219.083 112.825 219.07 112.779C219.056 112.733 219.033 112.69 219.003 112.653C218.97 112.624 218.931 112.603 218.889 112.59C218.847 112.577 218.802 112.574 218.759 112.58C218.621 112.586 218.484 112.608 218.351 112.647C218.192 112.684 218.01 112.726 217.797 112.763C217.633 112.804 217.464 112.816 217.297 112.799C217.165 112.791 217.04 112.737 216.944 112.647C216.838 112.544 216.765 112.413 216.731 112.269C216.682 112.058 216.659 111.841 216.664 111.624C216.663 111.356 216.702 111.089 216.779 110.832C216.852 110.568 216.958 110.314 217.096 110.077C217.228 109.841 217.387 109.622 217.571 109.425C217.738 109.224 217.933 109.047 218.15 108.901Z" fill="#FAFAFA"/>
<path d="M222.151 106.599C222.354 106.466 222.586 106.387 222.827 106.367C222.997 106.353 223.167 106.391 223.315 106.477C223.445 106.566 223.546 106.691 223.607 106.836C223.674 106.986 223.711 107.147 223.717 107.311C223.724 107.379 223.709 107.448 223.674 107.506C223.653 107.561 223.614 107.608 223.564 107.64L223.162 107.872C223.102 107.908 223.053 107.92 223.016 107.872C222.977 107.847 222.948 107.811 222.931 107.768C222.875 107.661 222.782 107.579 222.669 107.537C222.578 107.523 222.486 107.528 222.397 107.551C222.308 107.574 222.224 107.615 222.151 107.671C222.05 107.733 221.954 107.804 221.865 107.884C221.777 107.967 221.699 108.061 221.634 108.164C221.566 108.262 221.513 108.368 221.475 108.481C221.437 108.586 221.417 108.698 221.414 108.81C221.407 108.912 221.426 109.015 221.469 109.108C221.488 109.141 221.514 109.169 221.546 109.189C221.578 109.209 221.614 109.221 221.652 109.224C221.765 109.244 221.88 109.244 221.993 109.224L222.523 109.108C222.721 109.053 222.926 109.028 223.132 109.035C223.279 109.034 223.422 109.081 223.54 109.169C223.651 109.264 223.734 109.389 223.778 109.529C223.831 109.727 223.856 109.932 223.851 110.138C223.85 110.41 223.811 110.68 223.735 110.942C223.661 111.21 223.552 111.468 223.412 111.709C223.265 111.958 223.09 112.19 222.888 112.397C222.683 112.605 222.451 112.785 222.2 112.933C222.012 113.047 221.806 113.128 221.591 113.171C221.418 113.204 221.239 113.189 221.073 113.128C220.918 113.06 220.79 112.942 220.708 112.793C220.608 112.606 220.555 112.397 220.555 112.184C220.548 112.116 220.563 112.048 220.598 111.989C220.62 111.934 220.658 111.887 220.708 111.855L221.11 111.624C221.171 111.587 221.225 111.575 221.256 111.593C221.277 111.603 221.296 111.617 221.311 111.635C221.325 111.653 221.336 111.674 221.341 111.697C221.369 111.758 221.401 111.818 221.439 111.874C221.479 111.927 221.534 111.967 221.597 111.989C221.677 112.008 221.761 112.008 221.841 111.989C221.97 111.959 222.093 111.907 222.206 111.837C222.321 111.768 222.431 111.691 222.535 111.606C222.642 111.522 222.736 111.424 222.815 111.313C222.894 111.208 222.96 111.093 223.01 110.972C223.059 110.85 223.084 110.72 223.083 110.588C223.089 110.541 223.085 110.492 223.071 110.446C223.058 110.4 223.035 110.357 223.004 110.32C222.971 110.291 222.932 110.27 222.89 110.257C222.848 110.245 222.804 110.241 222.76 110.247C222.624 110.256 222.49 110.278 222.358 110.314C222.2 110.351 222.011 110.393 221.804 110.43C221.639 110.471 221.468 110.483 221.299 110.467C221.166 110.46 221.041 110.406 220.945 110.314C220.842 110.211 220.77 110.08 220.738 109.937C220.684 109.728 220.659 109.513 220.665 109.297C220.667 109.027 220.706 108.759 220.781 108.499C220.856 108.236 220.963 107.982 221.098 107.744C221.229 107.507 221.391 107.288 221.579 107.092C221.743 106.899 221.936 106.732 222.151 106.599Z" fill="#FAFAFA"/>
<path d="M226.592 107.36L226.099 110.278C226.084 110.365 226.06 110.451 226.026 110.533C226.002 110.599 225.957 110.655 225.898 110.692L225.435 110.96C225.374 110.996 225.331 110.996 225.301 110.96C225.26 110.91 225.236 110.848 225.234 110.783L224.503 105.636C224.503 105.636 224.503 105.587 224.503 105.569C224.505 105.501 224.521 105.435 224.552 105.374C224.575 105.32 224.613 105.274 224.661 105.24L225.082 104.997C225.117 104.982 225.156 104.982 225.191 104.997C225.228 104.997 225.252 105.045 225.264 105.143L225.746 108.609L226.166 106.008C226.177 105.943 226.195 105.88 226.221 105.819C226.245 105.742 226.297 105.677 226.367 105.636L226.836 105.362C226.903 105.326 226.952 105.332 226.982 105.362C227.008 105.401 227.027 105.444 227.037 105.49L227.463 107.604L227.944 103.583C227.95 103.504 227.973 103.428 228.011 103.358C228.04 103.313 228.077 103.273 228.121 103.242L228.541 102.999C228.557 102.987 228.576 102.98 228.596 102.98C228.616 102.98 228.635 102.987 228.651 102.999C228.668 103.019 228.682 103.042 228.69 103.067C228.698 103.092 228.702 103.119 228.7 103.145C228.702 103.169 228.702 103.194 228.7 103.218L227.969 109.206C227.957 109.293 227.934 109.379 227.902 109.461C227.874 109.526 227.827 109.582 227.768 109.62L227.299 109.888C227.244 109.918 227.201 109.918 227.171 109.888C227.14 109.832 227.115 109.773 227.098 109.711L226.592 107.36Z" fill="#FAFAFA"/>
<path d="M229.442 104.777C229.456 104.44 229.496 104.103 229.564 103.772C229.634 103.449 229.74 103.134 229.881 102.834C230.015 102.543 230.187 102.271 230.392 102.024C230.601 101.78 230.85 101.574 231.129 101.415C231.344 101.269 231.595 101.187 231.854 101.177C232.048 101.18 232.233 101.256 232.372 101.391C232.52 101.556 232.626 101.755 232.683 101.969C232.761 102.249 232.804 102.538 232.811 102.828C232.811 102.938 232.811 103.06 232.811 103.194C232.811 103.328 232.811 103.468 232.811 103.614C232.811 103.76 232.811 103.9 232.811 104.034C232.811 104.168 232.811 104.296 232.811 104.412C232.797 104.748 232.757 105.082 232.689 105.411C232.618 105.734 232.514 106.048 232.378 106.349C232.24 106.639 232.066 106.911 231.86 107.159C231.652 107.401 231.405 107.607 231.129 107.768C230.91 107.913 230.655 107.995 230.392 108.006C230.298 108.008 230.203 107.99 230.115 107.955C230.027 107.919 229.948 107.866 229.881 107.799C229.722 107.628 229.612 107.417 229.564 107.189C229.491 106.909 229.451 106.62 229.442 106.331C229.442 106.221 229.442 106.099 229.442 105.965C229.442 105.831 229.442 105.691 229.442 105.545C229.442 105.399 229.442 105.265 229.442 105.125C229.442 104.984 229.436 104.887 229.442 104.777ZM232.037 103.322C232.051 103.173 232.034 103.022 231.988 102.88C231.942 102.738 231.867 102.606 231.769 102.493C231.611 102.353 231.391 102.359 231.129 102.493C230.845 102.66 230.62 102.911 230.484 103.212C230.311 103.567 230.219 103.956 230.216 104.351C230.216 104.576 230.216 104.826 230.216 105.1C230.216 105.374 230.216 105.618 230.216 105.837C230.202 105.986 230.219 106.136 230.265 106.279C230.311 106.421 230.385 106.553 230.484 106.666C230.642 106.8 230.861 106.787 231.129 106.635C231.409 106.467 231.632 106.219 231.769 105.922C231.942 105.57 232.033 105.182 232.037 104.79C232.037 104.558 232.037 104.308 232.037 104.034C232.037 103.76 232.043 103.541 232.037 103.322Z" fill="#FAFAFA"/>
<path d="M235.467 98.9849C235.948 98.7108 236.307 98.6681 236.557 98.8691C236.705 99.0322 236.815 99.226 236.879 99.4366C236.943 99.6472 236.96 99.8695 236.928 100.087C236.933 100.501 236.87 100.913 236.74 101.306C236.616 101.671 236.424 102.01 236.173 102.305L236.965 104.028C236.967 104.057 236.967 104.085 236.965 104.114C236.965 104.168 236.953 104.223 236.928 104.272C236.912 104.316 236.882 104.354 236.843 104.382L236.356 104.662C236.277 104.704 236.222 104.71 236.185 104.662C236.153 104.63 236.126 104.593 236.106 104.552L235.357 102.926L234.596 103.364V105.423C234.596 105.49 234.581 105.557 234.553 105.618C234.528 105.671 234.49 105.717 234.443 105.752L233.98 106.02C233.965 106.033 233.946 106.04 233.925 106.04C233.905 106.04 233.886 106.033 233.871 106.02C233.853 106.001 233.84 105.979 233.831 105.955C233.823 105.931 233.82 105.905 233.822 105.88V100.185C233.824 100.117 233.84 100.051 233.871 99.9899C233.892 99.9348 233.931 99.8879 233.98 99.8559L235.467 98.9849ZM234.608 102.262L235.467 101.799C235.676 101.682 235.856 101.517 235.99 101.318C236.131 101.083 236.199 100.812 236.185 100.538C236.185 100.209 236.118 100.026 235.99 99.9899C235.805 99.9647 235.617 100.013 235.467 100.124L234.638 100.599L234.608 102.262Z" fill="#FAFAFA"/>
<path d="M239.548 96.6396C239.769 96.4954 240.022 96.4075 240.285 96.3838C240.476 96.3768 240.661 96.4445 240.803 96.5726C240.964 96.7423 241.076 96.953 241.126 97.1817C241.207 97.4838 241.252 97.7947 241.26 98.1076C241.26 98.534 241.26 98.9725 241.26 99.4172C241.247 99.7798 241.202 100.141 241.126 100.495C241.056 100.825 240.95 101.146 240.809 101.452C240.673 101.733 240.501 101.995 240.297 102.231C240.094 102.473 239.851 102.679 239.578 102.84L238.135 103.626C238.119 103.639 238.1 103.646 238.08 103.646C238.06 103.646 238.041 103.639 238.025 103.626C238.007 103.608 237.994 103.586 237.985 103.561C237.977 103.537 237.974 103.511 237.976 103.486V97.7908C237.978 97.7231 237.995 97.6565 238.025 97.5959C238.047 97.5408 238.085 97.4939 238.135 97.4619L239.548 96.6396ZM240.486 98.534C240.483 98.369 240.459 98.2051 240.413 98.0467C240.385 97.9267 240.323 97.8171 240.236 97.7299C240.198 97.6917 240.152 97.6617 240.102 97.6418C240.052 97.6219 239.998 97.6125 239.944 97.6142C239.791 97.6244 239.644 97.6748 239.517 97.7604L238.75 98.1989V102.17L239.548 101.714C239.702 101.624 239.84 101.508 239.956 101.372C240.069 101.239 240.166 101.091 240.242 100.934C240.318 100.766 240.375 100.59 240.413 100.41C240.455 100.222 240.48 100.03 240.486 99.8374C240.504 99.3928 240.504 98.9603 240.486 98.534Z" fill="#FAFAFA"/>
<path d="M155.904 8.23346C156.956 8.46741 157.969 8.84883 158.913 9.3664C159.818 9.85264 160.628 10.4962 161.307 11.2668C161.956 12.0081 162.438 12.8807 162.72 13.8251C163.008 14.836 163.029 15.904 162.781 16.9254C162.618 17.7353 162.297 18.5051 161.837 19.1913C161.417 19.7781 160.917 20.303 160.351 20.7507C159.795 21.1822 159.202 21.5634 158.578 21.8897L156.824 22.8216C156.296 23.0972 155.794 23.4215 155.326 23.7901C154.902 24.1151 154.577 24.5517 154.388 25.051C154.295 25.279 154.141 25.4772 153.943 25.6235C153.849 25.6963 153.74 25.7468 153.624 25.771C153.508 25.7953 153.388 25.7928 153.273 25.7636L150.69 25.1911C150.566 25.165 150.448 25.1144 150.343 25.0422C150.239 24.9701 150.15 24.8778 150.081 24.7708C150.008 24.6713 149.96 24.556 149.94 24.4344C149.92 24.3127 149.928 24.1879 149.965 24.0703C150.173 23.2705 150.54 22.5206 151.044 21.8653C151.503 21.2857 152.035 20.7677 152.627 20.3243C153.204 19.9021 153.815 19.5292 154.455 19.2096C155.064 18.899 155.673 18.6005 156.203 18.302C156.696 18.0371 157.159 17.7206 157.585 17.3579C157.959 17.0448 158.219 16.6163 158.322 16.1397C158.419 15.7259 158.415 15.2947 158.308 14.8831C158.202 14.4716 157.998 14.0918 157.713 13.7764C157.001 12.9987 156.049 12.4819 155.009 12.3084C153.084 11.882 151.46 12.5297 150.136 14.2515C150.008 14.4394 149.847 14.6025 149.661 14.7327C149.451 14.8369 149.208 14.8544 148.985 14.7814L146.238 14.1723C146.042 14.1344 145.869 14.0205 145.757 13.8555C145.697 13.7674 145.656 13.6674 145.638 13.5623C145.621 13.4572 145.626 13.3494 145.653 13.2464C145.886 12.4 146.321 11.6227 146.92 10.9805C147.595 10.2359 148.398 9.61715 149.289 9.15322C150.264 8.64303 151.315 8.29338 152.402 8.11773C153.566 7.92841 154.755 7.96772 155.904 8.23346ZM152.987 27.8346C153.228 27.8913 153.438 28.0403 153.571 28.2498C153.704 28.4592 153.75 28.7125 153.699 28.9554L153.041 31.94C153.019 32.065 152.971 32.1838 152.899 32.2888C152.828 32.3937 152.735 32.4825 152.627 32.5491C152.525 32.6194 152.41 32.6676 152.288 32.6907C152.166 32.7138 152.041 32.7112 151.921 32.6831L148.973 32.007C148.847 31.9859 148.728 31.9379 148.623 31.8664C148.518 31.7949 148.429 31.7016 148.364 31.5928C148.295 31.4899 148.249 31.3742 148.227 31.2527C148.205 31.1312 148.208 31.0065 148.236 30.8862L148.9 27.9016C148.956 27.6596 149.105 27.4493 149.314 27.3151C149.523 27.181 149.777 27.1335 150.02 27.1828L152.987 27.8346Z" fill="#ED8D34"/>
<path d="M159.157 36.8067C159.89 36.6891 160.637 36.6747 161.374 36.7641C162.079 36.8478 162.763 37.054 163.396 37.3732C164 37.6862 164.531 38.1219 164.956 38.6523C165.338 39.1715 165.607 39.7649 165.745 40.3944C165.884 41.0239 165.889 41.6754 165.76 42.307C165.644 42.7925 165.457 43.2584 165.205 43.6897C164.963 44.1091 164.682 44.5048 164.365 44.8713C164.054 45.2368 163.756 45.584 163.482 45.919C163.213 46.2311 162.975 46.5676 162.769 46.924C162.576 47.2365 162.479 47.5985 162.489 47.9656C162.484 48.1372 162.435 48.3047 162.349 48.4529C162.305 48.5212 162.247 48.5793 162.178 48.6234C162.11 48.6675 162.033 48.6966 161.953 48.7087L160.126 49.0011C160.04 49.0166 159.952 49.0149 159.868 48.996C159.783 48.9772 159.703 48.9417 159.632 48.8914C159.56 48.8462 159.5 48.7845 159.457 48.7114C159.413 48.6384 159.388 48.556 159.382 48.4712C159.306 47.9044 159.347 47.3278 159.504 46.7778C159.647 46.2909 159.852 45.8242 160.113 45.3891C160.369 44.9714 160.663 44.578 160.99 44.2135C161.313 43.848 161.6 43.5069 161.88 43.178C162.13 42.8843 162.346 42.5635 162.525 42.2217C162.684 41.9275 162.742 41.5895 162.69 41.2593C162.644 40.9687 162.529 40.6935 162.354 40.457C162.179 40.2205 161.949 40.0298 161.685 39.901C161.03 39.5847 160.289 39.4947 159.577 39.6452C158.933 39.7394 158.334 40.0305 157.862 40.4787C157.389 40.9269 157.067 41.5102 156.94 42.1486C156.904 42.3022 156.842 42.4484 156.757 42.5811C156.648 42.6967 156.501 42.7683 156.343 42.7821L154.418 43.0927C154.283 43.1186 154.143 43.0902 154.028 43.0135C153.97 42.9732 153.92 42.9209 153.884 42.8599C153.847 42.799 153.823 42.7309 153.815 42.6603C153.758 42.0558 153.852 41.4467 154.089 40.8878C154.33 40.2374 154.685 39.6351 155.137 39.1092C155.632 38.5332 156.216 38.0398 156.867 37.6473C157.569 37.2216 158.346 36.9362 159.157 36.8067ZM162.3 50.1158C162.384 50.1025 162.47 50.1058 162.552 50.1257C162.635 50.1455 162.713 50.1815 162.781 50.2315C162.853 50.2787 162.914 50.3405 162.96 50.413C163.006 50.4854 163.037 50.5668 163.049 50.6518L163.39 52.741C163.417 52.9105 163.375 53.0835 163.275 53.2227C163.175 53.3618 163.023 53.4557 162.854 53.4841L160.814 53.8191C160.644 53.8453 160.472 53.8038 160.333 53.7034C160.262 53.6556 160.202 53.5935 160.157 53.5211C160.112 53.4487 160.082 53.3676 160.071 53.2831L159.73 51.1939C159.714 51.11 159.716 51.0239 159.736 50.941C159.756 50.8581 159.793 50.7803 159.845 50.7127C159.893 50.642 159.955 50.5822 160.028 50.5371C160.1 50.492 160.181 50.4626 160.266 50.4508L162.3 50.1158Z" fill="#ED8D34"/>
<g opacity="0.2">
<path opacity="0.2" d="M159.158 36.8067C159.891 36.6891 160.638 36.6747 161.375 36.7641C162.08 36.8478 162.764 37.054 163.397 37.3732C164.001 37.6862 164.532 38.1219 164.957 38.6523C165.339 39.1715 165.608 39.7649 165.746 40.3944C165.885 41.0239 165.89 41.6754 165.761 42.307C165.645 42.7925 165.458 43.2584 165.206 43.6897C164.964 44.1091 164.683 44.5048 164.366 44.8713C164.055 45.2368 163.757 45.584 163.483 45.919C163.214 46.2311 162.976 46.5676 162.77 46.924C162.577 47.2365 162.48 47.5985 162.49 47.9656C162.484 48.1372 162.436 48.3047 162.35 48.4529C162.306 48.5212 162.248 48.5793 162.179 48.6234C162.111 48.6675 162.034 48.6966 161.954 48.7087L160.126 49.0011C160.041 49.0166 159.953 49.0149 159.869 48.996C159.784 48.9772 159.704 48.9417 159.633 48.8914C159.561 48.8462 159.501 48.7845 159.458 48.7114C159.414 48.6384 159.389 48.556 159.383 48.4712C159.307 47.9044 159.348 47.3278 159.505 46.7778C159.648 46.2909 159.853 45.8242 160.114 45.3891C160.37 44.9714 160.664 44.578 160.991 44.2135C161.314 43.848 161.601 43.5069 161.881 43.178C162.131 42.8843 162.347 42.5635 162.526 42.2217C162.685 41.9275 162.743 41.5895 162.691 41.2593C162.645 40.9687 162.53 40.6935 162.355 40.457C162.18 40.2205 161.95 40.0298 161.686 39.901C161.031 39.5847 160.29 39.4947 159.578 39.6452C158.934 39.7394 158.335 40.0305 157.863 40.4787C157.39 40.9269 157.068 41.5102 156.941 42.1486C156.905 42.3022 156.843 42.4484 156.758 42.5811C156.649 42.6967 156.502 42.7683 156.344 42.7821L154.419 43.0927C154.284 43.1186 154.144 43.0902 154.029 43.0135C153.971 42.9732 153.921 42.9209 153.885 42.8599C153.848 42.799 153.824 42.7309 153.816 42.6603C153.759 42.0558 153.853 41.4467 154.09 40.8878C154.331 40.2374 154.686 39.6351 155.138 39.1092C155.633 38.5332 156.217 38.0398 156.868 37.6473C157.57 37.2216 158.347 36.9362 159.158 36.8067ZM162.301 50.1158C162.385 50.1025 162.471 50.1058 162.553 50.1257C162.636 50.1455 162.714 50.1815 162.782 50.2315C162.854 50.2787 162.915 50.3405 162.961 50.413C163.007 50.4854 163.038 50.5668 163.05 50.6518L163.391 52.741C163.418 52.9105 163.376 53.0835 163.276 53.2227C163.176 53.3618 163.024 53.4557 162.855 53.4841L160.815 53.8191C160.645 53.8453 160.473 53.8038 160.334 53.7034C160.263 53.6556 160.203 53.5935 160.158 53.5211C160.113 53.4487 160.083 53.3676 160.072 53.2831L159.731 51.1939C159.715 51.11 159.717 51.0239 159.737 50.941C159.757 50.8581 159.794 50.7803 159.846 50.7127C159.894 50.642 159.956 50.5822 160.029 50.5371C160.101 50.492 160.182 50.4626 160.267 50.4508L162.301 50.1158Z" fill="black"/>
</g>
<path d="M176.383 40.09C176.466 40.1477 176.536 40.2218 176.589 40.3077C176.643 40.3936 176.678 40.4895 176.693 40.5895C176.713 40.6886 176.711 40.7906 176.689 40.8891C176.667 40.9877 176.625 41.0806 176.565 41.162L175.116 43.2025C175.058 43.2856 174.984 43.356 174.898 43.4094C174.812 43.4628 174.716 43.4981 174.616 43.5132C174.517 43.5326 174.415 43.5312 174.316 43.5092C174.218 43.4872 174.125 43.445 174.044 43.3853L172.046 41.966C171.962 41.9091 171.892 41.8351 171.84 41.749C171.787 41.6629 171.754 41.5666 171.741 41.4666C171.722 41.3675 171.723 41.2654 171.745 41.1669C171.767 41.0684 171.809 40.9754 171.869 40.894L173.337 38.8535C173.456 38.6881 173.635 38.5762 173.835 38.542C174.036 38.5078 174.242 38.554 174.409 38.6708L176.383 40.09ZM184.813 26.2693C185.541 26.7798 186.19 27.3957 186.737 28.0966C187.272 28.7487 187.684 29.4914 187.956 30.2894C188.208 31.0542 188.294 31.8644 188.205 32.665C188.102 33.5187 187.779 34.331 187.267 35.0222C186.887 35.5811 186.398 36.0576 185.83 36.4232C185.329 36.7368 184.786 36.9749 184.216 37.1297C183.661 37.2748 183.094 37.3726 182.522 37.4221L180.902 37.5683C180.416 37.6071 179.935 37.6907 179.465 37.818C179.031 37.9165 178.634 38.1362 178.32 38.4515C178.178 38.5956 177.998 38.6969 177.802 38.7439C177.708 38.7707 177.61 38.7747 177.514 38.7556C177.419 38.7366 177.33 38.6949 177.254 38.6342L175.487 37.3795C175.318 37.2589 175.203 37.0778 175.164 36.8739C175.142 36.7751 175.142 36.6723 175.167 36.5739C175.191 36.4755 175.238 36.3842 175.304 36.3074C175.717 35.772 176.233 35.3246 176.821 34.9917C177.351 34.7025 177.916 34.4834 178.502 34.34C179.068 34.2027 179.645 34.1151 180.226 34.0781C180.799 34.0415 181.335 33.9989 181.834 33.9502C182.291 33.9098 182.743 33.8199 183.18 33.6822C183.563 33.5547 183.893 33.3041 184.118 32.9695C184.322 32.687 184.454 32.3595 184.504 32.0148C184.554 31.6701 184.52 31.3185 184.405 30.9899C184.116 30.1781 183.565 29.4857 182.839 29.0225C181.523 28.0845 180.088 28.054 178.533 28.9311C178.376 29.0307 178.203 29.1009 178.021 29.1382C177.926 29.1448 177.831 29.1326 177.741 29.1023C177.652 29.0719 177.569 29.0241 177.497 28.9616L175.621 27.6276C175.553 27.5825 175.495 27.5242 175.45 27.4562C175.405 27.3882 175.374 27.3119 175.359 27.2317C175.345 27.1488 175.347 27.0638 175.367 26.982C175.387 26.9003 175.424 26.8235 175.475 26.7566C175.918 26.1895 176.493 25.7397 177.15 25.447C177.897 25.1088 178.696 24.9027 179.513 24.8379C180.412 24.7628 181.318 24.8348 182.193 25.0511C183.139 25.2789 184.029 25.693 184.813 26.2693Z" fill="#ED8D34"/>
<g opacity="0.6">
<path opacity="0.6" d="M176.383 40.0897C176.466 40.1475 176.536 40.2216 176.589 40.3074C176.643 40.3933 176.678 40.4892 176.693 40.5892C176.713 40.6883 176.711 40.7903 176.689 40.8889C176.667 40.9874 176.625 41.0804 176.565 41.1618L175.116 43.2023C175.058 43.2853 174.984 43.3557 174.898 43.4091C174.812 43.4626 174.716 43.4979 174.616 43.5129C174.517 43.5323 174.415 43.531 174.316 43.509C174.218 43.4869 174.125 43.4447 174.044 43.385L172.046 41.9658C171.962 41.9088 171.892 41.8349 171.84 41.7488C171.787 41.6627 171.754 41.5664 171.741 41.4663C171.722 41.3672 171.723 41.2652 171.745 41.1667C171.767 41.0681 171.809 40.9752 171.869 40.8938L173.337 38.8533C173.456 38.6879 173.635 38.5759 173.835 38.5417C174.036 38.5075 174.242 38.5538 174.409 38.6705L176.383 40.0897ZM184.813 26.2691C185.541 26.7796 186.19 27.3954 186.737 28.0964C187.272 28.7484 187.684 29.4912 187.956 30.2892C188.208 31.0539 188.294 31.8641 188.205 32.6647C188.102 33.5184 187.779 34.3307 187.267 35.022C186.887 35.5809 186.398 36.0574 185.83 36.4229C185.329 36.7366 184.786 36.9747 184.216 37.1295C183.661 37.2746 183.094 37.3724 182.522 37.4218L180.902 37.568C180.416 37.6069 179.935 37.6905 179.465 37.8178C179.031 37.9163 178.634 38.136 178.32 38.4512C178.178 38.5953 177.998 38.6966 177.802 38.7436C177.708 38.7704 177.61 38.7745 177.514 38.7554C177.419 38.7363 177.33 38.6947 177.254 38.634L175.487 37.3792C175.318 37.2586 175.203 37.0775 175.164 36.8737C175.142 36.7749 175.142 36.6721 175.167 36.5737C175.191 36.4753 175.238 36.384 175.304 36.3072C175.717 35.7717 176.233 35.3244 176.821 34.9915C177.351 34.7022 177.916 34.4832 178.502 34.3398C179.068 34.2025 179.645 34.1148 180.226 34.0778C180.799 34.0413 181.335 33.9987 181.834 33.9499C182.291 33.9096 182.743 33.8197 183.18 33.6819C183.563 33.5544 183.893 33.3039 184.118 32.9693C184.322 32.6867 184.454 32.3592 184.504 32.0146C184.554 31.6699 184.52 31.3183 184.405 30.9897C184.116 30.1778 183.565 29.4854 182.839 29.0222C181.523 28.0842 180.088 28.0538 178.533 28.9309C178.376 29.0305 178.203 29.1007 178.021 29.138C177.926 29.1446 177.831 29.1323 177.741 29.102C177.652 29.0717 177.569 29.0239 177.497 28.9613L175.621 27.6274C175.553 27.5823 175.495 27.524 175.45 27.456C175.405 27.388 175.374 27.3116 175.359 27.2315C175.345 27.1486 175.347 27.0636 175.367 26.9818C175.387 26.9 175.424 26.8233 175.475 26.7564C175.918 26.1892 176.493 25.7395 177.15 25.4468C177.897 25.1085 178.696 24.9024 179.513 24.8377C180.412 24.7625 181.318 24.8345 182.193 25.0508C183.139 25.2786 184.029 25.6928 184.813 26.2691Z" fill="white"/>
</g>
<path d="M131.023 94.0084H109.382V41.5763C109.382 37.0223 111.191 32.6549 114.411 29.4347C117.631 26.2146 121.999 24.4055 126.553 24.4055H128.55C133.104 24.4055 137.472 26.2146 140.692 29.4347C143.912 32.6549 145.721 37.0223 145.721 41.5763V79.3411C145.713 83.2339 144.161 86.9645 141.406 89.7143C138.65 92.4641 134.916 94.0084 131.023 94.0084Z" fill="#263238"/>
<path d="M107.274 220.234C106.891 222.407 106.687 224.607 106.665 226.813C106.586 230.808 105.855 232.227 105.757 235.504C105.641 239.251 106.293 240.651 107.81 242.759C109.327 244.867 113.292 246.773 115.01 243.216C116.727 239.659 116.478 237.326 115.935 233.653C115.381 229.852 115.326 227.751 114.985 224.857C114.705 222.305 114.376 220.362 114.376 220.362L107.274 220.234Z" fill="#263238"/>
<path d="M118.615 193.695L105.458 193.458C105.653 202.241 107.048 211.993 107.285 220.259C107.334 221.812 107.249 232.313 107.834 235.486C108.717 240.286 114.406 239.634 114.71 236.765C115.015 233.897 114.345 221.635 114.363 220.368C114.308 215.081 116.8 206.158 118.085 196.668C118.14 196.211 118.554 194.152 118.615 193.695Z" fill="#FFA8A7"/>
<path d="M135.518 213.4C135.518 213.4 135.001 213.12 134.909 213.674C134.781 214.332 134.586 215.69 134.3 216.774C133.923 218.279 133.606 220.758 133.831 221.988C134.057 223.219 136.919 224.79 138.777 225.363C141.067 226.069 143.155 227.312 144.868 228.987C146.696 230.717 150.673 232.349 153.396 232.331C156.594 232.331 158.823 231.265 159.877 229.553C160.93 227.842 158.914 227.635 155.26 225.29L152.427 223.462C146.635 219.68 144.509 217.658 142.883 213.875L135.518 213.4Z" fill="#263238"/>
<path d="M142.931 211.055C142.834 208.338 144.71 185.247 144.71 185.247L132.217 190.942C134.891 206.913 135.463 210.683 135.506 213.296C135.451 213.515 135.429 213.741 135.439 213.966C135.439 217.067 138.954 218.742 141.682 220.813C144.002 222.63 146.474 224.244 149.071 225.637C151.057 226.63 155.089 226.721 155.588 225.448C152.263 222.908 147.426 219.107 144.783 216.208C143.491 214.843 143.028 213.777 142.931 211.055Z" fill="#FFA8A7"/>
<path d="M110.849 107.987C106.049 118.519 106.049 126.669 106.847 140.112C107.554 152.446 108.729 163.319 108.729 163.319C108.547 165.505 105.507 169.775 105.111 179.448C104.746 188.487 105.72 199.981 105.72 199.981C105.72 199.981 112.549 203.764 117.598 199.944C117.598 199.944 122.471 176.683 123.896 165.365C125.114 155.492 127.307 142.877 127.307 142.877L131.918 165.298C130.923 168.48 130.202 171.74 129.762 175.044C129.116 181.702 132.844 194.773 132.844 194.773C132.844 194.773 139.898 196.875 144.204 193.055C144.204 193.055 145.812 171.804 146.415 163.788C147.219 153.049 145.526 123.983 144.204 108.59L110.849 107.987Z" fill="#455A64"/>
<path d="M127.319 142.859L129.214 125.962C129.214 125.962 137.705 124.829 141.554 121.211C140.452 122.935 138.985 124.395 137.255 125.488C135.525 126.581 133.576 127.279 131.547 127.534L128.806 143.255L131.918 165.299L127.319 142.859Z" fill="#263238"/>
<path d="M161.703 103.833C162.054 100.75 162.209 97.6474 162.166 94.5444C161.977 91.8643 161.496 91.4258 157.75 86.6808C152.695 80.2669 148.376 74.4986 143.808 68.7669C140.543 64.6737 137.107 64.0463 133.77 64.2291C131.431 64.357 135.999 75.6072 138.295 82.2648L151.409 96.3839C151.816 96.9412 152.002 97.6286 151.933 98.3148L151.141 110.326L155.07 115.589C155.07 115.589 161.021 110.46 161.703 103.833Z" fill="#FFA8A7"/>
<path d="M121.125 64.5945C118.585 64.7712 113.968 65.2036 113.968 65.2036C111.307 66.6899 110.63 67.9142 110.137 71.447C109.924 72.9576 111.154 76.9716 112.208 82.679L114.206 93.2592L113.987 98.5097C112.951 101.714 110.606 105.691 108.535 111.557C118.707 117.234 127.235 117.447 134.97 116.43C140.867 115.668 143.991 114.243 145.033 112.83C144.814 107.037 144.424 103.456 144.302 97.4011C144.259 94.8612 144.412 92.2907 144.515 89.367C148.468 86.1144 148.517 80.7055 146.343 77.1848C141.33 69.0654 136.451 63.955 133.222 64.2169L121.125 64.5945Z" fill="#ED8D34"/>
<path opacity="0.6" d="M121.125 64.5945C118.585 64.7712 113.968 65.2036 113.968 65.2036C111.307 66.6899 110.63 67.9142 110.137 71.447C109.924 72.9576 111.154 76.9716 112.208 82.679L114.206 93.2592L113.987 98.5097C112.951 101.714 110.606 105.691 108.535 111.557C118.707 117.234 127.235 117.447 134.97 116.43C140.867 115.668 143.991 114.243 145.033 112.83C144.814 107.037 144.424 103.456 144.302 97.4011C144.259 94.8612 144.412 92.2907 144.515 89.367C148.468 86.1144 148.517 80.7055 146.343 77.1848C141.33 69.0654 136.451 63.955 133.222 64.2169L121.125 64.5945Z" fill="white"/>
<path opacity="0.1" d="M136.638 89.446C136.638 89.446 131.997 93.052 126.692 91.1698C125.202 90.7004 123.858 89.8544 122.791 88.7137C121.724 87.573 120.97 86.1762 120.6 84.6584C120.6 84.6584 120.04 90.7191 126.722 92.784C133.197 94.7757 136.638 89.446 136.638 89.446Z" fill="black"/>
<path d="M142.938 47.9597C142.737 56.7552 139.892 58.9236 138.455 59.5327C137.017 60.1419 134.264 59.7764 131.584 59.3317V64.6432C131.584 64.6432 134.678 67.8836 134.447 70.3018C134.215 72.72 129.574 72.9941 126.114 70.6246C124.205 69.3133 122.478 67.7546 120.979 65.9893C120.691 65.6487 120.534 65.217 120.535 64.7711V52.3453C120.535 52.3453 119.067 53.8985 116.472 52.1199C115.912 51.7626 115.432 51.2927 115.064 50.7401C114.696 50.1875 114.446 49.5642 114.332 48.91C114.217 48.2558 114.24 47.5849 114.398 46.94C114.557 46.295 114.848 45.6902 115.254 45.1639C116.386 43.8299 119.261 43.7385 120.638 45.773C121.418 47.2897 121.521 48.8185 122.392 48.2094C124.707 46.5404 123.464 42.7274 126.26 40.9001C127.178 40.4212 128.131 40.014 129.111 39.6819C134.099 37.9581 138.424 36.5084 139.466 33.0974C141.427 34.2182 143.181 37.5865 142.938 47.9597Z" fill="#FFA8A7"/>
<path d="M133.101 55.8173C133.74 55.8173 134.258 55.2992 134.258 54.66C134.258 54.0208 133.74 53.5027 133.101 53.5027C132.462 53.5027 131.943 54.0208 131.943 54.66C131.943 55.2992 132.462 55.8173 133.101 55.8173Z" fill="#B16668"/>
<path d="M132.332 46.6257C132.332 46.864 132.261 47.097 132.13 47.2958C131.999 47.4946 131.812 47.6505 131.593 47.7442C131.374 47.838 131.132 47.8654 130.898 47.8231C130.663 47.7808 130.446 47.6707 130.274 47.5064C130.101 47.3421 129.98 47.1307 129.927 46.8986C129.873 46.6664 129.889 46.4236 129.972 46.2002C130.055 45.9768 130.201 45.7827 130.393 45.6418C130.586 45.5009 130.815 45.4194 131.053 45.4075C131.218 45.3993 131.383 45.4247 131.538 45.4822C131.693 45.5397 131.834 45.6281 131.954 45.7421C132.074 45.856 132.169 45.9931 132.234 46.145C132.299 46.297 132.332 46.4605 132.332 46.6257Z" fill="#263238"/>
<path d="M141.56 46.7477C141.572 46.8967 141.555 47.0468 141.509 47.189C141.463 47.3313 141.389 47.463 141.291 47.5763C141.194 47.6897 141.075 47.7826 140.941 47.8495C140.807 47.9163 140.661 47.9559 140.512 47.9659C140.362 47.9798 140.21 47.9616 140.067 47.9123C139.924 47.863 139.793 47.7839 139.683 47.6802C139.573 47.5766 139.486 47.4506 139.429 47.3109C139.371 47.1711 139.344 47.0206 139.349 46.8695C139.333 46.7194 139.348 46.5676 139.393 46.4236C139.438 46.2795 139.512 46.1461 139.611 46.0316C139.709 45.9171 139.83 45.8239 139.965 45.7578C140.101 45.6916 140.249 45.6538 140.399 45.6467C140.55 45.6397 140.701 45.6635 140.842 45.7167C140.983 45.7699 141.112 45.8514 141.221 45.9562C141.33 46.061 141.416 46.1869 141.474 46.3261C141.532 46.4654 141.561 46.615 141.56 46.766V46.7477Z" fill="#263238"/>
<path d="M130.767 49.7567C129.716 49.7567 128.709 49.3398 127.965 48.5974C127.222 47.8551 126.803 46.8481 126.802 45.7975C126.802 43.1052 129.579 43.1052 130.767 43.1052C131.955 43.1052 134.726 43.1052 134.726 45.7975C134.725 46.847 134.307 47.8531 133.565 48.5953C132.823 49.3374 131.817 49.7551 130.767 49.7567ZM130.767 43.7265C128.331 43.7265 127.429 44.3356 127.429 45.7975C127.429 46.686 127.782 47.5381 128.41 48.1664C129.039 48.7946 129.891 49.1476 130.779 49.1476C131.668 49.1476 132.52 48.7946 133.148 48.1664C133.776 47.5381 134.129 46.686 134.129 45.7975C134.105 44.3052 133.167 43.7265 130.767 43.7265Z" fill="#455A64"/>
<path d="M140.824 49.7567C139.773 49.7567 138.765 49.3398 138.022 48.5974C137.278 47.8551 136.86 46.8481 136.858 45.7975C136.858 43.1052 139.636 43.1052 140.824 43.1052C142.011 43.1052 144.783 43.1052 144.783 45.7975C144.781 46.847 144.364 47.8531 143.622 48.5953C142.879 49.3374 141.873 49.7551 140.824 49.7567ZM140.824 43.7265C138.424 43.7265 137.486 44.3356 137.486 45.7975C137.486 46.686 137.839 47.5381 138.467 48.1664C139.095 48.7946 139.947 49.1476 140.836 49.1476C141.724 49.1476 142.576 48.7946 143.205 48.1664C143.833 47.5381 144.186 46.686 144.186 45.7975C144.162 44.3052 143.224 43.7265 140.824 43.7265Z" fill="#455A64"/>
<path d="M135.342 44.5183L135.537 51.919L139.429 50.7129L135.342 44.5183Z" fill="#F28F8F"/>
<path d="M131.577 59.35C128.751 58.9785 122.934 57.3095 122.026 55.0071C122.392 56.1707 123.104 57.195 124.067 57.943C125.803 59.4353 131.577 61.1104 131.577 61.1104V59.35Z" fill="#F28F8F"/>
<path d="M131.718 40.9247L129.135 42.5023C128.931 42.1477 128.872 41.7284 128.97 41.3314C129.067 40.9344 129.314 40.5902 129.659 40.3704C129.829 40.267 130.019 40.1992 130.216 40.1712C130.413 40.1431 130.614 40.1554 130.807 40.2072C130.999 40.259 131.179 40.3493 131.336 40.4726C131.492 40.5959 131.622 40.7497 131.718 40.9247Z" fill="#263238"/>
<path d="M142.225 42.6786L139.35 41.6736C139.405 41.4831 139.499 41.3059 139.626 41.1531C139.753 41.0002 139.909 40.8749 140.086 40.7847C140.263 40.6946 140.456 40.6416 140.654 40.6289C140.852 40.6163 141.051 40.6443 141.238 40.7112C141.623 40.8498 141.941 41.1314 142.125 41.4976C142.308 41.8639 142.344 42.2867 142.225 42.6786Z" fill="#263238"/>
<path d="M134.415 46.1141C134.374 46.1141 134.333 46.1059 134.295 46.0899C134.257 46.0739 134.222 46.0505 134.193 46.021C134.164 45.9915 134.142 45.9565 134.126 45.9181C134.111 45.8797 134.104 45.8387 134.105 45.7974C134.105 45.2918 135.103 44.9629 136.005 44.9629C136.906 44.9629 137.485 45.2918 137.485 45.7974C137.466 45.8636 137.426 45.9218 137.371 45.9632C137.316 46.0047 137.249 46.0271 137.181 46.0271C137.112 46.0271 137.045 46.0047 136.99 45.9632C136.935 45.9218 136.895 45.8636 136.876 45.7974C136.876 45.7365 136.565 45.5842 136.023 45.5842C135.587 45.5749 135.153 45.6493 134.744 45.8035C134.744 45.8458 134.736 45.8878 134.719 45.9267C134.702 45.9656 134.678 46.0007 134.647 46.0298C134.616 46.0589 134.58 46.0814 134.54 46.0959C134.5 46.1104 134.458 46.1166 134.415 46.1141Z" fill="#455A64"/>
<path d="M127.125 45.8461H127.088L120.126 45.237C119.801 44.9146 119.413 44.6617 118.987 44.4939L127.162 45.2492C127.243 45.2599 127.318 45.3021 127.369 45.367C127.42 45.4319 127.444 45.5142 127.436 45.5964C127.421 45.6678 127.382 45.732 127.326 45.7776C127.269 45.8233 127.198 45.8475 127.125 45.8461Z" fill="#455A64"/>
<path d="M98.5391 53.1067C100.817 50.0611 102.37 47.7648 104.447 45.1883C105.629 43.7081 106.384 42.6483 107.493 41.1316C108.273 40.0839 108.711 39.2007 109.601 38.8779C110.561 38.4842 111.427 37.8904 112.14 37.1359C112.579 36.6508 112.986 36.1381 113.359 35.6009C114.664 33.8437 116.215 32.2827 117.964 30.9656C119.791 29.589 121.831 28.5291 123.714 27.2196C124.834 26.4338 126.034 25.1303 124.67 23.9121C124.251 23.5597 123.751 23.3187 123.214 23.2116C119.894 22.4929 117.007 23.6319 113.761 24.4603C112.351 24.8123 110.971 25.2788 109.637 25.8552C108.981 26.1147 108.365 26.4676 107.81 26.9028C107.033 27.686 106.396 28.5966 105.928 29.5951C104.508 32.129 101.463 34.3949 99.3309 36.3988C96.8397 38.7439 94.6103 40.8941 91.7658 43.4767C89.2075 45.8096 86.7041 47.9536 84.359 50.4997C82.416 52.6011 83.1408 54.2457 83.3966 54.8183C84.9803 58.0709 86.7528 59.2404 88.8786 61.2566C92.5333 64.7468 105.172 74.791 109.357 78.1106C110.256 78.8168 110.962 79.7387 111.41 80.7907L112.214 82.6485C116.989 83.5256 120.175 76.3564 116.222 67.7253C115.567 66.3296 114.567 65.1241 113.316 64.2229C108.321 60.5866 98.5391 53.1067 98.5391 53.1067Z" fill="#FFA8A7"/>
<path d="M98.5394 53.1067C97.0194 54.9765 94.9938 56.3699 92.7041 57.1207C92.7041 57.1207 95.7497 57.9004 99.922 54.1544L98.5394 53.1067Z" fill="#F28F8F"/>
<path d="M160.461 97.4803L159.681 96.8102C159.565 96.7335 159.432 96.6852 159.293 96.6693C159.155 96.6535 159.014 96.6704 158.883 96.7189L150.423 99.0213C149.997 99.1634 149.606 99.3959 149.278 99.7029C148.95 100.01 148.692 100.384 148.522 100.8L142.431 118.361C142.358 118.504 142.329 118.665 142.349 118.825C142.368 118.985 142.435 119.135 142.541 119.256L143.345 119.95C143.462 120.031 143.597 120.082 143.738 120.099C143.879 120.116 144.022 120.098 144.155 120.048L152.628 117.745C153.054 117.603 153.444 117.371 153.772 117.064C154.1 116.757 154.358 116.383 154.528 115.967C155.746 112.513 159.401 101.86 160.619 98.4061C160.765 97.9736 160.692 97.6447 160.461 97.4803Z" fill="#455A64"/>
<path d="M143.229 119.037L149.32 101.476C149.49 101.06 149.747 100.687 150.075 100.381C150.404 100.074 150.794 99.8434 151.221 99.7035L159.675 97.401C160.461 97.1878 160.893 97.6386 160.613 98.406C159.395 101.86 155.74 112.513 154.522 115.967C154.352 116.383 154.094 116.757 153.766 117.064C153.438 117.371 153.048 117.603 152.622 117.745L144.167 120.072C143.388 120.255 142.967 119.804 143.229 119.037Z" fill="#ED8D34"/>
<path d="M150.301 100.191C149.861 100.524 149.52 100.97 149.314 101.482L143.223 119.037C143.153 119.176 143.124 119.332 143.139 119.488C143.155 119.643 143.213 119.791 143.308 119.914L142.553 119.268C142.445 119.149 142.376 118.999 142.355 118.839C142.334 118.679 142.363 118.516 142.437 118.373L148.529 100.812C148.721 100.335 149.034 99.9152 149.436 99.594L150.301 100.191Z" fill="#37474F"/>
<path d="M158.14 105.484C157.531 107.269 155.417 108.463 151.921 109.291C148.425 110.119 146.494 113.829 147.048 114.956C147.602 116.083 153.255 117.136 155.515 116.813C157.775 116.491 160.04 113.226 160.729 112.215C161.417 111.204 162.209 104.15 161.484 103.182C160.759 102.213 159.23 102.365 159.23 102.365L158.14 105.484Z" fill="#F28F8F"/>
</svg>
