<svg width="243" height="223" viewBox="0 0 243 223" fill="none" xmlns="http://www.w3.org/2000/svg">
<g clip-path="url(#clip0_1041_5236)">
<path d="M235.31 40.1943H198.995V57.8757H213.76L219.283 63.5354L224.806 57.8757H235.31V40.1943Z" fill="#F5F5F5"/>
<path d="M207.7 48.1435C207.694 47.487 207.45 46.8561 207.016 46.3736C206.581 45.8912 205.987 45.5918 205.349 45.5338C204.71 45.4758 204.074 45.6633 203.563 46.0597C203.053 46.4562 202.704 47.0333 202.586 47.6786C202.482 48.2977 202.593 48.9346 202.902 49.4776C203 49.6494 203.123 49.7707 203.247 49.9526L204.726 51.9739C204.772 52.0285 204.83 52.0723 204.894 52.1023C204.958 52.1324 205.028 52.1479 205.098 52.1479C205.169 52.1479 205.239 52.1324 205.303 52.1023C205.367 52.0723 205.424 52.0285 205.471 51.9739L206.95 49.9779C207.085 49.8171 207.21 49.6484 207.325 49.4726V49.4726C207.563 49.0716 207.692 48.6128 207.7 48.1435ZM205.126 49.2957C204.901 49.2967 204.681 49.2294 204.494 49.1023C204.307 48.9752 204.161 48.794 204.074 48.5817C203.988 48.3694 203.964 48.1356 204.008 47.9098C204.051 47.684 204.158 47.4765 204.317 47.3134C204.475 47.1504 204.677 47.0392 204.898 46.9939C205.118 46.9486 205.346 46.9714 205.554 47.0592C205.761 47.147 205.939 47.296 206.063 47.4872C206.188 47.6784 206.255 47.9033 206.255 48.1334C206.255 48.4408 206.136 48.7357 205.924 48.9535C205.713 49.1713 205.426 49.2944 205.126 49.2957V49.2957Z" fill="#E0E0E0"/>
<path d="M231.691 50.0288C231.691 50.0996 226.853 50.1602 220.881 50.1602C214.909 50.1602 210.071 50.0996 210.071 50.0288C210.071 49.9581 214.909 49.8975 220.881 49.8975C226.853 49.8975 231.691 49.9581 231.691 50.0288Z" fill="#E0E0E0"/>
<path d="M224.806 52.4128C224.806 52.4836 221.507 52.5442 217.439 52.5442C213.37 52.5442 210.071 52.4836 210.071 52.4128C210.071 52.3421 213.37 52.2764 217.439 52.2764C221.507 52.2764 224.806 52.337 224.806 52.4128Z" fill="#E0E0E0"/>
<path d="M211.393 44.5361L211.886 45.5619L212.991 45.7287L212.192 46.5271L212.38 47.654L211.393 47.1184L210.402 47.654L210.594 46.5271L209.791 45.7287L210.895 45.5619L211.393 44.5361Z" fill="#E0E0E0"/>
<path d="M216.068 44.5361L216.561 45.5619L217.665 45.7287L216.866 46.5271L217.054 47.654L216.068 47.1184L215.076 47.654L215.269 46.5271L214.47 45.7287L215.574 45.5619L216.068 44.5361Z" fill="#E0E0E0"/>
<path d="M220.742 44.5361L221.235 45.5619L222.34 45.7287L221.541 46.5271L221.729 47.654L220.742 47.1184L219.751 47.654L219.943 46.5271L219.145 45.7287L220.249 45.5619L220.742 44.5361Z" fill="#E0E0E0"/>
<path d="M225.418 44.5361L225.911 45.5619L227.016 45.7287L226.217 46.5271L226.404 47.654L225.418 47.1184L224.432 47.654L224.619 46.5271L223.82 45.7287L224.925 45.5619L225.418 44.5361Z" fill="#EBEBEB"/>
<path d="M230.093 44.5361L230.586 45.5619L231.691 45.7287L230.892 46.5271L231.079 47.654L230.093 47.1184L229.107 47.654L229.294 46.5271L228.495 45.7287L229.6 45.5619L230.093 44.5361Z" fill="#EBEBEB"/>
<path d="M76.6759 2.94141H20.2109V30.4363H43.1668L51.7573 39.234L60.343 30.4363H76.6759V2.94141Z" fill="#F5F5F5"/>
<path d="M33.743 15.3072C33.7442 14.6761 33.6032 14.0533 33.3312 13.4871C33.0592 12.9209 32.6634 12.4267 32.1746 12.0428C31.6858 11.6589 31.1171 11.3957 30.5129 11.2737C29.9087 11.1517 29.2851 11.1741 28.6907 11.3393C28.0963 11.5045 27.5471 11.8079 27.0858 12.226C26.6245 12.6441 26.2635 13.1656 26.0309 13.7499C25.7983 14.3342 25.7004 14.9657 25.7448 15.5951C25.7891 16.2245 25.9746 16.835 26.2867 17.379C26.4396 17.6469 26.6319 17.8338 26.8291 18.1118L29.1519 21.27C29.2189 21.3621 29.3059 21.4368 29.4061 21.4882C29.5063 21.5397 29.6168 21.5665 29.7288 21.5665C29.8409 21.5665 29.9514 21.5397 30.0516 21.4882C30.1517 21.4368 30.2388 21.3621 30.3058 21.27L32.6039 18.1926C32.8108 17.9384 33.005 17.6736 33.1858 17.3992V17.3992C33.554 16.7669 33.7467 16.0435 33.743 15.3072ZM29.7387 17.091C29.3905 17.091 29.0501 16.9852 28.7606 16.787C28.4711 16.5887 28.2454 16.307 28.1122 15.9773C27.9789 15.6477 27.9441 15.285 28.012 14.935C28.0799 14.5851 28.2476 14.2636 28.4938 14.0113C28.74 13.759 29.0537 13.5872 29.3952 13.5176C29.7367 13.448 30.0907 13.4837 30.4124 13.6203C30.7341 13.7568 31.0091 13.988 31.2025 14.2847C31.396 14.5814 31.4992 14.9302 31.4992 15.287C31.4992 15.7654 31.3137 16.2243 30.9836 16.5626C30.6534 16.9009 30.2056 17.091 29.7387 17.091V17.091Z" fill="#E0E0E0"/>
<path d="M71.0488 18.2378C71.0488 18.3086 63.5234 18.3692 54.2424 18.3692C44.9615 18.3692 37.4312 18.3086 37.4312 18.2378C37.4312 18.1671 44.9565 18.1064 54.2424 18.1064C63.5283 18.1064 71.0488 18.1923 71.0488 18.2378Z" fill="#E0E0E0"/>
<path d="M60.3475 21.937C60.3475 22.0128 55.2188 22.0684 48.8918 22.0684C42.5648 22.0684 37.4312 22.0128 37.4312 21.937C37.4312 21.8613 42.5598 21.8057 48.8918 21.8057C55.2238 21.8057 60.3475 21.8663 60.3475 21.937Z" fill="#E0E0E0"/>
<path d="M39.4874 9.69336L40.2518 11.2902L41.9679 11.5429L40.7252 12.786L41.0211 14.5394L39.4874 13.7107L37.9488 14.5394L38.2447 12.786L37.002 11.5429L38.7181 11.2902L39.4874 9.69336Z" fill="#E0E0E0"/>
<path d="M46.7564 9.69336L47.5208 11.2902L49.2419 11.5429L47.9992 12.786L48.2901 14.5394L46.7564 13.7107L45.2178 14.5394L45.5137 12.786L44.271 11.5429L45.9871 11.2902L46.7564 9.69336Z" fill="#E0E0E0"/>
<path d="M54.026 9.69336L54.7953 11.2902L56.5114 11.5429L55.2687 12.786L55.5596 14.5394L54.026 13.7107L52.4923 14.5394L52.7833 12.786L51.5405 11.5429L53.2567 11.2902L54.026 9.69336Z" fill="#E0E0E0"/>
<path d="M61.2945 9.69336L62.0638 11.2902L63.78 11.5429L62.5373 12.786L62.8331 14.5394L61.2945 13.7107L59.7609 14.5394L60.0518 12.786L58.8091 11.5429L60.5302 11.2902L61.2945 9.69336Z" fill="#EBEBEB"/>
<path d="M68.5685 9.69336L69.3328 11.2902L71.049 11.5429L69.8112 12.786L70.1021 14.5394L68.5685 13.7107L67.0298 14.5394L67.3257 12.786L66.083 11.5429L67.7992 11.2902L68.5685 9.69336Z" fill="#EBEBEB"/>
<path d="M206.758 70.2061C207.054 67.9927 204.011 66.1634 201.728 65.9866C200.638 65.9007 199.504 66.0674 198.468 65.6985C196.234 64.9001 195.337 61.9389 193.152 60.9939C191.52 60.2865 189.641 60.9181 188.058 61.7317C186.475 62.5453 184.911 63.5762 183.126 63.6924C181.588 63.7935 179.921 63.1871 178.575 63.9804C177.588 64.5514 177.046 65.739 176.109 66.4363C175.172 67.1337 174.028 67.2651 172.903 67.3257C171.779 67.3863 170.62 67.4015 169.599 67.8816C168.579 68.3616 167.73 69.4683 167.942 70.5952L206.758 70.2061Z" fill="#F5F5F5"/>
<path d="M51.8316 92.0672C52.1325 89.8589 49.0898 88.0246 46.8016 87.8528C45.7117 87.7618 44.5775 87.9336 43.5468 87.5648C41.308 86.7663 40.4104 83.8001 38.2307 82.8602C36.5935 82.1527 34.7146 82.7793 33.1316 83.5979C31.5486 84.4166 29.9854 85.4424 28.2002 85.5586C26.6665 85.6597 24.9948 85.0533 23.6485 85.8416C22.6622 86.4177 22.1197 87.6001 21.1828 88.2975C20.2458 88.9948 19.0968 89.1262 17.9724 89.1919C16.848 89.2576 15.6891 89.2626 14.6683 89.7427C13.6475 90.2228 12.8043 91.3294 13.0163 92.4614L51.8316 92.0672Z" fill="#F5F5F5"/>
<path d="M36.2233 68.7859C36.4402 67.1638 34.2014 65.8247 32.5247 65.6883C31.7209 65.6226 30.8875 65.7489 30.128 65.476C28.4858 64.8899 27.83 62.7119 26.2223 62.0145C25.024 61.5092 23.6432 61.959 22.4794 62.5603C21.3155 63.1616 20.1665 63.9146 18.8646 64.0005C17.7353 64.0763 16.5074 63.6467 15.5162 64.2127C14.7814 64.6321 14.3967 65.5013 13.7162 66.0167C13.008 66.4618 12.1895 66.6881 11.359 66.6686C10.5323 66.6477 9.70919 66.7866 8.93269 67.0779C8.17818 67.4316 7.55682 68.2452 7.71463 69.074L36.2233 68.7859Z" fill="#EBEBEB"/>
<path d="M220.462 9.74882C220.684 8.12672 218.445 6.7876 216.763 6.65116C215.964 6.58547 215.131 6.7118 214.372 6.43892C212.729 5.85274 212.069 3.67478 210.466 2.97743C209.263 2.4721 207.882 2.92185 206.718 3.52319C205.554 4.12452 204.405 4.87746 203.108 4.96337C201.979 5.03917 200.751 4.60964 199.76 5.17561C199.025 5.59503 198.635 6.46419 197.96 6.97962C197.254 7.42278 196.44 7.64904 195.612 7.6315C194.784 7.61103 193.96 7.74987 193.181 8.04081C192.432 8.39454 191.81 9.20812 191.968 10.0621L220.462 9.74882Z" fill="#EBEBEB"/>
<path d="M216.463 89.6055H175.423V222.886H216.463V89.6055Z" fill="#F5F5F5"/>
<path d="M216.467 89.6055H195.947V222.522H216.467V89.6055Z" fill="#EBEBEB"/>
<path d="M194.607 76.5225H180.113V89.6054H194.607V76.5225Z" fill="#F5F5F5"/>
<path d="M194.601 76.5225H191.149V89.6054H194.601V76.5225Z" fill="#EBEBEB"/>
<path d="M172.006 89.6058V88.8428H217.666V89.6058" fill="#E0E0E0"/>
<path d="M186.997 95.3105H183.525V102.815H186.997V95.3105Z" fill="#FAFAFA"/>
<path d="M195.948 105.766C195.948 105.841 191.352 105.907 185.686 105.907C180.019 105.907 175.423 105.841 175.423 105.766C175.423 105.69 180.019 105.619 185.686 105.619C191.352 105.619 195.948 105.685 195.948 105.766Z" fill="#E0E0E0"/>
<path d="M207.693 95.3105H204.222V102.815H207.693V95.3105Z" fill="#E0E0E0"/>
<path d="M216.644 105.766C216.644 105.841 212.048 105.907 206.382 105.907C200.716 105.907 196.125 105.841 196.125 105.766C196.125 105.69 200.716 105.619 206.382 105.619C212.048 105.619 216.644 105.685 216.644 105.766Z" fill="#E0E0E0"/>
<path d="M207.693 110.213H204.222V117.717H207.693V110.213Z" fill="#E0E0E0"/>
<path d="M216.644 120.668C216.644 120.744 212.048 120.81 206.382 120.81C200.716 120.81 196.125 120.744 196.125 120.668C196.125 120.592 200.716 120.521 206.382 120.521C212.048 120.521 216.644 120.587 216.644 120.668Z" fill="#E0E0E0"/>
<path d="M207.693 125.564H204.222V133.069H207.693V125.564Z" fill="#E0E0E0"/>
<path d="M216.644 136.02C216.644 136.095 212.048 136.161 206.382 136.161C200.716 136.161 196.125 136.095 196.125 136.02C196.125 135.944 200.716 135.873 206.382 135.873C212.048 135.873 216.644 135.934 216.644 136.02Z" fill="#E0E0E0"/>
<path d="M207.693 140.922H204.222V148.426H207.693V140.922Z" fill="#E0E0E0"/>
<path d="M216.644 151.372C216.644 151.453 212.048 151.513 206.382 151.513C200.716 151.513 196.125 151.453 196.125 151.372C196.125 151.291 200.716 151.23 206.382 151.23C212.048 151.23 216.644 151.291 216.644 151.372Z" fill="#E0E0E0"/>
<path d="M207.693 155.834H204.222V163.338H207.693V155.834Z" fill="#E0E0E0"/>
<path d="M216.644 166.284C216.644 166.365 212.048 166.426 206.382 166.426C200.716 166.426 196.125 166.365 196.125 166.284C196.125 166.203 200.716 166.143 206.382 166.143C212.048 166.143 216.644 166.203 216.644 166.284Z" fill="#E0E0E0"/>
<path d="M207.693 170.807H204.222V178.311H207.693V170.807Z" fill="#E0E0E0"/>
<path d="M207.693 185.977H204.222V193.481H207.693V185.977Z" fill="#E0E0E0"/>
<path d="M216.644 181.257C216.644 181.338 212.048 181.403 206.382 181.403C200.716 181.403 196.125 181.338 196.125 181.257C196.125 181.176 200.716 181.115 206.382 181.115C212.048 181.115 216.644 181.176 216.644 181.257Z" fill="#E0E0E0"/>
<path d="M186.997 110.44H183.525V117.945H186.997V110.44Z" fill="#FAFAFA"/>
<path d="M195.948 120.896C195.948 120.971 191.352 121.037 185.686 121.037C180.019 121.037 175.423 120.971 175.423 120.896C175.423 120.82 180.019 120.749 185.686 120.749C191.352 120.749 195.948 120.815 195.948 120.896Z" fill="#E0E0E0"/>
<path d="M186.997 125.569H183.525V133.073H186.997V125.569Z" fill="#FAFAFA"/>
<path d="M195.948 136.024C195.948 136.105 191.352 136.166 185.686 136.166C180.019 136.166 175.423 136.105 175.423 136.024C175.423 135.944 180.019 135.878 185.686 135.878C191.352 135.878 195.948 135.934 195.948 136.024Z" fill="#E0E0E0"/>
<path d="M186.997 140.704H183.525V148.208H186.997V140.704Z" fill="#FAFAFA"/>
<path d="M195.948 151.154C195.948 151.235 191.352 151.296 185.686 151.296C180.019 151.296 175.423 151.235 175.423 151.154C175.423 151.073 180.019 151.013 185.686 151.013C191.352 151.013 195.948 151.094 195.948 151.154Z" fill="#E0E0E0"/>
<path d="M186.997 155.834H183.525V163.338H186.997V155.834Z" fill="#FAFAFA"/>
<path d="M195.948 166.284C195.948 166.365 191.352 166.426 185.686 166.426C180.019 166.426 175.423 166.365 175.423 166.284C175.423 166.203 180.019 166.143 185.686 166.143C191.352 166.143 195.948 166.203 195.948 166.284Z" fill="#E0E0E0"/>
<path d="M186.997 170.963H183.525V178.467H186.997V170.963Z" fill="#FAFAFA"/>
<path d="M195.948 181.414C195.948 181.495 191.352 181.561 185.686 181.561C180.019 181.561 175.423 181.495 175.423 181.414C175.423 181.333 180.019 181.272 185.686 181.272C191.352 181.272 195.948 181.333 195.948 181.414Z" fill="#E0E0E0"/>
<path d="M186.997 186.093H183.525V193.597H186.997V186.093Z" fill="#FAFAFA"/>
<path d="M88.2592 222.997H27.8688L27.6025 125.196H87.9978L88.2592 222.997Z" fill="#EBEBEB"/>
<path d="M87.9979 125.19H57.8027V222.997H87.9979V125.19Z" fill="#E0E0E0"/>
<path d="M55.8304 105.938H34.502V125.19H55.8304V105.938Z" fill="#EBEBEB"/>
<path d="M55.8304 105.938H50.7461V125.19H55.8304V105.938Z" fill="#E0E0E0"/>
<path d="M89.7636 124.069H22.5728V125.191H89.7636V124.069Z" fill="#E0E0E0"/>
<path d="M44.6412 133.589H39.5273V144.635H44.6412V133.589Z" fill="white"/>
<path d="M57.8026 148.972C57.8026 149.088 51.0416 149.184 42.7026 149.184C34.3635 149.184 27.6074 149.088 27.6074 148.972C27.6074 148.856 34.3635 148.76 42.7026 148.76C51.0416 148.76 57.8026 148.856 57.8026 148.972Z" fill="#E0E0E0"/>
<path d="M75.0973 133.589H69.9834V144.635H75.0973V133.589Z" fill="#F5F5F5"/>
<path d="M88.2596 148.972C88.2596 149.088 81.4986 149.184 73.1645 149.184C64.8304 149.184 58.0645 149.088 58.0645 148.972C58.0645 148.856 64.8255 148.76 73.1645 148.76C81.5036 148.76 88.2596 148.856 88.2596 148.972Z" fill="#EBEBEB"/>
<path d="M75.0973 155.521H69.9834V166.567H75.0973V155.521Z" fill="#F5F5F5"/>
<path d="M88.2596 170.903C88.2596 171.019 81.4986 171.11 73.1645 171.11C64.8304 171.11 58.0645 171.019 58.0645 170.903C58.0645 170.786 64.8255 170.69 73.1645 170.69C81.5036 170.69 88.2596 170.802 88.2596 170.903Z" fill="#EBEBEB"/>
<path d="M75.0973 178.114H69.9834V189.161H75.0973V178.114Z" fill="#F5F5F5"/>
<path d="M88.2596 193.491C88.2596 193.607 81.4986 193.703 73.1645 193.703C64.8304 193.703 58.0645 193.607 58.0645 193.491C58.0645 193.374 64.8255 193.278 73.1645 193.278C81.5036 193.278 88.2596 193.374 88.2596 193.491Z" fill="#EBEBEB"/>
<path d="M75.0973 200.702H69.9834V211.749H75.0973V200.702Z" fill="#F5F5F5"/>
<path d="M88.2596 216.084C88.2596 216.201 81.4986 216.291 73.1645 216.291C64.8304 216.291 58.0645 216.201 58.0645 216.084C58.0645 215.968 64.8255 215.872 73.1645 215.872C81.5036 215.872 88.2596 215.968 88.2596 216.084Z" fill="#EBEBEB"/>
<path d="M44.6412 155.854H39.5273V166.9H44.6412V155.854Z" fill="white"/>
<path d="M57.8026 171.236C57.8026 171.352 51.0416 171.448 42.7026 171.448C34.3635 171.448 27.6074 171.352 27.6074 171.236C27.6074 171.119 34.3635 171.023 42.7026 171.023C51.0416 171.023 57.8026 171.119 57.8026 171.236Z" fill="#E0E0E0"/>
<path d="M44.6412 178.119H39.5273V189.166H44.6412V178.119Z" fill="white"/>
<path d="M57.8026 193.501C57.8026 193.618 51.0416 193.708 42.7026 193.708C34.3635 193.708 27.6074 193.618 27.6074 193.501C27.6074 193.385 34.3635 193.289 42.7026 193.289C51.0416 193.289 57.8026 193.385 57.8026 193.501Z" fill="#E0E0E0"/>
<path d="M44.6412 200.384H39.5273V211.43H44.6412V200.384Z" fill="white"/>
<path d="M57.8026 215.776C57.8026 215.892 51.0416 215.983 42.7026 215.983C34.3635 215.983 27.6074 215.892 27.6074 215.776C27.6074 215.659 34.3635 215.563 42.7026 215.563C51.0416 215.563 57.8026 215.649 57.8026 215.776Z" fill="#E0E0E0"/>
<path d="M201.683 212.533C202.058 211.017 201.106 209.536 200.031 208.455C198.956 207.373 197.679 206.398 197.122 204.968C196.219 202.643 197.432 199.637 195.894 197.701C194.986 196.559 193.359 196.185 192.555 194.962C192.186 194.289 191.941 193.553 191.83 192.789C190.976 188.93 189.124 185.376 186.47 182.501C186.29 185.939 187.016 189.363 188.571 192.415C189.197 193.633 189.961 194.821 190.168 196.18C190.504 198.388 189.305 200.657 189.833 202.825C190.44 205.306 193.157 206.964 193.285 209.516C193.393 211.674 191.559 213.558 191.692 215.721C191.808 216.648 192.137 217.533 192.654 218.303C194.281 221.078 196.673 222.988 200.297 222.922L204.736 223.084L201.683 212.533Z" fill="#8937C7"/>
<g opacity="0.3">
<path opacity="0.3" d="M201.683 212.532C202.058 211.016 201.106 209.535 200.031 208.454C198.956 207.372 197.679 206.397 197.122 204.967C196.219 202.642 197.432 199.636 195.894 197.7C194.986 196.558 193.359 196.184 192.555 194.961C192.186 194.288 191.941 193.552 191.83 192.788C190.976 188.929 189.124 185.375 186.47 182.5C186.29 185.938 187.016 189.362 188.571 192.415C189.197 193.632 189.961 194.82 190.168 196.179C190.504 198.387 189.305 200.656 189.833 202.824C190.44 205.305 193.157 206.963 193.285 209.515C193.393 211.673 191.559 213.557 191.692 215.72C191.808 216.647 192.137 217.532 192.654 218.302C194.281 221.077 196.673 222.987 200.297 222.921L204.736 223.083L201.683 212.532Z" fill="black"/>
</g>
<path d="M205.525 223.083C205.931 223.147 206.345 223.136 206.748 223.053C207.238 222.978 207.721 222.855 208.188 222.684C208.831 222.45 209.433 222.109 209.968 221.673C210.291 221.404 210.543 221.057 210.703 220.663C210.833 220.225 210.9 219.771 210.9 219.313C210.908 218.822 210.943 218.331 211.004 217.843C211.091 217.324 211.276 216.826 211.546 216.378C212.069 215.438 212.942 214.543 213.223 213.265C213.504 211.986 213.307 210.647 213.099 209.278C212.892 207.908 212.695 206.428 213.203 205.008C213.711 203.588 214.653 202.299 215.141 200.697C215.629 199.095 215.397 197.332 215.501 195.614C215.529 194.741 215.725 193.882 216.078 193.087C216.438 192.278 216.936 191.52 217.326 190.672C218.115 188.958 218.253 187.018 218.47 185.113C218.573 184.153 218.677 183.188 218.785 182.207C218.853 181.222 219.018 180.247 219.278 179.297C219.58 178.338 219.936 177.398 220.344 176.482C220.547 176.006 220.712 175.515 220.837 175.011C220.913 174.494 220.961 173.973 220.98 173.45C221.029 172.399 220.989 171.346 220.861 170.302C220.743 169.251 220.556 168.21 220.447 167.159C220.447 167.098 220.447 167.032 220.447 166.977L220.423 166.77L220.24 166.861C219.301 167.353 218.484 168.06 217.853 168.927C217.233 169.774 216.735 170.709 216.374 171.702C215.634 173.652 215.388 175.704 214.993 177.654C214.713 179.586 214.095 181.45 213.168 183.157C212.675 183.966 212.093 184.709 211.576 185.497C211.027 186.267 210.651 187.153 210.476 188.089C210.215 190.015 211.25 191.702 211.033 193.405C210.931 194.242 210.655 195.047 210.224 195.765C209.82 196.493 209.347 197.17 208.898 197.847C208.439 198.508 208.04 199.21 207.704 199.944C207.392 200.664 207.208 201.436 207.162 202.223C207.053 203.739 207.266 205.215 207.162 206.584C207.039 207.893 206.665 209.163 206.062 210.324C205.53 211.446 204.928 212.456 204.43 213.437C204.182 213.908 203.958 214.392 203.759 214.887C203.578 215.351 203.448 215.834 203.37 216.327C203.236 217.185 203.224 218.058 203.335 218.919C203.45 220.122 203.889 221.268 204.603 222.229C204.712 222.372 204.832 222.506 204.963 222.628C205.051 222.724 205.149 222.81 205.253 222.886L205.51 223.068C205.194 222.808 204.904 222.515 204.647 222.194C203.962 221.23 203.546 220.092 203.444 218.904C203.344 218.053 203.364 217.192 203.503 216.347C203.586 215.867 203.716 215.396 203.892 214.942C204.085 214.472 204.317 213.997 204.573 213.512C205.066 212.542 205.678 211.531 206.225 210.405C206.845 209.227 207.23 207.936 207.359 206.604C207.478 205.2 207.27 203.739 207.359 202.244C207.406 201.482 207.589 200.735 207.897 200.04C208.225 199.319 208.618 198.631 209.07 197.984C209.519 197.306 210.002 196.634 210.417 195.892C210.865 195.144 211.153 194.307 211.26 193.436C211.477 191.616 210.451 189.898 210.718 188.13C210.889 187.232 211.253 186.385 211.783 185.649C212.276 184.875 212.877 184.133 213.38 183.304C214.327 181.57 214.958 179.675 215.245 177.71C215.624 175.744 215.891 173.718 216.62 171.803C216.969 170.838 217.45 169.929 218.051 169.104C218.653 168.271 219.436 167.593 220.339 167.123L220.132 167.007C220.132 167.063 220.132 167.128 220.132 167.189C220.245 168.255 220.432 169.296 220.551 170.337C220.674 171.365 220.713 172.401 220.669 173.435C220.649 173.942 220.603 174.448 220.531 174.951C220.406 175.437 220.241 175.912 220.038 176.371C219.626 177.296 219.268 178.246 218.968 179.216C218.701 180.18 218.536 181.171 218.475 182.172C218.366 183.152 218.261 184.122 218.159 185.083C217.947 186.993 217.809 188.903 217.049 190.56C216.675 191.384 216.177 192.142 215.807 192.976C215.445 193.801 215.243 194.69 215.21 195.593C215.116 197.347 215.338 199.065 214.875 200.647C214.411 202.228 213.445 203.482 212.956 204.952C212.468 206.423 212.651 207.984 212.863 209.328C213.075 210.672 213.292 212.032 213.006 213.244C212.72 214.457 211.906 215.347 211.368 216.317C211.093 216.782 210.907 217.296 210.821 217.833C210.762 218.327 210.73 218.825 210.727 219.324C210.727 219.77 210.662 220.215 210.535 220.642C210.387 221.015 210.151 221.345 209.85 221.603C209.327 222.035 208.739 222.376 208.109 222.613C207.649 222.792 207.173 222.925 206.689 223.012C206.39 223.065 206.089 223.094 205.786 223.098L205.525 223.083Z" fill="#263238"/>
<path d="M219.55 169.499C219.55 169.499 219.55 169.544 219.506 169.635L219.407 170.045C219.323 170.404 219.215 170.944 219.047 171.621C218.879 172.299 218.47 173.057 218.13 173.996C217.723 175.051 217.371 176.128 217.075 177.22C216.734 178.433 216.433 179.782 216.123 181.223C215.853 182.764 215.373 184.259 214.698 185.664C214.338 186.407 213.928 187.155 213.603 187.969C213.283 188.809 213.068 189.686 212.962 190.581C212.737 192.426 212.418 194.258 212.005 196.069C211.117 199.798 210.269 203.346 209.495 206.58C208.721 209.814 208.016 212.704 207.394 215.17C206.773 217.636 206.334 219.567 205.999 220.956C205.841 221.624 205.722 222.149 205.634 222.533C205.601 222.702 205.571 222.838 205.545 222.942C205.537 222.991 205.537 223.04 205.545 223.089C205.566 223.045 205.582 223 205.594 222.953C205.624 222.841 205.663 222.71 205.708 222.548C205.811 222.169 205.949 221.644 206.127 220.982L207.606 215.221L209.751 206.681L212.281 196.17C212.699 194.347 213.018 192.501 213.238 190.642C213.34 189.777 213.547 188.928 213.854 188.115C214.165 187.317 214.569 186.574 214.934 185.826C215.61 184.399 216.086 182.882 216.35 181.319C216.655 179.868 216.941 178.529 217.267 177.316C217.592 176.104 217.933 175.027 218.253 174.092C218.574 173.158 218.968 172.384 219.131 171.687C219.294 170.99 219.373 170.464 219.442 170.095C219.466 169.929 219.491 169.792 219.511 169.681C219.535 169.623 219.548 169.562 219.55 169.499Z" fill="#263238"/>
<path d="M203.933 222.79C207.054 221.476 208.618 216.428 207.878 213.058C207.138 209.687 205.461 206.453 205.624 203.002C205.752 200.349 206.975 197.787 206.744 195.139C206.438 191.571 203.533 188.403 204.081 184.86C204.386 182.875 205.757 181.166 205.955 179.165C206.196 176.71 204.648 174.501 203.824 172.182C202.562 168.644 203.006 164.728 202.941 160.948C202.877 157.169 202.074 153.02 199.144 150.726C198.222 153.788 197.112 155.809 196.757 160.089C196.629 161.605 197.936 164.799 197.694 168.175C197.551 170.196 197.359 172.217 197.201 174.238C197.043 176.26 196.881 178.195 197.3 180.115C197.62 181.586 198.286 182.976 198.459 184.471C198.799 187.286 197.423 190.075 197.615 192.905C197.783 195.3 199.065 197.534 199.046 199.939C199.021 203.315 196.442 206.438 197.073 209.758C197.379 211.4 198.454 212.851 198.582 214.518C198.676 215.817 198.188 217.1 198.257 218.399C198.37 220.486 201.921 222.634 203.957 222.811" fill="#8937C7"/>
<path d="M199.489 153.955C199.482 154.014 199.482 154.073 199.489 154.132C199.489 154.263 199.489 154.44 199.489 154.637C199.489 155.097 199.489 155.774 199.489 156.659C199.489 157.543 199.824 158.584 199.982 159.807C200.14 161.03 200.352 162.434 200.475 163.991C200.598 165.547 200.623 167.26 200.652 169.1C200.682 170.939 200.717 172.94 201.318 174.941C201.585 175.952 201.9 176.963 202.097 178.004C202.281 179.083 202.331 180.181 202.245 181.273C202.077 183.593 202.031 185.921 202.107 188.247C202.319 193.017 202.526 197.56 202.709 201.698C202.891 205.837 203.148 209.541 203.32 212.669L203.754 220.067C203.814 220.926 203.858 221.583 203.887 222.088C203.887 222.306 203.917 222.477 203.932 222.594C203.927 222.653 203.927 222.712 203.932 222.771C203.939 222.712 203.939 222.652 203.932 222.594C203.932 222.457 203.932 222.285 203.932 222.088C203.932 221.608 203.887 220.936 203.853 220.067C203.769 218.298 203.651 215.777 203.508 212.664C203.365 209.551 203.163 205.817 202.96 201.688C202.758 197.56 202.586 193.012 202.378 188.242C202.301 185.925 202.345 183.605 202.512 181.293C202.594 180.179 202.539 179.058 202.349 177.958C202.147 176.882 201.826 175.871 201.555 174.876C200.953 172.905 200.929 170.934 200.874 169.1C200.82 167.265 200.786 165.562 200.662 163.981C200.539 162.399 200.357 161.009 200.145 159.787C199.932 158.564 199.651 157.523 199.587 156.654C199.523 155.784 199.548 155.102 199.528 154.632C199.528 154.415 199.528 154.238 199.528 154.127C199.521 154.068 199.508 154.011 199.489 153.955V153.955Z" fill="#263238"/>
<path d="M172.981 222.79L101.372 222.749C97.2359 222.747 93.2703 221.061 90.3471 218.063C87.4238 215.064 85.7824 210.999 85.7837 206.761L85.8182 22.8217C85.8163 20.7213 86.2185 18.6411 87.0019 16.7001C87.7852 14.7591 88.9344 12.9954 90.3836 11.5099C91.8328 10.0244 93.5536 8.84631 95.4476 8.04296C97.3415 7.23962 99.3715 6.8268 101.421 6.82813L173.031 6.86856C177.167 6.87123 181.132 8.55708 184.056 11.5554C186.979 14.5537 188.62 18.6189 188.619 22.8571L188.584 206.796C188.585 208.896 188.182 210.976 187.398 212.916C186.614 214.857 185.465 216.62 184.016 218.105C182.567 219.59 180.847 220.768 178.954 221.572C177.06 222.376 175.031 222.79 172.981 222.79V222.79Z" fill="#455A64"/>
<path d="M173.48 12.3359L159.549 12.2702C159.095 12.2787 158.647 12.3789 158.231 12.5649C157.815 12.7509 157.439 13.0192 157.124 13.3543C156.81 13.6894 156.563 14.0848 156.397 14.5179C156.232 14.951 156.152 15.4133 156.161 15.8782V18.4706C156.17 18.9364 156.089 19.3994 155.923 19.8332C155.757 20.2669 155.509 20.6628 155.193 20.998C154.878 21.3333 154.5 21.6013 154.083 21.7867C153.666 21.9722 153.218 22.0714 152.763 22.0786L125.586 21.9472C125.131 21.9361 124.683 21.833 124.267 21.6439C123.852 21.4548 123.477 21.1834 123.164 20.8454C122.851 20.5073 122.606 20.1091 122.444 19.6738C122.281 19.2385 122.204 18.7747 122.218 18.3088V15.7165C122.231 15.2507 122.154 14.7868 121.992 14.3515C121.829 13.9162 121.584 13.5181 121.271 13.18C120.958 12.8419 120.583 12.5705 120.168 12.3814C119.752 12.1924 119.304 12.0893 118.849 12.0782H113.953L101.757 12.0226C100.317 12.0159 98.8898 12.3001 97.5569 12.8588C96.2241 13.4175 95.0117 14.2398 93.9891 15.2788C92.9665 16.3178 92.1537 17.553 91.5971 18.914C91.0404 20.2749 90.751 21.7349 90.7452 23.2105L90.0005 203.39C89.9953 206.367 91.1432 209.224 93.1922 211.334C95.2412 213.444 98.0237 214.634 100.929 214.644L172.642 214.982C174.081 214.99 175.508 214.706 176.841 214.148C178.174 213.59 179.386 212.768 180.409 211.729C181.432 210.691 182.245 209.456 182.801 208.095C183.358 206.734 183.648 205.275 183.653 203.799L184.398 23.6148C184.404 22.1396 184.126 20.6777 183.581 19.3125C183.035 17.9473 182.232 16.7055 181.219 15.6582C180.205 14.6109 179 13.7784 177.672 13.2084C176.344 12.6383 174.92 12.3418 173.48 12.3359Z" fill="#F5F5F5"/>
<path d="M143.048 180.933C142.964 183.111 142.885 185.153 142.821 186.846H153.123L151.86 180.362L143.048 180.933Z" fill="#F5F5F5"/>
<path d="M101.179 183.648L101.267 186.846H141.789C141.858 185.053 141.937 183.057 142.011 181.005L101.179 183.648Z" fill="#F5F5F5"/>
<path d="M152.377 180.332L153.645 186.846H172.636L172.409 179.033L152.377 180.332Z" fill="#F5F5F5"/>
<path d="M144.073 89.2222L147.664 67.8873L138.259 67.1748V89.2222H144.073Z" fill="#EBEBEB"/>
<path d="M100.332 171.808L90.1238 175.906L90.0942 183.314L100.638 182.627L100.332 171.808Z" fill="#F5F5F5"/>
<path d="M100.287 170.14L99.7294 150.271H99.7195V143.262L90.2561 144.288L90.1328 174.203L100.282 170.13L100.287 170.14Z" fill="#EBEBEB"/>
<path d="M99.7207 127.617L90.3312 126.349L90.2622 142.701L99.7207 141.675V127.617Z" fill="#F5F5F5"/>
<path d="M169.712 143.555L169.317 149.25L158.227 150.478L159.085 154.98L171.675 154.01L171.487 147.547L172.493 143.267L169.712 143.555Z" fill="#F5F5F5"/>
<path d="M149.724 155.708L158.566 155.021L156.643 144.909L148.92 145.708L149.724 155.708Z" fill="#F5F5F5"/>
<path d="M149.809 156.753L150.484 165.187L151.683 176.754L152.176 179.286L172.38 177.977L171.704 155.065L149.809 156.753Z" fill="#EBEBEB"/>
<path d="M115.038 116.939L115.817 118.303L100.233 127.617V149.704L116.68 148.512L148.369 145.232L147.21 130.755L116.931 126.712L117.133 125.146L147.082 129.153L145.109 104.65L115.471 107.57L115.373 106.524L145.031 103.593L144.01 90.8086H115.496L90.4592 95.4778L90.3359 124.756L99.8191 126.04L115.038 116.939ZM101.831 147.597C101.831 147.597 101.949 129.38 101.831 128.703L114.544 121.785L116.216 146.667L101.831 147.597Z" fill="#F5F5F5"/>
<path d="M168.676 143.666L157.156 144.854L158.029 149.442L168.356 148.3L168.676 143.666Z" fill="#F5F5F5"/>
<path d="M143.191 177.032C143.156 177.987 143.122 178.942 143.087 179.877L151.658 179.321L151.219 177.058L143.191 177.032Z" fill="#F5F5F5"/>
<path d="M124.727 89.2219L126.236 82.2079H137.746V67.134L101.756 64.4053V78.5544L90.5127 81.1619L90.4634 93.8659L115.357 89.2219H124.727Z" fill="#EBEBEB"/>
<path d="M148.763 47.2895L148.458 45.9959L162.202 40.4373L153.236 22.0383C153.073 22.062 152.908 22.0755 152.743 22.0787L137.554 22.0029L137.968 47.7393L148.763 47.2895Z" fill="#F5F5F5"/>
<path d="M169.569 37.4257V12.316L159.568 12.2705C159.112 12.2764 158.662 12.3746 158.244 12.5595C157.826 12.7443 157.448 13.0122 157.131 13.3475C156.814 13.6829 156.565 14.0792 156.399 14.5136C156.232 14.948 156.151 15.4119 156.16 15.8785V18.4709C156.16 19.0507 156.026 19.6223 155.769 20.1388C155.512 20.6553 155.139 21.102 154.681 21.4422L163.626 39.8412L169.569 37.4257Z" fill="#EBEBEB"/>
<path d="M117.902 38.5018L116.743 12.0681H113.962L103.113 12.0176L98.4624 35.6416L117.902 38.5018ZM115.436 14.7514L115.806 36.2783L101.357 34.1155L104.523 14.7514H115.436Z" fill="#F5F5F5"/>
<path d="M118.43 38.5835V38.8059C118.43 40.8676 118.499 44.5818 118.529 48.5536L137.456 47.7603L137.041 21.9886L125.586 21.9481C125.131 21.937 124.683 21.834 124.267 21.6449C123.852 21.4558 123.477 21.1844 123.164 20.8463C122.851 20.5082 122.606 20.1101 122.443 19.6748C122.281 19.2395 122.204 18.7756 122.217 18.3098V15.7175C122.231 15.2516 122.154 14.7878 121.991 14.3525C121.829 13.9172 121.584 13.519 121.271 13.181C120.958 12.8429 120.583 12.5715 120.168 12.3824C119.752 12.1933 119.304 12.0902 118.849 12.0791H117.251L118.41 38.5886L118.43 38.5835Z" fill="#F5F5F5"/>
<path d="M96.933 35.4196L101.519 12.0078C98.6555 12.0606 95.9256 13.2598 93.9137 15.3488C91.9018 17.4378 90.7676 20.2507 90.7539 23.1857L90.7046 34.8537L90.7539 34.51L96.933 35.4196Z" fill="#F5F5F5"/>
<path d="M100.213 64.2884L90.5866 63.5557L90.5225 79.5392L100.213 77.2955V64.2884Z" fill="#F5F5F5"/>
<path d="M96.8305 35.9346L90.7056 35.0352L90.6021 60.918L91.9187 61.0191L96.8305 35.9346Z" fill="#F5F5F5"/>
<path d="M116.275 169.837L116.438 149.058L100.243 150.23L100.815 170.59L116.275 169.837Z" fill="#F5F5F5"/>
<path d="M119.254 165.041L142.19 176.3C142.466 168.942 142.708 162.065 142.683 161.645L143.176 161.615L143.418 161.109C143.749 161.276 143.749 161.276 143.576 166.294C143.482 169.094 143.344 172.818 143.206 176.542H151.141L149.972 165.243L148.414 145.763L118.445 148.865L119.254 165.041Z" fill="#F5F5F5"/>
<path d="M175.477 130.552L175.215 127.813L147.723 130.744L148.882 145.182L172.617 142.726L175.477 130.552Z" fill="#F5F5F5"/>
<path d="M137.747 83.7891H127.474L126.306 89.2213H137.747V83.7891Z" fill="#F5F5F5"/>
<path d="M171.231 85.624L145.509 83.7998L144.463 90.0254L145.543 103.538L172.666 100.865L171.231 85.624ZM146.456 90.0153L147.836 86.0839L170.176 87.5342L171.448 98.7727L147.19 101.724L146.456 90.0153Z" fill="#F5F5F5"/>
<path d="M173.898 113.867L172.769 101.916L145.626 104.589L146.647 117.308L173.898 113.867Z" fill="#F5F5F5"/>
<path d="M100.667 183.683L90.1383 184.365L90.0939 183.663L90.0791 186.847H100.756L100.667 183.683Z" fill="#F5F5F5"/>
<path d="M184.206 31.4939L184.359 31.8931L184.393 23.6158C184.405 20.6374 183.262 17.7761 181.215 15.661C179.169 13.546 176.387 12.3503 173.48 12.3369H170.067V37.2344L184.206 31.4939Z" fill="#EBEBEB"/>
<path d="M142.169 176.866L118.755 165.37L117.931 148.901L116.945 149.002L116.777 170.327L100.824 171.105V171.58L101.135 182.576L142.041 179.923C142.09 178.928 142.13 177.877 142.169 176.866ZM101.83 172.46L124.165 170.853L138.698 177.761L101.83 179.782V172.46Z" fill="#F5F5F5"/>
<path d="M177.548 59.124L178.505 53.3026C170.121 50.2302 169.529 41.2607 169.554 38.542L164.075 40.7654L172.325 57.7394L177.548 59.124Z" fill="#F5F5F5"/>
<path d="M147.599 129.173L159.01 127.955L156.762 117.621L146.771 118.884L147.599 129.173Z" fill="#F5F5F5"/>
<path d="M172.222 69.2712L150.903 69.2662L149.133 69.1348L146.726 83.4406L172.029 85.2345L171.442 79.0139L173.933 69.8271L172.222 69.2712Z" fill="#F5F5F5"/>
<path d="M170.748 65.4309L171.014 58.6039L162.631 41.3672L149.641 46.6378L154.079 65.4309H170.748ZM162.132 43.4592L169.806 58.427L168.701 63.0912L155.559 62.5859L152.275 48.4367L162.132 43.4592Z" fill="#F5F5F5"/>
<path d="M174.065 147.82L174.455 161.237L183.692 160.701L183.721 161.227L174.475 161.762L174.943 177.811L183.677 177.245L183.741 178.297L174.973 178.868L175.21 186.847H183.716L183.904 142.09L175.2 142.989L174.065 147.82Z" fill="#F5F5F5"/>
<path d="M117.922 39.0374L98.3588 36.1621L93.4668 61.1455L118.006 63.0102C118.104 59.1545 118.02 47.3602 117.922 39.0374Z" fill="#EBEBEB"/>
<path d="M150.09 65.4364H153.054L148.862 47.8105L137.979 48.2653L138.24 64.5318L150.09 65.4364Z" fill="#F5F5F5"/>
<path d="M118.508 63.0357L137.741 64.4961L137.484 48.2852L118.553 49.0785C118.572 54.5765 118.587 60.408 118.508 63.0357Z" fill="#F5F5F5"/>
<path d="M174.047 115.438L157.275 117.561L159.529 127.9L175.068 126.242L174.047 115.438Z" fill="#F5F5F5"/>
<path d="M178.593 52.7929L179.668 46.259L184.299 46.6279L184.358 32.5596L170.057 38.3557C169.785 48.25 175.851 51.7317 178.593 52.7929Z" fill="#EBEBEB"/>
<path d="M173.095 78.0441L173.677 84.2141L184.141 84.957L184.19 72.248L175.432 69.4131L173.095 78.0441Z" fill="#F5F5F5"/>
<path d="M178.076 130.739L175.329 142.447L183.905 141.558L183.959 129.284C181.326 128.571 179.028 127.995 177.79 127.768L178.076 130.739Z" fill="#F5F5F5"/>
<path d="M172.281 65.6326L184.205 69.4883L184.235 62.5451L172.528 59.4424L172.281 65.6326Z" fill="#F5F5F5"/>
<path d="M177.642 126.141C178.604 126.293 180.423 126.687 183.964 127.657L184.073 100.819L175.329 101.678L177.642 126.141Z" fill="#F5F5F5"/>
<path d="M175.23 100.617L184.077 99.7426L184.131 86.5384L173.83 85.8057L175.23 100.617Z" fill="#F5F5F5"/>
<path d="M179.58 53.1263C181.261 53.6316 182.82 54.051 184.264 54.3492L184.294 47.6839L180.526 47.3857L179.58 53.1263Z" fill="#F5F5F5"/>
<path d="M178.549 59.4079L184.24 60.9238L184.265 54.9003C182.789 54.6039 181.199 54.1895 179.496 53.6572L178.549 59.4079Z" fill="#F5F5F5"/>
<path d="M183.742 178.296L183.678 177.245L174.944 177.811L174.476 161.762L183.722 161.226L183.698 160.721L174.456 161.256L174.066 147.845L175.201 143.009L183.905 142.11V141.579L175.329 142.468L178.076 130.76L177.79 127.773C179.027 128.016 181.325 128.592 183.959 129.289V127.647C180.418 126.692 178.598 126.298 177.637 126.131L175.324 101.653L184.067 100.794V99.7328L175.22 100.607L173.82 85.7959L184.122 86.5286V84.9419L173.657 84.2041L173.075 78.034L175.413 69.4031L184.191 72.2632V69.5041L172.266 65.6485L172.508 59.4582L184.215 62.5609V60.9287L178.524 59.4127L179.471 53.652C181.178 54.1843 182.767 54.5987 184.24 54.8951V54.3544C182.795 54.0563 181.237 53.652 179.555 53.1315L180.502 47.391L184.27 47.6891V46.633L179.639 46.2641L178.564 52.798C175.822 51.7368 169.756 48.2501 170.047 38.3608L184.348 32.5647V31.8926L184.196 31.4934L170.072 37.2188V12.3213H169.554V37.431L163.602 39.8465L154.681 21.4424C154.256 21.7554 153.764 21.9598 153.246 22.0387L162.177 40.4276L148.433 45.9862L148.739 47.2798L137.968 47.7296L137.554 21.9932H137.061L137.475 47.7649L118.548 48.5583C118.519 44.5864 118.474 40.8723 118.45 38.8105V38.5882L117.291 12.0787H116.773L117.932 38.5124L98.4625 35.6421L103.093 12.0029H101.767H101.52L96.9338 35.4147L90.7547 34.5052L90.7054 34.8488V35.0307L96.8302 35.9302L91.8988 61.0146L90.5772 60.9136V63.5514L100.203 64.2841V77.3165L90.5229 79.5399V81.162L101.762 78.5545V64.4054L137.761 67.1392V82.208H126.236L124.727 89.227H115.358L90.4638 93.8659V95.4729L115.501 90.8037H144.014L145.035 103.588L115.382 106.514L115.481 107.56L145.119 104.64L147.091 129.143L117.143 125.136L116.941 126.702L147.22 130.745L148.379 145.222L116.689 148.502L100.243 149.695V127.617L115.826 118.304L115.047 116.939L99.8286 126.035L90.3454 124.752V126.333L99.7151 127.602V141.66L90.2566 142.67V144.257L99.7201 143.247V150.255L100.277 170.125L90.1284 174.198V175.896L100.336 171.803L100.642 182.627L90.0791 183.314V183.663L90.1235 184.365L100.652 183.683L100.741 186.846H101.234L101.145 183.647L141.978 181.005C141.904 183.056 141.825 185.047 141.756 186.846H142.845C142.91 185.153 142.988 183.112 143.072 180.934L151.885 180.363L153.147 186.846H153.67L152.403 180.332L172.434 179.034L172.661 186.846H175.235L183.742 178.296ZM143.087 179.898C143.122 178.963 143.156 178.008 143.191 177.053L151.219 177.078L151.658 179.342L143.087 179.898ZM152.176 179.307L151.683 176.78L150.484 165.213L149.809 156.779L171.704 155.091L172.38 178.003L152.176 179.307ZM157.147 144.853L168.666 143.666L168.346 148.3L158.02 149.442L157.147 144.853ZM156.654 144.909L158.577 155.016L149.749 155.708L148.946 145.707L156.654 144.909ZM171.685 154.005L159.095 154.975L158.236 150.473L169.327 149.245L169.722 143.55L172.498 143.267L171.512 147.542L171.685 154.005ZM156.772 117.621L159.021 127.955L147.609 129.168L146.791 118.885L156.772 117.621ZM159.538 127.9L157.285 117.561L174.052 115.443L175.072 126.242L159.538 127.9ZM171.088 84.0272L145.785 82.2333L148.191 67.9275L149.962 68.0639H171.28L172.991 68.6147L170.491 77.8218L171.088 84.0272ZM169.564 38.5478C169.539 41.2664 170.121 50.236 178.515 53.3084L177.548 59.1247L172.326 57.7401L164.075 40.7662L169.564 38.5478ZM162.66 41.3523L171.043 58.5891L170.777 65.416H154.109L149.671 46.6229L162.66 41.3523ZM148.862 47.8104L153.054 65.4312H150.095L138.259 64.5317L137.998 48.2652L148.862 47.8104ZM137.465 48.2854L137.722 64.4963L118.489 63.0359C118.568 60.4082 118.553 54.5616 118.489 49.0788L137.465 48.2854ZM98.359 36.1576L117.922 39.0329C118.021 47.3556 118.104 59.15 118.006 62.9955L93.467 61.146L98.359 36.1576ZM147.673 67.8871L144.083 89.222H138.259V67.1746L147.673 67.8871ZM127.484 83.7847H137.756V89.222H126.315L127.484 83.7847ZM144.473 90.0204L145.518 83.7948L171.241 85.619L172.681 100.86L145.558 103.533L144.473 90.0204ZM172.779 101.911L173.914 113.867L146.662 117.308L145.627 104.604L172.779 101.911ZM147.733 130.74L175.225 127.809L175.487 130.548L172.626 142.721L148.891 145.177L147.733 130.74ZM149.971 165.243L151.145 176.537H143.21C143.348 172.813 143.487 169.089 143.58 166.289C143.753 161.272 143.753 161.272 143.422 161.105L143.181 161.61L142.688 161.64C142.712 162.08 142.471 168.958 142.195 176.295L119.253 165.041L118.445 148.871L148.413 145.768L149.971 165.243ZM116.438 149.073L116.275 169.852L100.815 170.605L100.243 150.245L116.438 149.073ZM100.84 171.616V171.141L116.793 170.362L116.96 149.038L117.947 148.937L118.77 165.405L142.17 176.866C142.13 177.877 142.091 178.918 142.056 179.933L101.15 182.586L100.84 171.616Z" fill="white"/>
<path d="M124.165 170.862L101.831 172.469V179.817L138.693 177.77L124.165 170.862Z" fill="#E0E0E0"/>
<path d="M170.175 87.5343L147.836 86.084L146.455 90.0154L147.21 101.724L171.467 98.7728L170.175 87.5343Z" fill="#E0E0E0"/>
<path d="M90.0787 161.974L90.0244 199.671V203.714C90.0987 206.63 91.2787 209.403 93.3141 211.443C95.3495 213.484 98.0804 214.632 100.928 214.644L172.641 214.982C174.081 214.99 175.508 214.706 176.841 214.148C178.173 213.59 179.386 212.768 180.408 211.73C181.431 210.691 182.244 209.456 182.801 208.095C183.357 206.735 183.647 205.275 183.653 203.8L183.722 161.974H90.0787Z" fill="white"/>
<path d="M116.235 37.6531L115.865 16.1211H104.952L101.786 35.4852L116.235 37.6531Z" fill="#E0E0E0"/>
<path d="M168.702 63.1019L169.811 58.4326L162.133 43.4648L152.275 48.4322L155.564 62.5915L168.702 63.1019Z" fill="#EBEBEB"/>
<path d="M101.831 128.703C101.949 129.38 101.831 147.597 101.831 147.597L116.216 146.667L114.544 121.785L101.831 128.703Z" fill="#E0E0E0"/>
<path d="M149.725 143.494L148.965 132.205L173.598 128.961V130.906L170.619 141.286L149.725 143.494Z" fill="#E0E0E0"/>
<path d="M172.69 172.252L172.38 164.89L150.736 165.966C150.171 165.992 149.609 165.87 149.103 165.612L118.39 149.715C118.041 149.533 117.745 149.261 117.531 148.924C117.317 148.588 117.193 148.2 117.172 147.8L112.995 64.7287C112.983 64.5316 113.013 64.3341 113.083 64.1499C113.153 63.9658 113.261 63.7994 113.4 63.6625C113.537 63.5255 113.702 63.4196 113.882 63.3517C114.062 63.2838 114.254 63.2554 114.445 63.2683L127.607 64.279V49.5234H129.151V64.4761C129.15 64.6667 129.111 64.8552 129.036 65.0298C128.961 65.2044 128.852 65.3614 128.716 65.4912C128.58 65.6209 128.419 65.7207 128.243 65.7842C128.068 65.8478 127.882 65.8738 127.696 65.8607L114.544 64.85L118.711 147.724C118.718 147.846 118.757 147.965 118.822 148.068C118.888 148.17 118.979 148.254 119.086 148.31L149.799 164.207C150.066 164.344 150.363 164.409 150.662 164.394L172.493 163.308C172.673 163.299 172.852 163.327 173.021 163.389C173.19 163.451 173.345 163.547 173.478 163.671C173.611 163.795 173.719 163.945 173.795 164.111C173.872 164.278 173.915 164.458 173.923 164.642L174.239 172.187L172.69 172.252Z" fill="white"/>
<path d="M170.831 78.0089C170.842 76.1389 170.432 74.2915 169.631 72.611C168.831 70.9306 167.662 69.4626 166.216 68.3218C164.77 67.181 163.086 66.3983 161.296 66.0349C159.505 65.6715 157.657 65.7372 155.896 66.2269C154.135 66.7167 152.508 67.6171 151.143 68.8579C149.777 70.0987 148.71 71.6462 148.025 73.3795C147.341 75.1128 147.056 76.9849 147.194 78.8496C147.332 80.7143 147.889 82.5209 148.822 84.1284V84.1284L148.856 84.1739C149.31 84.9521 149.877 85.513 150.449 86.3367L157.314 95.6499C157.512 95.9208 157.769 96.1407 158.065 96.2922C158.361 96.4436 158.687 96.5224 159.018 96.5224C159.348 96.5224 159.674 96.4436 159.97 96.2922C160.266 96.1407 160.523 95.9208 160.721 95.6499L167.468 86.4883C168.082 85.7452 168.655 84.9675 169.184 84.1588L169.208 84.1284C170.273 82.2737 170.833 80.1606 170.831 78.0089V78.0089ZM158.995 83.2795C157.966 83.2795 156.96 82.9668 156.105 82.381C155.249 81.7952 154.583 80.9626 154.189 79.9884C153.795 79.0143 153.692 77.9424 153.893 76.9082C154.093 75.8741 154.589 74.9241 155.317 74.1786C156.044 73.433 156.971 72.9252 157.98 72.7195C158.99 72.5138 160.036 72.6194 160.986 73.0229C161.937 73.4264 162.75 74.1097 163.321 74.9864C163.893 75.8631 164.198 76.8939 164.198 77.9483C164.199 79.36 163.654 80.7145 162.681 81.7141C161.708 82.7138 160.388 83.2768 159.01 83.2795H158.995Z" fill="#8937C7"/>
<path d="M107.191 177.967C107.191 177.123 107.001 176.29 106.637 175.533C106.272 174.777 105.742 174.116 105.088 173.603C104.434 173.09 103.673 172.739 102.865 172.576C102.057 172.413 101.223 172.443 100.428 172.664C99.6326 172.885 98.8979 173.291 98.2807 173.849C97.6635 174.408 97.1802 175.105 96.8685 175.887C96.5567 176.668 96.4249 177.512 96.4832 178.354C96.5414 179.196 96.7883 180.013 97.2045 180.741V180.741C97.4116 181.1 97.6681 181.353 97.9294 181.752L101.041 185.977C101.133 186.096 101.251 186.193 101.385 186.26C101.519 186.326 101.666 186.361 101.815 186.361C101.964 186.361 102.112 186.326 102.246 186.26C102.38 186.193 102.497 186.096 102.59 185.977L105.647 181.818C105.926 181.481 106.186 181.128 106.426 180.762V180.762C106.923 179.918 107.187 178.952 107.191 177.967V177.967ZM101.83 180.357C101.363 180.358 100.905 180.217 100.516 179.951C100.127 179.686 99.8233 179.308 99.6439 178.865C99.4645 178.423 99.4173 177.936 99.5083 177.466C99.5993 176.996 99.8243 176.564 100.155 176.225C100.486 175.886 100.907 175.656 101.366 175.562C101.824 175.469 102.3 175.518 102.732 175.701C103.163 175.885 103.532 176.196 103.791 176.595C104.051 176.994 104.188 177.463 104.187 177.942C104.187 178.582 103.939 179.197 103.497 179.65C103.055 180.103 102.455 180.357 101.83 180.357V180.357Z" fill="#8937C7"/>
<path d="M171.896 181.919C171.896 181.989 158.517 182.05 142.017 182.05C125.516 182.05 112.132 181.989 112.132 181.919C112.132 181.848 125.511 181.787 142.017 181.787C158.522 181.787 171.896 181.817 171.896 181.919Z" fill="#263238"/>
<path d="M142.846 186.846C142.846 186.922 135.976 186.978 127.504 186.978C119.032 186.978 112.157 186.922 112.157 186.846C112.157 186.77 119.027 186.715 127.504 186.715C135.981 186.715 142.846 186.775 142.846 186.846Z" fill="#263238"/>
<path d="M114.884 170.448L115.91 172.586L118.208 172.929L116.546 174.587L116.94 176.937L114.884 175.83L112.827 176.937L113.217 174.587L111.555 172.929L113.853 172.586L114.884 170.448Z" fill="#8937C7"/>
<path d="M124.619 170.448L125.649 172.586L127.947 172.929L126.281 174.587L126.675 176.937L124.619 175.83L122.562 176.937L122.957 174.587L121.29 172.929L123.593 172.586L124.619 170.448Z" fill="#8937C7"/>
<path d="M134.353 170.448L135.384 172.586L137.682 172.929L136.02 174.587L136.409 176.937L134.353 175.83L132.297 176.937L132.691 174.587L131.029 172.929L133.327 172.586L134.353 170.448Z" fill="#8937C7"/>
<path d="M144.092 170.448L145.118 172.586L147.416 172.929L145.754 174.587L146.149 176.937L144.092 175.83L142.036 176.937L142.426 174.587L140.764 172.929L143.062 172.586L144.092 170.448Z" fill="#8937C7"/>
<path d="M153.827 170.448L154.858 172.586L157.156 172.929L155.494 174.587L155.884 176.937L153.827 175.83L151.771 176.937L152.165 174.587L150.499 172.929L152.802 172.586L153.827 170.448Z" fill="#E0E0E0"/>
<path d="M131.818 196.417C131.818 196.492 128.08 196.548 123.47 196.548C118.859 196.548 115.121 196.492 115.121 196.417C115.121 196.341 118.859 196.285 123.47 196.285C128.08 196.285 131.818 196.346 131.818 196.417Z" fill="#E0E0E0"/>
<path d="M174.722 200.727C174.722 200.798 161.377 200.859 144.921 200.859C128.465 200.859 115.121 200.798 115.121 200.727C115.121 200.657 128.435 200.591 144.921 200.591C161.407 200.591 174.722 200.651 174.722 200.727Z" fill="#E0E0E0"/>
<path d="M104.346 203.703C107.157 203.703 109.435 201.369 109.435 198.488C109.435 195.608 107.157 193.273 104.346 193.273C101.535 193.273 99.2568 195.608 99.2568 198.488C99.2568 201.369 101.535 203.703 104.346 203.703Z" fill="#F5F5F5"/>
<path d="M104.942 198.343C105.235 198.219 105.485 198.009 105.661 197.739C105.837 197.469 105.93 197.151 105.929 196.827C105.932 196.626 105.897 196.426 105.825 196.24C105.753 196.053 105.645 195.883 105.509 195.738C105.373 195.594 105.21 195.479 105.031 195.399C104.851 195.319 104.657 195.276 104.462 195.273C104.266 195.269 104.071 195.306 103.889 195.379C103.707 195.453 103.54 195.563 103.4 195.703C103.259 195.842 103.146 196.009 103.068 196.193C102.99 196.377 102.948 196.575 102.945 196.776C102.94 197.095 103.026 197.408 103.192 197.678C103.359 197.947 103.598 198.161 103.882 198.292C101.579 198.62 101.658 201.177 101.658 201.177L107.083 201.263C107.083 201.263 107.211 198.722 104.942 198.343Z" fill="#E0E0E0"/>
<path d="M137.224 209.576C137.156 209.574 137.093 209.545 137.046 209.495L134.58 206.857C134.557 206.833 134.539 206.806 134.526 206.775C134.514 206.744 134.507 206.711 134.507 206.678C134.507 206.644 134.514 206.611 134.526 206.58C134.539 206.55 134.557 206.522 134.58 206.498C134.603 206.475 134.63 206.456 134.659 206.443C134.689 206.43 134.721 206.424 134.753 206.424C134.785 206.424 134.817 206.43 134.846 206.443C134.876 206.456 134.903 206.475 134.925 206.498L137.219 208.944L139.467 206.544C139.514 206.497 139.577 206.471 139.642 206.471C139.708 206.471 139.771 206.497 139.817 206.544C139.841 206.567 139.859 206.595 139.871 206.626C139.884 206.657 139.89 206.69 139.89 206.723C139.89 206.756 139.884 206.789 139.871 206.82C139.859 206.851 139.841 206.879 139.817 206.902L137.421 209.495C137.396 209.523 137.366 209.545 137.331 209.559C137.297 209.573 137.26 209.579 137.224 209.576Z" fill="#263238"/>
<path d="M51.0564 41.4378C51.4706 41.3418 51.9785 41.3216 52.2054 40.9325C52.4322 40.5434 52.1511 39.9724 51.7764 39.6641C51.4016 39.3559 50.938 39.1234 50.721 38.6838C50.6224 38.4163 50.5919 38.1274 50.6325 37.8445C50.673 37.5616 50.7833 37.2939 50.9528 37.0667C51.2265 36.6254 51.5922 36.2518 52.0238 35.9727C52.4553 35.6937 52.9418 35.5161 53.4483 35.4528C53.9548 35.3895 54.4687 35.442 54.953 35.6066C55.4373 35.7712 55.88 36.0438 56.2492 36.4048L57.4376 36.2986C57.603 37.7193 57.593 39.1556 57.4081 40.5737C57.212 42.0043 56.495 43.3059 55.401 44.2171C54.9358 44.5948 54.362 44.8044 53.7687 44.8134C53.4732 44.8132 53.1835 44.729 52.9319 44.5702C52.6803 44.4114 52.4766 44.1842 52.3435 43.9139C52.2276 43.6392 52.2181 43.3296 52.3171 43.048C52.416 42.7664 52.6159 42.5339 52.8761 42.3979C52.2558 42.5857 51.608 42.6593 50.9627 42.6152C50.8548 42.614 50.7485 42.5885 50.6513 42.5405C50.5542 42.4924 50.4685 42.4231 50.4005 42.3373C50.1786 41.9431 50.6273 41.5338 51.0564 41.4378Z" fill="#263238"/>
<path d="M57.8713 42.7322C57.0996 40.8675 56.4906 38.9363 56.0516 36.9614C55.6092 34.98 55.6549 32.9169 56.1847 30.9581C56.2735 30.665 57.0526 28.6841 57.3535 28.6993C57.5655 28.6993 57.1168 30.5336 57.2351 30.7206C58.3111 32.516 58.8271 34.605 58.7145 36.7087C58.6519 38.7427 58.3674 40.7631 57.8663 42.7322" fill="#263238"/>
<path d="M64.9279 62.7272C61.8655 62.8383 58.4727 57.017 58.2951 53.889L57.2349 35.0352C56.7911 29.982 59.2962 25.5048 64.2375 25.1915H64.6962C66.9237 25.183 69.073 26.0331 70.7173 27.5729C72.3617 29.1128 73.3809 31.23 73.5727 33.5041C73.9327 37.8853 74.273 42.7364 74.2533 45.0862C74.2138 49.9576 69.4599 50.7307 69.4599 50.7307C69.4599 50.7307 69.4994 51.8626 69.5635 53.2877C69.7065 56.4965 69.4895 63.8995 66.358 64.0006L64.9279 62.7272Z" fill="#FFBE9D"/>
<path d="M69.4502 50.7265C67.2555 50.7293 65.106 50.0874 63.2563 48.877C63.2563 48.877 64.7802 52.4142 69.5193 51.9595L69.4502 50.7265Z" fill="#EB996E"/>
<path d="M72.0341 37.5273C72.0368 37.7084 71.9702 37.8833 71.8485 38.0146C71.7268 38.1459 71.5598 38.2232 71.3832 38.2298C71.2969 38.2366 71.2101 38.2258 71.1279 38.1979C71.0457 38.1699 70.9698 38.1255 70.9046 38.0672C70.8394 38.0088 70.7862 37.9377 70.7481 37.858C70.7101 37.7784 70.6879 37.6917 70.6829 37.6031C70.6803 37.5122 70.6952 37.4217 70.7267 37.3366C70.7583 37.2516 70.8058 37.1738 70.8668 37.1076C70.9277 37.0414 71.0007 36.9882 71.0817 36.951C71.1627 36.9138 71.2501 36.8933 71.3388 36.8906C71.4256 36.8838 71.513 36.895 71.5955 36.9236C71.678 36.9522 71.754 36.9976 71.819 37.057C71.8839 37.1165 71.9365 37.1888 71.9734 37.2697C72.0104 37.3505 72.0311 37.4381 72.0341 37.5273V37.5273Z" fill="#263238"/>
<path d="M72.5521 35.5256C72.4683 35.6165 71.9554 35.2274 71.2256 35.2325C70.4957 35.2375 69.9582 35.6115 69.8793 35.5205C69.8004 35.4296 69.9286 35.3184 70.1604 35.1415C70.476 34.917 70.8512 34.7971 71.2354 34.7979C71.6138 34.7949 71.9834 34.9153 72.2907 35.1415C72.5176 35.3184 72.5965 35.4851 72.5521 35.5256Z" fill="#263238"/>
<path d="M65.4212 37.7851C65.4215 37.9668 65.3535 38.1416 65.2314 38.2733C65.1093 38.405 64.9424 38.4835 64.7654 38.4926C64.6791 38.4994 64.5923 38.4886 64.5101 38.4607C64.4279 38.4328 64.352 38.3883 64.2868 38.33C64.2216 38.2716 64.1684 38.2005 64.1303 38.1209C64.0923 38.0412 64.0701 37.9545 64.0651 37.866C64.0611 37.6845 64.1273 37.5089 64.2493 37.3773C64.3712 37.2457 64.539 37.1689 64.7161 37.1636C64.8024 37.156 64.8893 37.1661 64.9717 37.1934C65.0542 37.2207 65.1305 37.2646 65.1961 37.3225C65.2618 37.3804 65.3156 37.4511 65.3542 37.5305C65.3929 37.61 65.4157 37.6965 65.4212 37.7851V37.7851Z" fill="#263238"/>
<path d="M65.4213 35.8801C65.3375 35.971 64.8197 35.5819 64.0898 35.587C63.36 35.592 62.8274 35.966 62.7485 35.875C62.6695 35.7841 62.7928 35.6729 63.0246 35.496C63.3395 35.27 63.7152 35.15 64.0997 35.1524C64.4796 35.1494 64.8508 35.2697 65.1599 35.496C65.367 35.6476 65.4213 35.8144 65.4213 35.8801Z" fill="#263238"/>
<path d="M68.0406 41.5945C68.4237 41.4666 68.8217 41.3918 69.2241 41.3722C69.4115 41.3722 69.5891 41.3116 69.6186 41.1802C69.6342 40.9831 69.5912 40.7858 69.4954 40.6142C69.3178 40.1544 69.1304 39.6692 68.9381 39.1589C68.1639 37.0921 67.6017 35.3891 67.6855 35.3588C67.7694 35.3285 68.4598 36.9809 69.234 39.0477C69.4165 39.553 69.5989 40.0584 69.7666 40.5131C69.8832 40.7432 69.918 41.0076 69.8652 41.261C69.8384 41.3282 69.7969 41.3882 69.7439 41.4364C69.6909 41.4846 69.6278 41.5197 69.5595 41.539C69.4566 41.5687 69.3507 41.5856 69.2439 41.5895C68.8444 41.6404 68.4404 41.6421 68.0406 41.5945Z" fill="#263238"/>
<path d="M65.9143 42.1202C66.0326 42.1202 66.0326 42.9237 66.7132 43.4998C67.3937 44.0758 68.2419 44.0051 68.2468 44.091C68.2518 44.1769 68.0595 44.2527 67.6995 44.2628C67.2353 44.2716 66.7831 44.1123 66.4222 43.8131C66.0774 43.5237 65.8549 43.1092 65.8009 42.6559C65.7515 42.3173 65.8403 42.1152 65.9143 42.1202Z" fill="#263238"/>
<path d="M65.3523 32.8171C65.2783 33.0192 64.5484 32.9232 63.6953 33.0344C62.8422 33.1456 62.1419 33.3831 62.0285 33.2012C61.9792 33.1152 62.0975 32.9232 62.3786 32.7261C62.7492 32.4795 63.1718 32.327 63.6115 32.2815C64.0494 32.2241 64.4944 32.2761 64.9084 32.4331C65.2241 32.5594 65.3819 32.7211 65.3523 32.8171Z" fill="#263238"/>
<path d="M72.2421 33.0402C72.1139 33.207 71.6109 33.0402 71.0092 33.0402C70.4076 33.0402 69.8898 33.1564 69.7714 32.9796C69.7221 32.8937 69.801 32.7218 70.0229 32.5601C70.3159 32.3651 70.66 32.2664 71.0092 32.2772C71.3639 32.2847 71.708 32.4028 71.9955 32.6157C72.2273 32.7825 72.3259 32.9543 72.2421 33.0402Z" fill="#263238"/>
<path d="M57.6451 38.6389C57.5662 38.6035 54.3756 37.6636 54.4939 40.9937C54.6123 44.3238 57.8473 43.5204 57.8473 43.4193C57.8473 43.3182 57.6451 38.6389 57.6451 38.6389Z" fill="#FFBE9D"/>
<path d="M56.8113 42.1964C56.8113 42.1964 56.757 42.2368 56.6633 42.2873C56.5268 42.341 56.3757 42.341 56.2392 42.2873C56.0251 42.1571 55.8485 41.9712 55.7273 41.7484C55.606 41.5257 55.5444 41.274 55.5488 41.0189C55.529 40.7346 55.5728 40.4494 55.677 40.1852C55.7029 40.0798 55.7537 39.9827 55.8252 39.9024C55.8966 39.8222 55.9863 39.7613 56.0864 39.7253C56.1509 39.7056 56.22 39.7095 56.2821 39.7362C56.3441 39.7629 56.3952 39.8109 56.4266 39.8719C56.4759 39.9628 56.4562 40.0285 56.471 40.0336C56.4858 40.0386 56.54 39.978 56.5105 39.8415C56.4891 39.7582 56.4403 39.6851 56.3724 39.6343C56.327 39.6017 56.2757 39.5787 56.2215 39.5666C56.1673 39.5544 56.1113 39.5534 56.0568 39.5636C55.9251 39.5963 55.8036 39.6625 55.7036 39.7561C55.6036 39.8498 55.5283 39.9678 55.4847 40.0992C55.3588 40.3932 55.303 40.7137 55.322 41.0341C55.3168 41.3309 55.3968 41.6226 55.5519 41.8733C55.7071 42.1239 55.9306 42.3223 56.1948 42.444C56.2797 42.4622 56.3674 42.4622 56.4523 42.444C56.5372 42.4257 56.6174 42.3896 56.688 42.3378C56.8063 42.2772 56.8211 42.2014 56.8113 42.1964Z" fill="#EB996E"/>
<path d="M71.2257 28.0826C71.7189 27.7592 70.0816 26.0866 68.76 25.556C66.7874 24.7373 63.7645 24.3129 61.9891 24.9193C59.8489 25.6469 58.0933 26.8345 57.0922 28.9012C56.1348 31.0083 55.74 33.3379 55.9481 35.6524C55.95 36.3643 56.1391 37.0626 56.4955 37.6737C56.9887 38.3913 57.8714 38.8107 57.8763 39.8315C57.8704 40.0174 57.9009 40.2027 57.9661 40.3763C58.0314 40.5499 58.13 40.7083 58.256 40.8421C58.8774 41.4586 59.5777 40.8421 59.8883 40.1953C60.5442 38.8562 60.559 37.2998 60.5541 35.804C60.6103 34.7392 60.4953 33.6723 60.2138 32.6457C60.0314 32.1 59.7552 31.5845 59.6023 31.0287C59.508 30.7549 59.4733 30.4634 59.5006 30.1745C59.5278 29.8855 59.6164 29.6062 59.7601 29.356C59.8347 29.2534 59.9189 29.1587 60.0116 29.073C60.4466 28.6478 60.9841 28.3487 61.5691 28.2066C62.1541 28.0646 62.7654 28.0845 63.3403 28.2645C65.1995 28.8457 68.3655 29.6946 69.1545 29.0225C69.7201 28.6014 70.1924 28.0623 70.5402 27.4408L71.2257 28.0826Z" fill="#263238"/>
<path d="M62.1421 24.4491C63.0169 24.0858 63.9534 23.9041 64.8973 23.9145C65.8412 23.9249 66.7737 24.1272 67.6407 24.5098C68.1047 24.703 68.5259 24.9901 68.8792 25.3539C69.2325 25.7177 69.5107 26.1507 69.6971 26.6271C70.0077 27.6024 69.6527 28.8354 68.7404 29.2598L68.6812 29.3053C67.3152 29.846 66.4078 29.6944 65.0023 29.2699C63.8237 28.9112 62.7585 28.2239 61.5503 27.8702C60.2852 27.4914 58.9383 27.5108 57.6841 27.9258C58.8463 26.3858 60.3839 25.1866 62.1421 24.4491Z" fill="#263238"/>
<path d="M58.0586 27.425C58.545 27.1794 59.0753 27.0384 59.6169 27.0106C60.2042 26.9984 60.7884 27.1013 61.338 27.3138C62.0125 27.5872 62.664 27.9168 63.2859 28.2992C63.919 28.6841 64.5782 29.0218 65.2585 29.3099C65.8262 29.5436 66.4319 29.6653 67.0437 29.6686C67.4569 29.6722 67.8669 29.5951 68.2519 29.4412C68.3957 29.3914 68.5282 29.3123 68.6415 29.2088C68.1325 29.404 67.5919 29.4983 67.0486 29.4867C66.4614 29.4574 65.8838 29.3222 65.3423 29.0875C64.6756 28.794 64.0283 28.4564 63.4043 28.0769C62.7782 27.6888 62.1178 27.3622 61.4317 27.1016C60.853 26.8922 60.2395 26.8028 59.6268 26.8388C59.2145 26.864 58.8116 26.9758 58.4432 27.1673C58.2977 27.2223 58.1661 27.3104 58.0586 27.425V27.425Z" fill="#455A64"/>
<path d="M59.3809 26.2785C59.8447 26.099 60.335 26.0016 60.8307 25.9904C61.3647 26.001 61.8932 26.1035 62.394 26.2936C63.01 26.536 63.5986 26.8461 64.1496 27.2184C64.7463 27.6024 65.3084 27.9966 65.8509 28.3099C66.3179 28.5965 66.814 28.8304 67.3303 29.0072C67.6865 29.1243 68.0564 29.1923 68.4301 29.2094C68.5671 29.2252 68.7059 29.2149 68.8394 29.179C68.3478 29.1049 67.8629 28.99 67.3895 28.8354C66.8847 28.6409 66.3992 28.3972 65.9397 28.1077C65.4169 27.7843 64.8646 27.3902 64.2581 27.0011C63.6974 26.6188 63.0949 26.305 62.463 26.0662C61.934 25.8771 61.3759 25.7881 60.8159 25.8035C60.4394 25.8181 60.0686 25.9019 59.7211 26.0511C59.5935 26.1018 59.4777 26.1793 59.3809 26.2785V26.2785Z" fill="#455A64"/>
<path d="M66.9355 24.8785C66.9355 24.8785 67.1032 25.1161 67.3991 25.4496C67.7962 25.871 68.1363 26.3452 68.41 26.8594C68.6749 27.3702 68.8025 27.944 68.7799 28.522C68.7552 28.9666 68.6418 29.2294 68.6763 29.2446C68.7109 29.2597 68.8785 29.0172 68.9574 28.5422C69.036 27.9224 68.9221 27.293 68.632 26.7432C68.3484 26.2068 67.9744 25.7261 67.5273 25.3232C67.192 25.015 66.9602 24.8533 66.9355 24.8785Z" fill="#455A64"/>
<path d="M69.2635 26.3692C69.3369 26.871 69.3502 27.3801 69.3029 27.8852C69.1764 28.3831 68.9874 28.8621 68.7407 29.3102C68.7407 29.3102 68.9133 29.2344 69.0958 28.9969C69.325 28.6819 69.4802 28.3171 69.5495 27.9307C69.6199 27.5436 69.5979 27.1449 69.4854 26.7684C69.3966 26.5056 69.2881 26.354 69.2635 26.3692Z" fill="#455A64"/>
<path d="M55.8499 35.7734C55.7452 36.2442 55.7588 36.7345 55.8893 37.1985C55.9454 37.6843 56.1569 38.1375 56.4909 38.487C56.5501 38.4466 56.2838 37.8908 56.1359 37.1429C56.0884 36.6773 55.9925 36.2182 55.8499 35.7734Z" fill="#8937C7"/>
<path d="M52.5162 189.64L53.0093 200.581C53.0093 200.581 42.318 204.74 42.2095 206.766L62.9215 206.599L62.8771 189.529L52.5162 189.64Z" fill="#455A64"/>
<path d="M59.3853 199.605C59.5935 199.663 59.7725 199.799 59.8861 199.987C59.9997 200.175 60.0393 200.4 59.9968 200.616C59.9463 200.823 59.8197 201.003 59.6432 201.117C59.4668 201.231 59.2543 201.27 59.05 201.228C58.8385 201.163 58.658 201.02 58.5432 200.827C58.4285 200.634 58.3876 200.404 58.4286 200.182C58.5073 199.974 58.6609 199.806 58.8574 199.712C59.054 199.618 59.2783 199.605 59.4839 199.676" fill="#E0E0E0"/>
<path d="M62.9115 206.6L62.8424 204.882L42.9983 205.67C42.9983 205.67 42.0762 206.09 42.1847 206.752L62.9115 206.6Z" fill="white"/>
<path d="M52.6487 200.475C52.6487 200.576 53.1418 200.621 53.6596 200.95C54.1774 201.278 54.4289 201.713 54.5177 201.672C54.6065 201.632 54.4585 201.03 53.8421 200.662C53.2257 200.293 52.624 200.379 52.6487 200.475Z" fill="#263238"/>
<path d="M50.479 201.409C50.479 201.51 50.8982 201.687 51.2434 202.122C51.5886 202.556 51.6921 203.021 51.7957 203.016C51.8993 203.011 51.9535 202.42 51.5146 201.889C51.0757 201.359 50.4839 201.313 50.479 201.409Z" fill="#263238"/>
<path d="M49.2659 204.088C49.3596 204.088 49.4927 203.583 49.2314 203.022C48.97 202.461 48.4917 202.239 48.4473 202.325C48.4029 202.41 48.7037 202.709 48.9108 203.179C49.1179 203.648 49.1475 204.078 49.2659 204.088Z" fill="#263238"/>
<path d="M52.8126 197.968C52.857 198.064 53.3058 197.917 53.8926 197.968C54.4795 198.018 54.9085 198.185 54.9627 198.094C55.017 198.003 54.583 197.639 53.9074 197.589C53.2318 197.538 52.7633 197.887 52.8126 197.968Z" fill="#263238"/>
<path d="M83.8211 189.64L83.3575 200.581C83.3575 200.581 94.0489 204.74 94.1525 206.766L73.4404 206.599L73.4897 189.529L83.8211 189.64Z" fill="#455A64"/>
<path d="M76.9559 199.605C76.7555 199.666 76.5838 199.799 76.4737 199.981C76.3636 200.163 76.3228 200.38 76.3591 200.591C76.4117 200.798 76.5396 200.977 76.7165 201.09C76.8935 201.204 77.1061 201.244 77.3109 201.202C77.5224 201.138 77.7029 200.995 77.8176 200.802C77.9324 200.608 77.9732 200.378 77.9323 200.156C77.8536 199.949 77.7 199.781 77.5034 199.687C77.3069 199.593 77.0825 199.58 76.8769 199.651" fill="#E0E0E0"/>
<path d="M73.4258 206.6L73.4998 204.882L93.3439 205.67C93.3439 205.67 94.2611 206.09 94.1526 206.752L73.4258 206.6Z" fill="white"/>
<path d="M83.6924 200.475C83.6924 200.576 83.1993 200.621 82.6815 200.95C82.1637 201.278 81.9122 201.713 81.8185 201.672C81.7248 201.632 81.8826 201.03 82.4941 200.662C83.1056 200.293 83.7171 200.379 83.6924 200.475Z" fill="#263238"/>
<path d="M85.8624 201.409C85.8624 201.51 85.4432 201.687 85.098 202.122C84.7528 202.556 84.6443 203.021 84.5457 203.016C84.4471 203.011 84.3829 202.42 84.8268 201.889C85.2706 201.359 85.8574 201.313 85.8624 201.409Z" fill="#263238"/>
<path d="M87.076 204.088C86.9823 204.088 86.8442 203.583 87.1105 203.022C87.3768 202.461 87.8502 202.239 87.8896 202.325C87.9291 202.41 87.6381 202.709 87.4261 203.179C87.214 203.648 87.1746 204.078 87.076 204.088Z" fill="#263238"/>
<path d="M83.5304 197.968C83.486 198.064 83.0373 197.917 82.4504 197.968C81.8636 198.018 81.4296 198.185 81.3803 198.094C81.331 198.003 81.76 197.639 82.4356 197.589C83.1112 197.538 83.5797 197.887 83.5304 197.968Z" fill="#263238"/>
<path d="M48.0923 107.207C48.0923 107.874 52.2889 197.873 52.2889 197.873L63.1874 197.979L66.7282 121.437C66.7282 121.437 71.2848 161.656 71.2848 162.545C71.2848 163.435 72.5769 198.424 72.5769 198.424H84.077V114.994L76.6798 102.775L48.0923 107.207Z" fill="#263238"/>
<path d="M78.2083 198.413C78.2006 198.346 78.2006 198.278 78.2083 198.211C78.2083 198.064 78.2083 197.867 78.2083 197.615C78.2083 197.074 78.2083 196.306 78.2083 195.32C78.1787 193.324 78.1195 190.439 78.0209 186.876C77.8088 179.746 77.4143 169.908 76.9261 159.038C76.4379 148.168 75.9398 138.32 75.6045 131.2C75.4368 127.662 75.2987 124.772 75.205 122.766C75.1656 121.78 75.136 121.007 75.1113 120.471C75.1113 120.219 75.1113 120.022 75.1113 119.875C75.1048 119.806 75.1048 119.737 75.1113 119.668C75.1266 119.734 75.1349 119.802 75.136 119.87C75.136 120.017 75.136 120.214 75.1804 120.466C75.21 121.007 75.2593 121.775 75.3185 122.761C75.4319 124.782 75.5946 127.642 75.8116 131.189C76.2012 138.309 76.7091 148.148 77.2072 159.023C77.7053 169.897 78.0653 179.741 78.228 186.871C78.3069 190.439 78.3365 193.324 78.3365 195.315C78.3365 196.326 78.3365 197.074 78.3365 197.615C78.3365 197.867 78.3365 198.064 78.3365 198.211C78.3018 198.283 78.2587 198.351 78.2083 198.413V198.413Z" fill="#455A64"/>
<path d="M58.1278 119.678C58.1968 119.678 58.1919 137.192 58.1278 158.8C58.0637 180.408 57.9305 197.928 57.8615 197.928C57.7924 197.928 57.7974 180.413 57.8615 158.8C57.9256 137.187 58.0587 119.673 58.1278 119.678Z" fill="#455A64"/>
<path d="M67.6014 117.136C67.4472 117.236 67.2816 117.316 67.1083 117.374C66.768 117.505 66.2699 117.692 65.6584 117.915L65.545 117.955V117.829C65.476 116.722 65.3921 115.241 65.3182 113.619C65.2343 111.861 65.1752 110.269 65.1456 109.117C65.1456 108.541 65.1456 108.071 65.1456 107.752C65.1227 107.585 65.1227 107.415 65.1456 107.247C65.1883 107.412 65.2131 107.582 65.2195 107.752C65.2491 108.071 65.2837 108.536 65.3231 109.112C65.3971 110.264 65.4858 111.856 65.5647 113.614C65.6436 115.236 65.6979 116.717 65.7275 117.824L65.6042 117.738C66.2256 117.536 66.7286 117.379 67.0836 117.273C67.2502 117.206 67.4241 117.16 67.6014 117.136V117.136Z" fill="#455A64"/>
<path d="M66.6303 107.571C66.6303 107.571 66.6698 107.5 66.798 107.449C66.987 107.393 67.19 107.413 67.3651 107.505C67.5044 107.57 67.6205 107.678 67.6973 107.814C67.7742 107.95 67.808 108.107 67.7941 108.263C67.7786 108.455 67.7045 108.637 67.5823 108.783C67.4601 108.929 67.2961 109.032 67.1136 109.077C66.9284 109.107 66.7385 109.079 66.5693 108.996C66.4001 108.913 66.2597 108.779 66.1668 108.612C66.1076 108.502 66.0719 108.38 66.0619 108.255C66.052 108.13 66.068 108.004 66.109 107.885C66.1501 107.767 66.2151 107.659 66.2998 107.568C66.3846 107.477 66.4871 107.406 66.6007 107.358C66.729 107.308 66.8029 107.318 66.8079 107.358C66.8128 107.399 66.5169 107.465 66.3394 107.864C66.2872 107.968 66.2624 108.084 66.2676 108.201C66.2728 108.318 66.3077 108.432 66.369 108.531C66.4417 108.648 66.546 108.742 66.6693 108.8C66.7927 108.858 66.9298 108.879 67.0643 108.859C67.1937 108.824 67.3099 108.75 67.3978 108.646C67.4857 108.543 67.5413 108.414 67.5574 108.278C67.5702 108.165 67.5504 108.051 67.5004 107.949C67.4505 107.848 67.3726 107.764 67.2763 107.707C67.0827 107.587 66.8546 107.539 66.6303 107.571Z" fill="#455A64"/>
<path d="M72.5077 108.515C72.4386 108.515 72.345 108.121 72.2956 107.626C72.2463 107.131 72.2611 106.716 72.3302 106.706C72.3992 106.696 72.4929 107.1 72.5471 107.596C72.6014 108.091 72.5817 108.505 72.5077 108.515Z" fill="#455A64"/>
<path d="M73.4015 108.424C73.3275 108.424 73.2733 108 73.2684 107.474C73.2634 106.949 73.3226 106.524 73.3916 106.524C73.4607 106.524 73.5199 106.949 73.5199 107.474C73.5199 108 73.4705 108.424 73.4015 108.424Z" fill="#455A64"/>
<path d="M57.9558 109.056C57.7117 108.365 57.6323 107.623 57.724 106.894C57.9681 107.585 58.0475 108.327 57.9558 109.056V109.056Z" fill="#455A64"/>
<path d="M59.0112 109.153C58.7862 108.826 58.6766 108.43 58.7005 108.031C58.643 107.635 58.7214 107.231 58.9224 106.889C58.9704 107.264 58.9804 107.643 58.952 108.021C59.0117 108.395 59.0315 108.774 59.0112 109.153V109.153Z" fill="#455A64"/>
<path d="M42.9883 210.253L46.5932 213.634C47.9624 214.922 49.7547 215.634 51.6134 215.63H84.5652C86.4188 215.63 88.2052 214.918 89.5706 213.634L93.1755 210.253H42.9883Z" fill="#8937C7"/>
<path d="M94.6259 206.372H41.9976V210.369H94.6259V206.372Z" fill="#8937C7"/>
<path d="M37.687 194.314H36.819C34.9207 194.314 33.3818 195.891 33.3818 197.837V219.899C33.3818 221.844 34.9207 223.421 36.819 223.421H37.687C39.5853 223.421 41.1242 221.844 41.1242 219.899V197.837C41.1242 195.891 39.5853 194.314 37.687 194.314Z" fill="#263238"/>
<path d="M37.5542 223.033C37.4851 223.033 37.3125 216.792 37.1745 209.086C37.0364 201.379 36.9821 195.139 37.0561 195.139C37.1301 195.139 37.2928 201.379 37.4309 209.081C37.569 216.782 37.6232 223.033 37.5542 223.033Z" fill="#455A64"/>
<path d="M37.3125 220.86C36.5919 220.071 35.9324 219.227 35.3399 218.333C34.6721 217.487 34.075 216.584 33.5547 215.635C34.2752 216.423 34.9348 217.268 35.5273 218.161C36.193 219.01 36.79 219.912 37.3125 220.86V220.86Z" fill="#455A64"/>
<path d="M37.5243 217.484C36.7743 216.613 36.0871 215.687 35.4679 214.715C34.7786 213.793 34.1603 212.818 33.6187 211.799C34.3687 212.67 35.0559 213.595 35.6751 214.568C36.3632 215.49 36.9815 216.465 37.5243 217.484V217.484Z" fill="#455A64"/>
<path d="M37.0564 213.168C36.3366 212.237 35.687 211.25 35.1134 210.217C34.4584 209.235 33.8749 208.205 33.3677 207.135C34.096 208.065 34.7553 209.05 35.3402 210.081C35.984 211.066 36.5575 212.098 37.0564 213.168V213.168Z" fill="#455A64"/>
<path d="M37.0567 209.651C36.8204 209.381 36.6198 209.08 36.46 208.757C36.1198 208.186 35.6661 207.387 35.1779 206.503C34.6896 205.619 34.2606 204.805 33.9647 204.214C33.7781 203.908 33.6321 203.579 33.5308 203.233C33.7614 203.517 33.9614 203.825 34.1275 204.153C34.4677 204.724 34.9214 205.517 35.4047 206.402C35.888 207.286 36.317 208.09 36.6178 208.681C36.7988 208.987 36.946 209.312 37.0567 209.651V209.651Z" fill="#455A64"/>
<path d="M36.9828 205.785C36.2229 204.886 35.5752 203.893 35.0546 202.829C34.5614 201.97 34.1916 201.182 33.9203 200.606C33.7492 200.303 33.6182 199.979 33.5308 199.641C34.1688 200.627 34.7516 201.649 35.2765 202.703C35.745 203.552 36.174 204.32 36.4946 204.871C36.6882 205.157 36.8518 205.464 36.9828 205.785Z" fill="#455A64"/>
<path d="M36.5335 201.773C36.0167 200.986 35.5679 200.154 35.1922 199.287C34.7424 198.456 34.3677 197.585 34.0728 196.685C34.5958 197.469 35.0466 198.301 35.419 199.171C35.8696 200 36.2427 200.872 36.5335 201.773V201.773Z" fill="#455A64"/>
<path d="M40.7939 215.154C40.4047 216.162 39.938 217.137 39.3983 218.07C38.9319 219.043 38.3893 219.976 37.7759 220.859C38.1682 219.852 38.6364 218.877 39.1764 217.944C39.6416 216.971 40.1825 216.038 40.7939 215.154V215.154Z" fill="#455A64"/>
<path d="M40.7052 210.966C40.418 212.056 39.9919 213.103 39.4378 214.079C39.0186 214.902 38.6192 215.635 38.3134 216.161C38.1728 216.46 37.9919 216.737 37.7759 216.984C38.1885 215.942 38.6679 214.929 39.2109 213.952C39.6301 213.129 39.995 212.381 40.2564 211.835C40.3732 211.529 40.5237 211.237 40.7052 210.966Z" fill="#455A64"/>
<path d="M40.7941 205.386C40.4119 206.595 39.9506 207.777 39.4133 208.923C38.953 210.099 38.4159 211.242 37.8057 212.344C38.1884 211.134 38.6514 209.952 39.1914 208.807C39.6477 207.63 40.1832 206.487 40.7941 205.386V205.386Z" fill="#455A64"/>
<path d="M40.3802 202.233C40.1287 203.208 39.7988 204.16 39.3939 205.078C39.0639 206.029 38.6547 206.949 38.1709 207.827C38.4169 206.851 38.747 205.899 39.1572 204.982C39.4872 204.032 39.8964 203.112 40.3802 202.233V202.233Z" fill="#455A64"/>
<path d="M40.0302 198.493C39.8889 199.488 39.6047 200.455 39.1869 201.364C38.8467 202.308 38.3713 203.195 37.7765 203.996C37.7124 203.956 38.3338 202.779 38.9502 201.263C39.5667 199.747 39.9562 198.473 40.0302 198.493Z" fill="#455A64"/>
<path d="M34.3535 194.048L41.9972 207.944V196.388C42.0041 195.824 41.7961 195.28 41.4176 194.872C41.0391 194.463 40.5198 194.222 39.9704 194.199L34.3535 194.048Z" fill="#8937C7"/>
<path d="M41.9971 200.829H40.7051V211.648H41.9971V200.829Z" fill="#8937C7"/>
<path d="M99.4927 223.411H100.361C102.259 223.411 103.798 221.834 103.798 219.889V197.831C103.798 195.886 102.259 194.309 100.361 194.309H99.4927C97.5944 194.309 96.0555 195.886 96.0555 197.831V219.889C96.0555 221.834 97.5944 223.411 99.4927 223.411Z" fill="#263238"/>
<path d="M99.6257 223.022C99.5517 223.022 99.6257 216.776 99.749 209.075C99.8723 201.374 100.055 195.123 100.124 195.128C100.193 195.133 100.124 201.374 100 209.08C99.8772 216.786 99.6947 223.027 99.6257 223.022Z" fill="#455A64"/>
<path d="M99.873 220.829C100.994 218.98 102.257 217.226 103.651 215.584C103.127 216.537 102.53 217.446 101.865 218.303C101.267 219.197 100.601 220.042 99.873 220.829V220.829Z" fill="#455A64"/>
<path d="M99.6509 217.474C100.196 216.457 100.814 215.482 101.5 214.558C102.118 213.583 102.807 212.657 103.562 211.789C103.014 212.808 102.394 213.784 101.707 214.71C101.091 215.683 100.404 216.607 99.6509 217.474V217.474Z" fill="#455A64"/>
<path d="M100.124 213.159C100.627 212.089 101.204 211.057 101.85 210.071C102.426 209.041 103.075 208.057 103.793 207.125C102.717 209.226 101.491 211.243 100.124 213.159V213.159Z" fill="#455A64"/>
<path d="M100.124 209.641C100.232 209.298 100.379 208.969 100.563 208.661C100.859 208.07 101.288 207.261 101.771 206.377C102.254 205.492 102.713 204.699 103.048 204.128C103.211 203.803 103.413 203.501 103.65 203.229C103.541 203.569 103.396 203.896 103.216 204.204C102.915 204.795 102.486 205.604 101.998 206.493C101.51 207.382 101.056 208.176 100.716 208.747C100.556 209.069 100.358 209.37 100.124 209.641Z" fill="#455A64"/>
<path d="M100.198 205.776C100.332 205.454 100.497 205.148 100.691 204.861C101.007 204.31 101.436 203.542 101.904 202.693C102.429 201.639 103.014 200.616 103.655 199.631C103.564 199.968 103.434 200.292 103.265 200.596C102.989 201.172 102.594 201.965 102.126 202.819C101.602 203.881 100.955 204.874 100.198 205.776Z" fill="#455A64"/>
<path d="M100.643 201.763C100.938 200.863 101.312 199.992 101.762 199.161C102.135 198.293 102.584 197.461 103.103 196.675C102.812 197.576 102.438 198.447 101.989 199.277C101.615 200.146 101.164 200.978 100.643 201.763V201.763Z" fill="#455A64"/>
<path d="M96.3809 215.145C97.5356 216.953 98.5449 218.854 99.3989 220.829C98.7848 219.947 98.2437 219.014 97.7814 218.04C97.2423 217.113 96.7741 216.145 96.3809 215.145V215.145Z" fill="#455A64"/>
<path d="M96.4902 210.955C96.6726 211.228 96.8248 211.522 96.9439 211.829C97.2004 212.375 97.5702 213.123 97.9845 213.947C98.5299 214.923 99.0093 215.936 99.4195 216.979C99.206 216.729 99.0253 216.452 98.882 216.155C98.5812 215.65 98.1768 214.897 97.7576 214.073C97.2057 213.094 96.7797 212.046 96.4902 210.955V210.955Z" fill="#455A64"/>
<path d="M96.3809 205.376C96.9958 206.479 97.5362 207.624 97.9984 208.802C98.5381 209.947 98.9995 211.129 99.3792 212.339C98.7671 211.236 98.2283 210.091 97.7666 208.913C97.2266 207.768 96.7636 206.586 96.3809 205.376V205.376Z" fill="#455A64"/>
<path d="M96.7944 202.224C97.2818 203.1 97.6912 204.021 98.0174 204.973C98.4235 205.891 98.7534 206.843 99.0037 207.818C98.5199 206.939 98.1107 206.019 97.7807 205.069C97.3739 204.151 97.0439 203.199 96.7944 202.224V202.224Z" fill="#455A64"/>
<path d="M97.1504 198.483C97.2194 198.483 97.6041 199.742 98.2254 201.253C98.8468 202.764 99.4632 203.946 99.3991 203.986C98.2838 202.333 97.5179 200.458 97.1504 198.483V198.483Z" fill="#455A64"/>
<path d="M102.279 193.738L94.6255 207.382V196.068C94.6252 195.511 94.8367 194.976 95.2151 194.576C95.5934 194.176 96.1089 193.942 96.6523 193.925L102.279 193.738Z" fill="#8937C7"/>
<path d="M96.0556 200.253H94.6255V210.37H96.0556V200.253Z" fill="#8937C7"/>
<path d="M96.0652 210.399C96.0652 210.47 83.6183 210.53 68.2716 210.53C52.925 210.53 40.4731 210.47 40.4731 210.399C40.4731 210.328 52.9152 210.268 68.2716 210.268C83.6281 210.268 96.0652 210.328 96.0652 210.399Z" fill="#263238"/>
<path d="M45.5084 127.753C45.5084 127.753 45.1731 122.25 40.7693 122.821C36.3655 123.392 36.2472 127.45 36.2472 127.45L34.3535 127.106C34.3535 127.106 35.0538 121.355 41.2575 121.517C47.4613 121.679 47.338 128.142 47.338 128.142L45.5084 127.753Z" fill="#455A64"/>
<g opacity="0.3">
<path opacity="0.3" d="M45.5084 127.753C45.5084 127.753 45.1731 122.25 40.7693 122.821C36.3655 123.392 36.2472 127.45 36.2472 127.45L34.3535 127.106C34.3535 127.106 35.0538 121.355 41.2575 121.517C47.4613 121.679 47.338 128.142 47.338 128.142L45.5084 127.753Z" fill="black"/>
</g>
<path d="M24.8162 126.156L23.8496 152.14L57.3883 152.772L57.9604 127.096L24.8162 126.156Z" fill="#455A64"/>
<path d="M57.96 127.096C57.96 127.096 57.96 127.137 57.9008 127.203L57.6986 127.491C57.5013 127.763 57.235 128.127 56.9046 128.592C56.2044 129.542 55.2082 130.927 53.9063 132.589C52.4138 134.568 50.7175 136.376 48.8467 137.981C47.7299 138.912 46.506 139.7 45.2023 140.326C43.7797 141.012 42.2405 141.409 40.6703 141.493C39.1061 141.542 37.55 141.244 36.1088 140.619C34.7721 140.041 33.5285 139.259 32.42 138.3C30.5711 136.653 29.0173 134.688 27.8289 132.493C27.016 131.032 26.2754 129.529 25.6097 127.991L25.0722 126.738L24.9391 126.409C24.9095 126.333 24.8996 126.293 24.9045 126.293C24.9267 126.327 24.9464 126.362 24.9637 126.399L25.1215 126.717L25.7034 127.95C26.1966 129.017 26.9314 130.573 27.9867 132.397C29.1863 134.555 30.7375 136.486 32.5729 138.108C33.6672 139.045 34.8922 139.81 36.2074 140.376C37.6108 140.98 39.1241 141.27 40.6457 141.225C42.1724 141.148 43.6698 140.767 45.0544 140.104C46.3513 139.494 47.5703 138.723 48.6839 137.809C50.547 136.221 52.2428 134.438 53.7436 132.488C55.0652 130.846 56.086 129.482 56.806 128.547L57.6394 127.48L57.8663 127.203C57.894 127.164 57.9254 127.129 57.96 127.096V127.096Z" fill="#263238"/>
<path d="M52.7963 152.686C52.7223 152.686 53.7431 147.077 55.0697 140.189C56.3962 133.302 57.5354 127.728 57.5995 127.743C57.6636 127.758 56.6526 133.352 55.3261 140.24C53.9995 147.128 52.8653 152.701 52.7963 152.686Z" fill="#263238"/>
<path d="M57.8178 127.294C57.8263 127.38 57.8263 127.466 57.8178 127.552C57.8178 127.754 57.8178 128.001 57.8178 128.3C57.7931 128.946 57.7339 129.876 57.655 131.033C57.4923 133.338 57.2063 136.521 56.8561 140.028C56.506 143.535 56.2101 146.678 55.9833 149.018C55.8797 150.14 55.7959 151.039 55.7367 151.742L55.6627 152.485C55.6598 152.572 55.6448 152.659 55.6183 152.742C55.6044 152.655 55.6044 152.566 55.6183 152.479C55.6183 152.277 55.6183 152.035 55.6183 151.737C55.6183 151.09 55.7022 150.155 55.7811 149.003C55.9438 146.693 56.2298 143.515 56.58 140.003C56.9301 136.491 57.226 133.353 57.4528 131.018C57.5564 129.896 57.6402 128.997 57.6994 128.289C57.7339 127.996 57.7586 127.749 57.7783 127.552C57.7789 127.464 57.7922 127.377 57.8178 127.294V127.294Z" fill="#263238"/>
<path d="M40.2485 140.522L39.2476 140.539L39.2794 142.449L40.2804 142.431L40.2485 140.522Z" fill="#263238"/>
<path d="M57.961 127.097C57.8496 127.109 57.7372 127.109 57.6257 127.097H56.6394L53.0937 127.046L41.4111 126.768L29.7286 126.409L26.1878 126.268L25.2015 126.217C25.0904 126.218 24.9796 126.206 24.8711 126.182C24.9826 126.17 25.095 126.17 25.2064 126.182H26.1927L29.7335 126.238L41.421 126.515L53.1036 126.874L56.6443 127.016L57.6306 127.066C57.7415 127.064 57.8523 127.074 57.961 127.097V127.097Z" fill="#263238"/>
<path d="M39.5809 112.654C39.5809 112.654 37.3815 118.895 37.3125 119.886C37.2434 120.876 36.267 122.458 37.3766 122.827C37.3766 122.827 37.1892 123.595 38.3629 123.873C38.3629 123.873 38.3629 125.181 39.9113 125.04C39.9113 125.04 40.9716 126.106 41.8445 125.545C41.8445 125.545 43.1957 126.232 43.748 125.222C44.1757 124.379 44.548 123.508 44.8625 122.614L45.7403 123.322C46.0547 122.599 46.1459 121.795 46.0017 121.017C45.7452 119.805 44.2461 118.268 44.5814 116.753C44.6679 116.205 44.8186 115.671 45.0302 115.161L39.5809 112.654Z" fill="#FFBE9D"/>
<g opacity="0.3">
<path opacity="0.3" d="M51.1647 135.646C49.92 138.648 47.9496 141.276 45.4393 143.281C43.6689 144.747 41.4645 145.914 39.201 145.671C37.2284 145.459 35.4926 144.206 34.0526 142.796C31.1349 139.949 29.0047 136.361 27.8784 132.396C27.8784 132.396 33.303 141.573 39.7583 141.447C45.5773 141.305 51.1647 135.646 51.1647 135.646Z" fill="black"/>
</g>
<path d="M73.9731 54.0713C73.9731 54.0713 82.8054 55.941 83.8952 57.3104C84.7681 58.4019 89.4036 69.4737 89.4036 69.4737L93.1416 76.2653C93.928 76.9188 94.5052 77.7989 94.7986 78.7919C95.2645 81.0186 95.4894 83.2911 95.4693 85.5683C95.4693 85.5683 94.8035 90.0354 92.0765 90.2224C90.7919 90.2756 89.5098 90.0672 88.3044 89.6093C87.099 89.1513 85.9942 88.4528 85.0541 87.5543C83.4612 86.0939 79.5654 76.1945 79.7035 75.6892L73.9731 54.0713Z" fill="#8937C7"/>
<path d="M57.7931 52.0501L58.1777 51.5953L62.2018 56.2645L65.4319 59.8877L69.4806 51.1152L70.6543 51.9996C70.6543 51.9996 75.0137 85.811 74.9397 86.2052C74.8657 86.5993 76.6262 105.054 76.6262 105.054C76.6262 105.054 67.3502 106.944 64.6626 106.065C61.9749 105.185 55.998 106.57 56.0375 106.287C56.0769 106.004 53.4731 94.7048 53.4731 94.7048L54.2375 63.7181L57.7931 52.0501Z" fill="#FAFAFA"/>
<path d="M75.0523 100.921C74.8247 100.889 74.6003 100.836 74.3816 100.764C73.9575 100.648 73.346 100.461 72.5964 100.198C70.6486 99.5202 68.753 98.6942 66.9252 97.7271C65.098 96.7587 63.3426 95.6541 61.6733 94.4223C61.0322 93.9472 60.5242 93.548 60.1938 93.26C60.0151 93.1199 59.8499 92.9626 59.7007 92.79C59.9012 92.9039 60.0925 93.034 60.2727 93.1791C60.6278 93.4419 61.1505 93.8209 61.7965 94.2757C63.4908 95.4534 65.2511 96.5283 67.0683 97.4946C68.8885 98.4535 70.7643 99.2973 72.6852 100.021C73.4199 100.299 74.0216 100.527 74.4358 100.663C74.6484 100.73 74.8547 100.816 75.0523 100.921V100.921Z" fill="#263238"/>
<path d="M65.4209 59.8877C65.4338 60.0154 65.4338 60.1441 65.4209 60.2717C65.4209 60.5446 65.4209 60.9135 65.4209 61.3683C65.4209 62.3537 65.4209 63.7282 65.3913 65.4109C65.3913 68.8269 65.3667 73.5467 65.4308 78.7566C65.4949 83.9666 65.6182 88.6914 65.7168 92.1023C65.7661 93.7901 65.8056 95.1646 65.8352 96.1449C65.8352 96.5997 65.8352 96.9686 65.8352 97.2415C65.8492 97.3691 65.8492 97.4979 65.8352 97.6256C65.8118 97.5006 65.7986 97.3738 65.7957 97.2466C65.7957 96.9686 65.7513 96.6048 65.7267 96.1449C65.6675 95.1949 65.6034 93.8103 65.5294 92.1023C65.3864 88.6863 65.2335 83.9665 65.1645 78.7516C65.0955 73.5366 65.1349 68.8168 65.2039 65.4008C65.2385 63.6928 65.273 62.3082 65.3124 61.3582C65.3124 60.8984 65.347 60.5345 65.3568 60.2566C65.3672 60.1319 65.3887 60.0084 65.4209 59.8877V59.8877Z" fill="#263238"/>
<path d="M67.4776 104.862C67.318 103.69 67.2405 102.508 67.2458 101.324C67.1628 100.147 67.1628 98.9647 67.2458 97.7871C67.4055 98.959 67.4829 100.141 67.4776 101.324C67.5606 102.502 67.5606 103.684 67.4776 104.862V104.862Z" fill="#263238"/>
<path d="M57.556 52.4697L54.5725 55.815C54.5725 55.815 50.8098 56.7549 46.5589 58.2052C45.7048 58.5676 44.9419 59.1238 44.3278 59.8319C43.7136 60.54 43.2642 61.3815 43.0132 62.2933C42.6926 63.4 48.1123 90.2126 48.1123 90.2126L47.1753 97.934L44.2855 120.204C44.2855 120.204 49.2958 122.033 52.5111 122.164C54.321 122.24 54.6218 114.979 55.3862 109.946C56.121 105.084 58.0245 89.5203 58.0245 85.1846C58.0245 80.8489 57.1418 59.9536 57.1418 59.5039C57.1418 59.0541 57.556 52.4697 57.556 52.4697Z" fill="#8937C7"/>
<path d="M57.4421 91.6623C57.3915 91.5329 57.3519 91.3994 57.3237 91.2631C57.2498 90.975 57.1561 90.596 57.0328 90.116C56.7862 89.1053 56.4361 87.6449 56.012 85.8763C55.1687 82.2682 54.0394 77.3261 52.7375 71.8686C52.3824 70.3173 52.0323 68.8114 51.7019 67.3661V67.3257V67.2903L54.1676 61.0445L54.2613 61.191H51.84H51.6772L51.7611 61.0496C52.7474 59.3264 53.5611 57.9266 54.138 56.9311L54.7939 55.8194C54.8648 55.6857 54.9473 55.5589 55.0405 55.4404C54.9813 55.581 54.9138 55.7177 54.8383 55.8497L54.2219 56.9867C53.6695 57.9974 52.8854 59.4072 51.9238 61.1456L51.84 61.0041H54.2613H54.4191L54.3599 61.1557C53.6449 63.0254 52.8312 65.1377 51.9583 67.4167V67.3409C52.2937 68.7811 52.6389 70.2869 52.9989 71.8383L56.1994 85.8611C56.5939 87.6399 56.9144 89.0901 57.1413 90.121C57.2448 90.6263 57.3287 90.9952 57.3878 91.2833C57.4143 91.4082 57.4325 91.5348 57.4421 91.6623V91.6623Z" fill="#263238"/>
<path d="M70.6338 51.8633L72.5472 53.6471L83.5196 56.8306L83.6676 74.79L82.0303 92.7948L85.3886 119.673C81.5816 121.821 75.9006 121.361 75.9006 121.361L73.2918 105.655C72.8825 102.724 71.4573 82.9712 71.4573 82.9712L70.6338 51.8633Z" fill="#8937C7"/>
<path d="M74.5791 88.3426C74.5798 88.2085 74.593 88.0748 74.6186 87.9434C74.6629 87.6654 74.7172 87.2865 74.7862 86.8165C74.9391 85.8058 75.1512 84.4061 75.4125 82.6779C75.9057 79.181 76.5911 74.34 77.178 68.9784C77.4689 66.2952 77.7155 63.7382 77.9226 61.3985C78.0213 60.2363 78.11 59.1296 78.1988 58.0886C78.2382 57.5833 78.3171 57.0477 78.041 56.7142C77.8806 56.5749 77.6881 56.4799 77.4818 56.4384C77.2755 56.3968 77.0623 56.41 76.8624 56.4767C76.4572 56.5774 76.0415 56.6266 75.6246 56.6232C75.2469 56.5917 74.8827 56.465 74.5643 56.2543C74.0728 55.9069 73.6509 55.466 73.3216 54.9556C73.0454 54.5463 72.8285 54.2178 72.7298 53.9904C72.6571 53.8794 72.596 53.7608 72.5474 53.6367C72.6288 53.7407 72.703 53.8505 72.7693 53.9652C72.9123 54.1774 73.1145 54.5008 73.4005 54.895C73.7346 55.3814 74.1544 55.7996 74.6383 56.128C74.9362 56.3177 75.2747 56.4305 75.6246 56.4564C76.029 56.4539 76.4316 56.3996 76.8229 56.2947C77.0484 56.2486 77.2789 56.2333 77.5084 56.2493C77.7659 56.2662 78.0067 56.386 78.1791 56.5828C78.3457 56.7943 78.4347 57.0589 78.4306 57.3307C78.4355 57.5904 78.4256 57.8503 78.401 58.1089C78.3172 59.1448 78.2333 60.2565 78.1446 61.4188C77.9522 63.7534 77.7106 66.3154 77.4196 68.9987C76.8328 74.3652 76.1375 79.2063 75.5802 82.6981C75.2942 84.4415 75.0525 85.8513 74.875 86.8266C74.7862 87.2915 74.7123 87.6654 74.658 87.9434C74.6444 88.0787 74.6179 88.2124 74.5791 88.3426Z" fill="#263238"/>
<path d="M82.0059 69.4078C81.4151 69.5515 80.8071 69.6059 80.201 69.5695C79.596 69.6234 78.9867 69.5894 78.3911 69.4684C78.9846 69.3316 79.5935 69.2789 80.201 69.3118C80.804 69.2574 81.4115 69.2897 82.0059 69.4078V69.4078Z" fill="#263238"/>
<g opacity="0.3">
<path opacity="0.3" d="M83.9635 78.832C84.7011 77.8267 85.7672 77.1272 86.9668 76.8612C87.2578 76.8006 87.6424 76.8107 87.7558 77.0886C87.7841 77.2042 87.7802 77.3257 87.7445 77.4392C87.7087 77.5526 87.6426 77.6535 87.5536 77.7304L87.1838 78.1902C86.0327 79.3087 85.3059 80.8091 85.1323 82.4249C84.9074 81.6806 84.9154 80.8829 85.155 80.1435C85.3947 79.404 85.854 78.7599 86.4687 78.3014C85.295 78.5439 84.4024 79.4889 83.5888 80.3884C83.5177 80.1177 83.5148 79.8329 83.5803 79.5607C83.6459 79.2885 83.7777 79.0378 83.9635 78.832V78.832Z" fill="black"/>
</g>
<path d="M83.1351 80.8134C83.1351 80.8134 83.2732 80.591 83.5247 80.2626C83.8484 79.8291 84.2303 79.4446 84.6589 79.1205C85.0892 78.7986 85.5604 78.5385 86.0594 78.3474C86.4441 78.2059 86.6907 78.1503 86.6907 78.1301C86.6907 78.1099 86.6216 78.1301 86.5082 78.1301C86.3416 78.1606 86.177 78.2011 86.015 78.2514C84.9759 78.5982 84.0733 79.2785 83.4408 80.1918C83.3473 80.3298 83.2617 80.4732 83.1844 80.6213C83.1745 80.7477 83.1252 80.8083 83.1351 80.8134Z" fill="#263238"/>
<path d="M85.2804 83.4863C85.2804 83.4863 85.2804 83.1326 85.2804 82.5666C85.2997 82.2373 85.3409 81.9098 85.4037 81.5863C85.4882 81.1895 85.6003 80.7994 85.739 80.419C85.8897 80.0436 86.0677 79.6805 86.2716 79.3325C86.4415 79.0507 86.6293 78.7806 86.8338 78.524C87.1839 78.0894 87.4453 77.862 87.4354 77.8418C87.3658 77.8864 87.3012 77.9389 87.2431 77.9985C87.1839 78.049 87.11 78.1147 87.0311 78.1955C86.9522 78.2764 86.8634 78.3623 86.7746 78.4735C86.5574 78.7252 86.3595 78.9938 86.1829 79.2769C85.9727 79.6282 85.7913 79.9966 85.6404 80.3785C85.4947 80.7635 85.3825 81.1609 85.3051 81.5661C85.2449 81.8997 85.2102 82.2376 85.2015 82.5767C85.1939 82.7046 85.1939 82.8329 85.2015 82.9608C85.1954 83.0584 85.1954 83.1563 85.2015 83.2539C85.2185 83.3344 85.245 83.4124 85.2804 83.4863Z" fill="#263238"/>
<path d="M83.5103 64.1172C83.5242 64.2093 83.5242 64.303 83.5103 64.3951C83.5103 64.6124 83.5103 64.8752 83.5103 65.1986C83.4807 65.9364 83.4413 66.9369 83.3919 68.1547C83.2637 70.6814 83.0911 74.1075 82.8988 77.8975C82.7065 81.6874 82.4747 85.1085 82.3267 87.6351C82.2429 88.8479 82.1788 89.8485 82.1246 90.5812C82.1246 90.9046 82.0752 91.1724 82.0604 91.3846C82.0579 91.4789 82.043 91.5724 82.0161 91.6626C82.009 91.5684 82.009 91.4738 82.0161 91.3796C82.0161 91.1674 82.0161 90.8743 82.0161 90.5761C82.0456 89.8383 82.09 88.8378 82.1393 87.62C82.2676 85.0933 82.4402 81.6672 82.6325 77.8772C82.8248 74.0873 83.0517 70.6713 83.1996 68.1446C83.2835 66.9268 83.3525 65.9313 83.4018 65.1935C83.4314 64.8701 83.4511 64.6073 83.4708 64.3951C83.4738 64.3012 83.487 64.208 83.5103 64.1172V64.1172Z" fill="#263238"/>
<path d="M45.8832 58.877C45.8832 58.877 43.3879 59.8219 42.7073 63.718C42.0268 67.6141 37.7759 115.292 37.7759 115.292L44.9659 115.716L48.5018 89.7676L45.8832 58.877Z" fill="#8937C7"/>
<path d="M48.5015 90.3135C48.5755 90.3135 47.7864 96.3774 46.741 103.851C45.6955 111.325 44.7684 117.359 44.724 117.343C44.6796 117.328 45.444 111.28 46.4845 103.811C47.5251 96.342 48.4324 90.3034 48.5015 90.3135Z" fill="#263238"/>
<path d="M46.5492 67.5996C46.6232 67.5996 47.1163 72.6529 47.6538 78.9442C48.1914 85.2355 48.576 90.309 48.5021 90.3191C48.4281 90.3292 47.9399 85.2659 47.3974 78.9695C46.855 72.6731 46.4802 67.6047 46.5492 67.5996Z" fill="#263238"/>
<path d="M65.4216 60.135C65.2307 60.0045 65.0523 59.8556 64.889 59.6903L63.5033 58.4068L63.6562 58.3664C63.2123 59.6651 62.5959 61.3984 61.9104 63.3034L61.8315 63.5258L61.6885 63.3439L61.5899 63.2125C60.4283 61.7312 59.4356 60.1189 58.631 58.4068C58.3203 57.7499 58.0984 57.2041 57.9603 56.8251C57.8761 56.6307 57.8133 56.4274 57.7729 56.2188C57.8833 56.3982 57.9774 56.5876 58.054 56.7847C58.2217 57.1536 58.4634 57.6791 58.7938 58.3007C59.6427 59.9746 60.6502 61.5589 61.8019 63.0306L61.9006 63.1569L61.6786 63.1923C62.3691 61.2872 63.0052 59.564 63.4885 58.2805L63.5427 58.144L63.6414 58.2451L64.9679 59.5893C65.1387 59.7531 65.2909 59.9362 65.4216 60.135V60.135Z" fill="#263238"/>
<path d="M70.7128 54.9863C70.7367 55.1843 70.7367 55.3846 70.7128 55.5826C70.6734 56.0172 70.624 56.5579 70.5649 57.1946C70.4268 58.559 70.2147 60.4388 69.9731 62.5157V62.6774L69.9287 63.016L69.7364 62.733C68.5824 61.0351 67.5567 59.4938 66.8318 58.3872H66.9699L65.8899 59.4938C65.7637 59.6366 65.6232 59.7653 65.4707 59.8779C65.5684 59.7134 65.686 59.5623 65.8208 59.4282L66.8416 58.2608L66.9156 58.18L66.9797 58.271C67.7441 59.3524 68.7945 60.8734 69.9386 62.5763L69.7068 62.6319V62.4753C69.9534 60.3984 70.1999 58.5236 70.3725 57.1643C70.4662 56.5276 70.5402 55.9919 70.6043 55.5574C70.62 55.3635 70.6563 55.172 70.7128 54.9863Z" fill="#263238"/>
<path d="M43.6055 111.679C43.6055 111.679 43.6992 111.648 43.8619 111.679C44.0946 111.749 44.2922 111.908 44.4142 112.123C44.4986 112.27 44.5554 112.431 44.5819 112.598C44.6122 112.802 44.5812 113.01 44.4931 113.195C44.3941 113.405 44.2394 113.582 44.0466 113.706C43.8539 113.831 43.6309 113.897 43.4033 113.897C43.1764 113.862 42.9659 113.755 42.8014 113.591C42.6369 113.427 42.5266 113.214 42.486 112.983C42.4484 112.802 42.4558 112.615 42.5075 112.438C42.5593 112.262 42.6536 112.101 42.7819 111.972C42.9463 111.794 43.1659 111.679 43.4033 111.648C43.5709 111.648 43.6597 111.648 43.6548 111.684C43.3705 111.735 43.1106 111.881 42.9151 112.098C42.8175 112.213 42.7482 112.35 42.713 112.497C42.6779 112.645 42.6778 112.799 42.7129 112.947C42.751 113.123 42.8393 113.284 42.9666 113.409C43.0938 113.534 43.2544 113.618 43.4279 113.65C43.6053 113.645 43.7782 113.591 43.9284 113.494C44.0785 113.397 44.2004 113.261 44.2811 113.099C44.3485 112.964 44.3838 112.815 44.3838 112.664C44.3838 112.513 44.3485 112.364 44.2811 112.23C44.0049 111.729 43.5857 111.719 43.6055 111.679Z" fill="#263238"/>
<path d="M82.993 102.284C82.993 102.284 76.4096 102.79 76.6956 102.683L78.5892 106.342L84.724 105.897L82.993 102.284Z" fill="#8937C7"/>
<path d="M82.9932 102.284C83.0467 102.357 83.093 102.435 83.1313 102.517L83.4962 103.219C83.8316 103.886 84.2803 104.775 84.8179 105.852L84.882 105.988H84.734L78.5993 106.463H78.5155L78.476 106.387L78.407 106.256C77.7659 105.003 77.1495 103.815 76.5873 102.719L76.7303 102.779C76.7303 102.779 76.7796 102.779 76.7648 102.648C76.75 102.517 76.6859 102.582 76.6958 102.577H76.9818H77.3171L77.973 102.542L79.1862 102.476L81.1883 102.365L82.4902 102.304C82.6462 102.292 82.8028 102.292 82.9587 102.304C82.8076 102.348 82.652 102.373 82.4952 102.38L81.1982 102.507L79.201 102.673L77.9829 102.764L77.327 102.81H76.9917H76.8141H76.612C76.612 102.81 76.612 102.835 76.538 102.729C76.464 102.623 76.5873 102.597 76.5725 102.597H76.607L76.7007 102.567L76.75 102.658L78.5845 106.195L78.6536 106.332L78.5303 106.261L84.6699 105.842L84.5861 105.993L83.3779 103.361L83.0475 102.618C83.0164 102.509 82.9982 102.397 82.9932 102.284V102.284Z" fill="#263238"/>
<path d="M52.792 103.148L46.8249 102.284L45.5625 106.342L51.6578 107.246L52.792 103.148Z" fill="#8937C7"/>
<path d="M52.7925 103.148C52.7853 103.241 52.7671 103.333 52.7382 103.421L52.541 104.24C52.3634 104.952 52.1021 105.998 51.7569 107.272V107.358H51.6632L45.632 106.488H45.563H45.415L45.4594 106.337C45.9131 104.892 46.3471 103.522 46.7367 102.294L46.7663 102.198H46.86C48.6501 102.466 50.1542 102.704 51.1996 102.885L52.4078 103.093C52.545 103.108 52.6804 103.137 52.8122 103.179C52.8122 103.179 52.6396 103.179 52.3191 103.138L51.0763 102.992C50.021 102.86 48.5416 102.678 46.8057 102.436L46.9339 102.355C46.5493 103.588 46.1252 104.962 45.6813 106.398L45.5778 106.226H45.6468L51.673 107.13L51.5596 107.206C51.9097 105.988 52.2155 104.983 52.4325 104.27C52.5311 103.942 52.6149 103.669 52.6889 103.441C52.7157 103.341 52.7504 103.243 52.7925 103.148Z" fill="#263238"/>
<path d="M94.3146 62.1564C94.4261 62.2167 94.5243 62.2999 94.6032 62.4007C94.682 62.5016 94.7399 62.6179 94.7732 62.7425C94.8164 62.9364 94.7938 63.1397 94.7091 63.3186L91.9919 69.519L90.2215 73.1675L84.9941 71.8738L88.3722 63.2327C88.3722 63.2327 88.6483 62.0401 89.7135 62.0401H93.8658C94.0228 62.0378 94.1775 62.0779 94.3146 62.1564V62.1564Z" fill="#455A64"/>
<path d="M93.1318 63.7182H93.8123C93.8621 63.7171 93.9107 63.7025 93.9532 63.6758C93.9956 63.6492 94.0304 63.6115 94.054 63.5666C94.0763 63.524 94.0873 63.4763 94.0861 63.428C94.0849 63.3797 94.0714 63.3326 94.0471 63.2913C94.0227 63.25 93.9882 63.2159 93.947 63.1924C93.9059 63.1689 93.8595 63.1568 93.8123 63.1572H93.1318C93.0799 63.1572 93.0291 63.1724 92.9854 63.2011C92.9417 63.2297 92.9069 63.2706 92.8852 63.3189C92.8665 63.3616 92.8583 63.4084 92.8615 63.4551C92.8647 63.5018 92.8792 63.547 92.9036 63.5866C92.9281 63.6261 92.9617 63.6589 93.0015 63.6818C93.0414 63.7048 93.0861 63.7173 93.1318 63.7182Z" fill="white"/>
<path d="M94.0241 79.4391C94.2115 79.0348 93.5309 78.4285 93.5309 78.4285C93.5309 78.4285 92.7024 74.3303 93.0378 73.6329C93.3731 72.9356 93.2055 72.0765 93.2646 70.6313C93.3238 69.186 93.8367 68.6706 93.8367 68.6706C93.8367 68.6706 93.8811 67.7458 93.9945 66.998C94.0527 66.5273 93.9327 66.0517 93.6591 65.6689L92.0022 69.5398L91.731 69.1911C91.0057 68.0762 90.0942 67.1012 89.0384 66.3107C88.5058 66.0176 88.1014 66.5634 87.9485 66.9878C87.7957 67.4123 88.4072 68.1501 88.7869 68.4179C89.1666 68.6857 89.7732 70.4039 89.9951 71.0305C90.217 71.6571 89.9951 71.7935 89.6104 72.0411C89.2258 72.2887 87.7611 71.0305 87.051 70.7323C86.4178 70.3693 85.8438 69.9073 85.3497 69.3629C85.2155 69.2579 85.0556 69.1929 84.8877 69.1751C84.7197 69.1573 84.5503 69.1873 84.3979 69.2618C83.8406 69.5195 84.0922 70.6313 84.0922 70.6313C83.2094 71.3185 83.668 72.6526 83.668 72.6526C83.668 72.6526 82.7853 72.7233 82.7261 73.0265C82.667 73.3297 82.9678 74.9569 83.4609 75.351C83.9541 75.7452 86.0647 77.2611 86.0647 77.2611C86.5359 77.9947 87.1943 78.5819 87.9683 78.959L88.3825 81.0865C89.2873 81.358 90.2491 81.358 91.154 81.0865C92.2262 80.7823 93.2109 80.2172 94.0241 79.4391V79.4391Z" fill="#FFBE9D"/>
<path d="M84.0967 70.5049C84.0967 70.5049 84.0967 70.5049 84.0967 70.5605C84.0902 70.6125 84.0902 70.6651 84.0967 70.7171C84.1282 70.9103 84.2024 71.0935 84.3137 71.2528C84.4769 71.4854 84.6749 71.69 84.9005 71.8592C85.152 72.0512 85.4381 72.2382 85.7487 72.4302C86.277 72.7492 86.8276 73.0279 87.3958 73.264C87.6128 73.3499 87.7953 73.4156 87.9186 73.456L88.1158 73.5116C88.1158 73.5116 87.8495 73.3903 87.4254 73.1932C86.8668 72.9403 86.3234 72.6534 85.7981 72.3342C85.2573 72.055 84.7736 71.6725 84.3729 71.2073C84.2209 71.0028 84.1255 70.7602 84.0967 70.5049V70.5049Z" fill="#EB996E"/>
<path d="M83.7026 72.6577C83.8039 72.8268 83.9266 72.9814 84.0676 73.1175C84.3927 73.4632 84.755 73.77 85.1475 74.0322C85.5409 74.2942 85.963 74.5079 86.4051 74.6689C86.5849 74.7463 86.7739 74.799 86.9673 74.8255C86.9673 74.8255 86.7601 74.7396 86.4347 74.5981C86.0059 74.4196 85.5947 74.1997 85.2067 73.9412C84.8199 73.6842 84.4567 73.3916 84.1218 73.067C83.8604 72.8143 83.7125 72.6476 83.7026 72.6577Z" fill="#EB996E"/>
<path d="M92.2387 72.6778C92.3677 72.5731 92.4553 72.4241 92.4853 72.2583C92.5533 71.8662 92.5432 71.4639 92.4557 71.0759C92.3979 70.6867 92.3156 70.3019 92.2091 69.9237C92.1745 69.7639 92.1198 69.6093 92.0464 69.4639C92.0638 69.6264 92.0951 69.787 92.1401 69.9439C92.2042 70.237 92.288 70.6413 92.3571 71.091C92.4384 71.4692 92.4567 71.8587 92.4113 72.2432C92.3738 72.3956 92.3157 72.5418 92.2387 72.6778V72.6778Z" fill="#EB996E"/>
<path d="M90.1472 74.487C90.1472 74.487 90.2114 74.487 90.3149 74.487C90.4478 74.4415 90.5599 74.3481 90.6305 74.2242C90.6998 74.1003 90.7243 73.9554 90.6996 73.8149C90.6996 73.7088 90.6355 73.6532 90.6207 73.6633C90.6405 73.836 90.6132 74.0109 90.5418 74.1686C90.3938 74.4162 90.1374 74.4566 90.1472 74.487Z" fill="#EB996E"/>
<path d="M88.3965 76.104C88.3965 76.104 88.4754 76.1444 88.6085 76.104C88.7824 76.0786 88.9424 75.993 89.0622 75.8615C89.182 75.7304 89.2535 75.5606 89.2644 75.3814C89.2644 75.245 89.2644 75.1641 89.2299 75.1692C89.1954 75.1742 89.2299 75.25 89.1954 75.3713C89.1621 75.5268 89.0908 75.6711 88.9883 75.7907C88.8783 75.9037 88.7428 75.9871 88.5937 76.0333C88.5257 76.0496 88.4596 76.0733 88.3965 76.104V76.104Z" fill="#EB996E"/>
<path d="M86.8779 77.0637C86.8779 77.0637 86.942 77.094 87.0456 77.0637C87.1791 77.0201 87.2962 76.9354 87.3809 76.8211C87.4666 76.7065 87.5134 76.5663 87.5141 76.4219C87.5141 76.3108 87.4796 76.2501 87.4697 76.2552C87.4508 76.435 87.3917 76.6079 87.2971 76.7605C87.1823 76.8936 87.0388 76.9974 86.8779 77.0637Z" fill="#EB996E"/>
<path d="M87.978 79.0547C88.0878 79.1298 88.2097 79.1846 88.338 79.2164C88.6397 79.3185 88.9478 79.3996 89.2602 79.4589C89.5716 79.5151 89.8862 79.5505 90.2021 79.5651C90.3328 79.5859 90.4659 79.5859 90.5966 79.5651C90.5966 79.5347 89.9999 79.5095 89.2799 79.373C88.5599 79.2366 87.9879 79.0244 87.978 79.0547Z" fill="#EB996E"/>
<path d="M86.3501 70.3481L86.4044 70.2217L86.5424 69.8478L87.0356 68.4632C87.4547 67.2807 88.0219 65.6637 88.6432 63.8849C88.762 63.4469 89.0164 63.0603 89.3681 62.7833C89.7405 62.5994 90.1551 62.5242 90.5665 62.566L92.7018 62.5913H94.1418H94.5166C94.5623 62.5987 94.6089 62.5987 94.6546 62.5913H94.5166H94.127L92.687 62.5508L90.5517 62.5054C90.3448 62.4904 90.1372 62.4904 89.9303 62.5054C89.7086 62.5269 89.4945 62.5995 89.304 62.7176C88.9291 63.0016 88.6568 63.4051 88.5298 63.8647C87.9084 65.6586 87.3512 67.2807 86.9517 68.4581L86.4882 69.8528C86.4339 70.0095 86.3945 70.1358 86.3649 70.2318C86.3548 70.2697 86.3498 70.3088 86.3501 70.3481V70.3481Z" fill="#263238"/>
<path d="M220.989 223.068C220.989 223.139 175.62 223.199 119.672 223.199C63.7253 223.199 18.3462 223.139 18.3462 223.068C18.3462 222.997 63.7154 222.932 119.672 222.932C175.629 222.932 220.989 222.992 220.989 223.068Z" fill="#263238"/>
</g>
<defs>
<clipPath id="clip0_1041_5236">
<rect width="243" height="223" fill="white"/>
</clipPath>
</defs>
</svg>
