<svg width="243" height="223" viewBox="0 0 243 223" fill="none" xmlns="http://www.w3.org/2000/svg">
<path d="M57.348 197.775C97.4357 219.676 162.432 219.676 202.519 197.775C242.607 175.873 242.613 140.353 202.519 118.452C162.426 96.5503 97.4357 96.5445 57.348 118.452C17.2603 140.359 17.2603 175.867 57.348 197.775Z" fill="#EBEBEB"/>
<path d="M214.311 143.434L208.463 139.954C208.463 139.954 207.03 127.13 207.982 117.2C209.324 103.239 218.13 86.459 228.629 90.3915C239.128 94.324 223.807 108.575 220.407 120.407C217.008 132.24 214.311 143.434 214.311 143.434Z" fill="#BA68C8"/>
<path opacity="0.1" d="M214.311 143.434L208.463 139.954C208.463 139.954 207.03 127.13 207.982 117.2C209.324 103.239 218.13 86.459 228.629 90.3915C239.128 94.324 223.807 108.575 220.407 120.407C217.008 132.24 214.311 143.434 214.311 143.434Z" fill="black"/>
<path d="M211.268 141.863C211.213 141.863 211.16 141.844 211.118 141.807C211.077 141.771 211.049 141.721 211.041 141.665C209.052 126.005 214.497 102.335 225.489 93.356C225.512 93.3372 225.538 93.3232 225.566 93.3148C225.594 93.3064 225.623 93.3038 225.652 93.307C225.681 93.3102 225.709 93.3193 225.735 93.3337C225.76 93.348 225.783 93.3674 225.801 93.3908C225.838 93.4385 225.856 93.4995 225.849 93.5603C225.843 93.6212 225.813 93.677 225.767 93.7156C214.894 102.601 209.517 126.086 211.489 141.602C211.497 141.662 211.481 141.724 211.445 141.773C211.409 141.822 211.355 141.854 211.296 141.863H211.268Z" fill="white"/>
<path d="M217.432 145.91L213.273 143.445C213.273 143.445 212.565 134.646 216.781 123.957C220.447 114.676 229.552 106.927 234.13 108.551C238.708 110.175 238.595 113.499 236.363 116.985C234.13 120.471 220.549 128.782 217.432 145.91Z" fill="#BA68C8"/>
<path d="M214.854 146.137C214.825 146.136 214.796 146.128 214.769 146.115C214.743 146.102 214.719 146.083 214.699 146.061C214.68 146.038 214.665 146.011 214.655 145.983C214.646 145.954 214.642 145.924 214.645 145.893C216.016 123.992 226.838 113.221 233.343 111.58C233.401 111.565 233.463 111.575 233.515 111.606C233.567 111.638 233.605 111.688 233.621 111.748C233.634 111.807 233.625 111.869 233.594 111.922C233.563 111.974 233.514 112.011 233.456 112.026C226.606 113.766 216.384 125.425 215.104 145.922C215.102 145.953 215.093 145.984 215.08 146.011C215.066 146.039 215.047 146.064 215.023 146.084C215 146.104 214.973 146.119 214.944 146.128C214.915 146.137 214.885 146.14 214.854 146.137Z" fill="white"/>
<path d="M45.8917 145.139C45.8917 145.139 46.668 132.28 39.37 123.464C32.0721 114.647 22.57 114.682 19.4253 116.324C16.2807 117.965 14.1672 122.657 19.5783 126.016C24.9895 129.374 36.4973 136.096 38.4125 142.094L45.8917 145.139Z" fill="#BA68C8"/>
<path opacity="0.1" d="M45.8917 145.139C45.8917 145.139 46.668 132.28 39.37 123.464C32.0721 114.647 22.57 114.682 19.4253 116.324C16.2807 117.965 14.1672 122.657 19.5783 126.016C24.9895 129.374 36.4973 136.096 38.4125 142.094L45.8917 145.139Z" fill="black"/>
<path d="M42.4574 141.92C42.3873 141.919 42.3199 141.892 42.2678 141.844C42.2156 141.796 42.1823 141.73 42.1741 141.659C40.6726 127.431 26.7793 119.549 21.2435 118.656C21.2063 118.65 21.1705 118.637 21.1383 118.617C21.1061 118.597 21.078 118.571 21.0556 118.54C21.0332 118.509 21.0171 118.474 21.008 118.436C20.9989 118.399 20.9971 118.36 21.0027 118.322C21.0083 118.284 21.0211 118.247 21.0405 118.214C21.0599 118.181 21.0855 118.153 21.1157 118.13C21.146 118.107 21.1803 118.09 21.2168 118.081C21.2533 118.072 21.2913 118.07 21.3285 118.076C26.9946 118.986 41.1995 127.048 42.7407 141.595C42.7446 141.633 42.7411 141.672 42.7304 141.709C42.7197 141.745 42.7019 141.779 42.6782 141.809C42.6545 141.839 42.6253 141.863 42.5923 141.881C42.5592 141.899 42.523 141.911 42.4857 141.914L42.4574 141.92Z" fill="white"/>
<path d="M39.7549 138.654C37.9247 134.385 35.8566 132.471 29.9072 133.492C23.9578 134.513 24.8077 134.356 17.5268 132.448C14.4557 131.648 11.0051 131.52 8.05869 132.877C5.57127 134.037 3.71279 136.357 6.12088 138.828C8.82928 141.589 12.8692 142.535 15.8609 144.965C16.5396 145.456 17.0792 146.122 17.4248 146.896C18.2124 148.95 16.6372 151.264 17.0961 153.416C17.5551 155.568 19.7649 156.716 21.8387 156.855C23.9125 156.994 25.9579 156.356 28.0261 156.113C30.0942 155.869 32.4173 156.113 33.8451 157.685C35.375 159.349 35.4147 162.011 36.8368 163.781C38.9673 166.431 44.2028 167.168 47.0358 165.521L54.4528 161.141C59.354 154.378 51.6197 149.019 47.5685 143.77C45.6023 141.212 40.8541 141.224 39.7549 138.654Z" fill="#BA68C8"/>
<path d="M49.858 157.058C49.8098 157.059 49.7621 157.047 49.7202 157.023C49.6783 156.998 49.6437 156.962 49.62 156.919C41.1605 142.889 18.1278 135.789 9.97995 135.209C9.90578 135.203 9.83687 135.168 9.7881 135.11C9.73933 135.053 9.71462 134.978 9.71931 134.902C9.72512 134.825 9.75967 134.754 9.81569 134.703C9.8717 134.653 9.94481 134.626 10.0196 134.629C18.2751 135.209 41.5288 142.413 50.1017 156.629C50.1396 156.696 50.1508 156.775 50.1328 156.849C50.1148 156.924 50.0691 156.989 50.0053 157.029C49.959 157.05 49.9086 157.06 49.858 157.058V157.058Z" fill="white"/>
<path d="M23.0626 150.446C23.0185 150.447 22.9748 150.437 22.9353 150.417C22.8958 150.397 22.8617 150.367 22.836 150.33C22.7909 150.269 22.7715 150.191 22.7821 150.115C22.7928 150.039 22.8325 149.97 22.8926 149.924C23.1873 149.698 30.2132 144.42 37.0579 144.315C37.0948 144.315 37.1315 144.321 37.1659 144.335C37.2002 144.349 37.2315 144.37 37.2579 144.397C37.2843 144.423 37.3052 144.455 37.3195 144.49C37.3338 144.524 37.3412 144.562 37.3412 144.6C37.3419 144.638 37.3354 144.676 37.3218 144.711C37.3083 144.747 37.288 144.779 37.2622 144.806C37.2365 144.834 37.2056 144.856 37.1715 144.871C37.1375 144.886 37.1008 144.895 37.0636 144.896C30.4172 144.994 23.3176 150.336 23.2439 150.388C23.1928 150.43 23.128 150.451 23.0626 150.446V150.446Z" fill="white"/>
<path d="M49.3311 161.988C49.3916 162.831 49.6452 163.648 50.0715 164.373C50.4977 165.097 51.0845 165.709 51.7845 166.158L120.531 206.788C121.292 207.183 122.132 207.389 122.985 207.389C123.837 207.389 124.678 207.183 125.438 206.788L219.496 151.194C220.237 150.793 220.857 150.193 221.29 149.458C221.723 148.723 221.952 147.882 221.952 147.023C221.952 146.165 221.723 145.323 221.29 144.589C220.857 143.854 220.237 143.254 219.496 142.853L150.754 102.252C149.994 101.857 149.154 101.651 148.301 101.651C147.448 101.651 146.608 101.857 145.848 102.252L51.7845 157.829C51.086 158.277 50.5001 158.887 50.0739 159.609C49.6478 160.332 49.3933 161.146 49.3311 161.988V161.988Z" fill="#37474F"/>
<path d="M77.6951 142.505L51.784 157.829C51.0426 158.229 50.4221 158.829 49.9892 159.564C49.5564 160.299 49.3276 161.141 49.3276 161.999C49.3276 162.857 49.5564 163.699 49.9892 164.434C50.4221 165.169 51.0426 165.769 51.784 166.17L120.531 206.8C121.287 207.204 122.132 207.404 122.984 207.38V142.505H77.6951Z" fill="#263238"/>
<path d="M47.0246 157.91C46.3417 157.433 45.7778 156.799 45.3782 156.059C44.9786 155.318 44.7546 154.492 44.7241 153.647V69.6663C44.7697 68.7947 45.0157 67.9464 45.442 67.1905C45.8684 66.4346 46.463 65.7924 47.1775 65.3162L141.235 9.72169C141.945 9.26583 142.763 9.0166 143.601 9.0008C144.439 8.985 145.265 9.20321 145.991 9.632C146.717 10.0608 147.315 10.6839 147.721 11.4345C148.127 12.1851 148.325 13.0346 148.295 13.892V97.8782C148.248 98.7496 148.002 99.5975 147.576 100.353C147.15 101.109 146.555 101.751 145.841 102.228L51.7841 157.829C51.0526 158.223 50.2406 158.437 49.4138 158.451C48.587 158.465 47.7685 158.28 47.0246 157.91V157.91Z" fill="#455A64"/>
<path d="M56.2378 73.5706L45.4439 67.1904C45.014 67.9432 44.7781 68.7954 44.7583 69.6671V153.648C44.7887 154.493 45.0128 155.319 45.4124 156.06C45.8119 156.8 46.3759 157.434 47.0587 157.911C47.8028 158.278 48.6207 158.46 49.4465 158.444C50.2722 158.428 51.0828 158.214 51.8126 157.818L62.5442 151.478L56.2378 73.5706Z" fill="#263238"/>
<path d="M49.3311 72.3927V156.367C49.3311 157.968 50.4303 158.618 51.7845 157.817L145.842 102.229C146.556 101.752 147.15 101.109 147.576 100.354C148.002 99.5979 148.249 98.75 148.295 97.8786V13.8982C148.295 12.2974 147.196 11.6477 145.842 12.4482L51.7845 68.0426C51.0699 68.5189 50.4753 69.1611 50.049 69.917C49.6227 70.6729 49.3767 71.5211 49.3311 72.3927V72.3927Z" fill="#37474F"/>
<path d="M51.7841 160.728L120.531 201.329C121.291 201.724 122.132 201.93 122.984 201.93C123.837 201.93 124.677 201.724 125.438 201.329L219.495 145.735C220.855 144.934 220.855 143.635 219.495 142.835L150.754 102.233C149.994 101.839 149.153 101.633 148.301 101.633C147.448 101.633 146.607 101.839 145.847 102.233L51.7841 157.828C50.4242 158.617 50.4242 159.916 51.7841 160.728Z" fill="#455A64"/>
<path d="M53.1041 72.6998L144.527 18.6714C145.337 18.19 146 18.5786 146 19.5414V92.2347C145.971 92.7575 145.823 93.2661 145.567 93.7195C145.311 94.1729 144.955 94.5583 144.527 94.8448L53.1041 148.873C52.2881 149.355 51.6309 148.966 51.6309 148.003V75.3099C51.6581 74.7867 51.8057 74.2776 52.0618 73.824C52.3178 73.3704 52.6749 72.9852 53.1041 72.6998V72.6998Z" fill="white"/>
<path d="M59.7625 158.542L147.072 106.921C147.452 106.724 147.872 106.621 148.298 106.621C148.724 106.621 149.145 106.724 149.525 106.921L153.996 109.56C154.144 109.612 154.272 109.709 154.363 109.839C154.454 109.969 154.503 110.125 154.503 110.285C154.503 110.445 154.454 110.601 154.363 110.731C154.272 110.861 154.144 110.959 153.996 111.01L66.6695 162.626C66.2892 162.823 65.869 162.926 65.4428 162.926C65.0165 162.926 64.5963 162.823 64.216 162.626L59.7625 159.992C59.6145 159.941 59.4859 159.843 59.3949 159.713C59.3038 159.583 59.2549 159.427 59.2549 159.267C59.2549 159.107 59.3038 158.951 59.3949 158.821C59.4859 158.691 59.6145 158.594 59.7625 158.542V158.542Z" fill="#263238"/>
<path d="M71.2761 165.369L158.58 113.747C158.961 113.55 159.382 113.447 159.809 113.447C160.236 113.447 160.657 113.55 161.039 113.747L188.502 129.988C188.65 130.039 188.779 130.137 188.87 130.267C188.961 130.397 189.01 130.553 189.01 130.713C189.01 130.873 188.961 131.029 188.87 131.159C188.779 131.289 188.65 131.386 188.502 131.438L101.295 182.955C100.914 183.152 100.493 183.255 100.066 183.255C99.6385 183.255 99.2173 183.152 98.8361 182.955L71.2761 166.79C71.1352 166.735 71.0139 166.638 70.9283 166.511C70.8427 166.384 70.7969 166.233 70.7969 166.079C70.7969 165.925 70.8427 165.774 70.9283 165.647C71.0139 165.521 71.1352 165.423 71.2761 165.369V165.369Z" fill="#263238"/>
<path d="M149.536 136.948L152.273 135.33C152.386 135.261 152.38 135.15 152.273 135.075L149.111 133.207C149.044 133.172 148.969 133.153 148.893 133.153C148.817 133.153 148.742 133.172 148.675 133.207L145.944 134.825C145.825 134.895 145.83 135.005 145.944 135.081L149.105 136.948C149.172 136.983 149.246 137.001 149.321 137.001C149.395 137.001 149.469 136.983 149.536 136.948ZM144.142 130.568L141.411 132.186C141.292 132.25 141.297 132.366 141.411 132.442L144.572 134.309C144.64 134.345 144.715 134.363 144.791 134.363C144.867 134.363 144.941 134.345 145.009 134.309L147.746 132.691C147.859 132.621 147.853 132.505 147.746 132.436L144.578 130.568C144.511 130.533 144.436 130.514 144.36 130.514C144.284 130.514 144.209 130.533 144.142 130.568ZM135.314 135.788L130.685 138.52C130.572 138.59 130.577 138.706 130.685 138.781L133.847 140.649C133.914 140.684 133.989 140.703 134.065 140.703C134.141 140.703 134.215 140.684 134.283 140.649L138.906 137.917C139.025 137.847 139.014 137.731 138.906 137.662L135.745 135.788C135.678 135.753 135.604 135.734 135.529 135.734C135.454 135.734 135.381 135.753 135.314 135.788ZM140.147 132.929L137.416 134.547C137.297 134.617 137.303 134.733 137.416 134.802L140.578 136.67C140.645 136.706 140.72 136.724 140.796 136.724C140.872 136.724 140.947 136.706 141.014 136.67L143.751 135.052C143.864 134.982 143.859 134.872 143.751 134.796L140.584 132.888C140.516 132.853 140.441 132.834 140.365 132.834C140.289 132.834 140.215 132.853 140.147 132.888V132.929ZM129.421 139.268L126.69 140.881C126.571 140.95 126.583 141.066 126.69 141.142L129.852 143.01C129.919 143.044 129.993 143.062 130.067 143.062C130.142 143.062 130.216 143.044 130.283 143.01L133.019 141.391C133.133 141.322 133.127 141.206 133.019 141.136L129.858 139.268C129.79 139.233 129.715 139.214 129.639 139.214C129.564 139.214 129.489 139.233 129.421 139.268V139.268ZM125.455 141.629L122.724 143.247C122.605 143.311 122.616 143.427 122.724 143.503L125.886 145.37C125.953 145.406 126.028 145.424 126.104 145.424C126.18 145.424 126.254 145.406 126.322 145.37L129.059 143.752C129.172 143.682 129.166 143.566 129.059 143.497L125.863 141.588C125.796 141.553 125.721 141.534 125.645 141.534C125.569 141.534 125.494 141.553 125.427 141.588L125.455 141.629ZM137.892 149.227L140.623 147.609C140.742 147.539 140.731 147.429 140.623 147.354L137.462 145.486C137.395 145.451 137.321 145.432 137.246 145.432C137.171 145.432 137.097 145.451 137.031 145.486L134.294 147.104C134.181 147.174 134.186 147.284 134.294 147.36L137.456 149.227C137.522 149.254 137.592 149.265 137.663 149.26C137.734 149.255 137.802 149.234 137.864 149.198L137.892 149.227ZM133.892 151.588L136.629 149.97C136.742 149.906 136.736 149.79 136.629 149.714L133.467 147.847C133.399 147.811 133.325 147.793 133.249 147.793C133.173 147.793 133.098 147.811 133.031 147.847L130.3 149.465C130.181 149.535 130.192 149.651 130.3 149.72L133.461 151.588C133.526 151.614 133.596 151.625 133.666 151.62C133.735 151.615 133.803 151.594 133.864 151.559L133.892 151.588ZM129.897 153.949L132.634 152.336C132.747 152.267 132.742 152.151 132.634 152.075L129.472 150.207C129.404 150.173 129.33 150.155 129.254 150.155C129.178 150.155 129.104 150.173 129.036 150.207L126.305 151.826C126.186 151.895 126.197 152.011 126.305 152.081L129.461 153.949C129.527 153.975 129.598 153.986 129.668 153.981C129.739 153.976 129.807 153.955 129.869 153.92L129.897 153.949ZM125.931 156.309L128.668 154.697C128.781 154.627 128.775 154.511 128.668 154.436L125.506 152.568C125.439 152.533 125.364 152.514 125.288 152.514C125.212 152.514 125.137 152.533 125.07 152.568L122.339 154.181C122.22 154.25 122.225 154.366 122.339 154.442L125.5 156.309C125.624 156.35 125.758 156.34 125.874 156.28L125.931 156.309ZM145.598 139.35L148.335 137.731C148.448 137.668 148.442 137.552 148.335 137.476L145.173 135.609C145.105 135.574 145.031 135.556 144.955 135.556C144.879 135.556 144.805 135.574 144.737 135.609L142.006 137.227C141.887 137.296 141.892 137.412 142.006 137.482L145.167 139.35C145.228 139.371 145.293 139.379 145.357 139.374C145.422 139.369 145.484 139.351 145.541 139.321L145.598 139.35ZM141.915 146.89L148.012 143.282C148.125 143.218 148.119 143.102 148.012 143.027L140.334 138.491C140.267 138.456 140.192 138.437 140.116 138.437C140.04 138.437 139.965 138.456 139.898 138.491L136.748 140.359C136.629 140.423 136.64 140.539 136.748 140.614L140.816 143.015C140.941 143.091 140.946 143.207 140.816 143.276L138.249 144.703C138.136 144.767 138.141 144.883 138.249 144.958L141.422 146.809C141.487 146.849 141.561 146.872 141.637 146.877C141.713 146.882 141.789 146.869 141.858 146.838L141.915 146.89ZM121.489 143.99L118.758 145.608C118.639 145.678 118.644 145.788 118.758 145.863L121.919 147.731C121.987 147.766 122.062 147.785 122.138 147.785C122.213 147.785 122.288 147.766 122.356 147.731L125.092 146.113C125.206 146.043 125.2 145.933 125.092 145.857L121.931 143.99C121.858 143.938 121.773 143.908 121.685 143.903C121.597 143.898 121.51 143.918 121.432 143.961L121.489 143.99ZM117.522 146.35L114.701 147.969C114.587 148.038 114.593 148.154 114.701 148.224L117.862 150.091C117.93 150.127 118.005 150.146 118.081 150.146C118.156 150.146 118.231 150.127 118.299 150.091L121.035 148.473C121.149 148.409 121.143 148.293 121.035 148.218L117.851 146.333C117.787 146.299 117.717 146.281 117.646 146.279C117.574 146.277 117.503 146.291 117.437 146.321L117.522 146.35ZM97.4531 172.799C97.5206 172.835 97.5954 172.853 97.6713 172.853C97.7472 172.853 97.822 172.835 97.8894 172.799L100.626 171.181C100.739 171.117 100.734 171.001 100.626 170.926L97.4531 169.07C97.3857 169.034 97.3109 169.015 97.235 169.015C97.1591 169.015 97.0843 169.034 97.0168 169.07L94.2858 170.688C94.1668 170.757 94.1725 170.873 94.2858 170.943L97.4531 172.799ZM85.458 165.213L82.7213 166.831C82.6079 166.9 82.6136 167.011 82.7213 167.086L85.8829 168.954C85.9504 168.989 86.0252 169.008 86.1011 169.008C86.177 169.008 86.2518 168.989 86.3192 168.954L89.056 167.335C89.1693 167.266 89.1636 167.156 89.056 167.08L85.8943 165.213C85.829 165.18 85.7573 165.163 85.6846 165.163C85.6119 165.163 85.5402 165.18 85.475 165.213H85.458ZM91.889 170.752C91.9565 170.787 92.0313 170.806 92.1072 170.806C92.1831 170.806 92.2579 170.787 92.3253 170.752L95.0564 169.133C95.1754 169.07 95.164 168.954 95.0564 168.878L91.9003 167.011C91.8329 166.975 91.7581 166.956 91.6822 166.956C91.6063 166.956 91.5315 166.975 91.4641 167.011L88.7273 168.629C88.614 168.698 88.6197 168.814 88.7273 168.884L91.889 170.752ZM104.507 174.232L107.244 172.613C107.357 172.544 107.352 172.434 107.244 172.358L104.082 170.491C104.015 170.455 103.94 170.436 103.864 170.436C103.788 170.436 103.714 170.455 103.646 170.491L100.915 172.109C100.796 172.173 100.807 172.289 100.915 172.364L104.071 174.232C104.14 174.271 104.218 174.292 104.297 174.293C104.376 174.294 104.454 174.275 104.524 174.238L104.507 174.232ZM100.077 176.552C100.144 176.587 100.219 176.606 100.295 176.606C100.371 176.606 100.445 176.587 100.513 176.552L103.25 174.934C103.363 174.87 103.357 174.754 103.25 174.678L100.088 172.811C100.02 172.775 99.9456 172.757 99.8697 172.757C99.7938 172.757 99.719 172.775 99.6516 172.811L96.9205 174.429C96.8015 174.499 96.8072 174.615 96.9205 174.684L100.077 176.552ZM89.4526 162.817L86.7215 164.435C86.6025 164.499 86.6082 164.615 86.7215 164.69L89.8832 166.558C89.9507 166.594 90.0255 166.612 90.1014 166.612C90.1773 166.612 90.2521 166.594 90.3195 166.558L93.0562 164.94C93.1696 164.87 93.1639 164.754 93.0562 164.685L89.8945 162.817C89.8259 162.789 89.7518 162.777 89.678 162.783C89.6043 162.789 89.5329 162.813 89.4696 162.852L89.4526 162.817ZM109.431 151.014L106.695 152.626C106.581 152.696 106.587 152.812 106.695 152.881L109.856 154.755C109.924 154.789 109.999 154.807 110.074 154.807C110.15 154.807 110.225 154.789 110.293 154.755L113.024 153.142C113.143 153.073 113.137 152.957 113.024 152.881L109.862 151.014C109.795 150.987 109.723 150.977 109.651 150.983C109.58 150.989 109.51 151.011 109.448 151.049L109.431 151.014ZM93.4869 160.491L90.7558 162.104C90.6368 162.173 90.6425 162.289 90.7558 162.365L93.9175 164.232C93.9853 164.267 94.06 164.284 94.1356 164.284C94.2113 164.284 94.2859 164.267 94.3538 164.232L97.0905 162.614C97.2038 162.544 97.1982 162.428 97.0905 162.359L93.9288 160.485C93.8598 160.451 93.7839 160.434 93.7072 160.435C93.6304 160.436 93.555 160.455 93.4869 160.491V160.491ZM113.466 148.682L110.706 150.289C110.593 150.358 110.598 150.474 110.706 150.544L113.868 152.412C113.935 152.447 114.01 152.466 114.086 152.466C114.162 152.466 114.237 152.447 114.304 152.412L117.035 150.799C117.154 150.73 117.149 150.614 117.035 150.538L113.885 148.694C113.817 148.657 113.742 148.636 113.665 148.634C113.588 148.632 113.512 148.649 113.443 148.682H113.466ZM105.476 153.409L102.74 155.022C102.626 155.091 102.632 155.207 102.74 155.283L105.901 157.15C105.969 157.185 106.044 157.202 106.119 157.202C106.195 157.202 106.27 157.185 106.338 157.15L109.069 155.538C109.188 155.468 109.176 155.352 109.069 155.277L105.913 153.409C105.842 153.371 105.763 153.351 105.683 153.351C105.603 153.351 105.524 153.371 105.454 153.409H105.476ZM101.476 155.77L98.745 157.382C98.626 157.452 98.6373 157.568 98.745 157.643L101.907 159.511C101.975 159.545 102.049 159.563 102.125 159.563C102.2 159.563 102.275 159.545 102.343 159.511L105.074 157.899C105.187 157.829 105.182 157.713 105.074 157.638L101.912 155.77C101.842 155.732 101.763 155.712 101.683 155.712C101.603 155.712 101.524 155.732 101.453 155.77H101.476ZM97.4531 158.131L94.7221 159.743C94.6031 159.813 94.6144 159.929 94.7221 160.004L97.8781 161.872C97.9455 161.907 98.0203 161.926 98.0962 161.926C98.1721 161.926 98.2469 161.907 98.3144 161.872L101.051 160.259C101.164 160.19 101.159 160.074 101.051 159.998L97.8894 158.131C97.8216 158.096 97.7469 158.078 97.6713 158.078C97.5956 158.078 97.521 158.096 97.4531 158.131ZM117.879 161.031L120.611 159.418C120.729 159.349 120.724 159.233 120.611 159.157L117.443 157.249C117.375 157.215 117.301 157.197 117.225 157.197C117.149 157.197 117.075 157.215 117.007 157.249L114.27 158.861C114.157 158.931 114.162 159.047 114.27 159.122L117.432 160.99C117.5 161.03 117.578 161.053 117.657 161.055C117.736 161.057 117.815 161.038 117.885 161.002L117.879 161.031ZM152.981 125.348L150.244 126.966C150.131 127.036 150.137 127.146 150.244 127.222L153.406 129.089C153.473 129.125 153.548 129.143 153.624 129.143C153.7 129.143 153.775 129.125 153.842 129.089L156.573 127.471C156.692 127.401 156.687 127.291 156.573 127.216L153.412 125.348C153.345 125.313 153.271 125.295 153.196 125.295C153.121 125.295 153.048 125.313 152.981 125.348ZM148.142 128.208L145.411 129.826C145.292 129.89 145.303 130.006 145.411 130.081L148.567 131.949C148.635 131.983 148.71 132.001 148.785 132.001C148.861 132.001 148.936 131.983 149.003 131.949L151.74 130.33C151.853 130.261 151.848 130.145 151.74 130.075L148.578 128.208C148.513 128.166 148.438 128.142 148.361 128.137C148.284 128.132 148.207 128.146 148.136 128.179L148.142 128.208ZM156.976 122.987L154.245 124.606C154.126 124.669 154.131 124.785 154.245 124.861L157.406 126.728C157.474 126.764 157.548 126.783 157.624 126.783C157.7 126.783 157.775 126.764 157.842 126.728L160.579 125.11C160.693 125.041 160.687 124.925 160.579 124.855L157.418 122.987C157.348 122.941 157.269 122.914 157.186 122.909C157.104 122.904 157.021 122.921 156.947 122.958L156.976 122.987ZM136.294 144.819L139.031 143.201C139.144 143.131 139.139 143.015 139.031 142.946L135.869 141.078C135.802 141.042 135.727 141.024 135.651 141.024C135.575 141.024 135.5 141.042 135.433 141.078L132.702 142.696C132.583 142.76 132.589 142.876 132.702 142.952L135.864 144.819C135.932 144.848 136.006 144.861 136.079 144.856C136.153 144.851 136.225 144.828 136.289 144.79L136.294 144.819ZM161.406 120.638C161.339 120.603 161.264 120.584 161.188 120.584C161.112 120.584 161.038 120.603 160.97 120.638L158.239 122.257C158.12 122.32 158.126 122.436 158.239 122.512L161.401 124.379C161.469 124.414 161.543 124.432 161.619 124.432C161.695 124.432 161.769 124.414 161.837 124.379L164.574 122.761C164.687 122.692 164.681 122.576 164.574 122.506L161.406 120.638ZM121.88 158.641L124.616 157.028C124.73 156.959 124.724 156.843 124.616 156.767L121.438 154.929C121.37 154.893 121.296 154.875 121.22 154.875C121.144 154.875 121.069 154.893 121.001 154.929L118.27 156.541C118.151 156.611 118.157 156.727 118.27 156.802L121.432 158.67C121.504 158.702 121.582 158.716 121.659 158.711C121.737 158.706 121.813 158.682 121.88 158.641V158.641ZM170.875 129.687L173.611 128.068C173.725 128.005 173.719 127.889 173.611 127.813L170.433 125.928C170.365 125.892 170.29 125.874 170.214 125.874C170.139 125.874 170.064 125.892 169.996 125.928L167.265 127.546C167.146 127.616 167.152 127.732 167.265 127.802L170.427 129.669C170.494 129.709 170.571 129.732 170.649 129.735C170.727 129.738 170.804 129.721 170.875 129.687V129.687ZM162.375 129.379L165.112 127.761C165.225 127.691 165.22 127.581 165.112 127.506L161.95 125.638C161.883 125.602 161.808 125.584 161.732 125.584C161.656 125.584 161.582 125.602 161.514 125.638L158.783 127.256C158.664 127.326 158.67 127.436 158.783 127.512L161.945 129.379C162.008 129.417 162.078 129.439 162.151 129.444C162.224 129.449 162.297 129.436 162.364 129.408L162.375 129.379ZM165.928 123.277C165.861 123.242 165.786 123.223 165.71 123.223C165.634 123.223 165.559 123.242 165.492 123.277L162.761 124.896C162.642 124.959 162.647 125.075 162.761 125.151L165.922 127.018C165.99 127.054 166.065 127.073 166.141 127.073C166.216 127.073 166.291 127.054 166.359 127.018L169.095 125.4C169.209 125.331 169.203 125.215 169.095 125.145L165.928 123.277ZM166.772 122.779L174.444 127.314C174.512 127.35 174.586 127.368 174.662 127.368C174.738 127.368 174.813 127.35 174.88 127.314L177.617 125.696C177.731 125.626 177.725 125.516 177.617 125.441L169.94 120.905C169.872 120.87 169.797 120.851 169.721 120.851C169.646 120.851 169.571 120.87 169.503 120.905L166.772 122.523C166.625 122.587 166.636 122.703 166.761 122.779H166.772ZM157.503 127.999L154.766 129.617C154.652 129.687 154.658 129.803 154.766 129.872L157.927 131.74C157.995 131.775 158.07 131.794 158.146 131.794C158.222 131.794 158.296 131.775 158.364 131.74L161.095 130.122C161.214 130.058 161.208 129.942 161.095 129.866L157.933 127.999C157.869 127.964 157.798 127.945 157.725 127.943C157.652 127.941 157.58 127.956 157.514 127.987L157.503 127.999ZM127.433 145.77L124.684 147.389C124.571 147.458 124.577 147.574 124.684 147.644L127.846 149.511C127.914 149.547 127.988 149.566 128.064 149.566C128.14 149.566 128.215 149.547 128.282 149.511L131.013 147.893C131.132 147.829 131.127 147.713 131.013 147.638L127.852 145.77C127.786 145.734 127.713 145.714 127.638 145.712C127.563 145.71 127.489 145.726 127.421 145.759L127.433 145.77ZM166.455 132.047C166.522 132.083 166.597 132.101 166.673 132.101C166.749 132.101 166.824 132.083 166.891 132.047L169.628 130.429C169.741 130.365 169.736 130.249 169.628 130.174L166.466 128.306C166.398 128.272 166.324 128.254 166.248 128.254C166.173 128.254 166.098 128.272 166.03 128.306L163.299 129.924C163.18 129.994 163.186 130.11 163.299 130.18L166.455 132.047ZM131.427 143.41L128.696 145.028C128.577 145.098 128.583 145.208 128.696 145.283L131.858 147.151C131.925 147.186 132 147.205 132.076 147.205C132.152 147.205 132.227 147.186 132.294 147.151L135.031 145.533C135.144 145.463 135.138 145.353 135.031 145.277L131.869 143.41C131.8 143.369 131.723 143.347 131.644 143.345C131.565 143.343 131.486 143.361 131.416 143.398L131.427 143.41ZM101.476 170.45C101.544 170.486 101.618 170.504 101.694 170.504C101.77 170.504 101.845 170.486 101.912 170.45L104.649 168.832C104.762 168.762 104.757 168.652 104.649 168.577L101.487 166.709C101.42 166.673 101.345 166.655 101.269 166.655C101.193 166.655 101.119 166.673 101.051 166.709L98.32 168.327C98.2011 168.397 98.2124 168.507 98.32 168.582L101.476 170.45ZM95.47 164.65L92.7333 166.268C92.6199 166.338 92.6256 166.448 92.7333 166.523L95.895 168.391C95.9624 168.427 96.0372 168.445 96.1131 168.445C96.189 168.445 96.2638 168.427 96.3312 168.391L99.0623 166.773C99.1813 166.703 99.1756 166.593 99.0623 166.518L95.9006 164.65C95.8324 164.613 95.7566 164.594 95.6796 164.594C95.6027 164.594 95.5268 164.613 95.4587 164.65H95.47ZM105.913 168.089L108.644 166.471C108.757 166.402 108.751 166.286 108.644 166.216L105.482 164.348C105.415 164.313 105.34 164.294 105.264 164.294C105.188 164.294 105.113 164.313 105.046 164.348L102.286 165.949C102.173 166.013 102.179 166.129 102.286 166.204L105.448 168.072C105.516 168.113 105.593 168.136 105.672 168.14C105.752 168.143 105.83 168.125 105.901 168.089H105.913ZM109.907 165.729L112.638 164.11C112.757 164.041 112.746 163.925 112.638 163.855L109.482 161.988C109.415 161.952 109.34 161.933 109.264 161.933C109.188 161.933 109.113 161.952 109.046 161.988L106.309 163.6C106.196 163.67 106.202 163.786 106.309 163.861L109.471 165.729C109.54 165.765 109.617 165.784 109.695 165.784C109.773 165.784 109.849 165.765 109.919 165.729H109.907ZM113.874 163.362L116.605 161.75C116.724 161.68 116.718 161.564 116.605 161.495L113.443 159.621C113.375 159.587 113.3 159.569 113.225 159.569C113.149 159.569 113.074 159.587 113.007 159.621L110.27 161.234C110.157 161.303 110.162 161.419 110.27 161.495L113.432 163.362C113.501 163.401 113.579 163.421 113.658 163.421C113.737 163.421 113.815 163.401 113.885 163.362H113.874ZM99.4363 162.289L96.6995 163.907C96.5862 163.971 96.5919 164.087 96.6995 164.163L99.8612 166.03C99.9287 166.066 100.003 166.085 100.079 166.085C100.155 166.085 100.23 166.066 100.298 166.03L103.034 164.412C103.148 164.342 103.142 164.226 103.034 164.157L99.8726 162.289C99.8073 162.256 99.7356 162.239 99.6629 162.239C99.5902 162.239 99.5185 162.256 99.4533 162.289H99.4363ZM103.431 159.929L100.7 161.541C100.581 161.611 100.586 161.727 100.7 161.802L103.861 163.67C103.929 163.704 104.004 163.722 104.08 163.722C104.155 163.722 104.23 163.704 104.298 163.67L107.086 162.063C107.199 161.993 107.193 161.877 107.086 161.808L103.924 159.94C103.852 159.896 103.771 159.871 103.687 159.869C103.604 159.867 103.521 159.888 103.448 159.929H103.431ZM119.415 150.486L116.718 152.098C116.605 152.168 116.61 152.284 116.718 152.359L119.88 154.227C119.947 154.261 120.022 154.279 120.098 154.279C120.173 154.279 120.248 154.261 120.316 154.227L123.047 152.615C123.166 152.545 123.155 152.429 123.047 152.354L119.891 150.486C119.821 150.446 119.742 150.426 119.661 150.426C119.581 150.426 119.502 150.446 119.432 150.486H119.415ZM115.415 152.847L112.684 154.459C112.57 154.529 112.576 154.645 112.684 154.72L115.845 156.588C115.913 156.622 115.988 156.64 116.063 156.64C116.139 156.64 116.214 156.622 116.282 156.588L119.013 154.975C119.132 154.906 119.12 154.79 119.013 154.714L115.851 152.847C115.785 152.815 115.714 152.799 115.641 152.799C115.569 152.799 115.497 152.815 115.432 152.847H115.415ZM123.41 148.119L120.684 149.738C120.571 149.807 120.577 149.923 120.684 149.993L123.846 151.866C123.914 151.901 123.988 151.918 124.064 151.918C124.14 151.918 124.214 151.901 124.282 151.866L127.013 150.248C127.132 150.184 127.127 150.068 127.013 149.993L123.852 148.125C123.786 148.092 123.713 148.074 123.64 148.073C123.566 148.072 123.493 148.088 123.427 148.119H123.41ZM107.425 157.568L104.694 159.18C104.575 159.25 104.581 159.366 104.694 159.441L107.856 161.309C107.924 161.343 107.999 161.361 108.074 161.361C108.15 161.361 108.225 161.343 108.292 161.309L111.029 159.691C111.142 159.621 111.137 159.505 111.029 159.436L107.867 157.562C107.801 157.531 107.728 157.515 107.654 157.516C107.581 157.517 107.508 157.535 107.442 157.568H107.425ZM111.42 155.207L108.689 156.82C108.57 156.889 108.581 157.005 108.689 157.081L111.851 158.948C111.917 158.984 111.991 159.002 112.066 159.002C112.141 159.002 112.215 158.984 112.281 158.948L115.018 157.336C115.131 157.266 115.126 157.15 115.018 157.075L111.856 155.207C111.791 155.176 111.719 155.159 111.647 155.159C111.574 155.159 111.503 155.176 111.437 155.207H111.42ZM108.508 171.877L111.239 170.259C111.352 170.189 111.346 170.073 111.239 170.003L108.077 168.136C108.01 168.1 107.935 168.082 107.859 168.082C107.783 168.082 107.708 168.1 107.641 168.136L104.91 169.754C104.791 169.818 104.802 169.934 104.91 170.009L108.071 171.877C108.141 171.915 108.219 171.936 108.298 171.936C108.377 171.936 108.455 171.915 108.525 171.877H108.508ZM85.0784 169.429L81.9167 167.562C81.8492 167.526 81.7744 167.507 81.6985 167.507C81.6226 167.507 81.5478 167.526 81.4804 167.562L78.755 169.191C78.6417 169.261 78.6473 169.371 78.755 169.447L81.9167 171.314C81.9841 171.35 82.0589 171.368 82.1348 171.368C82.2107 171.368 82.2855 171.35 82.353 171.314L85.084 169.696C85.2087 169.644 85.203 169.528 85.0784 169.429ZM91.0618 171.227L87.9001 169.36C87.8332 169.325 87.7595 169.308 87.6848 169.308C87.61 169.308 87.5363 169.325 87.4695 169.36L83.2879 171.859C83.1745 171.929 83.1802 172.045 83.2879 172.115L86.4496 173.982C86.517 174.018 86.5918 174.037 86.6677 174.037C86.7436 174.037 86.8184 174.018 86.8858 173.982L91.0901 171.5C91.2204 171.442 91.1864 171.326 91.0618 171.25V171.227ZM80.2282 165.816L77.0551 163.971C76.9877 163.936 76.9129 163.917 76.837 163.917C76.7611 163.917 76.6863 163.936 76.6189 163.971L73.2645 165.949C73.1512 166.019 73.1569 166.135 73.2645 166.21L76.4262 168.078C76.4937 168.113 76.5685 168.132 76.6444 168.132C76.7202 168.132 76.795 168.113 76.8625 168.078L80.2225 166.094C80.3585 166.03 80.3528 165.914 80.2282 165.839V165.816ZM82.8062 164.29C82.8737 164.326 82.9485 164.344 83.0244 164.344C83.1003 164.344 83.1751 164.326 83.2425 164.29L85.9736 162.672C86.0926 162.608 86.0869 162.492 85.9736 162.417L82.8119 160.549C82.7445 160.514 82.6697 160.495 82.5938 160.495C82.5179 160.495 82.4431 160.514 82.3756 160.549L79.6389 162.167C79.5256 162.237 79.5312 162.353 79.6389 162.423L82.8062 164.29ZM96.6315 173.275L93.4869 171.43C93.419 171.396 93.3444 171.378 93.2687 171.378C93.1931 171.378 93.1184 171.396 93.0506 171.43L87.7924 174.539C87.6791 174.609 87.6848 174.725 87.7924 174.794L90.9541 176.668C91.022 176.702 91.0966 176.72 91.1722 176.72C91.2479 176.72 91.3226 176.702 91.3904 176.668L96.6485 173.559C96.7619 173.489 96.7562 173.373 96.6315 173.298V173.275ZM99.255 177.062L96.0933 175.229C96.0258 175.194 95.951 175.175 95.8751 175.175C95.7992 175.175 95.7244 175.194 95.657 175.229L92.2913 177.219C92.178 177.288 92.1837 177.404 92.2913 177.48L95.453 179.347C95.5208 179.382 95.5955 179.4 95.6711 179.4C95.7468 179.4 95.8214 179.382 95.8893 179.347L99.255 177.358C99.3853 177.277 99.3796 177.161 99.255 177.085V177.062ZM112.514 146.733C112.581 146.769 112.656 146.787 112.732 146.787C112.808 146.787 112.882 146.769 112.95 146.733L115.681 145.121C115.8 145.051 115.789 144.935 115.681 144.86L112.519 142.992C112.451 142.958 112.377 142.94 112.301 142.94C112.226 142.94 112.151 142.958 112.083 142.992L109.352 144.634C109.239 144.703 109.244 144.819 109.352 144.889L112.514 146.733ZM104.519 151.46C104.587 151.495 104.661 151.512 104.737 151.512C104.813 151.512 104.887 151.495 104.955 151.46L107.692 149.848C107.805 149.778 107.799 149.662 107.692 149.587L104.53 147.719C104.462 147.685 104.388 147.667 104.312 147.667C104.236 147.667 104.162 147.685 104.094 147.719L101.363 149.332C101.244 149.401 101.255 149.517 101.363 149.593L104.519 151.46ZM86.8009 161.953C86.8683 161.988 86.9431 162.007 87.019 162.007C87.0949 162.007 87.1697 161.988 87.2371 161.953L89.9682 160.335C90.0872 160.265 90.0815 160.155 89.9682 160.079L86.8065 158.212C86.7391 158.176 86.6643 158.158 86.5884 158.158C86.5125 158.158 86.4377 158.176 86.3702 158.212L83.6335 159.83C83.5202 159.9 83.5258 160.01 83.6335 160.085L86.8009 161.953ZM108.519 149.129C108.586 149.163 108.66 149.181 108.734 149.181C108.809 149.181 108.883 149.163 108.95 149.129L111.686 147.516C111.8 147.447 111.794 147.331 111.686 147.255L108.525 145.388C108.457 145.352 108.382 145.333 108.307 145.333C108.231 145.333 108.156 145.352 108.088 145.388L105.357 147C105.238 147.07 105.25 147.186 105.357 147.261L108.519 149.129ZM100.524 153.85C100.592 153.886 100.666 153.904 100.742 153.904C100.818 153.904 100.893 153.886 100.96 153.85L103.697 152.238C103.811 152.168 103.805 152.052 103.697 151.977L100.535 150.109C100.468 150.075 100.393 150.057 100.317 150.057C100.242 150.057 100.167 150.075 100.099 150.109L97.3681 151.721C97.2492 151.791 97.2548 151.907 97.3681 151.982L100.524 153.85ZM101.448 177.393C101.38 177.359 101.305 177.341 101.23 177.341C101.154 177.341 101.079 177.359 101.011 177.393L96.8072 179.869C96.6939 179.939 96.6995 180.055 96.8072 180.13L99.9689 181.998C100.036 182.034 100.111 182.052 100.187 182.052C100.263 182.052 100.338 182.034 100.405 181.998L104.609 179.516C104.728 179.446 104.717 179.33 104.609 179.255L101.448 177.393ZM94.7901 157.249C94.8579 157.283 94.9325 157.301 95.0082 157.301C95.0839 157.301 95.1585 157.283 95.2264 157.249L97.9631 155.631C98.0764 155.561 98.0707 155.445 97.9631 155.375L94.8014 153.508C94.7339 153.472 94.6591 153.454 94.5832 153.454C94.5074 153.454 94.4326 153.472 94.3651 153.508L91.634 155.126C91.5151 155.19 91.5207 155.306 91.634 155.381L94.7901 157.249ZM90.7955 159.569C90.8629 159.605 90.9377 159.623 91.0136 159.623C91.0895 159.623 91.1643 159.605 91.2318 159.569L93.9685 157.951C94.0818 157.881 94.0761 157.765 93.9685 157.695L90.8068 155.828C90.7393 155.792 90.6645 155.774 90.5886 155.774C90.5127 155.774 90.438 155.792 90.3705 155.828L87.6394 157.446C87.5204 157.51 87.5261 157.626 87.6394 157.701L90.7955 159.569ZM175.47 133.642C175.402 133.607 175.328 133.588 175.252 133.588C175.176 133.588 175.101 133.607 175.033 133.642L168.279 137.61C168.166 137.679 168.172 137.795 168.279 137.871L171.441 139.738C171.509 139.772 171.584 139.79 171.659 139.79C171.735 139.79 171.81 139.772 171.877 139.738L178.643 135.788C178.762 135.719 178.756 135.603 178.643 135.527L175.47 133.642ZM166.636 138.862C166.569 138.827 166.494 138.808 166.418 138.808C166.342 138.808 166.267 138.827 166.2 138.862L163.469 140.475C163.35 140.544 163.356 140.66 163.469 140.736L166.631 142.603C166.698 142.638 166.773 142.656 166.849 142.656C166.924 142.656 166.999 142.638 167.067 142.603L169.804 140.991C169.917 140.921 169.911 140.805 169.804 140.73L166.636 138.862ZM112.519 169.516L115.25 167.898C115.369 167.828 115.358 167.712 115.25 167.643L112.094 165.769C112.027 165.735 111.952 165.717 111.876 165.717C111.801 165.717 111.726 165.735 111.658 165.769L108.921 167.382C108.808 167.451 108.814 167.567 108.921 167.643L112.083 169.51C112.15 169.546 112.225 169.564 112.3 169.565C112.376 169.566 112.451 169.55 112.519 169.516V169.516ZM158.647 143.584C158.579 143.549 158.505 143.532 158.429 143.532C158.353 143.532 158.279 143.549 158.211 143.584L155.474 145.196C155.361 145.266 155.366 145.382 155.474 145.457L158.636 147.325C158.703 147.36 158.778 147.379 158.854 147.379C158.93 147.379 159.005 147.36 159.072 147.325L161.803 145.712C161.922 145.643 161.916 145.527 161.803 145.451L158.647 143.584ZM179.464 131.282C179.397 131.247 179.322 131.229 179.246 131.229C179.171 131.229 179.096 131.247 179.028 131.282L176.297 132.888C176.178 132.958 176.184 133.074 176.297 133.143L179.459 135.017C179.527 135.051 179.601 135.069 179.677 135.069C179.752 135.069 179.827 135.051 179.895 135.017L182.632 133.404C182.745 133.335 182.739 133.219 182.632 133.143L179.464 131.282ZM186.621 130.789L178.943 126.253C178.876 126.217 178.801 126.199 178.725 126.199C178.649 126.199 178.574 126.217 178.507 126.253L175.776 127.871C175.657 127.941 175.662 128.057 175.776 128.126L183.453 132.662C183.521 132.698 183.596 132.716 183.671 132.716C183.747 132.716 183.822 132.698 183.89 132.662L186.626 131.044C186.751 130.98 186.745 130.864 186.621 130.789ZM143.717 152.412C143.649 152.376 143.575 152.357 143.499 152.357C143.423 152.357 143.348 152.376 143.281 152.412L139.915 154.401C139.802 154.471 139.807 154.587 139.915 154.656L143.077 156.524C143.144 156.559 143.219 156.578 143.295 156.578C143.371 156.578 143.445 156.559 143.513 156.524L146.879 154.534C146.992 154.465 146.986 154.349 146.879 154.279L143.717 152.412ZM153.808 146.443C153.741 146.408 153.666 146.389 153.59 146.389C153.514 146.389 153.439 146.408 153.372 146.443L149.168 148.926C149.054 148.995 149.06 149.111 149.168 149.181L152.329 151.054C152.397 151.089 152.472 151.106 152.548 151.106C152.623 151.106 152.698 151.089 152.766 151.054L156.97 148.572C157.083 148.502 157.078 148.386 156.97 148.311L153.808 146.443ZM134.464 157.875C134.396 157.841 134.322 157.823 134.246 157.823C134.17 157.823 134.096 157.841 134.028 157.875L111.528 171.169C111.414 171.239 111.42 171.355 111.528 171.43L114.689 173.298C114.757 173.332 114.832 173.35 114.908 173.35C114.983 173.35 115.058 173.332 115.126 173.298L137.626 159.998C137.739 159.929 137.733 159.813 137.626 159.737L134.464 157.875ZM110.7 171.923C110.633 171.888 110.558 171.869 110.482 171.869C110.406 171.869 110.332 171.888 110.264 171.923L106.904 173.913C106.785 173.982 106.791 174.098 106.904 174.168L110.066 176.036C110.133 176.071 110.208 176.09 110.284 176.09C110.36 176.09 110.435 176.071 110.502 176.036L113.885 174.069C113.998 174 113.992 173.884 113.885 173.814L110.7 171.923ZM139.088 155.143C139.02 155.109 138.945 155.091 138.87 155.091C138.794 155.091 138.719 155.109 138.651 155.143L135.291 157.133C135.172 157.202 135.178 157.318 135.291 157.394L138.453 159.262C138.521 159.296 138.596 159.314 138.671 159.314C138.747 159.314 138.822 159.296 138.889 159.262L142.255 157.272C142.374 157.208 142.363 157.092 142.255 157.017L139.088 155.143ZM106.077 174.649C106.009 174.615 105.934 174.597 105.859 174.597C105.783 174.597 105.709 174.615 105.641 174.649L102.275 176.639C102.162 176.708 102.167 176.824 102.275 176.9L105.437 178.767C105.505 178.802 105.579 178.82 105.655 178.82C105.73 178.82 105.805 178.802 105.873 178.767L109.233 176.784C109.352 176.714 109.346 176.598 109.233 176.523L106.077 174.649ZM148.34 149.668C148.273 149.634 148.198 149.616 148.122 149.616C148.047 149.616 147.972 149.634 147.904 149.668L144.544 151.652C144.425 151.721 144.431 151.837 144.544 151.913L147.706 153.78C147.774 153.815 147.848 153.832 147.924 153.832C148 153.832 148.074 153.815 148.142 153.78L151.508 151.791C151.627 151.721 151.615 151.605 151.508 151.53L148.34 149.668ZM162.642 141.217C162.574 141.182 162.499 141.163 162.424 141.163C162.348 141.163 162.273 141.182 162.205 141.217L159.474 142.83C159.355 142.899 159.361 143.015 159.474 143.091L162.636 144.958C162.704 144.993 162.779 145.01 162.854 145.01C162.93 145.01 163.004 144.993 163.072 144.958L165.809 143.346C165.922 143.276 165.917 143.16 165.809 143.085L162.642 141.217ZM171.396 134.71L174.127 133.097C174.246 133.027 174.24 132.911 174.127 132.836L170.965 130.968C170.897 130.934 170.823 130.916 170.747 130.916C170.671 130.916 170.597 130.934 170.529 130.968L167.792 132.587C167.679 132.656 167.685 132.772 167.792 132.842L170.954 134.715C171.022 134.75 171.098 134.769 171.175 134.769C171.252 134.769 171.327 134.75 171.396 134.715V134.71ZM153.548 134.628L156.284 133.01C156.398 132.94 156.392 132.824 156.284 132.755L153.123 130.887C153.055 130.852 152.98 130.833 152.904 130.833C152.829 130.833 152.754 130.852 152.686 130.887L149.955 132.505C149.836 132.575 149.848 132.685 149.955 132.761L153.111 134.628C153.179 134.664 153.254 134.682 153.329 134.682C153.405 134.682 153.48 134.664 153.548 134.628ZM144.482 150.654L152.471 145.933C152.584 145.863 152.579 145.747 152.471 145.672L149.309 143.804C149.241 143.77 149.167 143.752 149.091 143.752C149.016 143.752 148.941 143.77 148.873 143.804L140.884 148.531C140.771 148.595 140.776 148.711 140.884 148.786L144.046 150.654C144.115 150.685 144.191 150.699 144.267 150.694C144.343 150.689 144.417 150.665 144.482 150.625V150.654ZM166.965 137.099C167.033 137.133 167.107 137.151 167.183 137.151C167.259 137.151 167.333 137.133 167.401 137.099L170.132 135.487C170.251 135.417 170.246 135.301 170.132 135.226L166.971 133.358C166.903 133.322 166.828 133.304 166.752 133.304C166.677 133.304 166.602 133.322 166.534 133.358L163.798 134.97C163.684 135.04 163.69 135.156 163.798 135.232L166.965 137.099ZM162.885 134.437L165.616 132.824C165.735 132.755 165.73 132.639 165.616 132.563L162.455 130.696C162.387 130.662 162.312 130.644 162.237 130.644C162.161 130.644 162.086 130.662 162.018 130.696L159.282 132.314C159.168 132.384 159.174 132.5 159.282 132.569L162.443 134.443C162.515 134.473 162.592 134.485 162.668 134.479C162.745 134.473 162.819 134.449 162.885 134.408V134.437ZM140.487 152.997L143.218 151.379C143.337 151.31 143.326 151.199 143.218 151.124L140.057 149.256C139.989 149.221 139.914 149.202 139.838 149.202C139.763 149.202 139.688 149.221 139.62 149.256L136.872 150.869C136.753 150.938 136.765 151.049 136.872 151.124L140.034 152.992C140.107 153.035 140.191 153.057 140.276 153.056C140.36 153.055 140.443 153.03 140.516 152.986L140.487 152.997ZM158.131 142.302C158.199 142.336 158.274 142.354 158.35 142.354C158.425 142.354 158.5 142.336 158.568 142.302L161.304 140.689C161.418 140.62 161.412 140.504 161.304 140.428L158.143 138.561C158.075 138.527 158 138.509 157.925 138.509C157.849 138.509 157.774 138.527 157.707 138.561L154.975 140.179C154.856 140.249 154.862 140.365 154.975 140.434L158.131 142.302ZM120.509 164.789L123.24 163.177C123.359 163.107 123.353 162.991 123.24 162.916L120.078 161.048C120.01 161.014 119.935 160.996 119.86 160.996C119.784 160.996 119.709 161.014 119.642 161.048L116.905 162.66C116.792 162.73 116.797 162.846 116.905 162.921L120.067 164.789C120.135 164.824 120.211 164.843 120.288 164.843C120.364 164.843 120.44 164.824 120.509 164.789V164.789ZM124.503 162.428L127.24 160.816C127.353 160.746 127.348 160.63 127.24 160.555L124.084 158.687C124.016 158.652 123.942 158.633 123.866 158.633C123.79 158.633 123.715 158.652 123.648 158.687L120.911 160.3C120.797 160.369 120.803 160.485 120.911 160.561L124.072 162.428C124.14 162.462 124.213 162.479 124.288 162.479C124.362 162.479 124.436 162.462 124.503 162.428ZM116.514 167.15L119.245 165.537C119.364 165.468 119.358 165.352 119.245 165.276L116.089 163.409C116.021 163.374 115.946 163.357 115.871 163.357C115.795 163.357 115.721 163.374 115.653 163.409L112.916 165.021C112.803 165.091 112.808 165.207 112.916 165.282L116.078 167.15C116.145 167.185 116.22 167.204 116.296 167.204C116.372 167.204 116.446 167.185 116.514 167.15V167.15ZM132.492 157.707L135.229 156.095C135.342 156.025 135.337 155.909 135.229 155.834L132.067 153.966C132 153.932 131.925 153.914 131.849 153.914C131.774 153.914 131.699 153.932 131.631 153.966L128.9 155.584C128.781 155.654 128.787 155.77 128.9 155.839L132.062 157.707C132.128 157.742 132.202 157.76 132.277 157.76C132.352 157.76 132.426 157.742 132.492 157.707V157.707ZM128.526 160.068L131.263 158.455C131.376 158.386 131.37 158.27 131.263 158.194L128.05 156.327C127.983 156.291 127.908 156.272 127.832 156.272C127.756 156.272 127.681 156.291 127.614 156.327L124.883 157.939C124.764 158.009 124.769 158.125 124.883 158.194L128.044 160.068C128.114 160.105 128.192 160.124 128.271 160.124C128.35 160.124 128.428 160.105 128.498 160.068H128.526ZM136.515 155.346L139.252 153.728C139.365 153.664 139.36 153.548 139.252 153.473L136.09 151.605C136.023 151.57 135.948 151.551 135.872 151.551C135.796 151.551 135.721 151.57 135.654 151.605L132.878 153.189C132.759 153.258 132.77 153.374 132.878 153.444L136.034 155.312C136.1 155.356 136.177 155.382 136.256 155.388C136.335 155.394 136.415 155.38 136.487 155.346H136.515ZM154.794 120.412C154.862 120.448 154.936 120.466 155.012 120.466C155.088 120.466 155.163 120.448 155.23 120.412L157.967 118.794C158.08 118.73 158.075 118.614 157.967 118.539L157.129 118.04C157.061 118.006 156.986 117.988 156.91 117.988C156.835 117.988 156.76 118.006 156.692 118.04L153.956 119.652C153.842 119.722 153.848 119.838 153.956 119.913L154.794 120.412ZM135.138 133.404C135.206 133.44 135.281 133.459 135.357 133.459C135.432 133.459 135.507 133.44 135.575 133.404L138.306 131.792C138.425 131.722 138.419 131.606 138.306 131.531L135.144 129.663C135.076 129.629 135.002 129.611 134.926 129.611C134.85 129.611 134.776 129.629 134.708 129.663L131.971 131.276C131.858 131.345 131.863 131.461 131.971 131.537L135.138 133.404ZM143.128 128.683C143.195 128.717 143.27 128.735 143.346 128.735C143.421 128.735 143.496 128.717 143.564 128.683L146.301 127.071C146.414 127.001 146.408 126.885 146.301 126.81L143.139 124.942C143.071 124.906 142.997 124.888 142.921 124.888C142.845 124.888 142.77 124.906 142.703 124.942L139.949 126.554C139.83 126.624 139.836 126.74 139.949 126.815L143.128 128.683ZM130.26 136.287C130.328 136.321 130.402 136.339 130.478 136.339C130.554 136.339 130.628 136.321 130.696 136.287L133.427 134.669C133.546 134.599 133.541 134.483 133.427 134.414L130.266 132.54C130.198 132.506 130.123 132.488 130.047 132.488C129.972 132.488 129.897 132.506 129.829 132.54L127.093 134.153C126.979 134.222 126.985 134.338 127.093 134.414L130.26 136.287ZM139.133 131.067C139.201 131.101 139.276 131.119 139.351 131.119C139.427 131.119 139.501 131.101 139.569 131.067L142.306 129.455C142.419 129.385 142.414 129.269 142.306 129.194L139.144 127.326C139.076 127.292 139.002 127.274 138.926 127.274C138.851 127.274 138.776 127.292 138.708 127.326L135.977 128.938C135.858 129.008 135.864 129.124 135.977 129.199L139.133 131.067ZM122.242 141.008C122.31 141.044 122.385 141.063 122.46 141.063C122.536 141.063 122.611 141.044 122.679 141.008L125.41 139.39C125.529 139.321 125.517 139.205 125.41 139.135L122.254 137.267C122.186 137.232 122.111 137.213 122.036 137.213C121.96 137.213 121.885 137.232 121.817 137.267L119.081 138.886C118.967 138.949 118.973 139.065 119.081 139.141L122.242 141.008ZM126.237 138.648C126.305 138.682 126.379 138.7 126.455 138.7C126.531 138.7 126.605 138.682 126.673 138.648L129.404 137.03C129.523 136.96 129.518 136.844 129.404 136.774L126.248 134.907C126.181 134.871 126.106 134.853 126.03 134.853C125.954 134.853 125.879 134.871 125.812 134.907L123.075 136.525C122.962 136.589 122.968 136.705 123.075 136.78L126.237 138.648ZM146.777 125.139C146.844 125.174 146.919 125.191 146.995 125.191C147.07 125.191 147.145 125.174 147.213 125.139L149.95 123.527C150.063 123.457 150.057 123.341 149.95 123.266L149.105 122.767C149.038 122.733 148.963 122.715 148.887 122.715C148.812 122.715 148.737 122.733 148.669 122.767L145.938 124.379C145.819 124.449 145.83 124.565 145.938 124.64L146.777 125.139ZM158.766 118.051C158.833 118.087 158.906 118.106 158.981 118.106C159.056 118.106 159.13 118.087 159.197 118.051L161.933 116.433C162.047 116.364 162.041 116.253 161.933 116.178L161.095 115.679C161.027 115.644 160.953 115.625 160.877 115.625C160.801 115.625 160.726 115.644 160.659 115.679L157.922 117.292C157.809 117.361 157.814 117.477 157.922 117.553L158.766 118.051ZM165.401 121.978C165.469 122.012 165.544 122.03 165.619 122.03C165.695 122.03 165.77 122.012 165.837 121.978L168.574 120.36C168.687 120.29 168.682 120.174 168.574 120.105L165.412 118.231C165.345 118.197 165.27 118.179 165.194 118.179C165.119 118.179 165.044 118.197 164.976 118.231L162.245 119.844C162.126 119.913 162.137 120.029 162.245 120.105L165.401 121.978ZM175.39 132.355L178.127 130.736C178.24 130.673 178.235 130.557 178.127 130.481L174.965 128.614C174.898 128.579 174.823 128.561 174.747 128.561C174.672 128.561 174.597 128.579 174.529 128.614L171.798 130.232C171.679 130.301 171.685 130.417 171.798 130.487L174.96 132.355C175.027 132.389 175.1 132.407 175.175 132.407C175.25 132.407 175.324 132.389 175.39 132.355V132.355ZM150.771 122.779C150.839 122.813 150.914 122.831 150.989 122.831C151.065 122.831 151.14 122.813 151.207 122.779L153.944 121.166C154.058 121.097 154.052 120.981 153.944 120.905L153.1 120.406C153.032 120.372 152.957 120.354 152.882 120.354C152.806 120.354 152.732 120.372 152.664 120.406L149.933 122.019C149.819 122.088 149.825 122.204 149.933 122.28L150.771 122.779ZM118.248 143.369C118.315 143.405 118.39 143.423 118.466 143.423C118.542 143.423 118.617 143.405 118.684 143.369L121.415 141.751C121.528 141.681 121.523 141.571 121.415 141.496L118.253 139.628C118.186 139.592 118.111 139.574 118.035 139.574C117.959 139.574 117.885 139.592 117.817 139.628L115.086 141.246C114.973 141.316 114.978 141.426 115.086 141.501L118.248 143.369Z" fill="#455A64"/>
<path d="M134.492 168.79L164.409 151.105L182.824 161.987L152.901 179.671L134.492 168.79Z" fill="#263238"/>
<path d="M67.9885 79.6777L157.15 26.9833C158.89 25.9509 160.318 26.7977 160.318 28.8568V99.5432C160.289 100.066 160.141 100.575 159.885 101.028C159.629 101.481 159.273 101.867 158.845 102.153L67.4219 156.188C66.6117 156.663 65.9487 156.275 65.9487 155.317V83.2912C65.9894 82.5677 66.1951 81.8639 66.5494 81.2364C66.9036 80.6089 67.3965 80.0751 67.9885 79.6777Z" fill="#F5F5F5"/>
<path d="M160.346 30.5508V28.8571C160.346 26.7981 158.918 25.9571 157.179 26.9837L67.9885 79.6781C67.3965 80.0755 66.9036 80.6093 66.5494 81.2368C66.1951 81.8643 65.9894 82.5681 65.9487 83.2916V86.3251L160.346 30.5508Z" fill="#BA68C8"/>
<path d="M147.042 34.4076C146.724 34.6197 146.459 34.9056 146.269 35.2422C146.079 35.5789 145.969 35.9566 145.949 36.3448C145.949 37.0583 146.436 37.3483 147.042 36.9887C147.359 36.7772 147.623 36.492 147.812 36.1564C148.001 35.8207 148.11 35.4441 148.13 35.0572C148.13 34.3438 147.643 34.0538 147.042 34.4076Z" fill="white"/>
<path d="M151.371 31.8498C151.054 32.0625 150.79 32.3488 150.601 32.6853C150.412 33.0219 150.303 33.3994 150.283 33.787C150.283 34.5005 150.77 34.7847 151.371 34.4309C151.689 34.2188 151.954 33.9328 152.144 33.5962C152.334 33.2596 152.444 32.8818 152.465 32.4936C152.465 31.7802 151.977 31.4902 151.371 31.8498Z" fill="white"/>
<path d="M155.706 29.2855C155.388 29.4986 155.124 29.7848 154.934 30.1212C154.744 30.4576 154.634 30.8349 154.612 31.2228C154.612 31.9362 155.105 32.2262 155.706 31.8666C156.024 31.6554 156.288 31.3705 156.478 31.0348C156.668 30.6992 156.778 30.3225 156.799 29.9351C156.799 29.2217 156.306 28.9317 155.706 29.2855Z" fill="white"/>
<path d="M87.9653 120.932L84.4961 118.882L75.9998 133.946L79.469 135.996L87.9653 120.932Z" fill="#37474F"/>
<path d="M87.9724 120.927L86.2402 119.903L77.7439 134.968L79.4761 135.991L87.9724 120.927Z" fill="#263238"/>
<path d="M66.6851 163.362C65.1042 166.175 57.6193 161.709 59.1945 158.937L78.7142 127.772C78.7668 127.688 78.8492 127.628 78.9442 127.604C79.0392 127.58 79.1395 127.595 79.2242 127.645L83.1451 129.965C83.2296 130.014 83.2921 130.094 83.3196 130.19C83.3471 130.285 83.3374 130.387 83.2924 130.475L66.6851 163.362Z" fill="#BA68C8"/>
<path opacity="0.1" d="M66.6847 163.362L83.2864 130.475C83.3313 130.387 83.341 130.285 83.3135 130.19C83.2861 130.094 83.2235 130.014 83.1391 129.965L81.3542 128.909L62.3218 163.542C64.0556 164.418 65.9707 164.632 66.6847 163.362Z" fill="black"/>
<path d="M124.083 89.9957C124.083 89.7579 124.083 89.5259 124.049 89.2938C124.015 89.0618 124.049 88.8356 123.998 88.6094C123.947 88.3832 123.998 88.3078 123.952 88.157C123.913 87.7626 123.856 87.374 123.794 86.997C123.765 86.8288 123.737 86.6548 123.703 86.4866C123.669 86.3184 123.641 86.1676 123.607 86.011C123.51 85.5818 123.408 85.1641 123.289 84.7639C123.227 84.5725 123.17 84.3811 123.108 84.1839C123.096 84.1558 123.087 84.1267 123.08 84.0969C123.012 83.9113 122.949 83.7315 122.881 83.5575C122.813 83.3835 122.723 83.1515 122.632 82.9775C122.541 82.8035 122.507 82.6933 122.434 82.5541C122.393 82.4496 122.343 82.3488 122.286 82.2525C122.23 82.1307 122.167 82.0089 122.099 81.8929C122.032 81.7769 122.071 81.8349 122.054 81.8117C122.037 81.7885 121.935 81.6028 121.873 81.4984C121.811 81.394 121.788 81.365 121.748 81.3012C121.458 80.833 121.132 80.3889 120.774 79.973L120.592 79.7642L120.439 79.6018C120.377 79.5322 120.309 79.4684 120.241 79.3988C120.063 79.2073 119.874 79.0272 119.674 78.8594C119.578 78.7724 119.476 78.6912 119.374 78.6158L119.062 78.3838C118.901 78.2622 118.732 78.1499 118.558 78.0474L118.422 77.9604H118.394L110.365 73.2158L110.32 73.1868C108.779 72.3075 107.04 71.8574 105.277 71.8818C102.648 71.8818 99.6787 72.7634 96.534 74.6195C85.7344 80.9996 76.9746 96.5324 76.9746 109.304C76.9746 115.685 79.1504 120.151 82.669 122.25H82.703L90.7376 126.989H90.7716L90.8679 127.041C91.0186 127.132 91.1736 127.216 91.3325 127.291C91.5252 127.389 91.7235 127.476 91.8991 127.557C92.0748 127.639 92.2561 127.702 92.4374 127.76L92.7264 127.847C92.8276 127.887 92.9318 127.918 93.038 127.94C93.1424 127.973 93.2483 128 93.3553 128.021C93.4315 128.044 93.5091 128.062 93.5876 128.074C93.7236 128.103 93.8709 128.132 94.0126 128.149C94.0445 128.155 94.077 128.155 94.1089 128.149C94.2789 128.18 94.4489 128.203 94.6189 128.219C97.5312 128.532 100.92 127.691 104.546 125.551C115.351 119.17 124.111 103.632 124.111 90.8657C124.083 90.5989 124.083 90.2973 124.083 89.9957ZM110.977 80.9648C111.401 82.5519 111.609 84.1915 111.595 85.837C111.595 97.1009 103.543 111.358 94.0296 117.007C92.6389 117.853 91.1374 118.492 89.5704 118.904C89.1484 117.314 88.9407 115.673 88.9528 114.026C88.9528 102.762 97.0043 88.505 106.518 82.8557C107.903 82.0126 109.399 81.3759 110.96 80.9648H110.977Z" fill="#BA68C8"/>
<path opacity="0.1" d="M90.4088 126.827L82.6065 122.222C79.0879 120.116 76.9121 115.638 76.9121 109.282C76.9121 103.586 78.6573 97.3448 81.5413 91.6143L89.5759 96.3472C86.6861 102.078 84.9466 108.319 84.9466 114.014C84.9466 120.255 87.0204 124.669 90.4088 126.827Z" fill="black"/>
<path opacity="0.4" d="M124.083 89.9963C124.083 89.7585 124.083 89.5265 124.049 89.2945C124.015 89.0625 124.049 88.8363 123.998 88.6101C123.947 88.3838 123.998 88.3084 123.952 88.1576C123.913 87.7632 123.856 87.3746 123.794 86.9976C123.765 86.8294 123.737 86.6554 123.703 86.4872C123.669 86.319 123.641 86.1682 123.607 86.0116C123.51 85.5824 123.408 85.1648 123.289 84.7645C123.227 84.5731 123.17 84.3817 123.108 84.1845C123.096 84.1565 123.087 84.1273 123.08 84.0975C123.012 83.9119 122.949 83.7321 122.881 83.5581C122.813 83.3841 122.723 83.1521 122.632 82.9781C122.541 82.8041 122.507 82.6939 122.434 82.5547C122.393 82.4503 122.343 82.3494 122.287 82.2531C122.23 82.1313 122.168 82.0095 122.1 81.8935C122.032 81.7775 122.071 81.8355 122.054 81.8123C122.037 81.7891 121.935 81.6035 121.873 81.4991C121.811 81.3947 121.788 81.3657 121.748 81.3019C121.458 80.8337 121.132 80.3896 120.774 79.9736L120.592 79.7648L120.439 79.6024C120.377 79.5328 120.309 79.469 120.241 79.3994C120.063 79.208 119.874 79.0278 119.674 78.86C119.578 78.773 119.476 78.6918 119.374 78.6164L119.062 78.3844C118.901 78.2629 118.732 78.1506 118.558 78.048C115.006 75.8381 110.059 76.0991 104.557 79.3414C93.752 85.7216 84.9922 101.254 84.9922 114.026C84.9922 120.493 87.2586 125.012 90.8566 127.065C91.0073 127.156 91.1623 127.239 91.3212 127.314C91.5139 127.413 91.7122 127.5 91.8878 127.581C92.0635 127.662 92.2448 127.726 92.4261 127.784L92.7151 127.871C92.8163 127.911 92.9205 127.942 93.0267 127.964C93.1311 127.997 93.237 128.024 93.344 128.045C93.4202 128.068 93.4978 128.086 93.5763 128.097C93.7123 128.126 93.8597 128.155 94.0013 128.173C94.0332 128.178 94.0657 128.178 94.0976 128.173C94.2676 128.204 94.4376 128.227 94.6076 128.242C97.52 128.556 100.908 127.715 104.535 125.574C115.34 119.194 124.1 103.656 124.1 90.8895C124.083 90.5995 124.083 90.2979 124.083 89.9963ZM102.551 122.077C100.126 123.51 97.7919 124.264 95.7975 124.264C92.0522 124.264 90.3297 121.648 89.5647 118.904C89.1428 117.315 88.935 115.674 88.9471 114.026C88.9471 102.762 96.9987 88.5057 106.512 82.8563C107.903 82.0117 109.404 81.3749 110.971 80.9654C111.713 80.7773 112.474 80.6781 113.238 80.6696C119.431 80.6696 120.094 87.827 120.094 90.9069C120.116 102.148 112.065 116.445 102.551 122.077Z" fill="white"/>
<path opacity="0.1" d="M120.117 90.9072C120.117 102.171 112.071 116.428 102.552 122.077C100.127 123.51 97.7921 124.264 95.7977 124.264C92.0524 124.264 90.3299 121.648 89.5649 118.905C91.1319 118.493 92.6335 117.854 94.0242 117.008C103.555 111.376 111.589 97.1018 111.589 85.8379C111.604 84.1924 111.396 82.5528 110.971 80.9657C111.713 80.7776 112.474 80.6783 113.238 80.6699C119.448 80.6873 120.117 87.8273 120.117 90.9072Z" fill="black"/>
<path opacity="0.7" d="M116.717 88.941C116.717 100.205 108.671 114.462 99.1518 120.111C96.7267 121.544 94.3923 122.298 92.3978 122.298C92.0011 122.299 91.605 122.266 91.2136 122.199C90.4479 121.231 89.89 120.108 89.5761 118.905C89.1542 117.315 88.9464 115.674 88.9585 114.027C88.9585 102.763 97.01 88.506 106.523 82.8566C107.914 82.012 109.416 81.3752 110.983 80.9657C111.724 80.7776 112.485 80.6784 113.249 80.6699C113.648 80.6689 114.046 80.7019 114.439 80.7685C116.399 83.1292 116.717 86.9167 116.717 88.941Z" fill="white"/>
<path d="M130.412 77.2061V90.0476C130.412 91.0104 131.075 91.399 131.885 90.9176L214.101 42.3297C214.529 42.0433 214.885 41.6578 215.141 41.2045C215.397 40.7511 215.545 40.2425 215.574 39.7197V26.8607C215.574 25.8979 214.911 25.5093 214.101 25.9907L131.885 74.5786C131.455 74.8671 131.098 75.2554 130.842 75.7119C130.586 76.1685 130.439 76.6804 130.412 77.2061Z" fill="#E6E6E6"/>
<path d="M131.885 74.5787L146.527 65.9307V82.2523L131.885 90.9003C131.075 91.3817 130.412 90.9931 130.412 90.0303V77.2062C130.439 76.6805 130.586 76.1686 130.842 75.712C131.098 75.2555 131.455 74.8672 131.885 74.5787Z" fill="#BA68C8"/>
<path d="M141.682 73.0538C140.758 72.5086 139.591 72.5956 138.396 73.3032C137.26 74.0483 136.314 75.0611 135.639 76.2569C134.964 77.4527 134.578 78.7967 134.514 80.1764C134.474 81.0705 134.75 81.9496 135.291 82.653L133.715 85.4139C133.613 85.6114 133.588 85.8416 133.646 86.0574C133.704 86.2731 133.84 86.4579 134.027 86.5739C134.157 86.6486 134.303 86.6885 134.452 86.6899C134.601 86.69 134.748 86.6499 134.877 86.5735C135.007 86.4971 135.114 86.3873 135.189 86.2549L136.747 83.494C136.915 83.5263 137.086 83.5438 137.257 83.5462C137.952 83.5333 138.632 83.3332 139.229 82.9662C140.363 82.2194 141.306 81.206 141.98 80.0105C142.654 78.815 143.04 77.4719 143.104 76.0931C143.121 74.6836 142.611 73.6048 141.682 73.0538ZM138.396 81.464C138.197 81.6832 137.931 81.8268 137.642 81.8713C137.353 81.9159 137.057 81.8587 136.804 81.7093C136.551 81.5598 136.355 81.3268 136.247 81.0483C136.14 80.7699 136.129 80.4625 136.214 80.1764C136.28 79.1031 136.588 78.0602 137.114 77.1293C137.64 76.1985 138.37 75.405 139.246 74.8112C139.585 74.5897 139.976 74.4637 140.379 74.4458C140.545 74.4394 140.709 74.4795 140.855 74.5618C141.068 74.7484 141.232 74.9872 141.331 75.2559C141.43 75.5246 141.461 75.8145 141.421 76.0988C141.356 77.1716 141.049 78.2142 140.524 79.145C139.999 80.0758 139.27 80.8696 138.396 81.464Z" fill="white"/>
</svg>
