<svg width="243" height="223" viewBox="0 0 243 223" fill="none" xmlns="http://www.w3.org/2000/svg">
<path d="M246.259 200.508H0.741211V200.634H246.259V200.508Z" fill="#E0E0E0"/>
<path d="M187.005 205.147H170.114V205.273H187.005V205.147Z" fill="#E0E0E0"/>
<path d="M206.878 204.79H197.371V204.916H206.878V204.79Z" fill="#E0E0E0"/>
<path d="M122.194 205.087H109.584V205.213H122.194V205.087Z" fill="#E0E0E0"/>
<path d="M131.303 206.873H122.69V206.999H131.303V206.873Z" fill="#E0E0E0"/>
<path d="M71.7792 203.814H45.7593V203.94H71.7792V203.814Z" fill="#E0E0E0"/>
<path d="M117.117 178.067H22.3028C21.56 178.065 20.8481 177.762 20.3234 177.224C19.7986 176.685 19.5039 175.955 19.5039 175.194V38.6194C19.5104 37.8627 19.808 37.1391 20.332 36.6058C20.8561 36.0726 21.5643 35.7728 22.3028 35.7715H117.117C117.86 35.7715 118.573 36.0742 119.099 36.613C119.625 37.1518 119.92 37.8826 119.92 38.6446V175.194C119.92 175.956 119.625 176.687 119.099 177.225C118.573 177.764 117.86 178.067 117.117 178.067V178.067ZM22.3028 35.8721C21.5926 35.8735 20.9119 36.1635 20.4102 36.6786C19.9085 37.1936 19.6267 37.8916 19.6267 38.6194V175.194C19.6267 175.922 19.9085 176.62 20.4102 177.135C20.9119 177.65 21.5926 177.94 22.3028 177.941H117.117C117.827 177.94 118.509 177.65 119.011 177.135C119.514 176.62 119.796 175.922 119.798 175.194V38.6194C119.796 37.8912 119.514 37.1932 119.011 36.6782C118.509 36.1633 117.827 35.8734 117.117 35.8721H22.3028Z" fill="#E0E0E0"/>
<path d="M223.333 178.067H128.514C127.771 178.065 127.058 177.762 126.533 177.224C126.007 176.685 125.711 175.955 125.71 175.194V38.6194C125.718 37.8622 126.016 37.1386 126.541 36.6055C127.066 36.0724 127.775 35.7728 128.514 35.7715H223.333C224.07 35.7741 224.777 36.0745 225.3 36.6076C225.823 37.1407 226.12 37.8635 226.127 38.6194V175.194C226.127 175.954 225.832 176.683 225.309 177.222C224.785 177.76 224.074 178.064 223.333 178.067V178.067ZM128.514 35.8721C127.803 35.8734 127.122 36.1633 126.619 36.6782C126.117 37.1932 125.834 37.8912 125.833 38.6194V175.194C125.834 175.922 126.117 176.62 126.619 177.135C127.122 177.65 127.803 177.94 128.514 177.941H223.333C224.043 177.94 224.724 177.65 225.227 177.135C225.729 176.62 226.012 175.922 226.014 175.194V38.6194C226.012 37.8912 225.729 37.1932 225.227 36.6782C224.724 36.1633 224.043 35.8734 223.333 35.8721H128.514Z" fill="#E0E0E0"/>
<path d="M213.865 47.9834H139.866V113.174H213.865V47.9834Z" fill="#E0E0E0"/>
<path d="M215.51 47.9834H141.511V113.174H215.51V47.9834Z" fill="#F0F0F0"/>
<path d="M212.559 110.115V51.043L144.462 51.043V110.115H212.559Z" fill="#FAFAFA"/>
<path d="M190.796 110.115V51.043H186.347V110.115H190.796Z" fill="#E0E0E0"/>
<path d="M167.394 110.115V51.043H162.945V110.115H167.394Z" fill="#E0E0E0"/>
<path d="M192.362 112.051V48.7627H187.913V112.051H192.362Z" fill="#F0F0F0"/>
<path d="M168.955 112.057V48.7686H164.506V112.057H168.955Z" fill="#F0F0F0"/>
<path d="M212.559 110.109V51.0371H211.316V110.109H212.559Z" fill="#E0E0E0"/>
<path d="M87.8214 99.4672C87.8214 99.4672 78.8159 83.5722 91.3127 70.8975C91.3127 70.8975 94.5732 73.0762 94.5241 76.0046C94.475 78.933 91.0279 79.6727 91.7694 82.1181C92.5108 84.5635 95.7566 86.9535 93.6255 88.9762C91.4944 90.9989 93.9692 92.7902 93.8268 95.2658C93.6844 97.7414 87.8214 99.4672 87.8214 99.4672Z" fill="#E0E0E0"/>
<path d="M89.2358 102.068C89.2358 102.068 92.8891 84.0652 77.1367 76.085C77.1367 76.085 74.711 79.2046 75.6636 81.967C76.6162 84.7294 80.1074 84.3168 80.1566 86.8779C80.2057 89.439 77.8634 92.7599 80.5052 93.9876C83.147 95.2153 81.3547 97.7211 82.2533 100.026C83.1519 102.33 89.2358 102.068 89.2358 102.068Z" fill="#E6E6E6"/>
<path d="M81.2168 97.4941C81.2168 97.4941 81.3739 113.037 87.4382 113.037C93.5025 113.037 93.6547 97.4941 93.6547 97.4941H81.2168Z" fill="#F0F0F0"/>
<path d="M44.7817 107.19C44.7817 107.19 45.1206 113.037 58.0691 113.037C71.0177 113.037 71.3614 107.19 71.3614 107.19H44.7817Z" fill="#E6E6E6"/>
<path d="M181.295 142.442H174.46C173.608 142.442 172.918 143.15 172.918 144.022V155.605C172.918 156.478 173.608 157.185 174.46 157.185H181.295C182.147 157.185 182.837 156.478 182.837 155.605V144.022C182.837 143.15 182.147 142.442 181.295 142.442Z" fill="#F0F0F0"/>
<path d="M199.423 147.263H194.822C194.25 147.263 193.786 147.738 193.786 148.324V156.123C193.786 156.71 194.25 157.185 194.822 157.185H199.423C199.995 157.185 200.459 156.71 200.459 156.123V148.324C200.459 147.738 199.995 147.263 199.423 147.263Z" fill="#E6E6E6"/>
<path d="M200.111 146.302H194.135C193.942 146.302 193.786 146.462 193.786 146.659V147.062C193.786 147.259 193.942 147.419 194.135 147.419H200.111C200.303 147.419 200.459 147.259 200.459 147.062V146.659C200.459 146.462 200.303 146.302 200.111 146.302Z" fill="#F0F0F0"/>
<path d="M157.097 148.983C157.097 148.983 157.342 157.185 166.716 157.185C176.09 157.185 176.34 148.983 176.34 148.983H157.097Z" fill="#E6E6E6"/>
<path d="M133.782 138.15H147.968V135.282H133.782V138.15Z" fill="#E0E0E0"/>
<path d="M218.496 135.287H147.968V138.155H218.496V135.287Z" fill="#F0F0F0"/>
<path d="M133.782 160.054H147.968V157.186H133.782V160.054Z" fill="#E0E0E0"/>
<path d="M218.496 157.186H147.968V160.054H218.496V157.186Z" fill="#F0F0F0"/>
<path d="M138.894 138.15H136.276V200.503H138.894V138.15Z" fill="#E0E0E0"/>
<path d="M150.585 138.15H147.968V200.503H150.585V138.15Z" fill="#F0F0F0"/>
<path d="M209.421 138.15H206.804V200.503H209.421V138.15Z" fill="#E0E0E0"/>
<path d="M218.495 138.15H215.878V200.503H218.495V138.15Z" fill="#F0F0F0"/>
<path d="M44.7818 116.686H31.3667V196.734H44.7818V116.686Z" fill="#E6E6E6"/>
<path d="M100.097 196.729H33.9448V200.508H100.097V196.729Z" fill="#E6E6E6"/>
<path d="M44.7823 196.729H102.67L102.67 116.681L44.7823 116.681L44.7823 196.729Z" fill="#F0F0F0"/>
<path d="M50.0554 166.483H97.396V146.93H50.0554V166.483Z" fill="#E6E6E6"/>
<path d="M50.0554 189.6H97.396V170.047H50.0554V189.6Z" fill="#E6E6E6"/>
<path d="M79.0416 149.074H68.4106C68.0646 149.073 67.7332 148.932 67.4885 148.681C67.2438 148.43 67.1058 148.091 67.1045 147.736V147.736C67.1045 147.381 67.2419 147.04 67.4868 146.788C67.7316 146.536 68.0638 146.394 68.4106 146.393H79.0416C79.3884 146.394 79.7206 146.536 79.9654 146.788C80.2102 147.04 80.3477 147.381 80.3477 147.736V147.736C80.3464 148.091 80.2084 148.43 79.9637 148.681C79.719 148.932 79.3876 149.073 79.0416 149.074Z" fill="#F0F0F0"/>
<path d="M50.0554 143.363H97.396V123.81H50.0554V143.363Z" fill="#E6E6E6"/>
<path d="M79.0416 125.959H68.4106C68.0638 125.958 67.7316 125.816 67.4868 125.564C67.2419 125.312 67.1045 124.971 67.1045 124.616C67.1058 124.261 67.2438 123.922 67.4885 123.671C67.7332 123.42 68.0646 123.279 68.4106 123.277H79.0416C79.3876 123.279 79.719 123.42 79.9637 123.671C80.2084 123.922 80.3464 124.261 80.3477 124.616V124.616C80.3477 124.971 80.2102 125.312 79.9654 125.564C79.7206 125.816 79.3884 125.958 79.0416 125.959V125.959Z" fill="#F0F0F0"/>
<path d="M79.0416 172.19H68.4106C68.0646 172.188 67.7332 172.047 67.4885 171.796C67.2438 171.545 67.1058 171.206 67.1045 170.851V170.851C67.1045 170.496 67.2419 170.155 67.4868 169.903C67.7316 169.651 68.0638 169.509 68.4106 169.508H79.0416C79.3884 169.509 79.7206 169.651 79.9654 169.903C80.2102 170.155 80.3477 170.496 80.3477 170.851V170.851C80.3464 171.206 80.2084 171.545 79.9637 171.796C79.719 172.047 79.3876 172.188 79.0416 172.19Z" fill="#F0F0F0"/>
<path d="M104.457 113.037H44.7817V116.685H104.457V113.037Z" fill="#E6E6E6"/>
<path d="M29.4909 116.681H44.7817V113.033H29.4909V116.681Z" fill="#E0E0E0"/>
<path d="M59.7345 51.043H38.0308V75.4667H59.7345V51.043Z" fill="#E6E6E6"/>
<path d="M62.0862 51.043H39.6655V75.4667H62.0862V51.043Z" fill="#F0F0F0"/>
<path d="M60.2056 73.5393V52.9648H41.5413V73.5393H60.2056Z" fill="#FAFAFA"/>
<path d="M55.6831 68.5529V57.9512H46.0686V68.5529H55.6831Z" fill="#F0F0F0"/>
<path d="M82.6162 43.832H66.1567V61.951H82.6162V43.832Z" fill="#E6E6E6"/>
<path d="M84.3643 43.832H67.7329V61.951H84.3643V43.832Z" fill="#F0F0F0"/>
<path d="M82.9702 60.5218V45.2607H69.128V60.5218H82.9702Z" fill="#FAFAFA"/>
<path d="M76.0461 49.0303L72.2603 55.7526H79.832L76.0461 49.0303Z" fill="#F0F0F0"/>
<path d="M123.5 223.231C176.081 223.231 218.706 220.68 218.706 217.535C218.706 214.389 176.081 211.839 123.5 211.839C70.9185 211.839 28.293 214.389 28.293 217.535C28.293 220.68 70.9185 223.231 123.5 223.231Z" fill="#F5F5F5"/>
<path d="M206.877 81.4688H158.706C156.165 81.4688 154.105 83.5796 154.105 86.1834V99.6079C154.105 102.212 156.165 104.323 158.706 104.323H206.877C209.418 104.323 211.478 102.212 211.478 99.6079V86.1834C211.478 83.5796 209.418 81.4688 206.877 81.4688Z" fill="#8937C7"/>
<path d="M197.321 85.3232H159.693C159.249 85.3232 158.888 85.6927 158.888 86.1484V87.0541C158.888 87.5099 159.249 87.8793 159.693 87.8793H197.321C197.766 87.8793 198.127 87.5099 198.127 87.0541V86.1484C198.127 85.6927 197.766 85.3232 197.321 85.3232Z" fill="#8937C7"/>
<path d="M185.404 91.4814H159.693C159.249 91.4814 158.888 91.8509 158.888 92.3066V93.2123C158.888 93.6681 159.249 94.0375 159.693 94.0375H185.404C185.849 94.0375 186.209 93.6681 186.209 93.2123V92.3066C186.209 91.8509 185.849 91.4814 185.404 91.4814Z" fill="#8937C7"/>
<path d="M178.51 97.6406H159.693C159.249 97.6406 158.888 98.0101 158.888 98.4658V99.3715C158.888 99.8273 159.249 100.197 159.693 100.197H178.51C178.955 100.197 179.315 99.8273 179.315 99.3715V98.4658C179.315 98.0101 178.955 97.6406 178.51 97.6406Z" fill="#8937C7"/>
<path d="M201.829 97.6406H183.013C182.568 97.6406 182.208 98.0101 182.208 98.4658V99.3715C182.208 99.8273 182.568 100.197 183.013 100.197H201.829C202.274 100.197 202.635 99.8273 202.635 99.3715V98.4658C202.635 98.0101 202.274 97.6406 201.829 97.6406Z" fill="#8937C7"/>
<g opacity="0.5">
<path opacity="0.5" d="M197.321 85.3232H159.693C159.249 85.3232 158.888 85.6927 158.888 86.1484V87.0541C158.888 87.5099 159.249 87.8793 159.693 87.8793H197.321C197.766 87.8793 198.127 87.5099 198.127 87.0541V86.1484C198.127 85.6927 197.766 85.3232 197.321 85.3232Z" fill="white"/>
<path opacity="0.5" d="M185.404 91.4824H159.693C159.249 91.4824 158.888 91.8519 158.888 92.3076V93.2133C158.888 93.6691 159.249 94.0385 159.693 94.0385H185.404C185.849 94.0385 186.209 93.6691 186.209 93.2133V92.3076C186.209 91.8519 185.849 91.4824 185.404 91.4824Z" fill="white"/>
<path opacity="0.5" d="M178.51 97.6406H159.693C159.249 97.6406 158.888 98.0101 158.888 98.4658V99.3715C158.888 99.8273 159.249 100.197 159.693 100.197H178.51C178.955 100.197 179.315 99.8273 179.315 99.3715V98.4658C179.315 98.0101 178.955 97.6406 178.51 97.6406Z" fill="white"/>
<path opacity="0.5" d="M201.829 97.6406H183.013C182.568 97.6406 182.208 98.0101 182.208 98.4658V99.3715C182.208 99.8273 182.568 100.197 183.013 100.197H201.829C202.274 100.197 202.635 99.8273 202.635 99.3715V98.4658C202.635 98.0101 202.274 97.6406 201.829 97.6406Z" fill="white"/>
</g>
<path d="M168.291 76.1406H113.614C109.888 76.1406 106.868 79.2359 106.868 83.0541V102.738C106.868 106.556 109.888 109.651 113.614 109.651H168.291C172.017 109.651 175.038 106.556 175.038 102.738V83.0541C175.038 79.2359 172.017 76.1406 168.291 76.1406Z" fill="#8937C7"/>
<path d="M170.226 81.791H115.063C114.41 81.791 113.88 82.3339 113.88 83.0036V84.327C113.88 84.9967 114.41 85.5396 115.063 85.5396H170.226C170.88 85.5396 171.41 84.9967 171.41 84.327V83.0036C171.41 82.3339 170.88 81.791 170.226 81.791Z" fill="#8937C7"/>
<path d="M152.75 90.8232H115.063C114.41 90.8232 113.88 91.3662 113.88 92.0359V93.3592C113.88 94.0289 114.41 94.5718 115.063 94.5718H152.75C153.404 94.5718 153.934 94.0289 153.934 93.3592V92.0359C153.934 91.3662 153.404 90.8232 152.75 90.8232Z" fill="#8937C7"/>
<path d="M142.645 99.8545H115.063C114.41 99.8545 113.88 100.397 113.88 101.067V102.39C113.88 103.06 114.41 103.603 115.063 103.603H142.645C143.298 103.603 143.828 103.06 143.828 102.39V101.067C143.828 100.397 143.298 99.8545 142.645 99.8545Z" fill="#8937C7"/>
<path d="M172.234 99.8545H149.254C148.6 99.8545 148.07 100.397 148.07 101.067V102.39C148.07 103.06 148.6 103.603 149.254 103.603H172.234C172.888 103.603 173.418 103.06 173.418 102.39V101.067C173.418 100.397 172.888 99.8545 172.234 99.8545Z" fill="#8937C7"/>
<g opacity="0.5">
<path opacity="0.5" d="M170.227 81.791H115.064C114.41 81.791 113.88 82.3339 113.88 83.0036V84.327C113.88 84.9967 114.41 85.5396 115.064 85.5396H170.227C170.88 85.5396 171.41 84.9967 171.41 84.327V83.0036C171.41 82.3339 170.88 81.791 170.227 81.791Z" fill="white"/>
<path opacity="0.5" d="M152.751 90.8232H115.064C114.41 90.8232 113.88 91.3662 113.88 92.0359V93.3592C113.88 94.0289 114.41 94.5718 115.064 94.5718H152.751C153.404 94.5718 153.934 94.0289 153.934 93.3592V92.0359C153.934 91.3662 153.404 90.8232 152.751 90.8232Z" fill="white"/>
<path opacity="0.5" d="M142.645 99.8545H115.064C114.41 99.8545 113.88 100.397 113.88 101.067V102.39C113.88 103.06 114.41 103.603 115.064 103.603H142.645C143.299 103.603 143.829 103.06 143.829 102.39V101.067C143.829 100.397 143.299 99.8545 142.645 99.8545Z" fill="white"/>
<path opacity="0.5" d="M172.235 99.8545H149.255C148.601 99.8545 148.071 100.397 148.071 101.067V102.39C148.071 103.06 148.601 103.603 149.255 103.603H172.235C172.889 103.603 173.418 103.06 173.418 102.39V101.067C173.418 100.397 172.889 99.8545 172.235 99.8545Z" fill="white"/>
</g>
<path d="M134.297 115.725H107.963C106.222 115.725 104.811 117.171 104.811 118.955V159.379C104.811 161.163 106.222 162.61 107.963 162.61H134.297C136.038 162.61 137.45 161.163 137.45 159.379V118.955C137.45 117.171 136.038 115.725 134.297 115.725Z" fill="#8937C7"/>
<path opacity="0.4" d="M134.297 115.725H107.963C106.222 115.725 104.811 117.171 104.811 118.955V159.379C104.811 161.163 106.222 162.61 107.963 162.61H134.297C136.038 162.61 137.45 161.163 137.45 159.379V118.955C137.45 117.171 136.038 115.725 134.297 115.725Z" fill="#F3ECFF"/>
<path d="M133.089 120.615H109.166C108.846 120.615 108.586 120.881 108.586 121.209V122.1C108.586 122.427 108.846 122.693 109.166 122.693H133.089C133.409 122.693 133.668 122.427 133.668 122.1V121.209C133.668 120.881 133.409 120.615 133.089 120.615Z" fill="#FAFAFA"/>
<path d="M125.473 125.616H109.166C108.846 125.616 108.586 125.882 108.586 126.21V127.101C108.586 127.428 108.846 127.694 109.166 127.694H125.473C125.793 127.694 126.053 127.428 126.053 127.101V126.21C126.053 125.882 125.793 125.616 125.473 125.616Z" fill="#FAFAFA"/>
<path d="M133.089 130.623H109.166C108.846 130.623 108.586 130.889 108.586 131.217V132.107C108.586 132.435 108.846 132.701 109.166 132.701H133.089C133.409 132.701 133.668 132.435 133.668 132.107V131.217C133.668 130.889 133.409 130.623 133.089 130.623Z" fill="#FAFAFA"/>
<path d="M118.058 135.624H109.166C108.846 135.624 108.586 135.89 108.586 136.218V137.108C108.586 137.436 108.846 137.702 109.166 137.702H118.058C118.378 137.702 118.638 137.436 118.638 137.108V136.218C118.638 135.89 118.378 135.624 118.058 135.624Z" fill="#FAFAFA"/>
<path d="M130.501 135.624H121.609C121.289 135.624 121.029 135.89 121.029 136.218V137.108C121.029 137.436 121.289 137.702 121.609 137.702H130.501C130.821 137.702 131.081 137.436 131.081 137.108V136.218C131.081 135.89 130.821 135.624 130.501 135.624Z" fill="#FAFAFA"/>
<path d="M133.089 140.631H109.166C108.846 140.631 108.586 140.897 108.586 141.225V142.115C108.586 142.443 108.846 142.709 109.166 142.709H133.089C133.409 142.709 133.668 142.443 133.668 142.115V141.225C133.668 140.897 133.409 140.631 133.089 140.631Z" fill="#FAFAFA"/>
<path d="M133.089 145.633H109.166C108.846 145.633 108.586 145.899 108.586 146.227V147.117C108.586 147.445 108.846 147.711 109.166 147.711H133.089C133.409 147.711 133.668 147.445 133.668 147.117V146.227C133.668 145.899 133.409 145.633 133.089 145.633Z" fill="#FAFAFA"/>
<path d="M128.847 150.639H109.166C108.846 150.639 108.586 150.904 108.586 151.232V152.123C108.586 152.451 108.846 152.717 109.166 152.717H128.847C129.167 152.717 129.426 152.451 129.426 152.123V151.232C129.426 150.904 129.167 150.639 128.847 150.639Z" fill="#FAFAFA"/>
<path d="M118.348 155.641H109.166C108.846 155.641 108.586 155.906 108.586 156.234V157.125C108.586 157.453 108.846 157.719 109.166 157.719H118.348C118.668 157.719 118.928 157.453 118.928 157.125V156.234C118.928 155.906 118.668 155.641 118.348 155.641Z" fill="#FAFAFA"/>
<path d="M141.422 115.438H104.894L121.044 128.605L145.807 138.166V119.921C145.804 118.731 145.341 117.59 144.519 116.75C143.697 115.91 142.583 115.437 141.422 115.438Z" fill="#8937C7"/>
<path opacity="0.4" d="M141.422 115.438H104.894L121.044 128.605L145.807 138.166V119.921C145.804 118.731 145.341 117.59 144.519 116.75C143.697 115.91 142.583 115.437 141.422 115.438Z" fill="#F3ECFF"/>
<path d="M139.826 122.221H113.099C112.698 122.221 112.373 122.554 112.373 122.965V124.354C112.373 124.765 112.698 125.099 113.099 125.099H139.826C140.228 125.099 140.553 124.765 140.553 124.354V122.965C140.553 122.554 140.228 122.221 139.826 122.221Z" fill="#FAFAFA"/>
<path d="M204.594 151.082V124.756C204.594 122.739 202.998 121.104 201.029 121.104H156.418C154.449 121.104 152.853 122.739 152.853 124.756V151.082C152.853 153.1 154.449 154.735 156.418 154.735H201.029C202.998 154.735 204.594 153.1 204.594 151.082Z" fill="#8937C7"/>
<path d="M212.74 142.739V116.414C212.74 114.396 211.144 112.761 209.175 112.761H164.565C162.596 112.761 161 114.396 161 116.414V142.739C161 144.757 162.596 146.392 164.565 146.392H209.175C211.144 146.392 212.74 144.757 212.74 142.739Z" fill="#8937C7"/>
<path opacity="0.5" d="M212.74 142.739V116.414C212.74 114.396 211.144 112.761 209.175 112.761H164.565C162.596 112.761 161 114.396 161 116.414V142.739C161 144.757 162.596 146.392 164.565 146.392H209.175C211.144 146.392 212.74 144.757 212.74 142.739Z" fill="white"/>
<path d="M208.213 133.718V117.511C208.213 116.613 207.503 115.886 206.627 115.886H192.048C191.172 115.886 190.462 116.613 190.462 117.511V133.718C190.462 134.616 191.172 135.343 192.048 135.343H206.627C207.503 135.343 208.213 134.616 208.213 133.718Z" fill="#8937C7"/>
<path opacity="0.7" d="M208.213 133.718V117.511C208.213 116.613 207.503 115.886 206.627 115.886H192.048C191.172 115.886 190.462 116.613 190.462 117.511V133.718C190.462 134.616 191.172 135.343 192.048 135.343H206.627C207.503 135.343 208.213 134.616 208.213 133.718Z" fill="white"/>
<path d="M187.683 141.557V129.138C187.683 128.449 187.137 127.891 186.465 127.891H175.294C174.621 127.891 174.076 128.449 174.076 129.138V141.557C174.076 142.246 174.621 142.804 175.294 142.804H186.465C187.137 142.804 187.683 142.246 187.683 141.557Z" fill="#8937C7"/>
<path opacity="0.3" d="M187.683 141.557V129.138C187.683 128.449 187.137 127.891 186.465 127.891H175.294C174.621 127.891 174.076 128.449 174.076 129.138V141.557C174.076 142.246 174.621 142.804 175.294 142.804H186.465C187.137 142.804 187.683 142.246 187.683 141.557Z" fill="white"/>
<path d="M180.877 62.821V56.1138C180.877 54.0629 179.255 52.4004 177.253 52.4004L57.3768 52.4004C55.3755 52.4004 53.753 54.0629 53.753 56.1138V62.821C53.753 64.8718 55.3755 66.5343 57.3768 66.5343H177.253C179.255 66.5343 180.877 64.8718 180.877 62.821Z" fill="#8937C7"/>
<path opacity="0.5" d="M180.877 62.821V56.1138C180.877 54.0629 179.255 52.4004 177.253 52.4004L57.3768 52.4004C55.3755 52.4004 53.753 54.0629 53.753 56.1138V62.821C53.753 64.8718 55.3755 66.5343 57.3768 66.5343H177.253C179.255 66.5343 180.877 64.8718 180.877 62.821Z" fill="white"/>
<path d="M158.196 68.8998V64.0342H123.701V68.8998H158.196Z" fill="#8937C7"/>
<path opacity="0.5" d="M158.196 68.8998V64.0342H123.701V68.8998H158.196Z" fill="white"/>
<path d="M193.246 41.9401V35.2329C193.246 33.1821 191.624 31.5195 189.622 31.5195L69.746 31.5195C67.7446 31.5195 66.1221 33.1821 66.1221 35.2329V41.9401C66.1221 43.9909 67.7446 45.6535 69.746 45.6535L189.622 45.6535C191.624 45.6535 193.246 43.9909 193.246 41.9401Z" fill="#8937C7"/>
<path d="M64.7523 105.842C64.3202 106.848 63.8439 107.935 63.4265 108.997C63.0091 110.059 62.577 111.15 62.1989 112.237C61.4231 114.356 60.8011 116.531 60.3379 118.743L60.1955 119.548L60.1464 119.85C60.1464 119.936 60.1464 120.046 60.1169 120.147C60.0983 120.637 60.1081 121.128 60.1464 121.616C60.2397 122.678 60.4066 123.815 60.6374 124.952C61.0499 127.232 61.5753 129.581 62.1105 131.896L59.5915 132.902C58.4173 130.709 57.4173 128.422 56.6011 126.064C56.1712 124.837 55.8234 123.581 55.5601 122.306C55.4127 121.6 55.3207 120.883 55.2852 120.162C55.2852 119.961 55.2852 119.77 55.2852 119.553C55.2852 119.337 55.2852 119.095 55.3195 118.955L55.4177 117.948C55.5645 116.652 55.7891 115.367 56.0905 114.099C56.3654 112.841 56.719 111.618 57.0725 110.411C57.4261 109.203 57.868 108.016 58.3345 106.848C58.5653 106.265 58.8255 105.686 59.0514 105.107C59.2773 104.529 59.5424 103.975 59.8567 103.356L64.7523 105.842Z" fill="#F3ECFF"/>
<path d="M61.9783 131.217L63.8934 133.134L59.7147 135.147C59.7147 135.147 58.7031 133.33 59.4053 131.69L61.9783 131.217Z" fill="#F3ECFF"/>
<path d="M65.4398 135.987L61.9093 137.466L59.7192 135.126L63.893 133.134L65.4398 135.987Z" fill="#F3ECFF"/>
<path opacity="0.4" d="M136.959 133.923C130.011 133.124 123.451 130.232 118.107 125.612C112.763 120.993 108.876 114.853 106.937 107.971C104.997 101.088 105.093 93.77 107.212 86.9428C109.33 80.1156 113.377 74.0854 118.84 69.6144C124.302 65.1434 130.936 62.4324 137.902 61.8242C144.868 61.216 151.854 62.7378 157.976 66.1972C164.098 69.6567 169.082 74.8985 172.297 81.2599C175.513 87.6214 176.815 94.8169 176.04 101.937C175.526 106.667 174.106 111.247 171.863 115.415C169.62 119.584 166.597 123.258 162.968 126.228C159.339 129.199 155.173 131.407 150.711 132.728C146.248 134.048 141.575 134.454 136.959 133.923V133.923Z" fill="#FAFAFA"/>
<path opacity="0.4" d="M162.679 69.3771L108.911 113.399C108.685 112.896 108.464 112.393 108.258 111.89C106.91 108.604 106.048 105.131 105.7 101.585V101.585L152.142 63.5605C155.955 64.8638 159.519 66.8316 162.679 69.3771V69.3771Z" fill="#FAFAFA"/>
<path opacity="0.4" d="M175.088 88.6638L124.536 130.049C119.733 127.484 115.572 123.82 112.373 119.342L167.57 74.1475C171.128 78.3323 173.7 83.2988 175.088 88.6638Z" fill="#FAFAFA"/>
<path d="M101.104 84.0751L100.637 83.9141C101.445 81.4712 102.461 79.1057 103.672 76.8446L104.099 77.0862C102.904 79.3219 101.901 81.6605 101.104 84.0751ZM107.065 72.3312L106.667 72.0344C110.702 66.4431 115.984 61.9214 122.071 58.8464L122.292 59.2992C116.274 62.3425 111.053 66.8159 107.065 72.3463V72.3312ZM160.877 59.9886C159.273 59.1066 157.613 58.3351 155.908 57.679L156.085 57.2061C157.806 57.8775 159.483 58.6641 161.103 59.5609L160.877 59.9886Z" fill="#8937C7"/>
<path opacity="0.3" d="M101.104 84.0751L100.637 83.9141C101.445 81.4712 102.461 79.1057 103.672 76.8446L104.099 77.0862C102.904 79.3219 101.901 81.6605 101.104 84.0751ZM107.065 72.3312L106.667 72.0344C110.702 66.4431 115.984 61.9214 122.071 58.8464L122.292 59.2992C116.274 62.3425 111.053 66.8159 107.065 72.3463V72.3312ZM160.877 59.9886C159.273 59.1066 157.613 58.3351 155.908 57.679L156.085 57.2061C157.806 57.8775 159.483 58.6641 161.103 59.5609L160.877 59.9886Z" fill="#F3ECFF"/>
<path d="M177.45 79.4158C172.903 69.7527 164.901 62.253 155.104 58.4716C145.307 54.6901 134.466 54.9169 124.827 59.105C115.189 63.293 107.493 71.1211 103.335 80.9663C99.1768 90.8116 98.8753 101.919 102.493 111.986C99.213 113.163 95.9722 114.426 92.751 115.729C88.1058 117.618 83.5032 119.59 78.9431 121.647C74.3863 123.715 69.8492 125.823 65.3562 128.027C63.1023 129.108 60.878 130.251 58.6339 131.358C57.4665 131.872 56.4089 132.615 55.5208 133.546C55.0402 134.062 54.6169 134.631 54.2588 135.242C53.8218 135.965 53.4909 136.75 53.2767 137.572C52.9072 139.052 53.067 140.62 53.7272 141.99C54.3873 143.361 55.5043 144.444 56.876 145.044C57.6378 145.371 58.4414 145.585 59.2624 145.678C59.9559 145.758 60.6559 145.758 61.3493 145.678C62.6095 145.521 63.8273 145.112 64.9339 144.475C67.1583 143.323 69.3974 142.211 71.6071 141.028C76.0264 138.719 80.4457 136.309 84.811 133.863C89.1763 131.418 93.5465 128.857 97.8087 126.23C100.755 124.404 103.731 122.537 106.647 120.585C112.248 129.645 121.036 136.15 131.19 138.752C141.344 141.354 152.085 139.853 161.189 134.56C170.292 129.268 177.06 120.589 180.089 110.323C183.118 100.057 182.176 88.9901 177.459 79.4158H177.45ZM155.127 127.483C149.421 130.37 143.007 131.457 136.697 130.609C130.388 129.76 124.465 127.013 119.679 122.716C114.893 118.418 111.457 112.763 109.808 106.465C108.158 100.167 108.367 93.5089 110.41 87.3329C112.453 81.157 116.237 75.7403 121.283 71.768C126.33 67.7956 132.413 65.4458 138.763 65.0158C145.113 64.5858 151.445 66.0948 156.958 69.3521C162.471 72.6093 166.917 77.4686 169.735 83.3154C171.607 87.1983 172.714 91.4209 172.992 95.7421C173.271 100.063 172.716 104.399 171.36 108.5C170.003 112.602 167.871 116.389 165.086 119.646C162.301 122.903 158.917 125.566 155.127 127.483Z" fill="#8937C7"/>
<path opacity="0.3" d="M177.45 79.4158C172.903 69.7527 164.901 62.253 155.104 58.4716C145.307 54.6901 134.466 54.9169 124.827 59.105C115.189 63.293 107.493 71.1211 103.335 80.9663C99.1768 90.8116 98.8753 101.919 102.493 111.986C99.213 113.163 95.9722 114.426 92.751 115.729C88.1058 117.618 83.5032 119.59 78.9431 121.647C74.3863 123.715 69.8492 125.823 65.3562 128.027C63.1023 129.108 60.878 130.251 58.6339 131.358C57.4665 131.872 56.4089 132.615 55.5208 133.546C55.0402 134.062 54.6169 134.631 54.2588 135.242C53.8218 135.965 53.4909 136.75 53.2767 137.572C52.9072 139.052 53.067 140.62 53.7272 141.99C54.3873 143.361 55.5043 144.444 56.876 145.044C57.6378 145.371 58.4414 145.585 59.2624 145.678C59.9559 145.758 60.6559 145.758 61.3493 145.678C62.6095 145.521 63.8273 145.112 64.9339 144.475C67.1583 143.323 69.3974 142.211 71.6071 141.028C76.0264 138.719 80.4457 136.309 84.811 133.863C89.1763 131.418 93.5465 128.857 97.8087 126.23C100.755 124.404 103.731 122.537 106.647 120.585C112.248 129.645 121.036 136.15 131.19 138.752C141.344 141.354 152.085 139.853 161.189 134.56C170.292 129.268 177.06 120.589 180.089 110.323C183.118 100.057 182.176 88.9901 177.459 79.4158H177.45ZM155.127 127.483C149.421 130.37 143.007 131.457 136.697 130.609C130.388 129.76 124.465 127.013 119.679 122.716C114.893 118.418 111.457 112.763 109.808 106.465C108.158 100.167 108.367 93.5089 110.41 87.3329C112.453 81.157 116.237 75.7403 121.283 71.768C126.33 67.7956 132.413 65.4458 138.763 65.0158C145.113 64.5858 151.445 66.0948 156.958 69.3521C162.471 72.6093 166.917 77.4686 169.735 83.3154C171.607 87.1983 172.714 91.4209 172.992 95.7421C173.271 100.063 172.716 104.399 171.36 108.5C170.003 112.602 167.871 116.389 165.086 119.646C162.301 122.903 158.917 125.566 155.127 127.483Z" fill="#F3ECFF"/>
<path d="M78.3242 87.8743C78.3242 88.1712 78.4764 88.4127 78.6679 88.4127C78.8594 88.4127 79.0117 88.1712 79.0117 87.8743C79.0117 87.5775 78.8594 87.3359 78.6679 87.3359C78.4764 87.3359 78.3242 87.5976 78.3242 87.8743Z" fill="#263238"/>
<path d="M78.4619 88.4121C78.8095 89.3234 79.277 90.1817 79.8515 90.9632C79.6529 91.1088 79.4256 91.2081 79.1855 91.2542C78.9455 91.3002 78.6985 91.2919 78.4619 91.2298V88.4121Z" fill="#DE5753"/>
<path d="M77.3084 86.2185C77.2811 86.2185 77.254 86.2122 77.2294 86.2C77.2047 86.1878 77.1831 86.17 77.166 86.1481C77.1404 86.1096 77.1303 86.0626 77.1376 86.0167C77.1449 85.9708 77.1691 85.9296 77.2053 85.9015C77.4216 85.7335 77.6743 85.6214 77.9419 85.575C78.2095 85.5286 78.4841 85.5491 78.7423 85.6348C78.7654 85.6413 78.7871 85.6527 78.8057 85.6682C78.8243 85.6838 78.8395 85.7032 78.8504 85.7252C78.8613 85.7471 78.8675 85.7712 78.8687 85.7958C78.8699 85.8204 78.8661 85.845 78.8575 85.868C78.8489 85.891 78.8356 85.9118 78.8186 85.9292C78.8016 85.9467 78.7813 85.9602 78.7588 85.9691C78.7364 85.9779 78.7124 85.9819 78.6884 85.9806C78.6644 85.9794 78.6409 85.973 78.6195 85.9619C78.4144 85.8974 78.1972 85.8844 77.9862 85.9238C77.7751 85.9632 77.5764 86.0539 77.4066 86.1883C77.3775 86.2081 77.3434 86.2186 77.3084 86.2185V86.2185Z" fill="#263238"/>
<path d="M68.4059 90.1133C68.897 92.8153 69.4371 97.7715 67.5908 99.5778C67.5908 99.5778 68.3126 102.32 73.2181 102.32C78.6195 102.32 75.7911 99.5778 75.7911 99.5778C72.8449 98.8533 72.9284 96.6192 73.439 94.516L68.4059 90.1133Z" fill="#F3ECFF"/>
<path d="M65.386 101.002C65.9703 100.071 64.9883 97.8115 64.9883 97.8115C64.9883 97.8115 73.6698 95.5724 77.22 99.0091C77.9565 99.7185 77.1414 100.765 77.1414 100.765L65.386 101.002Z" fill="#8937C7"/>
<path opacity="0.1" d="M65.386 101.002C65.9703 100.071 64.9883 97.8115 64.9883 97.8115C64.9883 97.8115 73.6698 95.5724 77.22 99.0091C77.9565 99.7185 77.1414 100.765 77.1414 100.765L65.386 101.002Z" fill="#F3ECFF"/>
<path d="M51.0231 203.663C50.5664 203.663 49.8348 202.883 49.6187 202.591C49.6095 202.577 49.6045 202.56 49.6045 202.543C49.6045 202.526 49.6095 202.51 49.6187 202.496C49.6267 202.481 49.6381 202.47 49.652 202.462C49.6658 202.454 49.6815 202.45 49.6973 202.45C49.7513 202.45 50.9544 202.561 51.2833 202.999C51.3191 203.045 51.3447 203.099 51.3582 203.156C51.3718 203.213 51.373 203.273 51.3619 203.331C51.3576 203.406 51.3308 203.477 51.285 203.536C51.2393 203.594 51.1769 203.637 51.1066 203.658L51.0231 203.663ZM49.8839 202.657C50.2424 203.079 50.8169 203.557 51.0624 203.497C51.0624 203.497 51.1606 203.472 51.19 203.311C51.1965 203.277 51.1954 203.242 51.1869 203.209C51.1784 203.176 51.1627 203.145 51.1409 203.119C50.7772 202.837 50.3395 202.672 49.8839 202.646V202.657Z" fill="#8937C7"/>
<path d="M49.9382 202.646C49.85 202.655 49.7612 202.655 49.673 202.646C49.6575 202.645 49.6427 202.639 49.6304 202.629C49.6182 202.619 49.6091 202.606 49.6043 202.591C49.5973 202.577 49.5938 202.561 49.5938 202.546C49.5938 202.53 49.5973 202.514 49.6043 202.5C49.6386 202.47 50.3605 201.7 50.9055 201.7C50.9707 201.699 51.0355 201.711 51.0956 201.737C51.1557 201.764 51.2097 201.802 51.2541 201.851C51.303 201.893 51.3365 201.951 51.349 202.015C51.3615 202.079 51.3523 202.146 51.3229 202.203C51.1805 202.485 50.4292 202.646 49.9382 202.646ZM49.8743 202.47C50.3654 202.47 51.0774 202.314 51.1952 202.093C51.1952 202.093 51.2296 202.027 51.151 201.947C51.1224 201.915 51.0874 201.89 51.0484 201.873C51.0094 201.857 50.9673 201.849 50.9251 201.851V201.851C50.5226 201.946 50.1568 202.161 49.8743 202.47V202.47Z" fill="#8937C7"/>
<path d="M83.4267 215.085C83.0545 215.082 82.6832 215.047 82.3169 214.979C82.2987 214.976 82.2823 214.966 82.2707 214.951C82.259 214.936 82.2528 214.918 82.2531 214.899C82.2503 214.881 82.2526 214.863 82.2596 214.847C82.2665 214.831 82.2779 214.818 82.2924 214.808C82.3464 214.778 83.6034 214.038 84.2074 214.209C84.2634 214.222 84.3163 214.247 84.3627 214.281C84.4091 214.316 84.4482 214.36 84.4775 214.411C84.5159 214.466 84.5366 214.533 84.5366 214.602C84.5366 214.67 84.5159 214.737 84.4775 214.793C84.3351 215.019 83.8882 215.085 83.4267 215.085ZM82.5968 214.848C83.2646 214.949 84.1779 214.944 84.3449 214.702C84.3695 214.672 84.3891 214.617 84.3449 214.511C84.3074 214.449 84.2475 214.403 84.1779 214.385C83.7949 214.285 83.0338 214.617 82.5968 214.848Z" fill="#8937C7"/>
<path d="M82.3364 214.984C82.3203 214.988 82.3033 214.988 82.2873 214.984C82.2737 214.975 82.263 214.962 82.2569 214.946C82.2507 214.931 82.2493 214.914 82.2529 214.898C82.2862 214.374 82.4824 213.875 82.8127 213.474C82.8795 213.415 82.9579 213.371 83.0427 213.346C83.1274 213.321 83.2164 213.315 83.3037 213.328C83.5394 213.328 83.6081 213.474 83.6229 213.57C83.6867 213.987 82.8274 214.787 82.3904 214.989L82.3364 214.984ZM83.2153 213.474C83.1073 213.473 83.0026 213.513 82.9207 213.585C82.643 213.903 82.4711 214.302 82.4297 214.727C82.8716 214.45 83.4608 213.826 83.4117 213.575C83.4117 213.575 83.4117 213.489 83.2448 213.474H83.2153Z" fill="#8937C7"/>
<path d="M78.3691 214.893H81.9782L82.3367 206.334H78.7276L78.3691 214.893Z" fill="#F3ECFF"/>
<path d="M46.231 200.201L49.2459 202.224L55.9043 196.462L52.8845 194.435L46.231 200.201Z" fill="#F3ECFF"/>
<path d="M49.7416 202.032L46.6088 199.4C46.5535 199.354 46.4841 199.328 46.4124 199.328C46.3408 199.328 46.2714 199.354 46.216 199.4L43.6332 201.478C43.5708 201.529 43.5204 201.594 43.4857 201.667C43.4511 201.741 43.4331 201.822 43.4331 201.903C43.4331 201.985 43.4511 202.066 43.4857 202.139C43.5204 202.213 43.5708 202.278 43.6332 202.329C44.7429 203.229 45.3272 203.612 46.707 204.769C47.5565 205.478 49.6532 207.652 50.8366 208.633C52.02 209.614 53.1052 208.558 52.7124 208.05C50.9496 205.76 50.2572 203.803 50.0559 202.59C50.0211 202.371 49.9093 202.172 49.7416 202.032V202.032Z" fill="#263238"/>
<path d="M81.9538 214.466H78.0255C77.9538 214.466 77.8844 214.491 77.8283 214.537C77.7722 214.582 77.7327 214.646 77.7161 214.717L77.0041 218.003C76.9862 218.083 76.9863 218.165 77.0042 218.245C77.0221 218.325 77.0575 218.399 77.1077 218.463C77.1578 218.526 77.2214 218.577 77.2937 218.612C77.3659 218.646 77.4449 218.664 77.5246 218.662C78.9437 218.637 80.9962 218.552 82.7836 218.552C84.8705 218.552 86.6775 218.667 89.1229 218.667C90.596 218.667 91.0183 217.133 90.3946 216.997C87.5761 216.363 85.2682 216.297 82.8327 214.753C82.5714 214.575 82.267 214.476 81.9538 214.466V214.466Z" fill="#263238"/>
<path d="M60.4807 100.68C57.3528 102.19 55.5703 112.303 55.5703 112.303L63.2157 115.428C64.3348 112.628 65.2394 109.743 65.9213 106.799C66.9721 102.139 63.6822 99.1202 60.4807 100.68Z" fill="#263238"/>
<path d="M64.5366 106.38C62.6461 108.343 61.7819 112.187 61.4038 114.688L63.2354 115.437C64.3226 112.717 65.209 109.916 65.887 107.06C65.7249 105.993 65.3223 105.565 64.5366 106.38Z" fill="#203048"/>
<path d="M81.3394 100.609C81.3394 100.609 85.1793 105.057 81.5554 132.56H62.2627C62.1301 129.541 63.9911 114.723 61.1333 100.423C63.2654 99.9992 65.4225 99.7201 67.5904 99.5875C70.3214 99.4213 73.0597 99.4213 75.7907 99.5875C77.6632 99.7806 79.5183 100.122 81.3394 100.609V100.609Z" fill="#263238"/>
<path d="M83.1026 111.286L79.8519 105.545C79.2244 108.224 78.9682 110.98 79.0908 113.731C79.1792 115.704 80.942 123.01 82.5281 124.077C82.9489 119.827 83.1407 115.557 83.1026 111.286V111.286Z" fill="#203048"/>
<path d="M83.5545 104.539C84.0455 106.984 84.5366 109.49 85.062 111.946C85.5874 114.401 86.1324 116.867 86.7659 119.247C86.9279 119.835 87.0801 120.439 87.2569 121.003L87.3895 121.435L87.4533 121.652V121.627C87.4189 121.581 87.3796 121.576 87.4091 121.627C87.6109 121.852 87.8689 122.018 88.1555 122.105C88.6197 122.282 89.0977 122.418 89.5844 122.512C91.9059 122.889 94.2565 123.046 96.6062 122.98L97.0727 125.717C96.4147 125.934 95.8009 126.09 95.1527 126.246C94.5046 126.402 93.8662 126.532 93.2131 126.633C91.8619 126.864 90.492 126.958 89.1228 126.915C88.3618 126.894 87.6049 126.793 86.8641 126.613C85.9221 126.402 85.0369 125.981 84.2714 125.38C83.7714 124.967 83.3587 124.453 83.0585 123.871C82.98 123.72 82.9112 123.549 82.8474 123.403L82.759 123.166L82.5773 122.663C82.3269 122.024 82.1207 121.395 81.8948 120.766C81.0649 118.25 80.3726 115.709 79.7637 113.173C79.1548 110.637 78.6294 108.107 78.1924 105.505L83.5545 104.539Z" fill="#F3ECFF"/>
<path d="M76.5226 103.306C75.5062 106.683 79.626 116.751 79.626 116.751L87.8311 114.638C87.8311 114.638 87.5169 109.405 85.646 105.254C82.8275 98.9942 77.7404 99.2558 76.5226 103.306Z" fill="#263238"/>
<path d="M96.5371 122.98L100.622 122.874L98.6584 127.231C98.6584 127.231 96.9938 127.458 95.6287 125.158L94.1899 123.397L95.8447 123.06C96.0725 123.011 96.3043 122.984 96.5371 122.98V122.98Z" fill="#F3ECFF"/>
<path d="M103.2 123.684L100.863 127.297L98.6582 127.231L100.622 122.874L103.2 123.684Z" fill="#F3ECFF"/>
<path d="M82.3362 206.334L82.1496 210.747H78.5405L78.7271 206.334H82.3362Z" fill="#CE6F64"/>
<path d="M52.884 194.435L55.9039 196.462L52.4666 199.431L49.4517 197.408L52.884 194.435Z" fill="#CE6F64"/>
<path d="M68.6319 87.2355C68.8479 90.8935 68.7939 93.0521 70.596 94.9289C73.3065 97.7618 77.7209 96.0862 78.5753 92.4131C79.3462 89.1224 78.865 83.6882 75.3689 82.229C74.5974 81.91 73.7595 81.797 72.9338 81.9006C72.1081 82.0043 71.3216 82.3212 70.6482 82.8217C69.9747 83.3221 69.4364 83.9897 69.0837 84.7618C68.731 85.5338 68.5756 86.385 68.6319 87.2355V87.2355Z" fill="#F3ECFF"/>
<path d="M64.4285 86.5909C65.3173 89.9269 67.4091 93.7711 70.1147 94.0177C73.4734 94.3196 74.9906 90.7622 75.4326 87.0891C77.4458 85.6752 76.3901 84.1204 78.4082 83.9242C81.0009 83.6726 80.1711 78.812 76.7584 78.0321C76.7584 78.0321 77.9025 80.2209 75.5013 79.1139C73.2178 78.0018 70.6808 77.5512 68.1653 77.8107C68.1653 77.8107 71.2293 79.3806 68.234 80.08C65.2387 80.7794 64.345 82.6713 65.7248 83.8135C65.7248 83.8185 63.8442 84.3971 64.4285 86.5909Z" fill="#263238"/>
<path d="M73.3851 87.8435C73.451 88.7528 73.8084 89.6143 74.4015 90.294C75.1872 91.1846 76.0072 90.6311 76.1447 89.5493C76.2724 88.5782 76.0121 86.9429 75.0497 86.4498C74.0872 85.9567 73.3212 86.7466 73.3851 87.8435Z" fill="#F3ECFF"/>
<path d="M74.7109 132.56C74.7109 132.56 78.2267 158.649 75.4573 169.105C71.0674 185.659 54.2839 199.632 54.2839 199.632L48.5928 195.808C48.5928 195.808 62.8868 184.008 64.6349 170.146C66.2062 157.703 62.2632 142.653 62.2632 132.555L74.7109 132.56Z" fill="#8937C7"/>
<path opacity="0.1" d="M74.7109 132.56C74.7109 132.56 78.2267 158.649 75.4573 169.105C71.0674 185.659 54.2839 199.632 54.2839 199.632L48.5928 195.808C48.5928 195.808 62.8868 184.008 64.6349 170.146C66.2062 157.703 62.2632 142.653 62.2632 132.555L74.7109 132.56Z" fill="#F3ECFF"/>
<path d="M76.1642 147.474C75.2283 146.375 74.1979 145.365 73.0854 144.455C73.6845 152.923 74.1755 165.467 73.6305 174.378C74.3633 172.67 74.9738 170.909 75.4571 169.11C76.8075 164.003 76.6651 155.183 76.1642 147.474Z" fill="#8937C7"/>
<path opacity="0.3" d="M76.1642 147.474C75.2283 146.375 74.1979 145.365 73.0854 144.455C73.6845 152.923 74.1755 165.467 73.6305 174.378C74.3633 172.67 74.9738 170.909 75.4571 169.11C76.8075 164.003 76.6651 155.183 76.1642 147.474Z" fill="#F3ECFF"/>
<path d="M56.5765 198.329C56.6011 198.329 54.3718 199.839 54.3718 199.839L48.1553 195.663L50.1194 193.997L56.5765 198.329Z" fill="#8937C7"/>
<path opacity="0.3" d="M56.5765 198.329C56.6011 198.329 54.3718 199.839 54.3718 199.839L48.1553 195.663L50.1194 193.997L56.5765 198.329Z" fill="#F3ECFF"/>
<path d="M81.5555 132.561C81.5555 132.561 86.9863 156.159 87.3693 167.435C87.8015 180.075 83.4951 209.892 83.4951 209.892H77.3817C77.3817 209.892 76.6304 179.843 76.3603 168.331C76.0608 155.777 68.8721 132.561 68.8721 132.561H81.5555Z" fill="#8937C7"/>
<path opacity="0.1" d="M81.5555 132.561C81.5555 132.561 86.9863 156.159 87.3693 167.435C87.8015 180.075 83.4951 209.892 83.4951 209.892H77.3817C77.3817 209.892 76.6304 179.843 76.3603 168.331C76.0608 155.777 68.8721 132.561 68.8721 132.561H81.5555Z" fill="#F3ECFF"/>
<path d="M84.6688 207.401C84.6982 207.401 84.325 209.998 84.325 209.998H76.8908L76.6895 207.678L84.6688 207.401Z" fill="#8937C7"/>
<path opacity="0.3" d="M84.6688 207.401C84.6982 207.401 84.325 209.998 84.325 209.998H76.8908L76.6895 207.678L84.6688 207.401Z" fill="#F3ECFF"/>
<path d="M175.55 109.883C175.967 110.285 176.296 110.628 176.64 111.01C176.984 111.392 177.308 111.765 177.622 112.152C178.261 112.922 178.86 113.732 179.439 114.547C180.596 116.182 181.626 117.908 182.518 119.71L182.7 120.077C182.788 120.255 182.862 120.44 182.921 120.63C183.039 120.999 183.112 121.381 183.137 121.768C183.169 122.45 183.077 123.132 182.866 123.78C182.508 124.857 181.975 125.864 181.29 126.759C180.056 128.383 178.601 129.816 176.969 131.016L175.746 129.577C176.321 128.887 176.92 128.148 177.455 127.408C178 126.691 178.492 125.935 178.928 125.144C179.336 124.454 179.637 123.704 179.822 122.92C179.886 122.639 179.897 122.349 179.856 122.064C179.839 121.969 179.809 121.876 179.768 121.788C179.75 121.749 179.728 121.712 179.704 121.677L179.547 121.405C178.6 119.823 177.572 118.293 176.468 116.821C175.923 116.082 175.339 115.372 174.75 114.673C174.46 114.321 174.16 113.979 173.861 113.636C173.561 113.294 173.237 112.952 172.977 112.685L175.55 109.883Z" fill="#F3ECFF"/>
<path d="M176.218 129.154L172.55 128.54L174.47 131.831C174.47 131.831 176.832 131.745 177.504 130.321L176.218 129.154Z" fill="#F3ECFF"/>
<path d="M169.839 130.06L171.587 132.731L174.47 131.831L172.55 128.54L169.839 130.06Z" fill="#F3ECFF"/>
<path d="M176.041 215.04C175.792 215.062 175.543 214.992 175.339 214.844C175.277 214.784 175.232 214.709 175.207 214.626C175.182 214.543 175.178 214.455 175.196 214.371C175.2 214.317 175.218 214.265 175.248 214.22C175.278 214.176 175.32 214.141 175.368 214.119C175.795 213.923 176.915 214.657 177.043 214.743C177.057 214.752 177.068 214.766 177.075 214.782C177.081 214.799 177.082 214.817 177.077 214.834C177.075 214.851 177.068 214.867 177.056 214.88C177.045 214.892 177.03 214.901 177.013 214.904C176.695 214.987 176.369 215.032 176.041 215.04V215.04ZM175.55 214.26C175.514 214.254 175.478 214.254 175.442 214.26C175.42 214.27 175.402 214.287 175.389 214.307C175.376 214.328 175.369 214.351 175.368 214.376C175.355 214.432 175.357 214.491 175.372 214.546C175.387 214.602 175.417 214.652 175.457 214.693C175.643 214.864 176.124 214.889 176.768 214.758C176.399 214.509 175.985 214.339 175.55 214.26V214.26Z" fill="#8937C7"/>
<path d="M177.023 214.899H176.979C176.63 214.692 175.957 213.892 176.041 213.454C176.057 213.385 176.094 213.324 176.147 213.278C176.2 213.233 176.266 213.206 176.335 213.203C176.402 213.193 176.469 213.199 176.533 213.22C176.597 213.241 176.655 213.276 176.704 213.324C177.106 213.686 177.111 214.773 177.111 214.833C177.11 214.848 177.106 214.863 177.098 214.876C177.09 214.89 177.08 214.901 177.067 214.909L177.023 214.899ZM176.394 213.389H176.355C176.247 213.389 176.222 213.449 176.213 213.495C176.164 213.751 176.581 214.365 176.93 214.652C176.938 214.23 176.82 213.815 176.591 213.465C176.561 213.436 176.526 213.415 176.488 213.402C176.45 213.389 176.41 213.385 176.37 213.389H176.394Z" fill="#8937C7"/>
<path d="M159.306 215.04C158.993 215.07 158.679 214.989 158.418 214.808C158.359 214.755 158.313 214.688 158.285 214.612C158.257 214.537 158.247 214.456 158.256 214.376C158.259 214.327 158.274 214.279 158.3 214.238C158.325 214.197 158.361 214.163 158.403 214.139C158.859 213.878 160.323 214.642 160.49 214.738C160.505 214.748 160.517 214.762 160.525 214.779C160.533 214.796 160.536 214.815 160.534 214.834C160.531 214.851 160.523 214.867 160.511 214.88C160.498 214.893 160.482 214.901 160.465 214.904C160.084 214.987 159.696 215.032 159.306 215.04V215.04ZM158.653 214.26C158.597 214.256 158.541 214.268 158.491 214.295C158.474 214.304 158.459 214.317 158.448 214.334C158.438 214.351 158.432 214.371 158.432 214.391C158.425 214.443 158.43 214.497 158.447 214.547C158.464 214.597 158.493 214.642 158.531 214.678C158.756 214.884 159.36 214.919 160.175 214.778C159.7 214.519 159.186 214.344 158.653 214.26V214.26Z" fill="#8937C7"/>
<path d="M160.45 214.899H160.411C159.974 214.697 159.105 213.892 159.174 213.455C159.174 213.354 159.262 213.228 159.503 213.203C159.591 213.193 159.68 213.202 159.764 213.229C159.848 213.256 159.927 213.3 159.994 213.359C160.455 213.751 160.544 214.768 160.544 214.813C160.546 214.828 160.543 214.844 160.537 214.858C160.531 214.872 160.522 214.885 160.509 214.894C160.491 214.902 160.47 214.904 160.45 214.899V214.899ZM159.572 213.389H159.518C159.36 213.389 159.351 213.47 159.346 213.49C159.306 213.746 159.896 214.385 160.328 214.662C160.285 214.232 160.114 213.826 159.837 213.5C159.762 213.435 159.669 213.396 159.572 213.389V213.389Z" fill="#8937C7"/>
<path d="M166.255 98.3145C166.112 100.589 165.729 105.208 167.433 106.486C167.433 106.486 167.124 108.816 163.102 109.359C158.683 109.948 160.701 107.392 160.701 107.392C163.043 106.476 162.744 104.649 162.105 102.979L166.255 98.3145Z" fill="#F3ECFF"/>
<path d="M157.107 94.2951C157.082 94.2951 157.058 94.2898 157.036 94.2793C157.014 94.2689 156.995 94.2537 156.979 94.2347C156.839 94.064 156.661 93.9296 156.461 93.8421C156.26 93.7547 156.043 93.7169 155.825 93.7315C155.802 93.7358 155.779 93.7353 155.756 93.7299C155.733 93.7246 155.712 93.7145 155.693 93.7004C155.674 93.6863 155.658 93.6684 155.646 93.6478C155.634 93.6272 155.627 93.6043 155.624 93.5806C155.618 93.5333 155.631 93.4856 155.66 93.4479C155.688 93.4102 155.73 93.3856 155.776 93.3793C156.053 93.3553 156.332 93.4004 156.589 93.5108C156.845 93.6212 157.072 93.7936 157.249 94.0133C157.27 94.0395 157.284 94.0714 157.288 94.1052C157.293 94.139 157.288 94.1734 157.274 94.2044C157.26 94.2355 157.238 94.2618 157.21 94.2805C157.182 94.2992 157.15 94.3095 157.117 94.3102L157.107 94.2951Z" fill="#263238"/>
<path d="M156.34 96.5234C156.166 97.2451 155.897 97.9392 155.54 98.5864C155.704 98.6768 155.885 98.7291 156.071 98.7395C156.257 98.75 156.443 98.7183 156.615 98.6468L156.34 96.5234Z" fill="#DE5753"/>
<path d="M156.537 95.971C156.576 96.2729 156.454 96.5345 156.262 96.5647C156.071 96.5949 155.879 96.3634 155.845 96.0615C155.81 95.7596 155.928 95.498 156.12 95.4728C156.311 95.4477 156.503 95.6489 156.537 95.971Z" fill="#263238"/>
<path d="M156.208 95.4771L155.477 95.3613C155.477 95.3613 155.909 95.8796 156.208 95.4771Z" fill="#263238"/>
<path d="M164.497 214.818H160.814L160.568 206.088H164.251L164.497 214.818Z" fill="#F3ECFF"/>
<path d="M181.217 214.818H177.534L176.351 206.088H180.033L181.217 214.818Z" fill="#F3ECFF"/>
<path d="M177.308 214.396H181.442C181.513 214.395 181.581 214.421 181.635 214.468C181.688 214.515 181.723 214.581 181.732 214.652L182.223 218.008C182.232 218.093 182.224 218.178 182.198 218.259C182.172 218.34 182.13 218.415 182.075 218.478C182.019 218.541 181.951 218.592 181.875 218.626C181.799 218.66 181.717 218.678 181.634 218.677C180.195 218.652 179.498 218.567 177.681 218.567C176.561 218.567 174.926 218.682 173.385 218.682C171.843 218.682 171.759 217.118 172.402 216.977C175.285 216.343 175.741 215.467 176.709 214.627C176.878 214.483 177.089 214.402 177.308 214.396Z" fill="#263238"/>
<path d="M160.691 214.396H164.821C164.892 214.395 164.961 214.42 165.015 214.467C165.069 214.515 165.105 214.58 165.115 214.652L165.606 218.008C165.615 218.093 165.607 218.178 165.581 218.259C165.556 218.34 165.514 218.415 165.458 218.478C165.402 218.541 165.334 218.592 165.258 218.626C165.182 218.66 165.1 218.678 165.017 218.677C163.578 218.652 162.881 218.567 161.064 218.567C159.945 218.567 157.627 218.682 156.085 218.682C154.543 218.682 154.46 217.118 155.103 216.977C157.985 216.343 159.12 215.467 160.092 214.627C160.261 214.483 160.472 214.402 160.691 214.396Z" fill="#263238"/>
<path d="M160.568 206.088L160.696 210.591H164.379L164.251 206.088H160.568Z" fill="#CE6F64"/>
<path d="M180.033 206.088H176.351L176.964 210.591H180.642L180.033 206.088Z" fill="#CE6F64"/>
<path d="M166.304 93.6051C166.554 97.3386 166.736 98.9135 165.155 101.062C162.773 104.287 158.246 103.789 156.91 100.207C155.707 96.9813 155.501 91.4214 158.85 89.4691C159.587 89.0364 160.419 88.8038 161.268 88.7933C162.117 88.7828 162.955 88.9948 163.701 89.4091C164.448 89.8234 165.079 90.4264 165.534 91.1607C165.99 91.8951 166.255 92.7365 166.304 93.6051V93.6051Z" fill="#F3ECFF"/>
<path d="M168.425 97.0722C170.468 98.2396 171.985 95.3614 171.985 95.3614C171.985 95.3614 168.322 95.769 168.651 93.535C169.083 90.5713 167.011 86.9686 161.815 87.4316C161.526 87.4567 161.251 87.4919 160.981 87.5372C160.437 87.2731 159.822 87.2049 159.235 87.3437C158.649 87.4825 158.125 87.8202 157.75 88.302C156.277 88.4278 154.288 90.2292 155.638 92.6091C155.733 92.3357 155.88 92.0842 156.07 91.8695C156.183 93.2633 157.372 95.4772 158.855 95.6231C159.174 97.5301 157.936 99.739 158.364 101.732C158.997 104.605 163.726 105.254 163.726 105.254C163.563 104.895 163.502 104.496 163.55 104.104C163.599 103.711 163.755 103.34 164.001 103.035C167.212 104.544 169.328 103.07 169.328 103.07C167.138 102.235 167.801 100.745 167.801 100.745C168.557 101.089 169.414 101.12 170.192 100.83C170.969 100.54 171.607 99.9521 171.97 99.1905C171.243 99.2259 170.521 99.0447 169.892 98.6688C169.263 98.2929 168.753 97.7384 168.425 97.0722V97.0722Z" fill="#263238"/>
<path d="M160.136 96.1967C160.145 96.555 160.084 96.9115 159.958 97.2457C159.832 97.5799 159.642 97.8852 159.4 98.1439C158.752 98.8333 157.956 98.3502 157.74 97.4697C157.549 96.6747 157.657 95.3614 158.501 94.9991C158.687 94.9243 158.888 94.8982 159.087 94.9233C159.285 94.9485 159.474 95.024 159.636 95.143C159.799 95.2619 159.93 95.4207 160.017 95.6047C160.104 95.7887 160.145 95.9922 160.136 96.1967V96.1967Z" fill="#F3ECFF"/>
<path d="M163.195 130.981C163.195 130.981 164.128 155.817 166.348 170.399C168.135 182.183 176.075 209.716 176.075 209.716H181.094C181.094 209.716 176.954 183.124 176.046 171.475C173.748 141.995 179.714 135.665 174.082 129.526L163.195 130.981Z" fill="#263238"/>
<path d="M167.389 138.835C167.389 138.835 165.12 138.432 163.794 142.86C164.285 151.248 165.125 162.378 166.348 170.398C166.618 172.185 167.03 174.338 167.536 176.698C166.579 162.529 167.389 138.835 167.389 138.835Z" fill="#161F33"/>
<path d="M159.282 131.504C159.282 131.504 155.147 158.982 155.388 170.479C155.638 182.439 159.915 209.726 159.915 209.726H164.89C164.89 209.726 164.104 183.149 164.541 171.405C165.032 158.599 170.134 130.06 170.134 130.06L159.282 131.504Z" fill="#263238"/>
<path d="M181.82 209.957H175.147L174.626 207.663L181.771 207.713L181.82 209.957Z" fill="#8937C7"/>
<path opacity="0.2" d="M181.82 209.957H175.147L174.626 207.663L181.771 207.713L181.82 209.957Z" fill="#F3ECFF"/>
<path d="M173.831 106.491C175.751 106.682 178.668 112.273 178.668 112.273L173.821 116.082C173.821 116.082 169.81 112.474 170.286 110.446C170.782 108.338 171.99 106.315 173.831 106.491Z" fill="#8937C7"/>
<path opacity="0.1" d="M173.831 106.491C175.751 106.682 178.668 112.273 178.668 112.273L173.821 116.082C173.821 116.082 169.81 112.474 170.286 110.446C170.782 108.338 171.99 106.315 173.831 106.491Z" fill="#F3ECFF"/>
<path d="M172.383 108.896C171.893 108.761 171.387 108.703 170.88 108.725C170.623 109.275 170.423 109.852 170.286 110.446C169.795 112.459 173.822 116.081 173.822 116.081L174.18 115.8L172.383 108.896Z" fill="#8937C7"/>
<path opacity="0.3" d="M172.383 108.896C171.893 108.761 171.387 108.703 170.88 108.725C170.623 109.275 170.423 109.852 170.286 110.446C169.795 112.459 173.822 116.081 173.822 116.081L174.18 115.8L172.383 108.896Z" fill="#F3ECFF"/>
<path d="M157.637 114.265C156.237 117.893 154.764 121.581 153.591 125.219C153.512 125.451 153.448 125.672 153.38 125.899L153.213 126.457C153.167 126.622 153.167 126.796 153.213 126.96C153.49 127.589 153.93 128.129 154.484 128.52C155.953 129.599 157.552 130.477 159.243 131.131L158.801 132.983C156.721 132.702 154.71 132.03 152.869 131.001C151.736 130.38 150.813 129.422 150.222 128.253C149.883 127.506 149.765 126.673 149.883 125.858C149.895 125.759 149.911 125.659 149.933 125.561L149.982 125.35L150.065 124.968C150.124 124.711 150.183 124.465 150.247 124.213C150.738 122.2 151.366 120.288 152.029 118.391C152.692 116.494 153.385 114.623 154.165 112.756L157.637 114.265Z" fill="#F3ECFF"/>
<path d="M154.656 109.174C154.656 109.174 152.997 110.034 159.282 131.504L174.101 129.522C173.06 123.373 172.569 119.564 173.831 106.492C171.706 106.336 169.573 106.336 167.448 106.492C165.185 106.627 162.935 106.929 160.716 107.398C157.873 108.047 154.656 109.174 154.656 109.174Z" fill="#8937C7"/>
<path opacity="0.1" d="M154.656 109.174C154.656 109.174 152.997 110.034 159.282 131.504L174.101 129.522C173.06 123.373 172.569 119.564 173.831 106.492C171.706 106.336 169.573 106.336 167.448 106.492C165.185 106.627 162.935 106.929 160.716 107.398C157.873 108.047 154.656 109.174 154.656 109.174Z" fill="#F3ECFF"/>
<path d="M174.209 128.6L175.059 129.863C175.123 129.963 175.015 130.084 174.848 130.109L159.307 132.193C159.174 132.193 159.051 132.157 159.032 132.072L158.727 130.728C158.703 130.638 158.811 130.542 158.958 130.522L173.964 128.509C174.009 128.502 174.055 128.506 174.098 128.522C174.141 128.538 174.179 128.565 174.209 128.6Z" fill="#8937C7"/>
<path opacity="0.2" d="M174.209 128.6L175.059 129.863C175.123 129.963 175.015 130.084 174.848 130.109L159.307 132.193C159.174 132.193 159.051 132.157 159.032 132.072L158.727 130.728C158.703 130.638 158.811 130.542 158.958 130.522L173.964 128.509C174.009 128.502 174.055 128.506 174.098 128.522C174.141 128.538 174.179 128.565 174.209 128.6Z" fill="#F3ECFF"/>
<path d="M172.412 130.588L172.815 130.533C172.894 130.533 172.948 130.473 172.938 130.422L172.525 128.681C172.51 128.652 172.485 128.628 172.454 128.615C172.424 128.603 172.39 128.601 172.358 128.611L171.956 128.661C171.872 128.661 171.818 128.722 171.833 128.777L172.245 130.513C172.255 130.568 172.334 130.598 172.412 130.588Z" fill="#263238"/>
<path d="M162.67 131.876L163.073 131.821C163.151 131.821 163.21 131.76 163.195 131.71L162.783 129.969C162.767 129.94 162.742 129.917 162.712 129.903C162.682 129.889 162.648 129.886 162.616 129.894L162.213 129.949C162.135 129.949 162.076 130.009 162.091 130.06L162.503 131.801C162.513 131.876 162.592 131.906 162.67 131.876Z" fill="#263238"/>
<path d="M155.349 116.459C155.756 118.402 156.331 120.862 157.17 123.977L157.352 116.082L155.349 116.459Z" fill="#8937C7"/>
<path opacity="0.3" d="M155.349 116.459C155.756 118.402 156.331 120.862 157.17 123.977L157.352 116.082L155.349 116.459Z" fill="#F3ECFF"/>
<path d="M154.656 109.173C152.815 109.933 151.219 116.389 151.219 116.389L157.554 119.549C157.554 119.549 160.613 111.654 159.243 110.114C157.873 108.575 156.778 108.303 154.656 109.173Z" fill="#8937C7"/>
<path opacity="0.1" d="M154.656 109.173C152.815 109.933 151.219 116.389 151.219 116.389L157.554 119.549C157.554 119.549 160.613 111.654 159.243 110.114C157.873 108.575 156.778 108.303 154.656 109.173Z" fill="#F3ECFF"/>
<path d="M165.739 209.957H159.066L158.545 207.663L165.975 207.713L165.739 209.957Z" fill="#8937C7"/>
<path opacity="0.2" d="M165.739 209.957H159.066L158.545 207.663L165.975 207.713L165.739 209.957Z" fill="#F3ECFF"/>
<path d="M159.346 130.508L158.81 130.281C158.679 130.227 158.535 130.208 158.395 130.229C158.254 130.249 158.121 130.307 158.009 130.397C157.898 130.487 157.811 130.606 157.759 130.741C157.706 130.876 157.69 131.023 157.71 131.167L158.098 133.789C158.117 133.92 158.164 134.045 158.235 134.156C158.307 134.266 158.402 134.359 158.513 134.427C158.623 134.495 158.748 134.538 158.877 134.551C159.005 134.564 159.135 134.548 159.257 134.503C159.452 134.431 159.634 134.327 159.797 134.196C159.975 134.045 160.115 133.854 160.207 133.637C160.3 133.42 160.341 133.184 160.328 132.948L160.274 131.861C160.264 131.568 160.171 131.283 160.007 131.043C159.842 130.802 159.612 130.616 159.346 130.508Z" fill="#F3ECFF"/>
</svg>
