<svg width="305" height="227" viewBox="0 0 305 227" fill="none" xmlns="http://www.w3.org/2000/svg">
<path d="M304.524 199.402H0V199.555H304.524V199.402Z" fill="#E6E6E6"/>
<path d="M64.5527 206.625H31.457V206.778H64.5527V206.625Z" fill="#E6E6E6"/>
<path d="M152.871 203.318H140.41V203.471H152.871V203.318Z" fill="#E6E6E6"/>
<path d="M110.408 203.318H92.1729V203.471H110.408V203.318Z" fill="#E6E6E6"/>
<path d="M261.226 205.072H222.649V205.225H261.226V205.072Z" fill="#E6E6E6"/>
<path d="M145.696 205.072H136.993V205.225H145.696V205.072Z" fill="#E6E6E6"/>
<path d="M78.5669 206.625H70.4482V206.778H78.5669V206.625Z" fill="#E6E6E6"/>
<path d="M271.385 205.072H266.202V205.225H271.385V205.072Z" fill="#E6E6E6"/>
<path d="M144.344 172.239H26.7431C25.8218 172.237 24.9388 171.87 24.2879 171.218C23.637 170.566 23.2715 169.682 23.2715 168.761V3.44721C23.2795 2.53122 23.6486 1.65538 24.2986 1.00993C24.9486 0.36449 25.827 0.00156914 26.7431 0H144.344C145.266 0 146.151 0.366396 146.803 1.01858C147.455 1.67077 147.822 2.55533 147.822 3.47766V168.761C147.822 169.683 147.455 170.568 146.803 171.22C146.151 171.872 145.266 172.239 144.344 172.239ZM26.7431 0.12181C25.8622 0.123423 25.0179 0.474488 24.3956 1.09795C23.7733 1.72141 23.4237 2.56631 23.4237 3.44721V168.761C23.4237 169.642 23.7733 170.487 24.3956 171.11C25.0179 171.734 25.8622 172.085 26.7431 172.086H144.344C145.226 172.085 146.07 171.734 146.694 171.111C147.317 170.487 147.668 169.643 147.67 168.761V3.44721C147.668 2.56575 147.317 1.72086 146.694 1.09757C146.07 0.47429 145.226 0.12342 144.344 0.12181H26.7431Z" fill="#E6E6E6"/>
<path d="M276.088 172.239H158.481C157.559 172.237 156.675 171.87 156.023 171.218C155.371 170.567 155.005 169.683 155.003 168.761V3.44721C155.013 2.53066 155.383 1.65483 156.034 1.00955C156.685 0.364277 157.564 0.00155203 158.481 0H276.088C277.003 0.00316979 277.88 0.366798 278.528 1.01207C279.177 1.65734 279.545 2.53227 279.553 3.44721V168.761C279.553 169.681 279.188 170.564 278.539 171.216C277.889 171.868 277.008 172.235 276.088 172.239ZM158.481 0.12181C157.599 0.12342 156.754 0.47429 156.131 1.09757C155.508 1.72086 155.157 2.56575 155.155 3.44721V168.761C155.157 169.643 155.508 170.487 156.131 171.111C156.754 171.734 157.599 172.085 158.481 172.086H276.088C276.969 172.085 277.814 171.734 278.437 171.111C279.061 170.487 279.412 169.643 279.413 168.761V3.44721C279.412 2.56575 279.061 1.72086 278.437 1.09757C277.814 0.47429 276.969 0.12342 276.088 0.12181H158.481Z" fill="#E6E6E6"/>
<path d="M251.025 18.6123H115.274V97.5205H251.025V18.6123Z" fill="#E6E6E6"/>
<path d="M252.858 18.6123H117.107V97.5205H252.858V18.6123Z" fill="#F5F5F5"/>
<path d="M249.563 93.8176V22.3154L120.403 22.3154V93.8176L249.563 93.8176Z" fill="white"/>
<path d="M249.569 93.8176V22.3154H248.181V93.8176H249.569Z" fill="#E6E6E6"/>
<path d="M251.5 71.5938H118.472V76.5636H251.5V71.5938Z" fill="#F5F5F5"/>
<path d="M154.089 146.848H131.798V196.272H154.089V146.848Z" fill="#E6E6E6"/>
<path d="M234.203 196.272H136.073V199.402H234.203V196.272Z" fill="#E6E6E6"/>
<path d="M154.084 196.272H238.485V146.848H154.084V196.272Z" fill="#F5F5F5"/>
<path d="M162.853 169.139H229.727V152.932H162.853V169.139Z" fill="#E6E6E6"/>
<path d="M162.853 190.181H229.727V173.974H162.853V190.181Z" fill="#E6E6E6"/>
<path d="M206.315 159.924H186.265C185.723 159.924 185.284 160.363 185.284 160.904V161.166C185.284 161.708 185.723 162.147 186.265 162.147H206.315C206.856 162.147 207.295 161.708 207.295 161.166V160.904C207.295 160.363 206.856 159.924 206.315 159.924Z" fill="#F5F5F5"/>
<path d="M206.315 180.972H186.265C185.723 180.972 185.284 181.411 185.284 181.953V182.215C185.284 182.756 185.723 183.195 186.265 183.195H206.315C206.856 183.195 207.295 182.756 207.295 182.215V181.953C207.295 181.411 206.856 180.972 206.315 180.972Z" fill="#F5F5F5"/>
<path d="M87.3248 199.402H39.8373L33.29 41.8599H80.7775L87.3248 199.402Z" fill="#E6E6E6"/>
<path d="M94.2016 199.402H41.0561L34.5088 41.8599H87.6543L94.2016 199.402Z" fill="#F5F5F5"/>
<path d="M46.3053 193.921L40.2148 47.3413H82.3975L88.4941 193.921H46.3053Z" fill="white"/>
<path d="M173.536 139.222C174.145 122.583 174.754 99.5307 173.469 91.1867L171.368 89.5605C171.368 89.5605 171.825 91.1136 172.069 116.608C172.312 142.103 172.611 135.434 172.355 139.222H173.536Z" fill="#E0E0E0"/>
<path d="M177.446 84.1036C181.332 78.8353 189.511 75.0897 197.983 75.108C201.309 75.108 188.08 81.235 182.727 87.9893C178.567 93.2332 173.981 102.058 172.482 106.955C173.201 96.65 173.579 89.3658 177.446 84.1036Z" fill="#E0E0E0"/>
<path d="M169.65 97.825C166.081 92.3436 158.133 88.1229 149.679 87.6478C146.36 87.459 159.205 94.3474 164.157 101.394C168 106.875 172.074 115.95 173.292 120.932C173.158 110.603 173.225 103.313 169.65 97.825Z" fill="#E0E0E0"/>
<path d="M171.246 75.3089C167.994 68.9139 160.405 62.7442 152.152 60.235C148.906 59.2483 162.348 70.5035 166.191 79.1154C169.175 85.815 172.793 94.232 173.743 99.549C174.096 89.0612 174.492 81.71 171.246 75.3089Z" fill="#E0E0E0"/>
<path d="M172.751 146.848C174.728 146.847 176.631 146.09 178.067 144.731C179.503 143.371 180.364 141.514 180.473 139.539L181.155 127.663H164.346L165.034 139.539C165.141 141.513 166.001 143.371 167.437 144.73C168.872 146.09 170.774 146.847 172.751 146.848Z" fill="#F0F0F0"/>
<path d="M163.261 130.373H182.245L182.787 125.446H162.713L163.261 130.373Z" fill="#EBEBEB"/>
<path d="M243.966 48.8213H256.537V14.7146H243.966V48.8213Z" fill="#E6E6E6"/>
<path d="M243.966 14.7207H237.735V46.0867H243.966V14.7207Z" fill="#F5F5F5"/>
<path d="M225.165 48.8213H237.735V14.7146H225.165V48.8213Z" fill="#E6E6E6"/>
<path d="M225.165 14.7207H218.935V46.0867H225.165V14.7207Z" fill="#F5F5F5"/>
<path d="M206.364 48.8213H218.935V14.7146H206.364V48.8213Z" fill="#E6E6E6"/>
<path d="M206.363 14.7207H200.133V46.0867H206.363V14.7207Z" fill="#F5F5F5"/>
<path d="M187.556 48.8213H200.127V14.7146H187.556V48.8213Z" fill="#E6E6E6"/>
<path d="M187.557 14.7207H181.326V46.0867H187.557V14.7207Z" fill="#F5F5F5"/>
<path d="M168.761 48.8213H181.332V14.7146H168.761V48.8213Z" fill="#E6E6E6"/>
<path d="M168.755 14.7207H162.524V46.0867H168.755V14.7207Z" fill="#F5F5F5"/>
<path d="M149.954 48.8213H162.524V14.7146H149.954V48.8213Z" fill="#E6E6E6"/>
<path d="M149.954 14.7207H143.724V46.0867H149.954V14.7207Z" fill="#F5F5F5"/>
<path d="M131.153 48.8213H143.724V14.7146H131.153V48.8213Z" fill="#E6E6E6"/>
<path d="M131.152 14.7207H124.922V46.0867H131.152V14.7207Z" fill="#F5F5F5"/>
<path d="M112.351 48.8213H124.922V14.7146H112.351V48.8213Z" fill="#E6E6E6"/>
<path d="M152.262 226.907C217.48 226.907 270.35 223.82 270.35 220.013C270.35 216.205 217.48 213.118 152.262 213.118C87.0437 213.118 34.1738 216.205 34.1738 220.013C34.1738 223.82 87.0437 226.907 152.262 226.907Z" fill="#F5F5F5"/>
<path d="M214.641 100.207L217.229 104.166L221.078 103.368L218.173 98.4468L214.641 100.207Z" fill="#9F5B53"/>
<path d="M221.979 66.2769C222.528 66.9407 222.984 67.5315 223.453 68.1771C223.922 68.8227 224.373 69.4439 224.818 70.0895C225.707 71.3746 226.553 72.6962 227.345 74.0544C228.137 75.4126 228.904 76.8012 229.574 78.2568C229.934 78.9694 230.238 79.7246 230.567 80.4616C230.896 81.1985 231.176 81.972 231.414 82.7699L231.608 83.3789L231.706 83.6773C231.761 83.854 231.816 84.0428 231.852 84.2194C231.986 84.8516 232.031 85.4994 231.986 86.144C231.906 87.1539 231.686 88.1479 231.334 89.0979C230.738 90.6811 229.975 92.196 229.057 93.617C227.346 96.2548 225.362 98.7046 223.137 100.926L220.475 98.8426C221.939 96.345 223.276 93.7757 224.483 91.1443C225.037 89.943 225.479 88.6932 225.804 87.4108C225.926 86.9292 225.981 86.4334 225.969 85.9369C225.968 85.8318 225.945 85.728 225.902 85.6324L225.804 85.401L225.603 84.9381C224.463 82.3759 223.119 79.9095 221.584 77.5625C220.816 76.3444 220.006 75.169 219.19 73.9813C218.374 72.7937 217.485 71.606 216.681 70.528L221.979 66.2769Z" fill="#9F5B53"/>
<path d="M220.476 63.2803C224.672 64.2426 229.483 75.6744 229.483 75.6744L221.085 81.4482C218.988 78.4436 217.127 75.2814 215.518 71.9897C213.027 66.7579 216.212 62.2997 220.476 63.2803Z" fill="#ED8D34"/>
<path opacity="0.8" d="M220.476 63.2803C224.672 64.2426 229.483 75.6744 229.483 75.6744L221.085 81.4482C218.988 78.4436 217.127 75.2814 215.518 71.9897C213.027 66.7579 216.212 62.2997 220.476 63.2803Z" fill="white"/>
<path d="M217.491 70.5708L221.474 81.1743L221.078 81.4484C221.078 81.4484 219.355 79.0122 217.491 75.766V70.5708Z" fill="#ED8D34"/>
<path opacity="0.6" d="M217.491 70.5708L221.474 81.1743L221.078 81.4484C221.078 81.4484 219.355 79.0122 217.491 75.766V70.5708Z" fill="white"/>
<path d="M206.857 215.993H202.38L201.936 205.633H206.412L206.857 215.993Z" fill="#9F5B53"/>
<path d="M233.722 215.993H229.245L226.998 205.633H231.468L233.722 215.993Z" fill="#9F5B53"/>
<path d="M201.936 205.639L202.167 210.974H206.643L206.412 205.639H201.936Z" fill="#8A4743"/>
<path d="M231.475 205.639H226.998L228.155 210.974H232.632L231.475 205.639Z" fill="#8A4743"/>
<path d="M203.653 102.186C203.653 102.186 208.733 136.378 211.516 149.187C214.561 163.195 226.072 209.945 226.072 209.945H234.27C234.27 209.945 226.681 164.346 224.94 150.435C223.051 135.361 219.099 102.162 219.099 102.162L203.653 102.186Z" fill="#ED8D34"/>
<path opacity="0.5" d="M203.653 102.186C203.653 102.186 208.733 136.378 211.516 149.187C214.561 163.195 226.072 209.945 226.072 209.945H234.27C234.27 209.945 226.681 164.346 224.94 150.435C223.051 135.361 219.099 102.162 219.099 102.162L203.653 102.186Z" fill="black"/>
<path opacity="0.4" d="M206.863 114.367C212.734 115.518 212.113 137.413 211.406 148.675C209.713 140.714 207.234 125.397 205.541 114.525C205.951 114.323 206.417 114.267 206.863 114.367Z" fill="black"/>
<path d="M195.164 102.186C195.164 102.186 194.555 135.635 195.036 149.284C195.541 163.475 200.517 209.945 200.517 209.945H208.094C208.094 209.945 208.374 164.303 208.703 150.368C209.068 135.172 210.901 102.186 210.901 102.186H195.164Z" fill="#ED8D34"/>
<path opacity="0.5" d="M195.164 102.186C195.164 102.186 194.555 135.635 195.036 149.284C195.541 163.475 200.517 209.945 200.517 209.945H208.094C208.094 209.945 208.374 164.303 208.703 150.368C209.068 135.172 210.901 102.186 210.901 102.186H195.164Z" fill="black"/>
<path d="M221.443 97.8862L218.173 98.4466L221.078 103.368C221.078 103.368 223.356 102.271 223.77 100.146L221.443 97.8862Z" fill="#9F5B53"/>
<path d="M199.828 46.6532C199.828 47.0125 199.639 47.3048 199.402 47.3048C199.164 47.3048 198.976 47.0125 198.976 46.6532C198.976 46.2938 199.164 46.0015 199.402 46.0015C199.639 46.0015 199.828 46.2877 199.828 46.6532Z" fill="#263238"/>
<path d="M199.671 47.3052C199.24 48.4082 198.66 49.4471 197.947 50.3931C198.194 50.5693 198.476 50.6895 198.773 50.7453C199.071 50.801 199.377 50.791 199.671 50.7158V47.3052Z" fill="#892B29"/>
<path d="M201.108 44.6555C201.064 44.656 201.021 44.6409 200.986 44.6128C200.775 44.4501 200.527 44.3403 200.264 44.2926C200.002 44.2449 199.731 44.2607 199.476 44.3388C199.45 44.3485 199.423 44.3531 199.396 44.3522C199.368 44.3514 199.341 44.3451 199.316 44.3338C199.292 44.3224 199.269 44.3063 199.25 44.2862C199.232 44.2662 199.217 44.2426 199.208 44.217C199.197 44.1914 199.191 44.164 199.191 44.1362C199.191 44.1085 199.197 44.081 199.208 44.0554C199.219 44.0299 199.234 44.0067 199.254 43.9874C199.274 43.9681 199.298 43.9529 199.324 43.9429C199.644 43.8394 199.985 43.8153 200.317 43.8726C200.649 43.9299 200.962 44.0669 201.23 44.2718C201.253 44.287 201.273 44.3069 201.289 44.3302C201.304 44.3535 201.314 44.3797 201.319 44.4072C201.323 44.4347 201.322 44.4629 201.315 44.4899C201.308 44.5169 201.296 44.5422 201.279 44.5641C201.261 44.5929 201.235 44.6164 201.206 44.6325C201.176 44.6485 201.142 44.6564 201.108 44.6555Z" fill="#263238"/>
<path d="M211.48 50.813C210.834 54.0897 210.195 60.0827 212.485 62.2692C212.485 62.2692 211.589 65.5885 205.505 65.5885C198.805 65.5885 202.313 62.2692 202.313 62.2692C205.968 61.3982 205.87 58.688 205.231 56.1483L211.48 50.813Z" fill="#9F5B53"/>
<path d="M213.362 63.4083C213.843 62.3607 214.367 61.1548 213.276 60.7772C212.058 60.363 205.499 59.9428 203.233 60.7163C202.934 60.7991 202.655 60.9404 202.411 61.132C202.167 61.3236 201.964 61.5617 201.812 61.8324C201.661 62.1032 201.565 62.4013 201.53 62.7094C201.495 63.0175 201.521 63.3296 201.607 63.6275L213.362 63.4083Z" fill="#ED8D34"/>
<path d="M227.449 216.212C227.26 216.237 227.067 216.224 226.883 216.174C226.699 216.124 226.527 216.037 226.377 215.92C226.323 215.846 226.294 215.758 226.294 215.667C226.294 215.576 226.323 215.487 226.377 215.414C226.41 215.351 226.457 215.296 226.514 215.253C226.571 215.21 226.636 215.18 226.706 215.165C227.364 215.018 228.594 215.859 228.649 215.895C228.665 215.908 228.678 215.925 228.686 215.944C228.694 215.963 228.695 215.985 228.691 216.005C228.688 216.025 228.678 216.043 228.664 216.057C228.65 216.071 228.632 216.081 228.612 216.084C228.23 216.167 227.84 216.21 227.449 216.212ZM226.895 215.359H226.761C226.719 215.368 226.681 215.385 226.647 215.411C226.613 215.436 226.585 215.468 226.566 215.506C226.468 215.676 226.529 215.749 226.566 215.774C226.755 216.029 227.668 216.029 228.338 215.92C227.904 215.632 227.411 215.444 226.895 215.372V215.359Z" fill="#ED8D34"/>
<path d="M228.594 216.103H228.545C228.082 215.847 227.187 214.885 227.278 214.373C227.294 214.294 227.336 214.223 227.398 214.172C227.46 214.121 227.539 214.093 227.619 214.093C227.699 214.084 227.78 214.092 227.858 214.115C227.935 214.138 228.007 214.176 228.07 214.227C228.587 214.653 228.679 215.944 228.679 215.999C228.681 216.018 228.678 216.038 228.669 216.055C228.661 216.073 228.647 216.087 228.63 216.097C228.618 216.101 228.606 216.103 228.594 216.103ZM227.692 214.276H227.643C227.503 214.276 227.491 214.361 227.485 214.385C227.43 214.684 228.003 215.421 228.46 215.768C228.428 215.259 228.245 214.772 227.936 214.367C227.866 214.314 227.78 214.286 227.692 214.288V214.276Z" fill="#ED8D34"/>
<path d="M200.584 216.212C200.011 216.212 199.457 216.133 199.268 215.877C199.221 215.809 199.196 215.729 199.196 215.646C199.196 215.563 199.221 215.483 199.268 215.415C199.303 215.352 199.351 215.297 199.409 215.254C199.467 215.211 199.533 215.181 199.603 215.165C200.34 214.964 201.912 215.853 201.979 215.89C201.996 215.901 202.011 215.918 202.019 215.937C202.028 215.957 202.031 215.978 202.027 215.999C202.025 216.021 202.015 216.041 201.999 216.057C201.984 216.072 201.964 216.082 201.942 216.084C201.494 216.169 201.04 216.212 200.584 216.212ZM199.871 215.347C199.805 215.338 199.737 215.338 199.67 215.347C199.627 215.356 199.587 215.373 199.551 215.399C199.515 215.424 199.485 215.456 199.463 215.494C199.39 215.628 199.414 215.689 199.463 215.725C199.67 216.005 200.797 216.024 201.637 215.908C201.09 215.612 200.49 215.426 199.871 215.36V215.347Z" fill="#ED8D34"/>
<path d="M201.936 216.103H201.893C201.351 215.865 200.285 214.885 200.365 214.391C200.365 214.27 200.468 214.123 200.76 214.093C200.869 214.076 200.98 214.084 201.085 214.116C201.191 214.147 201.288 214.202 201.369 214.276C201.942 214.738 202.058 215.944 202.064 215.999C202.066 216.018 202.063 216.037 202.056 216.054C202.048 216.071 202.036 216.086 202.021 216.097C202.008 216.104 201.994 216.108 201.979 216.109C201.964 216.11 201.95 216.108 201.936 216.103ZM200.846 214.276H200.779C200.59 214.276 200.578 214.373 200.572 214.397C200.523 214.702 201.254 215.463 201.79 215.792C201.737 215.281 201.524 214.799 201.181 214.416C201.087 214.335 200.969 214.29 200.846 214.288V214.276Z" fill="#ED8D34"/>
<path d="M228.929 215.475H233.954C234.044 215.476 234.13 215.507 234.2 215.563C234.27 215.62 234.318 215.698 234.338 215.786L235.221 219.763C235.241 219.86 235.239 219.96 235.215 220.056C235.191 220.152 235.146 220.241 235.083 220.317C235.02 220.393 234.94 220.454 234.85 220.495C234.76 220.536 234.662 220.557 234.563 220.555C232.809 220.524 231.956 220.421 229.745 220.421C228.387 220.421 225.586 220.567 223.704 220.567C221.822 220.567 221.584 218.74 222.352 218.539C225.799 217.783 227.096 216.742 228.205 215.755C228.402 215.573 228.661 215.473 228.929 215.475Z" fill="#263238"/>
<path d="M202.411 215.475H207.284C207.373 215.476 207.46 215.507 207.53 215.563C207.6 215.62 207.648 215.698 207.668 215.786L208.551 219.763C208.572 219.859 208.571 219.958 208.548 220.054C208.525 220.149 208.481 220.239 208.419 220.315C208.357 220.391 208.279 220.452 208.19 220.494C208.101 220.535 208.003 220.556 207.905 220.555C206.145 220.524 203.599 220.421 201.382 220.421C198.794 220.421 196.552 220.567 193.513 220.567C191.686 220.567 191.168 218.74 191.936 218.539C195.438 217.771 198.294 217.692 201.321 215.828C201.644 215.609 202.022 215.487 202.411 215.475Z" fill="#263238"/>
<path d="M196.022 72.4344C194.25 75.0533 192.417 77.4956 190.437 79.9196C188.46 82.3684 186.345 84.7028 184.103 86.9114L183.226 87.7397L183.001 87.9468L182.848 88.0869L182.623 88.2818C182.334 88.5097 182.026 88.7134 181.703 88.8908C180.675 89.4316 179.544 89.7472 178.384 89.8166C176.614 89.9268 174.838 89.7811 173.11 89.3842C169.979 88.6906 166.942 87.6232 164.065 86.2049L165.18 83.0379C168.034 83.6057 170.92 83.9982 173.822 84.2134C175.097 84.3171 176.379 84.2639 177.641 84.055C178.003 84.0026 178.349 83.8694 178.652 83.6652V83.6226L178.695 83.5739L178.877 83.3729L179.596 82.5811C181.502 80.4068 183.348 78.0985 185.138 75.7293C186.929 73.3601 188.72 70.9483 190.431 68.5791L196.022 72.4344Z" fill="#9F5B53"/>
<path d="M198.087 73.1348C197.464 76.9132 195.831 80.4529 193.361 83.3789C193.264 81.2351 193.227 79.3105 193.233 77.5869L198.087 73.1348Z" fill="#BED3FC"/>
<path d="M211.863 45.8857C211.596 50.3196 211.663 52.9263 209.427 55.2041C206.059 58.627 200.59 56.5928 199.53 52.1589C198.58 48.1757 199.183 41.598 203.526 39.8318C204.481 39.4393 205.52 39.2976 206.546 39.4203C207.571 39.543 208.548 39.9258 209.384 40.5326C210.219 41.1393 210.886 41.9496 211.32 42.8866C211.754 43.8236 211.941 44.856 211.863 45.8857Z" fill="#9F5B53"/>
<path d="M203.252 42.9381C203.288 48.1515 204.982 54.5465 210.024 54.1019C213.374 53.8096 215.92 47.7008 216.267 45.1124C216.797 41.1536 216.876 40.3983 214.647 39.9415C215.622 39.4117 215.975 36.8963 213.697 36.2873C210.53 35.4529 204.561 34.6367 206.437 32.7061C202.698 33.3821 201.76 34.8804 202.442 36.7014C200.255 36.5309 198.909 35.3859 198.976 33.6562C195.352 35.124 193.002 43.4253 203.252 42.9381Z" fill="#263238"/>
<path d="M205.859 47.1768C205.612 48.252 205.016 49.2155 204.165 49.9175C203.039 50.8311 202.137 50.015 202.162 48.6995C202.162 47.5118 202.807 45.6055 204.074 45.2035C205.341 44.8015 206.169 45.8796 205.859 47.1768Z" fill="#9F5B53"/>
<path d="M218.039 40.8489C217.443 40.4693 216.762 40.2439 216.057 40.1929C215.352 40.1418 214.646 40.2668 214.001 40.5566C214.001 40.5566 216.535 37.152 218.039 40.8489Z" fill="#263238"/>
<path d="M224.738 206.924C224.702 206.924 225.585 210.073 225.585 210.073H234.806L234.635 207.265L224.738 206.924Z" fill="#ED8D34"/>
<path d="M199.043 206.924C199.007 206.924 199.469 210.073 199.469 210.073H208.69L208.94 207.265L199.043 206.924Z" fill="#ED8D34"/>
<path d="M202.076 204.5C202.058 204.5 202.04 204.494 202.026 204.481C202.013 204.469 202.005 204.452 202.003 204.433C200.663 191.57 197.514 160.448 197.131 149.284C196.723 137.889 197.094 112.321 197.216 104.757C197.216 104.714 197.252 104.69 197.295 104.684C197.314 104.685 197.332 104.693 197.345 104.707C197.359 104.72 197.367 104.738 197.368 104.757C197.246 112.321 196.875 137.889 197.283 149.278C197.679 160.442 200.828 191.552 202.155 204.415C202.156 204.436 202.148 204.456 202.135 204.472C202.121 204.487 202.103 204.497 202.082 204.5H202.076Z" fill="#ED8D34"/>
<path opacity="0.3" d="M202.076 204.5C202.058 204.5 202.04 204.494 202.026 204.481C202.013 204.469 202.005 204.452 202.003 204.433C200.663 191.57 197.514 160.448 197.131 149.284C196.723 137.889 197.094 112.321 197.216 104.757C197.216 104.714 197.252 104.69 197.295 104.684C197.314 104.685 197.332 104.693 197.345 104.707C197.359 104.72 197.367 104.738 197.368 104.757C197.246 112.321 196.875 137.889 197.283 149.278C197.679 160.442 200.828 191.552 202.155 204.415C202.156 204.436 202.148 204.456 202.135 204.472C202.121 204.487 202.103 204.497 202.082 204.5H202.076Z" fill="black"/>
<path d="M200.152 67.1356C200.761 71.399 192.392 82.1974 192.392 82.1974L184.006 76.4236C184.006 76.4236 186.332 70.461 190.249 66.5509C194.719 62.1232 199.506 62.5251 200.152 67.1356Z" fill="#ED8D34"/>
<path opacity="0.8" d="M200.152 67.1356C200.761 71.399 192.392 82.1974 192.392 82.1974L184.006 76.4236C184.006 76.4236 186.332 70.461 190.249 66.5509C194.719 62.1232 199.506 62.5251 200.152 67.1356Z" fill="white"/>
<path d="M195.432 63.5118C195.432 63.5118 190.669 68.8897 195.164 102.186H219.099C219.264 98.532 216.956 80.5895 220.494 63.2803C217.849 62.771 215.174 62.4333 212.485 62.2693C209.098 62.0743 205.702 62.0743 202.314 62.2693C199.991 62.5034 197.69 62.9188 195.432 63.5118Z" fill="#ED8D34"/>
<path opacity="0.8" d="M195.432 63.5118C195.432 63.5118 190.669 68.8897 195.164 102.186H219.099C219.264 98.532 216.956 80.5895 220.494 63.2803C217.849 62.771 215.174 62.4333 212.485 62.2693C209.098 62.0743 205.702 62.0743 202.314 62.2693C199.991 62.5034 197.69 62.9188 195.432 63.5118Z" fill="white"/>
<path d="M125.012 39.0674C126.924 30.6471 121.647 22.2715 113.227 20.36C104.807 18.4485 96.4312 23.7249 94.5197 32.1453C92.6082 40.5656 97.8846 48.9412 106.305 50.8527C114.725 52.7642 123.101 47.4878 125.012 39.0674Z" fill="#ED8D34"/>
<path opacity="0.2" d="M125.012 39.0674C126.924 30.6471 121.647 22.2715 113.227 20.36C104.807 18.4485 96.4312 23.7249 94.5197 32.1453C92.6082 40.5656 97.8846 48.9412 106.305 50.8527C114.725 52.7642 123.101 47.4878 125.012 39.0674Z" fill="white"/>
<path d="M108.161 55.8799C104.117 55.5675 100.26 54.0477 97.0903 51.5175C93.9204 48.9872 91.5836 45.5631 90.3828 41.6891L90.9614 41.5063C92.1271 45.2643 94.3945 48.5856 97.4698 51.0398C100.545 53.494 104.287 54.968 108.21 55.2708L108.161 55.8799Z" fill="#ED8D34"/>
<path opacity="0.2" d="M108.161 55.8799C104.117 55.5675 100.26 54.0477 97.0903 51.5175C93.9204 48.9872 91.5836 45.5631 90.3828 41.6891L90.9614 41.5063C92.1271 45.2643 94.3945 48.5856 97.4698 51.0398C100.545 53.494 104.287 54.968 108.21 55.2708L108.161 55.8799Z" fill="white"/>
<path d="M90.8756 29.9774L90.2666 29.8069C91.0517 27.1836 92.3586 24.746 94.1089 22.6402C95.8592 20.5345 98.0169 18.8041 100.452 17.5527C102.888 16.3014 105.551 15.5549 108.282 15.3582C111.014 15.1615 113.756 15.5185 116.346 16.4078L116.151 16.9864C113.637 16.1246 110.975 15.7794 108.325 15.9716C105.674 16.1638 103.09 16.8894 100.726 18.1049C98.3631 19.3204 96.2697 21.0007 94.5718 23.045C92.8738 25.0893 91.6063 27.4556 90.8452 30.0018L90.8756 29.9774Z" fill="#ED8D34"/>
<path opacity="0.2" d="M90.8756 29.9774L90.2666 29.8069C91.0517 27.1836 92.3586 24.746 94.1089 22.6402C95.8592 20.5345 98.0169 18.8041 100.452 17.5527C102.888 16.3014 105.551 15.5549 108.282 15.3582C111.014 15.1615 113.756 15.5185 116.346 16.4078L116.151 16.9864C113.637 16.1246 110.975 15.7794 108.325 15.9716C105.674 16.1638 103.09 16.8894 100.726 18.1049C98.3631 19.3204 96.2697 21.0007 94.5718 23.045C92.8738 25.0893 91.6063 27.4556 90.8452 30.0018L90.8756 29.9774Z" fill="white"/>
<path d="M128.594 29.7155C127.17 25.1619 124.14 21.2809 120.067 18.7953L120.384 18.2715C124.578 20.8384 127.699 24.8397 129.167 29.5328L128.594 29.7155Z" fill="#ED8D34"/>
<path opacity="0.2" d="M128.594 29.7155C127.17 25.1619 124.14 21.2809 120.067 18.7953L120.384 18.2715C124.578 20.8384 127.699 24.8397 129.167 29.5328L128.594 29.7155Z" fill="white"/>
<path d="M125.019 82.2237C126.931 73.8034 121.654 65.4278 113.234 63.5163C104.814 61.6048 96.438 66.8812 94.5265 75.3015C92.615 83.7218 97.8914 92.0974 106.312 94.0089C114.732 95.9204 123.108 90.644 125.019 82.2237Z" fill="#ED8D34"/>
<path opacity="0.6" d="M125.019 82.2237C126.931 73.8034 121.654 65.4278 113.234 63.5163C104.814 61.6048 96.438 66.8812 94.5265 75.3015C92.615 83.7218 97.8914 92.0974 106.312 94.0089C114.732 95.9204 123.108 90.644 125.019 82.2237Z" fill="white"/>
<path d="M125.014 125.379C126.926 116.959 121.649 108.583 113.229 106.672C104.809 104.76 96.4331 110.036 94.5216 118.457C92.6101 126.877 97.8866 135.253 106.307 137.164C114.727 139.076 123.103 133.799 125.014 125.379Z" fill="#ED8D34"/>
<path opacity="0.6" d="M125.014 125.379C126.926 116.959 121.649 108.583 113.229 106.672C104.809 104.76 96.4331 110.036 94.5216 118.457C92.6101 126.877 97.8866 135.253 106.307 137.164C114.727 139.076 123.103 133.799 125.014 125.379Z" fill="white"/>
<path d="M125.015 168.542C126.927 160.121 121.65 151.746 113.23 149.834C104.81 147.923 96.4341 153.199 94.5226 161.619C92.6111 170.04 97.8875 178.415 106.308 180.327C114.728 182.238 123.104 176.962 125.015 168.542Z" fill="#ED8D34"/>
<path opacity="0.6" d="M125.015 168.542C126.927 160.121 121.65 151.746 113.23 149.834C104.81 147.923 96.4341 153.199 94.5226 161.619C92.6111 170.04 97.8875 178.415 106.308 180.327C114.728 182.238 123.104 176.962 125.015 168.542Z" fill="white"/>
<path d="M81.8571 39.0625C83.7686 30.6422 78.4922 22.2666 70.0718 20.3551C61.6515 18.4436 53.2759 23.7201 51.3644 32.1404C49.4529 40.5607 54.7293 48.9363 63.1497 50.8478C71.57 52.7593 79.9456 47.4829 81.8571 39.0625Z" fill="#ED8D34"/>
<path opacity="0.6" d="M81.8571 39.0625C83.7686 30.6422 78.4922 22.2666 70.0718 20.3551C61.6515 18.4436 53.2759 23.7201 51.3644 32.1404C49.4529 40.5607 54.7293 48.9363 63.1497 50.8478C71.57 52.7593 79.9456 47.4829 81.8571 39.0625Z" fill="white"/>
<path d="M81.8639 82.2247C83.7754 73.8043 78.499 65.4287 70.0787 63.5172C61.6583 61.6057 53.2827 66.8822 51.3712 75.3025C49.4597 83.7228 54.7362 92.0984 63.1565 94.0099C71.5768 95.9214 79.9524 90.645 81.8639 82.2247Z" fill="#ED8D34"/>
<path opacity="0.6" d="M81.8639 82.2247C83.7754 73.8043 78.499 65.4287 70.0787 63.5172C61.6583 61.6057 53.2827 66.8822 51.3712 75.3025C49.4597 83.7228 54.7362 92.0984 63.1565 94.0099C71.5768 95.9214 79.9524 90.645 81.8639 82.2247Z" fill="white"/>
<path d="M81.859 125.38C83.7705 116.96 78.4941 108.584 70.0738 106.673C61.6535 104.761 53.2779 110.037 51.3664 118.458C49.4549 126.878 54.7313 135.254 63.1516 137.165C71.5719 139.077 79.9475 133.8 81.859 125.38Z" fill="#ED8D34"/>
<path opacity="0.6" d="M81.859 125.38C83.7705 116.96 78.4941 108.584 70.0738 106.673C61.6535 104.761 53.2779 110.037 51.3664 118.458C49.4549 126.878 54.7313 135.254 63.1516 137.165C71.5719 139.077 79.9475 133.8 81.859 125.38Z" fill="white"/>
<path d="M81.86 168.537C83.7715 160.116 78.4951 151.741 70.0748 149.829C61.6544 147.918 53.2788 153.194 51.3673 161.615C49.4558 170.035 54.7323 178.41 63.1526 180.322C71.5729 182.233 79.9485 176.957 81.86 168.537Z" fill="#ED8D34"/>
<path opacity="0.6" d="M81.86 168.537C83.7715 160.116 78.4951 151.741 70.0748 149.829C61.6544 147.918 53.2788 153.194 51.3673 161.615C49.4558 170.035 54.7323 178.41 63.1526 180.322C71.5729 182.233 79.9485 176.957 81.86 168.537Z" fill="white"/>
<path d="M165.783 83.3663L162.5 79.9678L158.998 84.4869C158.998 84.4869 161.666 87.0571 164.839 86.3141L165.783 83.3663Z" fill="#9F5B53"/>
<path d="M157.988 78.104L156.489 82.8424L158.999 84.4868L162.501 79.9677L157.988 78.104Z" fill="#9F5B53"/>
<path d="M113.283 78.3598C113.554 77.5531 113.997 76.8149 114.581 76.1957C115.165 75.5765 115.876 75.0911 116.666 74.7729C117.455 74.4546 118.304 74.311 119.154 74.3519C120.004 74.3928 120.835 74.6173 121.59 75.01L117.936 73.1098C116.583 72.4262 115.537 71.2582 115.007 69.8384C114.477 68.4186 114.5 66.8511 115.073 65.4479C115.398 64.7082 115.87 64.0429 116.462 63.4931C117.054 62.9432 117.752 62.5205 118.513 62.2511C119.275 61.9817 120.083 61.8713 120.889 61.9267C121.695 61.9821 122.481 62.2021 123.198 62.5732L119.544 60.6791C118.19 59.9955 117.143 58.8265 116.612 57.4052C116.082 55.984 116.106 54.415 116.681 53.0112C117.005 52.265 117.479 51.5937 118.075 51.0395C118.67 50.4854 119.374 50.0603 120.141 49.7909C120.909 49.5215 121.724 49.4137 122.535 49.4743C123.346 49.5348 124.136 49.7623 124.855 50.1426L107.503 41.0678C106.226 40.4297 105.219 39.3577 104.661 38.0441C104.103 36.7305 104.031 35.2611 104.458 33.8993C104.731 33.0931 105.175 32.3555 105.76 31.7369C106.344 31.1182 107.056 30.6333 107.845 30.3152C108.635 29.9971 109.484 29.8533 110.334 29.8938C111.184 29.9342 112.016 30.1579 112.771 30.5495L149.314 49.6553L145.562 34.2586C145.193 32.7118 145.424 31.0824 146.209 29.6993C146.994 28.3163 148.275 27.2827 149.792 26.8072C151.31 26.3318 152.952 26.4499 154.385 27.1377C155.819 27.8255 156.939 29.0318 157.518 30.513L169.504 61.6475C170.531 64.3086 172.489 66.5057 175.016 67.8293L177.105 68.9195C177.425 69.0864 177.709 69.3149 177.941 69.5919C178.172 69.8689 178.347 70.1889 178.454 70.5336C178.562 70.8782 178.6 71.2407 178.567 71.6003C178.534 71.9598 178.431 72.3093 178.262 72.6286L163.645 100.553C163.307 101.199 162.726 101.684 162.031 101.902C161.336 102.12 160.582 102.053 159.936 101.717L154.808 99.0369C152.865 98.0401 150.689 97.5896 148.51 97.7336C143.243 98.0279 137.994 96.8914 133.321 94.4447L116.267 85.5282C115.002 84.8801 114.007 83.8039 113.461 82.4912C112.914 81.1785 112.851 79.7145 113.283 78.3598Z" fill="#ED8D34"/>
<path d="M161.239 102.929C160.65 102.929 160.069 102.787 159.546 102.515L154.418 99.8348C152.621 98.9148 150.611 98.4941 148.596 98.6167C143.164 98.9213 137.752 97.7512 132.931 95.2304L115.878 86.3139C114.417 85.5665 113.268 84.3254 112.636 82.8111C112.004 81.2968 111.929 79.6074 112.424 78.0431C112.737 77.1098 113.25 76.2559 113.926 75.5407C114.602 74.8255 115.426 74.2661 116.34 73.9015C116.588 73.799 116.842 73.7136 117.102 73.6457C115.678 72.7922 114.608 71.4556 114.087 69.8793C113.566 68.3031 113.629 66.5921 114.264 65.0582C114.632 64.1985 115.176 63.4254 115.861 62.7887C116.546 62.152 117.356 61.6658 118.241 61.3613C118.405 61.3064 118.57 61.2516 118.734 61.209C117.309 60.3564 116.239 59.0197 115.717 57.4432C115.196 55.8666 115.26 54.1552 115.896 52.6214C116.265 51.7629 116.809 50.991 117.494 50.3554C118.179 49.7197 118.989 49.2344 119.873 48.9306C120.025 48.8758 120.184 48.8271 120.336 48.7844L107.083 41.8535C105.622 41.106 104.473 39.8649 103.841 38.3506C103.209 36.8363 103.134 35.1469 103.63 33.5826C103.945 32.6518 104.458 31.8002 105.133 31.086C105.808 30.3719 106.629 29.812 107.541 29.4447C108.452 29.0774 109.432 28.9115 110.414 28.9581C111.396 29.0048 112.356 29.263 113.228 29.7151L147.999 47.9135L144.716 34.4718C144.295 32.7003 144.562 30.8349 145.463 29.2527C146.364 27.6705 147.833 26.4894 149.571 25.948C151.31 25.4067 153.189 25.5454 154.829 26.3362C156.469 27.1271 157.748 28.511 158.407 30.2085L170.393 61.343C171.34 63.7976 173.148 65.8239 175.479 67.0437L177.562 68.1339C177.988 68.356 178.367 68.6602 178.675 69.0289C178.984 69.3976 179.217 69.8236 179.361 70.2825C179.504 70.7413 179.556 71.224 179.513 71.7029C179.47 72.1818 179.332 72.6475 179.109 73.0732L164.492 101.004C164.177 101.591 163.707 102.08 163.134 102.42C162.561 102.759 161.906 102.935 161.239 102.929ZM149.284 96.7835C151.364 96.7721 153.415 97.2631 155.265 98.2147L160.393 100.895C160.606 101.008 160.84 101.078 161.08 101.1C161.321 101.122 161.563 101.097 161.794 101.025C162.024 100.953 162.238 100.836 162.423 100.681C162.608 100.526 162.761 100.335 162.872 100.121L177.489 72.1901C177.601 71.9767 177.67 71.7433 177.691 71.5033C177.712 71.2633 177.686 71.0214 177.614 70.7915C177.541 70.5617 177.424 70.3485 177.269 70.1641C177.114 69.9798 176.923 69.8279 176.709 69.7174L174.626 68.6272C171.911 67.2032 169.806 64.839 168.706 61.9764L156.714 30.8419C156.233 29.5596 155.279 28.5104 154.048 27.9096C152.817 27.3088 151.403 27.202 150.095 27.6112C148.788 28.0204 147.688 28.9145 147.019 30.11C146.35 31.3054 146.165 32.7114 146.501 34.0394L150.264 49.4422C150.306 49.6121 150.298 49.7904 150.241 49.9558C150.183 50.1211 150.08 50.2664 149.942 50.374C149.804 50.484 149.637 50.5512 149.462 50.5674C149.287 50.5837 149.11 50.5482 148.955 50.4654L112.412 31.3596C111.775 31.0284 111.074 30.839 110.357 30.8043C109.64 30.7696 108.924 30.8905 108.258 31.1586C107.584 31.4213 106.977 31.8309 106.481 32.3576C105.984 32.8844 105.612 33.5151 105.39 34.2038C105.026 35.3589 105.085 36.6057 105.556 37.7214C106.026 38.8371 106.879 39.7491 107.96 40.2943L125.318 49.3691C125.533 49.4814 125.694 49.6744 125.767 49.9057C125.839 50.137 125.817 50.3876 125.705 50.6024C125.649 50.7088 125.573 50.8032 125.481 50.8802C125.389 50.9572 125.283 51.0153 125.168 51.0512C124.937 51.1237 124.686 51.1014 124.471 50.9892C123.865 50.6747 123.201 50.4881 122.52 50.441C121.839 50.3938 121.156 50.4871 120.512 50.7151C119.866 50.9377 119.274 51.2926 118.772 51.7572C118.271 52.2218 117.872 52.7858 117.601 53.4132C117.116 54.6034 117.098 55.9326 117.549 57.1359C118.001 58.3392 118.889 59.3281 120.037 59.9056L123.692 61.8059C123.888 61.9274 124.031 62.119 124.092 62.3419C124.153 62.5648 124.127 62.8024 124.02 63.0071C123.913 63.2117 123.732 63.368 123.514 63.4446C123.296 63.5212 123.057 63.5124 122.845 63.4198C122.24 63.1066 121.577 62.9206 120.897 62.8735C120.217 62.8264 119.535 62.919 118.892 63.1458C118.246 63.3697 117.653 63.7258 117.152 64.1914C116.651 64.6569 116.252 65.2218 115.981 65.8499C115.498 67.0394 115.481 68.3672 115.932 69.5691C116.383 70.7709 117.271 71.7589 118.417 72.3363L122.072 74.2365C122.286 74.3488 122.448 74.5418 122.52 74.7731C122.593 75.0044 122.571 75.255 122.458 75.4698C122.346 75.6847 122.153 75.8461 121.922 75.9186C121.691 75.9912 121.44 75.9689 121.225 75.8566C120.587 75.528 119.886 75.3405 119.169 75.3069C118.453 75.2733 117.737 75.3943 117.071 75.6617C116.4 75.9274 115.795 76.3381 115.3 76.8645C114.805 77.3909 114.432 78.02 114.209 78.7069C113.844 79.8619 113.902 81.1092 114.373 82.2252C114.844 83.3413 115.697 84.2531 116.779 84.7974L133.832 93.7139C138.351 96.0496 143.414 97.1287 148.492 96.8383C148.76 96.8383 149.022 96.7956 149.284 96.7956V96.7835Z" fill="#ED8D34"/>
<path d="M126.152 78.3051C126.004 78.3062 125.857 78.2707 125.726 78.2016L121.201 75.8202C121.094 75.7646 121 75.6886 120.923 75.5965C120.846 75.5045 120.788 75.3982 120.752 75.2836C120.716 75.1691 120.703 75.0486 120.714 74.9291C120.724 74.8095 120.758 74.6932 120.814 74.5869C120.869 74.4805 120.945 74.3861 121.038 74.3091C121.13 74.2321 121.236 74.174 121.35 74.1381C121.465 74.1022 121.585 74.0891 121.705 74.0998C121.825 74.1104 121.941 74.1445 122.047 74.2001L126.597 76.5815C126.778 76.676 126.922 76.8284 127.006 77.0145C127.091 77.2005 127.11 77.4095 127.062 77.6079C127.014 77.8064 126.9 77.9829 126.74 78.1093C126.579 78.2357 126.381 78.3046 126.177 78.3051H126.152Z" fill="#ED8D34"/>
<path d="M127.784 65.8684C127.636 65.8703 127.489 65.8347 127.358 65.7649L122.808 63.3835C122.694 63.3333 122.59 63.2599 122.505 63.168C122.419 63.0761 122.354 62.9676 122.312 62.8492C122.271 62.7309 122.254 62.6052 122.263 62.4801C122.272 62.355 122.307 62.2331 122.365 62.122C122.424 62.0109 122.504 61.913 122.602 61.8344C122.7 61.7558 122.812 61.6982 122.933 61.6651C123.054 61.6321 123.181 61.6243 123.305 61.6422C123.429 61.6602 123.548 61.7035 123.655 61.7695L128.205 64.1448C128.386 64.2393 128.53 64.3917 128.614 64.5778C128.699 64.7638 128.718 64.9728 128.67 65.1713C128.621 65.3697 128.508 65.5462 128.347 65.6726C128.187 65.799 127.989 65.8679 127.784 65.8684Z" fill="#ED8D34"/>
<path d="M129.411 53.4374C129.265 53.4357 129.121 53.4003 128.99 53.3339L124.441 50.9525C124.334 50.8969 124.24 50.8209 124.163 50.7289C124.086 50.6368 124.028 50.5305 123.992 50.4159C123.956 50.3014 123.943 50.1809 123.954 50.0614C123.964 49.9418 123.999 49.8256 124.054 49.7192C124.11 49.6128 124.186 49.5184 124.278 49.4414C124.37 49.3644 124.476 49.3063 124.591 49.2704C124.705 49.2345 124.826 49.2215 124.945 49.2321C125.065 49.2428 125.181 49.2769 125.287 49.3324L129.837 51.7138C130.019 51.8085 130.163 51.9615 130.247 52.1482C130.332 52.3348 130.351 52.5444 130.301 52.7432C130.252 52.942 130.138 53.1185 129.976 53.2444C129.815 53.3703 129.615 53.4383 129.411 53.4374Z" fill="#ED8D34"/>
<path opacity="0.3" d="M161.239 102.929C160.65 102.929 160.069 102.787 159.546 102.515L154.418 99.8348C152.621 98.9148 150.611 98.4941 148.596 98.6167C143.164 98.9213 137.752 97.7512 132.931 95.2304L115.878 86.3139C114.417 85.5665 113.268 84.3254 112.636 82.8111C112.004 81.2968 111.929 79.6074 112.424 78.0431C112.737 77.1098 113.25 76.2559 113.926 75.5407C114.602 74.8255 115.426 74.2661 116.34 73.9015C116.588 73.799 116.842 73.7136 117.102 73.6457C115.678 72.7922 114.608 71.4556 114.087 69.8793C113.566 68.3031 113.629 66.5921 114.264 65.0582C114.632 64.1985 115.176 63.4254 115.861 62.7887C116.546 62.152 117.356 61.6658 118.241 61.3613C118.405 61.3064 118.57 61.2516 118.734 61.209C117.309 60.3564 116.239 59.0197 115.717 57.4432C115.196 55.8666 115.26 54.1552 115.896 52.6214C116.265 51.7629 116.809 50.991 117.494 50.3554C118.179 49.7197 118.989 49.2344 119.873 48.9306C120.025 48.8758 120.184 48.8271 120.336 48.7844L107.083 41.8535C105.622 41.106 104.473 39.8649 103.841 38.3506C103.209 36.8363 103.134 35.1469 103.63 33.5826C103.945 32.6518 104.458 31.8002 105.133 31.086C105.808 30.3719 106.629 29.812 107.541 29.4447C108.452 29.0774 109.432 28.9115 110.414 28.9581C111.396 29.0048 112.356 29.263 113.228 29.7151L147.999 47.9135L144.716 34.4718C144.295 32.7003 144.562 30.8349 145.463 29.2527C146.364 27.6705 147.833 26.4894 149.571 25.948C151.31 25.4067 153.189 25.5454 154.829 26.3362C156.469 27.1271 157.748 28.511 158.407 30.2085L170.393 61.343C171.34 63.7976 173.148 65.8239 175.479 67.0437L177.562 68.1339C177.988 68.356 178.367 68.6602 178.675 69.0289C178.984 69.3976 179.217 69.8236 179.361 70.2825C179.504 70.7413 179.556 71.224 179.513 71.7029C179.47 72.1818 179.332 72.6475 179.109 73.0732L164.492 101.004C164.177 101.591 163.707 102.08 163.134 102.42C162.561 102.759 161.906 102.935 161.239 102.929ZM149.284 96.7835C151.364 96.7721 153.415 97.2631 155.265 98.2147L160.393 100.895C160.606 101.008 160.84 101.078 161.08 101.1C161.321 101.122 161.563 101.097 161.794 101.025C162.024 100.953 162.238 100.836 162.423 100.681C162.608 100.526 162.761 100.335 162.872 100.121L177.489 72.1901C177.601 71.9767 177.67 71.7433 177.691 71.5033C177.712 71.2633 177.686 71.0214 177.614 70.7915C177.541 70.5617 177.424 70.3485 177.269 70.1641C177.114 69.9798 176.923 69.8279 176.709 69.7174L174.626 68.6272C171.911 67.2032 169.806 64.839 168.706 61.9764L156.714 30.8419C156.233 29.5596 155.279 28.5104 154.048 27.9096C152.817 27.3088 151.403 27.202 150.095 27.6112C148.788 28.0204 147.688 28.9145 147.019 30.11C146.35 31.3054 146.165 32.7114 146.501 34.0394L150.264 49.4422C150.306 49.6121 150.298 49.7904 150.241 49.9558C150.183 50.1211 150.08 50.2664 149.942 50.374C149.804 50.484 149.637 50.5512 149.462 50.5674C149.287 50.5837 149.11 50.5482 148.955 50.4654L112.412 31.3596C111.775 31.0284 111.074 30.839 110.357 30.8043C109.64 30.7696 108.924 30.8905 108.258 31.1586C107.584 31.4213 106.977 31.8309 106.481 32.3576C105.984 32.8844 105.612 33.5151 105.39 34.2038C105.026 35.3589 105.085 36.6057 105.556 37.7214C106.026 38.8371 106.879 39.7491 107.96 40.2943L125.318 49.3691C125.533 49.4814 125.694 49.6744 125.767 49.9057C125.839 50.137 125.817 50.3876 125.705 50.6024C125.649 50.7088 125.573 50.8032 125.481 50.8802C125.389 50.9572 125.283 51.0153 125.168 51.0512C124.937 51.1237 124.686 51.1014 124.471 50.9892C123.865 50.6747 123.201 50.4881 122.52 50.441C121.839 50.3938 121.156 50.4871 120.512 50.7151C119.866 50.9377 119.274 51.2926 118.772 51.7572C118.271 52.2218 117.872 52.7858 117.601 53.4132C117.116 54.6034 117.098 55.9326 117.549 57.1359C118.001 58.3392 118.889 59.3281 120.037 59.9056L123.692 61.8059C123.888 61.9274 124.031 62.119 124.092 62.3419C124.153 62.5648 124.127 62.8024 124.02 63.0071C123.913 63.2117 123.732 63.368 123.514 63.4446C123.296 63.5212 123.057 63.5124 122.845 63.4198C122.24 63.1066 121.577 62.9206 120.897 62.8735C120.217 62.8264 119.535 62.919 118.892 63.1458C118.246 63.3697 117.653 63.7258 117.152 64.1914C116.651 64.6569 116.252 65.2218 115.981 65.8499C115.498 67.0394 115.481 68.3672 115.932 69.5691C116.383 70.7709 117.271 71.7589 118.417 72.3363L122.072 74.2365C122.286 74.3488 122.448 74.5418 122.52 74.7731C122.593 75.0044 122.571 75.255 122.458 75.4698C122.346 75.6847 122.153 75.8461 121.922 75.9186C121.691 75.9912 121.44 75.9689 121.225 75.8566C120.587 75.528 119.886 75.3405 119.169 75.3069C118.453 75.2733 117.737 75.3943 117.071 75.6617C116.4 75.9274 115.795 76.3381 115.3 76.8645C114.805 77.3909 114.432 78.02 114.209 78.7069C113.844 79.8619 113.902 81.1092 114.373 82.2252C114.844 83.3413 115.697 84.2531 116.779 84.7974L133.832 93.7139C138.351 96.0496 143.414 97.1287 148.492 96.8383C148.76 96.8383 149.022 96.7956 149.284 96.7956V96.7835Z" fill="black"/>
</svg>
