<svg width="243" height="223" viewBox="0 0 243 223" fill="none" xmlns="http://www.w3.org/2000/svg">
<path d="M243 195.969H0V196.118H243V195.969Z" fill="#E6E6E6"/>
<path d="M51.5113 203.067H25.1021V203.217H51.5113V203.067Z" fill="#E6E6E6"/>
<path d="M121.986 199.817H112.042V199.967H121.986V199.817Z" fill="#E6E6E6"/>
<path d="M88.1021 199.817H73.5513V199.967H88.1021V199.817Z" fill="#E6E6E6"/>
<path d="M208.45 201.541H177.667V201.691H208.45V201.541Z" fill="#E6E6E6"/>
<path d="M116.261 201.541H109.316V201.691H116.261V201.541Z" fill="#E6E6E6"/>
<path d="M62.6937 203.067H56.2153V203.217H62.6937V203.067Z" fill="#E6E6E6"/>
<path d="M216.557 201.541H212.421V201.691H216.557V201.541Z" fill="#E6E6E6"/>
<path d="M115.182 169.273H21.3405C20.6054 169.271 19.9008 168.911 19.3814 168.27C18.862 167.629 18.5703 166.761 18.5703 165.855V3.38785C18.5767 2.48763 18.8712 1.62688 19.3899 0.992545C19.9086 0.358214 20.6096 0.00154212 21.3405 0H115.182C115.918 0 116.624 0.360087 117.145 1.00105C117.665 1.642 117.957 2.51133 117.957 3.41778V165.855C117.957 166.762 117.665 167.631 117.145 168.272C116.624 168.913 115.918 169.273 115.182 169.273V169.273ZM21.3405 0.119713C20.6376 0.121298 19.9639 0.466318 19.4673 1.07904C18.9707 1.69177 18.6918 2.52213 18.6918 3.38785V165.855C18.6918 166.721 18.9707 167.551 19.4673 168.164C19.9639 168.777 20.6376 169.122 21.3405 169.123H115.182C115.886 169.122 116.56 168.777 117.057 168.164C117.555 167.552 117.835 166.722 117.836 165.855V3.38785C117.835 2.52158 117.555 1.69123 117.057 1.07868C116.56 0.466123 115.886 0.121295 115.182 0.119713H21.3405Z" fill="#E6E6E6"/>
<path d="M220.309 169.273H126.462C125.726 169.271 125.021 168.911 124.501 168.27C123.981 167.63 123.688 166.761 123.687 165.855V3.38785C123.695 2.48709 123.99 1.62634 124.51 0.99217C125.029 0.358004 125.731 0.00152531 126.462 0H220.309C221.039 0.00311521 221.738 0.360483 222.256 0.994645C222.774 1.62881 223.068 2.48867 223.074 3.38785V165.855C223.074 166.76 222.783 167.627 222.265 168.268C221.746 168.908 221.043 169.27 220.309 169.273V169.273ZM126.462 0.119713C125.759 0.121295 125.084 0.466123 124.587 1.07868C124.09 1.69123 123.81 2.52158 123.809 3.38785V165.855C123.81 166.722 124.09 167.552 124.587 168.164C125.084 168.777 125.759 169.122 126.462 169.123H220.309C221.012 169.122 221.686 168.777 222.184 168.164C222.681 167.552 222.961 166.722 222.962 165.855V3.38785C222.961 2.52158 222.681 1.69123 222.184 1.07868C221.686 0.466123 221.012 0.121295 220.309 0.119713H126.462Z" fill="#E6E6E6"/>
<path d="M200.31 18.292H91.9854V95.8415H200.31V18.292Z" fill="#E6E6E6"/>
<path d="M201.772 18.292H93.4478V95.8415H201.772V18.292Z" fill="#F5F5F5"/>
<path d="M199.144 92.2027V21.9316L96.0775 21.9316V92.2027L199.144 92.2027Z" fill="white"/>
<path d="M199.148 92.2027V21.9316H198.04V92.2027H199.148Z" fill="#E6E6E6"/>
<path d="M200.689 70.3613H94.5371V75.2456H200.689V70.3613Z" fill="#F5F5F5"/>
<path d="M122.958 144.319H105.17V192.893H122.958V144.319Z" fill="#E6E6E6"/>
<path d="M186.887 192.892H108.583V195.968H186.887V192.892Z" fill="#E6E6E6"/>
<path d="M122.953 192.892H190.303V144.318H122.953V192.892Z" fill="#F5F5F5"/>
<path d="M129.952 166.227H183.314V150.299H129.952V166.227Z" fill="#E6E6E6"/>
<path d="M129.952 186.907H183.314V170.98H129.952V186.907Z" fill="#E6E6E6"/>
<path d="M164.633 157.17H148.634C148.201 157.17 147.851 157.601 147.851 158.134V158.391C147.851 158.923 148.201 159.355 148.634 159.355H164.633C165.065 159.355 165.415 158.923 165.415 158.391V158.134C165.415 157.601 165.065 157.17 164.633 157.17Z" fill="#F5F5F5"/>
<path d="M164.633 177.856H148.634C148.201 177.856 147.851 178.288 147.851 178.82V179.077C147.851 179.61 148.201 180.041 148.634 180.041H164.633C165.065 180.041 165.415 179.61 165.415 179.077V178.82C165.415 178.288 165.065 177.856 164.633 177.856Z" fill="#F5F5F5"/>
<path d="M69.6829 195.969H31.7894L26.5649 41.1396H64.4584L69.6829 195.969Z" fill="#E6E6E6"/>
<path d="M75.1695 195.969H32.7611L27.5366 41.1396H69.945L75.1695 195.969Z" fill="#F5F5F5"/>
<path d="M36.9503 190.581L32.0903 46.5254H65.7507L70.6156 190.581H36.9503Z" fill="white"/>
<path d="M138.476 136.825C138.962 120.473 139.448 97.817 138.422 89.6167L136.746 88.0186C136.746 88.0186 137.11 89.5449 137.305 114.601C137.499 139.656 137.737 133.102 137.533 136.825H138.476Z" fill="#E0E0E0"/>
<path d="M141.596 82.6553C144.697 77.4777 151.224 73.7966 157.984 73.8145C160.638 73.8145 150.082 79.836 145.81 86.4741C142.49 91.6277 138.831 100.301 137.635 105.113C138.209 94.9856 138.51 87.8268 141.596 82.6553Z" fill="#E0E0E0"/>
<path d="M135.375 96.1414C132.527 90.7544 126.185 86.6063 119.439 86.1395C116.791 85.9539 127.04 92.7236 130.992 99.649C134.058 105.036 137.31 113.955 138.282 118.851C138.175 108.699 138.228 101.534 135.375 96.1414Z" fill="#E0E0E0"/>
<path d="M136.649 74.0117C134.053 67.7268 127.998 61.6634 121.413 59.1973C118.822 58.2276 129.548 69.289 132.615 77.7527C134.996 84.3369 137.883 92.609 138.641 97.8344C138.923 87.5272 139.239 80.3026 136.649 74.0117Z" fill="#E0E0E0"/>
<path d="M137.849 144.319C139.427 144.318 140.945 143.574 142.091 142.238C143.237 140.902 143.924 139.076 144.011 137.136L144.556 125.464H131.142L131.691 137.136C131.777 139.076 132.463 140.902 133.609 142.238C134.754 143.574 136.271 144.318 137.849 144.319V144.319Z" fill="#F0F0F0"/>
<path d="M130.277 128.128H145.426L145.858 123.285H129.84L130.277 128.128Z" fill="#EBEBEB"/>
<path d="M194.677 47.9805H204.708V14.4611H194.677V47.9805Z" fill="#E6E6E6"/>
<path d="M194.677 14.4668H189.706V45.2927H194.677V14.4668Z" fill="#F5F5F5"/>
<path d="M179.675 47.9805H189.706V14.4611H179.675V47.9805Z" fill="#E6E6E6"/>
<path d="M179.674 14.4668H174.703V45.2927H179.674V14.4668Z" fill="#F5F5F5"/>
<path d="M164.672 47.9805H174.703V14.4611H164.672V47.9805Z" fill="#E6E6E6"/>
<path d="M164.671 14.4668H159.7V45.2927H164.671V14.4668Z" fill="#F5F5F5"/>
<path d="M149.664 47.9805H159.695V14.4611H149.664V47.9805Z" fill="#E6E6E6"/>
<path d="M149.664 14.4668H144.692V45.2927H149.664V14.4668Z" fill="#F5F5F5"/>
<path d="M134.666 47.9805H144.697V14.4611H134.666V47.9805Z" fill="#E6E6E6"/>
<path d="M134.661 14.4668H129.689V45.2927H134.661V14.4668Z" fill="#F5F5F5"/>
<path d="M119.658 47.9805H129.689V14.4611H119.658V47.9805Z" fill="#E6E6E6"/>
<path d="M119.658 14.4668H114.687V45.2927H119.658V14.4668Z" fill="#F5F5F5"/>
<path d="M104.655 47.9805H114.687V14.4611H104.655V47.9805Z" fill="#E6E6E6"/>
<path d="M104.655 14.4668H99.6836V45.2927H104.655V14.4668Z" fill="#F5F5F5"/>
<path d="M89.6526 47.9805H99.6836V14.4611H89.6526V47.9805Z" fill="#E6E6E6"/>
<path d="M121.5 223.001C173.542 223.001 215.731 219.967 215.731 216.225C215.731 212.483 173.542 209.449 121.5 209.449C69.458 209.449 27.2695 212.483 27.2695 216.225C27.2695 219.967 69.458 223.001 121.5 223.001Z" fill="#F5F5F5"/>
<path d="M171.276 98.4818L173.341 102.372L176.413 101.588L174.095 96.752L171.276 98.4818Z" fill="#9F5B53"/>
<path d="M177.132 65.1357C177.569 65.7882 177.934 66.3688 178.308 67.0032C178.682 67.6377 179.042 68.2483 179.397 68.8827C180.106 70.1457 180.782 71.4446 181.414 72.7794C182.045 74.1141 182.658 75.4789 183.192 76.9094C183.479 77.6098 183.722 78.352 183.985 79.0762C184.247 79.8005 184.471 80.5606 184.66 81.3448L184.816 81.9433L184.893 82.2366C184.937 82.4102 184.981 82.5958 185.01 82.7693C185.117 83.3906 185.153 84.0273 185.117 84.6608C185.053 85.6533 184.878 86.6302 184.597 87.5638C184.121 89.1197 183.512 90.6086 182.779 92.0051C181.414 94.5975 179.831 97.0051 178.055 99.1879L175.932 97.1408C177.099 94.6862 178.167 92.1611 179.129 89.575C179.572 88.3944 179.925 87.1661 180.184 85.9058C180.281 85.4325 180.325 84.9452 180.315 84.4573C180.315 84.354 180.297 84.252 180.262 84.158L180.184 83.9306L180.024 83.4756C179.114 80.9576 178.041 78.5336 176.816 76.2271C176.204 75.03 175.557 73.8747 174.906 72.7075C174.255 71.5403 173.545 70.3731 172.904 69.3137L177.132 65.1357Z" fill="#9F5B53"/>
<path d="M175.932 62.1905C179.28 63.1362 183.12 74.3712 183.12 74.3712L176.418 80.0456C174.745 77.0928 173.259 73.985 171.976 70.7499C169.988 65.6083 172.53 61.2268 175.932 62.1905Z" fill="#ED8D34"/>
<path opacity="0.8" d="M175.932 62.1905C179.28 63.1362 183.12 74.3712 183.12 74.3712L176.418 80.0456C174.745 77.0928 173.259 73.985 171.976 70.7499C169.988 65.6083 172.53 61.2268 175.932 62.1905Z" fill="white"/>
<path d="M173.55 69.3555L176.729 79.7764L176.413 80.0458C176.413 80.0458 175.037 77.6515 173.55 74.4612V69.3555Z" fill="#ED8D34"/>
<path opacity="0.6" d="M173.55 69.3555L176.729 79.7764L176.413 80.0458C176.413 80.0458 175.037 77.6515 173.55 74.4612V69.3555Z" fill="white"/>
<path d="M165.065 212.274H161.492L161.138 202.093H164.71L165.065 212.274Z" fill="#9F5B53"/>
<path d="M186.502 212.274H182.93L181.137 202.093H184.704L186.502 212.274Z" fill="#9F5B53"/>
<path d="M161.138 202.099L161.322 207.342H164.894L164.71 202.099H161.138Z" fill="#8A4743"/>
<path d="M184.709 202.099H181.137L182.06 207.342H185.632L184.709 202.099Z" fill="#8A4743"/>
<path d="M162.509 100.427C162.509 100.427 166.562 134.03 168.783 146.618C171.213 160.385 180.398 206.331 180.398 206.331H186.94C186.94 206.331 180.884 161.516 179.494 147.845C177.988 133.031 174.834 100.403 174.834 100.403L162.509 100.427Z" fill="#ED8D34"/>
<path opacity="0.5" d="M162.509 100.427C162.509 100.427 166.562 134.03 168.783 146.618C171.213 160.385 180.398 206.331 180.398 206.331H186.94C186.94 206.331 180.884 161.516 179.494 147.845C177.988 133.031 174.834 100.403 174.834 100.403L162.509 100.427Z" fill="black"/>
<path opacity="0.4" d="M165.07 112.399C169.755 113.53 169.259 135.048 168.695 146.116C167.344 138.292 165.366 123.239 164.015 112.554C164.342 112.356 164.714 112.301 165.07 112.399V112.399Z" fill="black"/>
<path d="M155.734 100.428C155.734 100.428 155.248 133.301 155.632 146.714C156.035 160.661 160.006 206.331 160.006 206.331H166.051C166.051 206.331 166.275 161.475 166.537 147.78C166.829 132.846 168.292 100.428 168.292 100.428H155.734Z" fill="#ED8D34"/>
<path opacity="0.5" d="M155.734 100.428C155.734 100.428 155.248 133.301 155.632 146.714C156.035 160.661 160.006 206.331 160.006 206.331H166.051C166.051 206.331 166.275 161.475 166.537 147.78C166.829 132.846 168.292 100.428 168.292 100.428H155.734Z" fill="black"/>
<path d="M176.705 96.2021L174.095 96.7528L176.413 101.589C176.413 101.589 178.231 100.512 178.561 98.4228L176.705 96.2021Z" fill="#9F5B53"/>
<path d="M159.456 45.8514C159.456 46.2046 159.306 46.4919 159.116 46.4919C158.927 46.4919 158.776 46.2046 158.776 45.8514C158.776 45.4983 158.927 45.2109 159.116 45.2109C159.306 45.2109 159.456 45.4923 159.456 45.8514Z" fill="#263238"/>
<path d="M159.33 46.4912C158.986 47.5753 158.523 48.5963 157.955 49.5259C158.151 49.6991 158.376 49.8173 158.614 49.8721C158.851 49.9269 159.096 49.917 159.33 49.8432V46.4912Z" fill="#892B29"/>
<path d="M160.477 43.8881C160.441 43.8886 160.407 43.8738 160.38 43.8462C160.211 43.6862 160.013 43.5783 159.803 43.5314C159.594 43.4845 159.378 43.5001 159.174 43.5768C159.154 43.5864 159.132 43.5909 159.11 43.59C159.088 43.5892 159.067 43.583 159.047 43.5719C159.027 43.5608 159.009 43.5449 158.994 43.5252C158.98 43.5055 158.968 43.4823 158.96 43.4571C158.952 43.432 158.947 43.405 158.947 43.3777C158.947 43.3505 158.952 43.3235 158.96 43.2983C158.969 43.2732 158.982 43.2505 158.997 43.2315C159.013 43.2125 159.032 43.1976 159.053 43.1877C159.309 43.0861 159.581 43.0624 159.846 43.1187C160.111 43.175 160.361 43.3096 160.574 43.511C160.593 43.5259 160.609 43.5454 160.621 43.5684C160.633 43.5913 160.641 43.6171 160.645 43.6441C160.648 43.6711 160.647 43.6988 160.642 43.7253C160.636 43.7519 160.627 43.7767 160.613 43.7983C160.598 43.8265 160.578 43.8497 160.554 43.8654C160.531 43.8812 160.504 43.889 160.477 43.8881V43.8881Z" fill="#263238"/>
<path d="M168.753 49.9395C168.238 53.1597 167.728 59.0496 169.555 61.1984C169.555 61.1984 168.841 64.4605 163.986 64.4605C158.64 64.4605 161.439 61.1984 161.439 61.1984C164.355 60.3424 164.277 57.6789 163.767 55.1829L168.753 49.9395Z" fill="#9F5B53"/>
<path d="M170.255 62.3174C170.639 61.2878 171.057 60.1027 170.187 59.7316C169.215 59.3246 163.981 58.9116 162.173 59.6717C161.935 59.7531 161.712 59.892 161.517 60.0803C161.322 60.2686 161.16 60.5026 161.039 60.7687C160.919 61.0348 160.842 61.3277 160.814 61.6305C160.786 61.9334 160.807 62.2401 160.875 62.5329L170.255 62.3174Z" fill="#ED8D34"/>
<path d="M181.496 212.49C181.345 212.514 181.192 212.502 181.045 212.452C180.898 212.403 180.761 212.318 180.641 212.202C180.598 212.13 180.575 212.043 180.575 211.954C180.575 211.865 180.598 211.778 180.641 211.706C180.668 211.644 180.705 211.59 180.75 211.547C180.796 211.505 180.848 211.475 180.903 211.46C181.428 211.316 182.41 212.142 182.454 212.178C182.467 212.191 182.477 212.207 182.483 212.226C182.489 212.245 182.491 212.266 182.488 212.286C182.485 212.306 182.477 212.323 182.466 212.337C182.455 212.351 182.44 212.361 182.425 212.364C182.119 212.445 181.808 212.487 181.496 212.49V212.49ZM181.054 211.652H180.947C180.914 211.66 180.883 211.677 180.856 211.702C180.829 211.727 180.807 211.759 180.792 211.795C180.714 211.963 180.762 212.035 180.792 212.059C180.942 212.31 181.671 212.31 182.206 212.202C181.859 211.919 181.466 211.735 181.054 211.664V211.652Z" fill="#ED8D34"/>
<path d="M182.41 212.382H182.371C182.002 212.131 181.287 211.185 181.36 210.682C181.373 210.604 181.406 210.535 181.456 210.484C181.506 210.434 181.568 210.407 181.632 210.407C181.696 210.398 181.761 210.406 181.823 210.428C181.885 210.451 181.942 210.488 181.992 210.538C182.405 210.957 182.478 212.226 182.478 212.28C182.48 212.299 182.477 212.318 182.47 212.335C182.463 212.353 182.453 212.367 182.439 212.376C182.43 212.381 182.42 212.383 182.41 212.382ZM181.691 210.586H181.652C181.54 210.586 181.53 210.67 181.525 210.694C181.482 210.987 181.938 211.712 182.303 212.053C182.278 211.553 182.132 211.074 181.885 210.676C181.829 210.624 181.761 210.597 181.691 210.598V210.586Z" fill="#ED8D34"/>
<path d="M160.059 212.489C159.602 212.489 159.16 212.411 159.009 212.16C158.972 212.093 158.952 212.014 158.952 211.933C158.952 211.851 158.972 211.772 159.009 211.705C159.037 211.643 159.075 211.59 159.121 211.547C159.168 211.505 159.22 211.475 159.276 211.46C159.864 211.262 161.118 212.136 161.172 212.172C161.186 212.183 161.197 212.2 161.204 212.219C161.211 212.238 161.213 212.259 161.211 212.28C161.209 212.301 161.201 212.321 161.188 212.336C161.176 212.351 161.16 212.361 161.143 212.364C160.785 212.447 160.422 212.489 160.059 212.489V212.489ZM159.49 211.639C159.437 211.63 159.383 211.63 159.33 211.639C159.296 211.648 159.263 211.665 159.235 211.689C159.206 211.714 159.182 211.746 159.165 211.783C159.106 211.915 159.126 211.974 159.165 212.01C159.33 212.286 160.229 212.304 160.9 212.19C160.463 211.899 159.984 211.716 159.49 211.651V211.639Z" fill="#ED8D34"/>
<path d="M161.138 212.382H161.104C160.671 212.149 159.821 211.185 159.884 210.7C159.884 210.58 159.966 210.437 160.2 210.407C160.286 210.39 160.375 210.398 160.459 210.429C160.543 210.46 160.62 210.514 160.686 210.586C161.142 211.041 161.235 212.226 161.24 212.28C161.242 212.298 161.239 212.317 161.233 212.334C161.227 212.351 161.218 212.365 161.206 212.376C161.195 212.383 161.184 212.387 161.172 212.388C161.16 212.389 161.149 212.387 161.138 212.382ZM160.268 210.586H160.214C160.064 210.586 160.054 210.682 160.049 210.706C160.01 211.005 160.593 211.753 161.021 212.077C160.979 211.574 160.809 211.1 160.535 210.724C160.46 210.645 160.366 210.601 160.268 210.598V210.586Z" fill="#ED8D34"/>
<path d="M182.678 211.765H186.687C186.759 211.765 186.828 211.796 186.884 211.851C186.939 211.907 186.978 211.984 186.994 212.07L187.698 215.979C187.714 216.074 187.713 216.172 187.694 216.266C187.675 216.361 187.639 216.449 187.588 216.523C187.538 216.598 187.474 216.658 187.402 216.698C187.331 216.739 187.252 216.759 187.173 216.757C185.774 216.727 185.093 216.625 183.329 216.625C182.245 216.625 180.01 216.769 178.508 216.769C177.006 216.769 176.817 214.973 177.429 214.775C180.18 214.033 181.215 213.01 182.1 212.04C182.257 211.861 182.464 211.763 182.678 211.765V211.765Z" fill="#263238"/>
<path d="M161.517 211.766H165.405C165.476 211.766 165.546 211.797 165.601 211.852C165.657 211.908 165.695 211.985 165.711 212.071L166.416 215.979C166.432 216.074 166.432 216.172 166.414 216.265C166.395 216.359 166.36 216.447 166.311 216.522C166.261 216.597 166.199 216.657 166.128 216.698C166.056 216.738 165.979 216.759 165.9 216.758C164.496 216.728 162.464 216.626 160.695 216.626C158.63 216.626 156.841 216.77 154.416 216.77C152.958 216.77 152.545 214.974 153.158 214.776C155.952 214.022 158.231 213.944 160.647 212.113C160.904 211.897 161.206 211.777 161.517 211.766V211.766Z" fill="#263238"/>
<path d="M156.419 71.1873C155.005 73.7611 153.542 76.1614 151.962 78.5436C150.385 80.9503 148.697 83.2445 146.908 85.4151L146.208 86.2292L146.028 86.4327L145.907 86.5703L145.727 86.7619C145.496 86.9859 145.251 87.1861 144.993 87.3604C144.173 87.8919 143.27 88.2021 142.344 88.2703C140.932 88.3785 139.515 88.2354 138.136 87.8453C135.637 87.1636 133.214 86.1146 130.918 84.7208L131.808 81.6083C134.085 82.1663 136.388 82.5521 138.704 82.7635C139.721 82.8655 140.745 82.8132 141.751 82.6079C142.04 82.5564 142.316 82.4254 142.558 82.2248C142.558 82.2248 142.558 82.1829 142.558 82.1829L142.592 82.135L142.738 81.9375L143.311 81.1593C144.833 79.0225 146.305 76.7539 147.734 74.4255C149.163 72.0971 150.592 69.7268 151.957 67.3984L156.419 71.1873Z" fill="#9F5B53"/>
<path d="M158.066 71.876C157.569 75.5894 156.266 79.0681 154.295 81.9438C154.217 79.8368 154.188 77.9454 154.193 76.2515L158.066 71.876Z" fill="#BED3FC"/>
<path d="M169.06 45.0964C168.846 49.4539 168.899 52.0158 167.116 54.2544C164.428 57.6183 160.064 55.6191 159.218 51.2616C158.46 47.347 158.941 40.8825 162.406 39.1467C163.168 38.761 163.998 38.6218 164.816 38.7423C165.634 38.8629 166.414 39.2392 167.081 39.8354C167.747 40.4317 168.279 41.2281 168.626 42.1489C168.972 43.0698 169.121 44.0844 169.06 45.0964V45.0964Z" fill="#9F5B53"/>
<path d="M162.187 42.1994C162.217 47.3231 163.568 53.608 167.592 53.171C170.265 52.8837 172.296 46.8801 172.573 44.3362C172.996 40.4456 173.059 39.7034 171.281 39.2545C172.058 38.7337 172.34 36.2617 170.522 35.6631C167.995 34.8431 163.232 34.041 164.729 32.1436C161.745 32.808 160.997 34.2804 161.541 36.0701C159.796 35.9025 158.722 34.7772 158.776 33.0773C155.884 34.5198 154.008 42.6782 162.187 42.1994Z" fill="#263238"/>
<path d="M164.268 46.365C164.071 47.4217 163.596 48.3686 162.917 49.0585C162.018 49.9564 161.298 49.1543 161.318 47.8614C161.318 46.6942 161.833 44.8207 162.844 44.4257C163.855 44.0306 164.516 45.0901 164.268 46.365Z" fill="#9F5B53"/>
<path d="M173.987 40.1469C173.512 39.7738 172.968 39.5523 172.406 39.5021C171.843 39.452 171.279 39.5748 170.765 39.8596C170.765 39.8596 172.787 36.5136 173.987 40.1469Z" fill="#263238"/>
<path d="M179.334 203.361C179.305 203.361 180.009 206.456 180.009 206.456H187.367L187.231 203.697L179.334 203.361Z" fill="#ED8D34"/>
<path d="M158.829 203.361C158.8 203.361 159.169 206.456 159.169 206.456H166.528L166.727 203.697L158.829 203.361Z" fill="#ED8D34"/>
<path d="M161.25 200.98C161.235 200.98 161.221 200.973 161.21 200.961C161.199 200.949 161.193 200.932 161.191 200.914C160.122 188.273 157.61 157.686 157.303 146.714C156.978 135.515 157.274 110.388 157.372 102.954C157.372 102.912 157.401 102.888 157.435 102.882C157.45 102.883 157.464 102.891 157.475 102.904C157.485 102.918 157.492 102.935 157.493 102.954C157.396 110.388 157.099 135.515 157.425 146.708C157.741 157.68 160.253 188.255 161.313 200.896C161.313 200.916 161.307 200.936 161.297 200.952C161.286 200.967 161.271 200.977 161.255 200.98H161.25Z" fill="#ED8D34"/>
<path opacity="0.3" d="M161.25 200.98C161.235 200.98 161.221 200.973 161.21 200.961C161.199 200.949 161.193 200.932 161.191 200.914C160.122 188.273 157.61 157.686 157.303 146.714C156.978 135.515 157.274 110.388 157.372 102.954C157.372 102.912 157.401 102.888 157.435 102.882C157.45 102.883 157.464 102.891 157.475 102.904C157.485 102.918 157.492 102.935 157.493 102.954C157.396 110.388 157.099 135.515 157.425 146.708C157.741 157.68 160.253 188.255 161.313 200.896C161.313 200.916 161.307 200.936 161.297 200.952C161.286 200.967 161.271 200.977 161.255 200.98H161.25Z" fill="black"/>
<path d="M159.714 65.9807C160.2 70.1707 153.522 80.7832 153.522 80.7832L146.83 75.1088C146.83 75.1088 148.687 69.2489 151.812 65.4061C155.379 61.0546 159.199 61.4496 159.714 65.9807Z" fill="#ED8D34"/>
<path opacity="0.8" d="M159.714 65.9807C160.2 70.1707 153.522 80.7832 153.522 80.7832L146.83 75.1088C146.83 75.1088 148.687 69.2489 151.812 65.4061C155.379 61.0546 159.199 61.4496 159.714 65.9807Z" fill="white"/>
<path d="M155.947 62.4185C155.947 62.4185 152.147 67.7038 155.733 100.427H174.833C174.964 96.8358 173.122 79.2022 175.946 62.1911C173.835 61.6905 171.701 61.3586 169.555 61.1975C166.852 61.0058 164.142 61.0058 161.439 61.1975C159.585 61.4275 157.749 61.8357 155.947 62.4185V62.4185Z" fill="#ED8D34"/>
<path opacity="0.8" d="M155.947 62.4185C155.947 62.4185 152.147 67.7038 155.733 100.427H174.833C174.964 96.8358 173.122 79.2022 175.946 62.1911C173.835 61.6905 171.701 61.3586 169.555 61.1975C166.852 61.0058 164.142 61.0058 161.439 61.1975C159.585 61.4275 157.749 61.8357 155.947 62.4185V62.4185Z" fill="white"/>
<path d="M99.7561 38.3944C101.281 30.119 97.071 21.8876 90.3518 20.009C83.6327 18.1305 76.9493 23.316 75.4239 31.5914C73.8986 39.8667 78.109 48.0981 84.8282 49.9767C91.5473 51.8553 98.2308 46.6697 99.7561 38.3944Z" fill="#ED8D34"/>
<path opacity="0.2" d="M99.7561 38.3944C101.281 30.119 97.071 21.8876 90.3518 20.009C83.6327 18.1305 76.9493 23.316 75.4239 31.5914C73.8986 39.8667 78.109 48.0981 84.8282 49.9767C91.5473 51.8553 98.2308 46.6697 99.7561 38.3944Z" fill="white"/>
<path d="M86.3089 54.918C83.082 54.6111 80.0044 53.1174 77.4749 50.6307C74.9455 48.144 73.0808 44.7789 72.1226 40.9716L72.5843 40.792C73.5144 44.4852 75.3237 47.7493 77.7778 50.1613C80.2318 52.5732 83.2174 54.0218 86.3478 54.3195L86.3089 54.918Z" fill="#ED8D34"/>
<path opacity="0.2" d="M86.3089 54.918C83.082 54.6111 80.0044 53.1174 77.4749 50.6307C74.9455 48.144 73.0808 44.7789 72.1226 40.9716L72.5843 40.792C73.5144 44.4852 75.3237 47.7493 77.7778 50.1613C80.2318 52.5732 83.2174 54.0218 86.3478 54.3195L86.3089 54.918Z" fill="white"/>
<path d="M72.5163 29.4611L72.0303 29.2935C72.6567 26.7154 73.6996 24.3198 75.0963 22.2503C76.493 20.1808 78.2148 18.4801 80.1583 17.2504C82.1018 16.0206 84.2269 15.287 86.4063 15.0936C88.5856 14.9003 90.7742 15.2511 92.8408 16.1252L92.6853 16.6938C90.6793 15.8468 88.555 15.5076 86.44 15.6965C84.3249 15.8854 82.2626 16.5985 80.3768 17.793C78.491 18.9876 76.8206 20.6389 75.4657 22.6481C74.1107 24.6572 73.0993 26.9827 72.492 29.485L72.5163 29.4611Z" fill="#ED8D34"/>
<path opacity="0.2" d="M72.5163 29.4611L72.0303 29.2935C72.6567 26.7154 73.6996 24.3198 75.0963 22.2503C76.493 20.1808 78.2148 18.4801 80.1583 17.2504C82.1018 16.0206 84.2269 15.287 86.4063 15.0936C88.5856 14.9003 90.7742 15.2511 92.8408 16.1252L92.6853 16.6938C90.6793 15.8468 88.555 15.5076 86.44 15.6965C84.3249 15.8854 82.2626 16.5985 80.3768 17.793C78.491 18.9876 76.8206 20.6389 75.4657 22.6481C74.1107 24.6572 73.0993 26.9827 72.492 29.485L72.5163 29.4611Z" fill="white"/>
<path d="M102.614 29.204C101.478 24.7288 99.0597 20.9147 95.8101 18.4718L96.0628 17.957C99.4095 20.4798 101.9 24.4121 103.071 29.0244L102.614 29.204Z" fill="#ED8D34"/>
<path opacity="0.2" d="M102.614 29.204C101.478 24.7288 99.0597 20.9147 95.8101 18.4718L96.0628 17.957C99.4095 20.4798 101.9 24.4121 103.071 29.0244L102.614 29.204Z" fill="white"/>
<path d="M99.7615 80.8074C101.287 72.5321 97.0764 64.3007 90.3572 62.4221C83.6381 60.5435 76.9546 65.7291 75.4293 74.0045C73.904 82.2798 78.1144 90.5112 84.8336 92.3898C91.5527 94.2684 98.2361 89.0828 99.7615 80.8074Z" fill="#ED8D34"/>
<path opacity="0.6" d="M99.7615 80.8074C101.287 72.5321 97.0764 64.3007 90.3572 62.4221C83.6381 60.5435 76.9546 65.7291 75.4293 74.0045C73.904 82.2798 78.1144 90.5112 84.8336 92.3898C91.5527 94.2684 98.2361 89.0828 99.7615 80.8074Z" fill="white"/>
<path d="M99.7576 123.22C101.283 114.944 97.0724 106.713 90.3533 104.834C83.6342 102.956 76.9507 108.141 75.4254 116.417C73.9001 124.692 78.1105 132.923 84.8296 134.802C91.5488 136.68 98.2322 131.495 99.7576 123.22Z" fill="#ED8D34"/>
<path opacity="0.6" d="M99.7576 123.22C101.283 114.944 97.0724 106.713 90.3533 104.834C83.6342 102.956 76.9507 108.141 75.4254 116.417C73.9001 124.692 78.1105 132.923 84.8296 134.802C91.5488 136.68 98.2322 131.495 99.7576 123.22Z" fill="white"/>
<path d="M99.7585 165.639C101.284 157.364 97.0734 149.133 90.3543 147.254C83.6352 145.376 76.9517 150.561 75.4264 158.836C73.9011 167.112 78.1115 175.343 84.8306 177.222C91.5498 179.1 98.2332 173.915 99.7585 165.639Z" fill="#ED8D34"/>
<path opacity="0.6" d="M99.7585 165.639C101.284 157.364 97.0734 149.133 90.3543 147.254C83.6352 145.376 76.9517 150.561 75.4264 158.836C73.9011 167.112 78.1115 175.343 84.8306 177.222C91.5498 179.1 98.2332 173.915 99.7585 165.639Z" fill="white"/>
<path d="M65.3196 38.3895C66.8449 30.1141 62.6345 21.8827 55.9153 20.0042C49.1962 18.1256 42.5127 23.3112 40.9874 31.5865C39.4621 39.8618 43.6725 48.0932 50.3917 49.9718C57.1108 51.8504 63.7942 46.6648 65.3196 38.3895Z" fill="#ED8D34"/>
<path opacity="0.6" d="M65.3196 38.3895C66.8449 30.1141 62.6345 21.8827 55.9153 20.0042C49.1962 18.1256 42.5127 23.3112 40.9874 31.5865C39.4621 39.8618 43.6725 48.0932 50.3917 49.9718C57.1108 51.8504 63.7942 46.6648 65.3196 38.3895Z" fill="white"/>
<path d="M65.3254 80.8084C66.8507 72.5331 62.6403 64.3017 55.9212 62.4231C49.202 60.5445 42.5186 65.7301 40.9933 74.0054C39.468 82.2808 43.6784 90.5122 50.3975 92.3907C57.1167 94.2693 63.8001 89.0838 65.3254 80.8084Z" fill="#ED8D34"/>
<path opacity="0.6" d="M65.3254 80.8084C66.8507 72.5331 62.6403 64.3017 55.9212 62.4231C49.202 60.5445 42.5186 65.7301 40.9933 74.0054C39.468 82.2808 43.6784 90.5122 50.3975 92.3907C57.1167 94.2693 63.8001 89.0838 65.3254 80.8084Z" fill="white"/>
<path d="M65.321 123.221C66.8463 114.945 62.6359 106.714 55.9168 104.835C49.1977 102.957 42.5142 108.142 40.9889 116.418C39.4636 124.693 43.674 132.924 50.3931 134.803C57.1123 136.681 63.7957 131.496 65.321 123.221Z" fill="#ED8D34"/>
<path opacity="0.6" d="M65.321 123.221C66.8463 114.945 62.6359 106.714 55.9168 104.835C49.1977 102.957 42.5142 108.142 40.9889 116.418C39.4636 124.693 43.674 132.924 50.3931 134.803C57.1123 136.681 63.7957 131.496 65.321 123.221Z" fill="white"/>
<path d="M65.322 165.635C66.8473 157.359 62.6369 149.128 55.9178 147.249C49.1986 145.371 42.5152 150.556 40.9899 158.832C39.4645 167.107 43.675 175.338 50.3941 177.217C57.1132 179.096 63.7967 173.91 65.322 165.635Z" fill="#ED8D34"/>
<path opacity="0.6" d="M65.322 165.635C66.8473 157.359 62.6369 149.128 55.9178 147.249C49.1986 145.371 42.5152 150.556 40.9899 158.832C39.4645 167.107 43.675 175.338 50.3941 177.217C57.1132 179.096 63.7967 173.91 65.322 165.635Z" fill="white"/>
<path d="M132.289 81.9308L129.67 78.5908L126.875 83.0321C126.875 83.0321 129.004 85.5581 131.536 84.8278L132.289 81.9308Z" fill="#9F5B53"/>
<path d="M126.069 76.7598L124.873 81.4166L126.875 83.0327L129.67 78.5914L126.069 76.7598Z" fill="#9F5B53"/>
<path d="M90.3965 77.0106C90.6131 76.2179 90.9666 75.4923 91.4325 74.8838C91.8985 74.2753 92.4659 73.7983 93.0958 73.4855C93.7256 73.1727 94.403 73.0315 95.0814 73.0718C95.7597 73.112 96.423 73.3326 97.0255 73.7185L94.1095 71.851C93.03 71.1792 92.1955 70.0314 91.7723 68.636C91.349 67.2406 91.3679 65.7001 91.8253 64.3211C92.0841 63.5942 92.4613 62.9403 92.9334 62.3999C93.4055 61.8595 93.9625 61.4441 94.5701 61.1793C95.1777 60.9146 95.823 60.8061 96.466 60.8605C97.109 60.9149 97.7361 61.1312 98.3085 61.4959L95.3925 59.6344C94.3119 58.9625 93.4766 57.8136 93.0532 56.4169C92.6298 55.0201 92.6495 53.4782 93.1083 52.0985C93.3666 51.3651 93.7452 50.7054 94.2203 50.1608C94.6954 49.6162 95.2568 49.1984 95.8692 48.9337C96.4816 48.669 97.1319 48.563 97.7792 48.6225C98.4264 48.6819 99.0567 48.9056 99.6305 49.2793L85.7843 40.3607C84.7656 39.7336 83.9615 38.6802 83.5162 37.3892C83.0709 36.0982 83.0135 34.6541 83.3543 33.3157C83.5722 32.5234 83.9266 31.7984 84.3932 31.1905C84.8597 30.5825 85.4274 30.1059 86.0574 29.7933C86.6874 29.4806 87.3648 29.3394 88.0433 29.3791C88.7217 29.4189 89.3852 29.6387 89.9882 30.0236L119.148 48.8004L116.154 33.6688C115.86 32.1486 116.044 30.5473 116.67 29.188C117.297 27.8288 118.319 26.813 119.53 26.3457C120.741 25.8785 122.051 25.9945 123.195 26.6705C124.339 27.3465 125.233 28.532 125.695 29.9877L135.259 60.5861C136.078 63.2014 137.641 65.3606 139.657 66.6615L141.324 67.7329C141.58 67.8969 141.807 68.1215 141.991 68.3937C142.176 68.666 142.315 68.9805 142.401 69.3192C142.487 69.6579 142.518 70.0142 142.491 70.3675C142.465 70.7209 142.382 71.0643 142.248 71.3781L130.584 98.8222C130.314 99.4564 129.851 99.9328 129.296 100.147C128.741 100.361 128.14 100.296 127.624 99.9654L123.532 97.3317C121.982 96.3521 120.245 95.9094 118.507 96.0508C114.304 96.3401 110.115 95.2232 106.386 92.8186L92.7779 84.0557C91.768 83.4187 90.9743 82.361 90.5383 81.0709C90.1022 79.7809 90.0519 78.342 90.3965 77.0106V77.0106Z" fill="#ED8D34"/>
<path d="M128.664 101.156C128.193 101.157 127.73 101.017 127.313 100.749L123.221 98.1156C121.787 97.2114 120.182 96.798 118.574 96.9185C114.24 97.2178 109.921 96.0679 106.075 93.5905L92.4666 84.8275C91.3008 84.0929 90.3843 82.8732 89.8798 81.385C89.3753 79.8968 89.3154 78.2365 89.7109 76.6991C89.9606 75.7819 90.3695 74.9427 90.9092 74.2398C91.4489 73.5369 92.1063 72.9872 92.8359 72.6289C93.0335 72.5281 93.2365 72.4441 93.4434 72.3775C92.3072 71.5386 91.4535 70.225 91.0378 68.6759C90.6221 67.1268 90.6721 65.4453 91.1787 63.9378C91.4724 63.0929 91.9066 62.3331 92.4532 61.7074C92.9998 61.0816 93.6467 60.6037 94.3522 60.3045C94.4835 60.2506 94.6147 60.1967 94.7459 60.1548C93.6089 59.3169 92.7546 58.0033 92.3388 56.4539C91.923 54.9044 91.9735 53.2225 92.4811 51.7151C92.7755 50.8714 93.2099 50.1128 93.7564 49.4881C94.303 48.8634 94.9496 48.3865 95.6547 48.0879C95.7762 48.034 95.9026 47.9861 96.0241 47.9442L85.4487 41.1326C84.283 40.398 83.3665 39.1782 82.8619 37.69C82.3574 36.2018 82.2976 34.5415 82.6931 33.0041C82.9448 32.0894 83.3539 31.2525 83.8926 30.5506C84.4313 29.8487 85.0867 29.2984 85.8141 28.9375C86.5415 28.5766 87.3236 28.4134 88.1069 28.4593C88.8902 28.5052 89.6562 28.759 90.3525 29.2033L118.098 47.0883L115.479 33.878C115.143 32.137 115.356 30.3038 116.075 28.7488C116.794 27.1938 117.966 26.0331 119.353 25.501C120.74 24.969 122.24 25.1053 123.549 25.8826C124.858 26.6598 125.878 28.0199 126.404 29.6881L135.968 60.2865C136.724 62.6989 138.166 64.6903 140.027 65.8891L141.689 66.9605C142.029 67.1788 142.331 67.4778 142.577 67.8401C142.823 68.2025 143.009 68.6211 143.124 69.0721C143.239 69.523 143.28 69.9974 143.245 70.4681C143.211 70.9388 143.101 71.3964 142.923 71.8148L131.259 99.2648C131.008 99.8414 130.633 100.322 130.175 100.656C129.718 100.989 129.195 101.162 128.664 101.156V101.156ZM119.124 95.1168C120.783 95.1057 122.42 95.5882 123.896 96.5234L127.988 99.1571C128.159 99.2683 128.345 99.3369 128.537 99.3589C128.729 99.3808 128.922 99.3557 129.106 99.2851C129.29 99.2144 129.461 99.0995 129.608 98.947C129.756 98.7946 129.878 98.6076 129.966 98.3969L141.63 70.9469C141.72 70.7372 141.775 70.5078 141.792 70.2719C141.809 70.036 141.788 69.7983 141.73 69.5724C141.672 69.3465 141.579 69.1369 141.455 68.9558C141.331 68.7746 141.179 68.6254 141.008 68.5167L139.346 67.4453C137.179 66.0458 135.5 63.7223 134.622 60.909L125.053 30.3106C124.669 29.0504 123.907 28.0192 122.925 27.4288C121.943 26.8383 120.814 26.7334 119.771 27.1356C118.728 27.5377 117.85 28.4165 117.316 29.5913C116.783 30.7662 116.635 32.148 116.903 33.453L119.906 48.5906C119.939 48.7576 119.933 48.9329 119.887 49.0954C119.841 49.2579 119.759 49.4006 119.649 49.5065C119.539 49.6145 119.406 49.6806 119.266 49.6965C119.126 49.7125 118.985 49.6776 118.861 49.5962L89.7012 30.8194C89.193 30.494 88.6336 30.3078 88.0615 30.2737C87.4894 30.2396 86.918 30.3584 86.3867 30.6219C85.8486 30.88 85.364 31.2826 84.9681 31.8003C84.5721 32.3179 84.2748 32.9378 84.0976 33.6147C83.8073 34.7498 83.8542 35.9752 84.23 37.0717C84.6057 38.1682 85.2857 39.0644 86.1486 39.6003L99.9996 48.5188C100.171 48.6291 100.3 48.8188 100.358 49.0461C100.416 49.2735 100.398 49.5198 100.308 49.7309C100.264 49.8355 100.203 49.9282 100.13 50.0039C100.056 50.0796 99.9714 50.1367 99.88 50.172C99.6954 50.2433 99.4954 50.2213 99.324 50.111C98.8405 49.8019 98.3106 49.6186 97.7672 49.5722C97.2238 49.5259 96.6785 49.6176 96.165 49.8416C95.6494 50.0604 95.1765 50.4092 94.7765 50.8658C94.3765 51.3224 94.0582 51.8766 93.8419 52.4933C93.4551 53.663 93.4403 54.9693 93.8006 56.1519C94.1609 57.3344 94.8698 58.3063 95.7859 58.8739L98.7019 60.7414C98.8587 60.8609 98.9729 61.0492 99.0215 61.2682C99.0701 61.4873 99.0495 61.7209 98.9639 61.922C98.8783 62.1231 98.7339 62.2767 98.56 62.352C98.386 62.4273 98.1953 62.4186 98.0264 62.3276V62.3276C97.5435 62.0198 97.0145 61.837 96.472 61.7907C95.9295 61.7444 95.3851 61.8354 94.8723 62.0583C94.3565 62.2784 93.8835 62.6283 93.4836 63.0859C93.0836 63.5434 92.7654 64.0985 92.5492 64.7159C92.1637 65.8849 92.1497 67.1898 92.51 68.371C92.8702 69.5522 93.5782 70.5231 94.4932 71.0906L97.4092 72.9581C97.5806 73.0684 97.7094 73.2581 97.7673 73.4854C97.8252 73.7127 97.8074 73.959 97.7178 74.1701C97.6282 74.3813 97.4742 74.5399 97.2896 74.6112C97.1051 74.6825 96.9051 74.6606 96.7336 74.5502V74.5502C96.2247 74.2273 95.6652 74.043 95.0933 74.01C94.5214 73.9769 93.9504 74.0959 93.4191 74.3587C92.883 74.6198 92.4003 75.0234 92.0055 75.5408C91.6107 76.0581 91.3134 76.6764 91.1349 77.3515V77.3515C90.8436 78.4866 90.89 79.7124 91.2658 80.8092C91.6416 81.906 92.3223 82.8022 93.1858 83.3371L106.794 92.1C110.399 94.3956 114.44 95.4561 118.492 95.1707C118.706 95.1707 118.915 95.1288 119.124 95.1288V95.1168Z" fill="#ED8D34"/>
<path d="M100.665 76.9558C100.547 76.9569 100.43 76.9219 100.325 76.854L96.7143 74.5137C96.6294 74.459 96.5541 74.3843 96.4926 74.2939C96.4312 74.2034 96.3848 74.0989 96.3562 73.9863C96.3275 73.8738 96.3171 73.7554 96.3256 73.6379C96.3341 73.5204 96.3613 73.4061 96.4057 73.3016C96.45 73.197 96.5107 73.1043 96.5842 73.0286C96.6576 72.9529 96.7425 72.8958 96.8338 72.8605C96.9252 72.8252 97.0214 72.8124 97.1168 72.8229C97.2122 72.8333 97.305 72.8669 97.3898 72.9215L101.02 75.2619C101.165 75.3547 101.28 75.5045 101.347 75.6874C101.414 75.8702 101.43 76.0756 101.391 76.2706C101.353 76.4657 101.262 76.6391 101.134 76.7633C101.006 76.8875 100.848 76.9553 100.685 76.9558H100.665Z" fill="#ED8D34"/>
<path d="M101.968 64.734C101.849 64.7358 101.732 64.7008 101.628 64.6322L97.9971 62.2918C97.9054 62.2425 97.8229 62.1704 97.7548 62.08C97.6867 61.9897 97.6344 61.883 97.6013 61.7667C97.5681 61.6504 97.5547 61.527 97.562 61.404C97.5692 61.281 97.597 61.1612 97.6435 61.0521C97.69 60.9429 97.7542 60.8467 97.8322 60.7694C97.9102 60.6922 98.0003 60.6356 98.0969 60.6031C98.1934 60.5706 98.2944 60.5629 98.3934 60.5805C98.4925 60.5982 98.5876 60.6408 98.6727 60.7057L102.303 63.0401C102.448 63.1329 102.563 63.2827 102.63 63.4656C102.697 63.6484 102.713 63.8538 102.674 64.0488C102.636 64.2439 102.545 64.4173 102.417 64.5415C102.289 64.6657 102.131 64.7335 101.968 64.734V64.734Z" fill="#ED8D34"/>
<path d="M103.266 52.5173C103.149 52.5156 103.034 52.4808 102.93 52.4155L99.2997 50.0752C99.2149 50.0205 99.1395 49.9459 99.0781 49.8554C99.0166 49.7649 98.9703 49.6604 98.9416 49.5478C98.913 49.4353 98.9026 49.3169 98.9111 49.1994C98.9196 49.0819 98.9468 48.9676 98.9911 48.8631C99.0355 48.7585 99.0961 48.6658 99.1696 48.5901C99.2431 48.5144 99.3279 48.4573 99.4193 48.422C99.5107 48.3867 99.6068 48.3739 99.7022 48.3844C99.7976 48.3949 99.8904 48.4284 99.9753 48.483L103.606 50.8234C103.751 50.9164 103.866 51.0668 103.933 51.2502C104 51.4337 104.016 51.6397 103.976 51.8351C103.937 52.0304 103.846 52.2039 103.717 52.3276C103.588 52.4514 103.429 52.5182 103.266 52.5173V52.5173Z" fill="#ED8D34"/>
<path opacity="0.3" d="M128.664 101.156C128.193 101.157 127.73 101.017 127.313 100.749L123.221 98.1156C121.787 97.2114 120.182 96.798 118.574 96.9185C114.24 97.2178 109.921 96.0679 106.075 93.5905L92.4666 84.8275C91.3008 84.0929 90.3843 82.8732 89.8798 81.385C89.3753 79.8968 89.3154 78.2365 89.7109 76.6991C89.9606 75.7819 90.3695 74.9427 90.9092 74.2398C91.4489 73.5369 92.1063 72.9872 92.8359 72.6289C93.0335 72.5281 93.2365 72.4441 93.4434 72.3775C92.3072 71.5386 91.4535 70.225 91.0378 68.6759C90.6221 67.1268 90.6721 65.4453 91.1787 63.9378C91.4724 63.0929 91.9066 62.3331 92.4532 61.7074C92.9998 61.0816 93.6467 60.6037 94.3522 60.3045C94.4835 60.2506 94.6147 60.1967 94.7459 60.1548C93.6089 59.3169 92.7546 58.0033 92.3388 56.4539C91.923 54.9044 91.9735 53.2225 92.4811 51.7151C92.7755 50.8714 93.2099 50.1128 93.7564 49.4881C94.303 48.8634 94.9496 48.3865 95.6547 48.0879C95.7762 48.034 95.9026 47.9861 96.0241 47.9442L85.4487 41.1326C84.283 40.398 83.3665 39.1782 82.8619 37.69C82.3574 36.2018 82.2976 34.5415 82.6931 33.0041C82.9448 32.0894 83.3539 31.2525 83.8926 30.5506C84.4313 29.8487 85.0867 29.2984 85.8141 28.9375C86.5415 28.5766 87.3236 28.4134 88.1069 28.4593C88.8902 28.5052 89.6562 28.759 90.3525 29.2033L118.098 47.0883L115.479 33.878C115.143 32.137 115.356 30.3038 116.075 28.7488C116.794 27.1938 117.966 26.0331 119.353 25.501C120.74 24.969 122.24 25.1053 123.549 25.8826C124.858 26.6598 125.878 28.0199 126.404 29.6881L135.968 60.2865C136.724 62.6989 138.166 64.6903 140.027 65.8891L141.689 66.9605C142.029 67.1788 142.331 67.4778 142.577 67.8401C142.823 68.2025 143.009 68.6211 143.124 69.0721C143.239 69.523 143.28 69.9974 143.245 70.4681C143.211 70.9388 143.101 71.3964 142.923 71.8148L131.259 99.2648C131.008 99.8414 130.633 100.322 130.175 100.656C129.718 100.989 129.195 101.162 128.664 101.156V101.156ZM119.124 95.1168C120.783 95.1057 122.42 95.5882 123.896 96.5234L127.988 99.1571C128.159 99.2683 128.345 99.3369 128.537 99.3589C128.729 99.3808 128.922 99.3557 129.106 99.2851C129.29 99.2144 129.461 99.0995 129.608 98.947C129.756 98.7946 129.878 98.6076 129.966 98.3969L141.63 70.9469C141.72 70.7372 141.775 70.5078 141.792 70.2719C141.809 70.036 141.788 69.7983 141.73 69.5724C141.672 69.3465 141.579 69.1369 141.455 68.9558C141.331 68.7746 141.179 68.6254 141.008 68.5167L139.346 67.4453C137.179 66.0458 135.5 63.7223 134.622 60.909L125.053 30.3106C124.669 29.0504 123.907 28.0192 122.925 27.4288C121.943 26.8383 120.814 26.7334 119.771 27.1356C118.728 27.5377 117.85 28.4165 117.316 29.5913C116.783 30.7662 116.635 32.148 116.903 33.453L119.906 48.5906C119.939 48.7576 119.933 48.9329 119.887 49.0954C119.841 49.2579 119.759 49.4006 119.649 49.5065C119.539 49.6145 119.406 49.6806 119.266 49.6965C119.126 49.7125 118.985 49.6776 118.861 49.5962L89.7012 30.8194C89.193 30.494 88.6336 30.3078 88.0615 30.2737C87.4894 30.2396 86.918 30.3584 86.3867 30.6219C85.8486 30.88 85.364 31.2826 84.9681 31.8003C84.5721 32.3179 84.2748 32.9378 84.0976 33.6147C83.8073 34.7498 83.8542 35.9752 84.23 37.0717C84.6057 38.1682 85.2857 39.0644 86.1486 39.6003L99.9996 48.5188C100.171 48.6291 100.3 48.8188 100.358 49.0461C100.416 49.2735 100.398 49.5198 100.308 49.7309C100.264 49.8355 100.203 49.9282 100.13 50.0039C100.056 50.0796 99.9714 50.1367 99.88 50.172C99.6954 50.2433 99.4954 50.2213 99.324 50.111C98.8405 49.8019 98.3106 49.6186 97.7672 49.5722C97.2238 49.5259 96.6785 49.6176 96.165 49.8416C95.6494 50.0604 95.1765 50.4092 94.7765 50.8658C94.3765 51.3224 94.0582 51.8766 93.8419 52.4933C93.4551 53.663 93.4403 54.9693 93.8006 56.1519C94.1609 57.3344 94.8698 58.3063 95.7859 58.8739L98.7019 60.7414C98.8587 60.8609 98.9729 61.0492 99.0215 61.2682C99.0701 61.4873 99.0495 61.7209 98.9639 61.922C98.8783 62.1231 98.7339 62.2767 98.56 62.352C98.386 62.4273 98.1953 62.4186 98.0264 62.3276V62.3276C97.5435 62.0198 97.0145 61.837 96.472 61.7907C95.9295 61.7444 95.3851 61.8354 94.8723 62.0583C94.3565 62.2784 93.8835 62.6283 93.4836 63.0859C93.0836 63.5434 92.7654 64.0985 92.5492 64.7159C92.1637 65.8849 92.1497 67.1898 92.51 68.371C92.8702 69.5522 93.5782 70.5231 94.4932 71.0906L97.4092 72.9581C97.5806 73.0684 97.7094 73.2581 97.7673 73.4854C97.8252 73.7127 97.8074 73.959 97.7178 74.1701C97.6282 74.3813 97.4742 74.5399 97.2896 74.6112C97.1051 74.6825 96.9051 74.6606 96.7336 74.5502V74.5502C96.2247 74.2273 95.6652 74.043 95.0933 74.01C94.5214 73.9769 93.9504 74.0959 93.4191 74.3587C92.883 74.6198 92.4003 75.0234 92.0055 75.5408C91.6107 76.0581 91.3134 76.6764 91.1349 77.3515V77.3515C90.8436 78.4866 90.89 79.7124 91.2658 80.8092C91.6416 81.906 92.3223 82.8022 93.1858 83.3371L106.794 92.1C110.399 94.3956 114.44 95.4561 118.492 95.1707C118.706 95.1707 118.915 95.1288 119.124 95.1288V95.1168Z" fill="black"/>
</svg>
