<svg width="287" height="223" viewBox="0 0 287 223" fill="none" xmlns="http://www.w3.org/2000/svg">
<path d="M287 195.969H0V196.118H287V195.969Z" fill="#E6E6E6"/>
<path d="M60.8386 203.067H29.6475V203.217H60.8386V203.067Z" fill="#E6E6E6"/>
<path d="M144.074 199.817H132.33V199.967H144.074V199.817Z" fill="#E6E6E6"/>
<path d="M104.055 199.817H86.8691V199.967H104.055V199.817Z" fill="#E6E6E6"/>
<path d="M246.194 201.541H209.837V201.691H246.194V201.541Z" fill="#E6E6E6"/>
<path d="M137.312 201.541H129.11V201.691H137.312V201.541Z" fill="#E6E6E6"/>
<path d="M74.0455 203.067H66.394V203.217H74.0455V203.067Z" fill="#E6E6E6"/>
<path d="M255.769 201.541H250.884V201.691H255.769V201.541Z" fill="#E6E6E6"/>
<path d="M136.038 169.273H25.2044C24.3362 169.271 23.504 168.911 22.8906 168.27C22.2771 167.629 21.9326 166.761 21.9326 165.855V3.38785C21.9402 2.48763 22.288 1.62688 22.9006 0.992545C23.5132 0.358214 24.3411 0.00154212 25.2044 0H136.038C136.907 0 137.741 0.360087 138.356 1.00105C138.97 1.642 139.316 2.51133 139.316 3.41778V165.855C139.316 166.762 138.97 167.631 138.356 168.272C137.741 168.913 136.907 169.273 136.038 169.273ZM25.2044 0.119713C24.3742 0.121298 23.5785 0.466318 22.992 1.07904C22.4055 1.69177 22.0761 2.52213 22.0761 3.38785V165.855C22.0761 166.721 22.4055 167.551 22.992 168.164C23.5785 168.777 24.3742 169.122 25.2044 169.123H136.038C136.869 169.122 137.665 168.777 138.253 168.164C138.84 167.552 139.171 166.722 139.172 165.855V3.38785C139.171 2.52158 138.84 1.69123 138.253 1.07868C137.665 0.466123 136.869 0.121295 136.038 0.119713H25.2044Z" fill="#E6E6E6"/>
<path d="M260.2 169.273H149.361C148.492 169.271 147.659 168.911 147.045 168.27C146.43 167.63 146.085 166.761 146.083 165.855V3.38785C146.092 2.48709 146.441 1.62634 147.055 0.99217C147.668 0.358004 148.497 0.00152531 149.361 0H260.2C261.062 0.00311521 261.889 0.360483 262.5 0.994645C263.111 1.62881 263.458 2.48867 263.466 3.38785V165.855C263.466 166.76 263.122 167.627 262.51 168.268C261.898 168.908 261.067 169.27 260.2 169.273ZM149.361 0.119713C148.53 0.121295 147.734 0.466123 147.146 1.07868C146.559 1.69123 146.228 2.52158 146.227 3.38785V165.855C146.228 166.722 146.559 167.552 147.146 168.164C147.734 168.777 148.53 169.122 149.361 169.123H260.2C261.031 169.122 261.827 168.777 262.414 168.164C263.002 167.552 263.332 166.722 263.334 165.855V3.38785C263.332 2.52158 263.002 1.69123 262.414 1.07868C261.827 0.466123 261.031 0.121295 260.2 0.119713H149.361Z" fill="#E6E6E6"/>
<path d="M236.58 18.292H108.641V95.8415H236.58V18.292Z" fill="#E6E6E6"/>
<path d="M238.307 18.292H110.368V95.8415H238.307V18.292Z" fill="#F5F5F5"/>
<path d="M235.203 92.2027V21.9316L113.474 21.9316V92.2027L235.203 92.2027Z" fill="white"/>
<path d="M235.208 92.2027V21.9316H233.899V92.2027H235.208Z" fill="#E6E6E6"/>
<path d="M237.028 70.3613H111.655V75.2456H237.028V70.3613Z" fill="#F5F5F5"/>
<path d="M145.222 144.319H124.213V192.893H145.222V144.319Z" fill="#E6E6E6"/>
<path d="M220.727 192.892H128.244V195.968H220.727V192.892Z" fill="#E6E6E6"/>
<path d="M145.216 192.892H224.761V144.318H145.216V192.892Z" fill="#F5F5F5"/>
<path d="M153.482 166.227H216.507V150.299H153.482V166.227Z" fill="#E6E6E6"/>
<path d="M153.482 186.907H216.507V170.98H153.482V186.907Z" fill="#E6E6E6"/>
<path d="M194.443 157.17H175.547C175.036 157.17 174.623 157.601 174.623 158.134V158.391C174.623 158.923 175.036 159.355 175.547 159.355H194.443C194.953 159.355 195.367 158.923 195.367 158.391V158.134C195.367 157.601 194.953 157.17 194.443 157.17Z" fill="#F5F5F5"/>
<path d="M194.443 177.856H175.547C175.036 177.856 174.623 178.288 174.623 178.82V179.077C174.623 179.61 175.036 180.041 175.547 180.041H194.443C194.953 180.041 195.367 179.61 195.367 179.077V178.82C195.367 178.288 194.953 177.856 194.443 177.856Z" fill="#F5F5F5"/>
<path d="M82.3003 195.969H37.5455L31.375 41.1396H76.1298L82.3003 195.969Z" fill="#E6E6E6"/>
<path d="M88.7802 195.969H38.693L32.5225 41.1396H82.6097L88.7802 195.969Z" fill="#F5F5F5"/>
<path d="M43.6409 190.581L37.9009 46.5254H77.6561L83.4019 190.581H43.6409Z" fill="white"/>
<path d="M163.55 136.825C164.124 120.473 164.698 97.817 163.487 89.6167L161.506 88.0186C161.506 88.0186 161.937 89.5449 162.166 114.601C162.396 139.656 162.677 133.102 162.436 136.825H163.55Z" fill="#E0E0E0"/>
<path d="M167.235 82.6553C170.897 77.4777 178.606 73.7966 186.59 73.8145C189.724 73.8145 177.257 79.836 172.211 86.4741C168.291 91.6277 163.969 100.301 162.557 105.113C163.234 94.9856 163.59 87.8268 167.235 82.6553Z" fill="#E0E0E0"/>
<path d="M159.888 96.1414C156.524 90.7544 149.033 86.6063 141.066 86.1395C137.938 85.9539 150.044 92.7236 154.71 99.649C158.332 105.036 162.172 113.955 163.32 118.851C163.194 108.699 163.257 101.534 159.888 96.1414Z" fill="#E0E0E0"/>
<path d="M161.391 74.0117C158.326 67.7268 151.174 61.6634 143.397 59.1973C140.337 58.2276 153.005 69.289 156.627 77.7527C159.44 84.3369 162.849 92.609 163.745 97.8344C164.078 87.5272 164.451 80.3026 161.391 74.0117Z" fill="#E0E0E0"/>
<path d="M162.809 144.319C164.673 144.318 166.466 143.574 167.82 142.238C169.173 140.902 169.985 139.076 170.088 137.136L170.731 125.464H154.888L155.537 137.136C155.638 139.076 156.448 140.902 157.801 142.238C159.154 143.574 160.946 144.318 162.809 144.319Z" fill="#F0F0F0"/>
<path d="M153.867 128.128H171.758L172.269 123.285H153.35L153.867 128.128Z" fill="#EBEBEB"/>
<path d="M229.927 47.9805H241.774V14.4611H229.927V47.9805Z" fill="#E6E6E6"/>
<path d="M229.928 14.4668H224.056V45.2927H229.928V14.4668Z" fill="#F5F5F5"/>
<path d="M212.208 47.9805H224.056V14.4611H212.208V47.9805Z" fill="#E6E6E6"/>
<path d="M212.208 14.4668H206.336V45.2927H212.208V14.4668Z" fill="#F5F5F5"/>
<path d="M194.489 47.9805H206.336V14.4611H194.489V47.9805Z" fill="#E6E6E6"/>
<path d="M194.489 14.4668H188.617V45.2927H194.489V14.4668Z" fill="#F5F5F5"/>
<path d="M176.764 47.9805H188.611V14.4611H176.764V47.9805Z" fill="#E6E6E6"/>
<path d="M176.763 14.4668H170.891V45.2927H176.763V14.4668Z" fill="#F5F5F5"/>
<path d="M159.05 47.9805H170.897V14.4611H159.05V47.9805Z" fill="#E6E6E6"/>
<path d="M159.044 14.4668H153.172V45.2927H159.044V14.4668Z" fill="#F5F5F5"/>
<path d="M141.325 47.9805H153.172V14.4611H141.325V47.9805Z" fill="#E6E6E6"/>
<path d="M141.325 14.4668H135.453V45.2927H141.325V14.4668Z" fill="#F5F5F5"/>
<path d="M123.605 47.9805H135.453V14.4611H123.605V47.9805Z" fill="#E6E6E6"/>
<path d="M123.605 14.4668H117.733V45.2927H123.605V14.4668Z" fill="#F5F5F5"/>
<path d="M105.886 47.9805H117.733V14.4611H105.886V47.9805Z" fill="#E6E6E6"/>
<path d="M143.5 223.001C204.966 223.001 254.793 219.967 254.793 216.225C254.793 212.483 204.966 209.449 143.5 209.449C82.035 209.449 32.2075 212.483 32.2075 216.225C32.2075 219.967 82.035 223.001 143.5 223.001Z" fill="#F5F5F5"/>
<path d="M202.289 98.4818L204.728 102.372L208.356 101.588L205.618 96.752L202.289 98.4818Z" fill="#9F5B53"/>
<path d="M209.205 65.1357C209.721 65.7882 210.152 66.3688 210.594 67.0032C211.036 67.6377 211.461 68.2483 211.88 68.8827C212.718 70.1457 213.515 71.4446 214.262 72.7794C215.008 74.1141 215.731 75.4789 216.363 76.9094C216.701 77.6098 216.988 78.352 217.298 79.0762C217.608 79.8005 217.872 80.5606 218.096 81.3448L218.28 81.9433L218.372 82.2366C218.423 82.4102 218.475 82.5958 218.509 82.7693C218.636 83.3906 218.678 84.0273 218.636 84.6608C218.56 85.6533 218.353 86.6302 218.021 87.5638C217.46 89.1197 216.74 90.6086 215.875 92.0051C214.263 94.5975 212.392 97.0051 210.295 99.1879L207.787 97.1408C209.166 94.6862 210.427 92.1611 211.564 89.575C212.086 88.3944 212.503 87.1661 212.809 85.9058C212.924 85.4325 212.976 84.9452 212.964 84.4573C212.964 84.354 212.942 84.252 212.901 84.158L212.809 83.9306L212.62 83.4756C211.545 80.9576 210.279 78.5336 208.832 76.2271C208.108 75.03 207.345 73.8747 206.576 72.7075C205.807 71.5403 204.969 70.3731 204.211 69.3137L209.205 65.1357Z" fill="#9F5B53"/>
<path d="M207.787 62.1905C211.742 63.1362 216.277 74.3712 216.277 74.3712L208.361 80.0456C206.385 77.0928 204.631 73.985 203.115 70.7499C200.767 65.6083 203.769 61.2268 207.787 62.1905Z" fill="#8937C7"/>
<path opacity="0.8" d="M207.787 62.1905C211.742 63.1362 216.277 74.3712 216.277 74.3712L208.361 80.0456C206.385 77.0928 204.631 73.985 203.115 70.7499C200.767 65.6083 203.769 61.2268 207.787 62.1905Z" fill="white"/>
<path d="M204.975 69.3555L208.729 79.7764L208.355 80.0458C208.355 80.0458 206.731 77.6515 204.975 74.4612V69.3555Z" fill="#8937C7"/>
<path opacity="0.6" d="M204.975 69.3555L208.729 79.7764L208.355 80.0458C208.355 80.0458 206.731 77.6515 204.975 74.4612V69.3555Z" fill="white"/>
<path d="M194.952 212.274H190.733L190.314 202.093H194.533L194.952 212.274Z" fill="#9F5B53"/>
<path d="M220.272 212.274H216.053L213.935 202.093H218.148L220.272 212.274Z" fill="#9F5B53"/>
<path d="M190.314 202.099L190.533 207.342H194.751L194.533 202.099H190.314Z" fill="#8A4743"/>
<path d="M218.154 202.099H213.935L215.026 207.342H219.245L218.154 202.099Z" fill="#8A4743"/>
<path d="M191.934 100.427C191.934 100.427 196.721 134.03 199.344 146.618C202.214 160.385 213.063 206.331 213.063 206.331H220.789C220.789 206.331 213.637 161.516 211.995 147.845C210.216 133.031 206.491 100.403 206.491 100.403L191.934 100.427Z" fill="#8937C7"/>
<path opacity="0.5" d="M191.934 100.427C191.934 100.427 196.721 134.03 199.344 146.618C202.214 160.385 213.063 206.331 213.063 206.331H220.789C220.789 206.331 213.637 161.516 211.995 147.845C210.216 133.031 206.491 100.403 206.491 100.403L191.934 100.427Z" fill="black"/>
<path opacity="0.4" d="M194.958 112.399C200.492 113.53 199.906 135.048 199.24 146.116C197.645 138.292 195.309 123.239 193.713 112.554C194.099 112.356 194.538 112.301 194.958 112.399Z" fill="black"/>
<path d="M183.932 100.428C183.932 100.428 183.358 133.301 183.812 146.714C184.288 160.661 188.978 206.331 188.978 206.331H196.118C196.118 206.331 196.382 161.475 196.692 147.78C197.037 132.846 198.764 100.428 198.764 100.428H183.932Z" fill="#8937C7"/>
<path opacity="0.5" d="M183.932 100.428C183.932 100.428 183.358 133.301 183.812 146.714C184.288 160.661 188.978 206.331 188.978 206.331H196.118C196.118 206.331 196.382 161.475 196.692 147.78C197.037 132.846 198.764 100.428 198.764 100.428H183.932Z" fill="black"/>
<path d="M208.7 96.2021L205.618 96.7528L208.356 101.589C208.356 101.589 210.502 100.512 210.893 98.4228L208.7 96.2021Z" fill="#9F5B53"/>
<path d="M188.328 45.8514C188.328 46.2046 188.151 46.4919 187.927 46.4919C187.703 46.4919 187.525 46.2046 187.525 45.8514C187.525 45.4983 187.703 45.2109 187.927 45.2109C188.151 45.2109 188.328 45.4923 188.328 45.8514Z" fill="#263238"/>
<path d="M188.18 46.4912C187.773 47.5753 187.227 48.5963 186.555 49.5259C186.787 49.6991 187.053 49.8173 187.334 49.8721C187.614 49.9269 187.903 49.917 188.18 49.8432V46.4912Z" fill="#892B29"/>
<path d="M189.534 43.8881C189.492 43.8886 189.452 43.8738 189.419 43.8462C189.22 43.6862 188.986 43.5783 188.739 43.5314C188.491 43.4845 188.236 43.5001 187.996 43.5768C187.972 43.5864 187.946 43.5909 187.92 43.59C187.894 43.5892 187.869 43.583 187.845 43.5719C187.822 43.5608 187.801 43.5449 187.783 43.5252C187.766 43.5055 187.752 43.4823 187.743 43.4571C187.733 43.432 187.728 43.405 187.728 43.3777C187.728 43.3505 187.733 43.3235 187.743 43.2983C187.753 43.2732 187.768 43.2505 187.787 43.2315C187.806 43.2125 187.828 43.1976 187.852 43.1877C188.154 43.0861 188.476 43.0624 188.789 43.1187C189.102 43.175 189.397 43.3096 189.649 43.511C189.671 43.5259 189.69 43.5454 189.704 43.5684C189.718 43.5913 189.728 43.6171 189.732 43.6441C189.737 43.6711 189.736 43.6988 189.729 43.7253C189.723 43.7519 189.711 43.7767 189.695 43.7983C189.678 43.8265 189.654 43.8497 189.626 43.8654C189.598 43.8812 189.566 43.889 189.534 43.8881Z" fill="#263238"/>
<path d="M199.309 49.9395C198.701 53.1597 198.098 59.0496 200.256 61.1984C200.256 61.1984 199.412 64.4605 193.678 64.4605C187.364 64.4605 190.67 61.1984 190.67 61.1984C194.114 60.3425 194.023 57.6789 193.42 55.1829L199.309 49.9395Z" fill="#9F5B53"/>
<path d="M201.083 62.3174C201.537 61.2878 202.03 60.1027 201.003 59.7316C199.855 59.3246 193.673 58.9116 191.538 59.6717C191.256 59.7531 190.993 59.892 190.763 60.0803C190.533 60.2686 190.341 60.5026 190.199 60.7687C190.056 61.0348 189.966 61.3277 189.932 61.6305C189.899 61.9334 189.924 62.2401 190.005 62.5329L201.083 62.3174Z" fill="#8937C7"/>
<path d="M214.359 212.49C214.181 212.514 214 212.502 213.827 212.452C213.653 212.403 213.491 212.318 213.349 212.202C213.298 212.13 213.271 212.043 213.271 211.954C213.271 211.865 213.298 211.778 213.349 211.706C213.381 211.644 213.425 211.59 213.478 211.547C213.532 211.505 213.594 211.475 213.659 211.46C214.279 211.316 215.439 212.142 215.49 212.178C215.506 212.191 215.518 212.207 215.525 212.226C215.532 212.245 215.534 212.266 215.53 212.286C215.527 212.306 215.518 212.323 215.505 212.337C215.492 212.351 215.474 212.361 215.456 212.364C215.095 212.445 214.728 212.487 214.359 212.49ZM213.837 211.652H213.711C213.672 211.66 213.635 211.677 213.604 211.702C213.572 211.727 213.546 211.759 213.527 211.795C213.435 211.963 213.493 212.035 213.527 212.059C213.705 212.31 214.566 212.31 215.198 212.202C214.788 211.919 214.323 211.735 213.837 211.664V211.652Z" fill="#8937C7"/>
<path d="M215.438 212.382H215.392C214.956 212.131 214.112 211.185 214.199 210.682C214.213 210.604 214.253 210.535 214.312 210.484C214.37 210.434 214.444 210.407 214.52 210.407C214.596 210.398 214.672 210.406 214.745 210.428C214.818 210.451 214.886 210.488 214.945 210.538C215.433 210.957 215.519 212.226 215.519 212.28C215.521 212.299 215.518 212.318 215.51 212.335C215.502 212.353 215.489 212.367 215.473 212.376C215.462 212.381 215.45 212.383 215.438 212.382ZM214.589 210.586H214.543C214.411 210.586 214.399 210.67 214.394 210.694C214.342 210.987 214.882 211.712 215.312 212.053C215.282 211.553 215.11 211.074 214.818 210.676C214.752 210.624 214.672 210.597 214.589 210.598V210.586Z" fill="#8937C7"/>
<path d="M189.041 212.489C188.501 212.489 187.979 212.411 187.801 212.16C187.757 212.093 187.733 212.014 187.733 211.933C187.733 211.851 187.757 211.772 187.801 211.705C187.834 211.643 187.879 211.59 187.933 211.547C187.988 211.505 188.05 211.475 188.116 211.46C188.811 211.262 190.292 212.136 190.355 212.172C190.372 212.183 190.385 212.2 190.393 212.219C190.402 212.238 190.404 212.259 190.401 212.28C190.399 212.301 190.389 212.321 190.375 212.336C190.36 212.351 190.341 212.361 190.321 212.364C189.899 212.447 189.47 212.489 189.041 212.489ZM188.369 211.639C188.306 211.63 188.242 211.63 188.18 211.639C188.139 211.648 188.101 211.665 188.067 211.689C188.034 211.714 188.005 211.746 187.984 211.783C187.916 211.915 187.939 211.974 187.984 212.01C188.18 212.286 189.241 212.304 190.034 212.19C189.518 211.899 188.952 211.716 188.369 211.651V211.639Z" fill="#8937C7"/>
<path d="M190.314 212.382H190.274C189.763 212.149 188.759 211.185 188.834 210.7C188.834 210.58 188.931 210.437 189.207 210.407C189.309 210.39 189.414 210.398 189.513 210.429C189.612 210.46 189.704 210.514 189.781 210.586C190.32 211.041 190.429 212.226 190.435 212.28C190.437 212.298 190.435 212.317 190.428 212.334C190.421 212.351 190.409 212.365 190.395 212.376C190.383 212.383 190.369 212.387 190.355 212.388C190.341 212.389 190.327 212.387 190.314 212.382ZM189.287 210.586H189.224C189.046 210.586 189.034 210.682 189.029 210.706C188.983 211.005 189.672 211.753 190.177 212.077C190.127 211.574 189.926 211.1 189.603 210.724C189.515 210.645 189.403 210.601 189.287 210.598V210.586Z" fill="#8937C7"/>
<path d="M215.755 211.765H220.491C220.575 211.765 220.657 211.796 220.723 211.851C220.788 211.907 220.834 211.984 220.852 212.07L221.685 215.979C221.704 216.074 221.702 216.172 221.679 216.266C221.657 216.361 221.614 216.449 221.555 216.523C221.495 216.598 221.42 216.658 221.335 216.698C221.25 216.739 221.158 216.759 221.065 216.757C219.412 216.727 218.608 216.625 216.524 216.625C215.244 216.625 212.604 216.769 210.83 216.769C209.057 216.769 208.833 214.973 209.556 214.775C212.805 214.033 214.028 213.01 215.072 212.04C215.258 211.861 215.502 211.763 215.755 211.765Z" fill="#263238"/>
<path d="M190.762 211.766H195.354C195.439 211.766 195.52 211.797 195.586 211.852C195.652 211.908 195.697 211.985 195.716 212.071L196.548 215.979C196.568 216.074 196.567 216.172 196.546 216.265C196.524 216.359 196.483 216.447 196.424 216.522C196.366 216.597 196.292 216.657 196.208 216.698C196.124 216.738 196.032 216.759 195.939 216.758C194.281 216.728 191.881 216.626 189.792 216.626C187.352 216.626 185.24 216.77 182.376 216.77C180.654 216.77 180.166 214.974 180.889 214.776C184.19 214.022 186.882 213.944 189.735 212.113C190.038 211.897 190.395 211.777 190.762 211.766Z" fill="#263238"/>
<path d="M184.741 71.1873C183.071 73.7611 181.343 76.1614 179.478 78.5436C177.614 80.9503 175.621 83.2445 173.508 85.4151L172.682 86.2292L172.469 86.4327L172.326 86.5703L172.113 86.7619C171.841 86.9859 171.551 87.1861 171.247 87.3604C170.278 87.8919 169.211 88.2021 168.118 88.2703C166.45 88.3785 164.776 88.2354 163.147 87.8453C160.196 87.1636 157.335 86.1146 154.624 84.7208L155.674 81.6083C158.364 82.1663 161.084 82.5521 163.819 82.7635C165.02 82.8655 166.229 82.8132 167.418 82.6079C167.759 82.5564 168.085 82.4254 168.371 82.2248V82.1829L168.411 82.135L168.583 81.9375L169.261 81.1593C171.057 79.0225 172.796 76.7539 174.484 74.4255C176.171 72.0971 177.859 69.7268 179.472 67.3984L184.741 71.1873Z" fill="#9F5B53"/>
<path d="M186.687 71.876C186.1 75.5894 184.561 79.0681 182.233 81.9438C182.141 79.8368 182.107 77.9454 182.112 76.2515L186.687 71.876Z" fill="#BED3FC"/>
<path d="M199.671 45.0964C199.418 49.4539 199.482 52.0158 197.375 54.2544C194.201 57.6183 189.046 55.6191 188.048 51.2616C187.152 47.347 187.72 40.8825 191.813 39.1467C192.713 38.761 193.693 38.6218 194.659 38.7423C195.626 38.8629 196.546 39.2392 197.334 39.8354C198.121 40.4317 198.749 41.2281 199.159 42.1489C199.568 43.0698 199.744 44.0844 199.671 45.0964Z" fill="#9F5B53"/>
<path d="M191.554 42.1994C191.589 47.3231 193.185 53.608 197.937 53.171C201.094 52.8837 203.494 46.8801 203.821 44.3362C204.32 40.4456 204.395 39.7034 202.294 39.2545C203.212 38.7337 203.545 36.2617 201.399 35.6631C198.414 34.8431 192.789 34.041 194.557 32.1436C191.032 32.808 190.148 34.2804 190.791 36.0701C188.73 35.9025 187.462 34.7772 187.525 33.0773C184.11 34.5198 181.894 42.6782 191.554 42.1994Z" fill="#263238"/>
<path d="M194.011 46.365C193.779 47.4217 193.218 48.3686 192.416 49.0585C191.354 49.9564 190.504 49.1543 190.527 47.8614C190.527 46.6942 191.136 44.8207 192.33 44.4257C193.524 44.0306 194.304 45.0901 194.011 46.365Z" fill="#9F5B53"/>
<path d="M205.491 40.1469C204.929 39.7738 204.287 39.5523 203.623 39.5021C202.958 39.452 202.293 39.5748 201.685 39.8596C201.685 39.8596 204.073 36.5136 205.491 40.1469Z" fill="#263238"/>
<path d="M211.806 203.361C211.771 203.361 212.604 206.456 212.604 206.456H221.294L221.133 203.697L211.806 203.361Z" fill="#8937C7"/>
<path d="M187.588 203.361C187.554 203.361 187.99 206.456 187.99 206.456H196.681L196.916 203.697L187.588 203.361Z" fill="#8937C7"/>
<path d="M190.447 200.98C190.43 200.98 190.413 200.973 190.4 200.961C190.387 200.949 190.379 200.932 190.378 200.914C189.115 188.273 186.148 157.686 185.786 146.714C185.401 135.515 185.752 110.388 185.866 102.954C185.866 102.912 185.901 102.888 185.941 102.882C185.959 102.883 185.976 102.891 185.988 102.904C186.001 102.918 186.008 102.935 186.01 102.954C185.895 110.388 185.545 135.515 185.929 146.708C186.303 157.68 189.27 188.255 190.521 200.896C190.522 200.916 190.515 200.936 190.502 200.952C190.489 200.967 190.472 200.977 190.453 200.98H190.447Z" fill="#8937C7"/>
<path opacity="0.3" d="M190.447 200.98C190.43 200.98 190.413 200.973 190.4 200.961C190.387 200.949 190.379 200.932 190.378 200.914C189.115 188.273 186.148 157.686 185.786 146.714C185.401 135.515 185.752 110.388 185.866 102.954C185.866 102.912 185.901 102.888 185.941 102.882C185.959 102.883 185.976 102.891 185.988 102.904C186.001 102.918 186.008 102.935 186.01 102.954C185.895 110.388 185.545 135.515 185.929 146.708C186.303 157.68 189.27 188.255 190.521 200.896C190.522 200.916 190.515 200.936 190.502 200.952C190.489 200.967 190.472 200.977 190.453 200.98H190.447Z" fill="black"/>
<path d="M188.633 65.9807C189.207 70.1707 181.32 80.7832 181.32 80.7832L173.417 75.1088C173.417 75.1088 175.609 69.2489 179.3 65.4061C183.513 61.0546 188.025 61.4496 188.633 65.9807Z" fill="#8937C7"/>
<path opacity="0.8" d="M188.633 65.9807C189.207 70.1707 181.32 80.7832 181.32 80.7832L173.417 75.1088C173.417 75.1088 175.609 69.2489 179.3 65.4061C183.513 61.0546 188.025 61.4496 188.633 65.9807Z" fill="white"/>
<path d="M184.184 62.4185C184.184 62.4185 179.696 67.7038 183.932 100.427H206.49C206.645 96.8358 204.469 79.2022 207.804 62.1911C205.312 61.6905 202.79 61.3586 200.256 61.1975C197.064 61.0058 193.863 61.0058 190.67 61.1975C188.481 61.4275 186.312 61.8357 184.184 62.4185Z" fill="#8937C7"/>
<path opacity="0.8" d="M184.184 62.4185C184.184 62.4185 179.696 67.7038 183.932 100.427H206.49C206.645 96.8358 204.469 79.2022 207.804 62.1911C205.312 61.6905 202.79 61.3586 200.256 61.1975C197.064 61.0058 193.863 61.0058 190.67 61.1975C188.481 61.4275 186.312 61.8357 184.184 62.4185Z" fill="white"/>
<path d="M117.819 38.3944C119.62 30.119 114.647 21.8876 106.712 20.009C98.7759 18.1305 90.8823 23.316 89.0808 31.5914C87.2793 39.8667 92.2521 48.0981 100.188 49.9767C108.124 51.8553 116.017 46.6697 117.819 38.3944Z" fill="#8937C7"/>
<path opacity="0.2" d="M117.819 38.3944C119.62 30.119 114.647 21.8876 106.712 20.009C98.7759 18.1305 90.8823 23.316 89.0808 31.5914C87.2793 39.8667 92.2521 48.0981 100.188 49.9767C108.124 51.8553 116.017 46.6697 117.819 38.3944Z" fill="white"/>
<path d="M101.937 54.918C98.1255 54.6111 94.4907 53.1174 91.5032 50.6307C88.5157 48.144 86.3134 44.7789 85.1816 40.9716L85.7269 40.792C86.8255 44.4852 88.9625 47.7493 91.8608 50.1613C94.7592 52.5732 98.2855 54.0218 101.983 54.3195L101.937 54.918Z" fill="#8937C7"/>
<path opacity="0.2" d="M101.937 54.918C98.1255 54.6111 94.4907 53.1174 91.5032 50.6307C88.5157 48.144 86.3134 44.7789 85.1816 40.9716L85.7269 40.792C86.8255 44.4852 88.9625 47.7493 91.8608 50.1613C94.7592 52.5732 98.2855 54.0218 101.983 54.3195L101.937 54.918Z" fill="white"/>
<path d="M85.6468 29.4611L85.0728 29.2935C85.8126 26.7154 87.0443 24.3198 88.6939 22.2503C90.3436 20.1808 92.3771 18.4801 94.6725 17.2504C96.9679 16.0206 99.4779 15.287 102.052 15.0936C104.626 14.9003 107.211 15.2511 109.651 16.1252L109.468 16.6938C107.099 15.8468 104.59 15.5076 102.092 15.6965C99.5936 15.8854 97.1579 16.5985 94.9306 17.793C92.7034 18.9876 90.7304 20.6389 89.1302 22.6481C87.5299 24.6572 86.3353 26.9827 85.6181 29.485L85.6468 29.4611Z" fill="#8937C7"/>
<path opacity="0.2" d="M85.6468 29.4611L85.0728 29.2935C85.8126 26.7154 87.0443 24.3198 88.6939 22.2503C90.3436 20.1808 92.3771 18.4801 94.6725 17.2504C96.9679 16.0206 99.4779 15.287 102.052 15.0936C104.626 14.9003 107.211 15.2511 109.651 16.1252L109.468 16.6938C107.099 15.8468 104.59 15.5076 102.092 15.6965C99.5936 15.8854 97.1579 16.5985 94.9306 17.793C92.7034 18.9876 90.7304 20.6389 89.1302 22.6481C87.5299 24.6572 86.3353 26.9827 85.6181 29.485L85.6468 29.4611Z" fill="white"/>
<path d="M121.194 29.204C119.852 24.7288 116.996 20.9147 113.158 18.4718L113.457 17.957C117.409 20.4798 120.35 24.4121 121.734 29.0244L121.194 29.204Z" fill="#8937C7"/>
<path opacity="0.2" d="M121.194 29.204C119.852 24.7288 116.996 20.9147 113.158 18.4718L113.457 17.957C117.409 20.4798 120.35 24.4121 121.734 29.0244L121.194 29.204Z" fill="white"/>
<path d="M117.825 80.8074C119.627 72.5321 114.654 64.3007 106.718 62.4221C98.7822 60.5435 90.8886 65.7291 89.0871 74.0045C87.2856 82.2798 92.2584 90.5112 100.194 92.3898C108.13 94.2684 116.024 89.0828 117.825 80.8074Z" fill="#8937C7"/>
<path opacity="0.6" d="M117.825 80.8074C119.627 72.5321 114.654 64.3007 106.718 62.4221C98.7822 60.5435 90.8886 65.7291 89.0871 74.0045C87.2856 82.2798 92.2584 90.5112 100.194 92.3898C108.13 94.2684 116.024 89.0828 117.825 80.8074Z" fill="white"/>
<path d="M117.821 123.22C119.622 114.944 114.649 106.713 106.714 104.834C98.7778 102.956 90.8842 108.141 89.0827 116.417C87.2812 124.692 92.254 132.923 100.19 134.802C108.126 136.68 116.019 131.495 117.821 123.22Z" fill="#8937C7"/>
<path opacity="0.6" d="M117.821 123.22C119.622 114.944 114.649 106.713 106.714 104.834C98.7778 102.956 90.8842 108.141 89.0827 116.417C87.2812 124.692 92.254 132.923 100.19 134.802C108.126 136.68 116.019 131.495 117.821 123.22Z" fill="white"/>
<path d="M117.822 165.639C119.623 157.364 114.65 149.133 106.715 147.254C98.7788 145.376 90.8852 150.561 89.0837 158.836C87.2822 167.112 92.255 175.343 100.191 177.222C108.127 179.1 116.02 173.915 117.822 165.639Z" fill="#8937C7"/>
<path opacity="0.6" d="M117.822 165.639C119.623 157.364 114.65 149.133 106.715 147.254C98.7788 145.376 90.8852 150.561 89.0837 158.836C87.2822 167.112 92.255 175.343 100.191 177.222C108.127 179.1 116.02 173.915 117.822 165.639Z" fill="white"/>
<path d="M77.1469 38.3895C78.9484 30.1141 73.9756 21.8827 66.0398 20.0042C58.104 18.1256 50.2104 23.3112 48.4089 31.5865C46.6074 39.8618 51.5802 48.0932 59.516 49.9718C67.4517 51.8504 75.3453 46.6648 77.1469 38.3895Z" fill="#8937C7"/>
<path opacity="0.6" d="M77.1469 38.3895C78.9484 30.1141 73.9756 21.8827 66.0398 20.0042C58.104 18.1256 50.2104 23.3112 48.4089 31.5865C46.6074 39.8618 51.5802 48.0932 59.516 49.9718C67.4517 51.8504 75.3453 46.6648 77.1469 38.3895Z" fill="white"/>
<path d="M77.1537 80.8084C78.9552 72.5331 73.9824 64.3017 66.0466 62.4231C58.1109 60.5445 50.2172 65.7301 48.4157 74.0054C46.6142 82.2808 51.587 90.5122 59.5228 92.3907C67.4586 94.2693 75.3522 89.0838 77.1537 80.8084Z" fill="#8937C7"/>
<path opacity="0.6" d="M77.1537 80.8084C78.9552 72.5331 73.9824 64.3017 66.0466 62.4231C58.1109 60.5445 50.2172 65.7301 48.4157 74.0054C46.6142 82.2808 51.587 90.5122 59.5228 92.3907C67.4586 94.2693 75.3522 89.0838 77.1537 80.8084Z" fill="white"/>
<path d="M77.1488 123.221C78.9503 114.945 73.9775 106.714 66.0417 104.835C58.106 102.957 50.2123 108.142 48.4108 116.418C46.6093 124.693 51.5821 132.924 59.5179 134.803C67.4537 136.681 75.3473 131.496 77.1488 123.221Z" fill="#8937C7"/>
<path opacity="0.6" d="M77.1488 123.221C78.9503 114.945 73.9775 106.714 66.0417 104.835C58.106 102.957 50.2123 108.142 48.4108 116.418C46.6093 124.693 51.5821 132.924 59.5179 134.803C67.4537 136.681 75.3473 131.496 77.1488 123.221Z" fill="white"/>
<path d="M77.1498 165.635C78.9513 157.359 73.9785 149.128 66.0427 147.249C58.107 145.371 50.2133 150.556 48.4118 158.832C46.6103 167.107 51.5831 175.338 59.5189 177.217C67.4547 179.096 75.3483 173.91 77.1498 165.635Z" fill="#8937C7"/>
<path opacity="0.6" d="M77.1498 165.635C78.9513 157.359 73.9785 149.128 66.0427 147.249C58.107 145.371 50.2133 150.556 48.4118 158.832C46.6103 167.107 51.5831 175.338 59.5189 177.217C67.4547 179.096 75.3483 173.91 77.1498 165.635Z" fill="white"/>
<path d="M156.243 81.9308L153.149 78.5908L149.849 83.0321C149.849 83.0321 152.363 85.5581 155.353 84.8278L156.243 81.9308Z" fill="#9F5B53"/>
<path d="M148.896 76.7598L147.484 81.4166L149.849 83.0327L153.15 78.5914L148.896 76.7598Z" fill="#9F5B53"/>
<path d="M106.765 77.0106C107.021 76.2179 107.438 75.4923 107.989 74.8838C108.539 74.2753 109.209 73.7983 109.953 73.4855C110.697 73.1727 111.497 73.0315 112.298 73.0718C113.099 73.112 113.883 73.3326 114.594 73.7185L111.15 71.851C109.875 71.1792 108.89 70.0314 108.39 68.636C107.89 67.2406 107.912 65.7001 108.453 64.3211C108.758 63.5942 109.204 62.9403 109.761 62.3999C110.319 61.8595 110.977 61.4441 111.694 61.1793C112.412 60.9146 113.174 60.806 113.934 60.8605C114.693 60.9149 115.434 61.1312 116.11 61.4959L112.666 59.6344C111.389 58.9625 110.403 57.8136 109.903 56.4169C109.403 55.0201 109.426 53.4782 109.968 52.0985C110.273 51.3651 110.72 50.7054 111.281 50.1608C111.842 49.6162 112.505 49.1984 113.229 48.9337C113.952 48.669 114.72 48.563 115.485 48.6225C116.249 48.6819 116.993 48.9056 117.671 49.2793L101.318 40.3607C100.115 39.7336 99.1649 38.6802 98.639 37.3892C98.1131 36.0982 98.0453 34.6541 98.4478 33.3157C98.7052 32.5234 99.1237 31.7984 99.6747 31.1905C100.226 30.5825 100.896 30.1059 101.64 29.7933C102.384 29.4806 103.184 29.3394 103.986 29.3791C104.787 29.4189 105.571 29.6387 106.283 30.0236L140.723 48.8004L137.187 33.6688C136.839 32.1486 137.057 30.5473 137.796 29.188C138.536 27.8288 139.743 26.813 141.174 26.3457C142.604 25.8785 144.151 25.9945 145.502 26.6705C146.854 27.3465 147.909 28.532 148.455 29.9877L159.751 60.5861C160.718 63.2014 162.565 65.3606 164.946 66.6615L166.915 67.7329C167.216 67.8969 167.484 68.1215 167.702 68.3937C167.92 68.666 168.085 68.9805 168.186 69.3192C168.288 69.6579 168.324 70.0142 168.293 70.3675C168.262 70.7209 168.164 71.0643 168.005 71.3782L154.229 98.8222C153.91 99.4564 153.363 99.9328 152.708 100.147C152.053 100.361 151.343 100.296 150.733 99.9654L145.9 97.3317C144.07 96.3521 142.018 95.9094 139.965 96.0508C135.001 96.3401 130.054 95.2232 125.65 92.8186L109.578 84.0557C108.385 83.4187 107.448 82.361 106.933 81.0709C106.417 79.7809 106.358 78.342 106.765 77.0106Z" fill="#8937C7"/>
<path d="M151.961 101.156C151.406 101.157 150.858 101.017 150.366 100.749L145.533 98.1156C143.839 97.2114 141.944 96.798 140.045 96.9184C134.926 97.2178 129.825 96.0679 125.282 93.5905L109.21 84.8275C107.833 84.0929 106.751 82.8732 106.155 81.385C105.559 79.8968 105.488 78.2365 105.955 76.6991C106.25 75.7819 106.733 74.9427 107.37 74.2398C108.008 73.5369 108.784 72.9872 109.646 72.6288C109.879 72.5281 110.119 72.4441 110.364 72.3775C109.022 71.5386 108.013 70.225 107.522 68.6759C107.031 67.1268 107.09 65.4453 107.689 63.9378C108.036 63.0929 108.548 62.3331 109.194 61.7074C109.84 61.0816 110.604 60.6037 111.437 60.3045C111.592 60.2506 111.747 60.1967 111.902 60.1548C110.559 59.3169 109.55 58.0033 109.059 56.4539C108.568 54.9044 108.628 53.2225 109.227 51.7151C109.575 50.8714 110.088 50.1128 110.733 49.4881C111.379 48.8634 112.142 48.3865 112.975 48.0879C113.119 48.034 113.268 47.9861 113.411 47.9442L100.921 41.1326C99.5445 40.398 98.462 39.1782 97.8661 37.69C97.2702 36.2018 97.1996 34.5415 97.6667 33.0041C97.9639 32.0894 98.4472 31.2525 99.0834 30.5506C99.7196 29.8487 100.494 29.2984 101.353 28.9375C102.212 28.5766 103.136 28.4134 104.061 28.4593C104.986 28.5052 105.891 28.759 106.713 29.2033L139.483 47.0883L136.389 33.878C135.992 32.137 136.244 30.3038 137.093 28.7488C137.942 27.1938 139.326 26.0331 140.965 25.501C142.603 24.969 144.374 25.1053 145.92 25.8826C147.466 26.6598 148.671 28.0199 149.292 29.6881L160.589 60.2865C161.481 62.6989 163.185 64.6903 165.381 65.8891L167.345 66.9605C167.746 67.1788 168.103 67.4778 168.394 67.8401C168.685 68.2025 168.904 68.6211 169.04 69.0721C169.175 69.523 169.224 69.9974 169.183 70.4681C169.143 70.9388 169.013 71.3964 168.802 71.8148L155.026 99.2648C154.729 99.8414 154.287 100.322 153.747 100.656C153.206 100.989 152.589 101.162 151.961 101.156ZM140.694 95.1168C142.654 95.1057 144.587 95.5882 146.33 96.5234L151.163 99.1571C151.364 99.2683 151.585 99.3369 151.811 99.3589C152.038 99.3808 152.266 99.3557 152.484 99.2851C152.701 99.2144 152.902 99.0995 153.077 98.947C153.251 98.7946 153.395 98.6076 153.5 98.3969L167.276 70.9469C167.381 70.7372 167.446 70.5078 167.466 70.2719C167.486 70.036 167.462 69.7983 167.393 69.5724C167.325 69.3465 167.215 69.1369 167.068 68.9558C166.922 68.7746 166.743 68.6254 166.541 68.5167L164.578 67.4453C162.018 66.0458 160.035 63.7223 158.999 60.909L147.697 30.3106C147.243 29.0504 146.343 28.0192 145.183 27.4288C144.023 26.8383 142.691 26.7334 141.459 27.1356C140.227 27.5377 139.189 28.4165 138.559 29.5913C137.929 30.7662 137.754 32.148 138.071 33.453L141.618 48.5906C141.657 48.7576 141.649 48.9329 141.595 49.0954C141.541 49.2579 141.444 49.4006 141.314 49.5065C141.184 49.6145 141.027 49.6806 140.862 49.6965C140.696 49.7125 140.53 49.6776 140.384 49.5962L105.944 30.8194C105.344 30.494 104.683 30.3078 104.007 30.2737C103.331 30.2396 102.657 30.3584 102.029 30.6219C101.394 30.88 100.821 31.2826 100.354 31.8003C99.8859 32.3179 99.5347 32.9378 99.3255 33.6147C98.9827 34.7498 99.0381 35.9752 99.4818 37.0717C99.9255 38.1682 100.729 39.0644 101.748 39.6003L118.107 48.5188C118.309 48.6292 118.461 48.8188 118.53 49.0462C118.598 49.2735 118.577 49.5198 118.471 49.7309C118.419 49.8355 118.347 49.9282 118.261 50.0039C118.174 50.0796 118.074 50.1367 117.966 50.172C117.748 50.2433 117.511 50.2213 117.309 50.111C116.738 49.8019 116.112 49.6186 115.47 49.5722C114.828 49.5259 114.184 49.6176 113.578 49.8416C112.969 50.0604 112.41 50.4092 111.938 50.8658C111.466 51.3224 111.09 51.8766 110.834 52.4933C110.377 53.663 110.36 54.9693 110.785 56.1519C111.211 57.3344 112.048 58.3063 113.13 58.8739L116.574 60.7414C116.759 60.8609 116.894 61.0492 116.952 61.2682C117.009 61.4873 116.985 61.7209 116.884 61.922C116.782 62.1231 116.612 62.2767 116.407 62.352C116.201 62.4273 115.976 62.4186 115.776 62.3276C115.206 62.0198 114.581 61.837 113.94 61.7907C113.3 61.7444 112.657 61.8354 112.051 62.0583C111.442 62.2784 110.883 62.6283 110.411 63.0859C109.939 63.5434 109.563 64.0985 109.307 64.7159C108.852 65.8849 108.836 67.1898 109.261 68.371C109.686 69.5522 110.523 70.5231 111.603 71.0906L115.047 72.9581C115.25 73.0684 115.402 73.2581 115.47 73.4854C115.539 73.7127 115.518 73.959 115.412 74.1701C115.306 74.3813 115.124 74.5399 114.906 74.6112C114.688 74.6825 114.452 74.6606 114.25 74.5502C113.648 74.2273 112.988 74.043 112.312 74.01C111.637 73.9769 110.962 74.0959 110.335 74.3587C109.702 74.6198 109.132 75.0234 108.665 75.5408C108.199 76.0581 107.848 76.6764 107.637 77.3515C107.293 78.4866 107.348 79.7124 107.792 80.8092C108.236 81.906 109.039 82.8022 110.059 83.3371L126.131 92.1C130.39 94.3956 135.161 95.4561 139.948 95.1707C140.2 95.1707 140.447 95.1288 140.694 95.1288V95.1168Z" fill="#8937C7"/>
<path d="M118.893 76.9558C118.753 76.9569 118.615 76.9219 118.491 76.854L114.227 74.5137C114.126 74.459 114.037 74.3843 113.965 74.2939C113.892 74.2034 113.837 74.0989 113.804 73.9863C113.77 73.8738 113.758 73.7554 113.768 73.6379C113.778 73.5204 113.81 73.4061 113.862 73.3016C113.915 73.197 113.986 73.1043 114.073 73.0286C114.16 72.9529 114.26 72.8958 114.368 72.8605C114.476 72.8252 114.589 72.8124 114.702 72.8229C114.815 72.8333 114.924 72.8669 115.024 72.9215L119.312 75.2619C119.483 75.3547 119.619 75.5045 119.698 75.6874C119.778 75.8702 119.796 76.0756 119.751 76.2706C119.705 76.4657 119.598 76.6391 119.447 76.7633C119.296 76.8875 119.109 76.9553 118.916 76.9558H118.893Z" fill="#8937C7"/>
<path d="M120.431 64.734C120.291 64.7358 120.153 64.7008 120.03 64.6322L115.742 62.2918C115.633 62.2425 115.536 62.1704 115.456 62.08C115.375 61.9897 115.313 61.883 115.274 61.7667C115.235 61.6504 115.219 61.527 115.228 61.404C115.236 61.281 115.269 61.1612 115.324 61.0521C115.379 60.9429 115.455 60.8467 115.547 60.7694C115.639 60.6922 115.746 60.6356 115.86 60.6031C115.974 60.5706 116.093 60.5629 116.21 60.5805C116.327 60.5982 116.439 60.6408 116.54 60.7057L120.827 63.0401C120.998 63.1329 121.134 63.2827 121.214 63.4656C121.293 63.6484 121.311 63.8538 121.266 64.0488C121.22 64.2439 121.113 64.4173 120.962 64.5415C120.811 64.6657 120.624 64.7335 120.431 64.734Z" fill="#8937C7"/>
<path d="M121.964 52.5173C121.826 52.5156 121.691 52.4808 121.568 52.4155L117.28 50.0752C117.18 50.0205 117.091 49.9459 117.019 49.8554C116.946 49.7649 116.891 49.6604 116.857 49.5478C116.823 49.4353 116.811 49.3169 116.821 49.1994C116.831 49.0819 116.863 48.9676 116.916 48.8631C116.968 48.7585 117.04 48.6658 117.127 48.5901C117.213 48.5144 117.314 48.4573 117.422 48.422C117.529 48.3867 117.643 48.3739 117.756 48.3844C117.868 48.3949 117.978 48.4284 118.078 48.483L122.366 50.8234C122.537 50.9164 122.673 51.0668 122.753 51.2502C122.832 51.4337 122.85 51.6397 122.804 51.8351C122.757 52.0304 122.649 52.2039 122.497 52.3276C122.345 52.4514 122.157 52.5182 121.964 52.5173Z" fill="#8937C7"/>
<path opacity="0.3" d="M151.961 101.156C151.406 101.157 150.858 101.017 150.366 100.749L145.533 98.1156C143.839 97.2114 141.944 96.798 140.045 96.9184C134.926 97.2178 129.825 96.0679 125.282 93.5905L109.21 84.8275C107.833 84.0929 106.751 82.8732 106.155 81.385C105.559 79.8968 105.488 78.2365 105.955 76.6991C106.25 75.7819 106.733 74.9427 107.37 74.2398C108.008 73.5369 108.784 72.9872 109.646 72.6288C109.879 72.5281 110.119 72.4441 110.364 72.3775C109.022 71.5386 108.013 70.225 107.522 68.6759C107.031 67.1268 107.09 65.4453 107.689 63.9378C108.036 63.0929 108.548 62.3331 109.194 61.7074C109.84 61.0816 110.604 60.6037 111.437 60.3045C111.592 60.2506 111.747 60.1967 111.902 60.1548C110.559 59.3169 109.55 58.0033 109.059 56.4539C108.568 54.9044 108.628 53.2225 109.227 51.7151C109.575 50.8714 110.088 50.1128 110.733 49.4881C111.379 48.8634 112.142 48.3865 112.975 48.0879C113.119 48.034 113.268 47.9861 113.411 47.9442L100.921 41.1326C99.5445 40.398 98.462 39.1782 97.8661 37.69C97.2702 36.2018 97.1996 34.5415 97.6667 33.0041C97.9639 32.0894 98.4472 31.2525 99.0834 30.5506C99.7196 29.8487 100.494 29.2984 101.353 28.9375C102.212 28.5766 103.136 28.4134 104.061 28.4593C104.986 28.5052 105.891 28.759 106.713 29.2033L139.483 47.0883L136.389 33.878C135.992 32.137 136.244 30.3038 137.093 28.7488C137.942 27.1938 139.326 26.0331 140.965 25.501C142.603 24.969 144.374 25.1053 145.92 25.8826C147.466 26.6598 148.671 28.0199 149.292 29.6881L160.589 60.2865C161.481 62.6989 163.185 64.6903 165.381 65.8891L167.345 66.9605C167.746 67.1788 168.103 67.4778 168.394 67.8401C168.685 68.2025 168.904 68.6211 169.04 69.0721C169.175 69.523 169.224 69.9974 169.183 70.4681C169.143 70.9388 169.013 71.3964 168.802 71.8148L155.026 99.2648C154.729 99.8414 154.287 100.322 153.747 100.656C153.206 100.989 152.589 101.162 151.961 101.156ZM140.694 95.1168C142.654 95.1057 144.587 95.5882 146.33 96.5234L151.163 99.1571C151.364 99.2683 151.585 99.3369 151.811 99.3589C152.038 99.3808 152.266 99.3557 152.484 99.2851C152.701 99.2144 152.902 99.0995 153.077 98.947C153.251 98.7946 153.395 98.6076 153.5 98.3969L167.276 70.9469C167.381 70.7372 167.446 70.5078 167.466 70.2719C167.486 70.036 167.462 69.7983 167.393 69.5724C167.325 69.3465 167.215 69.1369 167.068 68.9558C166.922 68.7746 166.743 68.6254 166.541 68.5167L164.578 67.4453C162.018 66.0458 160.035 63.7223 158.999 60.909L147.697 30.3106C147.243 29.0504 146.343 28.0192 145.183 27.4288C144.023 26.8383 142.691 26.7334 141.459 27.1356C140.227 27.5377 139.189 28.4165 138.559 29.5913C137.929 30.7662 137.754 32.148 138.071 33.453L141.618 48.5906C141.657 48.7576 141.649 48.9329 141.595 49.0954C141.541 49.2579 141.444 49.4006 141.314 49.5065C141.184 49.6145 141.027 49.6806 140.862 49.6965C140.696 49.7125 140.53 49.6776 140.384 49.5962L105.944 30.8194C105.344 30.494 104.683 30.3078 104.007 30.2737C103.331 30.2396 102.657 30.3584 102.029 30.6219C101.394 30.88 100.821 31.2826 100.354 31.8003C99.8859 32.3179 99.5347 32.9378 99.3255 33.6147C98.9827 34.7498 99.0381 35.9752 99.4818 37.0717C99.9255 38.1682 100.729 39.0644 101.748 39.6003L118.107 48.5188C118.309 48.6292 118.461 48.8188 118.53 49.0462C118.598 49.2735 118.577 49.5198 118.471 49.7309C118.419 49.8355 118.347 49.9282 118.261 50.0039C118.174 50.0796 118.074 50.1367 117.966 50.172C117.748 50.2433 117.511 50.2213 117.309 50.111C116.738 49.8019 116.112 49.6186 115.47 49.5722C114.828 49.5259 114.184 49.6176 113.578 49.8416C112.969 50.0604 112.41 50.4092 111.938 50.8658C111.466 51.3224 111.09 51.8766 110.834 52.4933C110.377 53.663 110.36 54.9693 110.785 56.1519C111.211 57.3344 112.048 58.3063 113.13 58.8739L116.574 60.7414C116.759 60.8609 116.894 61.0492 116.952 61.2682C117.009 61.4873 116.985 61.7209 116.884 61.922C116.782 62.1231 116.612 62.2767 116.407 62.352C116.201 62.4273 115.976 62.4186 115.776 62.3276C115.206 62.0198 114.581 61.837 113.94 61.7907C113.3 61.7444 112.657 61.8354 112.051 62.0583C111.442 62.2784 110.883 62.6283 110.411 63.0859C109.939 63.5434 109.563 64.0985 109.307 64.7159C108.852 65.8849 108.836 67.1898 109.261 68.371C109.686 69.5522 110.523 70.5231 111.603 71.0906L115.047 72.9581C115.25 73.0684 115.402 73.2581 115.47 73.4854C115.539 73.7127 115.518 73.959 115.412 74.1701C115.306 74.3813 115.124 74.5399 114.906 74.6112C114.688 74.6825 114.452 74.6606 114.25 74.5502C113.648 74.2273 112.988 74.043 112.312 74.01C111.637 73.9769 110.962 74.0959 110.335 74.3587C109.702 74.6198 109.132 75.0234 108.665 75.5408C108.199 76.0581 107.848 76.6764 107.637 77.3515C107.293 78.4866 107.348 79.7124 107.792 80.8092C108.236 81.906 109.039 82.8022 110.059 83.3371L126.131 92.1C130.39 94.3956 135.161 95.4561 139.948 95.1707C140.2 95.1707 140.447 95.1288 140.694 95.1288V95.1168Z" fill="black"/>
</svg>
