<svg width="62" height="45" viewBox="0 0 62 45" fill="none" xmlns="http://www.w3.org/2000/svg">
<g filter="url(#filter0_d_81_1659)">
<path d="M48 19.3333H54V20.6667H48V19.3333Z" fill="white"/>
</g>
<g filter="url(#filter1_d_81_1659)">
<path d="M48 22H54V23.3333H48V22Z" fill="white"/>
</g>
<g filter="url(#filter2_d_81_1659)">
<path d="M48 24.6667H54V26H48V24.6667Z" fill="white"/>
</g>
<g filter="url(#filter3_d_81_1659)">
<path d="M48 27.3333H54V28.6667H48V27.3333Z" fill="white"/>
</g>
<g filter="url(#filter4_d_81_1659)">
<path d="M48 30H54V31.3334H48V30Z" fill="white"/>
</g>
<g filter="url(#filter5_d_81_1659)">
<path d="M45.3334 19.3333H46.6667V20.6667H45.3334V19.3333Z" fill="white"/>
</g>
<g filter="url(#filter6_d_81_1659)">
<path d="M45.3334 22H46.6667V23.3333H45.3334V22Z" fill="white"/>
</g>
<g filter="url(#filter7_d_81_1659)">
<path d="M45.3334 24.6667H46.6667V26H45.3334V24.6667Z" fill="white"/>
</g>
<g filter="url(#filter8_d_81_1659)">
<path d="M45.3334 27.3333H46.6667V28.6667H45.3334V27.3333Z" fill="white"/>
</g>
<g filter="url(#filter9_d_81_1659)">
<path d="M45.3334 30H46.6667V31.3334H45.3334V30Z" fill="white"/>
</g>
<g filter="url(#filter10_d_81_1659)">
<path d="M56.6667 15.3333H43.3333C42.9797 15.3333 42.6406 15.4738 42.3905 15.7239C42.1405 15.9739 42 16.313 42 16.6667V35.3333C42 35.687 42.1405 36.0261 42.3905 36.2761C42.6406 36.5262 42.9797 36.6667 43.3333 36.6667H56.6667C57.0203 36.6667 57.3594 36.5262 57.6095 36.2761C57.8595 36.0261 58 35.687 58 35.3333V16.6667C58 16.313 57.8595 15.9739 57.6095 15.7239C57.3594 15.4738 57.0203 15.3333 56.6667 15.3333ZM56.6667 35.3333H43.3333V16.6667H56.6667V35.3333Z" fill="white"/>
</g>
<path d="M40 37.2327V30.9434C40 29.1824 39.7143 27.4214 38.5714 25.6604C37.4286 23.8994 36 22.3899 34 21.3836C32 20.1258 27.7143 19.8742 25.7143 19.8742L21.1429 24.1509L22.8571 27.4214V34.9686L20 37.7358L17.1429 34.9686V27.4214L19.1429 24.1509L14.2857 19.8742C12 19.8742 7.71429 20.1258 5.71429 21.3836C3.71429 22.3899 2.57143 23.8994 1.42857 25.6604C0.285714 27.4214 0 28.9308 0 30.9434V37.2327C0 37.2327 7.42857 40 20 40C32.5714 40 40 37.2327 40 37.2327ZM20 0C14.5714 0 11.4286 4.5283 12.2857 9.55975C13.1429 14.5912 16 18.1132 20 18.1132C24 18.1132 26.8571 14.5912 27.7143 9.55975C28.5714 4.27673 25.4286 0 20 0Z" fill="white"/>
<defs>
<filter id="filter0_d_81_1659" x="44" y="19.3333" width="14" height="9.33333" filterUnits="userSpaceOnUse" color-interpolation-filters="sRGB">
<feFlood flood-opacity="0" result="BackgroundImageFix"/>
<feColorMatrix in="SourceAlpha" type="matrix" values="0 0 0 0 0 0 0 0 0 0 0 0 0 0 0 0 0 0 127 0" result="hardAlpha"/>
<feOffset dy="4"/>
<feGaussianBlur stdDeviation="2"/>
<feComposite in2="hardAlpha" operator="out"/>
<feColorMatrix type="matrix" values="0 0 0 0 0 0 0 0 0 0 0 0 0 0 0 0 0 0 0.25 0"/>
<feBlend mode="normal" in2="BackgroundImageFix" result="effect1_dropShadow_81_1659"/>
<feBlend mode="normal" in="SourceGraphic" in2="effect1_dropShadow_81_1659" result="shape"/>
</filter>
<filter id="filter1_d_81_1659" x="44" y="22" width="14" height="9.33333" filterUnits="userSpaceOnUse" color-interpolation-filters="sRGB">
<feFlood flood-opacity="0" result="BackgroundImageFix"/>
<feColorMatrix in="SourceAlpha" type="matrix" values="0 0 0 0 0 0 0 0 0 0 0 0 0 0 0 0 0 0 127 0" result="hardAlpha"/>
<feOffset dy="4"/>
<feGaussianBlur stdDeviation="2"/>
<feComposite in2="hardAlpha" operator="out"/>
<feColorMatrix type="matrix" values="0 0 0 0 0 0 0 0 0 0 0 0 0 0 0 0 0 0 0.25 0"/>
<feBlend mode="normal" in2="BackgroundImageFix" result="effect1_dropShadow_81_1659"/>
<feBlend mode="normal" in="SourceGraphic" in2="effect1_dropShadow_81_1659" result="shape"/>
</filter>
<filter id="filter2_d_81_1659" x="44" y="24.6667" width="14" height="9.33333" filterUnits="userSpaceOnUse" color-interpolation-filters="sRGB">
<feFlood flood-opacity="0" result="BackgroundImageFix"/>
<feColorMatrix in="SourceAlpha" type="matrix" values="0 0 0 0 0 0 0 0 0 0 0 0 0 0 0 0 0 0 127 0" result="hardAlpha"/>
<feOffset dy="4"/>
<feGaussianBlur stdDeviation="2"/>
<feComposite in2="hardAlpha" operator="out"/>
<feColorMatrix type="matrix" values="0 0 0 0 0 0 0 0 0 0 0 0 0 0 0 0 0 0 0.25 0"/>
<feBlend mode="normal" in2="BackgroundImageFix" result="effect1_dropShadow_81_1659"/>
<feBlend mode="normal" in="SourceGraphic" in2="effect1_dropShadow_81_1659" result="shape"/>
</filter>
<filter id="filter3_d_81_1659" x="44" y="27.3333" width="14" height="9.33333" filterUnits="userSpaceOnUse" color-interpolation-filters="sRGB">
<feFlood flood-opacity="0" result="BackgroundImageFix"/>
<feColorMatrix in="SourceAlpha" type="matrix" values="0 0 0 0 0 0 0 0 0 0 0 0 0 0 0 0 0 0 127 0" result="hardAlpha"/>
<feOffset dy="4"/>
<feGaussianBlur stdDeviation="2"/>
<feComposite in2="hardAlpha" operator="out"/>
<feColorMatrix type="matrix" values="0 0 0 0 0 0 0 0 0 0 0 0 0 0 0 0 0 0 0.25 0"/>
<feBlend mode="normal" in2="BackgroundImageFix" result="effect1_dropShadow_81_1659"/>
<feBlend mode="normal" in="SourceGraphic" in2="effect1_dropShadow_81_1659" result="shape"/>
</filter>
<filter id="filter4_d_81_1659" x="44" y="30" width="14" height="9.33333" filterUnits="userSpaceOnUse" color-interpolation-filters="sRGB">
<feFlood flood-opacity="0" result="BackgroundImageFix"/>
<feColorMatrix in="SourceAlpha" type="matrix" values="0 0 0 0 0 0 0 0 0 0 0 0 0 0 0 0 0 0 127 0" result="hardAlpha"/>
<feOffset dy="4"/>
<feGaussianBlur stdDeviation="2"/>
<feComposite in2="hardAlpha" operator="out"/>
<feColorMatrix type="matrix" values="0 0 0 0 0 0 0 0 0 0 0 0 0 0 0 0 0 0 0.25 0"/>
<feBlend mode="normal" in2="BackgroundImageFix" result="effect1_dropShadow_81_1659"/>
<feBlend mode="normal" in="SourceGraphic" in2="effect1_dropShadow_81_1659" result="shape"/>
</filter>
<filter id="filter5_d_81_1659" x="41.3334" y="19.3333" width="9.33331" height="9.33333" filterUnits="userSpaceOnUse" color-interpolation-filters="sRGB">
<feFlood flood-opacity="0" result="BackgroundImageFix"/>
<feColorMatrix in="SourceAlpha" type="matrix" values="0 0 0 0 0 0 0 0 0 0 0 0 0 0 0 0 0 0 127 0" result="hardAlpha"/>
<feOffset dy="4"/>
<feGaussianBlur stdDeviation="2"/>
<feComposite in2="hardAlpha" operator="out"/>
<feColorMatrix type="matrix" values="0 0 0 0 0 0 0 0 0 0 0 0 0 0 0 0 0 0 0.25 0"/>
<feBlend mode="normal" in2="BackgroundImageFix" result="effect1_dropShadow_81_1659"/>
<feBlend mode="normal" in="SourceGraphic" in2="effect1_dropShadow_81_1659" result="shape"/>
</filter>
<filter id="filter6_d_81_1659" x="41.3334" y="22" width="9.33331" height="9.33333" filterUnits="userSpaceOnUse" color-interpolation-filters="sRGB">
<feFlood flood-opacity="0" result="BackgroundImageFix"/>
<feColorMatrix in="SourceAlpha" type="matrix" values="0 0 0 0 0 0 0 0 0 0 0 0 0 0 0 0 0 0 127 0" result="hardAlpha"/>
<feOffset dy="4"/>
<feGaussianBlur stdDeviation="2"/>
<feComposite in2="hardAlpha" operator="out"/>
<feColorMatrix type="matrix" values="0 0 0 0 0 0 0 0 0 0 0 0 0 0 0 0 0 0 0.25 0"/>
<feBlend mode="normal" in2="BackgroundImageFix" result="effect1_dropShadow_81_1659"/>
<feBlend mode="normal" in="SourceGraphic" in2="effect1_dropShadow_81_1659" result="shape"/>
</filter>
<filter id="filter7_d_81_1659" x="41.3334" y="24.6667" width="9.33331" height="9.33333" filterUnits="userSpaceOnUse" color-interpolation-filters="sRGB">
<feFlood flood-opacity="0" result="BackgroundImageFix"/>
<feColorMatrix in="SourceAlpha" type="matrix" values="0 0 0 0 0 0 0 0 0 0 0 0 0 0 0 0 0 0 127 0" result="hardAlpha"/>
<feOffset dy="4"/>
<feGaussianBlur stdDeviation="2"/>
<feComposite in2="hardAlpha" operator="out"/>
<feColorMatrix type="matrix" values="0 0 0 0 0 0 0 0 0 0 0 0 0 0 0 0 0 0 0.25 0"/>
<feBlend mode="normal" in2="BackgroundImageFix" result="effect1_dropShadow_81_1659"/>
<feBlend mode="normal" in="SourceGraphic" in2="effect1_dropShadow_81_1659" result="shape"/>
</filter>
<filter id="filter8_d_81_1659" x="41.3334" y="27.3333" width="9.33331" height="9.33333" filterUnits="userSpaceOnUse" color-interpolation-filters="sRGB">
<feFlood flood-opacity="0" result="BackgroundImageFix"/>
<feColorMatrix in="SourceAlpha" type="matrix" values="0 0 0 0 0 0 0 0 0 0 0 0 0 0 0 0 0 0 127 0" result="hardAlpha"/>
<feOffset dy="4"/>
<feGaussianBlur stdDeviation="2"/>
<feComposite in2="hardAlpha" operator="out"/>
<feColorMatrix type="matrix" values="0 0 0 0 0 0 0 0 0 0 0 0 0 0 0 0 0 0 0.25 0"/>
<feBlend mode="normal" in2="BackgroundImageFix" result="effect1_dropShadow_81_1659"/>
<feBlend mode="normal" in="SourceGraphic" in2="effect1_dropShadow_81_1659" result="shape"/>
</filter>
<filter id="filter9_d_81_1659" x="41.3334" y="30" width="9.33331" height="9.33333" filterUnits="userSpaceOnUse" color-interpolation-filters="sRGB">
<feFlood flood-opacity="0" result="BackgroundImageFix"/>
<feColorMatrix in="SourceAlpha" type="matrix" values="0 0 0 0 0 0 0 0 0 0 0 0 0 0 0 0 0 0 127 0" result="hardAlpha"/>
<feOffset dy="4"/>
<feGaussianBlur stdDeviation="2"/>
<feComposite in2="hardAlpha" operator="out"/>
<feColorMatrix type="matrix" values="0 0 0 0 0 0 0 0 0 0 0 0 0 0 0 0 0 0 0.25 0"/>
<feBlend mode="normal" in2="BackgroundImageFix" result="effect1_dropShadow_81_1659"/>
<feBlend mode="normal" in="SourceGraphic" in2="effect1_dropShadow_81_1659" result="shape"/>
</filter>
<filter id="filter10_d_81_1659" x="38" y="15.3333" width="24" height="29.3333" filterUnits="userSpaceOnUse" color-interpolation-filters="sRGB">
<feFlood flood-opacity="0" result="BackgroundImageFix"/>
<feColorMatrix in="SourceAlpha" type="matrix" values="0 0 0 0 0 0 0 0 0 0 0 0 0 0 0 0 0 0 127 0" result="hardAlpha"/>
<feOffset dy="4"/>
<feGaussianBlur stdDeviation="2"/>
<feComposite in2="hardAlpha" operator="out"/>
<feColorMatrix type="matrix" values="0 0 0 0 0 0 0 0 0 0 0 0 0 0 0 0 0 0 0.25 0"/>
<feBlend mode="normal" in2="BackgroundImageFix" result="effect1_dropShadow_81_1659"/>
<feBlend mode="normal" in="SourceGraphic" in2="effect1_dropShadow_81_1659" result="shape"/>
</filter>
</defs>
</svg>
