<svg width="32" height="32" viewBox="0 0 32 32" fill="none" xmlns="http://www.w3.org/2000/svg">
<path d="M19.6663 21.3333V22.3333H18.6663H13.333H12.333V21.3333V21H4.99967V25.3333C4.99967 26.261 5.73862 27 6.66634 27H25.333C26.2604 27 26.9991 26.2616 26.9997 25.3344C26.9997 25.334 26.9997 25.3337 26.9997 25.3333L26.9888 21H19.6663V21.3333ZM11.6797 9.33333V10.3333H10.6797H5.33301C4.41862 10.3333 3.66634 11.0856 3.66634 12V16C3.66634 16.9144 4.41862 17.6667 5.33301 17.6667H12.333V16V15H13.333H18.6663H19.6663V16V17.6667H26.6663C27.5941 17.6667 28.333 16.9277 28.333 16V12C28.333 11.0856 27.5807 10.3333 26.6663 10.3333H21.3463H20.3463V9.33333V7.08088L19.6663 6.40088V6.66667V9.33333V10.3333H18.6663H13.333H12.333V9.33333V6.66667V6.42755L11.6797 7.08088V9.33333ZM18.6663 5.66667H18.9321L18.2655 5H13.7606L13.0939 5.66667H13.333H18.6663Z" fill="#8937C7" stroke="white" stroke-width="2"/>
</svg>
