<svg width="26" height="29" viewBox="0 0 26 29" fill="none" xmlns="http://www.w3.org/2000/svg">
<path fill-rule="evenodd" clip-rule="evenodd" d="M13.2097 2.1298C13.148 2.10991 13.0815 2.10991 13.0197 2.1298L2.79973 5.4498C2.73716 5.46876 2.68219 5.50702 2.64268 5.55911C2.60317 5.61119 2.58113 5.67444 2.57973 5.7398V11.9998C2.57973 18.7598 6.64973 23.7498 13.0297 26.1598C13.0847 26.1797 13.1448 26.1797 13.1997 26.1598C19.5797 23.7498 23.6497 18.7598 23.6497 11.9998V5.7398C23.6483 5.67444 23.6263 5.61119 23.5868 5.55911C23.5473 5.50702 23.4923 5.46876 23.4297 5.4498L13.2097 2.1298ZM12.4497 0.359798C12.882 0.219911 13.3474 0.219911 13.7797 0.359798L23.9997 3.6798C24.4351 3.82111 24.8145 4.09644 25.084 4.46643C25.3534 4.83642 25.4989 5.28212 25.4997 5.7398V11.9998C25.4997 19.6698 20.8297 25.2598 13.8497 27.8998C13.3676 28.0698 12.8418 28.0698 12.3597 27.8998C5.39973 25.2298 0.719727 19.6398 0.719727 11.9998V5.7398C0.720566 5.28212 0.866094 4.83642 1.1355 4.46643C1.40491 4.09644 1.78441 3.82111 2.21973 3.6798L12.4497 0.359798ZM14.3497 14.1098C14.7219 13.8961 15.032 13.5892 15.2494 13.2192C15.4669 12.8492 15.5842 12.4289 15.5897 11.9998C15.6112 11.6615 15.5632 11.3225 15.4485 11.0035C15.3339 10.6846 15.1551 10.3925 14.9231 10.1453C14.6912 9.89818 14.4111 9.70119 14.1 9.56653C13.789 9.43187 13.4537 9.3624 13.1147 9.3624C12.7758 9.3624 12.4405 9.43187 12.1294 9.56653C11.8184 9.70119 11.5382 9.89818 11.3063 10.1453C11.0744 10.3925 10.8956 10.6846 10.7809 11.0035C10.6663 11.3225 10.6182 11.6615 10.6397 11.9998C10.6401 12.434 10.7549 12.8605 10.9726 13.2362C11.1903 13.6119 11.5032 13.9236 11.8797 14.1398V17.5698C11.8643 17.7413 11.8847 17.9142 11.9398 18.0774C11.9948 18.2405 12.0832 18.3905 12.1994 18.5176C12.3156 18.6447 12.457 18.7462 12.6146 18.8157C12.7722 18.8852 12.9425 18.921 13.1147 18.921C13.2869 18.921 13.4573 18.8852 13.6149 18.8157C13.7724 18.7462 13.9138 18.6447 14.03 18.5176C14.1462 18.3905 14.2346 18.2405 14.2897 18.0774C14.3447 17.9142 14.3652 17.7413 14.3497 17.5698V14.1098Z" fill="white"/>
</svg>
