<svg width="40" height="36" viewBox="0 0 40 36" fill="none" xmlns="http://www.w3.org/2000/svg">
<path d="M39.9861 17.9648C39.9861 19.2305 38.9444 20.2219 37.7639 20.2219H35.5417L35.5903 31.4789C35.5972 33.975 33.6042 36 31.1458 36H8.89583C6.44097 36 4.45069 33.982 4.45069 31.5V20.2219H2.22569C0.973611 20.2219 0 19.2305 0 17.9648C0 17.332 0.208611 16.7695 0.695139 16.2773L18.5 0.563625C18.9861 0.0704531 19.5417 0 20.0278 0C20.5139 0 21.0694 0.140906 21.4931 0.493172L39.2222 16.2773C39.7778 16.7695 40.0625 17.332 39.9861 17.9648ZM20 11.25C17.5486 11.25 15.5556 13.268 15.5556 15.75C15.5556 18.232 17.5486 20.25 20 20.25C22.4514 20.25 24.4444 18.232 24.4444 15.75C24.4444 13.268 22.4514 11.25 20 11.25ZM17.7778 22.5C14.7083 22.5 12.2222 25.0172 12.2222 28.125C12.2222 28.7437 12.7222 29.25 13.3333 29.25H26.6667C27.2778 29.25 27.7778 28.7437 27.7778 28.125C27.7778 25.0172 25.2917 22.5 22.2222 22.5H17.7778Z" fill="white"/>
</svg>
