<svg width="31" height="28" viewBox="0 0 31 28" fill="none" xmlns="http://www.w3.org/2000/svg">
<path d="M25.3337 13.9998C25.3337 15.4798 26.5203 16.6665 28.0003 16.6665C28.5277 16.6665 29.0433 16.5101 29.4818 16.2171C29.9204 15.9241 30.2622 15.5076 30.464 15.0203C30.6658 14.5331 30.7186 13.9969 30.6158 13.4796C30.5129 12.9623 30.2589 12.4872 29.8859 12.1142C29.513 11.7413 29.0378 11.4873 28.5206 11.3844C28.0033 11.2815 27.4671 11.3343 26.9798 11.5362C26.4926 11.738 26.0761 12.0798 25.7831 12.5183C25.4901 12.9568 25.3337 13.4724 25.3337 13.9998ZM26.667 0.666504V8.6665H29.3337V0.666504H26.667ZM29.3337 27.3332V19.3332H26.667V27.3332H29.3337ZM0.000328064 5.99984V21.9998C0.000328064 23.4798 1.18699 24.6665 2.66699 24.6665H18.667C19.3742 24.6665 20.0525 24.3856 20.5526 23.8855C21.0527 23.3854 21.3337 22.7071 21.3337 21.9998V16.6665L24.0003 13.9998L21.3337 11.3332V5.99984C21.3337 5.29259 21.0527 4.61432 20.5526 4.11422C20.0525 3.61412 19.3742 3.33317 18.667 3.33317H2.66699C1.18699 3.33317 0.000328064 4.51984 0.000328064 5.99984ZM2.66699 5.99984H18.667V12.4398L20.227 13.9998L18.667 15.5598V21.9998H2.66699V5.99984ZM10.0003 18.6665V20.6665H12.0003V18.6665H10.0003ZM12.667 11.9998H14.667V11.3332C14.667 9.11984 12.8803 7.33317 10.667 7.33317C8.45366 7.33317 6.66699 9.11984 6.66699 11.3332C6.66699 12.6265 7.33366 13.8398 8.387 14.5465L8.78699 14.7998C9.54699 15.3332 10.0003 16.1598 10.0003 17.0665V17.3332H12.0003V17.0665C12.0003 15.4798 11.2003 13.9998 9.88033 13.1332L9.49366 12.8798C8.97366 12.5332 8.66699 11.9598 8.66699 11.3332C8.66699 10.2398 9.56033 9.33317 10.667 9.33317C11.7737 9.33317 12.667 10.2265 12.667 11.3332V11.9998Z" fill="white"/>
</svg>
