<svg width="28" height="24" viewBox="0 0 28 24" fill="none" xmlns="http://www.w3.org/2000/svg">
<path d="M17.6663 17.3333V18.3333H16.6663H11.333H10.333V17.3333V17H2.99967V21.3333C2.99967 22.261 3.73862 23 4.66634 23H23.333C24.2604 23 24.9991 22.2616 24.9997 21.3344C24.9997 21.334 24.9997 21.3337 24.9997 21.3333L24.9888 17H17.6663V17.3333ZM9.67967 5.33333V6.33333H8.67967H3.33301C2.41862 6.33333 1.66634 7.08562 1.66634 8V12C1.66634 12.9144 2.41862 13.6667 3.33301 13.6667H10.333V12V11H11.333H16.6663H17.6663V12V13.6667H24.6663C25.5941 13.6667 26.333 12.9277 26.333 12V8C26.333 7.08562 25.5807 6.33333 24.6663 6.33333H19.3463H18.3463V5.33333V3.08088L17.6663 2.40088V2.66667V5.33333V6.33333H16.6663H11.333H10.333V5.33333V2.66667V2.42755L9.67967 3.08088V5.33333ZM16.6663 1.66667H16.9321L16.2655 1H11.7606L11.0939 1.66667H11.333H16.6663Z" fill="#ED8D34" stroke="white" stroke-width="2"/>
</svg>
