<svg width="40" height="40" viewBox="0 0 40 40" fill="none" xmlns="http://www.w3.org/2000/svg">
<path d="M27.55 18.4333L25.7833 16.6667L17.65 24.8L14.1167 21.2667L12.35 23.0333L17.65 28.3333L27.55 18.4333ZM31.6667 5H30V1.66667H26.6667V5H13.3333V1.66667H10V5H8.33333C6.48333 5 5.01667 6.5 5.01667 8.33333L5 31.6667C5 32.5507 5.35119 33.3986 5.97631 34.0237C6.60143 34.6488 7.44928 35 8.33333 35H31.6667C33.5 35 35 33.5 35 31.6667V8.33333C35 6.5 33.5 5 31.6667 5ZM31.6667 31.6667H8.33333V13.3333H31.6667V31.6667Z" fill="#8937C7"/>
</svg>
