<svg width="40" height="40" viewBox="0 0 40 40" fill="none" xmlns="http://www.w3.org/2000/svg">
<g clip-path="url(#clip0_4_2)">
<path d="M16.1538 0.24C11.5123 0.24 7.78769 3.42769 7.78769 9.52C7.78769 13.4985 9.37231 17.5508 11.7785 20.0477C12.7169 22.5446 11.0246 23.4738 10.6738 23.6062C5.81692 25.3877 0.143074 28.6185 0.143074 31.8277V33.0277C0.143074 37.4015 8.4723 38.4123 16.2 38.4123C17.8843 38.4095 19.568 38.3459 21.2477 38.2215C19.1444 36.0015 17.9745 33.0582 17.98 30C17.98 27.2446 18.9185 24.72 20.4785 22.6923C20.2477 22.1508 20.1554 21.2969 20.5754 20C22.9677 17.5 24.5185 13.4831 24.5185 9.51846C24.5185 3.42769 20.7892 0.241538 16.1523 0.241538L16.1538 0.24ZM30 20.2877C27.4243 20.2877 24.9542 21.3109 23.1329 23.1321C21.3116 24.9534 20.2885 27.4236 20.2885 29.9992C20.2885 32.5749 21.3116 35.0451 23.1329 36.8663C24.9542 38.6876 27.4243 39.7108 30 39.7108C32.5757 39.7108 35.0458 38.6876 36.8671 36.8663C38.6884 35.0451 39.7115 32.5749 39.7115 29.9992C39.7115 27.4236 38.6884 24.9534 36.8671 23.1321C35.0458 21.3109 32.5757 20.2877 30 20.2877ZM28.6538 24.6154H31.3462V28.6062H35.3369V31.3938H31.3462V35.3846H28.6538V31.3938H24.6154V28.6062H28.6538V24.6154Z" fill="#8937C7"/>
</g>
<defs>
<clipPath id="clip0_4_2">
<rect width="40" height="40" fill="white"/>
</clipPath>
</defs>
</svg>
