<svg width="40" height="40" viewBox="0 0 40 40" fill="none" xmlns="http://www.w3.org/2000/svg">
<path d="M35.5417 22.4688L35.5903 34.9766C35.5903 35.1953 35.5764 35.3984 35.5556 35.6094V36.875C35.5556 38.6016 34.3125 40 32.7778 40H31.6667C31.5903 40 31.5139 39.9297 31.4375 39.9922C31.3403 39.9297 31.2431 40 31.1458 40H27.2222C25.6875 40 24.4444 38.6016 24.4444 36.875V30C24.4444 28.6172 23.4514 27.5 22.2222 27.5H17.7778C16.5486 27.5 15.5556 28.6172 15.5556 30V36.875C15.5556 38.6016 14.3125 40 12.7778 40H8.89583C8.79167 40 8.6875 39.9922 8.58333 39.9844C8.5 39.9922 8.41667 40 8.33333 40H7.22222C5.68819 40 4.44444 38.6016 4.44444 36.875V28.125C4.44444 28.0547 4.44653 27.9766 4.45069 27.9062V22.4688H2.22569C0.973611 22.4688 0 21.3672 0 19.9609C0 19.2578 0.208611 18.6328 0.695139 18.0859L18.5 0.62625C18.9861 0.0782812 19.5417 0 20.0278 0C20.5139 0 21.0694 0.156562 21.4931 0.547969L28.8889 7.86719V5C28.8889 3.61953 29.8819 2.5 31.1111 2.5H33.3333C34.5625 2.5 35.5556 3.61953 35.5556 5V14.4531L39.2222 18.0859C39.7778 18.6328 40.0625 19.2578 39.9861 19.9609C39.9861 21.3672 38.9444 22.4688 37.7639 22.4688H35.5417Z" fill="#8937C7"/>
<path d="M13.961 35.2669L13.4895 34.5181L13.7692 33.6778C13.7876 33.6222 13.7864 33.5619 13.7658 33.5071C13.7451 33.4523 13.7063 33.4064 13.6559 33.3771L12.8928 32.9343L12.7525 32.0592C12.7431 32.0013 12.7141 31.9485 12.6705 31.9097C12.6269 31.8708 12.5714 31.8482 12.5132 31.8458L11.6331 31.8111L11.1051 31.1016C11.0702 31.0547 11.0203 31.0214 10.9637 31.0074C10.9072 30.9933 10.8475 30.9995 10.795 31.0248L10 31.4054L9.2047 31.0244C9.15207 30.9994 9.0925 30.9935 9.03601 31.0075C8.97952 31.0216 8.92957 31.0548 8.89458 31.1016L8.36655 31.8111L7.4865 31.8458C7.42836 31.8481 7.37281 31.8706 7.32925 31.9094C7.2857 31.9483 7.25681 32.0011 7.24748 32.0589L7.10717 32.934L6.34415 33.3768C6.29366 33.406 6.25477 33.4519 6.23406 33.5067C6.21336 33.5615 6.21211 33.6218 6.23053 33.6774L6.51022 34.5178L6.039 35.2669C6.00792 35.3165 5.9948 35.3754 6.00187 35.4336C6.00894 35.4918 6.03576 35.5457 6.0778 35.5863L6.71324 36.1998L6.64184 37.083C6.63709 37.1414 6.65254 37.1997 6.68558 37.248C6.71861 37.2963 6.7672 37.3316 6.82313 37.348L7.66903 37.5933L8.01329 38.4093C8.03589 38.4634 8.07645 38.5079 8.12804 38.5352C8.17962 38.5625 8.23902 38.5709 8.29609 38.559L9.15906 38.3809L9.84013 38.9425C9.88638 38.9803 9.94319 39 10 39C10.0568 39 10.1133 38.9803 10.1599 38.9425L10.8409 38.3809L11.7039 38.559C11.8209 38.584 11.9398 38.5206 11.9867 38.4093L12.331 37.5933L13.1769 37.348C13.2328 37.3317 13.2815 37.2964 13.3145 37.2481C13.3475 37.1998 13.363 37.1414 13.3582 37.083L13.2868 36.1998L13.9222 35.5863C13.9642 35.5457 13.9911 35.4918 13.9981 35.4336C14.0052 35.3754 13.9921 35.3165 13.961 35.2669ZM11.8244 34.0447L10.0577 36.7092C9.991 36.8086 9.88763 36.8752 9.78488 36.8752C9.68244 36.8752 9.56789 36.8173 9.49494 36.7436L8.19799 35.4169C8.15548 35.373 8.13169 35.3142 8.13169 35.2529C8.13169 35.1916 8.15548 35.1327 8.19799 35.0888L8.51804 34.7606C8.53901 34.7394 8.56395 34.7226 8.59141 34.7111C8.61887 34.6996 8.64832 34.6936 8.67806 34.6936C8.70781 34.6936 8.73725 34.6996 8.76472 34.7111C8.79218 34.7226 8.81711 34.7394 8.83809 34.7606L9.68213 35.6238L11.0741 33.5243C11.0906 33.4993 11.1118 33.4778 11.1367 33.4611C11.1615 33.4445 11.1894 33.4329 11.2187 33.4272C11.248 33.4215 11.2781 33.4218 11.3073 33.4279C11.3366 33.4341 11.3643 33.446 11.3888 33.4631L11.7641 33.7228C11.8675 33.7946 11.8942 33.9393 11.8244 34.0447Z" fill="white"/>
</svg>
