<svg width="40" height="40" viewBox="0 0 40 40" fill="none" xmlns="http://www.w3.org/2000/svg">
<path d="M40 20C40 25.3043 37.8929 30.3914 34.1421 34.1421C30.3914 37.8929 25.3043 40 20 40C14.6957 40 9.60859 37.8929 5.85786 34.1421C2.10714 30.3914 0 25.3043 0 20C0 14.6957 2.10714 9.60859 5.85786 5.85786C9.60859 2.10714 14.6957 0 20 0C25.3043 0 30.3914 2.10714 34.1421 5.85786C37.8929 9.60859 40 14.6957 40 20ZM35 20C35.0045 16.885 34.0348 13.8465 32.2267 11.31L11.31 32.2267C13.554 33.8216 16.1937 34.7682 18.94 34.9628C21.6862 35.1574 24.433 34.5924 26.8795 33.3297C29.3259 32.0671 31.3777 30.1554 32.8101 27.8043C34.2424 25.4531 35.0001 22.7531 35 20ZM28.69 7.77333C25.8007 5.71939 22.2774 4.75509 18.7449 5.05146C15.2124 5.34782 11.899 6.8857 9.39234 9.39234C6.8857 11.899 5.34782 15.2124 5.05146 18.7449C4.75509 22.2774 5.71939 25.8007 7.77333 28.69L28.69 7.77333Z" fill="#8937C7"/>
</svg>
