<svg width="40" height="40" viewBox="0 0 40 40" fill="none" xmlns="http://www.w3.org/2000/svg">
<path d="M33.75 13.75H25V5C25 4.00544 24.6049 3.05161 23.9017 2.34835C23.1984 1.64509 22.2446 1.25 21.25 1.25H6.25C5.25544 1.25 4.30161 1.64509 3.59835 2.34835C2.89509 3.05161 2.5 4.00544 2.5 5V37.5C2.5 37.8315 2.6317 38.1495 2.86612 38.3839C3.10054 38.6183 3.41848 38.75 3.75 38.75H11.875C12.0408 38.75 12.1997 38.6842 12.3169 38.5669C12.4342 38.4497 12.5 38.2908 12.5 38.125V32.5352C12.5 31.8625 13.0172 31.2852 13.6898 31.2516C13.8589 31.2434 14.0278 31.2697 14.1863 31.3287C14.3449 31.3878 14.4898 31.4784 14.6123 31.5952C14.7348 31.7119 14.8323 31.8523 14.899 32.0078C14.9656 32.1633 15 32.3308 15 32.5V38.125C15 38.2908 15.0658 38.4497 15.1831 38.5669C15.3003 38.6842 15.4592 38.75 15.625 38.75H36.25C36.5815 38.75 36.8995 38.6183 37.1339 38.3839C37.3683 38.1495 37.5 37.8315 37.5 37.5V17.5C37.5 16.5054 37.1049 15.5516 36.4016 14.8483C35.6984 14.1451 34.7446 13.75 33.75 13.75ZM7.6625 33.7398C7.40362 33.7737 7.14063 33.7256 6.91045 33.6024C6.68027 33.4792 6.49445 33.287 6.37907 33.0528C6.2637 32.8186 6.22455 32.5541 6.26714 32.2965C6.30972 32.0389 6.4319 31.8011 6.61652 31.6165C6.80113 31.4319 7.03893 31.3097 7.29652 31.2671C7.55411 31.2246 7.81857 31.2637 8.05278 31.3791C8.28699 31.4944 8.4792 31.6803 8.60242 31.9104C8.72565 32.1406 8.7737 32.4036 8.73984 32.6625C8.70411 32.9357 8.57911 33.1895 8.38428 33.3843C8.18945 33.5791 7.93571 33.7041 7.6625 33.7398ZM7.6625 27.4898C7.40362 27.5237 7.14063 27.4756 6.91045 27.3524C6.68027 27.2292 6.49445 27.037 6.37907 26.8028C6.2637 26.5686 6.22455 26.3041 6.26714 26.0465C6.30972 25.7889 6.4319 25.5511 6.61652 25.3665C6.80113 25.1819 7.03893 25.0597 7.29652 25.0171C7.55411 24.9746 7.81857 25.0137 8.05278 25.1291C8.28699 25.2444 8.4792 25.4303 8.60242 25.6604C8.72565 25.8906 8.7737 26.1536 8.73984 26.4125C8.70411 26.6857 8.57911 26.9395 8.38428 27.1343C8.18945 27.3291 7.93571 27.4541 7.6625 27.4898ZM7.6625 21.2398C7.40362 21.2737 7.14063 21.2256 6.91045 21.1024C6.68027 20.9792 6.49445 20.787 6.37907 20.5528C6.2637 20.3186 6.22455 20.0541 6.26714 19.7965C6.30972 19.5389 6.4319 19.3011 6.61652 19.1165C6.80113 18.9319 7.03893 18.8097 7.29652 18.7671C7.55411 18.7246 7.81857 18.7637 8.05278 18.8791C8.28699 18.9944 8.4792 19.1803 8.60242 19.4104C8.72565 19.6406 8.7737 19.9036 8.73984 20.1625C8.70411 20.4357 8.57911 20.6895 8.38428 20.8843C8.18945 21.0791 7.93571 21.2041 7.6625 21.2398ZM7.6625 14.9898C7.40362 15.0237 7.14063 14.9756 6.91045 14.8524C6.68027 14.7292 6.49445 14.537 6.37907 14.3028C6.2637 14.0686 6.22455 13.8041 6.26714 13.5465C6.30972 13.2889 6.4319 13.0511 6.61652 12.8665C6.80113 12.6819 7.03893 12.5597 7.29652 12.5171C7.55411 12.4746 7.81857 12.5137 8.05278 12.6291C8.28699 12.7444 8.4792 12.9303 8.60242 13.1604C8.72565 13.3906 8.7737 13.6536 8.73984 13.9125C8.70411 14.1857 8.57911 14.4395 8.38428 14.6343C8.18945 14.8291 7.93571 14.9541 7.6625 14.9898ZM7.6625 8.73984C7.40362 8.7737 7.14063 8.72565 6.91045 8.60242C6.68027 8.4792 6.49445 8.28699 6.37907 8.05278C6.2637 7.81857 6.22455 7.55411 6.26714 7.29652C6.30972 7.03893 6.4319 6.80113 6.61652 6.61652C6.80113 6.4319 7.03893 6.30972 7.29652 6.26714C7.55411 6.22455 7.81857 6.2637 8.05278 6.37907C8.28699 6.49445 8.4792 6.68027 8.60242 6.91045C8.72565 7.14063 8.7737 7.40362 8.73984 7.6625C8.70411 7.93571 8.57911 8.18945 8.38428 8.38428C8.18945 8.57911 7.93571 8.70411 7.6625 8.73984ZM13.9125 27.4898C13.6536 27.5237 13.3906 27.4756 13.1604 27.3524C12.9303 27.2292 12.7444 27.037 12.6291 26.8028C12.5137 26.5686 12.4746 26.3041 12.5171 26.0465C12.5597 25.7889 12.6819 25.5511 12.8665 25.3665C13.0511 25.1819 13.2889 25.0597 13.5465 25.0171C13.8041 24.9746 14.0686 25.0137 14.3028 25.1291C14.537 25.2444 14.7292 25.4303 14.8524 25.6604C14.9756 25.8906 15.0237 26.1536 14.9898 26.4125C14.9541 26.6857 14.8291 26.9395 14.6343 27.1343C14.4395 27.3291 14.1857 27.4541 13.9125 27.4898ZM13.9125 21.2398C13.6536 21.2737 13.3906 21.2256 13.1604 21.1024C12.9303 20.9792 12.7444 20.787 12.6291 20.5528C12.5137 20.3186 12.4746 20.0541 12.5171 19.7965C12.5597 19.5389 12.6819 19.3011 12.8665 19.1165C13.0511 18.9319 13.2889 18.8097 13.5465 18.7671C13.8041 18.7246 14.0686 18.7637 14.3028 18.8791C14.537 18.9944 14.7292 19.1803 14.8524 19.4104C14.9756 19.6406 15.0237 19.9036 14.9898 20.1625C14.9541 20.4357 14.8291 20.6895 14.6343 20.8843C14.4395 21.0791 14.1857 21.2041 13.9125 21.2398ZM13.9125 14.9898C13.6536 15.0237 13.3906 14.9756 13.1604 14.8524C12.9303 14.7292 12.7444 14.537 12.6291 14.3028C12.5137 14.0686 12.4746 13.8041 12.5171 13.5465C12.5597 13.2889 12.6819 13.0511 12.8665 12.8665C13.0511 12.6819 13.2889 12.5597 13.5465 12.5171C13.8041 12.4746 14.0686 12.5137 14.3028 12.6291C14.537 12.7444 14.7292 12.9303 14.8524 13.1604C14.9756 13.3906 15.0237 13.6536 14.9898 13.9125C14.9541 14.1857 14.8291 14.4395 14.6343 14.6343C14.4395 14.8291 14.1857 14.9541 13.9125 14.9898ZM13.9125 8.73984C13.6536 8.7737 13.3906 8.72565 13.1604 8.60242C12.9303 8.4792 12.7444 8.28699 12.6291 8.05278C12.5137 7.81857 12.4746 7.55411 12.5171 7.29652C12.5597 7.03893 12.6819 6.80113 12.8665 6.61652C13.0511 6.4319 13.2889 6.30972 13.5465 6.26714C13.8041 6.22455 14.0686 6.2637 14.3028 6.37907C14.537 6.49445 14.7292 6.68027 14.8524 6.91045C14.9756 7.14063 15.0237 7.40362 14.9898 7.6625C14.9541 7.93571 14.8291 8.18945 14.6343 8.38428C14.4395 8.57911 14.1857 8.70411 13.9125 8.73984ZM20.1625 33.7398C19.9036 33.7737 19.6406 33.7256 19.4104 33.6024C19.1803 33.4792 18.9944 33.287 18.8791 33.0528C18.7637 32.8186 18.7246 32.5541 18.7671 32.2965C18.8097 32.0389 18.9319 31.8011 19.1165 31.6165C19.3011 31.4319 19.5389 31.3097 19.7965 31.2671C20.0541 31.2246 20.3186 31.2637 20.5528 31.3791C20.787 31.4944 20.9792 31.6803 21.1024 31.9104C21.2256 32.1406 21.2737 32.4036 21.2398 32.6625C21.2041 32.9357 21.0791 33.1895 20.8843 33.3843C20.6895 33.5791 20.4357 33.7041 20.1625 33.7398ZM20.1625 27.4898C19.9036 27.5237 19.6406 27.4756 19.4104 27.3524C19.1803 27.2292 18.9944 27.037 18.8791 26.8028C18.7637 26.5686 18.7246 26.3041 18.7671 26.0465C18.8097 25.7889 18.9319 25.5511 19.1165 25.3665C19.3011 25.1819 19.5389 25.0597 19.7965 25.0171C20.0541 24.9746 20.3186 25.0137 20.5528 25.1291C20.787 25.2444 20.9792 25.4303 21.1024 25.6604C21.2256 25.8906 21.2737 26.1536 21.2398 26.4125C21.2041 26.6857 21.0791 26.9395 20.8843 27.1343C20.6895 27.3291 20.4357 27.4541 20.1625 27.4898ZM20.1625 21.2398C19.9036 21.2737 19.6406 21.2256 19.4104 21.1024C19.1803 20.9792 18.9944 20.787 18.8791 20.5528C18.7637 20.3186 18.7246 20.0541 18.7671 19.7965C18.8097 19.5389 18.9319 19.3011 19.1165 19.1165C19.3011 18.9319 19.5389 18.8097 19.7965 18.7671C20.0541 18.7246 20.3186 18.7637 20.5528 18.8791C20.787 18.9944 20.9792 19.1803 21.1024 19.4104C21.2256 19.6406 21.2737 19.9036 21.2398 20.1625C21.2041 20.4357 21.0791 20.6895 20.8843 20.8843C20.6895 21.0791 20.4357 21.2041 20.1625 21.2398ZM20.1625 14.9898C19.9036 15.0237 19.6406 14.9756 19.4104 14.8524C19.1803 14.7292 18.9944 14.537 18.8791 14.3028C18.7637 14.0686 18.7246 13.8041 18.7671 13.5465C18.8097 13.2889 18.9319 13.0511 19.1165 12.8665C19.3011 12.6819 19.5389 12.5597 19.7965 12.5171C20.0541 12.4746 20.3186 12.5137 20.5528 12.6291C20.787 12.7444 20.9792 12.9303 21.1024 13.1604C21.2256 13.3906 21.2737 13.6536 21.2398 13.9125C21.2041 14.1857 21.0791 14.4395 20.8843 14.6343C20.6895 14.8291 20.4357 14.9541 20.1625 14.9898ZM20.1625 8.73984C19.9036 8.7737 19.6406 8.72565 19.4104 8.60242C19.1803 8.4792 18.9944 8.28699 18.8791 8.05278C18.7637 7.81857 18.7246 7.55411 18.7671 7.29652C18.8097 7.03893 18.9319 6.80113 19.1165 6.61652C19.3011 6.4319 19.5389 6.30972 19.7965 6.26714C20.0541 6.22455 20.3186 6.2637 20.5528 6.37907C20.787 6.49445 20.9792 6.68027 21.1024 6.91045C21.2256 7.14063 21.2737 7.40362 21.2398 7.6625C21.2041 7.93571 21.0791 8.18945 20.8843 8.38428C20.6895 8.57911 20.4357 8.70411 20.1625 8.73984ZM34.6875 36.25H25V16.25H33.75C34.0815 16.25 34.3995 16.3817 34.6339 16.6161C34.8683 16.8505 35 17.1685 35 17.5V35.9375C35 36.0204 34.9671 36.0999 34.9085 36.1585C34.8499 36.2171 34.7704 36.25 34.6875 36.25Z" fill="#8937C7"/>
<path d="M31.25 31.25C31.0028 31.25 30.7611 31.3233 30.5555 31.4607C30.35 31.598 30.1898 31.7932 30.0952 32.0216C30.0005 32.2501 29.9758 32.5014 30.024 32.7439C30.0723 32.9863 30.1913 33.2091 30.3661 33.3839C30.5409 33.5587 30.7637 33.6778 31.0061 33.726C31.2486 33.7742 31.4999 33.7495 31.7284 33.6549C31.9568 33.5602 32.152 33.4 32.2893 33.1945C32.4267 32.9889 32.5 32.7472 32.5 32.5C32.5 32.1685 32.3683 31.8505 32.1339 31.6161C31.8995 31.3817 31.5815 31.25 31.25 31.25ZM31.25 25C31.0028 25 30.7611 25.0733 30.5555 25.2107C30.35 25.348 30.1898 25.5432 30.0952 25.7716C30.0005 26.0001 29.9758 26.2514 30.024 26.4939C30.0723 26.7363 30.1913 26.9591 30.3661 27.1339C30.5409 27.3087 30.7637 27.4278 31.0061 27.476C31.2486 27.5242 31.4999 27.4995 31.7284 27.4049C31.9568 27.3102 32.152 27.15 32.2893 26.9445C32.4267 26.7389 32.5 26.4972 32.5 26.25C32.5 25.9185 32.3683 25.6005 32.1339 25.3661C31.8995 25.1317 31.5815 25 31.25 25ZM31.25 18.75C31.0028 18.75 30.7611 18.8233 30.5555 18.9607C30.35 19.098 30.1898 19.2932 30.0952 19.5216C30.0005 19.7501 29.9758 20.0014 30.024 20.2439C30.0723 20.4863 30.1913 20.7091 30.3661 20.8839C30.5409 21.0587 30.7637 21.1778 31.0061 21.226C31.2486 21.2742 31.4999 21.2495 31.7284 21.1548C31.9568 21.0602 32.152 20.9 32.2893 20.6945C32.4267 20.4889 32.5 20.2472 32.5 20C32.5 19.6685 32.3683 19.3505 32.1339 19.1161C31.8995 18.8817 31.5815 18.75 31.25 18.75ZM26.25 31.25C26.0028 31.25 25.7611 31.3233 25.5555 31.4607C25.35 31.598 25.1898 31.7932 25.0952 32.0216C25.0005 32.2501 24.9758 32.5014 25.024 32.7439C25.0723 32.9863 25.1913 33.2091 25.3661 33.3839C25.5409 33.5587 25.7637 33.6778 26.0061 33.726C26.2486 33.7742 26.4999 33.7495 26.7284 33.6549C26.9568 33.5602 27.152 33.4 27.2893 33.1945C27.4267 32.9889 27.5 32.7472 27.5 32.5C27.5 32.1685 27.3683 31.8505 27.1339 31.6161C26.8995 31.3817 26.5815 31.25 26.25 31.25ZM26.25 25C26.0028 25 25.7611 25.0733 25.5555 25.2107C25.35 25.348 25.1898 25.5432 25.0952 25.7716C25.0005 26.0001 24.9758 26.2514 25.024 26.4939C25.0723 26.7363 25.1913 26.9591 25.3661 27.1339C25.5409 27.3087 25.7637 27.4278 26.0061 27.476C26.2486 27.5242 26.4999 27.4995 26.7284 27.4049C26.9568 27.3102 27.152 27.15 27.2893 26.9445C27.4267 26.7389 27.5 26.4972 27.5 26.25C27.5 25.9185 27.3683 25.6005 27.1339 25.3661C26.8995 25.1317 26.5815 25 26.25 25ZM26.25 18.75C26.0028 18.75 25.7611 18.8233 25.5555 18.9607C25.35 19.098 25.1898 19.2932 25.0952 19.5216C25.0005 19.7501 24.9758 20.0014 25.024 20.2439C25.0723 20.4863 25.1913 20.7091 25.3661 20.8839C25.5409 21.0587 25.7637 21.1778 26.0061 21.226C26.2486 21.2742 26.4999 21.2495 26.7284 21.1548C26.9568 21.0602 27.152 20.9 27.2893 20.6945C27.4267 20.4889 27.5 20.2472 27.5 20C27.5 19.6685 27.3683 19.3505 27.1339 19.1161C26.8995 18.8817 26.5815 18.75 26.25 18.75Z" fill="#8937C7"/>
</svg>
