<svg width="40" height="40" viewBox="0 0 40 40" fill="none" xmlns="http://www.w3.org/2000/svg">
<path d="M32 8H35.92C37.06 8 38 8.94 38 10.08V35.92C38 37.06 37.06 38 35.92 38H10.08C8.94 38 8 37.06 8 35.92V32H4.08C2.94 32 2 31.06 2 29.92V4.08C2 2.94 2.94 2 4.08 2H29.92C31.06 2 32 2.94 32 4.08V8ZM6 28H28V6H6V28ZM16 11C16 9.34 14.66 8 13 8C11.34 8 10 9.34 10 11C10 12.66 11.34 14 13 14C14.66 14 16 12.66 16 11ZM20 20C20 20 22 10 26 10V26H8V14C12 14 12 20 12 20C12 20 12.66 16 16 16C19.34 16 20 20 20 20ZM34 34V12H32V29.92C32 31.06 31.06 32 29.92 32H12V34H34Z" fill="#8937C7"/>
</svg>
