<svg width="40" height="40" viewBox="0 0 40 40" fill="none" xmlns="http://www.w3.org/2000/svg">
<path d="M35.5555 4.44444H4.44439C3.85502 4.44444 3.28979 4.67857 2.87304 5.09532C2.45629 5.51207 2.22217 6.0773 2.22217 6.66667V33.3333C2.22217 33.9227 2.45629 34.4879 2.87304 34.9047C3.28979 35.3214 3.85502 35.5556 4.44439 35.5556H35.5555C36.1449 35.5556 36.7101 35.3214 37.1269 34.9047C37.5436 34.4879 37.7777 33.9227 37.7777 33.3333V6.66667C37.7777 6.0773 37.5436 5.51207 37.1269 5.09532C36.7101 4.67857 36.1449 4.44444 35.5555 4.44444ZM9.91106 8.88889C10.5703 8.88889 11.2148 9.08439 11.763 9.45066C12.3111 9.81693 12.7384 10.3375 12.9907 10.9466C13.2429 11.5557 13.309 12.2259 13.1803 12.8725C13.0517 13.5191 12.7343 14.1131 12.2681 14.5792C11.8019 15.0454 11.208 15.3629 10.5614 15.4915C9.91475 15.6201 9.24453 15.5541 8.63545 15.3018C8.02636 15.0495 7.50576 14.6223 7.13949 14.0741C6.77322 13.526 6.57772 12.8815 6.57772 12.2222C6.57772 11.3382 6.92891 10.4903 7.55403 9.8652C8.17916 9.24008 9.027 8.88889 9.91106 8.88889ZM6.66661 30V25.4444L13.3333 18.6889C13.5415 18.4819 13.8231 18.3658 14.1166 18.3658C14.4102 18.3658 14.6918 18.4819 14.8999 18.6889L17.7777 21.5L9.24439 30H6.66661ZM33.3333 30H12.3888L19.3111 23.0778L25.3111 17.0778C25.5192 16.8708 25.8009 16.7547 26.0944 16.7547C26.3879 16.7547 26.6695 16.8708 26.8777 17.0778L33.3333 23.5333V30Z" fill="#8937C7"/>
</svg>
