<svg width="22" height="22" viewBox="0 0 22 22" fill="none" xmlns="http://www.w3.org/2000/svg">
<path d="M19.4649 4.84687L11.2149 2.09687C11.0749 2.05379 10.9252 2.05379 10.7852 2.09687L2.5438 4.84687H2.52661L2.44067 4.88984H2.43208L2.34614 4.9414C2.34614 4.94999 2.33755 4.94999 2.32895 4.95859L2.2602 5.01874L2.20005 5.08749C2.20005 5.09609 2.19145 5.09609 2.19145 5.10468L2.13989 5.18203C2.13989 5.19062 2.13989 5.19062 2.1313 5.19921L2.09692 5.27656L2.07114 5.37109V5.39687C2.06267 5.43054 2.05976 5.46538 2.06255 5.49999V12.375C2.06255 12.5573 2.13498 12.7322 2.26391 12.8611C2.39284 12.9901 2.56771 13.0625 2.75005 13.0625C2.93238 13.0625 3.10725 12.9901 3.23618 12.8611C3.36512 12.7322 3.43755 12.5573 3.43755 12.375V6.4539L6.32505 7.4164C5.78258 8.28471 5.49658 9.28867 5.50005 10.3125C5.50037 11.2436 5.73708 12.1594 6.188 12.9741C6.63892 13.7888 7.2893 14.4756 8.07817 14.9703C6.43883 15.5905 5.0393 16.7161 4.08208 18.1844C3.98451 18.3387 3.95146 18.5251 3.99004 18.7035C4.02861 18.8819 4.13574 19.0381 4.28833 19.1383C4.36321 19.1879 4.4472 19.2222 4.53542 19.2391C4.62364 19.256 4.71434 19.2552 4.80226 19.2369C4.89019 19.2185 4.97359 19.1828 5.04764 19.132C5.12169 19.0811 5.18491 19.0161 5.23364 18.9406C5.85766 17.9794 6.71206 17.1894 7.71914 16.6425C8.72623 16.0956 9.85405 15.8092 11 15.8092C12.146 15.8092 13.2739 16.0956 14.281 16.6425C15.288 17.1894 16.1424 17.9794 16.7665 18.9406C16.8292 19.0359 16.9147 19.1141 17.0152 19.1681C17.1157 19.2221 17.2281 19.2503 17.3422 19.25C17.4739 19.2514 17.6029 19.2124 17.7118 19.1383C17.8644 19.0381 17.9715 18.8819 18.0101 18.7035C18.0486 18.5251 18.0156 18.3387 17.918 18.1844C16.9608 16.7161 15.5613 15.5905 13.9219 14.9703C14.7108 14.4756 15.3612 13.7888 15.8121 12.9741C16.263 12.1594 16.4997 11.2436 16.5 10.3125C16.5035 9.28867 16.2175 8.28471 15.675 7.4164L19.4649 6.15312C19.6024 6.10791 19.7222 6.02043 19.8071 5.90315C19.892 5.78587 19.9377 5.64478 19.9377 5.49999C19.9377 5.35521 19.892 5.21412 19.8071 5.09684C19.7222 4.97956 19.6024 4.89208 19.4649 4.84687ZM11 14.4375C9.90603 14.4375 8.85682 14.0029 8.08323 13.2293C7.30965 12.4557 6.87505 11.4065 6.87505 10.3125C6.87671 9.43227 7.15642 8.57506 7.67427 7.86328L10.7852 8.90312C10.9248 8.94903 11.0753 8.94903 11.2149 8.90312L14.3258 7.86328C14.8437 8.57506 15.1234 9.43227 15.125 10.3125C15.125 11.4065 14.6905 12.4557 13.9169 13.2293C13.1433 14.0029 12.0941 14.4375 11 14.4375Z" fill="#8937C7"/>
</svg>
