<svg width="34" height="34" viewBox="0 0 34 34" fill="none" xmlns="http://www.w3.org/2000/svg">
<g filter="url(#filter0_i_112_34)">
<path d="M21.9087 20.4389H18.9663C18.6363 20.4389 18.375 20.1776 18.375 19.8476V16.9051C18.375 16.582 18.6363 16.3139 18.9663 16.3139H21.9087C22.2319 16.3139 22.5 16.5751 22.5 16.9051V19.8476C22.5 20.1776 22.2387 20.4389 21.9087 20.4389Z" fill="#D65DB1"/>
<path d="M18.5675 6.63477L18.5703 6.63821L27.3393 15.2766L27.3414 15.2787C27.55 15.482 27.7158 15.7251 27.8289 15.9936C27.942 16.2621 28.0002 16.5505 28 16.8418C27.9998 17.1332 27.9413 17.4215 27.8278 17.6898C27.7143 17.9581 27.5482 18.201 27.3393 18.4041C26.9632 18.7761 26.4654 18.9997 25.9375 19.0338V23.2626C26.5251 23.4033 27.0482 23.7377 27.4224 24.2121C27.7966 24.6864 28.0001 25.273 28 25.8772V27.3141H6.00002V25.8772C5.99907 25.2727 6.20221 24.6856 6.57654 24.211C6.95086 23.7363 7.47446 23.4019 8.06252 23.262V19.0613C7.53489 19.0248 7.03759 18.8013 6.66002 18.4309C6.45115 18.2271 6.28514 17.9837 6.17175 17.7148C6.05836 17.446 5.99988 17.1572 5.99976 16.8654C5.99963 16.5736 6.05785 16.2848 6.17101 16.0158C6.28416 15.7469 6.44996 15.5033 6.65864 15.2993L6.66071 15.298L8.75002 13.241V8.42158C8.75002 7.41577 9.58052 6.68771 10.4983 6.68771H12.5086C13.2662 6.68771 13.9468 7.18271 14.1723 7.90389L15.4545 6.63958C16.3208 5.77883 17.7095 5.79533 18.5661 6.63408L18.5675 6.63477ZM12.875 11.1097V8.42158C12.8739 8.32543 12.8347 8.23363 12.766 8.16635C12.6973 8.09906 12.6047 8.06179 12.5086 8.06271H10.4983C10.4501 8.06152 10.4022 8.06991 10.3573 8.08739C10.3123 8.10487 10.2713 8.13109 10.2366 8.16453C10.2019 8.19797 10.1741 8.23798 10.155 8.28222C10.1358 8.32646 10.1256 8.37406 10.125 8.42227V13.8164L12.875 11.1097ZM9.43752 16.8256V24.5641H10.8125C10.8125 24.186 11.1219 23.8766 11.5 23.8766V17.2697C11.5 16.7541 11.9194 16.3347 12.435 16.3347H16.0719C16.5875 16.3347 17.0069 16.7541 17.0069 17.2697V23.878C17.3692 23.8958 17.66 24.1976 17.66 24.5641H24.5625V16.7981L17.0138 9.36414L9.43752 16.8249V16.8256ZM16.3125 20.0953C16.3125 20.0042 16.2763 19.9167 16.2118 19.8523C16.1474 19.7878 16.0599 19.7516 15.9688 19.7516C15.8776 19.7516 15.7902 19.7878 15.7257 19.8523C15.6612 19.9167 15.625 20.0042 15.625 20.0953C15.625 20.1865 15.6612 20.2739 15.7257 20.3384C15.7902 20.4029 15.8776 20.4391 15.9688 20.4391C16.0599 20.4391 16.1474 20.4029 16.2118 20.3384C16.2763 20.2739 16.3125 20.1865 16.3125 20.0953Z" fill="#D65DB1"/>
</g>
<defs>
<filter id="filter0_i_112_34" x="5.99976" y="5.99951" width="22.0002" height="21.3146" filterUnits="userSpaceOnUse" color-interpolation-filters="sRGB">
<feFlood flood-opacity="0" result="BackgroundImageFix"/>
<feBlend mode="normal" in="SourceGraphic" in2="BackgroundImageFix" result="shape"/>
<feColorMatrix in="SourceAlpha" type="matrix" values="0 0 0 0 0 0 0 0 0 0 0 0 0 0 0 0 0 0 127 0" result="hardAlpha"/>
<feOffset/>
<feGaussianBlur stdDeviation="3"/>
<feComposite in2="hardAlpha" operator="arithmetic" k2="-1" k3="1"/>
<feColorMatrix type="matrix" values="0 0 0 0 0 0 0 0 0 0 0 0 0 0 0 0 0 0 0.25 0"/>
<feBlend mode="normal" in2="shape" result="effect1_innerShadow_112_34"/>
</filter>
</defs>
</svg>
