<svg width="22" height="22" viewBox="0 0 22 22" fill="none" xmlns="http://www.w3.org/2000/svg">
<path d="M7.46439 10.2143C8.40212 10.2143 9.30144 9.84177 9.96452 9.17869C10.6276 8.51562 11.0001 7.6163 11.0001 6.67857C11.0001 5.74084 10.6276 4.84151 9.96452 4.17844C9.30144 3.51536 8.40212 3.14285 7.46439 3.14285C6.52666 3.14285 5.62734 3.51536 4.96426 4.17844C4.30119 4.84151 3.92868 5.74084 3.92868 6.67857C3.92868 7.6163 4.30119 8.51562 4.96426 9.17869C5.62734 9.84177 6.52666 10.2143 7.46439 10.2143ZM18.4644 7.46428C18.4644 7.82542 18.3933 8.18302 18.2551 8.51666C18.1169 8.85031 17.9143 9.15346 17.6589 9.40883C17.4036 9.66419 17.1004 9.86675 16.7668 10.005C16.4331 10.1432 16.0755 10.2143 15.7144 10.2143C15.3533 10.2143 14.9957 10.1432 14.662 10.005C14.3284 9.86675 14.0252 9.66419 13.7698 9.40883C13.5145 9.15346 13.3119 8.85031 13.1737 8.51666C13.0355 8.18302 12.9644 7.82542 12.9644 7.46428C12.9644 6.73494 13.2541 6.03546 13.7698 5.51974C14.2856 5.00401 14.985 4.71428 15.7144 4.71428C16.4437 4.71428 17.1432 5.00401 17.6589 5.51974C18.1747 6.03546 18.4644 6.73494 18.4644 7.46428ZM1.57153 13.5536C1.57153 13.0847 1.75779 12.635 2.08933 12.3035C2.42086 11.972 2.87053 11.7857 3.33939 11.7857H11.5894C11.745 11.7857 11.8958 11.8061 12.0396 11.8439C11.462 12.3935 11.0024 13.0549 10.6886 13.7878C10.3748 14.5207 10.2135 15.3099 10.2144 16.1071C10.2144 16.6296 10.282 17.1356 10.41 17.6173C9.64396 17.8962 8.6791 18.0714 7.46439 18.0714C1.57153 18.0714 1.57153 13.9464 1.57153 13.9464V13.5536ZM13.197 13.1199C13.2557 13.323 13.2728 13.536 13.2473 13.746C13.2218 13.9559 13.1541 14.1586 13.0484 14.3418C12.9427 14.525 12.8011 14.685 12.6321 14.8121C12.463 14.9393 12.2701 15.031 12.0647 15.0818L11.2602 15.2806C11.1726 15.841 11.1747 16.4117 11.2665 16.9714L12.0333 17.1561C12.2404 17.206 12.4352 17.2974 12.6059 17.4249C12.7765 17.5524 12.9195 17.7133 13.026 17.8977C13.1326 18.0822 13.2005 18.2864 13.2257 18.4979C13.2509 18.7094 13.2328 18.9239 13.1726 19.1282L12.918 19.9909C13.325 20.3524 13.7902 20.647 14.2954 20.8552L14.9577 20.1591C15.1045 20.0047 15.2812 19.8817 15.477 19.7977C15.6728 19.7137 15.8836 19.6704 16.0966 19.6704C16.3097 19.6704 16.5205 19.7137 16.7163 19.7977C16.9121 19.8817 17.0887 20.0047 17.2355 20.1591L17.9034 20.8623C18.4066 20.6556 18.8716 20.3661 19.2792 20.0059L19.016 19.0944C18.9575 18.8913 18.9405 18.6785 18.9662 18.4687C18.9918 18.259 19.0595 18.0565 19.1652 17.8735C19.2709 17.6905 19.4124 17.5307 19.5813 17.4036C19.7502 17.2766 19.943 17.1849 20.1482 17.1341L20.9543 16.9345C21.0419 16.3741 21.0398 15.8034 20.948 15.2436L20.1804 15.059C19.9733 15.0091 19.7785 14.9176 19.6078 14.7901C19.4372 14.6626 19.2942 14.5018 19.1877 14.3173C19.0811 14.1329 19.0132 13.9287 18.988 13.7171C18.9628 13.5056 18.9809 13.2912 19.0411 13.0869L19.2957 12.2226C18.8881 11.8594 18.4226 11.5673 17.9183 11.3583L17.256 12.056C17.1092 12.2105 16.9325 12.3336 16.7366 12.4177C16.5407 12.5017 16.3298 12.5451 16.1167 12.5451C15.9035 12.5451 15.6926 12.5017 15.4968 12.4177C15.3009 12.3336 15.1242 12.2105 14.9774 12.056L14.3103 11.3528C13.8069 11.5594 13.3416 11.8489 12.9337 12.2092L13.197 13.1206V13.1199ZM16.1072 17.2857C15.7947 17.2857 15.4949 17.1615 15.2739 16.9405C15.0528 16.7195 14.9287 16.4197 14.9287 16.1071C14.9287 15.7946 15.0528 15.4948 15.2739 15.2738C15.4949 15.0527 15.7947 14.9286 16.1072 14.9286C16.4198 14.9286 16.7196 15.0527 16.9406 15.2738C17.1616 15.4948 17.2858 15.7946 17.2858 16.1071C17.2858 16.4197 17.1616 16.7195 16.9406 16.9405C16.7196 17.1615 16.4198 17.2857 16.1072 17.2857Z" fill="#8937C7"/>
</svg>
